<svg width="241" height="109" viewBox="0 0 241 109" fill="none" xmlns="http://www.w3.org/2000/svg">
<path d="M10.204 33.6744C13.1395 32.0112 15.123 31.0106 16.1734 30.6801C16.4822 30.5457 17.0544 30.2803 17.8984 29.8743C18.7424 29.4682 19.5021 29.1514 20.204 28.9126C20.8976 28.6837 21.7745 28.4679 22.8264 28.2751C23.5974 28.1044 24.4269 27.8648 25.3044 27.5387C26.1917 27.2211 27.3363 26.9292 28.7395 26.6813C29.0177 26.6227 29.2679 26.5571 29.4721 26.486L29.8897 26.343C29.9608 26.3191 30.0786 26.3098 30.2612 26.3139C30.4439 26.3179 30.6935 26.3626 31.0192 26.4472C31.3163 26.6352 31.5471 26.7916 31.6929 26.9087C31.8387 27.0259 31.9922 27.2434 32.1451 27.5713C32.298 27.8991 32.3638 28.2797 32.3697 28.7109C32.4273 29.4595 32.3162 30.1479 32.0461 30.7845C31.8067 31.3452 31.4341 31.9531 30.9291 32.6173C30.4241 33.2815 30.0443 33.6786 29.7628 33.811C29.4931 33.9791 29.2346 34.1739 29.0067 34.4122C28.8095 34.5746 28.392 34.7176 27.7828 34.8573C27.1735 34.997 26.8089 34.998 26.6889 34.8605C26.483 34.5552 26.7442 34.1581 27.4815 33.6685C28.2097 33.1797 28.8772 32.4936 29.4832 31.601C30.0891 30.7085 30.3731 30.0157 30.3344 29.5136C30.307 29.1575 30.189 28.928 29.9889 28.8151C29.7887 28.7022 29.3864 28.6879 28.782 28.7721C27.1257 29.049 25.2081 29.4842 23.0298 30.0869C20.8515 30.6895 19.2107 31.2867 18.1158 31.8686C17.5973 32.1206 16.8836 32.443 15.9733 32.8175C15.054 33.1928 14.2615 33.558 13.5785 33.9239C12.8948 34.2807 12.0223 34.79 10.97 35.4513C10.2571 35.9022 9.52533 36.3454 8.77475 36.7808C8.02418 37.2163 7.47361 37.5259 7.11469 37.7194C6.75577 37.9129 6.34044 38.2027 5.8694 38.5978C5.39837 38.993 4.90718 39.4816 4.377 40.0559C4.08722 40.4369 3.8294 40.6408 3.59377 40.6593C3.35813 40.6778 3.10914 40.5228 2.83631 40.1769C2.72193 40.1124 2.63748 39.9628 2.5906 39.7093C2.53536 39.4657 2.51982 39.1454 2.54396 38.7486C2.5681 38.3518 2.59646 38.0097 2.62904 37.7224C2.66162 37.4352 2.71436 37.0544 2.80538 36.5789C2.8964 36.1033 2.9471 35.8146 2.97491 35.7022C3.08906 35.4085 3.14305 34.8073 3.12922 33.9174C3.11469 33.0185 3.13508 32.2178 3.20852 31.514C3.28196 30.8102 3.48947 30.4265 3.84011 30.3623C4.01855 30.3115 4.22426 30.378 4.4656 30.552C4.70764 30.735 4.91624 30.9575 5.08305 31.2291C5.33298 31.7514 5.32806 32.7529 5.05086 34.2442C4.80991 35.7327 4.76163 36.5264 4.91507 36.6245C5.49423 36.3311 7.25118 35.3482 10.1957 33.6843L10.204 33.6744ZM19.0809 40.7296C19.3457 40.4976 19.5993 40.2389 19.825 39.9732C20.2848 39.4319 20.6876 39.0972 21.0326 38.9599C21.3776 38.8226 21.6851 38.9087 21.9614 39.181C22.2293 39.463 22.4547 39.7852 22.6194 40.1488C22.7842 40.5124 22.9491 40.9955 23.1042 41.5895C23.2182 42.1224 23.1851 42.6394 22.9881 43.16C22.7912 43.6806 22.5341 44.0131 22.2086 44.1672C21.8832 44.3213 21.5506 44.2648 21.2116 44.0067C20.9898 43.8496 20.9004 43.6361 20.9539 43.384C21.0568 42.9442 21.1047 42.619 21.0885 42.409C21.0723 42.199 21.0256 42.0649 20.9488 42.0158C20.8721 41.9667 20.755 41.9851 20.6065 42.0703C20.449 42.1561 20.3194 42.2489 20.1989 42.3411C20.079 42.4423 19.9257 42.5829 19.7223 42.7826C19.622 42.9007 19.546 42.9801 19.5028 43.0111C19.4513 43.0518 19.3913 43.1025 19.3231 43.1629C19.2548 43.2234 19.2039 43.2733 19.1705 43.3127C18.8952 43.4078 18.721 43.6327 18.6578 43.9959C18.5946 44.359 18.574 44.8015 18.5959 45.3233C18.6179 45.8451 18.6188 46.2124 18.5987 46.4253C18.5677 46.9696 18.609 47.2694 18.7234 47.3339C18.835 47.3619 19.1041 47.3041 19.5376 47.1323C19.9718 46.9696 20.3761 46.7725 20.7489 46.5228C21.2618 46.1979 21.7184 46.0886 22.1375 46.2026C22.5565 46.3167 22.7324 46.5876 22.6567 47.0252C22.5532 47.5752 22.1742 47.9816 21.5197 48.2442C20.9015 48.504 20.2464 48.8768 19.5711 49.3432C18.8959 49.8095 18.5119 50.1519 18.4201 50.3795C18.2747 50.8593 18.2102 51.443 18.2093 52.1412C18.2083 52.8393 18.3063 53.401 18.4753 53.8194L19.4813 53.7405C20.8169 53.5622 22.23 53.3227 23.728 53.0031C25.2177 52.6933 26.8322 52.4655 28.5632 52.3296C30.5814 52.1345 32.3388 51.868 33.8452 51.5385C35.3516 51.209 37.0713 50.9271 39.0142 50.7011C40.8455 50.4472 41.8892 50.3836 42.1542 50.5098C42.4101 50.6367 42.5567 50.8823 42.5855 51.2566C42.6144 51.6309 42.5281 51.9316 42.3365 52.1671C42.1108 52.4328 41.8237 52.6115 41.4926 52.6926C41.1615 52.7737 40.5355 52.8136 39.6054 52.8131C37.7991 52.9182 36.0501 53.1748 34.3757 53.5726C32.7013 53.9704 30.7752 54.2961 28.6239 54.5384C20.181 55.4858 13.8465 56.6994 9.62048 58.1791C8.65443 58.5397 7.96354 58.5664 7.56595 58.2577C7.16835 57.9491 7.1882 57.3781 7.62618 56.5538C7.84908 56.2516 8.16824 56.0153 8.58505 55.8632C9.00186 55.7111 9.97917 55.4966 11.5267 55.2282C13.9185 54.7925 15.3531 54.4778 15.8319 54.3025C15.9517 54.0818 15.9913 53.8858 15.9514 53.7236C15.9025 53.5621 15.8041 53.3494 15.6645 53.0757C15.5158 52.8026 15.4341 52.5702 15.4207 52.3968C15.3599 52.0801 15.2998 51.8919 15.2412 51.8414C15.1826 51.7909 14.9978 51.7595 14.6687 51.7486C13.8446 51.703 13.5271 51.2503 13.7057 50.373C13.7536 50.0477 13.8539 49.8102 13.9988 49.6795C14.1521 49.5389 14.4532 49.4234 14.9098 49.3141C15.6054 49.1125 16.0751 48.8185 16.3091 48.4235C16.5431 48.0286 16.6138 47.4077 16.5115 46.5523C16.4594 45.8768 16.3615 45.4344 16.2185 45.2344C16.0754 45.0343 15.8132 44.9447 15.4235 44.9753C14.8163 45.023 14.4243 44.7874 14.2469 44.2594C14.0195 44.0292 14.0429 43.6233 14.3444 43.0394C14.6376 42.4653 15.0095 41.8482 15.4615 41.2066C15.9136 40.5649 16.1657 40.1685 16.2269 40.0168C16.291 39.9015 16.3885 39.7469 16.509 39.5354C16.6301 39.333 16.7527 39.1489 16.8684 38.9929C16.984 38.8368 17.055 38.6935 17.0981 38.5431C17.1413 38.3928 17.1168 38.3121 17.0234 38.2827C16.9299 38.2533 16.7501 38.2857 16.4657 38.3815C16.1904 38.4766 15.7742 38.6379 15.2166 38.8561C14.3531 39.2454 13.7181 39.4054 13.3018 39.3279C12.8855 39.2504 12.7166 38.8319 12.8039 38.0719C12.8965 37.8534 13.24 37.5785 13.8359 37.2653C14.4318 36.9522 15.0166 36.7318 15.5728 36.6147C15.8175 36.5955 16.1737 36.4848 16.6421 36.2919C17.1105 36.099 17.4959 35.8943 17.8262 35.6847C18.1482 35.4849 18.5914 35.2021 19.1482 34.8553C19.705 34.5085 20.0528 34.2883 20.1922 34.2039C20.9582 33.9693 21.4386 34.051 21.6529 34.4658C21.7891 34.8134 21.7628 35.1828 21.5742 35.5742C21.3855 35.9656 20.9418 36.5974 20.2257 37.4802C19.6099 38.245 18.967 39.1312 18.2962 40.1299C17.6262 41.1377 17.2961 41.7055 17.3074 41.8516C17.332 42.1711 17.9055 41.8046 19.037 40.7514L19.0809 40.7296ZM16.8072 10.4975C18.3938 10.2628 19.0914 9.8498 18.9 9.25864L18.8585 8.71999L20.6034 8.52793C21.7725 8.43617 22.5296 8.32165 22.8746 8.18435C23.451 7.85439 23.8776 7.83009 24.1546 8.11144C24.4225 8.39351 24.5245 8.77126 24.4516 9.2454C24.3787 9.71954 24.2144 10.0723 23.9497 10.3043C23.8075 10.3522 23.3767 10.4411 22.6391 10.5725C21.8291 10.7095 20.64 11.1335 19.0809 11.8437C17.5127 12.5546 16.6687 13.0801 16.5574 13.4103C16.2532 14.0771 15.9269 15.1681 15.5772 16.6651C15.5237 16.9173 15.7879 16.915 16.379 16.6573C17.6538 16.1623 18.2825 15.9201 18.2462 15.9229C18.5912 15.7856 18.8938 15.8078 19.1631 15.9888C19.4232 16.1704 19.5335 16.4189 19.4857 16.7441C19.4099 17.1818 19.2031 17.5746 18.8562 17.9233C18.5092 18.272 18.1398 18.4479 17.7473 18.442C17.4635 18.4275 16.8202 18.7168 15.8341 19.2902C14.8849 19.8698 13.6464 20.4814 12.1291 21.1424C10.6118 21.8033 9.58995 22.1499 9.05524 22.1919C8.62928 22.2253 8.40045 21.9769 8.35896 21.4383C8.29005 20.5436 9.44057 19.7369 11.8014 19.0189C12.0768 18.9238 12.2935 18.7782 12.4321 18.5652C12.5805 18.3607 12.9906 17.6488 13.6821 16.4465C13.8966 16.0347 14.072 15.5893 14.1902 15.1116C14.3175 14.6332 14.3501 14.3459 14.3144 14.2385C14.2335 14.1346 13.954 14.1749 13.4667 14.3601C12.9795 14.5453 12.4742 14.7319 11.934 14.9396C11.3939 15.1473 11.0718 15.2277 10.97 15.2082C10.5497 15.3146 9.22673 15.7767 7.0193 16.5929C6.05325 16.9534 5.47119 17.0909 5.29056 16.9949C4.99836 16.8709 4.79179 16.5564 4.67991 16.0509C4.56733 15.5362 4.62843 15.1456 4.85414 14.8799C5.08548 14.6873 5.55737 14.54 6.26146 14.448C6.96555 14.356 7.4751 14.2242 7.78175 14.0623C11.9877 12.7954 14.2753 11.9545 14.6348 11.5314C14.7351 11.4133 14.7782 11.2629 14.7899 11.06C14.7933 10.8668 14.7372 10.3752 14.5952 9.59651C14.2796 7.867 14.1165 6.81437 14.089 6.45832C14.0616 6.10227 14.15 5.82898 14.3444 5.63003C14.7345 5.13099 15.1743 5.04136 15.6549 5.36185C15.9548 5.58629 16.2658 6.78345 16.5691 8.9456L16.7974 10.4891L16.8072 10.4975ZM12.5375 21.9461C13.0333 22.1093 13.3187 22.5002 13.4049 23.1455C13.4573 23.3527 13.5062 23.5142 13.5509 23.6209C13.5956 23.7276 13.6535 23.769 13.7246 23.745C13.7957 23.7211 13.8563 23.6796 13.9246 23.6191C13.9929 23.5586 14.1043 23.4672 14.2507 23.3547C14.397 23.2422 14.5441 23.1388 14.6834 23.0544C14.8166 23.0072 15.0688 22.8496 15.4207 22.5648C15.7733 22.2892 16.0918 22.0437 16.3775 21.8468C16.6632 21.6499 17.02 21.429 17.4486 21.1933C17.8779 20.9667 18.2244 20.8477 18.4886 20.8453C18.7528 20.8429 19.0324 20.922 19.3358 21.0727C19.5967 21.2635 19.6987 21.6412 19.6328 22.2067C19.567 22.7721 19.3638 23.33 19.0156 23.8992L18.7356 24.4079C19.2224 24.6912 19.5238 24.9339 19.6494 25.1445C19.7215 25.6072 19.6681 25.9788 19.4982 26.2585C19.3282 26.5382 18.9631 26.8883 18.4015 27.2906C17.8489 27.6922 17.4872 27.9686 17.3172 28.1289C15.5794 29.597 14.3661 30.2985 13.687 30.2415C13.4757 30.2214 13.2874 30.1443 13.1319 30.0187C12.9756 29.8841 12.8263 29.7213 12.6644 29.5135C12.5033 29.3149 12.3728 29.1599 12.2556 29.0588C11.9891 28.795 11.8306 28.3942 11.7891 27.8555C11.7273 26.1061 11.5899 25.0331 11.3785 24.6547C11.0008 23.8945 11.0003 23.1781 11.3771 22.5056C11.6556 21.9786 12.0431 21.8012 12.5382 21.9552L12.5375 21.9461ZM15.5865 24.4806C15.3503 24.6094 15.0291 24.9377 14.6237 25.4746C14.2183 26.0116 14.01 26.3862 13.99 26.599C13.9421 26.9242 13.991 27.0857 14.136 27.0743C14.2447 27.0658 14.614 26.651 15.2437 25.8301C15.8734 25.0092 16.184 24.5439 16.1756 24.4344C16.1643 24.2883 15.974 24.3032 15.5956 24.4799L15.5865 24.4806Z" fill="white"/>
<path d="M49.6296 32.1959C49.4625 32.3926 49.1977 32.6246 48.827 32.9016C47.7854 33.6996 47.0019 33.9446 46.476 33.6276C46.2834 33.4957 46.1612 33.2114 46.0904 32.7669C46.0196 32.3224 46.0618 31.9242 46.208 31.5729C46.3631 31.2209 46.6182 31.0999 46.9829 31.2183C47.342 31.2637 47.6662 31.2107 47.9554 31.0595C48.2446 30.9082 48.5644 30.6811 48.9142 30.369C49.2639 30.0569 49.5217 29.853 49.6973 29.7658C49.8973 29.6399 50.2903 29.2969 50.8754 28.7276C51.4515 28.1589 51.8278 27.8355 52.0034 27.7483C53.0144 27.0262 53.6508 26.8845 53.8952 27.3338C54.2568 27.8841 54.1791 28.2943 53.6732 28.5911C53.4341 28.6833 52.897 29.1662 52.0708 30.0392C51.2447 30.9121 50.6999 31.414 50.4267 31.5364C50.0532 31.7769 49.7877 31.9998 49.6199 32.1874L49.6296 32.1959ZM55.1356 35.016C55.3342 34.8719 55.6306 34.9313 56.0059 35.1867C56.239 35.4899 56.2675 36.2132 56.0641 37.3589C55.8699 38.5038 55.6391 39.4127 55.3622 40.0774C55.1535 40.5621 54.9134 41.1136 54.6615 41.7487C54.409 42.3747 54.2642 42.7442 54.2343 42.8292C54.2051 42.9233 54.0352 43.203 53.7163 43.678C53.3974 44.153 53.1007 44.562 52.8263 44.905C52.5519 45.2479 52.0386 45.9219 51.2941 46.9078C50.8372 47.4855 50.4889 47.8158 50.2499 47.908C49.8686 48.0481 49.5143 47.9473 49.1878 47.6146C48.8612 47.282 48.7117 46.8804 48.7483 46.4091C48.7655 46.1598 48.8162 45.9905 48.9012 45.9104C48.9862 45.8302 49.18 45.7416 49.4922 45.6528C49.7619 45.4848 50.0635 45.1397 50.397 44.6176C50.7299 44.0864 51.0105 43.7062 51.2481 43.4764C51.7635 42.8298 52.445 41.6192 53.2927 39.8445C54.1321 38.0796 54.6497 36.7532 54.8282 35.8759C54.8313 35.444 54.937 35.1602 55.1356 35.016ZM48.7173 14.8258C48.8679 14.8874 49.2481 15.0873 49.8584 15.4344C50.4687 15.7816 50.867 15.98 51.0539 16.0388C52.2227 16.4157 52.9278 16.6912 53.1782 16.8644C53.4203 17.0475 53.5621 17.3487 53.5952 17.7778C53.6646 18.204 53.5205 18.4633 53.1727 18.564C52.8248 18.6647 52.3361 18.5928 51.716 18.3566C50.8282 17.9577 49.6845 17.6707 48.2851 17.4956C47.7119 17.3935 47.3556 17.2653 47.2418 17.0905C47.1196 16.9256 47.1919 16.6811 47.451 16.3761C47.9223 15.5126 48.3381 14.9932 48.7173 14.8258ZM60.6907 24.6525C60.9804 24.2716 61.253 24.2594 61.5176 24.6153C61.773 24.9719 62.0447 25.5384 62.313 26.2981C62.413 26.6484 62.48 27.5157 62.5132 28.8908C62.5464 30.2659 62.5185 31.0855 62.4385 31.3489C62.321 31.7163 62.0556 31.9392 61.6317 31.9999C61.2086 32.0698 60.9345 31.9443 60.801 31.6333C60.4852 29.9038 60.4512 27.5736 60.69 24.6434L60.6907 24.6525ZM64.1559 19.697C64.4234 19.5015 64.6429 19.2731 64.7974 19.0314C64.9611 18.789 65.2063 18.5401 65.5435 18.3025C65.8808 18.0648 66.1533 17.9333 66.3708 17.9162C66.6517 17.8942 66.884 18.0689 67.0489 18.4326C67.2228 18.7955 67.2314 19.1439 67.0749 19.4776C66.9154 19.7748 66.7783 20.006 66.6438 20.1543C66.5101 20.3117 66.3311 20.4727 66.099 20.6562C65.867 20.8397 65.7124 20.962 65.6455 21.0407C65.222 21.579 64.6207 21.9384 63.833 22.1286C63.0453 22.3189 62.3842 22.1411 61.8421 21.6141C61.5364 21.3165 61.3842 20.9978 61.3944 20.6572C61.4045 20.3166 61.5629 19.6521 61.878 18.6538C62.232 17.6893 62.3662 17.1828 62.2971 17.1147C62.2218 17.0839 61.9269 17.1621 61.4035 17.35C60.7212 17.7249 60.2004 17.7106 59.8501 17.3064C59.4998 16.9021 59.4987 16.4154 59.8475 15.8554C61.0992 13.6449 61.7588 12.0319 61.8263 11.0163C61.8495 10.3716 61.9112 9.99015 62.0025 9.87279C62.0937 9.75543 62.3941 9.63088 62.8841 9.48229C63.0682 9.50462 63.1728 9.56072 63.2161 9.64917C63.2594 9.73763 63.2987 10.0101 63.3346 10.4757C63.4346 10.8261 63.4384 11.2299 63.3461 11.6872C63.2537 12.1444 63.0952 12.6896 62.8629 13.3415C62.6299 13.9843 62.4796 14.4002 62.4212 14.5884C62.4965 14.6193 62.737 14.5453 63.1517 14.3659C64.3602 13.8396 65.1021 14.0019 65.3761 14.8346C65.5208 15.2917 65.2912 15.8608 64.7068 16.5586C64.4812 16.8243 64.1769 17.3716 63.7935 18.1915C63.41 19.0115 63.2312 19.5306 63.2475 19.7406C63.2721 20.0601 63.5726 20.0549 64.158 19.7244L64.1559 19.697ZM63.5332 27.222C63.4182 26.4411 63.3354 25.722 63.2846 25.0647C63.2339 24.4074 63.3005 24.0899 63.4749 24.1038C63.8093 23.8296 64.0595 23.7641 64.2346 23.9066C64.4098 24.049 64.6291 24.5278 64.91 25.3324C65.3949 27.4803 65.6031 28.7591 65.5246 29.1601C65.3899 29.7769 64.9285 29.9416 64.1216 29.6466C63.8635 29.4923 63.7084 29.137 63.6675 28.6075C63.6925 28.4586 63.6482 28.0029 63.5332 27.222ZM66.6591 23.4228C67.042 23.5398 67.3844 23.7242 67.6872 23.9852C68.2273 24.4848 68.4972 25.5015 68.5069 27.0438C68.5397 27.9413 68.513 28.5404 68.4366 28.8495C68.3511 29.1592 68.1755 29.3659 67.9002 29.4609C67.5992 29.6957 67.3 29.5997 66.9922 29.1554C66.6934 28.7104 66.6164 28.3031 66.7611 27.9336C66.9205 27.6364 66.8971 27.0964 66.7187 26.3205C66.5312 25.5453 66.3641 25.0348 66.2001 24.7997C66.0389 24.6011 65.9369 24.3427 65.8773 24.0443C65.8178 23.7458 65.8393 23.5513 65.9424 23.4697C66.0399 23.3151 66.2755 23.2967 66.6584 23.4137L66.6591 23.4228ZM72.8379 9.32738C72.4156 9.64517 71.8651 9.95463 71.1758 10.2382C70.4865 10.5218 70.0405 10.768 69.8454 10.9578C69.311 11.3578 68.7437 11.5676 68.1608 11.5765C67.578 11.5854 67.0891 11.394 66.7025 10.9926C66.5357 10.721 66.5355 10.4822 66.7033 10.2946C66.8712 10.1069 67.2712 9.85515 67.9319 9.55543C68.0741 9.50755 69.4232 8.79572 71.9878 7.41008C72.33 7.23633 72.6402 7.23959 72.9276 7.41915C73.2059 7.59941 73.3616 7.84439 73.3863 8.16392C73.4585 8.62668 73.2789 9.01731 72.8658 9.33438L72.8379 9.32738ZM73.3842 2.23084C73.3726 2.55321 73.2104 2.8139 72.8779 2.99607C72.5553 3.18665 71.8883 3.40421 70.8692 3.6677C69.8229 3.93333 69.0937 4.05472 68.6831 4.05014C68.2724 4.04556 67.8979 3.91875 67.5582 3.65145C66.76 2.99755 66.9827 2.45659 68.2359 2.03699C68.6534 1.89409 69.2257 1.74824 69.9604 1.58049C72.274 1.07786 73.412 1.29184 73.3751 2.23155L73.3842 2.23084ZM72.5419 13.1713C72.3657 13.3688 72.0898 13.5741 71.7337 13.8041C71.3776 14.034 71.1017 14.2393 70.8983 14.4389C70.3882 14.8003 69.9437 15.0648 69.545 15.2154C69.147 15.3751 68.8215 15.4098 68.5683 15.3194C68.3151 15.229 68.1735 15.0473 68.1516 14.7642C68.1298 14.4812 68.2941 14.2479 68.637 14.0833C68.837 13.9574 69.2459 13.5856 69.8638 12.9678C70.4727 12.3506 70.9005 11.9865 71.1402 11.9034C71.5549 11.724 71.953 11.6836 72.3344 11.7824C72.7159 11.8811 72.9217 12.067 72.9436 12.35C72.8623 12.7146 72.7377 12.9907 72.5524 13.1889L72.5419 13.1713ZM69.7897 24.5278C69.9385 23.9742 70.0293 23.3793 70.0525 22.7346C70.2238 20.8199 70.4906 19.6693 70.8528 19.2828C71.1175 19.0508 71.5379 18.9444 72.1145 18.9727L72.1341 19.9356C72.1394 20.4771 72.1989 20.7755 72.2861 20.8421C72.3824 20.9081 72.6096 20.7801 72.9774 20.4665C73.7153 19.8669 74.3999 19.8775 75.0405 20.4979C75.6713 21.1098 75.8365 21.951 75.5264 23.0131C75.3595 23.5681 75.2587 23.9158 75.2331 24.0556C75.1824 24.3443 74.8482 24.8572 74.2297 25.5853C73.6111 26.3134 73.1444 26.7633 72.8385 26.9342C72.5325 27.1051 72.0188 27.1821 71.3062 27.1644C70.2011 27.1407 69.625 26.8827 69.5863 26.3806C69.5704 25.7022 69.641 25.0813 69.7904 24.5369L69.7897 24.5278ZM71.3262 16.7934C71.1373 16.8266 70.977 16.8759 70.8544 16.9406C70.7317 17.0053 70.6112 17.0974 70.4739 17.2092C69.7438 17.9093 69.3499 17.885 69.2921 17.1364C69.2865 17.0634 69.2989 16.9889 69.3303 16.9222C69.3609 16.8463 69.4277 16.7676 69.5225 16.6959C69.6256 16.6143 69.7204 16.5426 69.8249 16.4793C69.9294 16.416 70.0423 16.3429 70.1817 16.2585L70.5385 16.0377C70.643 15.9744 70.7392 15.9209 70.8451 15.8759C70.951 15.8309 71.0221 15.8069 71.0493 15.8048C71.2806 15.6122 71.487 15.5685 71.6502 15.6751C71.8232 15.7901 71.8993 15.9495 71.8981 16.17C71.8962 16.3814 71.8455 16.5507 71.7452 16.6688C71.6392 16.7138 71.4963 16.7526 71.2983 16.7864L71.3262 16.7934ZM81.7429 36.8084C81.9374 36.8482 82.2094 36.9463 82.54 37.0949C82.8762 37.3166 83.2391 37.6464 83.6285 38.0843C84.0178 38.5222 84.2266 38.8641 84.2456 39.1106C84.296 39.2903 84.3777 39.5227 84.4916 39.8169C84.6055 40.1111 84.6768 40.3259 84.7041 40.4432C84.7321 40.5696 84.7636 40.7416 84.8 40.9776C84.8358 41.2044 84.836 41.4432 84.8264 41.6735C84.8078 41.9046 84.7683 42.22 84.7066 42.6014C84.6448 42.9828 84.5623 43.4485 84.4672 43.9886C84.3887 44.3897 84.3068 44.7451 84.2031 45.0563C84.0995 45.3675 84.0356 45.6022 84.0189 45.7412C83.9127 46.2547 83.3863 47.1133 82.4308 48.3179C81.4752 49.5224 80.688 50.3096 80.0783 50.6788C79.5382 51.0059 78.7171 51.2355 77.6233 51.3579C76.922 51.4863 76.3246 51.5422 75.8491 51.5244C75.3736 51.5065 74.9537 51.3832 74.6154 51.1342C74.2771 50.8851 74.0252 50.6936 73.8773 50.5491C73.7196 50.3961 73.4927 50.0557 73.1876 49.5285C72.8825 49.0013 72.6619 48.6236 72.5369 48.4222C72.0503 47.6704 72.0283 47.1486 72.4715 46.8659C72.8422 46.5889 73.2132 46.7895 73.5854 47.4767C73.8213 47.8164 74.0105 48.0221 74.1444 48.1034C74.2783 48.1848 74.445 48.2176 74.6625 48.2006C75.4419 48.1396 75.9552 48.2923 76.1939 48.6685C76.3168 48.8426 76.5804 48.9505 76.9953 49.0099C77.4102 49.0692 77.7929 49.0668 78.1436 49.0026C78.6998 48.8856 79.4328 48.3414 80.3433 47.3792C81.2439 46.4086 81.7676 45.6328 81.8961 45.0533C82.7581 42.8733 82.9722 41.2768 82.5384 40.2638C82.3079 39.6389 82.0586 39.2451 81.7817 39.0831C81.5055 38.9302 80.8793 38.8507 79.9221 38.8521C79.312 38.8632 78.9021 38.8677 78.6651 38.8679C78.4371 38.8674 78.1777 38.8142 77.9057 38.7161C77.633 38.6089 77.4572 38.4574 77.3859 38.2425C77.3146 38.0277 77.2627 37.7103 77.2303 37.2903C77.2419 36.9679 77.4024 36.3308 77.7202 35.3691C78.0381 34.4074 78.3337 33.6311 78.6073 33.0402C78.8188 32.592 78.8556 32.3595 78.7168 32.3336C78.6053 32.3056 78.3452 32.3627 77.9256 32.4782C77.5067 32.6029 77.2404 32.5778 77.1175 32.4038C76.6725 32.1906 76.5112 31.8726 76.6426 31.449C76.774 31.0254 77.1489 30.6838 77.7664 30.415C78.9749 29.8887 79.7562 29.6163 80.1096 29.5886C80.6331 29.4006 81.0209 29.5815 81.2988 30.1108C81.5684 30.65 81.538 31.084 81.21 31.4404C80.8812 31.7876 80.4232 32.7052 79.8443 34.1833C79.2655 35.6614 79.0403 36.524 79.159 36.7627C79.2037 36.8694 79.6702 36.888 80.5493 36.8192C81.1474 36.7723 81.5483 36.7685 81.7519 36.8076L81.7429 36.8084ZM73.2703 23.9062C73.7249 23.0624 73.8827 22.5081 73.7514 22.2245C73.5733 21.8068 73.1456 22.2903 72.4767 23.6652C71.9916 24.7044 71.8854 25.2178 72.1663 25.1958C72.4473 25.1738 72.815 24.7409 73.2696 23.8971L73.2703 23.9062ZM80.349 8.71165C80.9808 7.21101 81.5264 6.01102 81.9949 5.11099C82.1286 4.95356 82.2677 4.511 82.4281 3.75448C82.5802 3.00781 82.6928 2.5765 82.7568 2.46127C82.8543 2.30668 83.0411 2.24613 83.3263 2.27891C83.6114 2.31168 83.8214 2.43301 83.9373 2.63518C84.0095 3.09794 84.0718 3.43289 84.1243 3.64003C84.1768 3.84716 84.1638 4.15127 84.0567 4.53622C83.9587 4.92046 83.8795 5.19302 83.8015 5.36445C83.7236 5.53588 83.6081 5.81127 83.4376 6.20119C83.2761 6.5904 83.1446 6.89461 83.0528 7.12223C82.634 8.19289 82.3458 8.83081 82.187 9.01776C82.0276 9.31496 81.9818 9.54817 82.03 9.70053C82.079 9.86202 82.2003 9.89844 82.3871 9.83789C82.5732 9.76821 82.753 9.61636 82.918 9.39219C83.4362 8.78217 83.9735 8.41864 84.5221 8.32057C85.0707 8.2225 85.554 8.46019 85.991 9.04134C86.1138 9.21541 86.0687 9.45774 85.8563 9.77746C85.653 10.0965 85.3779 10.4303 85.0498 10.7866C84.721 11.1338 84.5128 11.3889 84.4146 11.5344C84.3945 11.7472 84.2664 11.9777 84.0379 12.2068C83.7454 12.5512 83.6717 12.7774 83.8244 12.8665C83.8635 12.9001 83.9346 12.8762 84.0287 12.7954C84.2043 12.7081 84.522 12.4536 84.9811 12.0227C85.6806 11.3985 86.234 11.245 86.6603 11.5698C87.15 11.8896 87.112 12.3427 86.5547 12.919C86.0372 13.5382 85.643 13.9823 85.3741 14.2789C85.1136 14.5657 84.6677 14.9313 84.0454 15.3749C83.4232 15.8186 82.874 16.0269 82.4061 15.9901C81.7933 15.9646 81.4256 15.6903 81.2753 15.1602C81.125 14.63 81.2597 14.0133 81.6698 13.3015C81.9482 12.7746 82.07 12.462 82.0253 12.3552C81.9805 12.2485 81.7163 12.2509 81.2235 12.3629C80.7725 12.5452 80.3786 12.5209 80.0417 12.2901C79.7054 12.0685 79.4828 11.7828 79.3912 11.4226C79.4027 11.1003 79.7241 10.1842 80.3559 8.68355L80.349 8.71165ZM81.661 17.0863C81.8401 16.9253 82.1114 17.0143 82.4561 17.3455C82.982 17.6625 83.3076 18.4544 83.4418 19.7206C83.576 20.9867 83.4918 22.022 83.1989 22.8348C83.1683 22.9107 83.1185 23.3279 83.0584 24.0857C82.9893 24.8443 82.8746 25.2482 82.6962 25.2989C82.2949 25.6518 81.929 25.7539 81.5977 25.5962C81.2671 25.4475 81.0618 25.1513 80.9925 24.7251C80.9231 24.2989 80.9611 23.8458 81.098 23.3759C81.2099 22.9354 81.3089 22.0919 81.4139 20.8529C81.509 19.6056 81.5369 18.6666 81.4868 18.0184C81.4146 17.5556 81.4729 17.248 81.652 17.087L81.661 17.0863ZM86.062 19.0562C86.2373 19.4374 86.3165 19.9914 86.299 20.7092C86.2956 21.6096 86.2612 22.2276 86.2057 22.5718C86.1412 22.9167 85.9789 23.1774 85.6995 23.337C85.2591 23.6562 84.8945 23.6572 84.6056 23.34C84.3167 23.0228 84.2194 22.5896 84.3138 22.0403C84.3701 21.8246 84.3941 21.3084 84.3864 20.5008C84.3788 19.6931 84.3956 18.9662 84.4278 18.3208C84.4691 17.6746 84.5456 17.3655 84.6474 17.3851C84.8759 17.156 85.1101 17.1193 85.3319 17.2764C85.5545 17.4427 85.6865 17.7354 85.7196 18.1645C85.7721 18.3716 85.8867 18.675 86.0529 19.0569L86.062 19.0562ZM88.4952 15.6143C88.7203 15.5783 88.9142 15.609 89.0676 15.7072C89.3236 15.8341 89.5068 16.4352 89.6088 17.5201C89.7107 18.6051 89.7097 19.891 89.614 21.3681C89.5968 21.6174 89.3532 22.1233 88.8735 22.8772C88.3937 23.6312 88.0371 24.0908 87.8037 24.256C87.2106 24.4862 86.855 24.4864 86.7098 24.259C86.5653 24.0407 86.7274 23.6606 87.1871 23.1195C87.5694 22.5201 87.7682 20.9615 87.7836 18.4437C87.7796 16.9745 87.8478 16.0875 88.0073 15.7903C88.1104 15.7087 88.27 15.6503 88.5042 15.6136L88.4952 15.6143Z" fill="white"/>
<path d="M109.566 20.568C109.744 20.5173 109.916 20.5038 110.1 20.5261C110.285 20.5484 110.429 20.6474 110.551 20.8123C110.848 21.0003 111.071 21.2859 111.2 21.6524C111.328 22.0189 111.494 22.7499 111.688 23.846C112.012 25.6851 112.274 26.6014 112.483 26.5851C112.628 26.5737 112.84 25.8958 113.128 24.5415C113.735 23.1989 114.504 22.5325 115.434 22.5332C115.782 22.4325 116.348 22.682 117.125 23.2917C117.901 23.8922 118.339 24.3722 118.439 24.7226C118.528 24.9269 118.679 25.2274 118.908 25.6043C119.129 25.982 119.311 26.3351 119.446 26.6644C119.581 26.9936 119.69 27.3524 119.793 27.7393C119.993 28.4401 120.159 28.8128 120.308 28.8563C120.457 28.8997 120.703 28.6509 121.054 28.1274C121.681 27.0404 122.157 26.7001 122.47 27.098C122.667 27.2938 122.696 27.659 122.552 28.1662C122.488 28.2814 122.259 28.7402 121.856 29.5433C121.453 30.3463 121.206 30.8065 121.106 30.9246C120.654 31.5662 120.478 32.48 120.569 33.6577C120.616 34.2603 120.578 35.0714 120.465 36.0906C120.352 37.1006 120.216 37.8185 120.065 38.2252C119.887 38.6341 119.598 38.9139 119.218 39.0722C118.839 39.2305 118.498 39.1929 118.198 38.9592C117.992 38.6539 117.909 38.4124 117.934 38.2543C117.957 38.0872 118.058 37.8588 118.226 37.5609C118.395 37.263 118.496 37.0347 118.522 36.8949C118.572 36.6062 118.599 36.2459 118.602 35.814C118.605 35.3821 118.57 35.1553 118.494 35.1244C118.455 35.0907 118.025 35.5378 117.212 36.4648C116.064 37.7762 115.313 38.4412 114.959 38.4689C114.923 38.4717 114.76 38.3651 114.48 38.1574C114.199 37.9498 114.019 37.8628 113.949 37.905C113.843 37.9501 113.794 38.257 113.811 38.8343C113.917 39.7262 113.571 40.3227 112.775 40.6422C112.458 40.667 112.236 40.5099 112.126 40.1511C112.008 39.8022 111.886 38.8106 111.759 37.1673C111.472 33.9292 111.263 31.8056 111.132 30.8148C111.001 29.8239 110.731 28.4581 110.306 26.7371C109.991 25.3658 109.738 24.4488 109.557 23.9946C109.376 23.5403 109.168 23.327 108.923 23.3461C108.742 23.3603 108.383 23.6731 107.847 24.2937C107.312 24.9143 106.881 25.4807 106.567 26.0105C106.012 27.0918 105.628 27.7832 105.412 28.0664C105.206 28.3489 104.972 28.505 104.728 28.5242C104.265 28.5603 104.015 28.2768 103.968 27.6652C103.949 27.4187 104.095 26.9389 104.396 26.2356C104.697 25.5324 105.026 24.9464 105.382 24.4868C105.577 24.297 105.934 23.4883 106.453 22.0608C106.964 20.6432 107.468 19.2536 107.947 17.9118C108.427 16.5609 108.775 15.8814 108.993 15.8644C109.063 15.8222 109.173 15.7126 109.342 15.5432C109.511 15.3647 109.629 15.2452 109.714 15.165C109.799 15.0849 109.948 15.0089 110.18 14.9357C110.402 14.8632 110.615 14.9108 110.802 15.0799C110.991 15.1752 111.06 15.4729 111.035 15.98C111.063 16.3361 110.895 16.8819 110.55 17.607C110.196 18.3327 109.846 19.003 109.502 19.627C109.158 20.2418 109.012 20.593 109.044 20.6548C109.228 20.6771 109.4 20.6636 109.578 20.6129L109.566 20.568ZM118.349 30.8833C118.336 30.4711 118.199 30.2429 117.949 30.1891C117.638 30.2869 117.162 30.6272 116.533 31.2184C115.904 31.8095 115.554 32.1216 115.485 32.1638C114.095 33.531 113.445 34.5646 113.537 35.2738C113.616 36.3055 113.765 36.8173 113.974 36.801C114.182 36.7847 114.929 36.0649 116.213 34.6326C117.489 33.21 118.169 32.3302 118.253 31.993C118.336 31.6559 118.363 31.2956 118.358 30.8826L118.349 30.8833ZM114.663 25.652C114.498 25.8762 114.378 26.0877 114.282 26.2697C114.187 26.4608 114.103 26.6603 114.01 26.8788C113.917 27.0973 113.849 27.2771 113.814 27.4085C113.769 27.5406 113.72 27.7281 113.667 27.9894C113.614 28.2416 113.573 28.4284 113.546 28.5408C113.518 28.6532 113.488 28.8576 113.457 29.1631C113.426 29.4687 113.405 29.6724 113.393 29.7559C113.382 29.8487 113.364 30.0797 113.338 30.4583C113.313 30.8369 113.286 31.0778 113.258 31.1902C113.542 31.2047 114.045 30.8805 114.759 30.2092C115.474 29.5471 115.991 29.1484 116.299 29.014C117.046 28.5239 117.485 28.1956 117.609 28.0206C117.741 27.8449 117.72 27.571 117.544 27.1898C117.148 26.1831 116.759 25.5155 116.377 25.178C115.559 24.7369 114.987 24.8919 114.653 25.6345L114.663 25.652ZM133.964 23.9753C134.414 24.2615 134.708 24.4038 134.853 24.3925C134.883 24.3166 135.312 24.4391 136.139 24.751C136.965 25.0628 137.868 25.4147 138.837 25.8072C139.806 26.1997 140.407 26.419 140.621 26.4757C141.092 26.5491 141.383 26.7743 141.504 27.1597C141.625 27.5452 141.519 27.9484 141.196 28.3687C140.686 29.0882 140.023 29.1218 139.225 28.4679C138.766 28.0722 137.846 27.6206 136.475 27.0943C135.104 26.5771 134.295 26.3741 134.049 26.5036C134.013 26.5064 133.987 26.5268 133.972 26.5647C133.957 26.6027 133.943 26.668 133.932 26.7607C133.921 26.8534 133.902 26.956 133.873 27.0592C133.846 27.1716 133.822 27.3388 133.804 27.579C133.785 27.8101 133.758 28.051 133.722 28.2835C133.685 28.516 133.629 28.851 133.56 29.2605C133.483 29.6798 133.434 30.1062 133.394 30.5409C132.785 34.2166 132.013 36.3895 131.063 37.0701C130.731 37.3808 130.368 37.5194 129.973 37.4769C129.016 37.4784 128.13 36.8681 127.323 35.6362C126.647 34.7891 126.444 34.1621 126.694 33.7475C126.884 33.4847 127.204 33.6158 127.638 34.1604C128.249 35.1136 128.848 35.5444 129.451 35.442C130.045 35.3404 130.466 34.7656 130.702 33.7C131.272 31.8644 131.647 29.7502 131.818 27.3671C131.903 26.5706 131.885 26.1036 131.766 25.9752C131.796 25.8993 131.431 25.7809 130.67 25.6017C129.909 25.4317 128.935 25.2141 127.767 24.9657C126.59 24.7181 125.913 24.5782 125.729 24.5558C125.543 24.497 125.402 24.3335 125.289 24.0484C125.177 23.7725 125.166 23.5162 125.258 23.2977C125.584 22.914 126.061 22.7113 126.68 22.6996C127.299 22.6878 127.861 22.7541 128.354 22.8899C128.849 23.0349 129.418 23.2016 130.08 23.3977C130.734 23.5945 131.244 23.7015 131.6 23.7104C131.808 23.6941 131.943 23.6651 131.994 23.6244C132.046 23.5836 132.081 23.4522 132.101 23.2394C132.222 22.4401 132.244 21.0699 132.184 19.1182C132.125 17.1666 131.998 15.8814 131.803 15.2446C131.676 15.0066 131.504 14.9099 131.271 14.9648C131.047 15.0191 130.592 15.266 129.916 15.7139C129.81 15.7589 129.574 15.8876 129.197 16.0916C128.822 16.3047 128.594 16.4327 128.508 16.4946C128.422 16.5565 128.229 16.6634 127.921 16.8069C127.614 16.9596 127.411 17.0489 127.33 17.0644C127.241 17.0898 127.072 17.1398 126.804 17.2159C126.536 17.2919 126.356 17.3152 126.244 17.2872C126.133 17.2592 125.976 17.2439 125.758 17.2427C125.548 17.2408 125.371 17.1903 125.235 17.0907C125.1 16.9911 124.946 16.8838 124.753 16.7519C124.561 16.62 124.375 16.4601 124.177 16.2551C123.715 15.8229 123.388 15.0127 123.188 13.8344C122.987 12.647 123.044 11.7423 123.351 11.103C123.537 10.8037 123.834 10.6335 124.224 10.6029C124.613 10.5724 124.962 10.7196 125.269 11.0354C125.576 11.3512 125.603 11.6981 125.35 12.0762C125.226 12.3705 125.211 12.7666 125.277 13.2666C125.352 13.7659 125.516 14.2307 125.76 14.68C126.005 15.1293 126.217 15.2871 126.382 15.1732C127.013 15.087 127.919 14.6579 129.091 13.8865C130.262 13.1151 131.197 12.7021 131.904 12.6467C132.369 12.647 132.697 12.7591 132.886 12.9739C133.085 13.1879 133.298 13.7039 133.543 14.5114C133.721 14.9291 133.846 15.4796 133.936 16.1798C134.026 16.8707 134.073 17.4824 134.076 17.9965C134.08 18.5197 134.073 19.2459 134.053 20.1751C134.034 21.1134 134.034 21.7012 134.053 21.9477L133.943 23.9494L133.964 23.9753Z" fill="white"/>
<path d="M156.103 27.3023C155.859 27.5694 155.554 27.878 155.188 28.2097C154.822 28.5415 154.508 28.8508 154.246 29.1193C153.658 29.7715 153.276 30.1321 153.097 30.1737C152.921 30.2609 152.68 30.2063 152.362 29.9924C152.046 29.7876 151.857 29.5911 151.808 29.4205C151.752 29.1768 152.202 28.5078 153.149 27.4325C153.25 27.3145 153.39 27.129 153.588 26.8563C154.56 25.6321 155.209 24.6996 155.534 24.068C155.859 23.4363 155.996 22.6173 155.955 21.6102C155.738 21.517 155.416 21.478 155.005 21.4734C154.595 21.4688 154.31 21.5645 154.142 21.7522C153.909 21.9174 153.525 22.1404 152.991 22.4302C152.457 22.7199 152.092 22.9506 151.894 23.1039C151.719 23.1911 151.612 23.3373 151.554 23.5347C151.497 23.7412 151.467 24.3037 151.476 25.2399C151.385 27.7268 150.945 28.9921 150.165 29.0531C149.667 29.0921 149.352 28.9056 149.21 28.485C149.068 28.0644 149.101 27.3087 149.299 26.2186C149.434 25.6019 149.493 25.0645 149.494 24.6144C149.496 24.1642 149.421 23.1965 149.27 21.7021C149.176 20.4879 149.093 19.6494 149.021 19.1958C148.949 18.733 148.842 18.2822 148.708 17.8518C148.565 17.413 148.443 16.899 148.323 16.293C148.232 15.5837 148.181 15.1561 148.17 15.01C148.158 14.8639 148.233 14.6469 148.383 14.3504C148.542 14.0532 148.642 13.8066 148.701 13.6274C148.685 13.4175 148.828 13.2593 149.121 13.1629C149.415 13.0664 149.645 13.1035 149.795 13.2754C149.913 13.3764 150.036 13.9087 150.157 14.8911C150.287 15.8637 150.394 16.4248 150.478 16.5651C150.603 16.7666 150.689 16.815 150.753 16.7089C150.784 16.633 150.837 16.3808 150.904 15.944C151.063 15.2886 151.29 14.8024 151.567 14.496C151.844 14.1895 152.352 13.911 153.082 13.6794C153.811 13.4477 154.359 13.3314 154.715 13.3402C155.074 13.3856 155.492 13.6008 155.969 13.9951C156.446 14.3894 156.828 14.8463 157.113 15.3567L157.613 16.2819L157.874 18.9526C157.974 19.3029 158.016 19.7222 157.999 20.2103C157.982 20.6984 157.982 21.0566 158 21.2848C158.017 21.5131 157.988 21.8368 157.909 22.2379C157.831 22.639 157.789 22.927 157.785 23.111C157.781 23.295 157.72 23.5661 157.611 23.9328C157.494 24.3002 157.413 24.5545 157.352 24.7063C157.291 24.858 157.193 25.1229 157.067 25.5092C156.942 25.8956 156.846 26.1787 156.787 26.367C156.57 26.7422 156.33 27.064 156.087 27.3403L156.103 27.3023ZM152.576 20.7176C153.088 20.3744 153.615 20.0025 154.177 19.6003C154.729 19.1988 155.077 18.9787 155.219 18.9309C155.682 18.8947 155.925 18.6276 155.959 18.1198C155.993 17.612 155.882 17.1156 155.606 16.6136C155.339 16.111 155.072 15.838 154.821 15.7841C154.262 15.5065 153.792 15.5525 153.392 15.9237C152.992 16.2948 152.601 16.904 152.219 17.7422C151.837 18.5804 151.618 19.0567 151.554 19.1628C151.303 19.5774 151.19 20.0087 151.225 20.456C151.26 20.9033 151.421 21.1111 151.702 21.0891C151.783 21.193 152.075 21.0691 152.586 20.726L152.576 20.7176ZM167.486 25.474C167.734 25.2617 168.035 25.1372 168.397 25.1088C168.823 25.0755 169.221 24.9157 169.592 24.6387C169.963 24.3617 171.081 23.374 172.947 21.6849C173.473 21.1753 173.789 20.7831 173.869 20.5106C173.948 20.238 173.965 19.6305 173.894 18.7084C173.872 18.4254 173.828 18.089 173.761 17.6993C173.712 17.0603 173.621 16.7183 173.49 16.6735C173.359 16.6286 172.974 16.8333 172.334 17.2784L171.819 17.585C171.48 17.7953 171.081 18.0562 170.622 18.3768C170.164 18.6974 169.81 18.9548 169.559 19.1305C169.308 19.3063 168.978 19.5159 168.567 19.7501C168.157 19.9843 167.728 20.2199 167.291 20.4654C167.116 20.5526 166.867 20.6455 166.537 20.7357C166.207 20.835 165.943 20.9475 165.733 21.065C165.523 21.1825 165.401 21.3757 165.348 21.637C165.395 22.2395 165.403 23.6441 165.38 25.8318C165.358 28.0195 165.382 29.6341 165.462 30.6657C165.596 32.8779 165.42 34.0214 164.924 34.0969C164.151 34.231 163.643 33.9126 163.41 33.1409C163.262 32.6473 163.172 31.1206 163.138 28.5607C163.105 26.0008 163.143 24.3722 163.272 23.6824C163.335 23.0713 163.388 22.1028 163.451 20.7937C163.513 19.4754 163.555 18.3608 163.594 17.4485C163.633 16.5361 163.694 16.0353 163.797 15.9538C163.881 15.6257 163.852 14.2963 163.7 11.9753C163.604 10.2561 163.562 9.23994 163.573 8.91758C163.585 8.59521 163.658 8.35988 163.783 8.20316C164.044 7.93467 164.449 7.86621 164.998 7.9978C165.546 8.13851 165.76 8.42488 165.648 8.86532C165.712 9.21853 165.78 9.39685 165.853 9.39118C165.925 9.3855 166.026 9.26743 166.145 9.04681C166.176 8.97093 166.199 8.91403 166.214 8.87609C166.23 8.83815 166.253 8.79038 166.285 8.73276C166.317 8.67515 166.368 8.62524 166.438 8.58305C166.931 7.64437 167.637 6.87266 168.557 6.26792C168.925 5.95439 169.193 5.76806 169.371 5.71735C169.55 5.66664 169.93 5.63683 170.54 5.6258C171.359 5.59844 171.91 5.64716 172.21 5.76139C172.653 5.93801 173.096 6.37167 173.541 7.05324C173.986 7.73482 174.29 8.48253 174.462 9.29566C174.514 9.50279 174.752 10.9353 175.166 13.5756C175.579 16.216 175.878 17.956 176.053 18.8057L176.623 25.4841C176.835 28.7005 176.886 30.7723 176.785 31.717C176.737 32.0422 176.713 32.6687 176.719 33.5774C176.717 34.4961 176.657 35.2539 176.548 35.8502C176.439 36.4466 176.204 36.8232 175.858 36.9513C175.448 37.1946 174.886 37.1193 174.18 36.7062C173.813 36.5604 173.484 36.3198 173.186 36.0033C172.897 35.6861 172.686 35.4271 172.56 35.2165C172.435 35.0059 172.234 34.6451 171.937 34.1081C171.65 33.5795 171.477 33.2348 171.43 33.1007C170.813 32.0744 170.654 31.3153 170.936 30.8249C171.153 30.4497 171.516 30.7795 172.024 31.8143C172.063 31.8479 172.086 31.9013 172.091 31.9743C172.216 32.1758 172.399 32.538 172.656 33.0323C172.905 33.5363 173.075 33.8536 173.158 33.9849C173.5 34.748 173.811 35.1186 174.074 35.098C174.337 35.0774 174.515 34.6685 174.59 33.8727C174.946 30.6854 174.893 27.1718 174.415 23.3425C174.332 23.2021 174.1 23.2662 173.71 23.5355C173.32 23.7957 172.93 24.1844 172.54 24.6742C172.022 25.2934 171.358 25.9056 170.577 26.5271C169.786 27.1493 169.218 27.4693 168.864 27.497C168.511 27.5246 168.144 27.3789 167.764 27.0688C167.385 26.7586 167.178 26.4442 167.154 26.1247C167.137 25.9147 167.257 25.6941 167.505 25.4818L167.486 25.474ZM166.65 12.8648C166.405 13.3524 166.301 13.6636 166.349 13.8069C166.321 13.9193 166.209 14.2403 166.022 14.7784C165.836 15.3165 165.711 15.9417 165.657 16.6623C165.553 18.0298 165.624 18.7131 165.869 18.6939C165.905 18.6911 165.94 18.67 165.973 18.6306C167.009 18.228 168.277 17.5317 169.771 16.5606C171.263 15.5804 172.212 14.9918 172.624 14.7758C172.902 14.7173 173.076 14.6118 173.138 14.4692C173.166 14.3568 173.066 13.538 172.839 12.0128C172.612 10.4876 172.46 9.58102 172.365 9.30369C172.265 8.95332 172.028 8.59534 171.644 8.23045C171.26 7.86557 170.917 7.67201 170.614 7.64065C170.311 7.6093 169.975 7.75495 169.608 8.06848C169.471 8.18939 169.291 8.3321 169.059 8.51559C168.826 8.69908 168.663 8.82212 168.578 8.90225C168.493 8.98239 168.383 9.10116 168.258 9.24875C168.124 9.40618 168.02 9.58886 167.928 9.81648C167.836 10.0441 167.719 10.3012 167.56 10.5985C167.236 11.4871 167.083 11.9768 167.091 12.0863C167.058 12.1257 166.923 12.3842 166.669 12.8725L166.65 12.8648Z" fill="white"/>
<path d="M203.592 1.95385C203.755 2.40951 203.631 2.81414 203.23 3.16703C203.096 3.32445 202.95 3.55633 202.774 3.87321C202.606 4.18939 202.425 4.43324 202.245 4.58508C202.066 4.74606 201.762 4.94435 201.353 5.19682C200.437 5.73693 199.789 6.20099 199.427 6.58755C199.43 6.62407 199.451 6.65917 199.49 6.69284C200.093 7.18748 200.242 7.69021 199.927 8.22C199.818 8.22852 199.741 8.52847 199.705 9.12827C199.66 9.71964 199.614 10.4213 199.575 11.2142C199.526 12.0079 199.494 12.5339 199.486 12.7825C199.425 12.9343 199.436 13.0804 199.521 13.239C199.606 13.3977 199.721 13.4622 199.857 13.4515C200.096 13.3593 200.492 13.0619 201.045 12.5502C201.589 12.0392 202.208 11.4305 202.882 10.7073C203.556 9.99317 204.012 9.51664 204.239 9.27837C204.543 9.08007 204.913 8.67454 205.349 8.06177C205.786 7.45813 206.203 6.95705 206.619 6.56623C207.036 6.1754 207.46 5.99527 207.891 6.03495C208.175 6.04946 208.421 6.15882 208.609 6.35531C208.806 6.5511 208.906 6.78207 208.925 7.02857C208.717 7.51333 208.246 8.14719 207.523 8.93858C206.8 9.72997 205.955 10.5952 204.997 11.5336C204.039 12.4719 203.421 13.0897 203.163 13.4039C201.942 14.721 201.209 15.3846 200.965 15.4037C200.856 15.4123 200.71 15.5247 200.507 15.7335C200.314 15.9507 200.217 16.1053 200.225 16.2148C200.334 16.2063 200.49 16.2216 200.712 16.2594C200.933 16.2971 201.111 16.3475 201.261 16.4092C201.412 16.4709 201.576 16.5958 201.775 16.8007C202.612 17.4882 203.862 18.3272 205.524 19.3084C207.186 20.2895 208.414 21.0751 209.207 21.656C209.88 22.1084 210.67 22.5425 211.579 22.9765C212.488 23.4105 213.166 23.8165 213.625 24.2123C214.196 24.636 214.705 24.9727 215.171 25.2209C215.637 25.4691 216.111 25.6984 216.582 25.8912C217.061 26.0832 217.469 26.2809 217.802 26.4661C218.481 26.9915 219.932 27.4841 222.139 27.9542C222.355 28.0474 222.506 28.1091 222.581 28.1308C222.656 28.1617 222.753 28.2367 222.889 28.3455C223.026 28.4634 223.091 28.6052 223.087 28.7892C223.083 28.9732 223.036 29.1881 222.946 29.4431C222.757 30.1744 222.5 30.6262 222.194 30.7971C221.888 30.968 221.413 30.8399 220.779 30.4211C220.443 30.1995 219.81 29.9184 218.899 29.5764C217.979 29.2351 217.395 28.987 217.127 28.8242C217.013 28.7597 216.672 28.5936 216.103 28.3166C215.526 28.0404 215.183 27.8468 215.075 27.7542C209.676 24.6593 205.974 22.4234 203.98 21.0366C203.563 20.7111 203.037 20.4032 202.413 20.1122C201.78 19.822 201.342 19.5807 201.071 19.3815C200.473 18.9599 200.063 18.7166 199.865 18.6402C199.668 18.5638 199.438 18.5359 199.193 18.555C198.951 18.6107 198.792 18.6783 198.725 18.757C198.658 18.8357 198.585 19.071 198.516 19.4714C198.393 19.7658 198.256 20.2357 198.086 20.8735C197.926 21.5107 197.761 22.093 197.61 22.61C197.458 23.1271 197.301 23.571 197.147 23.9413C197.016 24.1352 196.818 24.5273 196.545 25.1181C196.272 25.7181 196.011 26.2345 195.754 26.6863C195.506 27.1374 195.253 27.5155 194.985 27.8212C194.762 28.1234 194.448 28.7817 194.069 29.7757C193.279 31.5918 192.276 33.1216 191.057 34.3467C189.83 35.5725 188.937 35.9363 188.361 35.4487C188.008 35.008 187.862 34.5326 187.931 34.0037C187.999 33.4748 188.156 33.0308 188.409 32.6437C188.582 32.5199 188.695 32.4468 188.766 32.4228C188.837 32.3989 188.977 32.4339 189.203 32.5264C189.428 32.6189 189.551 32.6645 189.587 32.6617L190.611 31.3967C191.043 30.9679 191.565 30.0545 192.187 28.6648C192.809 27.2752 193.252 26.4046 193.509 26.0631C194.088 25.3013 194.71 24.0311 195.376 22.2614C196.042 20.4918 196.257 19.5013 196.033 19.3077C195.954 19.2403 195.721 19.2862 195.323 19.4459C194.925 19.6057 194.557 19.7998 194.22 20.0466C193.987 20.2118 193.469 20.4728 192.677 20.8379C191.884 21.2031 191.229 21.4473 190.699 21.5622C190.282 21.7051 189.938 21.6218 189.669 21.3215C189.399 21.0211 189.313 20.6145 189.41 20.1018C189.528 19.7344 189.708 19.4631 189.958 19.2782C190.208 19.0933 190.615 18.9329 191.177 18.7786C193.775 17.822 195.653 16.7565 196.812 15.5911C196.98 15.4035 197.081 15.1752 197.135 14.923C197.188 14.6708 197.218 14.1082 197.215 13.2451C197.282 12.698 197.311 12.1263 197.291 11.5125C197.281 10.9071 197.295 10.3916 197.336 9.97507C197.377 9.55857 197.455 9.0381 197.59 8.42136C197.752 7.8025 197.798 7.45904 197.722 7.41907C197.646 7.36997 197.243 7.46581 196.514 7.70659C195.642 7.98612 195.043 8.14322 194.708 8.16948C194.372 8.19574 193.687 8.17594 192.643 8.1199C192.459 8.09758 192.283 7.94602 192.096 7.6484C191.91 7.3599 191.812 7.03692 191.785 6.68088C191.763 6.39787 191.901 6.18495 192.193 6.06111C192.483 5.92814 193.058 5.81881 193.898 5.71629C195.53 5.58854 196.855 5.27353 197.882 4.76141C198.909 4.24929 200.022 3.42739 201.22 2.2957C201.78 1.74674 202.223 1.46405 202.54 1.43921C203.072 1.36082 203.415 1.55438 203.568 2.00162L203.592 1.95385Z" fill="white"/>
<path d="M238.168 12.1322C238.052 12.0494 237.967 12.0102 237.922 12.0137C237.876 12.0173 237.735 12.0743 237.534 12.1819C237.332 12.2895 237.174 12.3662 237.068 12.4112C236.7 12.7248 236.274 12.7581 235.79 12.5113C235.306 12.2645 235.005 11.9023 234.877 11.4256C234.749 10.9488 234.867 10.4712 235.22 9.97504C235.505 9.52112 235.747 9.23578 235.956 9.1092C237.056 8.5914 238.095 8.71205 239.083 9.45218C240.07 10.2014 240.512 11.0853 240.408 12.0946C240.293 13.3251 239.841 14.6739 239.062 16.1585C238.283 17.634 237.5 18.7148 236.694 19.384C236.352 19.5578 236.064 19.6079 235.822 19.535C235.588 19.4615 235.464 19.2783 235.459 18.9756C235.454 18.6729 235.602 18.349 235.894 17.9955C236.41 17.349 236.923 16.4454 237.418 15.2953C237.913 14.1452 238.176 13.298 238.207 12.7537C238.291 12.4257 238.275 12.2157 238.16 12.1421L238.168 12.1322Z" fill="white"/>
<path d="M100.639 77.6596C100.541 78.1212 100.508 78.7692 100.523 79.6147C100.539 80.4602 100.464 81.2323 100.281 81.933C100.19 82.8082 100.212 83.2846 100.323 83.3834C100.434 83.4821 100.737 83.229 101.206 82.6452C101.704 81.9848 102.463 81.2045 103.477 80.3235C104.491 79.4425 105.138 78.9872 105.427 78.9565C105.968 78.9728 106.289 79.2426 106.399 79.7741C106.51 80.3057 106.317 80.6484 105.839 80.8003C105.735 80.8483 105.524 81.11 105.2 81.5955C104.876 82.081 104.666 82.3427 104.561 82.3907C103.149 83.2218 101.478 84.9828 99.547 87.6736C99.4243 87.8984 99.2673 89.3698 99.0653 92.0706C98.8632 94.7715 98.5507 96.416 98.1087 96.9969C97.7771 97.9344 97.2842 98.9903 96.6219 100.175C95.5243 102.703 94.4724 103.045 93.4669 101.209C93.3422 100.716 93.4235 100.182 93.6999 99.5914C93.9773 99.0095 94.297 98.7454 94.661 98.8173C95.0174 98.8164 95.2819 98.5489 95.4627 98.0049C95.6345 97.4618 95.7415 97.1743 95.7739 97.134C96.1759 96.5205 96.5061 95.4819 96.7662 94.0363C97.0264 92.5907 97.0673 91.4078 96.9069 90.4857L96.7632 89.6354L95.8977 90.5375C94.6659 91.7822 92.8065 93.0567 90.3024 94.3719C89.8232 94.2478 89.5211 94.0681 89.3888 93.8519C89.2565 93.6358 89.2751 93.376 89.4463 93.0908C89.6086 92.8066 89.8441 92.5238 90.1367 92.2626C90.4293 92.0013 90.7742 91.7162 91.1734 91.4252C93.649 89.8368 95.5231 88.2661 96.7887 86.7323C97.1688 86.2592 97.4462 85.6774 97.6189 84.9685C97.7925 84.2687 97.929 83.3887 98.0113 82.3395C98.0936 81.2903 98.1892 80.5436 98.2891 80.1003C98.2519 79.7451 97.9374 79.7969 97.3455 80.2556C97.2447 80.3399 97.1528 80.4233 97.051 80.4986C96.3335 81.1547 95.5318 81.6173 94.6549 81.8852C93.7699 82.1632 93.0143 82.1053 92.3891 81.7204C91.7639 81.3355 91.5131 80.5979 91.6458 79.5066C91.6296 79.0019 91.6595 78.5015 91.7247 77.9881C91.7989 77.4739 91.9035 76.9011 92.0548 76.2497C92.198 75.6084 92.295 75.1378 92.3379 74.8478C92.2865 74.7059 92.3711 74.4667 92.5819 74.1221C92.7927 73.7775 92.8421 73.5513 92.7232 73.4626C92.3506 72.9589 92.4472 72.5711 93.031 72.2974C93.6419 72.0209 94.1334 72.0884 94.4984 72.5193C94.6649 72.7134 94.7297 72.9828 94.6907 73.3092C94.6602 74.0674 94.5099 75.0778 94.2317 76.3503C93.9534 77.6229 93.8011 78.4401 93.7659 78.8029C93.7631 79.1255 93.824 79.3584 93.9197 79.4864C94.0253 79.6225 94.1738 79.6436 94.3831 79.5477C94.5834 79.4528 94.7656 79.3598 94.9217 79.2788C95.0768 79.1887 95.2814 79.0473 95.5426 78.8354C95.6397 78.7147 96.0379 78.4146 96.7635 77.9233C97.4801 77.433 97.9016 77.0936 98.0182 76.8971C98.3336 76.5046 98.3088 74.6933 97.9337 71.4552C97.9003 71.1365 97.8756 70.7248 97.8594 70.2201C97.7518 69.191 97.7313 68.5579 97.7998 68.3388C97.8683 68.1198 98.1243 67.9453 98.5777 67.8236C98.73 67.8811 98.9094 67.9357 99.133 67.9764C99.3847 68.0234 99.5408 68.1173 99.5912 68.2501C99.6426 68.392 99.7283 68.8617 99.8502 69.6774C99.9025 70.1783 99.9615 70.568 100.027 70.8464C100.294 73.0464 100.487 74.1953 100.598 74.294C100.75 74.3515 101.2 73.9355 101.966 73.044C102.732 72.1525 103.298 71.7978 103.673 71.9698C103.95 72.2627 104.117 72.5488 104.166 72.8383C104.214 73.1187 104.187 73.3885 104.084 73.6296C103.981 73.8707 103.816 74.1276 103.578 74.3831C103.34 74.6386 103.09 74.8768 102.846 75.0776C102.603 75.2875 102.343 75.5085 102.084 75.7477C101.826 75.9869 101.612 76.2121 101.458 76.4034C101.031 76.771 100.772 77.1851 100.674 77.6467L100.639 77.6596ZM120.967 97.4086C119.573 97.722 118.409 97.9469 117.474 98.1012C116.54 98.2556 115.503 98.3102 114.353 98.2388C114.273 98.1737 113.57 98.1746 112.243 98.2509C110.916 98.318 109.478 98.3784 107.948 98.4393C106.418 98.4911 105.437 98.4571 104.993 98.3201C104.315 97.9592 103.771 97.3907 103.369 96.6047C103.213 96.5108 103.088 96.1005 102.976 95.3758C102.863 94.6511 102.784 93.8952 102.739 93.1082C102.693 92.3212 102.584 91.633 102.412 91.0343C102.282 90.8364 102.194 90.3485 102.15 89.5797C102.106 88.8109 101.99 88.3997 101.811 88.345C101.251 87.7967 101.333 87.3553 102.047 87.0217C102.799 86.6933 103.424 86.7283 103.934 87.1439C104.098 87.3106 104.183 87.5134 104.209 87.7593C104.807 90.0714 105.147 92.0978 105.221 93.8578C105.332 94.9233 105.546 95.5727 105.852 95.7889C106.158 96.005 107.027 96.097 108.449 96.0567C108.982 96.0002 110.606 95.9661 113.336 95.9435C116.067 95.9209 118.023 95.7411 119.194 95.4051C119.327 95.2805 120.05 95.1118 121.36 94.8807C122.671 94.6497 123.405 94.5073 123.537 94.4565C123.774 94.3578 123.855 93.9993 123.772 93.3819C123.689 92.7646 123.727 92.3371 123.876 92.1003C124.127 91.7883 124.431 91.7283 124.799 91.9196C125.157 92.1118 125.366 92.4487 125.413 92.904C125.439 93.1499 125.58 93.448 125.825 93.7811C126.07 94.1142 126.253 94.3802 126.366 94.5892C126.479 94.7891 126.423 95.1265 126.231 95.5703C126.149 95.8277 126.091 95.9811 126.068 96.0204C126.036 96.0607 126 96.1565 125.96 96.2989C125.921 96.4503 125.874 96.5198 125.819 96.5256C125.765 96.5313 125.714 96.5644 125.665 96.6248C125.617 96.6852 125.519 96.714 125.382 96.7101C125.235 96.7072 125.118 96.7197 125.011 96.7494C124.904 96.7792 124.724 96.7983 124.45 96.8089C124.186 96.8185 123.941 96.8353 123.733 96.8573C123.272 96.9062 122.35 97.0869 120.947 97.3923L120.967 97.4086Z" fill="white"/>
<path d="M138.982 66.7979C139.376 66.8113 139.659 66.9839 139.841 67.3237C140.023 67.6635 140.03 68.0771 139.861 68.5646C139.698 69.0146 139.805 69.2519 140.202 69.2835C140.526 69.3228 141.291 69.2969 142.497 69.2058C145.009 69.0131 146.378 69.0797 146.586 69.4166C146.804 69.7526 146.849 70.1806 146.721 70.7006C146.592 71.2207 146.351 71.6238 145.988 71.9109C145.162 72.5786 144.713 72.4789 144.623 71.6229C144.59 71.3041 144.416 71.1292 144.112 71.1062C143.808 71.0832 142.963 71.1268 141.585 71.2361C140.699 71.3301 140.139 71.3987 139.888 71.4437C139.646 71.4878 139.43 71.612 139.259 71.8051C139.088 72.0074 138.878 72.1862 138.649 72.3578C138.416 72.4929 138.183 72.886 137.968 73.5349C137.752 74.1839 137.419 75.4531 136.975 77.3324C136.727 78.3624 136.373 79.5233 135.92 80.7867C135.468 82.0593 135.106 83.3222 134.843 84.5655C134.656 85.4877 134.552 86.0604 134.54 86.301C134.528 86.5325 134.6 86.6998 134.756 86.7938C135.175 87.0348 135.099 87.8899 134.539 89.3489C133.582 91.8259 132.677 92.6954 131.814 91.9582C131.344 91.5753 131.306 90.6862 131.697 89.2727C132.322 87.3742 132.746 85.7547 132.981 84.4131C133.215 83.0716 133.601 81.6035 134.155 79.9978C134.633 78.7962 135.232 76.7439 135.953 73.8499C136.664 70.9477 137.379 68.7818 138.087 67.3347C138.294 66.9537 138.595 66.7653 138.989 66.7787L138.982 66.7979ZM145.771 87.1448C145.882 86.1939 146.053 85.4759 146.267 84.9837C146.481 84.4914 146.786 84.2657 147.182 84.2973C147.503 84.3002 147.739 84.4593 147.874 84.7948C148.018 85.1202 148.04 85.5046 147.94 85.948C147.648 87.9586 147.251 89.5844 146.732 90.8272C146.393 91.6919 146.379 92.0892 146.692 92.0193C146.724 91.979 146.775 91.9368 146.843 91.8927C147.012 91.7643 147.456 91.2845 148.191 90.4514C148.927 89.6184 149.439 89.0945 149.746 88.887C149.887 88.8352 150.081 88.5936 150.337 88.1522C150.592 87.7108 150.777 87.4702 150.873 87.4232C151.042 87.2947 151.223 87.2756 151.434 87.3637C151.635 87.4529 151.785 87.5751 151.876 87.7496C151.982 88.0606 151.912 88.4455 151.677 88.9032C151.441 89.361 150.953 90.0205 150.221 90.89C149.655 91.5945 149.158 92.1812 148.74 92.6399C148.322 93.0986 147.884 93.541 147.435 93.9661C146.976 94.3922 146.66 94.6837 146.485 94.8495C146.31 95.0153 145.879 95.3465 145.2 95.8513C144.522 96.356 144.029 96.7121 143.732 96.9278C142.78 97.71 142.163 98.1898 141.898 98.3652C140.817 98.9495 140.221 98.7549 140.121 97.7988C140.095 97.5529 140.171 97.3147 140.34 97.1033C140.51 96.8919 140.907 96.4907 141.534 95.9271C141.893 95.6035 142.073 95.3174 142.086 95.0859C142.098 94.8544 141.969 94.3157 141.707 93.4779C141.322 92.156 140.73 91.298 139.94 90.9122C139.572 90.8039 139.362 90.5408 139.317 90.1128C139.272 89.6848 139.366 89.3526 139.588 89.1173C140.062 88.4961 140.799 88.7218 141.798 89.8036C141.926 89.9742 142.031 90.1012 142.133 90.2009C142.234 90.3006 142.315 90.3749 142.392 90.4127C142.47 90.4597 142.527 90.4813 142.564 90.4775C142.6 90.4736 142.634 90.4516 142.666 90.4113C142.723 90.2579 142.671 89.4072 142.507 87.8408C142.344 86.2745 142.22 85.4405 142.137 85.348C142.013 85.2138 141.84 85.2138 141.598 85.35C140.593 85.963 139.805 86.2952 139.235 86.3556C139.09 86.3709 138.95 86.2477 138.795 85.9971C138.641 85.7464 138.547 85.4526 138.513 85.1339C138.488 84.888 138.553 84.6416 138.703 84.414C138.862 84.1853 139.058 84.054 139.303 84.0281C139.51 84.0061 139.932 83.8417 140.568 83.544C141.195 83.2473 141.555 83.0158 141.648 82.8586C141.761 82.8835 141.812 82.6755 141.795 82.2537C141.787 81.8219 141.749 81.3747 141.683 80.9213C141.617 80.4587 141.562 80.1975 141.518 80.1285C141.478 80.0959 141.023 80.1995 140.161 80.4382C139.54 80.6146 139.148 80.7114 138.985 80.7287C138.822 80.7459 138.652 80.6903 138.457 80.5729C137.806 80.2091 137.744 79.7001 138.241 79.0305C138.455 78.7223 138.933 78.4875 139.667 78.336C140.862 78.1356 142.173 77.3888 143.609 76.0856C144.465 75.3503 145.046 75.1414 145.363 75.4668C145.991 76.0448 145.732 76.8088 144.588 77.7588C144.189 78.0497 143.934 78.4912 143.813 79.0841C143.738 79.4143 143.699 79.7407 143.705 80.0623C143.702 80.3849 143.73 80.649 143.786 80.8364C143.843 81.0329 143.907 81.1182 143.979 81.1105C144.088 81.099 144.497 80.7333 145.199 80.0144C145.91 79.2944 146.321 78.9469 146.424 78.9637C146.632 78.9417 146.842 79.0299 147.036 79.2211C147.238 79.4114 147.344 79.6395 147.37 79.8854C147.396 80.1313 147.313 80.3886 147.129 80.6384C146.945 80.8881 146.555 81.2701 145.957 81.7571C145.24 82.4132 144.776 82.8767 144.579 83.1739C144.38 83.462 144.265 83.8425 144.241 84.3146C144.198 84.6046 144.214 85.2842 144.291 86.3627C144.366 87.432 144.453 88.4447 144.551 89.3827C144.65 90.3207 144.717 90.7923 144.753 90.7885C144.826 90.7808 144.974 90.452 145.216 89.791C145.449 89.1402 145.565 88.7596 145.553 88.6503C145.55 88.6139 145.608 88.1197 145.719 87.1779L145.771 87.1448ZM162.199 67.061C162.044 67.3261 161.983 68.0508 161.997 69.237C162.032 70.2737 162.1 70.9203 162.198 71.1585C162.296 71.3967 162.531 71.4638 162.913 71.3497C163.827 71.1791 164.718 71.3056 165.601 71.7091C166.485 72.1218 167.139 72.6969 167.574 73.4427C168.557 75.6772 169.143 78.0458 169.33 80.5396C169.821 84.8796 170.023 87.5191 169.948 88.4571C169.866 89.0735 169.759 89.536 169.608 89.8375C169.456 90.1389 169.167 90.4275 168.737 90.6849C168.468 90.8239 168.265 90.9006 168.148 90.913C168.03 90.9255 167.799 90.8948 167.471 90.8191C166.992 90.695 166.423 90.3226 165.746 89.7038C165.069 89.0942 164.717 88.6067 164.68 88.2516C164.654 88.0057 164.831 87.9501 165.202 88.0857C165.39 88.1394 165.519 88.2362 165.606 88.3652C165.978 88.8689 166.438 89.1608 166.986 89.2408C167.535 89.3299 167.874 89.1651 168.005 88.7552C168.091 88.5343 168.042 87.5359 167.885 85.7755C167.719 84.016 167.55 82.8369 167.378 82.2383C167.309 81.9234 167.242 81.7278 167.182 81.6698C167.12 81.6027 167.035 81.5749 166.935 81.5855C166.695 81.6478 166.116 82.059 165.217 82.8173C164.31 83.5765 163.804 84.0721 163.682 84.306C163.537 84.9291 163.596 86.7183 163.867 89.6545C164.137 92.5907 164.192 94.3434 164.04 94.8937C163.876 95.3437 163.595 95.6222 163.214 95.7363C162.832 95.8504 162.501 95.7382 162.22 95.409C162.07 95.0289 161.995 94.6593 161.994 94.3004C161.993 93.9414 162.003 93.4247 162.025 92.7594C162.047 92.0942 162.046 91.6522 162.023 91.4337C162.054 90.6754 161.987 89.5131 161.823 87.9468C161.672 86.8488 161.568 86.206 161.511 86.0095C161.455 85.8221 161.356 85.7497 161.224 85.8005C160.671 85.9328 159.947 86.3503 159.052 87.053C158.692 87.3765 158.332 87.424 157.97 87.1954C157.608 86.9667 157.54 86.5871 157.768 86.0566C157.967 85.2437 158.716 84.5381 160.014 83.9308C160.708 83.7468 161.112 83.4184 161.226 82.9367C161.341 82.4551 161.276 81.9278 161.032 81.3369C160.876 81.2429 160.284 81.5267 159.245 82.1709C158.207 82.8242 157.597 83.2848 157.406 83.5537C157.251 83.8187 157.184 84.3139 157.186 85.0318C157.199 85.8591 157.177 86.9572 157.101 88.328C157.034 89.6978 156.997 90.5672 156.998 90.9262C157.035 91.2814 156.962 91.7219 156.789 92.2467C156.615 92.7715 156.424 93.1324 156.234 93.3275C155.77 93.699 155.358 93.6875 154.997 93.293C154.807 92.8804 154.732 92.3359 154.769 91.6414C154.807 90.956 154.859 90.0573 154.945 88.9525C155.022 87.8487 155.04 87.0641 154.992 86.5997C155.055 86.1602 154.974 84.2444 154.765 80.8505C154.557 77.4566 154.574 75.2634 154.826 74.2607C154.772 74.0915 154.899 73.8202 155.2 73.466C155.501 73.1118 155.821 72.8477 156.158 72.6646C156.495 72.4815 156.741 72.4738 156.905 72.6406C157.097 72.7307 157.164 72.9354 157.134 73.2608C157.095 73.5872 157.029 73.9994 156.944 74.4964C156.85 74.9944 156.817 75.2926 156.828 75.4018C156.847 75.584 156.97 75.5341 157.187 75.2532C157.256 75.2091 157.306 75.167 157.339 75.1267C157.561 74.8914 157.969 74.5074 158.553 73.9759C159.137 73.4443 159.545 73.0604 159.767 72.8251L160.25 72.2859L160.191 70.6716L160.107 69.8702C160.081 69.6243 160.079 69.4221 160.1 69.2816C160.121 69.1321 160.109 69.0137 160.061 68.9083C160.014 68.8028 159.98 68.7419 159.958 68.7074C159.936 68.6729 159.846 68.6825 159.696 68.7352C159.537 68.7889 159.406 68.8488 159.285 68.9169C159.164 68.985 158.942 69.1283 158.607 69.3387C157.935 69.7322 157.129 70.1492 156.197 70.5888C155.256 71.0293 154.668 71.2665 154.424 71.2924C153.755 71.3634 153.378 70.989 153.292 70.1694C153.236 69.6321 153.3 69.2847 153.476 69.1279C153.65 68.9621 154.112 68.8303 154.849 68.7152C155.41 68.6558 155.821 68.5661 156.083 68.4463C156.335 68.3274 156.837 68.0533 157.577 67.6157C158.615 66.9624 159.2 66.5228 159.34 66.2961C159.481 66.0694 159.458 65.5839 159.271 64.8486C159.213 64.643 159.044 64.1637 158.775 63.4189C158.505 62.6741 158.349 62.0553 158.314 61.5525C158.28 61.0498 158.426 60.6936 158.769 60.4823C158.939 60.3538 159.06 60.2949 159.153 60.3035C159.245 60.3121 159.416 60.3768 159.684 60.4866C159.947 60.6428 160.151 60.8513 160.289 61.1221C160.427 61.3929 160.632 62.0433 160.921 63.0532C161.023 63.3278 161.108 63.6226 161.176 63.9192C161.244 64.2159 161.31 64.4115 161.372 64.4877C161.436 64.573 161.608 64.6377 161.904 64.6708C162.228 64.7101 162.454 64.7781 162.564 64.8677C162.674 64.9574 162.758 65.151 162.788 65.4333C162.821 65.752 162.647 66.2769 162.257 66.9997L162.199 67.061ZM160.711 78.4429C160.703 76.9705 160.6 75.987 160.404 75.5106C160.278 75.349 160.019 75.4133 159.623 75.7315C159.227 76.0498 158.812 76.4529 158.39 76.9672C157.96 77.4824 157.679 77.945 157.548 78.3548C157.401 78.6927 157.286 79.1744 157.187 79.7927C157.087 80.4109 157.079 80.7709 157.162 80.8725C157.246 80.9741 157.487 80.9209 157.895 80.7119C158.303 80.5029 159.204 79.9378 160.604 78.9974C160.688 79.099 160.723 78.9112 160.711 78.4429ZM162.886 73.6269C162.649 73.7256 162.508 73.8603 162.47 74.0209C162.432 74.1814 162.413 74.6161 162.411 75.2977C162.422 76.4475 162.574 77.0299 162.857 77.0275C163.006 77.0486 163.186 76.9374 163.408 76.702C163.598 76.5069 163.851 76.3881 164.149 76.3564C164.447 76.3248 164.647 76.3957 164.737 76.5611C165.24 77.2628 164.986 78.0632 163.974 78.9624C163.574 79.2533 163.345 79.5078 163.275 79.7086C163.205 79.9186 163.164 80.3097 163.16 80.881C163.147 81.4624 163.231 81.7389 163.412 81.7198C163.556 81.7044 163.947 81.4144 164.608 80.8378C164.834 80.6389 165.07 80.4482 165.299 80.2766C165.528 80.105 165.698 79.9856 165.799 79.9013C165.9 79.8169 166.007 79.7043 166.137 79.5432C166.266 79.3822 166.4 79.1746 166.555 78.9096C166.79 78.4519 166.904 78.0531 166.887 77.7142C166.87 77.3753 166.713 76.8395 166.427 76.1148C165.93 74.768 165.267 73.936 164.449 73.6268C163.813 73.4088 163.301 73.4078 162.895 73.6259L162.886 73.6269ZM165.321 59.502C165.401 59.5671 165.835 59.871 166.623 60.4136C167.411 60.9561 168.049 61.2935 168.52 61.4277C170.005 61.9884 170.837 62.4251 171.015 62.7285C171.362 63.3362 171.405 64.013 171.143 64.7405C170.881 65.4681 170.376 65.715 169.638 65.471C169.382 65.3876 169.229 65.321 169.185 65.252C169.142 65.183 169.122 64.9917 169.124 64.6692L169.172 64.0748L168.32 63.6219C168.061 63.5021 167.589 63.3588 166.912 63.182C166.236 63.0051 165.675 62.7976 165.24 62.5766C164.806 62.3557 164.603 62.0734 164.642 61.747C164.616 60.4515 164.84 59.7095 165.323 59.5202L165.321 59.502Z" fill="white"/>
<path d="M185.252 85.2502C185.348 86.5199 185.382 87.3635 185.354 87.7991C185.345 88.4078 185.392 88.7711 185.496 88.889C185.599 89.0069 185.808 88.902 186.131 88.5823C186.195 88.5018 186.539 88.2075 187.162 87.6903C187.784 87.1731 188.142 86.8405 188.236 86.6833C188.3 86.6027 188.66 86.1963 189.315 85.4639C189.969 84.7315 190.339 84.2503 190.425 84.0202C190.657 83.5261 190.848 83.2572 190.98 83.2064C191.117 83.1182 191.301 83.1263 191.549 83.2289C191.788 83.3324 191.939 83.4638 191.994 83.642C192.356 84.0365 192.067 84.859 191.128 86.1095C190.189 87.36 189.324 88.3541 188.55 89.0807C188.159 89.4445 187.648 89.8946 187.028 90.4299C184.983 92.3778 183.539 93.6082 182.698 94.1302C181.857 94.6522 181.188 94.7231 180.682 94.344C180.456 94.1931 180.31 93.9323 180.255 93.5791C180.199 93.2258 180.141 92.2284 180.078 90.5777C179.88 86.6763 179.553 84.1604 179.078 83.0231L178.54 81.4596L178.746 80.8945C178.889 80.5202 179.155 80.1789 179.552 79.8607C179.948 79.5424 180.259 79.4542 180.481 79.5688C180.633 79.6263 180.749 79.9455 180.846 80.5245C180.943 81.1035 181.028 81.739 181.098 82.4129C181.169 83.0868 181.25 83.511 181.341 83.6854C181.694 85.0476 181.868 86.5391 181.864 88.1601C181.842 90.317 181.929 91.4955 182.124 91.6959C182.207 91.7975 182.293 91.8344 182.373 91.8075C182.461 91.7797 182.662 91.6019 182.985 91.2822L183.611 90.6265L183.44 89.5122C183.333 88.8421 183.301 87.9156 183.342 86.7418C183.384 85.5681 183.377 84.6296 183.338 83.9063C183.047 77.7129 182.861 74.1786 182.767 73.2861L182.032 73.4194C181.611 73.5009 181.256 73.428 180.968 73.2099C180.68 72.9919 180.482 72.7551 180.384 72.5169C180.285 72.2787 180.177 71.8574 180.059 71.253C179.942 70.6577 179.852 70.2345 179.79 69.9834C179.257 67.9497 178.896 66.7726 178.724 66.4318C178.487 65.9137 178.373 65.5298 178.366 65.282C178.358 65.0342 178.46 64.7011 178.664 64.2836C178.874 63.939 179.071 63.7247 179.237 63.6519C179.412 63.578 179.696 63.5756 180.096 63.6437C180.311 63.6945 180.43 63.6082 180.444 63.3949C180.632 62.8318 181.459 62.3481 182.916 61.945C184.373 61.5419 185.614 61.4287 186.628 61.6065C187.101 61.6669 187.438 61.7417 187.641 61.849C187.844 61.9564 188.073 62.1347 188.31 62.3949C188.968 63.2644 188.726 64.8 187.558 67.0048C187.327 67.499 187.196 67.8259 187.177 67.9936C187.158 68.1614 187.248 68.3176 187.439 68.4815C188.135 69.3745 187.801 70.2017 186.41 70.9662C186.04 71.1896 185.757 71.3669 185.553 71.5174C185.359 71.667 185.205 71.8582 185.103 72.1084C185 72.3495 184.935 72.513 184.916 72.5887C184.887 72.6654 184.858 72.9079 184.828 73.3254C184.799 73.7428 184.773 74.0218 184.752 74.1713C184.717 74.5342 184.755 75.3403 184.868 76.5898C184.98 77.8394 185.067 78.4931 185.156 78.5574C185.276 78.6551 185.689 78.5008 186.397 78.1034C187.334 77.5345 188.254 76.7187 189.14 75.658C189.81 74.9055 190.347 74.7013 190.74 75.0555C190.967 75.2156 191.089 75.5065 191.098 75.9383C191.095 76.2609 190.616 76.9286 189.642 77.9251C188.677 78.9297 187.739 79.7474 186.845 80.3762C186.048 80.9672 185.569 81.377 185.392 81.6076C185.224 81.8372 185.128 82.2249 185.112 82.7699C185.08 83.1691 185.113 84.0036 185.208 85.2641L185.252 85.2502ZM183.071 70.2431C183.245 70.0772 183.547 69.723 183.947 69.1833C185.747 66.9023 186.669 65.3129 186.712 64.4152C186.758 64.1617 186.701 63.9652 186.542 63.8439C186.383 63.7135 186.149 63.6646 185.831 63.68C185.512 63.6953 185.222 63.7169 184.951 63.7457C184.68 63.7744 184.365 63.8262 183.98 63.9039C183.595 63.9815 183.335 64.0275 183.19 64.0429C182.845 64.1531 182.442 64.4076 181.982 64.8155C181.522 65.2234 181.247 65.4736 181.145 65.5489C180.945 65.6438 180.836 65.7382 180.826 65.8221C180.818 65.9151 180.857 66.1135 180.917 66.4293C180.987 66.7442 181.166 67.4157 181.449 68.4539C181.739 69.482 181.877 70.0197 181.881 70.0562C181.943 70.2982 182.004 70.4482 182.064 70.4971C182.124 70.546 182.263 70.5589 182.471 70.5369C182.679 70.5148 182.879 70.4199 183.055 70.2632L183.071 70.2431ZM205.317 71.714C205.081 71.8127 204.852 72.0672 204.648 72.4847C203.69 74.2438 202.728 75.8005 201.765 77.1641C200.801 78.5278 200.068 79.379 199.564 79.7179C198.983 80.2859 198.392 80.3118 197.808 79.7937C197.302 79.4145 197.321 79.0718 197.865 78.7656C197.966 78.6812 198.061 78.6342 198.17 78.6227C198.446 78.5566 198.759 78.3116 199.106 77.8788C199.454 77.446 199.795 76.9495 200.131 76.3983C200.465 75.838 200.693 75.4823 200.824 75.3304C201.382 74.553 201.845 73.8225 202.202 73.1309C202.56 72.4392 202.673 72.0405 202.559 71.9053C202.475 71.8037 202.054 71.7102 201.293 71.6067C200.25 71.5056 199.574 71.3379 199.286 71.1198C198.999 70.9017 198.911 70.4967 199.022 69.9048C199.122 69.4614 199.333 69.2088 199.664 69.1369C199.995 69.065 200.654 69.1609 201.649 69.4144C202.344 69.5893 202.963 69.6526 203.487 69.597C204.012 69.5414 204.387 69.1977 204.613 68.5569C204.78 68.1433 204.923 67.7689 205.035 67.4348C205.146 67.1008 205.251 66.703 205.367 66.2395C205.483 65.776 205.603 65.358 205.747 64.9837C206.039 64.0136 206.104 63.5003 205.932 63.4265C205.759 63.3527 205.218 63.6772 204.295 64.3827C203.102 65.3011 202.218 65.846 201.622 66.0105C200.722 66.3177 200.104 66.2636 199.757 65.8308C199.41 65.398 199.359 64.6483 199.604 63.5819C200.1 61.1538 200.275 58.8886 200.128 56.7864C200.171 56.4965 200.198 56.3186 200.21 56.2621C200.223 56.2055 200.25 56.1197 200.294 56.0138C200.338 55.9079 200.373 55.812 200.405 55.7627C200.435 55.7042 200.484 55.6438 200.55 55.5815C200.617 55.5192 200.695 55.4832 200.777 55.4746C200.858 55.466 200.969 55.4727 201.072 55.4986C201.184 55.5235 201.291 55.5858 201.41 55.6744C201.893 55.835 202.162 56.3037 202.223 57.0706C202.285 57.8375 202.172 59.203 201.876 61.1772C201.859 61.3632 201.842 61.5492 201.826 61.7533C201.811 61.9575 201.791 62.1162 201.768 62.2475C201.745 62.3788 201.706 62.5303 201.653 62.7201C201.561 63.2363 201.546 63.5325 201.61 63.6178C201.674 63.7031 201.935 63.5833 202.402 63.2391C202.575 63.1471 203.063 62.8284 203.882 62.2719C204.702 61.7154 205.25 61.2797 205.537 60.9639C206.277 60.1673 206.922 59.8686 207.481 60.0579C207.809 60.1337 208.019 60.3139 208.105 60.6086C208.191 60.9034 208.217 61.4163 208.183 62.1381C208.041 63.8473 207.648 65.5924 207.013 67.3907C206.628 68.5089 206.464 69.1339 206.513 69.2485C206.562 69.3721 207.1 69.444 208.146 69.4804C208.542 69.512 209.54 69.5259 211.147 69.512C212.755 69.498 214.029 69.5378 214.989 69.6202C215.939 69.7036 216.63 69.8421 217.044 70.0467C217.244 70.2097 217.335 70.4671 217.336 70.8261C217.287 71.4113 217.063 71.8034 216.655 72.0032C216.246 72.2031 215.723 72.1849 215.093 71.9295C214.722 71.7938 214.056 71.7172 213.086 71.7095C209.463 71.5874 206.877 71.5946 205.318 71.7231L205.317 71.714ZM215.264 88.5126C214.962 88.6919 214.509 88.8136 213.914 88.8951C213.31 88.9776 212.917 89.0653 212.708 89.1612C208.249 90.5733 205.72 91.1269 205.113 90.8322C204.659 90.5949 204.512 90.0672 204.684 89.2572C204.878 88.4079 204.877 86.1245 204.662 82.409C204.566 80.4396 204.548 79.2169 204.627 78.7482C204.705 78.2703 204.975 77.8825 205.447 77.5839C206.014 77.2383 206.396 77.1334 206.593 77.269C206.791 77.4137 206.848 77.8772 206.795 78.6748C206.768 79.4694 206.744 79.9416 206.731 80.081C206.681 80.2982 206.692 80.4074 206.765 80.3998C206.877 80.4247 206.997 80.2646 207.145 79.9267C207.177 79.8864 207.192 79.8481 207.188 79.8117C207.502 79.0601 208.022 78.5262 208.758 78.218C209.493 77.9098 210.317 78.0066 211.231 78.5266C211.944 78.8836 212.481 79.5542 212.83 80.5391C213.18 81.524 213.26 82.6389 213.07 83.8836C212.964 84.6131 212.802 85.2472 212.573 85.7687C212.406 86.1823 212.368 86.4349 212.461 86.5356C212.563 86.6353 212.874 86.6391 213.404 86.5461C213.993 86.41 214.5 86.4574 214.917 86.6803C215.333 86.9031 215.559 87.2291 215.604 87.6571C215.681 88.0448 215.564 88.3242 215.263 88.5035L215.264 88.5126ZM210.78 80.9499C210.574 80.7232 210.287 80.5142 209.912 80.3422C209.337 80.2559 208.798 80.6998 208.315 81.6718C207.831 82.6438 207.472 83.925 207.247 85.5325C207.064 86.8501 207.02 87.6467 207.122 87.9213C207.223 88.196 207.569 88.2698 208.158 88.1336C208.856 87.986 209.386 87.7272 209.74 87.349C210.093 86.9708 210.453 86.2974 210.817 85.3196C211.095 84.5719 211.253 83.9843 211.3 83.5649C211.348 83.1455 211.304 82.6346 211.168 82.0412C211.116 81.5404 210.987 81.1766 210.789 80.9489L210.78 80.9499Z" fill="white"/>
<path d="M234.691 82.9533C234.458 83.2634 234.19 83.4024 233.902 83.3593C233.765 83.4475 233.444 83.3526 232.932 83.0847C232.419 82.8168 231.972 82.4774 231.591 82.0667C231.21 81.6559 231.096 81.3549 231.258 81.1536C231.307 80.5775 231.559 80.1826 232.024 79.9951C232.487 79.7986 233.018 79.8897 233.632 80.2573C233.974 80.4696 234.289 80.7677 234.582 81.1233C234.867 81.489 235.027 81.7944 235.053 82.0402C235.046 82.3264 234.923 82.6341 234.69 82.9442L234.691 82.9533ZM231.274 72.0365C231.025 71.6669 230.855 71.1785 230.774 70.5794C230.693 69.9803 230.65 69.3955 230.675 68.8405C230.69 68.2865 230.721 67.7123 230.761 67.128C230.847 63.8501 230.959 61.5916 231.097 60.38C231.235 59.1592 231.46 58.4264 231.754 58.1834C232.378 57.6844 232.977 57.7313 233.532 58.317C234.096 58.9018 234.344 59.6121 234.294 60.4461C234.242 60.9948 234.225 61.6227 234.254 62.3378C234.274 63.0539 234.26 63.7091 234.223 64.3116C234.185 64.914 234.074 65.598 233.899 66.3716C233.537 68.0674 233.35 69.3394 233.34 70.206C233.315 71.7186 232.969 72.5104 232.3 72.5814C231.871 72.59 231.533 72.4141 231.284 72.0446L231.274 72.0365Z" fill="white"/>
<path d="M50.1841 90.0822C51.1523 89.8138 52.0136 90.0078 52.7568 90.6472C53.4354 91.3671 53.8298 92.2552 53.9213 93.3044C54.0127 94.3536 53.7872 95.3443 53.2429 96.2583C53.0645 96.5627 52.8913 97.0046 52.7415 97.5821C52.5916 98.1597 52.3994 98.5944 52.1858 98.9117C52.0887 99.0325 51.9317 99.2794 51.6976 99.6633C51.4726 100.046 51.2518 100.383 51.0544 100.68C50.856 100.968 50.6681 101.181 50.5077 101.309C50.2789 101.48 49.9258 101.601 49.4505 101.688C48.9752 101.775 48.5717 101.763 48.24 101.651C47.5777 101.435 47.3026 100.903 47.4339 100.06C47.3768 99.1639 47.3453 98.5135 47.3387 98.0999C47.332 97.6863 47.2282 97.0435 47.0264 96.1626C46.8246 95.2817 46.6757 94.6437 46.5605 94.2416C46.4453 93.8395 46.2631 93.2327 46.0218 92.4112C45.7715 91.5906 45.6211 91.0265 45.5516 90.7116C45.4307 90.2548 45.4298 89.8958 45.5487 89.6346C45.6677 89.3734 45.9403 89.2708 46.3766 89.335C46.733 89.3341 47.0085 89.4338 47.2112 89.624C47.4139 89.8143 47.5885 90.1733 47.7532 90.6991C47.9216 91.2613 48.0325 91.535 48.1049 91.5273C48.5354 90.8371 49.2348 90.3578 50.2031 90.0894L50.1841 90.0822ZM51.8401 93.3318C51.8401 93.1568 51.7858 92.9876 51.6783 92.8333C51.5707 92.679 51.497 92.5855 51.4551 92.5347C51.4132 92.4839 51.2943 92.3952 51.1082 92.2769C50.8822 92.1259 50.621 92.1628 50.3455 92.413C50.0691 92.6541 49.8431 93.0279 49.6827 93.5053C49.5272 94.0282 49.4444 94.6355 49.4445 95.3353C49.4445 96.035 49.5254 96.6342 49.6853 97.1144C49.8462 97.6038 50.0398 97.795 50.2853 97.6953C50.8111 97.5659 51.285 96.3279 51.7159 93.9803C51.7987 93.7229 51.8301 93.4986 51.8391 93.3227L51.8401 93.3318ZM59.752 77.7329C60.5456 77.1055 61.1147 76.7781 61.4672 76.7407C61.5757 76.7292 61.6866 76.8279 61.817 77.0259C61.9474 77.2238 62.0264 77.4549 62.0521 77.7007C62.0892 78.0559 62.0183 78.3396 61.8494 78.5601C61.6805 78.7806 61.2551 79.0835 60.5833 79.477L59.5818 80.1265L59.6713 80.9825C59.8198 82.4032 60.2172 83.3186 60.8714 83.7188C61.0984 83.8789 61.2292 83.9939 61.2568 84.0831C61.2844 84.1722 61.2816 84.3198 61.2231 84.547C60.8563 85.8474 60.2815 86.1201 59.4907 85.3753C58.9373 84.8907 58.5704 84.2667 58.3801 83.495C58.2706 83.1475 58.1602 82.791 58.0579 82.4243C57.9465 82.0586 57.8238 81.7586 57.6976 81.5141C57.6139 81.4125 57.5007 81.3785 57.367 81.4111C57.2242 81.4446 56.8298 81.6062 56.1827 81.8866C55.596 82.1329 54.8205 82.4085 53.8299 82.7254C52.8392 83.0422 52.1907 83.2215 51.8743 83.2551C51.4894 83.3327 51.2562 83.026 51.1657 82.3358C51.0753 81.6456 51.1091 81.1816 51.2589 80.954C51.2875 80.8773 51.6705 80.7814 52.408 80.6664C53.1455 80.5513 53.8749 80.4463 54.5962 80.3514C55.3176 80.2565 55.6725 80.1544 55.6611 80.0451C56.1003 79.7868 56.3686 79.5557 56.4771 79.3693C56.5856 79.1828 56.6184 78.8847 56.5774 78.4931C56.5698 78.4203 56.5784 78.3273 56.6041 78.2233C56.5707 77.9046 56.5631 77.6568 56.5831 77.4981C56.6021 77.3304 56.6164 77.1171 56.6249 76.8492C56.6335 76.5812 56.6668 76.3751 56.7267 76.2491C56.7857 76.1139 56.8647 75.995 56.9527 75.8752C57.0407 75.7554 57.1816 75.7036 57.3662 75.7209C57.5508 75.7381 57.7302 75.7928 57.9215 75.8738C58.1175 76.0003 58.2303 76.2922 58.2788 76.7566C58.4959 78.1331 58.996 78.4576 59.7701 77.731L59.752 77.7329ZM72.1844 105.197C71.9023 105.034 71.5782 104.82 71.2323 104.571C70.8864 104.322 70.6323 104.165 70.4891 104.106C70.0433 104.301 69.4504 104.576 68.7024 104.94C67.9545 105.305 67.1461 105.704 66.2873 106.145C65.4185 106.578 64.8366 106.87 64.5306 107.003C64.1276 107.258 63.7056 107.33 63.2645 107.221C62.8234 107.111 62.5356 106.893 62.3937 106.586C62.2596 106.351 61.9664 106.17 61.5073 106.063C61.0472 105.946 60.8017 105.695 60.7607 105.304C60.6627 105.066 60.5865 104.862 60.5342 104.711C60.4809 104.551 60.4338 104.363 60.3919 104.137C60.35 103.911 60.3138 103.74 60.2843 103.633C60.2548 103.525 60.25 103.305 60.2419 102.965C60.2429 102.624 60.2433 102.366 60.2424 102.182C60.2424 102.007 60.2395 101.63 60.2337 101.051C60.229 100.48 60.2256 100.011 60.2247 99.6521C60.1913 99.3333 60.1456 98.8962 60.1147 98.3378C60.0756 97.7895 60.0456 97.4152 60.0275 97.2422C60.0095 97.0691 60.0013 96.7293 60.0061 96.25C60.0108 95.7707 60.0388 95.2521 60.0821 94.7043C60.1254 94.1565 60.1758 93.4145 60.2243 92.4794C60.4264 90.3034 60.7427 89.0452 61.1653 88.715C61.4274 88.5122 61.7367 88.4978 62.105 88.6982C62.4633 88.8904 62.6974 89.2062 62.8135 89.6175C62.883 89.9324 62.9563 90.1087 63.0324 90.1375C63.1085 90.1662 63.2746 90.0934 63.5486 89.917C63.8137 89.7416 64.0854 89.6299 64.3708 89.5628C64.8205 89.4046 65.4009 89.1865 66.1194 88.8893C66.8379 88.5922 67.3841 88.3961 67.7471 88.2839C68.1102 88.1718 68.5465 88.0611 69.047 87.9527C69.5566 87.8434 70.0195 87.8127 70.454 87.8588C70.8884 87.9048 71.3304 88.0236 71.782 88.2335C72.6727 88.535 73.2984 89.0119 73.6672 89.6541C74.036 90.2964 74.3839 91.613 74.6909 93.5877C74.8898 94.7912 75.006 95.5523 75.0393 95.871C75.0726 96.1898 75.0565 96.7347 74.9989 97.4959C74.9323 98.2579 74.8958 98.8695 74.872 99.3416C74.8958 99.9192 74.9258 100.294 74.962 100.465C74.9991 100.645 75.1081 100.9 75.2808 101.241C75.5906 101.494 75.7395 101.782 75.7167 102.088C75.6939 102.394 75.6292 102.65 75.5297 102.835C75.4222 103.031 75.2714 103.249 75.0601 103.502C74.8579 103.754 74.7242 103.961 74.6671 104.114C74.5159 104.416 74.2613 104.692 73.8926 104.924C73.5248 105.166 73.1817 105.294 72.8653 105.328C72.6921 105.42 72.4685 105.379 72.1854 105.206L72.1844 105.197ZM65.8567 98.18C65.7521 98.2279 65.4885 98.3296 65.056 98.4767C64.6244 98.633 64.2995 98.7595 64.0801 98.8472C63.8617 98.9441 63.6019 99.0821 63.3179 99.2503C63.0348 99.4277 62.823 99.5882 62.7027 99.7483C62.6855 99.9343 62.6818 100.773 62.7023 102.28C62.768 103.609 62.8471 104.364 62.9394 104.548C63.0327 104.741 63.3691 104.723 63.9514 104.524C64.4696 104.321 64.8165 104.054 64.9911 103.714C65.9354 100.768 66.2179 98.9243 65.8558 98.1709L65.8567 98.18ZM62.9988 92.8757C62.7633 93.3334 62.6086 94.0404 62.554 95.0038C62.4903 95.9681 62.5774 96.539 62.8162 96.7254C63.0189 96.9157 63.5262 96.8711 64.356 96.5897C65.1858 96.3084 65.6663 96.0088 65.8176 95.7073C65.8747 95.5539 65.8475 94.857 65.7352 93.6075C65.6228 92.358 65.5343 91.686 65.4415 91.5854C64.8634 91.2139 64.0578 91.6401 63.0068 92.8656L62.9988 92.8757ZM69.279 93.2317C69.9032 92.5578 70.3952 92.1925 70.7478 92.1552C70.9557 92.1331 71.1551 92.204 71.3359 92.3598C71.5177 92.5247 71.61 92.7082 71.6319 92.9177C71.6576 93.1636 71.3545 93.6745 70.7217 94.4414C70.0889 95.2083 69.4947 95.7317 68.9561 96.0006C68.5141 96.2316 68.2086 96.6323 68.0397 97.2027C67.8718 97.7821 67.7552 98.5035 67.6991 99.3657C67.644 100.237 67.5731 100.871 67.4694 101.278C67.3619 101.648 67.2991 101.922 67.2639 102.11C67.2287 102.298 67.2087 102.456 67.2059 102.604C67.203 102.752 67.2287 102.822 67.2578 102.838C67.2958 102.852 67.3872 102.852 67.5228 102.837C67.6584 102.823 67.8092 102.779 67.9662 102.707C68.1233 102.635 68.3526 102.556 68.6633 102.468C68.974 102.38 69.2656 102.284 69.5473 102.181C70.9205 101.676 71.7846 101.372 72.1295 101.262C72.4421 101.192 72.6496 101.078 72.7347 100.931C72.828 100.774 72.8708 100.484 72.8532 100.053C72.8598 99.7668 72.8874 99.3311 72.9269 98.7469C72.9763 98.1707 73.011 97.7159 73.0229 97.3924C73.0348 97.0688 73.0543 96.6432 73.0542 96.1184C73.0542 95.5936 73.0199 95.0908 72.9495 94.5918C72.879 94.0929 72.7986 93.5858 72.7062 93.0524C72.4312 91.8201 72.1024 91.0355 71.7107 90.6995C71.3191 90.3635 70.5959 90.0903 69.532 89.8809C69.2117 89.878 68.8358 89.9547 68.4014 90.0837C67.968 90.2217 67.7072 90.3507 67.6092 90.4623C67.5084 90.5467 67.5046 91.2101 67.6079 92.4605C67.6936 93.2801 67.7469 93.7901 67.7969 94.0058C67.8369 94.2133 67.9116 94.3159 68.0201 94.3044C68.2242 94.2459 68.6429 93.8792 69.2671 93.2053L69.279 93.2317ZM74.4311 74.666L75.6943 74.4216C75.9746 74.3918 76.448 74.2864 77.1056 74.1062C77.7631 73.9259 78.2456 73.8195 78.544 73.7879C78.8423 73.7562 79.2296 73.7888 79.7049 73.8765C80.1308 74.1905 80.1689 74.7297 79.8182 75.485C79.4105 76.3938 78.8358 76.6665 78.0859 76.3133C77.9593 76.1518 77.3479 76.1614 76.2426 76.3431C75.1382 76.5338 74.4478 76.6623 74.1714 76.7285C73.8702 76.9077 73.6476 77.5759 73.5225 78.7401C73.5349 79.2083 73.4902 79.6551 73.3974 80.0792C73.2956 80.5044 73.2186 80.8164 73.1491 81.0263C73.0796 81.2363 72.9493 81.5631 72.7409 82.018C72.5416 82.4719 72.4083 82.7715 72.3513 82.9248C72.2904 83.0418 72.0986 83.2186 71.7689 83.4746C71.4382 83.7214 71.1889 83.7847 71.039 83.6625C70.8791 83.5321 70.8149 83.3548 70.8172 83.1151C70.8296 82.8836 70.9538 82.4101 71.2088 81.7017C71.6969 80.2504 71.8733 78.8781 71.74 77.6032C71.722 77.4302 71.6834 77.3238 71.6254 77.2931C71.5673 77.2624 71.3665 77.2653 71.0139 77.3027C70.345 77.3737 69.1511 77.4082 67.4335 77.4154C65.7158 77.4227 64.8579 77.3479 64.8427 77.2022C64.719 77.068 64.6809 76.8787 64.7275 76.6251C64.7741 76.3716 64.8888 76.1569 65.0915 75.9973C65.386 75.7542 65.8337 75.5779 66.4266 75.4781C67.0194 75.3784 67.7555 75.3372 68.6319 75.3271C69.5093 75.3261 70.136 75.2873 70.5209 75.2096C71.3745 75.1559 71.8769 75.0658 72.0435 74.9101C72.2109 74.7634 72.3066 74.3665 72.3484 73.7176C72.4188 72.9919 72.5039 72.4949 72.6229 72.2337C72.7418 71.9724 72.9973 71.7059 73.4003 71.4514C73.9846 70.9199 74.4028 70.8111 74.655 71.125C74.8982 71.4399 74.892 71.993 74.6175 72.7771C74.422 73.2675 74.3401 73.7089 74.3811 74.1005L74.442 74.6833L74.4311 74.666Z" fill="white"/>
</svg>
