<svg width="241" height="105" viewBox="0 0 241 105" fill="none" xmlns="http://www.w3.org/2000/svg">
<path d="M30.7914 45.2344C30.4931 45.6233 30.0556 46.022 29.4889 46.4109C28.9222 46.7999 28.3853 46.9166 27.8783 46.7513C27.5104 46.7221 27.0033 46.5568 26.3471 46.2554C25.6909 45.9539 25.3728 45.7497 25.3728 45.6136C25.3728 45.5164 25.1739 45.1761 24.7663 44.5829C24.0306 43.4744 23.8118 42.7646 24.1101 42.4729C24.2394 42.3076 24.3984 42.2882 24.5873 42.4243C24.7663 42.5507 25.0149 42.8813 25.3131 43.4064C25.681 43.9606 25.9793 44.3593 26.2179 44.6121C26.4466 44.8552 26.7249 45.0108 27.0232 45.0788C27.2519 45.1761 27.4806 45.1858 27.6993 45.108C27.918 45.0302 28.1666 44.8552 28.4549 44.5926C28.7333 44.3301 28.9023 44.2037 28.9321 44.2037C29.3696 43.7467 29.8071 42.9883 30.2346 41.9478C30.672 40.8977 30.9902 39.7698 31.189 38.5543C31.3581 37.6695 31.4177 37.1347 31.368 36.9597C31.3183 36.7846 31.0598 36.5707 30.5925 36.3471C30.1252 36.1526 29.8071 35.9873 29.638 35.8512C29.469 35.7248 29.3895 35.54 29.3895 35.3067C29.3895 35.0733 29.4889 34.9177 29.6878 34.8108C29.8866 34.7038 30.2445 34.6649 30.7416 34.6649C31.1791 34.6649 31.4674 34.6357 31.6166 34.5677C31.7657 34.4996 31.8552 34.4315 31.8949 34.344C31.9248 34.2662 31.9447 34.0329 31.9447 33.6536C31.9447 33.2744 31.9745 32.9244 32.0441 32.5938C32.0739 31.7381 32.0839 31.2033 32.0739 30.97C32.054 30.7366 31.9645 30.4449 31.7955 30.0851C31.7259 29.8226 31.6066 29.6087 31.4475 29.4434C31.2785 29.2781 31.03 29.1711 30.6919 29.1225C30.3539 29.0739 30.0755 29.0447 29.8369 29.0447C29.5983 29.0447 29.2304 29.0739 28.7333 29.1225C28.2362 29.1711 27.8783 29.2003 27.6794 29.2003C27.1723 29.2683 26.6454 29.4336 26.0986 29.7156C25.5518 29.9976 24.13 30.7366 21.8532 31.952C21.4555 32.1465 20.7198 32.5452 19.6659 33.1577C18.612 33.7703 17.7967 34.1787 17.23 34.4121C16.9318 34.5385 16.5738 34.4121 16.1761 34.0231C15.7785 33.6342 15.6591 33.2842 15.8282 32.9924C15.9972 32.6035 16.5142 31.6312 17.3891 30.0948C18.264 28.5585 18.9003 27.3236 19.298 26.4096C19.5963 25.7873 19.7156 25.3984 19.646 25.2525C19.5764 25.1067 19.2583 25.0775 18.6916 25.1747C17.6874 25.34 16.9318 25.2039 16.4346 24.7858C16.2358 24.6594 16.1165 24.5427 16.0867 24.4454C16.0568 24.3482 16.0568 24.1537 16.0867 23.8523C16.1563 23.0647 16.2756 22.3938 16.4645 21.8395C16.6434 21.2853 17.061 20.2352 17.6973 18.6988C17.7669 18.4655 17.7769 18.3196 17.7271 18.2613C17.6774 18.2029 17.2201 18.2418 16.375 18.4071C15.5299 18.5724 15.0228 18.6988 14.8936 18.7961C14.5257 19.7101 14.0385 21.2756 13.442 23.4828C12.8455 25.6901 12.3682 27.2556 12.0401 28.1696C11.205 30.4254 9.81307 33.4883 7.87431 37.3583C5.93556 41.2186 4.57346 43.7272 3.80791 44.8746C3.67866 45.0691 3.39033 45.565 2.95287 46.3526C2.51541 47.1402 2.19725 47.6653 1.99841 47.9278C1.66037 48.3168 1.39192 48.5404 1.17319 48.589C0.954463 48.6376 0.695962 48.5307 0.397692 48.2681C0.12925 48.0348 0 47.8111 0 47.5778C0 47.3444 0.0994243 47.0041 0.298271 46.5471C0.397694 46.2845 0.626365 45.6817 0.974346 44.7288C1.32233 43.7759 1.65043 42.9396 1.94869 42.2006C2.24696 41.4617 2.51541 40.9366 2.75402 40.606C2.85344 40.5088 2.97275 40.6254 3.102 40.9463C3.1716 41.1116 3.20143 41.2575 3.20143 41.3839C3.20143 41.6075 3.22131 41.7242 3.25114 41.7242C3.28096 41.7242 3.33068 41.695 3.40027 41.627C7.38714 34.3926 9.76335 29.2683 10.5289 26.254C10.6283 25.8943 10.8073 25.3206 11.0857 24.533C11.3541 23.7454 11.5729 23.0453 11.7419 22.423C11.9109 21.8006 12.1097 20.9158 12.3484 19.7684L12.4975 19.0781L12.0501 18.7377C11.8811 18.6405 11.7717 18.5335 11.722 18.4169C11.6723 18.3002 11.6822 18.1835 11.7518 18.0765C11.8214 17.9598 11.891 17.8626 11.9805 17.7848C12.06 17.707 12.1694 17.6098 12.3086 17.5126C12.4378 17.4153 12.5273 17.3278 12.5571 17.2695C12.8256 17.1042 13.0543 16.8319 13.2332 16.4624C13.4122 16.0832 13.5116 15.7526 13.5116 15.4512C13.6806 14.7316 14.1181 13.2925 14.8439 11.1339C15.5597 8.97528 16.037 7.332 16.2756 6.22352C16.6136 4.3566 17.5482 2.42161 19.0892 0.428285C19.4571 0.0393429 19.825 -0.0870633 20.1928 0.05879C20.5607 0.204643 20.7993 0.457455 20.8987 0.817227C20.8987 0.953356 20.5309 1.53677 19.7951 2.58691C19.4273 2.84945 18.4529 5.72762 16.8821 11.2311C16.7528 11.5909 16.5838 12.0771 16.375 12.68C16.1662 13.2828 15.9773 13.944 15.7685 14.6441C15.5597 15.3442 15.4305 15.8304 15.3708 16.0929C15.172 16.4527 15.2714 16.618 15.6691 16.5888C15.9674 16.5597 16.4247 16.4235 17.0212 16.1999C17.5581 15.9665 18.1248 15.8596 18.7313 15.8596C19.3378 15.8596 19.7156 15.9568 19.8846 16.1513C20.0139 16.3846 20.0636 16.6958 20.0338 17.0847C20.0039 17.4737 19.9542 17.7751 19.8846 17.9696C19.815 18.164 19.7057 18.4557 19.5565 18.8252C19.4074 19.1947 19.298 19.5059 19.2284 19.7295C19.129 20.0601 18.9799 20.4102 18.8009 20.7894C18.612 21.1686 18.4728 21.4992 18.3734 21.8006C18.274 22.1021 18.2442 22.4521 18.274 22.88C18.3038 22.9772 18.8109 23.0258 19.7852 23.0258C20.859 23.0258 21.5351 23.123 21.8234 23.3175C22.1018 23.512 22.1515 23.9204 21.9526 24.5427C21.6544 25.3984 21.197 26.5166 20.6005 27.907C20.0039 29.2975 19.5764 30.2699 19.3477 30.8338C19.815 30.7366 20.7794 30.2893 22.231 29.5114C23.6826 28.7335 24.647 28.2474 25.1143 28.0918C26.3173 27.5959 27.9777 27.2264 30.0854 26.9639C30.9604 26.7985 31.716 26.9444 32.3722 27.4014C33.0284 27.8584 33.5056 28.4321 33.8039 29.1225C34.1717 29.9782 34.3109 31.3006 34.2016 33.0994C34.1717 33.9842 34.1717 34.4704 34.2314 34.5774C34.291 34.6843 34.6092 34.8205 35.2057 35.0149C35.7128 35.1122 36.9456 35.5206 38.9242 36.2401L40.7337 36.8819L40.684 36.8332C40.9524 36.7652 41.1612 36.8916 41.3103 37.2027C41.4595 37.5139 41.529 37.8639 41.5092 38.2626C41.4893 38.6516 41.3799 38.9141 41.1811 39.0502C40.9425 39.2155 40.6044 39.303 40.1471 39.3225C39.6897 39.3419 39.3318 39.2641 39.0634 39.0988C36.7866 37.7862 35.1759 37.1055 34.2413 37.0374C34.0723 36.9694 33.9331 37.0374 33.8138 37.2611C33.6945 37.475 33.5553 37.9223 33.3863 38.6127C33.2869 39.0697 33.1874 39.5072 33.088 39.9156C32.9886 40.324 32.9091 40.6449 32.8594 40.8685C32.8096 41.0922 32.7102 41.413 32.5611 41.802C32.4119 42.1909 32.3125 42.434 32.2827 42.5118C32.2529 42.5896 32.1336 42.8619 31.9347 43.3189C31.7359 43.7759 31.6166 44.0384 31.5867 44.1065C31.3879 44.4662 31.1393 44.8455 30.8311 45.2344H30.7914ZM12.1296 9.37395C12.4776 10.0643 12.9548 10.5991 13.5613 10.9978C14.1678 11.4256 14.3269 11.8535 14.0684 12.2716C13.7999 12.6994 13.263 12.6605 12.4577 12.1743C12.1197 12.009 11.6822 11.6784 11.1553 11.1923C10.6184 10.6964 10.2505 10.3074 10.0517 10.0157C9.92243 9.82123 9.84289 9.46146 9.82301 8.93639C9.80312 8.41132 9.90255 8.10017 10.1014 8.00293C10.3997 7.74039 10.7178 7.71122 11.0559 7.90569C11.4237 8.1974 11.7816 8.6933 12.1396 9.38367L12.1296 9.37395ZM13.8397 37.4458C14.3965 37.2319 14.814 37.3097 15.1223 37.6695C15.3907 37.7959 15.51 37.9904 15.4702 38.2334C15.4404 38.4765 15.341 38.7099 15.1919 38.9238C15.0427 39.1377 14.8836 39.3614 14.7146 39.6142C14.5456 39.8573 14.4661 40.0517 14.4661 40.1782C14.3666 40.5671 14.1479 41.063 13.8099 41.6561C13.4718 42.2493 13.1537 42.6868 12.8554 42.9785C12.0799 43.6981 11.5033 43.6689 11.0956 42.8813C10.857 42.4535 10.9763 41.9187 11.4436 41.2575C11.7419 40.8685 12.06 40.324 12.3981 39.6336C12.7361 38.9433 12.9051 38.5057 12.9051 38.3112C12.9747 37.9515 13.2829 37.6598 13.8298 37.4556L13.8397 37.4458ZM17.9359 37.2708C18.1646 37.2416 18.4231 37.2027 18.6916 37.1736C18.96 37.1444 19.1091 37.1055 19.139 37.0763C19.308 37.0083 19.5366 37.1347 19.8449 37.4458C20.1531 37.757 20.4513 38.1168 20.7496 38.5252C21.0479 38.9335 21.2567 39.1766 21.3561 39.235C21.5549 39.4294 21.6742 39.5558 21.7041 39.6045C21.7339 39.6531 21.7836 39.7309 21.8532 39.8281C21.9228 39.9253 21.9626 40.0129 21.9825 40.1004C22.0023 40.1782 22.0023 40.2851 21.9825 40.3921C21.9626 40.5088 21.9228 40.6157 21.8532 40.7129C21.7538 41.0727 21.5549 41.345 21.2467 41.52C20.9485 41.695 20.6104 41.7048 20.2426 41.5492C20.0437 41.4811 19.646 40.9658 19.0594 40.0031C18.4728 39.0405 18.0652 38.4765 17.8266 38.3112C17.588 38.1459 17.4388 37.9709 17.3792 37.7959C17.3096 37.6111 17.3593 37.475 17.5283 37.3778C17.5581 37.3486 17.6973 37.3097 17.926 37.2805L17.9359 37.2708ZM24.6669 35.9484C25.0646 36.1818 25.502 36.5221 25.9693 36.9791C26.4366 37.4361 26.7051 37.7181 26.7747 37.8153C27.0033 38.1459 26.9238 38.5154 26.5261 38.9433C26.1284 39.3711 25.7506 39.4975 25.4225 39.3322C25.2237 39.235 24.8856 38.9238 24.4183 38.3987C23.951 37.8737 23.6428 37.5625 23.5136 37.4653C23.1457 37.2027 22.9667 36.8916 22.9866 36.5318C23.0065 36.1721 23.1755 35.9095 23.5136 35.7442C23.8814 35.647 24.2692 35.715 24.6669 35.9387V35.9484Z" fill="white"/>
<path d="M91.8366 41.1797C93.308 40.7421 94.4514 40.4796 95.2468 40.4212C95.8135 40.4212 96.1714 40.3726 96.3006 40.2754C96.4299 40.1782 96.5194 39.8962 96.5492 39.4392C96.5492 39.0794 96.6387 38.7585 96.8276 38.4863C97.0066 38.2043 97.1159 37.9904 97.1557 37.8251C97.1557 37.5917 97.2253 37.2319 97.3545 36.7457C97.623 35.7928 97.623 35.3261 97.3545 35.3261C97.1855 35.3553 96.6884 35.7637 95.8433 36.5513C95.5749 36.7846 95.4058 36.911 95.3363 36.9402C95.1374 37.0083 94.9187 36.9791 94.6801 36.8624C94.4414 36.7457 94.2923 36.5902 94.2327 36.3957C94.1332 36.104 94.3221 35.6275 94.8093 34.9761C95.2965 34.3246 95.7041 33.9259 96.0422 33.7995C97.2452 33.0508 97.9212 32.5549 98.0505 32.3215C98.1797 32.1271 98.309 31.6895 98.4283 31.0186C98.5476 30.3476 98.6073 29.7545 98.6272 29.2489C98.647 28.7433 98.5973 28.4418 98.4979 28.3446C98.2593 28.3446 97.792 28.6266 97.096 29.1808C96.1615 29.9004 95.4456 30.406 94.9584 30.7074C94.4713 30.9991 93.5267 31.495 92.1249 32.1854C91.0909 32.6813 90.2358 32.7396 89.5598 32.3799C89.3609 32.2826 89.2317 32.1951 89.182 32.1076C89.1322 32.0201 89.1024 31.8742 89.1024 31.6409C89.1024 31.1158 89.3212 30.6102 89.7586 30.1143C89.9575 29.9879 90.2856 29.3947 90.733 28.3446C91.1804 27.2945 91.4886 26.6624 91.6377 26.4582C91.7868 26.254 92.0255 25.7581 92.3436 24.9803C92.6618 24.2121 92.9004 23.7162 93.0694 23.4828C93.2981 23.1522 93.4572 22.8313 93.5168 22.5007C93.5864 22.0729 93.8051 21.8006 94.173 21.6645C94.5409 21.5381 94.8789 21.6353 95.1772 21.9562C95.4058 22.2479 95.3661 22.7147 95.0479 23.3564C94.7298 23.9982 94.5707 24.3968 94.5707 24.5621C94.5409 24.7566 94.4017 25.0872 94.173 25.5442C93.9344 26.0012 93.825 26.3124 93.825 26.4777C93.825 26.643 93.7057 26.8374 93.477 27.0708C93.2782 27.2361 93.0793 27.5375 92.8706 27.9751C92.6618 28.4127 92.5425 28.7919 92.4927 29.103C92.443 29.4142 92.4927 29.5989 92.622 29.667C93.3279 29.4336 94.352 28.8697 95.7141 27.9751C97.0762 27.0805 97.9113 26.5457 98.2493 26.3804C98.478 26.2832 98.647 26.1957 98.7564 26.1374C98.8658 26.079 98.9354 25.9818 98.9851 25.8651C99.0348 25.7484 99.0646 25.6415 99.0646 25.5442C99.0646 25.447 99.0646 25.2622 99.0944 24.9997C99.1143 24.7372 99.1342 24.4746 99.174 24.2121C99.2436 23.4245 99.3728 22.6272 99.5717 21.8006C99.7705 20.9741 99.9395 20.488 100.079 20.3227C100.208 20.1963 100.447 20.1185 100.785 20.099C101.123 20.0796 101.371 20.1379 101.54 20.2741C101.709 20.4005 101.739 20.7116 101.64 21.2075C101.61 21.3728 101.58 21.5478 101.56 21.752C101.54 21.9465 101.52 22.1118 101.481 22.2479C101.451 22.3743 101.411 22.5396 101.381 22.7438C101.282 23.2008 101.222 23.5703 101.202 23.8523C101.182 24.1343 101.292 24.2704 101.53 24.2704C101.769 24.2704 102.147 24.0857 102.684 23.7259C102.982 23.4925 103.36 23.2397 103.817 22.9675C104.274 22.6952 104.682 22.423 105.05 22.1604C105.517 21.8006 105.975 21.6062 106.402 21.5673C106.67 21.4992 106.879 21.5089 107.028 21.5965C107.178 21.684 107.277 21.7812 107.327 21.9173C107.376 22.0535 107.436 22.209 107.506 22.4132C107.506 22.5396 107.396 22.7147 107.178 22.9286C106.959 23.1425 106.78 23.2495 106.651 23.2495C106.521 23.2495 106.144 23.4439 105.547 23.8426C104.95 24.2413 104.294 24.6691 103.588 25.1456C102.882 25.622 102.415 25.9234 102.187 26.0498C101.679 26.3124 101.381 26.5555 101.282 26.7888C101.043 27.2167 100.864 27.9168 100.725 28.8988C100.596 29.8809 100.606 30.4254 100.775 30.5227C100.844 30.5518 101.391 30.406 102.435 30.0851C103.27 29.7934 103.827 29.6281 104.095 29.5892C104.364 29.56 104.652 29.6087 104.95 29.7351C105.348 29.9295 105.507 30.2601 105.398 30.7171C105.229 31.3395 104.99 31.7673 104.672 31.9909C104.354 32.2243 104.066 32.1757 103.797 31.8451C103.628 31.6117 103.429 31.5048 103.191 31.5242C102.952 31.5436 102.584 31.6603 102.087 31.8937C101.65 32.0882 101.222 32.3799 100.805 32.7494C100.387 33.1286 100.109 33.4592 99.9793 33.7606C99.6413 34.7135 99.4424 36.1332 99.3728 38.0293L99.2734 39.5072L100.178 39.4586C100.785 39.3322 101.779 39.1377 103.171 38.8946C104.563 38.6516 105.487 38.4765 105.955 38.3793C106.054 38.2821 106.482 38.1654 107.237 38.039C107.993 37.9126 108.858 37.7667 109.852 37.6209C110.836 37.475 111.811 37.3389 112.765 37.2028C113.72 37.0666 114.525 36.9499 115.171 36.8333C115.817 36.7166 116.116 36.6485 116.046 36.6096C116.146 36.6096 116.315 36.5707 116.553 36.4832C116.782 36.4054 116.991 36.3374 117.16 36.2887C117.329 36.2401 117.527 36.1915 117.766 36.1429C117.995 36.0943 118.204 36.0748 118.373 36.0943C118.542 36.1137 118.711 36.1526 118.88 36.2207C119.049 36.2887 119.168 36.4054 119.228 36.561C119.297 36.7263 119.327 36.9402 119.327 37.2028C119.327 37.7278 119.148 38.0681 118.8 38.2334C118.452 38.3988 117.945 38.4863 117.289 38.5057C116.633 38.5252 116.175 38.5932 115.907 38.7293C115.539 38.8266 114.913 38.9335 114.028 39.0502C113.143 39.1669 112.348 39.2641 111.642 39.3419C110.936 39.4197 110.538 39.4975 110.439 39.5656C104.115 40.8783 98.6073 41.9576 93.9145 42.8035C93.477 42.9007 92.5922 43.1827 91.25 43.6397C89.9077 44.0967 88.9235 44.3593 88.2871 44.4273C88.1877 44.3593 88.0585 44.1551 87.9093 43.8148C87.7602 43.4744 87.6807 43.2022 87.6807 43.0077C87.6807 42.8813 87.8199 42.6771 88.1082 42.4146C88.3965 42.152 88.6152 42.0256 88.7843 42.0256C89.351 41.9284 90.375 41.6561 91.8465 41.2186L91.8366 41.1797ZM93.0893 16.6958C93.3876 15.8109 93.5367 14.3038 93.5168 12.1743C93.4969 10.0449 93.308 8.62524 92.9401 7.9057C92.8407 7.77929 92.7811 7.46814 92.7612 6.97223C92.7413 6.47633 92.7214 6.16518 92.6816 6.03877C92.5126 5.29006 92.7513 4.91084 93.3876 4.91084C93.7256 4.88167 93.994 4.91084 94.2128 4.98863C94.4315 5.06642 94.5906 5.24144 94.69 5.50398C94.7894 5.76651 94.859 5.94154 94.8888 6.0485C94.9187 6.14573 94.9684 6.40827 95.038 6.8361L95.1871 7.22505C95.3164 6.47633 95.6743 5.85403 96.241 5.3873C96.8077 4.91084 97.4838 4.63858 98.2493 4.58024C98.8161 4.55107 99.3529 4.46356 99.86 4.33715C100.397 4.21075 101.043 4.21075 101.819 4.33715C102.584 4.46356 103.121 4.66775 103.429 4.93029C103.797 5.29006 104.066 5.85403 104.235 6.62219C104.404 7.39035 104.414 8.11961 104.284 8.80999C104.185 9.36423 103.966 10.0254 103.628 10.8033C103.29 11.5715 103.022 12.0382 102.823 12.2035C102.654 12.466 102.525 12.7577 102.425 13.0883C102.326 13.4189 102.187 13.7009 101.998 13.944C101.809 14.1871 101.471 14.4885 100.964 14.8483C100.526 15.2761 99.9694 15.7526 99.2833 16.2679C98.5973 16.793 98.1499 17.1333 97.9511 17.2986C96.4398 18.5724 95.2368 19.2142 94.3321 19.2142C92.9899 19.2822 92.5723 18.446 93.0793 16.7055L93.0893 16.6958ZM101.003 11.9799C101.182 11.6882 101.361 11.3089 101.53 10.8519C101.699 10.3949 101.848 10.0157 101.978 9.724C101.978 9.36423 101.53 9.53925 100.626 10.2685C100.357 10.5311 99.9097 10.8325 99.2933 11.1728C98.6769 11.5131 98.2295 11.8048 97.961 12.0285C97.6926 12.291 97.3545 12.5438 96.927 12.7869C96.5094 13.03 96.2012 13.1564 96.0024 13.1564C95.6345 13.1564 95.4158 13.7593 95.3462 14.9747C95.3164 15.7234 95.2667 16.1902 95.1971 16.3457C95.1275 16.5402 95.1971 16.6374 95.3959 16.6374C95.6246 16.6083 95.9129 16.4916 96.2509 16.2971C96.589 16.1026 96.8375 15.8109 97.0066 15.4414C97.1756 15.0622 97.5633 14.7608 98.1599 14.5372C98.826 14.2066 99.5021 13.6815 100.168 12.9619C100.536 12.6022 100.814 12.2716 100.993 11.9799H101.003ZM95.5053 7.95431C95.4754 8.02238 95.4556 8.43077 95.4556 9.17948V10.3366C95.4556 10.4533 95.4556 10.5699 95.4854 10.7061C95.5053 10.8325 95.5252 10.92 95.5649 10.9492C95.5947 10.9783 95.6445 11.0172 95.6942 11.0464C95.7439 11.0756 95.8234 11.0658 95.9427 10.9978C96.062 10.9297 96.1813 10.8617 96.3205 10.7741C96.4498 10.6964 96.6188 10.5894 96.8276 10.4533C97.1955 10.1616 97.7721 9.80179 98.5576 9.3934C99.343 8.98501 99.9097 8.66413 100.238 8.44049C100.805 8.08072 101.322 7.91542 101.799 7.94459L102.505 7.99321C102.634 7.30284 102.435 6.74859 101.898 6.32076C101.361 5.89292 100.705 5.82486 99.9395 6.12629C98.2692 6.62219 97.2949 7.0403 97.0264 7.40007C96.927 7.56537 96.7481 7.7404 96.4995 7.91542C96.2509 8.09044 96.0521 8.18768 95.9228 8.18768C95.6544 7.99321 95.5252 7.9057 95.5252 7.94459L95.5053 7.95431Z" fill="white"/>
<path d="M136.399 21.3145C136.279 21.5478 136.21 21.6937 136.17 21.752C136.14 21.8201 136.09 21.9076 136.041 22.0243C135.991 22.141 135.981 22.2188 136.011 22.2674C136.041 22.316 136.071 22.3743 136.09 22.4424C136.11 22.5105 136.18 22.5688 136.319 22.6369C136.448 22.705 136.568 22.773 136.667 22.8605C136.766 22.948 136.935 23.055 137.174 23.2009C137.403 23.3467 137.622 23.4828 137.83 23.619C139.272 24.601 141.966 25.9915 145.913 27.7904C146.182 27.9168 146.768 28.1988 147.673 28.6266C148.578 29.0544 149.274 29.3753 149.761 29.5795C150.248 29.7934 150.885 30.056 151.67 30.3671C152.455 30.6783 153.201 30.9311 153.907 31.1255C154.613 31.32 155.309 31.4659 156.015 31.5631C157.486 31.7576 158.63 32.059 159.425 32.4479C159.763 32.5744 159.932 32.8077 159.932 33.1383C159.932 33.4689 159.793 33.7315 159.505 33.9454C159.216 34.1593 158.878 34.2274 158.471 34.169C157.665 34.2371 155.975 33.887 153.4 33.1383C151.998 32.7105 150.636 32.234 149.334 31.7187C148.031 31.2033 146.411 30.4838 144.492 29.5795C142.563 28.6752 141.231 28.0626 140.495 27.7417C140.157 27.6153 139.282 27.1583 137.86 26.3902C136.438 25.622 135.394 25.1261 134.718 24.8927C134.589 24.8636 134.39 24.9705 134.142 25.2136C133.893 25.4567 133.605 25.7776 133.287 26.1665C132.969 26.5555 132.68 26.9347 132.412 27.2945C132.143 27.6542 131.855 28.0432 131.557 28.4516C131.258 28.86 131.05 29.1322 130.95 29.2586C130.344 30.0754 128.962 31.777 126.784 34.3635C126.755 34.4316 126.675 34.5288 126.556 34.6552C126.436 34.7816 126.367 34.8886 126.327 34.9469C126.297 35.015 126.228 35.0928 126.128 35.19C126.029 35.2872 125.949 35.3553 125.9 35.3845C125.85 35.4136 125.78 35.4622 125.701 35.5303C125.621 35.5984 125.542 35.6275 125.472 35.6275H125.223C125.124 35.6275 125.035 35.5984 124.945 35.5303C124.866 35.4622 124.766 35.4039 124.667 35.3358C124.269 35.0052 124.15 34.6066 124.319 34.1301C124.488 33.6537 124.716 33.2258 125.025 32.8272C125.333 32.4285 125.581 32.1757 125.78 32.0396C126.586 31.5437 127.341 30.9019 128.067 30.0948C128.783 29.2878 129.678 28.1501 130.751 26.6527C131.825 25.165 132.422 24.3385 132.561 24.1732C133.466 23.0258 134.331 21.5187 135.146 19.6518C135.971 17.7848 136.379 16.1804 136.379 14.8386C136.349 13.662 136.607 13.0203 137.184 12.9231C137.622 12.855 137.95 13.1856 138.188 13.9051C138.188 14.0024 138.208 14.0996 138.238 14.1968C138.467 15.9665 137.95 18.1446 136.677 20.7311C136.607 20.8575 136.518 21.0422 136.399 21.2756V21.3145Z" fill="white"/>
<path d="M175.353 22.5202C175.253 22.4424 175.174 22.3938 175.124 22.3938C175.074 22.3938 174.945 22.4327 174.746 22.5202C174.548 22.6077 174.398 22.6563 174.299 22.6952C173.931 22.9578 173.523 22.9578 173.096 22.6952C172.658 22.4327 172.4 22.0827 172.32 21.6354C172.241 21.1978 172.38 20.7602 172.748 20.3324C173.046 19.9435 173.305 19.6907 173.504 19.5934C174.577 19.2045 175.542 19.3795 176.417 20.1379C177.292 20.8867 177.64 21.7229 177.471 22.6466C177.272 23.7551 176.755 24.9608 175.91 26.2541C175.074 27.5473 174.249 28.471 173.444 29.0253C173.106 29.1517 172.837 29.1808 172.619 29.1031C172.4 29.0253 172.301 28.8405 172.32 28.5585C172.34 28.2766 172.499 27.9946 172.798 27.7029C173.335 27.1486 173.881 26.361 174.428 25.3498C174.975 24.3385 175.293 23.5801 175.353 23.0939C175.452 22.8022 175.452 22.6077 175.353 22.5299V22.5202Z" fill="white"/>
<path d="M49.9996 23.7162C51.0137 23.5606 51.8688 23.8328 52.5647 24.5427C53.1812 25.3303 53.4794 26.2443 53.4695 27.2944C53.4496 28.3446 53.1116 29.2975 52.4653 30.1532C52.2466 30.4351 52.0279 30.8533 51.8091 31.4075C51.5904 31.9617 51.3518 32.3799 51.1032 32.6618C50.9939 32.7688 50.805 33.0022 50.5266 33.3522C50.2581 33.712 49.9996 34.0231 49.761 34.2857C49.5224 34.5482 49.3136 34.7427 49.1346 34.8496C48.8761 34.9955 48.5083 35.083 48.0211 35.1122C47.5339 35.1511 47.1164 35.0927 46.7982 34.9566C46.142 34.6746 45.9233 34.1204 46.142 33.3036C46.1818 32.4187 46.2116 31.7673 46.2514 31.3589C46.2911 30.9505 46.2514 30.299 46.142 29.4142C46.0326 28.5293 45.9432 27.8778 45.8736 27.4695C45.804 27.0611 45.6847 26.4388 45.5156 25.6025C45.3566 24.7663 45.2472 24.1926 45.2174 23.8717C45.1478 23.405 45.1776 23.055 45.3267 22.8022C45.4759 22.5493 45.7642 22.4813 46.2017 22.5882C46.5596 22.6271 46.838 22.7438 47.0169 22.9577C47.1959 23.1716 47.345 23.5411 47.4544 24.0759C47.5638 24.6496 47.6532 24.9316 47.7228 24.9316C48.2299 24.2899 48.9954 23.8912 50.0096 23.7356L49.9996 23.7162ZM51.3319 27.1C51.3518 26.9249 51.312 26.7499 51.2225 26.5943C51.133 26.4388 51.0634 26.3318 51.0336 26.2735C50.9939 26.2248 50.8845 26.1276 50.7055 25.9818C50.4868 25.8067 50.2184 25.8262 49.9101 26.0304C49.6019 26.2443 49.3335 26.5846 49.1148 27.0416C48.896 27.5375 48.7469 28.1307 48.6773 28.8308C48.6077 29.5211 48.6276 30.124 48.727 30.6199C48.8364 31.1158 49.0153 31.3297 49.2738 31.2616C49.8207 31.1936 50.4371 30.017 51.1331 27.7417C51.2424 27.4889 51.3021 27.275 51.3219 27.1H51.3319ZM61.0455 12.5049C61.9205 11.9701 62.5369 11.7076 62.9048 11.7076C63.0141 11.7076 63.1235 11.8145 63.2328 12.0285C63.3422 12.2424 63.3919 12.4757 63.3919 12.7188C63.3919 13.0786 63.2925 13.3509 63.0937 13.5453C62.8948 13.7398 62.4275 14.0023 61.7017 14.3232L60.6081 14.858V15.7137C60.6081 17.1333 60.9163 18.0765 61.5327 18.5432C61.7514 18.7183 61.8708 18.8544 61.8906 18.9419C61.9105 19.0294 61.8906 19.185 61.8111 19.3989C61.304 20.6435 60.6876 20.8574 59.9519 20.0407C59.4448 19.5059 59.1366 18.8544 59.0272 18.0668C58.9576 17.707 58.8781 17.3472 58.8085 16.9777C58.7389 16.6083 58.6494 16.2971 58.5401 16.0443C58.4705 15.9373 58.3611 15.8984 58.212 15.9082C58.0628 15.9276 57.6453 16.0443 56.9592 16.2582C56.3428 16.4332 55.5176 16.6277 54.4737 16.8416C53.4297 17.0555 52.7536 17.1625 52.4255 17.1625C52.0279 17.2014 51.8191 16.8708 51.7992 16.1804C51.7793 15.49 51.8588 15.033 52.0477 14.8191C52.0875 14.7511 52.4852 14.6927 53.2508 14.6635C54.0163 14.6246 54.7719 14.6052 55.5176 14.5858C56.2633 14.5663 56.6312 14.508 56.6312 14.401C57.0984 14.1871 57.4066 13.9926 57.5359 13.8176C57.6651 13.6426 57.7248 13.3509 57.7248 12.9619C57.7248 12.8939 57.7447 12.8063 57.7745 12.6994C57.7745 12.3785 57.7944 12.1354 57.8242 11.9798C57.864 11.8243 57.8938 11.6103 57.9336 11.3381C57.9734 11.0756 58.0231 10.8714 58.0927 10.7547C58.1623 10.6283 58.2517 10.5116 58.3611 10.4046C58.4705 10.2977 58.6196 10.2588 58.7986 10.2977C58.9775 10.3366 59.1565 10.4046 59.3454 10.5116C59.5244 10.6574 59.6138 10.9589 59.6138 11.4159C59.6834 12.8063 60.1607 13.1758 61.0356 12.5341L61.0455 12.5049ZM70.7791 40.9657C70.5106 40.7713 70.2024 40.5282 69.8743 40.2462C69.5462 39.9642 69.3076 39.7795 69.1684 39.7114C68.6912 39.8573 68.0549 40.0712 67.2595 40.3532C66.4641 40.6351 65.5991 40.9463 64.6645 41.2866C63.7399 41.6269 63.1135 41.8506 62.7854 41.9575C62.348 42.1715 61.9105 42.2006 61.4731 42.0353C61.0356 41.87 60.7671 41.6367 60.6578 41.3158C60.5484 41.063 60.27 40.8588 59.8127 40.7032C59.3553 40.5476 59.1267 40.2656 59.1267 39.8767C59.0571 39.6239 58.9974 39.4197 58.9676 39.2641C58.9278 39.1085 58.9079 38.9043 58.8881 38.6807C58.8682 38.4473 58.8483 38.282 58.8383 38.1751C58.8185 38.0681 58.8383 37.8445 58.8682 37.5042C58.9079 37.1638 58.9278 36.911 58.9477 36.7263C58.9676 36.5513 58.9974 36.172 59.0571 35.6081C59.1068 35.0441 59.1565 34.5774 59.1963 34.2176C59.1963 33.8967 59.1963 33.4592 59.2261 32.9146C59.246 32.3604 59.2559 32.0006 59.2559 31.8256C59.2559 31.6506 59.2858 31.32 59.3355 30.8435C59.3852 30.3671 59.4747 29.8615 59.584 29.3267C59.6934 28.7919 59.8226 28.0626 59.9618 27.1389C60.3993 25.0094 60.8566 23.794 61.3239 23.512C61.6123 23.3369 61.9304 23.3661 62.2784 23.5898C62.6264 23.8231 62.8352 24.1537 62.9048 24.5718C62.9445 24.8927 62.9942 25.0677 63.0638 25.1066C63.1334 25.1455 63.3223 25.0872 63.6107 24.9511C63.899 24.8052 64.1873 24.7177 64.4856 24.6885C64.9529 24.5816 65.5792 24.426 66.3448 24.2121C67.1103 23.9981 67.6771 23.8523 68.0648 23.7842C68.4426 23.7162 68.9 23.6481 69.4269 23.5995C69.9539 23.5509 70.4311 23.5606 70.8685 23.6481C71.306 23.7356 71.7435 23.9106 72.1809 24.1537C73.0559 24.5427 73.6425 25.0775 73.9507 25.7581C74.2589 26.4388 74.4677 27.7709 74.577 29.7545C74.6466 30.9602 74.6864 31.7284 74.6864 32.0492C74.6864 32.3701 74.6168 32.9049 74.4677 33.6536C74.3185 34.4023 74.2092 35.0052 74.1396 35.4719C74.0998 36.0456 74.0899 36.4151 74.1097 36.5901C74.1296 36.7652 74.2092 37.0374 74.3583 37.3875C74.6466 37.6695 74.7659 37.9612 74.7162 38.2723C74.6665 38.5737 74.5671 38.8168 74.4478 38.9919C74.3185 39.1669 74.1396 39.3711 73.901 39.6044C73.6623 39.8378 73.5132 40.0226 73.4337 40.1684C73.2547 40.4504 72.9564 40.6935 72.5587 40.888C72.161 41.0824 71.7932 41.1797 71.4651 41.1797C71.2861 41.2477 71.0574 41.1797 70.7791 40.9949V40.9657ZM65.0821 33.3619C64.9728 33.4008 64.6944 33.4689 64.237 33.5758C63.7797 33.6828 63.4416 33.7703 63.203 33.8384C62.9644 33.9064 62.696 34.0134 62.3878 34.1593C62.0795 34.3051 61.8509 34.4412 61.7017 34.5871C61.662 34.7621 61.5725 35.5983 61.4333 37.0958C61.3637 38.4084 61.3637 39.1669 61.4333 39.3614C61.5029 39.5558 61.8509 39.585 62.4673 39.4391C63.0141 39.2933 63.3919 39.0696 63.6107 38.7488C64.8833 35.9387 65.3704 34.1398 65.0821 33.3619ZM62.7357 27.8098C62.4474 28.2376 62.2187 28.9183 62.0497 29.8615C61.8906 30.8046 61.9105 31.3783 62.1293 31.5922C62.3082 31.8062 62.8352 31.8159 63.7101 31.6214C64.585 31.4269 65.1119 31.1839 65.2909 30.9019C65.3605 30.756 65.4102 30.0656 65.4301 28.821C65.45 27.5764 65.4301 26.8958 65.3506 26.7985C64.8037 26.3707 63.9288 26.711 62.7357 27.8098ZM69.0889 28.821C69.7948 28.2182 70.3317 27.9167 70.6995 27.9167C70.9183 27.9167 71.1072 28.0043 71.2762 28.1793C71.4353 28.3543 71.5247 28.5488 71.5247 28.7627C71.5247 29.0155 71.1569 29.4822 70.4311 30.1726C69.7053 30.863 69.0491 31.32 68.4625 31.5339C67.9853 31.7089 67.6373 32.0784 67.3987 32.6229C67.1601 33.1772 66.9712 33.8773 66.822 34.7329C66.6729 35.5886 66.5337 36.2109 66.3846 36.5999C66.2354 36.9596 66.136 37.2222 66.0863 37.3972C66.0366 37.5722 65.9968 37.7375 65.9769 37.8737C65.957 38.0195 65.9769 38.0973 66.0068 38.1167C66.0465 38.1362 66.136 38.1459 66.2752 38.1459C66.4144 38.1459 66.5735 38.1167 66.7425 38.0681C66.9115 38.0195 67.1501 37.9612 67.4782 37.9125C67.8063 37.8639 68.1145 37.7959 68.4029 37.7278C69.8544 37.368 70.7691 37.1638 71.127 37.086C71.4551 37.0472 71.6739 36.9596 71.7832 36.8235C71.8926 36.6777 71.9622 36.3957 72.002 35.9678C72.0417 35.6859 72.1113 35.258 72.2207 34.6843C72.3301 34.1204 72.4096 33.6731 72.4693 33.3522C72.5289 33.0313 72.5786 32.6132 72.6283 32.0979C72.678 31.5825 72.6979 31.0769 72.6781 30.581C72.6582 30.0851 72.6283 29.5697 72.5985 29.0349C72.4494 27.7903 72.2008 26.9833 71.833 26.6041C71.4651 26.2346 70.7592 25.8845 69.7053 25.5636C69.3772 25.5247 68.9895 25.5636 68.5321 25.6414C68.0748 25.7289 67.7964 25.8262 67.687 25.9331C67.5776 26.0012 67.508 26.6624 67.4683 27.907C67.4683 28.7238 67.4683 29.2391 67.4981 29.4531C67.518 29.667 67.5776 29.7739 67.687 29.7739C67.9057 29.735 68.373 29.4142 69.0789 28.8113L69.0889 28.821ZM76.3169 11.0075L77.6293 10.9005C77.9176 10.9005 78.4148 10.8519 79.1008 10.745C79.7868 10.638 80.2939 10.5894 80.6021 10.5894C80.9103 10.5894 81.298 10.6574 81.7753 10.8033C82.173 11.1631 82.1531 11.6881 81.7256 12.4077C81.2185 13.2634 80.6021 13.4773 79.8663 13.0494C79.757 12.8744 79.1306 12.8161 77.9872 12.8939C76.8439 12.9619 76.128 13.0203 75.8298 13.0494C75.5017 13.1953 75.2133 13.837 74.9548 14.9747C74.9151 15.4414 74.8256 15.8693 74.6864 16.2777C74.5373 16.686 74.418 16.9875 74.3285 17.1819C74.239 17.3764 74.06 17.6876 73.8115 18.1154C73.553 18.5432 73.3939 18.8252 73.3243 18.9711C73.2547 19.078 73.036 19.2336 72.6681 19.4475C72.3002 19.6614 72.0517 19.7003 71.9025 19.5545C71.7534 19.4086 71.7037 19.2239 71.7435 18.9905C71.7832 18.7572 71.9622 18.3099 72.2903 17.6292C72.9465 16.2388 73.2746 14.9066 73.2746 13.6328C73.2746 13.4578 73.2448 13.3509 73.195 13.312C73.1453 13.2731 72.9266 13.2634 72.5687 13.2634C71.8827 13.2634 70.6598 13.1758 68.9099 13.0008C67.1601 12.8258 66.2951 12.6605 66.2951 12.5244C66.1857 12.3785 66.1658 12.184 66.2454 11.941C66.315 11.6881 66.4641 11.4937 66.6828 11.3575C67.0109 11.1436 67.4782 11.0172 68.1046 10.988C68.721 10.9491 69.4766 10.988 70.3714 11.0658C71.2662 11.1533 71.9025 11.1825 72.3102 11.1436C73.1851 11.1825 73.7121 11.1436 73.891 11.0075C74.07 10.8811 74.2191 10.5019 74.3285 9.86011C74.4776 9.15029 74.6168 8.67384 74.7659 8.42103C74.9151 8.16821 75.2034 7.94457 75.6409 7.73065C76.297 7.26392 76.7345 7.20558 76.9532 7.54591C77.172 7.88623 77.1024 8.43075 76.7345 9.16974C76.476 9.63647 76.3567 10.0546 76.3567 10.4532V11.0367L76.3169 11.0075Z" fill="white"/>
<path d="M90.3326 75.3595C89.6764 75.2915 89.408 74.9511 89.5074 74.3288C89.5372 73.9691 89.7858 73.7065 90.2332 73.5412C90.6806 73.3759 91.2374 73.2593 91.8936 73.1717C92.5498 73.0842 92.9872 72.9967 93.2258 72.8995C93.4943 72.8022 93.9019 72.6758 94.4587 72.53C95.0155 72.3841 95.433 72.2675 95.7412 72.1897C96.0495 72.1119 96.4173 71.9757 96.8747 71.8007C97.332 71.6257 97.7894 71.4118 98.2566 71.1881C98.9228 70.7992 99.4298 70.702 99.7679 70.9159C100.106 71.1298 100.215 71.509 100.116 72.073C100.046 72.3647 99.7878 72.6175 99.3404 72.8314C98.893 73.0453 98.3262 73.2495 97.6601 73.444C96.994 73.6385 96.5366 73.8038 96.308 73.9399C95.5324 74.2316 94.1604 74.6303 92.1918 75.1164C91.6251 75.3498 91.0087 75.4276 90.3624 75.3595H90.3326ZM94.926 91.7146C95.9301 91.2186 96.7454 91.3353 97.3618 92.0549C97.9783 92.7744 98.1075 93.737 97.7396 94.9525C97.5408 95.604 97.5408 95.9443 97.7396 95.9637C97.9385 95.9832 98.3461 95.6915 98.9427 95.1081C99.748 94.3594 100.315 94.0288 100.653 94.126C101.09 94.2524 101.1 94.7289 100.702 95.5456C100.305 96.4013 99.6287 97.0819 98.6941 97.607C98.4555 97.7723 97.9484 98.0835 97.163 98.5405C96.3775 98.9975 95.6617 99.4448 95.0254 99.8629C94.3891 100.291 93.9019 100.699 93.5738 101.088C93.375 101.477 93.0867 101.671 92.7188 101.652C92.3509 101.633 92.0924 101.477 91.9433 101.185C91.7941 100.894 91.8041 100.563 91.9731 100.203C92.0427 99.7073 92.1024 98.6377 92.1521 96.9847C92.2018 95.3317 92.2614 93.8051 92.331 92.4146C92.4006 91.0242 92.5 90.2171 92.6293 89.9838C92.7983 89.1281 93.1165 88.4766 93.5838 88.0196C93.9218 87.6598 94.2499 87.689 94.5879 88.1168C94.8564 88.5058 94.8365 88.885 94.5382 89.2448C94.4686 89.4101 94.409 89.7212 94.3394 90.1782C94.2698 90.6352 94.24 91.0339 94.24 91.3839C94.24 91.734 94.2598 91.9187 94.2897 91.9479C94.3891 91.9479 94.6078 91.8701 94.9459 91.7048L94.926 91.7146ZM94.7768 79.2392C95.3137 79.0448 95.9202 78.7239 96.6062 78.2863C97.2922 77.8488 97.7198 77.5862 97.8888 77.5279C98.2268 77.3334 98.535 77.314 98.8134 77.4793C99.1017 77.6446 99.1912 77.8877 99.0918 78.2183C99.0222 78.5489 98.6543 78.9767 97.9882 79.5212C97.3221 80.0657 96.7653 80.3769 96.3278 80.4741C96.0296 80.5714 95.7114 80.7075 95.3734 80.8631C95.0055 81.0284 94.6377 81.1645 94.2698 81.2812C93.9019 81.3979 93.5539 81.4757 93.2159 81.5243C92.8779 81.5729 92.5995 81.5243 92.3609 81.3979C92.1222 81.2715 91.993 81.0673 91.9632 80.8047C91.8936 80.3088 91.9333 79.9782 92.0924 79.7935C92.2515 79.6087 92.5498 79.5212 93.017 79.5212C93.6534 79.5212 94.24 79.424 94.7768 79.2295V79.2392ZM98.9725 66.0249C98.7538 66.1513 98.3958 66.2194 97.8888 66.2194C97.1531 66.2486 96.2185 66.1708 95.1049 65.9763C93.9815 65.7818 93.2855 65.5874 93.017 65.3832C92.1819 64.1677 92.0427 63.4676 92.6194 63.2732C92.848 63.1468 93.0568 63.0884 93.2258 63.0981C93.3949 63.1176 93.6732 63.2343 94.0809 63.4676C94.6874 63.7593 95.3634 64.0122 96.1191 64.2066C96.8747 64.4011 97.4314 64.4886 97.7993 64.4497C98.2368 64.3817 98.5947 64.4497 98.883 64.6247C99.1713 64.8095 99.3105 65.0623 99.3105 65.3832C99.3105 65.6749 99.2012 65.8888 98.9824 66.0249H98.9725ZM97.9982 83.9065C97.8291 84.0718 97.5806 84.2469 97.2425 84.4219C96.9045 84.6066 96.6858 84.7233 96.5863 84.7914C96.5168 84.8206 96.3278 84.9372 96.0097 85.1317C95.6915 85.3262 95.3634 85.5206 95.0353 85.7248C94.6973 85.9193 94.3593 86.1041 94.0013 86.2694C93.6434 86.4347 93.3352 86.5027 93.0469 86.4638C92.7585 86.4347 92.5697 86.2791 92.4702 86.0263C92.1322 85.1706 92.5398 84.5677 93.6732 84.208C94.916 83.819 95.7611 83.3717 96.2384 82.8856C96.5068 82.5939 96.9244 82.4966 97.4911 82.6133C98.0578 82.73 98.3461 82.9536 98.3461 83.2745C98.2765 83.537 98.1572 83.751 97.9982 83.9163V83.9065ZM95.1348 93.7759C94.7669 94.0676 94.4686 94.4663 94.23 94.9525C94.1306 95.3123 94.0809 95.8373 94.0809 96.5277C94.0809 97.2181 94.1505 97.607 94.2797 97.7043C94.578 97.9668 94.9856 97.5779 95.4828 96.5277C95.6518 96.1679 95.8009 95.779 95.9302 95.3512C96.129 94.758 96.1787 94.3205 96.0793 94.0288C95.8108 93.5717 95.4927 93.4842 95.1248 93.7857L95.1348 93.7759ZM109.273 69.3698C109.153 69.3698 108.925 69.4865 108.597 69.7102C107.662 70.2352 106.728 70.6533 105.813 70.9645C104.888 71.2756 104.282 71.3534 103.983 71.1881C103.745 71.0617 103.596 70.9353 103.536 70.8186C103.466 70.702 103.437 70.4686 103.437 70.1088C103.437 69.681 103.556 69.3893 103.785 69.224C104.013 69.0587 104.421 68.9809 104.988 68.9809C105.992 68.9809 107.066 68.6017 108.199 67.853C108.905 67.4251 109.322 67.0459 109.452 66.725C109.581 66.3944 109.621 65.7138 109.551 64.6636C109.452 63.6816 109.521 63.0593 109.78 62.7967C110.038 62.5342 110.426 62.5828 110.963 62.9426C111.092 63.0106 111.202 63.4385 111.291 64.2455C111.371 65.0526 111.47 65.4804 111.569 65.5485C111.768 65.8402 111.738 66.7931 111.47 68.3975C111.341 69.506 111.122 70.1477 110.814 70.313C110.347 70.5464 109.989 70.4103 109.76 69.9241C109.561 69.5643 109.402 69.3796 109.283 69.3796L109.273 69.3698ZM116.958 71.8299C118.111 71.4701 118.907 71.1784 119.344 70.945C119.981 70.4491 120.478 70.5172 120.856 71.1395C121.194 71.6646 121.144 72.073 120.706 72.3647C120.537 72.4619 120.358 72.53 120.15 72.5592C119.314 72.6856 118.927 73.0551 118.996 73.6385C118.966 73.901 119.096 74.0858 119.394 74.2024C119.692 74.3191 119.861 74.4066 119.901 74.4747C120.001 74.64 120.03 74.8734 120 75.1845C119.971 75.4957 119.881 75.7485 119.752 75.943C119.513 76.2347 119.454 76.3708 119.553 76.3319C119.583 76.3319 119.672 76.3027 119.802 76.2347C120.17 75.9721 120.488 75.9527 120.756 76.1569C121.025 76.3708 121.104 76.7014 121.005 77.1681C120.975 77.4015 120.865 77.6154 120.677 77.8293C120.488 78.0432 119.911 78.5878 118.947 79.4726C118.31 80.0268 117.992 80.688 117.992 81.4368C118.261 81.4076 118.877 81.0867 119.851 80.4838C120.826 79.881 121.492 79.5601 121.86 79.5309C122.327 79.6282 122.546 79.9393 122.516 80.4644C122.486 80.9895 122.267 81.3201 121.86 81.4465C119.076 83.3134 117.237 84.2177 116.332 84.1496C115.865 84.276 115.497 84.0913 115.228 83.5857C114.96 83.08 115.029 82.6814 115.427 82.3799C115.596 82.2146 115.765 81.9618 115.934 81.6215C116.103 81.2812 116.153 81.077 116.083 81.0089C116.014 80.9798 115.845 80.9506 115.576 80.9311C115.308 80.9117 115.059 80.8922 114.821 80.8533C114.582 80.8242 114.453 80.7561 114.423 80.6589C114.294 80.5616 114.204 80.513 114.174 80.513C114.144 80.513 114.105 80.5908 114.075 80.7561C113.836 81.7382 113.707 82.7883 113.677 83.8968C113.677 84.5483 113.647 84.9664 113.598 85.1512C113.548 85.3359 113.419 85.5693 113.22 85.861C112.822 86.6097 112.365 86.8139 111.868 86.4541C111.371 86.0943 111.251 85.5206 111.52 84.733C111.987 83.4884 112.285 81.8063 112.424 79.6768C112.554 77.5473 112.494 75.729 112.226 74.2219C112.126 73.726 111.788 74.0371 111.221 75.1553L110.068 77.4112C109.73 78.0627 109.472 78.5683 109.293 78.9086C109.104 79.249 108.805 79.6768 108.388 80.1824C107.97 80.688 107.573 80.9895 107.205 81.0867C106.668 81.0867 106.399 80.8242 106.399 80.2991C106.399 80.0657 106.578 79.6185 106.926 78.9475C107.274 78.2766 107.583 77.7904 107.851 77.4987C108.557 76.643 109.253 75.4859 109.939 74.008C110.625 72.53 111.221 71.3729 111.719 70.5172C112.723 68.7184 113.578 67.571 114.284 67.0751C115.159 66.4819 115.676 66.4333 115.845 66.9292C115.974 67.3571 115.725 67.8432 115.089 68.4072C114.353 69.2629 113.936 69.856 113.836 70.1963C113.737 70.5367 113.886 70.8089 114.284 71.0034C114.512 71.1006 114.652 71.1881 114.681 71.2756C114.711 71.3534 114.731 71.5285 114.731 71.791C114.701 72.1508 114.751 72.3355 114.88 72.3355C115.109 72.3355 115.805 72.1508 116.968 71.791L116.958 71.8299ZM125.996 100.116C123.798 99.2017 122.168 98.3946 121.104 97.714C120.905 97.5876 120.319 97.2667 119.344 96.7611C118.37 96.2554 117.803 95.954 117.634 95.8568C117.097 95.497 116.68 95.497 116.381 95.8568C115.576 96.8097 115.019 97.432 114.701 97.7237C114.383 98.0154 114.035 98.2682 113.667 98.4627C113.001 98.7933 112.355 98.91 111.738 98.8322C111.122 98.7447 110.814 98.4919 110.814 98.0737C110.814 97.6848 111.152 97.4806 111.818 97.4806C112.156 97.4806 112.574 97.2861 113.071 96.8875C113.568 96.4888 114.025 96.0221 114.423 95.4678C114.791 94.9428 114.97 94.6316 114.95 94.5344C114.93 94.4371 114.622 94.2038 114.025 93.844C113.787 93.6787 113.538 93.562 113.27 93.4745C113.001 93.3967 112.762 93.2703 112.564 93.105C112.226 92.8133 112.086 92.4535 112.136 92.0452C112.186 91.6368 112.415 91.3353 112.812 91.1409C113.081 91.0145 113.21 90.8103 113.21 90.5477C113.14 90.0907 113.289 89.692 113.637 89.3712C113.985 89.0503 114.463 88.7391 115.039 88.4669C115.626 88.1849 116.014 87.971 116.222 87.8057C118.102 86.5611 119.255 85.8707 119.692 85.7443C120.03 85.7735 120.299 85.9193 120.517 86.1624C120.736 86.4055 120.826 86.7264 120.796 87.1153C120.796 87.6695 120.02 89.4879 118.489 92.5702C118.151 93.1925 118.052 93.5815 118.191 93.7468C120.299 95.1178 122.287 96.2554 124.146 97.1597C126.006 98.064 128.253 99.0169 130.897 100.028C131.235 100.193 131.981 100.407 133.134 100.67C134.288 100.932 135.013 101.166 135.322 101.36C135.719 101.623 135.918 101.983 135.898 102.44C135.878 102.897 135.699 103.218 135.341 103.393C134.984 103.568 134.526 103.499 133.959 103.169C133.661 103.004 132.985 102.76 131.951 102.43C130.917 102.099 130.311 101.934 130.142 101.934C129.575 101.642 128.193 101.03 125.996 100.116ZM115.427 77.9168C114.552 78.1794 114.125 78.5586 114.125 79.0448C114.125 79.599 114.294 79.6671 114.632 79.2392C114.801 79.0059 115.139 78.8503 115.636 78.7433C116.004 78.7142 116.312 78.5975 116.56 78.403C116.809 78.2085 116.938 78.0043 116.938 77.7904C116.938 77.5765 116.739 77.5376 116.332 77.664C116.262 77.6932 115.964 77.7807 115.427 77.9071V77.9168ZM118.141 89.0697C118.072 88.9044 117.823 89.0211 117.386 89.4101C117.187 89.6045 116.72 89.906 115.984 90.2949C115.248 90.6839 114.791 90.9658 114.632 91.1311L114.234 91.4715C114.602 91.8021 115.039 92.0743 115.536 92.3077C115.934 92.541 116.232 92.5897 116.411 92.4827C116.59 92.366 116.839 91.9965 117.137 91.3742C117.505 90.6255 117.754 90.1102 117.893 89.8476C118.121 89.4879 118.211 89.2253 118.141 89.06V89.0697ZM116.809 74.2899C116.59 74.0274 116.362 73.9982 116.133 74.1927C116.004 74.2899 115.695 74.3872 115.228 74.4844C114.83 74.5525 114.562 74.6497 114.453 74.7761C114.333 74.9025 114.294 75.1165 114.323 75.4179C114.323 75.6124 114.353 75.7388 114.423 75.7874C114.492 75.836 114.652 75.8652 114.93 75.8652C115.328 75.8943 115.765 75.8165 116.232 75.6221C116.7 75.4276 116.968 75.2331 117.038 75.0289C117.107 74.7956 117.038 74.5525 116.809 74.2899ZM122.864 59.8213C123.033 60.0061 123.112 60.2103 123.112 60.4339C123.182 60.5603 122.983 60.8131 122.536 61.1729C122.088 61.5327 121.502 61.9605 120.806 62.4467C120.11 62.9328 119.702 63.2343 119.603 63.3315C118.768 63.9246 117.962 64.3136 117.197 64.5081C116.421 64.7025 115.894 64.6247 115.586 64.265C115.457 64.1677 115.397 63.6038 115.437 62.5731C115.467 61.5424 115.417 60.9298 115.288 60.7353C115.049 59.9866 114.96 59.5102 115.009 59.3157C115.059 59.1212 115.288 58.8878 115.686 58.6253C115.914 58.5281 116.133 58.4697 116.312 58.4503C116.491 58.4308 116.65 58.4795 116.759 58.5961C116.879 58.7128 116.978 58.8295 117.058 58.9365C117.137 59.0531 117.207 59.2282 117.256 59.481C117.306 59.7338 117.336 59.9283 117.356 60.0936C117.376 60.2589 117.396 60.4825 117.435 60.7839C117.465 60.9784 117.485 61.1243 117.485 61.2215C117.485 61.7466 117.555 62.0383 117.684 62.1063C117.982 62.1063 118.718 61.6785 119.871 60.8326C121.025 59.9866 121.84 59.5588 122.307 59.5588C122.506 59.5588 122.695 59.6463 122.864 59.831V59.8213ZM119.822 67.3376C120.577 67.8141 121.005 68.1447 121.104 68.3489C121.233 68.6114 121.194 68.9128 120.975 69.2531C120.756 69.5935 120.478 69.7685 120.15 69.7685C119.782 69.6421 119.543 69.5449 119.424 69.4962C119.305 69.4476 119.066 69.3504 118.698 69.2045C118.33 69.0587 118.092 68.9226 117.972 68.7864C117.853 68.66 117.714 68.485 117.545 68.2711C117.376 68.0572 117.326 67.8335 117.396 67.6099C117.465 67.3765 117.614 67.1334 117.843 66.8709C117.972 66.7056 118.161 66.6278 118.4 66.6278C118.599 66.6278 119.076 66.8612 119.831 67.3376H119.822Z" fill="white"/>
<path d="M148.156 82.5355C151.04 81.2228 152.978 80.4547 153.983 80.231C154.281 80.1338 154.848 79.9296 155.663 79.6185C156.488 79.3073 157.224 79.0739 157.9 78.9086C158.566 78.7433 159.411 78.6169 160.415 78.5197C161.151 78.4225 161.946 78.2572 162.801 78.0238C163.656 77.7904 164.75 77.6154 166.092 77.4793C166.361 77.4501 166.599 77.4015 166.798 77.3529C166.997 77.3043 167.136 77.2751 167.196 77.2556C167.265 77.2362 167.375 77.2362 167.544 77.2556C167.713 77.2751 167.942 77.3334 168.25 77.4307C168.518 77.6251 168.717 77.7807 168.856 77.8974C168.985 78.0141 169.115 78.228 169.234 78.5391C169.353 78.8503 169.393 79.2003 169.363 79.599C169.363 80.2894 169.214 80.9117 168.916 81.4659C168.647 81.9618 168.25 82.4869 167.733 83.0606C167.216 83.6343 166.818 83.9649 166.55 84.0718C166.281 84.1983 166.033 84.3636 165.794 84.5677C165.595 84.6942 165.197 84.8011 164.611 84.8886C164.024 84.9664 163.686 84.947 163.577 84.8108C163.408 84.5191 163.686 84.1691 164.402 83.7801C165.118 83.3912 165.804 82.8078 166.44 82.0396C167.077 81.2715 167.395 80.6589 167.395 80.2019C167.395 79.8713 167.305 79.6574 167.116 79.5407C166.927 79.424 166.56 79.3851 165.983 79.4143C164.412 79.5407 162.573 79.8032 160.485 80.2019C158.397 80.5908 156.806 81.0187 155.742 81.4757C155.235 81.6701 154.549 81.9132 153.654 82.1855C152.77 82.4675 151.984 82.7397 151.318 83.0217C150.652 83.3037 149.797 83.7024 148.753 84.2274C148.047 84.5872 147.331 84.9372 146.595 85.2873C145.86 85.6276 145.313 85.8804 144.965 86.0263C144.617 86.1721 144.199 86.4152 143.732 86.7361C143.265 87.0667 142.758 87.4751 142.221 87.9613C141.923 88.2919 141.664 88.4572 141.445 88.4572C141.227 88.4572 140.998 88.2919 140.769 87.9613C140.67 87.8932 140.6 87.7473 140.57 87.5237C140.541 87.2903 140.541 86.9986 140.6 86.6389C140.66 86.2791 140.7 85.9679 140.749 85.7054C140.799 85.4429 140.879 85.1025 140.998 84.6747C141.117 84.2469 141.187 83.9843 141.227 83.8871C141.356 83.6246 141.455 83.08 141.505 82.2633C141.555 81.4465 141.634 80.7172 141.754 80.0755C141.873 79.4337 142.101 79.1031 142.43 79.0642C142.599 79.035 142.787 79.1031 143.006 79.2879C143.225 79.4726 143.404 79.6865 143.533 79.9491C143.732 80.445 143.652 81.359 143.285 82.7008C142.947 84.0427 142.847 84.7622 142.986 84.8595C143.553 84.6261 145.283 83.8579 148.156 82.555V82.5355ZM155.991 89.6045C156.259 89.4101 156.508 89.1962 156.747 88.9628C157.214 88.5058 157.621 88.2238 157.95 88.1266C158.288 88.0293 158.566 88.1266 158.805 88.3988C159.033 88.6808 159.222 88.992 159.361 89.3323C159.491 89.6726 159.61 90.1296 159.709 90.6839C159.779 91.1798 159.709 91.6465 159.481 92.1035C159.262 92.5605 158.993 92.8522 158.675 92.9592C158.357 93.0759 158.049 92.9981 157.751 92.7355C157.552 92.5702 157.482 92.3758 157.552 92.1424C157.681 91.7534 157.751 91.452 157.751 91.2575C157.751 91.0631 157.721 90.9367 157.651 90.8881C157.582 90.8394 157.472 90.8492 157.323 90.9172C157.174 90.9853 157.035 91.0534 156.925 91.1409C156.806 91.2187 156.647 91.3451 156.448 91.5104C156.349 91.6076 156.269 91.6757 156.22 91.7048C156.17 91.734 156.11 91.7826 156.041 91.8312C155.971 91.8799 155.921 91.9187 155.891 91.9576C155.623 92.0257 155.444 92.2202 155.365 92.5508C155.285 92.8814 155.235 93.28 155.215 93.7565C155.195 94.233 155.176 94.5636 155.136 94.7677C155.066 95.2636 155.086 95.5359 155.186 95.604C155.285 95.6331 155.543 95.604 155.961 95.4776C156.379 95.3609 156.776 95.2053 157.144 95.0108C157.651 94.7483 158.089 94.6802 158.476 94.8164C158.864 94.9428 159.003 95.2053 158.904 95.604C158.775 96.0999 158.387 96.4402 157.751 96.6347C157.144 96.8291 156.508 97.1208 155.842 97.4903C155.176 97.8696 154.788 98.1515 154.688 98.346C154.519 98.7738 154.41 99.2989 154.36 99.9407C154.311 100.582 154.36 101.098 154.49 101.487H155.444C156.717 101.419 158.059 101.302 159.491 101.117C160.912 100.932 162.443 100.845 164.084 100.845C165.993 100.816 167.663 100.699 169.105 100.505C170.546 100.31 172.187 100.174 174.026 100.116C175.766 100.018 176.75 100.038 176.989 100.164C177.218 100.291 177.337 100.534 177.337 100.874C177.337 101.214 177.238 101.487 177.039 101.681C176.8 101.915 176.532 102.051 176.214 102.099C175.895 102.148 175.299 102.138 174.434 102.07C172.724 102.041 171.073 102.148 169.463 102.391C167.852 102.634 166.033 102.79 163.985 102.858C155.981 103.12 149.936 103.772 145.86 104.822C144.925 105.084 144.279 105.055 143.931 104.744C143.583 104.433 143.633 103.918 144.11 103.198C144.339 102.936 144.667 102.751 145.064 102.634C145.462 102.517 146.406 102.401 147.878 102.265C150.155 102.031 151.527 101.856 151.994 101.72C152.123 101.526 152.173 101.351 152.143 101.205C152.113 101.059 152.034 100.855 151.915 100.592C151.795 100.33 151.736 100.116 151.736 99.9504C151.706 99.6587 151.656 99.4837 151.606 99.4351C151.557 99.3864 151.378 99.3475 151.079 99.3086C150.304 99.2114 150.045 98.7738 150.274 97.9862C150.344 97.6945 150.453 97.4903 150.602 97.3737C150.751 97.257 151.05 97.1695 151.477 97.1014C152.143 96.975 152.611 96.7319 152.859 96.3916C153.108 96.0513 153.217 95.4873 153.187 94.6997C153.187 94.0774 153.127 93.669 153.008 93.4745C152.889 93.28 152.65 93.1828 152.282 93.1828C151.716 93.1828 151.358 92.9397 151.229 92.4438C151.03 92.2105 151.089 91.8507 151.407 91.3353C151.726 90.8297 152.113 90.2949 152.591 89.7407C153.058 89.1864 153.326 88.8364 153.396 88.71C153.466 88.6127 153.565 88.4766 153.694 88.2919C153.823 88.1071 153.953 87.9515 154.072 87.8251C154.191 87.6987 154.271 87.5626 154.321 87.4362C154.37 87.3098 154.35 87.2223 154.271 87.1931C154.191 87.1639 154.012 87.1737 153.744 87.2417C153.475 87.3098 153.078 87.4265 152.541 87.582C151.706 87.8738 151.089 87.971 150.712 87.8738C150.324 87.7765 150.204 87.3779 150.334 86.6972C150.433 86.5027 150.781 86.2791 151.368 86.036C151.954 85.7929 152.511 85.6373 153.048 85.5693C153.277 85.5693 153.625 85.4915 154.082 85.3456C154.539 85.1998 154.917 85.0442 155.235 84.8789C155.553 84.7136 155.991 84.49 156.538 84.2177C157.085 83.9454 157.433 83.7704 157.572 83.7024C158.307 83.5371 158.755 83.6537 158.924 84.0427C159.023 84.3733 158.974 84.7039 158.775 85.0539C158.576 85.404 158.109 85.9485 157.373 86.6972C156.737 87.3487 156.07 88.1168 155.365 88.9822C154.659 89.8476 154.311 90.3533 154.311 90.4797C154.311 90.7714 154.877 90.4797 156.021 89.5948L155.991 89.6045ZM156.041 61.8535C157.552 61.7563 158.228 61.4257 158.099 60.8715V60.3756L159.759 60.3269C160.863 60.3269 161.588 60.2783 161.917 60.1811C162.483 59.9185 162.891 59.9283 163.12 60.2103C163.348 60.4922 163.418 60.8423 163.318 61.2701C163.219 61.698 163.03 62.0091 162.762 62.2036C162.632 62.2328 162.205 62.2814 161.509 62.3494C160.733 62.4175 159.59 62.7189 158.069 63.2537C156.548 63.7982 155.712 64.2066 155.583 64.5081C155.245 65.1012 154.867 66.0638 154.43 67.4057C154.36 67.639 154.609 67.6488 155.186 67.4543C156.428 67.0945 157.025 66.9098 156.995 66.9098C157.333 66.8125 157.611 66.8514 157.85 67.0362C158.079 67.2209 158.168 67.4543 158.099 67.746C157.999 68.1349 157.771 68.485 157.423 68.7767C157.075 69.0684 156.707 69.2045 156.339 69.1656C156.07 69.1365 155.454 69.3504 154.48 69.8074C153.545 70.2644 152.332 70.7409 150.861 71.227C149.389 71.7229 148.395 71.966 147.898 71.966C147.5 71.966 147.291 71.7229 147.291 71.227C147.291 70.4103 148.425 69.7491 150.702 69.2629C150.97 69.1948 151.179 69.0781 151.328 68.8934C151.477 68.7086 151.924 68.0961 152.66 67.0556C152.889 66.6959 153.088 66.3069 153.237 65.8791C153.386 65.4512 153.446 65.1887 153.416 65.0915C153.346 64.9942 153.078 65.0137 152.611 65.1401C152.143 65.2665 151.646 65.4124 151.129 65.5582C150.612 65.7041 150.304 65.7624 150.204 65.7332C149.807 65.8013 148.534 66.1222 146.387 66.7153C145.452 66.9778 144.895 67.0556 144.726 66.9584C144.458 66.832 144.289 66.5208 144.219 66.0541C144.15 65.5777 144.239 65.2276 144.468 64.9942C144.696 64.8289 145.154 64.7317 145.82 64.7025C146.486 64.6734 146.973 64.5859 147.271 64.4594C151.318 63.6038 153.535 63.0009 153.903 62.6411C154.002 62.5439 154.062 62.4078 154.082 62.223C154.102 62.0383 154.082 61.591 154.002 60.8715C153.833 59.2671 153.754 58.3044 153.754 57.9738C153.754 57.6432 153.853 57.4001 154.052 57.2348C154.45 56.807 154.877 56.7584 155.305 57.089C155.573 57.3224 155.772 58.4308 155.911 60.4242L156.011 61.8438L156.041 61.8535ZM151.199 71.9952C151.646 72.1799 151.895 72.5592 151.924 73.1523C151.954 73.3468 151.994 73.4926 152.024 73.5899C152.054 73.6871 152.103 73.726 152.173 73.7163C152.243 73.6968 152.302 73.6676 152.372 73.619C152.441 73.5704 152.551 73.4926 152.7 73.3954C152.849 73.2982 152.988 73.2106 153.127 73.1523C153.257 73.1231 153.505 72.987 153.853 72.7634C154.201 72.5397 154.519 72.3355 154.808 72.1702C155.096 72.0049 155.444 71.8299 155.862 71.6549C156.279 71.4701 156.617 71.3923 156.866 71.4118C157.114 71.4312 157.373 71.5187 157.641 71.684C157.87 71.8785 157.94 72.2286 157.84 72.7439C157.741 73.2593 157.502 73.7552 157.134 74.2413L156.836 74.6789C157.273 74.9706 157.542 75.2234 157.641 75.4179C157.671 75.8457 157.602 76.1763 157.413 76.4291C157.224 76.6722 156.856 76.9639 156.309 77.2848C155.762 77.6057 155.394 77.8391 155.225 77.9752C153.485 79.1906 152.292 79.7449 151.656 79.6476C151.457 79.6185 151.288 79.5309 151.149 79.4045C151.02 79.2781 150.881 79.1128 150.751 78.9086C150.622 78.7142 150.503 78.5683 150.403 78.4711C150.165 78.2085 150.055 77.8293 150.055 77.3431C150.125 75.7388 150.075 74.7567 149.906 74.3969C149.608 73.6774 149.658 73.0259 150.055 72.4328C150.354 71.9757 150.731 71.8396 151.189 72.0146L151.199 71.9952ZM153.883 74.5233C153.645 74.6206 153.326 74.9025 152.909 75.3595C152.491 75.8166 152.263 76.1472 152.233 76.3416C152.163 76.6333 152.203 76.7792 152.332 76.7792C152.432 76.7792 152.809 76.4291 153.466 75.7193C154.122 75.0095 154.44 74.6108 154.44 74.5136C154.44 74.3872 154.251 74.3872 153.883 74.5136V74.5233Z" fill="white"/>
<path d="M185.321 84.0038C185.152 84.1691 184.884 84.3636 184.516 84.5969C183.482 85.2484 182.726 85.4137 182.259 85.0928C182.09 84.9664 181.99 84.6942 181.96 84.2858C181.931 83.8774 181.99 83.5176 182.159 83.2065C182.328 82.8953 182.577 82.8078 182.915 82.9342C183.253 83.0023 183.561 82.9731 183.84 82.8564C184.128 82.7397 184.446 82.555 184.794 82.2924C185.142 82.0299 185.401 81.8646 185.57 81.7965C185.768 81.6993 186.166 81.4076 186.753 80.9409C187.339 80.4644 187.717 80.1922 187.886 80.1338C188.89 79.5407 189.497 79.4629 189.696 79.8907C189.994 80.4158 189.894 80.795 189.397 81.0187C189.159 81.0867 188.622 81.4854 187.787 82.2244C186.952 82.9634 186.395 83.3815 186.126 83.4787C185.758 83.6732 185.49 83.8579 185.321 84.0232V84.0038ZM190.292 86.9792C190.491 86.8625 190.759 86.9403 191.097 87.2028C191.296 87.4945 191.267 88.1557 190.998 89.1962C190.73 90.2269 190.441 91.0339 190.143 91.627C189.904 92.0549 189.646 92.5411 189.368 93.105C189.079 93.6593 188.92 93.9801 188.89 94.0579C188.86 94.1357 188.672 94.3885 188.334 94.7969C187.995 95.2053 187.687 95.5554 187.409 95.8568C187.121 96.1485 186.594 96.7222 185.828 97.5779C185.361 98.0738 185.003 98.346 184.774 98.4141C184.406 98.5113 184.078 98.3946 183.8 98.0738C183.511 97.7432 183.402 97.3737 183.472 96.9458C183.502 96.7125 183.561 96.5666 183.651 96.5083C183.73 96.4402 183.929 96.3819 184.227 96.3138C184.496 96.1874 184.804 95.886 185.152 95.429C185.5 94.972 185.798 94.6413 186.027 94.4469C186.564 93.8926 187.29 92.8328 188.214 91.277C189.139 89.7212 189.715 88.5544 189.944 87.7668C189.974 87.3779 190.093 87.1153 190.292 87.0084V86.9792ZM185.719 68.0961C185.848 68.1641 186.196 68.378 186.753 68.7378C187.309 69.0976 187.667 69.3115 187.836 69.3796C188.91 69.8074 189.546 70.1088 189.765 70.2839C189.984 70.4686 190.093 70.7506 190.093 71.1395C190.123 71.5285 189.974 71.7618 189.646 71.8299C189.308 71.898 188.86 71.8007 188.294 71.5382C187.488 71.1104 186.435 70.77 185.132 70.5075C184.595 70.3811 184.277 70.2255 184.178 70.0699C184.078 69.9144 184.158 69.6907 184.426 69.4282C184.933 68.6795 185.361 68.2322 185.729 68.1058L185.719 68.0961ZM196.267 77.9168C196.566 77.5862 196.824 77.596 197.043 77.946C197.262 78.2863 197.471 78.8211 197.669 79.5407C197.739 79.8713 197.739 80.6589 197.669 81.9229C197.6 83.187 197.52 83.926 197.421 84.1594C197.292 84.49 197.023 84.665 196.615 84.7039C196.208 84.7428 195.959 84.6066 195.86 84.3149C195.691 82.7106 195.83 80.5811 196.258 77.9266L196.267 77.9168ZM199.886 73.6482C200.155 73.4829 200.374 73.2982 200.543 73.0842C200.712 72.8703 200.96 72.6661 201.298 72.4717C201.636 72.2772 201.905 72.18 202.104 72.18C202.372 72.18 202.571 72.355 202.71 72.6953C202.839 73.0356 202.829 73.3565 202.66 73.6482C202.491 73.9107 202.342 74.1052 202.213 74.2413C202.084 74.3678 201.895 74.5136 201.656 74.6595C201.418 74.8053 201.268 74.9123 201.209 74.9803C200.771 75.4373 200.175 75.729 199.429 75.836C198.683 75.943 198.067 75.7485 197.6 75.2234C197.331 74.9317 197.212 74.6303 197.252 74.3191C197.282 74.008 197.48 73.4148 197.858 72.53C198.256 71.6743 198.425 71.2173 198.365 71.159C198.296 71.1298 198.017 71.1784 197.51 71.3048C196.844 71.5965 196.357 71.5479 196.059 71.159C195.76 70.77 195.79 70.3228 196.158 69.8366C197.5 67.9016 198.236 66.482 198.365 65.5679C198.435 64.9748 198.514 64.6345 198.614 64.5372C198.713 64.44 199.002 64.3428 199.469 64.2455C199.638 64.2747 199.737 64.333 199.767 64.4206C199.797 64.4983 199.817 64.7609 199.817 65.179C199.887 65.5096 199.857 65.8791 199.737 66.2875C199.618 66.6959 199.429 67.1918 199.161 67.7655C198.892 68.3391 198.723 68.7086 198.654 68.8739C198.723 68.9031 198.952 68.8545 199.36 68.7281C200.533 68.3391 201.219 68.5336 201.418 69.3212C201.517 69.7491 201.268 70.2547 200.662 70.8478C200.423 71.0812 200.105 71.5479 199.688 72.2675C199.27 72.987 199.061 73.444 199.061 73.6385C199.061 73.9302 199.35 73.9496 199.916 73.6871L199.886 73.6482ZM198.753 80.4741C198.703 79.7546 198.674 79.0934 198.674 78.4808C198.674 77.8682 198.753 77.5862 198.922 77.6251C199.26 77.3918 199.499 77.3529 199.648 77.4987C199.797 77.6446 199.976 78.0919 200.175 78.8503C200.473 80.8436 200.573 82.0299 200.473 82.3897C200.304 82.9439 199.857 83.0606 199.121 82.73C198.882 82.5647 198.773 82.2341 198.773 81.7479C198.803 81.6215 198.803 81.1937 198.743 80.4741H198.753ZM201.964 77.2362C202.312 77.3626 202.621 77.5668 202.889 77.8293C203.356 78.3252 203.545 79.2684 203.446 80.6783C203.416 81.4951 203.346 82.0494 203.247 82.3216C203.148 82.5939 202.959 82.7689 202.69 82.837C202.392 83.0314 202.114 82.9147 201.865 82.4966C201.616 82.0785 201.567 81.6896 201.736 81.3687C201.905 81.1062 201.925 80.62 201.815 79.8907C201.696 79.1712 201.577 78.6947 201.438 78.4711C201.308 78.2766 201.219 78.0335 201.189 77.7613C201.159 77.4793 201.189 77.314 201.288 77.2459C201.388 77.1195 201.616 77.1195 201.964 77.2459V77.2362ZM208.795 64.8095C208.377 65.072 207.83 65.3054 207.164 65.5193C206.498 65.7332 206.061 65.918 205.862 66.0833C205.325 66.4139 204.778 66.5597 204.231 66.5208C203.684 66.482 203.237 66.2778 202.899 65.8791C202.77 65.6166 202.78 65.4026 202.949 65.2373C203.118 65.072 203.515 64.8776 204.152 64.6442C204.281 64.615 205.603 64.0511 208.119 62.9717C208.457 62.8453 208.745 62.8648 208.994 63.0495C209.242 63.2343 209.371 63.4677 209.371 63.7594C209.401 64.1872 209.212 64.5275 208.795 64.7901V64.8095ZM209.829 58.3725C209.799 58.6642 209.62 58.8879 209.302 59.0337C208.984 59.1796 208.337 59.3351 207.373 59.5004C206.369 59.6657 205.673 59.7338 205.285 59.6949C204.897 59.6657 204.559 59.5199 204.251 59.2574C203.545 58.6059 203.804 58.1294 205.007 57.8377C205.404 57.7405 205.961 57.6432 206.667 57.546C208.874 57.2543 209.928 57.5266 209.829 58.3822V58.3725ZM208.248 68.2905C208.059 68.4558 207.801 68.6309 207.443 68.8059C207.085 68.9809 206.816 69.1559 206.617 69.3212C206.11 69.6129 205.673 69.8171 205.285 69.9338C204.897 70.0505 204.589 70.0602 204.361 69.963C204.122 69.8657 204.013 69.681 204.013 69.4185C204.013 69.1559 204.182 68.9615 204.52 68.8253C204.718 68.7281 205.126 68.4169 205.752 67.8919C206.369 67.3668 206.796 67.0751 207.035 67.007C207.433 66.8806 207.811 66.8709 208.168 66.9779C208.526 67.0848 208.695 67.2793 208.695 67.5418C208.596 67.8724 208.457 68.1155 208.268 68.2808L208.248 68.2905ZM204.838 78.4614C205.017 77.9655 205.146 77.4307 205.216 76.8375C205.514 75.1067 205.852 74.0663 206.22 73.7454C206.488 73.551 206.886 73.4829 207.423 73.551L207.373 74.4358C207.343 74.9317 207.373 75.204 207.453 75.272C207.532 75.3401 207.761 75.2429 208.129 74.9803C208.864 74.4844 209.511 74.5428 210.057 75.1554C210.604 75.7679 210.704 76.5361 210.336 77.489C210.137 77.9849 210.018 78.2961 209.988 78.4225C209.918 78.685 209.57 79.1226 208.934 79.7449C208.298 80.3672 207.83 80.7464 207.532 80.8728C207.234 80.9992 206.747 81.0381 206.081 80.97C205.047 80.8728 204.52 80.5908 204.52 80.1338C204.549 79.5115 204.659 78.9573 204.848 78.4614H204.838ZM206.846 71.509C206.657 71.5285 206.508 71.5576 206.399 71.6063C206.279 71.6549 206.16 71.7327 206.021 71.8299C205.285 72.423 204.917 72.3744 204.917 71.6841C204.917 71.616 204.937 71.5576 204.967 71.4896C204.997 71.4215 205.066 71.3632 205.166 71.2951C205.265 71.227 205.365 71.1687 205.464 71.1201L205.812 70.9451C205.941 70.877 206.061 70.8187 206.16 70.77C206.26 70.7214 206.359 70.6825 206.458 70.6436C206.558 70.6047 206.627 70.595 206.657 70.595C206.886 70.4297 207.085 70.4103 207.234 70.5172C207.383 70.6242 207.453 70.7895 207.433 70.984C207.413 71.1784 207.353 71.3243 207.254 71.4215C207.154 71.4507 207.015 71.4799 206.826 71.4993L206.846 71.509ZM215.178 90.5186C215.357 90.5672 215.605 90.6741 215.904 90.8394C216.202 91.0728 216.52 91.3937 216.858 91.8215C217.196 92.2494 217.365 92.5702 217.365 92.8036C217.395 92.9689 217.455 93.1925 217.544 93.4648C217.624 93.7468 217.673 93.9413 217.693 94.0579C217.713 94.1746 217.723 94.3399 217.743 94.5538C217.763 94.7678 217.743 94.9817 217.713 95.1956C217.683 95.4095 217.624 95.6915 217.534 96.0318C217.455 96.3721 217.345 96.7903 217.206 97.2862C217.107 97.6459 216.997 97.9668 216.878 98.2391C216.759 98.521 216.689 98.7252 216.649 98.8516C216.52 99.3087 215.953 100.057 214.969 101.088C213.985 102.119 213.189 102.78 212.583 103.081C212.046 103.344 211.261 103.49 210.227 103.519C209.56 103.587 208.994 103.597 208.546 103.548C208.099 103.5 207.721 103.354 207.413 103.111C207.105 102.867 206.896 102.673 206.757 102.517C206.627 102.372 206.429 102.041 206.18 101.535C205.931 101.03 205.752 100.68 205.653 100.475C205.255 99.7559 205.265 99.2795 205.703 99.0558C206.071 98.8225 206.409 99.0364 206.707 99.6976C206.906 100.028 207.065 100.232 207.184 100.31C207.303 100.388 207.463 100.437 207.661 100.437C208.397 100.437 208.864 100.621 209.063 100.981C209.163 101.146 209.411 101.263 209.789 101.351C210.177 101.428 210.535 101.458 210.873 101.428C211.41 101.36 212.135 100.923 213.06 100.106C213.985 99.2892 214.522 98.6183 214.691 98.0932C215.665 96.1582 215.983 94.7191 215.645 93.776C215.476 93.1828 215.267 92.8133 215.019 92.648C214.77 92.4827 214.193 92.366 213.289 92.3077C212.722 92.2785 212.324 92.2494 212.106 92.2299C211.887 92.2105 211.658 92.1521 211.4 92.0354C211.141 91.9188 211.002 91.7632 210.952 91.5687C210.903 91.3742 210.873 91.0728 210.873 90.6839C210.903 90.3922 211.101 89.8185 211.479 88.9628C211.847 88.1071 212.185 87.4265 212.483 86.9014C212.712 86.5125 212.772 86.2985 212.633 86.2597C212.533 86.2305 212.285 86.2597 211.877 86.3374C211.469 86.4152 211.221 86.3763 211.121 86.211C210.724 85.9777 210.594 85.6762 210.744 85.3067C210.893 84.9372 211.27 84.6455 211.877 84.4511C213.05 84.0621 213.806 83.8579 214.134 83.8579C214.641 83.7315 214.999 83.9163 215.218 84.4219C215.436 84.9275 215.377 85.3262 215.039 85.6276C214.701 85.9193 214.213 86.7264 213.557 88.0391C212.901 89.3517 212.633 90.1199 212.732 90.3435C212.762 90.4408 213.199 90.4894 214.034 90.4894C214.601 90.4894 214.979 90.5186 215.168 90.5672L215.178 90.5186ZM208.149 78.1405C208.636 77.4015 208.825 76.9056 208.725 76.6431C208.596 76.2541 208.159 76.6625 207.423 77.8682C206.886 78.7822 206.757 79.2392 207.025 79.2392C207.294 79.2392 207.671 78.8698 208.158 78.1308L208.149 78.1405ZM215.904 64.7803C216.609 63.4579 217.206 62.3981 217.713 61.6105C217.842 61.484 218.011 61.0757 218.22 60.4047C218.419 59.7338 218.558 59.3449 218.618 59.2476C218.717 59.1212 218.906 59.0726 219.175 59.1212C219.443 59.1698 219.622 59.2962 219.731 59.4907C219.761 59.9186 219.801 60.2297 219.831 60.4242C219.861 60.6187 219.831 60.8909 219.702 61.2312C219.582 61.5716 219.483 61.8244 219.403 61.9702C219.324 62.1161 219.185 62.3592 219.006 62.7092C218.817 63.0495 218.677 63.3218 218.578 63.5163C218.111 64.4692 217.793 65.0234 217.624 65.1887C217.455 65.4513 217.385 65.6554 217.425 65.8013C217.455 65.9472 217.564 65.9958 217.753 65.9472C217.932 65.8985 218.111 65.7721 218.28 65.5777C218.817 65.0526 219.344 64.7706 219.861 64.722C220.378 64.6734 220.825 64.9262 221.193 65.4804C221.292 65.6457 221.233 65.8694 221.014 66.1416C220.795 66.4236 220.517 66.7056 220.189 66.9973C219.851 67.289 219.632 67.5029 219.533 67.6391C219.503 67.8335 219.363 68.028 219.135 68.2322C218.837 68.5239 218.747 68.7281 218.886 68.8253C218.916 68.8545 218.986 68.8448 219.085 68.7767C219.254 68.7086 219.572 68.4947 220.04 68.135C220.745 67.6099 221.282 67.5126 221.65 67.8432C222.088 68.1738 222.018 68.5822 221.451 69.0684C220.914 69.5935 220.517 69.9727 220.248 70.2255C219.98 70.4686 219.533 70.77 218.916 71.1298C218.3 71.4896 217.773 71.6354 217.335 71.5674C216.769 71.4993 216.431 71.227 216.331 70.7311C216.232 70.2352 216.401 69.681 216.838 69.0587C217.136 68.6017 217.276 68.3197 217.236 68.2225C217.206 68.1252 216.947 68.1058 216.48 68.1738C216.043 68.3003 215.675 68.2516 215.377 68.028C215.078 67.8044 214.889 67.5224 214.82 67.1918C214.85 66.9001 215.218 66.0833 215.923 64.7609L215.904 64.7803ZM216.53 72.5203C216.709 72.3939 216.957 72.4911 217.256 72.812C217.723 73.1426 217.972 73.8816 218.011 75.0484C218.041 76.2152 217.892 77.1487 217.564 77.8682C217.534 77.9363 217.455 78.3058 217.335 78.9962C217.216 79.6865 217.077 80.0463 216.908 80.0755C216.51 80.3672 216.152 80.4352 215.854 80.2699C215.556 80.1046 215.387 79.8324 215.347 79.4337C215.317 79.0448 215.377 78.6267 215.546 78.2086C215.675 77.8196 215.834 77.0514 216.023 75.9235C216.202 74.7956 216.301 73.9302 216.301 73.3468C216.271 72.9189 216.341 72.6467 216.53 72.5106V72.5203ZM220.527 74.6303C220.656 74.9901 220.696 75.4957 220.626 76.1569C220.557 76.9737 220.487 77.5376 220.397 77.8488C220.318 78.1599 220.139 78.3836 219.871 78.51C219.433 78.7725 219.095 78.7433 218.837 78.4322C218.578 78.121 218.528 77.7224 218.658 77.2265C218.727 77.032 218.787 76.5653 218.837 75.8263C218.886 75.0873 218.956 74.4261 219.035 73.833C219.115 73.2398 219.214 72.9676 219.314 72.9967C219.542 72.8023 219.761 72.7828 219.97 72.9481C220.179 73.1134 220.268 73.3857 220.268 73.7843C220.298 73.9788 220.388 74.2608 220.517 74.6206L220.527 74.6303ZM223.062 71.6549C223.281 71.6354 223.46 71.6841 223.589 71.7813C223.818 71.9077 223.947 72.4814 223.967 73.4732C223.987 74.4747 223.887 75.6415 223.688 76.9834C223.659 77.2167 223.39 77.6543 222.883 78.3058C222.376 78.9573 222.008 79.3559 221.779 79.4823C221.213 79.6476 220.865 79.6185 220.745 79.4045C220.626 79.1906 220.805 78.86 221.272 78.3933C221.67 77.8682 221.978 76.4583 222.177 74.1733C222.277 72.8314 222.406 72.0244 222.575 71.7618C222.674 71.6938 222.833 71.6549 223.052 71.6354L223.062 71.6549Z" fill="white"/>
<path d="M239.129 92.3563C238.88 92.6188 238.622 92.7161 238.353 92.648C238.224 92.7161 237.926 92.5994 237.478 92.3077C237.031 92.016 236.643 91.6562 236.325 91.2478C236.007 90.8394 235.927 90.5477 236.096 90.3921C236.196 89.8671 236.474 89.5365 236.922 89.4101C237.369 89.2837 237.866 89.4101 238.403 89.799C238.701 90.0324 238.97 90.3241 239.208 90.6839C239.437 91.0436 239.556 91.3353 239.556 91.5687C239.526 91.8312 239.377 92.0938 239.129 92.3563ZM236.991 82.0882C236.792 81.7285 236.683 81.2715 236.663 80.7172C236.643 80.163 236.663 79.6282 236.743 79.1225C236.812 78.6169 236.892 78.1016 236.991 77.5765C237.389 74.6011 237.717 72.5592 237.966 71.4604C238.214 70.3616 238.492 69.7199 238.791 69.5157C239.427 69.1267 239.974 69.224 240.451 69.8074C240.918 70.4005 241.087 71.0715 240.958 71.8202C240.859 72.3161 240.779 72.88 240.729 73.5412C240.68 74.2024 240.6 74.7956 240.501 75.3304C240.401 75.8652 240.232 76.4875 239.994 77.1681C239.487 78.6753 239.188 79.8226 239.089 80.6103C238.92 81.9813 238.522 82.6716 237.886 82.6716C237.488 82.6425 237.18 82.4383 236.981 82.0785L236.991 82.0882Z" fill="white"/>
</svg>
