<svg width="327" height="39" viewBox="0 0 327 39" fill="none" xmlns="http://www.w3.org/2000/svg">
<g clip-path="url(#clip0_360_1774)">
<path d="M5.9023 20.3141C8.13811 19.2789 9.64195 18.6683 10.4271 18.4891C10.66 18.4095 11.0926 18.2502 11.7314 18.0047C12.3702 17.7591 12.9424 17.5733 13.4681 17.4406C13.9871 17.3145 14.6392 17.2083 15.4178 17.1287C15.99 17.0491 16.6089 16.923 17.2677 16.7371C17.9331 16.558 18.7848 16.412 19.8229 16.3124C20.0291 16.2859 20.2155 16.2527 20.3685 16.2129L20.6812 16.1332C20.7345 16.12 20.821 16.12 20.9541 16.1332C21.0872 16.1465 21.2668 16.193 21.4997 16.2726C21.706 16.4252 21.8657 16.5513 21.9655 16.6442C22.0653 16.7371 22.1651 16.9031 22.2583 17.1486C22.3515 17.3941 22.3781 17.6729 22.3581 17.9848C22.3581 18.5289 22.2383 19.02 22.0054 19.4647C21.7992 19.8562 21.4931 20.2743 21.0872 20.7256C20.6812 21.1768 20.3818 21.4423 20.1689 21.5219C19.9626 21.6281 19.763 21.7542 19.5833 21.9135C19.4303 22.0196 19.1175 22.0993 18.665 22.1656C18.2125 22.232 17.9464 22.2121 17.8665 22.1059C17.7334 21.8737 17.9464 21.6016 18.512 21.2897C19.0709 20.9777 19.5966 20.5198 20.089 19.9093C20.5814 19.2988 20.8276 18.8143 20.8276 18.4493C20.8276 18.1905 20.7544 18.018 20.6147 17.925C20.475 17.8321 20.1822 17.799 19.7364 17.8255C18.512 17.9317 17.088 18.1374 15.4644 18.4493C13.8407 18.7612 12.6097 19.0997 11.7779 19.458C11.3854 19.6107 10.8464 19.8031 10.161 20.0221C9.46895 20.2411 8.87007 20.4601 8.35104 20.6857C7.83202 20.9047 7.1666 21.2233 6.36144 21.6414C5.8158 21.9267 5.25685 22.2055 4.68459 22.4776C4.11233 22.7496 3.69311 22.9421 3.42029 23.0615C3.14747 23.181 2.82807 23.3668 2.46209 23.6256C2.09611 23.8845 1.71016 24.2096 1.29095 24.5945C1.05805 24.8534 0.858429 24.9861 0.68542 24.9861C0.512411 24.9861 0.339402 24.86 0.159739 24.5945C0.0798888 24.5414 0.0266553 24.4286 0.0066927 24.2428C-0.019924 24.0636 -0.0132699 23.8314 0.0266553 23.546C0.0665804 23.2606 0.106505 23.0151 0.146431 22.8094C0.186356 22.6036 0.246243 22.3316 0.339402 21.9931C0.432561 21.6547 0.485794 21.4489 0.512411 21.3693C0.612224 21.1636 0.68542 20.7322 0.725345 20.0885C0.76527 19.4381 0.825158 18.8608 0.918316 18.3564C1.01147 17.852 1.18448 17.5866 1.444 17.56C1.57708 17.5335 1.72347 17.5932 1.88983 17.7326C2.05618 17.8786 2.19592 18.0511 2.30239 18.2569C2.45543 18.6484 2.39555 19.3718 2.10942 20.4336C1.8499 21.4954 1.77005 22.0661 1.87652 22.1457C2.3157 21.9666 3.65319 21.356 5.89565 20.3208L5.9023 20.3141ZM11.9842 25.9152C12.1905 25.7625 12.3901 25.59 12.5698 25.4108C12.9358 25.0458 13.2485 24.8268 13.508 24.7472C13.7675 24.6675 13.9871 24.7472 14.1735 24.9595C14.3531 25.1785 14.4995 25.4241 14.5993 25.6962C14.6991 25.9683 14.7923 26.3266 14.8721 26.7646C14.9254 27.1562 14.8721 27.5278 14.6991 27.8928C14.5261 28.2578 14.3198 28.4834 14.0736 28.5763C13.8274 28.6692 13.5879 28.6095 13.355 28.4038C13.2019 28.2777 13.1487 28.1184 13.2019 27.9392C13.3018 27.6273 13.355 27.3951 13.355 27.2424C13.355 27.0898 13.3284 26.9902 13.2751 26.9504C13.2219 26.9106 13.1354 26.9172 13.0223 26.9703C12.9025 27.0234 12.8027 27.0832 12.7095 27.1429C12.6164 27.2092 12.4966 27.3022 12.3369 27.4349C12.2571 27.5145 12.1972 27.5676 12.1639 27.5875C12.124 27.6141 12.0774 27.6472 12.0242 27.6871C11.9709 27.7269 11.931 27.7601 11.9044 27.7866C11.6981 27.8397 11.5584 27.9923 11.4918 28.2511C11.4253 28.51 11.3854 28.8285 11.372 29.2068C11.3587 29.585 11.3388 29.8505 11.3122 30.0031C11.2589 30.3947 11.2722 30.6137 11.3521 30.6668C11.4319 30.6933 11.6316 30.6668 11.9576 30.5672C12.2837 30.4743 12.5898 30.3549 12.8759 30.1956C13.2685 29.9899 13.6078 29.9368 13.9073 30.0429C14.2067 30.1491 14.3198 30.3549 14.24 30.6668C14.1335 31.0583 13.8341 31.3304 13.3417 31.483C12.8759 31.6357 12.3768 31.8679 11.8578 32.1666C11.3388 32.4652 11.0393 32.6908 10.9595 32.8501C10.8264 33.1886 10.7465 33.6066 10.7066 34.111C10.6667 34.6154 10.7066 35.0268 10.8064 35.3387H11.5451C12.5299 35.2856 13.5746 35.1927 14.6858 35.0467C15.7904 34.9074 16.9815 34.8344 18.2525 34.8344C19.7364 34.8078 21.0339 34.7149 22.1518 34.5623C23.2697 34.4096 24.5407 34.3035 25.9713 34.2504C27.3221 34.1707 28.0874 34.184 28.2737 34.2902C28.4533 34.3964 28.5465 34.5822 28.5465 34.8543C28.5465 35.1264 28.4666 35.3387 28.3136 35.498C28.1339 35.6772 27.9144 35.79 27.6681 35.8298C27.4219 35.8696 26.9628 35.863 26.2841 35.8099C24.9599 35.7834 23.669 35.8696 22.4246 36.0621C21.1803 36.2545 19.7563 36.3806 18.1726 36.4337C11.9576 36.6394 7.26641 37.1571 4.09902 37.9866C3.37371 38.1923 2.86799 38.1724 2.59517 37.9269C2.32235 37.6813 2.36893 37.2699 2.73491 36.6992C2.91457 36.4934 3.16078 36.3408 3.47352 36.2545C3.78627 36.1683 4.51158 36.0687 5.6561 35.9625C7.42611 35.7834 8.49078 35.6374 8.85011 35.5378C8.94992 35.3852 8.98984 35.2458 8.96988 35.1264C8.94326 35.0069 8.88338 34.8476 8.79687 34.6419C8.70371 34.4362 8.65713 34.2636 8.65713 34.1375C8.63052 33.9053 8.59725 33.7659 8.55732 33.7261C8.5174 33.6863 8.38431 33.6531 8.14476 33.6266C7.54589 33.5469 7.33961 33.2018 7.51927 32.578C7.5725 32.3457 7.65901 32.1798 7.77213 32.0936C7.8919 32.0007 8.11815 31.9343 8.45751 31.8812C8.97654 31.775 9.33586 31.5892 9.52883 31.3171C9.7218 31.045 9.80831 30.6004 9.78169 29.9766C9.78169 29.4855 9.73511 29.1603 9.64195 29.0077C9.5488 28.855 9.36248 28.7754 9.07635 28.7754C8.63052 28.7754 8.3577 28.583 8.25788 28.1914C8.10484 28.0122 8.14476 27.7202 8.39762 27.3154C8.64383 26.9172 8.94992 26.4925 9.3159 26.0545C9.68188 25.6165 9.88816 25.3444 9.94139 25.2383C9.99463 25.1586 10.0745 25.0524 10.1743 24.9064C10.2741 24.7671 10.3739 24.641 10.4671 24.5348C10.5602 24.4286 10.6201 24.3291 10.66 24.2229C10.7 24.1167 10.6867 24.057 10.6201 24.0304C10.5536 24.0039 10.4205 24.0172 10.2076 24.0703C10.0013 24.1234 9.68853 24.2163 9.26932 24.3424C8.61721 24.5746 8.14476 24.6543 7.84532 24.5746C7.54589 24.495 7.44607 24.1831 7.55254 23.6389C7.63239 23.4863 7.89856 23.3071 8.35104 23.1146C8.80353 22.9222 9.2427 22.7961 9.65526 22.743C9.83493 22.743 10.1011 22.6833 10.4538 22.5705C10.8064 22.4576 11.0992 22.3316 11.3521 22.1988C11.5983 22.0727 11.9376 21.8936 12.3635 21.6746C12.7894 21.4556 13.0556 21.3162 13.162 21.2631C13.7343 21.137 14.0803 21.2233 14.2134 21.5352C14.2932 21.794 14.2533 22.0595 14.0936 22.3316C13.9339 22.6036 13.5746 23.035 13.0023 23.6323C12.5099 24.1499 11.9909 24.7538 11.4452 25.4373C10.8996 26.1275 10.6268 26.5191 10.6268 26.6252C10.6268 26.8575 11.0659 26.6252 11.951 25.9284L11.9842 25.9152ZM12.0242 3.94234C13.1953 3.8627 13.7276 3.60389 13.6212 3.16589V2.77435L14.9054 2.73453C15.7638 2.73453 16.3228 2.69471 16.5823 2.61508C17.0214 2.40935 17.3342 2.41599 17.5205 2.63498C17.7002 2.85398 17.7534 3.13271 17.6736 3.47116C17.5937 3.80961 17.454 4.05516 17.2477 4.20779C17.1412 4.23434 16.8218 4.27415 16.2762 4.32724C15.6773 4.38033 14.7856 4.61924 13.6078 5.04397C12.4234 5.46869 11.7779 5.8005 11.6781 6.03278C11.4186 6.49732 11.1192 7.26713 10.7798 8.32894C10.7266 8.50812 10.9196 8.52139 11.3654 8.36876C12.3236 8.0834 12.796 7.94403 12.7694 7.94403C13.0289 7.8644 13.2485 7.89758 13.4348 8.04358C13.6145 8.18958 13.681 8.37539 13.6278 8.60766C13.548 8.91957 13.375 9.19166 13.1021 9.42393C12.8293 9.6562 12.5498 9.76238 12.2637 9.73584C12.0574 9.70929 11.5717 9.88184 10.8197 10.2402C10.0944 10.6052 9.1562 10.9768 8.01168 11.3684C6.86716 11.7599 6.10193 11.9524 5.70933 11.9524C5.39658 11.9524 5.24354 11.7599 5.24354 11.3684C5.24354 10.718 6.12854 10.2004 7.8919 9.81547C8.09818 9.76238 8.26454 9.66947 8.37766 9.52347C8.49743 9.38411 8.8368 8.89303 9.40906 8.06349C9.58872 7.77812 9.74177 7.46622 9.85489 7.12777C9.97466 6.78931 10.0146 6.58359 9.99463 6.50395C9.94139 6.42432 9.73511 6.43759 9.36913 6.54377C9.00315 6.64995 8.62386 6.75613 8.21796 6.87559C7.81205 6.99504 7.5725 7.03486 7.49931 7.01495C7.18656 7.06804 6.19509 7.32686 4.53819 7.7914C3.81289 7.99712 3.38037 8.06349 3.25394 7.98385C3.04766 7.87767 2.91457 7.63876 2.86134 7.26713C2.80811 6.88886 2.87465 6.61013 3.05431 6.43095C3.23397 6.30486 3.58664 6.22523 4.10567 6.19868C4.6247 6.17214 5.00399 6.10578 5.23688 6.00623C8.37766 5.32933 10.0944 4.85151 10.3806 4.56615C10.4604 4.48652 10.5003 4.38033 10.5203 4.23434C10.5336 4.09497 10.5203 3.73661 10.4604 3.16589C10.3273 1.89835 10.2674 1.12854 10.2674 0.869726C10.2674 0.61091 10.3473 0.418457 10.5003 0.285731C10.8131 -0.0527209 11.1391 -0.0925388 11.4719 0.166277C11.6781 0.345458 11.8378 1.22809 11.9376 2.80753L12.0175 3.9357L12.0242 3.94234ZM8.26454 11.9723C8.61721 12.1183 8.80353 12.4169 8.83014 12.8881C8.85676 13.0407 8.88338 13.1602 8.90999 13.2398C8.93661 13.3194 8.97654 13.3526 9.02977 13.3394C9.083 13.3261 9.12958 13.2995 9.18282 13.2597C9.23605 13.2199 9.32255 13.1602 9.43567 13.0872C9.5488 13.0142 9.66192 12.9478 9.76838 12.8947C9.8682 12.8682 10.0612 12.7686 10.334 12.5828C10.6068 12.4036 10.853 12.2444 11.0726 12.1183C11.2922 11.9922 11.565 11.8528 11.8911 11.7068C12.2171 11.5675 12.4766 11.5011 12.6696 11.5144C12.8626 11.5276 13.0622 11.6006 13.2751 11.7267C13.4548 11.8794 13.508 12.1581 13.4282 12.5629C13.3483 12.9677 13.1687 13.3593 12.8825 13.7508L12.6496 14.1025C12.989 14.3348 13.1953 14.5273 13.2751 14.6865C13.3018 15.025 13.2419 15.2904 13.1021 15.4829C12.9624 15.6753 12.6763 15.9076 12.2437 16.1664C11.8179 16.4252 11.5384 16.6044 11.4053 16.7106C10.0545 17.6729 9.12958 18.1109 8.63717 18.0312C8.48413 18.0047 8.35104 17.9383 8.24458 17.8388C8.13811 17.7326 8.0383 17.6065 7.93183 17.4472C7.82536 17.2946 7.73886 17.1751 7.65901 17.0955C7.47934 16.8898 7.38619 16.5911 7.38619 16.1996C7.43942 14.9321 7.39949 14.149 7.26641 13.8636C7.03351 13.2929 7.07344 12.7753 7.38619 12.3107C7.61908 11.9457 7.91187 11.8395 8.26454 11.9789V11.9723ZM10.3473 13.9764C10.1676 14.0561 9.91478 14.2751 9.58872 14.6401C9.26267 15.0051 9.08966 15.2639 9.06304 15.4165C9.00981 15.6488 9.03642 15.7682 9.14289 15.7682C9.22274 15.7682 9.51553 15.4895 10.0212 14.9321C10.527 14.3746 10.7798 14.0561 10.7798 13.9764C10.7798 13.8703 10.6401 13.8703 10.354 13.9764H10.3473Z" fill="#383838"/>
<path d="M34.7551 21.4753C34.622 21.6081 34.4157 21.7607 34.1296 21.9399C33.3244 22.4575 32.7389 22.5902 32.3729 22.3314C32.2398 22.2252 32.1666 22.0129 32.14 21.6877C32.1134 21.3625 32.1666 21.0772 32.293 20.8316C32.4261 20.5861 32.6191 20.5131 32.8786 20.6192C33.1381 20.6723 33.3777 20.6524 33.5973 20.5595C33.8168 20.4666 34.063 20.3206 34.3359 20.1149C34.6087 19.9092 34.8083 19.7764 34.9414 19.7233C35.0944 19.6437 35.4005 19.4181 35.8597 19.0398C36.3122 18.6615 36.6049 18.4492 36.738 18.3961C37.5166 17.9315 37.989 17.8652 38.1421 18.2036C38.375 18.6217 38.2951 18.9137 37.9092 19.0995C37.7295 19.1526 37.3103 19.4712 36.6582 20.0552C36.0061 20.6392 35.5802 20.971 35.3739 21.044C35.0878 21.1966 34.8815 21.3426 34.7484 21.4687L34.7551 21.4753ZM38.6145 23.8246C38.7676 23.7317 38.9805 23.7914 39.24 23.9971C39.3931 24.2294 39.3731 24.7537 39.1602 25.5699C38.9539 26.3862 38.7343 27.0299 38.4947 27.4945C38.3151 27.8329 38.1088 28.2178 37.8892 28.6625C37.6696 29.1004 37.5432 29.3593 37.5166 29.419C37.49 29.4854 37.3502 29.6778 37.0907 30.003C36.8312 30.3282 36.5916 30.6069 36.372 30.8392C36.1525 31.0714 35.7399 31.5293 35.141 32.1996C34.775 32.5911 34.5022 32.8101 34.3226 32.8632C34.0364 32.9429 33.7836 32.85 33.564 32.5911C33.3444 32.3323 33.2579 32.0337 33.3111 31.6952C33.3377 31.5161 33.3843 31.3966 33.4509 31.3435C33.5174 31.2904 33.6638 31.2373 33.8967 31.1909C34.103 31.0847 34.3425 30.8524 34.6153 30.4941C34.8882 30.1291 35.1144 29.8703 35.3007 29.7176C35.7133 29.2796 36.2789 28.4435 36.9975 27.2091C37.7095 25.9814 38.162 25.0523 38.3417 24.4285C38.3683 24.1166 38.4615 23.9175 38.6145 23.8246ZM35.0678 8.87298C35.1743 8.92607 35.4405 9.09197 35.8663 9.37734C36.2922 9.6627 36.5717 9.82861 36.7048 9.8817C37.5365 10.2201 38.0356 10.4591 38.2086 10.5984C38.375 10.7444 38.4615 10.9701 38.4615 11.282C38.4881 11.5939 38.3683 11.773 38.1088 11.8261C37.8493 11.8792 37.4966 11.7996 37.0574 11.5939C36.4319 11.2554 35.6135 10.9833 34.602 10.7776C34.1895 10.6714 33.9366 10.5586 33.8634 10.4259C33.7836 10.2998 33.8501 10.1272 34.0564 9.92151C34.449 9.32425 34.7817 8.97252 35.0678 8.87298ZM43.2525 16.6507C43.4854 16.3919 43.685 16.3986 43.858 16.6706C44.0244 16.9427 44.1907 17.3675 44.3438 17.9315C44.397 18.1904 44.397 18.8208 44.3438 19.8163C44.2905 20.8117 44.224 21.4023 44.1508 21.5881C44.0443 21.847 43.838 21.993 43.5253 22.0129C43.2126 22.0394 43.0196 21.9332 42.9397 21.701C42.8066 20.4334 42.9131 18.7478 43.2525 16.6441V16.6507ZM46.0605 13.2662C46.2668 13.1401 46.4398 12.9875 46.5663 12.8216C46.6993 12.6557 46.8923 12.4898 47.1518 12.3371C47.4113 12.1845 47.6176 12.1049 47.7773 12.1049C47.9836 12.1049 48.1433 12.2442 48.2431 12.5163C48.3496 12.7884 48.3363 13.0406 48.2032 13.2729C48.0701 13.4786 47.957 13.6378 47.8505 13.7374C47.7441 13.8436 47.6043 13.9498 47.4246 14.0692C47.245 14.1887 47.1252 14.2683 47.072 14.3214C46.7326 14.6864 46.2735 14.912 45.6879 15.0049C45.1023 15.0978 44.6299 14.9319 44.2639 14.5205C44.0576 14.2882 43.9645 14.0493 43.9911 13.8038C44.0177 13.5582 44.1708 13.087 44.4569 12.3836C44.7696 11.7067 44.8961 11.3483 44.8495 11.2952C44.7962 11.2687 44.5767 11.3085 44.1841 11.4147C43.665 11.647 43.2857 11.6071 43.0528 11.2952C42.82 10.9833 42.8466 10.6316 43.1327 10.2467C44.1708 8.72034 44.743 7.59217 44.8495 6.86217C44.9027 6.39763 44.9693 6.12554 45.0425 6.04591C45.1157 5.96627 45.3419 5.89327 45.7079 5.81364C45.841 5.84018 45.9142 5.88664 45.9408 5.953C45.9674 6.01936 45.9807 6.21845 45.9807 6.5569C46.0339 6.81572 46.014 7.10772 45.9208 7.4329C45.8276 7.75808 45.6813 8.14298 45.475 8.60089C45.2687 9.05216 45.1356 9.34415 45.0824 9.47688C45.1356 9.50343 45.3153 9.46361 45.628 9.35743C46.5396 9.04552 47.072 9.20479 47.225 9.82197C47.3049 10.1604 47.1052 10.5586 46.6395 11.0298C46.4598 11.209 46.2069 11.5872 45.8809 12.158C45.5548 12.7287 45.3951 13.0937 45.3951 13.2463C45.3951 13.4786 45.6147 13.4918 46.0605 13.2861V13.2662ZM45.1822 18.6682C45.1423 18.0974 45.1223 17.5732 45.1223 17.0954C45.1223 16.6176 45.1888 16.3919 45.3153 16.4118C45.5748 16.2326 45.7611 16.1995 45.8809 16.3123C46.0007 16.4251 46.1337 16.7835 46.2934 17.3807C46.5263 18.9602 46.6062 19.8959 46.5263 20.1812C46.3933 20.6192 46.0472 20.7122 45.475 20.4533C45.2953 20.3272 45.2022 20.0618 45.2022 19.6769C45.2288 19.5707 45.2221 19.2389 45.1822 18.6682ZM47.6775 16.0999C47.9503 16.2061 48.1899 16.3587 48.3962 16.5645C48.7621 16.956 48.9019 17.7059 48.822 18.8208C48.7954 19.4712 48.7422 19.9025 48.669 20.1215C48.5891 20.3405 48.4494 20.4799 48.2431 20.533C48.0102 20.6856 47.7973 20.5993 47.5977 20.2609C47.4047 19.9224 47.3714 19.6238 47.4978 19.365C47.6309 19.1593 47.6442 18.7677 47.5577 18.197C47.4646 17.6263 47.3714 17.248 47.265 17.0688C47.1585 16.9162 47.0986 16.7237 47.072 16.5047C47.0454 16.2857 47.072 16.1464 47.1518 16.0933C47.2317 15.9871 47.4047 15.9871 47.6775 16.0933V16.0999ZM52.9809 6.26491C52.6548 6.47063 52.2356 6.66309 51.7166 6.82899C51.1976 6.9949 50.8582 7.14754 50.7052 7.27363C50.2926 7.53244 49.8667 7.6519 49.4409 7.62535C49.015 7.5988 48.669 7.4329 48.4095 7.12099C48.303 6.91526 48.3163 6.74272 48.4494 6.61663C48.5825 6.49054 48.8886 6.33127 49.3876 6.15209C49.4941 6.12554 50.5188 5.68755 52.4685 4.83146C52.728 4.72528 52.9543 4.74519 53.1539 4.89119C53.3469 5.03719 53.4467 5.22301 53.4467 5.45528C53.4733 5.79373 53.3203 6.06582 53.0009 6.27154L52.9809 6.26491ZM53.7794 1.16822C53.7528 1.40049 53.6197 1.57967 53.3668 1.69249C53.1206 1.81194 52.6216 1.9314 51.863 2.06412C51.0845 2.19685 50.5455 2.2433 50.246 2.21676C49.9466 2.19021 49.6804 2.0774 49.4475 1.86503C48.9019 1.3474 49.0949 0.969131 50.0331 0.736861C50.3458 0.657225 50.7717 0.584225 51.3174 0.50459C53.0341 0.272319 53.8526 0.491317 53.7727 1.16822H53.7794ZM52.5484 9.02561C52.4086 9.15834 52.1957 9.29106 51.9229 9.43706C51.6501 9.58306 51.4371 9.71579 51.2774 9.84851C50.8848 10.0808 50.5455 10.2467 50.246 10.333C49.9466 10.4259 49.707 10.4325 49.5274 10.3529C49.3477 10.2732 49.2546 10.1339 49.2546 9.92815C49.2546 9.72242 49.3876 9.56315 49.6472 9.46361C49.8002 9.38397 50.1196 9.13843 50.6054 8.72698C51.0845 8.31553 51.4172 8.07662 51.5968 8.03017C51.9096 7.92398 52.2024 7.91735 52.4752 8.01026C52.748 8.10316 52.8877 8.24916 52.8877 8.45489C52.8079 8.7137 52.7014 8.90616 52.555 9.03888L52.5484 9.02561ZM49.9 17.0755C50.0397 16.6839 50.1396 16.2592 50.1928 15.7946C50.4257 14.4209 50.6852 13.6047 50.9713 13.3459C51.1776 13.1932 51.4904 13.1401 51.9096 13.1932L51.8696 13.89C51.843 14.2816 51.8696 14.5006 51.9295 14.5537C51.9961 14.6067 52.1691 14.5271 52.4552 14.3214C53.0275 13.9298 53.5265 13.9763 53.9591 14.4608C54.3849 14.9386 54.4581 15.5557 54.172 16.3056C54.019 16.6972 53.9258 16.9427 53.8992 17.0423C53.8459 17.248 53.5731 17.5997 53.0807 18.0908C52.5883 18.5819 52.2223 18.8805 51.9894 18.9867C51.7565 19.0929 51.3772 19.1194 50.8582 19.0663C50.0531 18.9867 49.6472 18.7677 49.6472 18.4027C49.6738 17.9116 49.7603 17.467 49.9 17.0821V17.0755ZM51.4571 11.574C51.3174 11.5872 51.1976 11.6138 51.1044 11.6536C51.0113 11.6934 50.9181 11.7531 50.8116 11.8261C50.2394 12.2907 49.9532 12.2509 49.9532 11.7067C49.9532 11.6536 49.9665 11.6005 49.9932 11.554C50.0198 11.501 50.073 11.4479 50.1462 11.4014C50.2261 11.3483 50.2993 11.3019 50.3791 11.262C50.459 11.2222 50.5455 11.1758 50.6519 11.1227L50.9248 10.9833C51.0046 10.9435 51.0778 10.9103 51.1576 10.8838C51.2375 10.8572 51.2907 10.844 51.3107 10.844C51.4904 10.7179 51.6434 10.698 51.7565 10.7842C51.8763 10.8771 51.9229 10.9966 51.9096 11.1559C51.8963 11.3085 51.8497 11.428 51.7698 11.5076C51.69 11.5341 51.5835 11.554 51.4371 11.5673L51.4571 11.574ZM57.9316 26.6251C58.0713 26.6649 58.2643 26.7512 58.4972 26.8773C58.7301 27.0565 58.9763 27.3153 59.2358 27.6537C59.4953 27.9922 59.6284 28.251 59.6284 28.4302C59.655 28.5629 59.7016 28.7355 59.7682 28.9545C59.8347 29.1734 59.8746 29.3327 59.8879 29.419C59.9013 29.5119 59.9146 29.638 59.9279 29.8105C59.9412 29.9764 59.9279 30.149 59.9079 30.3149C59.8813 30.4808 59.8347 30.7064 59.7682 30.9785C59.7016 31.2506 59.6151 31.5824 59.5153 31.9673C59.4355 32.2527 59.3556 32.5049 59.2624 32.7239C59.1693 32.9429 59.1094 33.1088 59.0894 33.2083C58.983 33.5733 58.5505 34.164 57.7852 34.9802C57.02 35.7965 56.4011 36.3208 55.9354 36.553C55.5228 36.7588 54.9106 36.8782 54.1055 36.9048C53.5864 36.9578 53.1473 36.9645 52.8012 36.9247C52.4552 36.8848 52.1558 36.772 51.9229 36.5729C51.69 36.3738 51.517 36.2212 51.4172 36.1084C51.3107 35.9889 51.1643 35.7301 50.9713 35.3319C50.7784 34.9338 50.6386 34.6484 50.5588 34.4958C50.246 33.925 50.2593 33.5468 50.5987 33.3676C50.8848 33.1884 51.1443 33.3543 51.3772 33.872C51.5303 34.1308 51.6567 34.29 51.7499 34.3564C51.843 34.4228 51.9628 34.456 52.1225 34.456C52.6948 34.456 53.0607 34.5953 53.2138 34.8807C53.2936 35.0134 53.48 35.1063 53.7794 35.1727C54.0788 35.239 54.3583 35.2589 54.6178 35.2324C55.0304 35.1793 55.596 34.8276 56.3146 34.1839C57.0266 33.5335 57.4525 33.0026 57.5789 32.5911C58.3309 31.0648 58.5771 29.9234 58.3176 29.1668C58.1845 28.7023 58.0248 28.4036 57.8318 28.2709C57.6388 28.1448 57.1863 28.0519 56.4877 27.9988C56.0418 27.9723 55.7424 27.9524 55.5694 27.9391C55.403 27.9258 55.2167 27.8727 55.0237 27.7865C54.8308 27.6936 54.711 27.5741 54.6711 27.4148C54.6311 27.2556 54.6112 27.0233 54.6112 26.718C54.6378 26.4857 54.7908 26.0345 55.077 25.3576C55.3631 24.6807 55.6226 24.1365 55.8555 23.725C56.0352 23.4131 56.0751 23.2472 55.9753 23.2207C55.8954 23.1941 55.7025 23.2207 55.3897 23.2804C55.077 23.3468 54.884 23.3136 54.8041 23.1809C54.4914 23.0017 54.3916 22.7628 54.5114 22.4641C54.6311 22.1655 54.9239 21.9399 55.3897 21.7806C56.3013 21.4687 56.8869 21.3161 57.1464 21.3161C57.539 21.2099 57.8118 21.3625 57.9848 21.7607C58.1512 22.1655 58.1046 22.4774 57.8451 22.7163C57.5856 22.9486 57.1997 23.5857 56.6939 24.6209C56.1882 25.6562 55.9753 26.2667 56.0485 26.4459C56.0751 26.5256 56.4145 26.5654 57.0599 26.5654C57.4991 26.5654 57.7919 26.5853 57.9383 26.6251H57.9316ZM52.4752 16.8233C52.8545 16.2393 53.0009 15.8477 52.921 15.6354C52.8145 15.3235 52.4752 15.6487 51.9096 16.6043C51.497 17.3276 51.3905 17.6926 51.5968 17.6926C51.8031 17.6926 52.0959 17.4006 52.4752 16.8166V16.8233ZM58.4972 6.245C59.0429 5.19646 59.5087 4.36029 59.9013 3.73647C60.0077 3.63029 60.1341 3.31839 60.2938 2.78084C60.4469 2.24994 60.5534 1.94467 60.6066 1.86503C60.6864 1.75885 60.8262 1.72567 61.0325 1.76549C61.2387 1.80531 61.3851 1.90485 61.4583 2.05749C61.4849 2.39594 61.5116 2.64148 61.5382 2.79412C61.5648 2.94675 61.5382 3.16575 61.4384 3.43784C61.3452 3.70993 61.272 3.90238 61.2055 4.02183C61.1389 4.14129 61.0391 4.33374 60.8927 4.60583C60.753 4.87792 60.6399 5.09028 60.56 5.24955C60.194 5.99945 59.9478 6.44409 59.8214 6.57018C59.6883 6.7759 59.6417 6.94181 59.6684 7.05463C59.695 7.17408 59.7815 7.20726 59.9212 7.17408C60.061 7.13426 60.2007 7.03472 60.3338 6.88208C60.7463 6.47063 61.1589 6.23836 61.5648 6.19854C61.9707 6.15873 62.3101 6.35781 62.5962 6.80245C62.676 6.93517 62.6295 7.10772 62.4565 7.32672C62.2901 7.54571 62.0705 7.77135 61.811 8.01026C61.5515 8.24253 61.3851 8.41507 61.3053 8.51462C61.2787 8.66725 61.1722 8.82652 60.9925 8.97916C60.7596 9.21143 60.6931 9.3707 60.7996 9.4437C60.8262 9.47024 60.8794 9.45697 60.9526 9.40388C61.0857 9.35079 61.3319 9.18488 61.6912 8.89952C62.2369 8.48807 62.6494 8.40844 62.9422 8.66725C63.2816 8.92607 63.2283 9.25125 62.7892 9.63615C62.3766 10.0542 62.0639 10.3529 61.8509 10.552C61.6446 10.7444 61.2986 10.9833 60.8195 11.2687C60.3404 11.554 59.9279 11.6735 59.5885 11.6204C59.1427 11.5673 58.8898 11.3483 58.81 10.9568C58.7301 10.5652 58.8632 10.1272 59.2026 9.63615C59.4355 9.27116 59.5419 9.05216 59.5153 8.97252C59.4887 8.89289 59.2957 8.87961 58.9297 8.9327C58.5904 9.03888 58.3042 8.99907 58.0713 8.81325C57.8385 8.63407 57.6921 8.41507 57.6455 8.14962C57.6721 7.91735 57.9582 7.27363 58.5039 6.22509L58.4972 6.245ZM58.983 12.3703C59.1227 12.2641 59.3157 12.3438 59.5486 12.6026C59.9146 12.8614 60.1075 13.452 60.1342 14.3745C60.1608 15.2969 60.041 16.0402 59.7815 16.6109C59.7549 16.664 59.695 16.9626 59.6085 17.5068C59.5153 18.051 59.4088 18.3364 59.2758 18.3629C58.963 18.5952 58.6902 18.6483 58.4573 18.5155C58.2244 18.3894 58.0913 18.1638 58.0647 17.8519C58.0381 17.54 58.0913 17.2148 58.2177 16.883C58.3242 16.5711 58.444 15.9672 58.5904 15.0779C58.7301 14.182 58.8033 13.5051 58.8033 13.0339C58.7767 12.6955 58.8366 12.4765 58.9763 12.3703H58.983ZM62.0838 14.0427C62.1903 14.328 62.2169 14.7328 62.1637 15.2505C62.1104 15.9008 62.0506 16.3455 61.9907 16.591C61.9241 16.8365 61.791 17.0157 61.5781 17.1153C61.2387 17.321 60.9726 17.3011 60.7796 17.0555C60.5866 16.81 60.5401 16.4915 60.6399 16.0999C60.6931 15.9473 60.7397 15.5757 60.7796 14.9917C60.8195 14.4077 60.8728 13.8834 60.9327 13.4188C60.9992 12.9543 61.0724 12.7353 61.1456 12.7552C61.3252 12.6026 61.4983 12.5893 61.6513 12.7154C61.8044 12.8481 61.8842 13.0671 61.8842 13.379C61.9108 13.5317 61.9774 13.7573 62.0772 14.0427H62.0838ZM64.0535 11.6934C64.2198 11.6801 64.3596 11.7133 64.466 11.793C64.6457 11.8991 64.7455 12.3438 64.7588 13.1335C64.7721 13.9232 64.6989 14.8523 64.5459 15.9141C64.5193 16.0933 64.313 16.445 63.9204 16.9626C63.5278 17.4803 63.2417 17.7922 63.062 17.8984C62.6162 18.0311 62.3566 18.0112 62.2635 17.8386C62.1703 17.6727 62.3101 17.4073 62.676 17.0423C62.9888 16.6308 63.2217 15.5159 63.3747 13.6976C63.4546 12.6358 63.5544 11.9987 63.6875 11.793C63.7673 11.7399 63.8871 11.7067 64.0601 11.6934H64.0535Z" fill="#383838"/>
<path d="M79.1514 16.4646C79.2845 16.4381 79.4109 16.4381 79.544 16.4646C79.6771 16.4912 79.7769 16.5708 79.8568 16.6969C80.0631 16.8495 80.2094 17.0685 80.2826 17.3406C80.3558 17.6127 80.4357 18.1502 80.5155 18.9532C80.6486 20.3004 80.7884 20.9773 80.9414 20.9773C81.0479 20.9773 81.2408 20.4995 81.527 19.5372C82.046 18.6015 82.6449 18.1635 83.3236 18.2166C83.5831 18.1635 83.9824 18.3759 84.5147 18.8603C85.047 19.3381 85.3398 19.7098 85.3931 19.9686C85.4463 20.1212 85.5394 20.3468 85.6858 20.6322C85.8256 20.9176 85.9387 21.183 86.0185 21.4286C86.0984 21.6741 86.1583 21.9396 86.2115 22.2249C86.318 22.7426 86.4178 23.0213 86.5243 23.0611C86.6307 23.1009 86.8237 22.935 87.1098 22.5766C87.6289 21.8267 87.9948 21.6077 88.2011 21.913C88.3342 22.0657 88.3342 22.3311 88.2011 22.6895C88.1479 22.7691 87.9549 23.0876 87.6155 23.6451C87.2762 24.2025 87.0699 24.5211 86.9901 24.6007C86.6241 25.0387 86.4444 25.6891 86.4444 26.5452C86.4444 26.9832 86.3712 27.5672 86.2315 28.2971C86.0917 29.0205 85.952 29.5315 85.8189 29.8169C85.6659 30.1022 85.4396 30.288 85.1535 30.3809C84.8674 30.4739 84.6212 30.4274 84.4149 30.2416C84.2818 30.0093 84.2352 29.8301 84.2618 29.7173C84.2885 29.5979 84.375 29.4386 84.5147 29.2329C84.6544 29.0271 84.7409 28.8679 84.7676 28.7683C84.8208 28.5626 84.8607 28.3038 84.8873 27.9919C84.914 27.68 84.9006 27.5141 84.8474 27.4875C84.8208 27.461 84.4814 27.7596 83.836 28.3834C82.9243 29.266 82.3388 29.704 82.0793 29.704C82.0526 29.704 81.9395 29.6178 81.7466 29.4519C81.5536 29.286 81.4272 29.213 81.3739 29.2395C81.2941 29.2661 81.2408 29.485 81.2209 29.9031C81.2475 30.5535 80.9614 30.9649 80.3625 31.1508C80.1296 31.1508 79.9765 31.0247 79.9167 30.7592C79.8501 30.5004 79.8168 29.777 79.8168 28.5825C79.7902 26.2266 79.757 24.6804 79.717 23.957C79.6771 23.2336 79.5573 22.2316 79.3444 20.964C79.1913 19.9553 79.0583 19.2784 78.9518 18.94C78.8453 18.6015 78.7056 18.4356 78.5259 18.4356C78.3928 18.4356 78.1134 18.6413 77.6875 19.0594C77.2616 19.4775 76.9156 19.8624 76.6561 20.2274C76.1903 20.9773 75.8709 21.4551 75.6979 21.6476C75.5316 21.84 75.3519 21.9396 75.1722 21.9396C74.8329 21.9396 74.6665 21.7206 74.6665 21.2759C74.6665 21.0968 74.7996 20.7583 75.0591 20.2672C75.3186 19.7761 75.5914 19.3713 75.8776 19.0594C76.0306 18.9333 76.3367 18.3692 76.7958 17.3671C77.2483 16.3717 77.6942 15.3962 78.12 14.4538C78.5459 13.5048 78.8387 13.0336 78.9984 13.0336C79.0516 13.0071 79.1381 12.9341 79.2712 12.8213C79.4043 12.7018 79.4974 12.6222 79.564 12.5691C79.6305 12.516 79.7436 12.4695 79.9167 12.4297C80.083 12.3899 80.2361 12.4364 80.3625 12.5691C80.4956 12.6487 80.5288 12.8677 80.4823 13.2327C80.4823 13.4915 80.3292 13.8764 80.0364 14.3808C79.737 14.8852 79.4442 15.3497 79.1581 15.7811C78.8719 16.2058 78.7455 16.4513 78.7655 16.4978C78.8986 16.5243 79.025 16.5243 79.1581 16.4978L79.1514 16.4646ZM84.9805 24.4149C84.9938 24.1163 84.9073 23.9437 84.7276 23.8906C84.4947 23.9437 84.1288 24.1627 83.6363 24.5543C83.1439 24.9458 82.8711 25.1515 82.8179 25.1781C81.7266 26.0873 81.1943 26.7973 81.2209 27.315C81.2209 28.0649 81.3007 28.4431 81.4538 28.4431C81.6068 28.4431 82.1924 27.9653 83.2105 27.0031C84.2219 26.0474 84.7676 25.4502 84.8474 25.2113C84.9273 24.9724 84.9672 24.7135 84.9871 24.4149H84.9805ZM82.585 20.4265C82.4519 20.5791 82.3521 20.7251 82.2722 20.8512C82.1924 20.9839 82.1192 21.1233 82.0393 21.2759C81.9595 21.4286 81.8996 21.5547 81.8663 21.6476C81.8264 21.7405 81.7798 21.8732 81.7266 22.059C81.6734 22.2382 81.6334 22.3709 81.6068 22.4506C81.5802 22.5302 81.5469 22.6762 81.507 22.8952C81.4671 23.1142 81.4405 23.2602 81.4272 23.3199C81.4139 23.3863 81.3872 23.5522 81.3473 23.8243C81.3074 24.0964 81.2741 24.2689 81.2475 24.3485C81.4538 24.3751 81.8397 24.1694 82.3987 23.7247C82.9576 23.2867 83.3569 23.0279 83.5898 22.9483C84.162 22.6364 84.5014 22.424 84.6012 22.3046C84.7077 22.1851 84.7077 21.986 84.6012 21.7007C84.3683 20.9508 84.1221 20.4464 83.8626 20.1809C83.2903 19.8159 82.8645 19.8956 82.5783 20.4132L82.585 20.4265ZM96.7651 20.307C97.0778 20.5393 97.2841 20.6588 97.3905 20.6588C97.4172 20.6057 97.7233 20.7185 98.3088 20.9906C98.8944 21.2627 99.5332 21.5679 100.219 21.9064C100.904 22.2448 101.33 22.4373 101.483 22.4904C101.822 22.57 102.022 22.7492 102.088 23.0346C102.155 23.3199 102.055 23.6053 101.796 23.8906C101.383 24.3817 100.897 24.3685 100.352 23.8508C100.039 23.5389 99.3935 23.1606 98.4219 22.7027C97.4504 22.2515 96.8715 22.059 96.6852 22.1387C96.6586 22.1387 96.6386 22.1519 96.6253 22.1785C96.612 22.205 96.5987 22.2515 96.5854 22.3178C96.5721 22.3842 96.5521 22.4572 96.5255 22.5302C96.4989 22.6098 96.4723 22.7293 96.4457 22.9018C96.419 23.0677 96.3858 23.2403 96.3458 23.4062C96.3059 23.5721 96.246 23.811 96.1728 24.103C96.093 24.4016 96.0331 24.7069 95.9799 25.0188C95.3278 27.6402 94.6424 29.1665 93.9104 29.6045C93.6509 29.8102 93.3781 29.8899 93.0919 29.8368C92.3933 29.7837 91.7811 29.2926 91.262 28.3569C90.8162 27.7065 90.7031 27.242 90.9094 26.9566C91.0624 26.7774 91.2887 26.8903 91.5748 27.3083C91.9674 28.0317 92.3799 28.3768 92.8258 28.337C93.265 28.2971 93.6043 27.9056 93.8372 27.1491C94.3562 25.855 94.7488 24.3485 95.0083 22.6364C95.1148 22.0657 95.1281 21.7272 95.0483 21.6277C95.0749 21.5746 94.8154 21.4684 94.2697 21.2958C93.7241 21.1299 93.0254 20.9176 92.187 20.672C91.3419 20.4265 90.8561 20.2871 90.7231 20.2606C90.59 20.2075 90.4968 20.0814 90.4303 19.869C90.3637 19.6633 90.3704 19.4775 90.4502 19.3249C90.7097 19.066 91.0691 18.9466 91.5216 18.9731C91.974 18.9997 92.3799 19.0793 92.7326 19.2054C93.0853 19.3381 93.4912 19.4908 93.9636 19.6699C94.4294 19.8491 94.7954 19.9553 95.0549 19.9819C95.208 19.9819 95.3078 19.9686 95.3477 19.942C95.3876 19.9155 95.4209 19.8226 95.4475 19.6699C95.5806 19.0992 95.6738 18.1104 95.7403 16.6969C95.8069 15.2833 95.7869 14.3476 95.6804 13.8764C95.6006 13.6973 95.4808 13.6176 95.3078 13.6442C95.1414 13.6707 94.7954 13.8234 94.2764 14.1087C94.1965 14.1353 94.0169 14.2149 93.7307 14.341C93.4446 14.4737 93.2716 14.5533 93.2051 14.5932C93.1385 14.633 92.9921 14.6993 92.7592 14.7856C92.5263 14.8785 92.3733 14.9316 92.3134 14.9383C92.2469 14.9515 92.1204 14.9781 91.9208 15.0179C91.7212 15.0577 91.5881 15.0643 91.5083 15.0378C91.4284 15.0113 91.3153 14.9913 91.1556 14.9781C91.0025 14.9648 90.8761 14.9183 90.7829 14.8387C90.6898 14.7591 90.5833 14.6728 90.4502 14.5666C90.3171 14.4604 90.1907 14.3344 90.0576 14.1751C89.7449 13.8366 89.5519 13.2327 89.4721 12.37C89.3922 11.5006 89.4854 10.8503 89.7449 10.4057C89.8979 10.1999 90.1242 10.0938 90.4103 10.0938C90.6964 10.0938 90.9426 10.2198 91.1489 10.4654C91.3552 10.7109 91.3552 10.9631 91.1489 11.2219C91.0425 11.4276 91.0092 11.713 91.0291 12.078C91.0558 12.443 91.1489 12.7881 91.302 13.1265C91.455 13.465 91.6014 13.5911 91.7278 13.5181C92.1936 13.4915 92.879 13.2327 93.7773 12.7416C94.6756 12.2506 95.381 12.005 95.9 12.005C96.2394 12.0316 96.4723 12.1311 96.5987 12.297C96.7318 12.4629 96.8582 12.8478 96.9913 13.4451C97.0978 13.757 97.1577 14.1618 97.1843 14.6728C97.2109 15.1772 97.2109 15.6218 97.1843 15.9934C97.1577 16.3717 97.1111 16.896 97.0445 17.5662C96.978 18.2431 96.9447 18.6679 96.9447 18.847L96.7517 20.2871L96.7651 20.307Z" fill="#383838"/>
<path d="M112.735 23.964C112.542 24.1431 112.303 24.3489 112.017 24.5679C111.731 24.7869 111.484 24.9926 111.278 25.1718C110.812 25.6098 110.513 25.8487 110.38 25.8686C110.247 25.9217 110.074 25.8686 109.854 25.696C109.635 25.5301 109.508 25.3775 109.481 25.2514C109.455 25.0722 109.821 24.6143 110.573 23.891C110.653 23.8113 110.766 23.6852 110.925 23.4994C111.704 22.6699 112.23 22.0328 112.502 21.5948C112.775 21.1568 112.922 20.5728 112.948 19.8428C112.795 19.7632 112.562 19.7167 112.263 19.6902C111.963 19.6636 111.751 19.7167 111.617 19.8428C111.438 19.949 111.145 20.0884 110.739 20.2675C110.333 20.4467 110.054 20.5927 109.901 20.6923C109.768 20.7454 109.681 20.8449 109.628 20.9843C109.575 21.1303 109.521 21.5351 109.475 22.212C109.269 24.0038 108.876 24.8931 108.304 24.8931C107.938 24.8931 107.718 24.7404 107.638 24.4285C107.558 24.1166 107.625 23.5724 107.831 22.796C107.964 22.358 108.038 21.9731 108.064 21.6479C108.091 21.3227 108.091 20.6193 108.064 19.5309C108.064 18.6483 108.051 18.0377 108.024 17.7059C107.998 17.3675 107.944 17.0357 107.871 16.7171C107.791 16.3919 107.731 16.0137 107.678 15.569C107.652 15.0514 107.638 14.7395 107.638 14.6333C107.638 14.5271 107.705 14.3745 107.831 14.1688C107.964 13.963 108.051 13.7905 108.104 13.6644C108.104 13.5118 108.217 13.4056 108.437 13.3525C108.656 13.2994 108.823 13.3392 108.923 13.472C109.002 13.5516 109.062 13.9431 109.096 14.6599C109.135 15.3699 109.182 15.7814 109.235 15.8876C109.315 16.0402 109.375 16.08 109.428 16.007C109.455 15.9539 109.508 15.7748 109.581 15.4629C109.734 14.9983 109.927 14.6599 110.147 14.4541C110.366 14.2484 110.752 14.0759 111.298 13.9498C111.844 13.8237 112.25 13.7706 112.509 13.7971C112.769 13.8502 113.061 14.0294 113.387 14.3413C113.714 14.6532 113.966 15.0049 114.146 15.3899L114.459 16.0867L114.499 18.0311C114.552 18.2899 114.559 18.5952 114.519 18.9469C114.479 19.2986 114.459 19.5575 114.459 19.7234C114.459 19.8893 114.419 20.1215 114.339 20.4069C114.259 20.6923 114.213 20.898 114.199 21.0307C114.186 21.1634 114.126 21.3559 114.026 21.6147C113.92 21.8735 113.847 22.0527 113.793 22.1589C113.74 22.2651 113.654 22.4509 113.541 22.723C113.427 22.9951 113.341 23.1942 113.288 23.3269C113.108 23.5857 112.915 23.8047 112.722 23.9905L112.735 23.964ZM110.533 19.0066C110.925 18.7876 111.331 18.5487 111.764 18.2899C112.19 18.0311 112.456 17.8917 112.562 17.8652C112.902 17.8652 113.095 17.686 113.148 17.321C113.201 16.956 113.148 16.591 112.975 16.2128C112.809 15.8345 112.629 15.6221 112.449 15.569C112.057 15.3368 111.711 15.3434 111.398 15.5889C111.085 15.8345 110.766 16.2526 110.44 16.8366C110.114 17.4206 109.927 17.7524 109.874 17.8254C109.668 18.1107 109.561 18.416 109.561 18.7412C109.561 19.0664 109.668 19.2256 109.874 19.2256C109.927 19.3053 110.147 19.2323 110.539 19.0133L110.533 19.0066ZM121.146 23.2871C121.339 23.1477 121.565 23.0747 121.832 23.0747C122.144 23.0747 122.444 22.9818 122.73 22.8026C123.016 22.6234 123.888 21.9731 125.345 20.8582C125.758 20.5197 126.01 20.2543 126.084 20.0618C126.157 19.8694 126.203 19.4314 126.203 18.7611C126.203 18.5554 126.19 18.3098 126.164 18.0245C126.164 17.5599 126.117 17.3077 126.024 17.2679C125.931 17.2281 125.638 17.3542 125.145 17.6396L124.753 17.832C124.493 17.9647 124.187 18.1307 123.835 18.3364C123.482 18.5421 123.209 18.708 123.016 18.8208C122.823 18.9336 122.57 19.0664 122.258 19.2124C121.945 19.3584 121.619 19.5044 121.286 19.657C121.153 19.7101 120.967 19.7632 120.72 19.8096C120.474 19.8627 120.275 19.9291 120.115 20.0021C119.955 20.0751 119.855 20.2078 119.802 20.3936C119.802 20.8316 119.729 21.847 119.589 23.4264C119.449 25.0059 119.376 26.1739 119.376 26.9238C119.35 28.5297 119.157 29.346 118.791 29.3726C118.218 29.4257 117.866 29.1668 117.739 28.5961C117.659 28.2311 117.679 27.1229 117.799 25.2713C117.919 23.4198 118.039 22.2452 118.172 21.7541C118.252 21.3161 118.345 20.6193 118.465 19.6769C118.584 18.7279 118.678 17.9249 118.757 17.2679C118.837 16.6109 118.91 16.2526 118.99 16.1995C119.07 15.9672 119.123 15.0049 119.143 13.3193C119.17 12.0717 119.197 11.3351 119.223 11.1028C119.25 10.8705 119.316 10.7046 119.416 10.5984C119.622 10.4193 119.922 10.3927 120.314 10.5188C120.707 10.6515 120.847 10.8705 120.74 11.1824C120.767 11.4413 120.807 11.574 120.86 11.574C120.913 11.574 120.993 11.4943 121.093 11.3417C121.12 11.2886 121.14 11.2488 121.153 11.2223C121.166 11.1957 121.186 11.1625 121.213 11.1227C121.239 11.0829 121.279 11.0497 121.333 11.0232C121.745 10.3728 122.304 9.85517 123.009 9.47027C123.296 9.26454 123.502 9.14509 123.635 9.11854C123.768 9.092 124.047 9.092 124.493 9.11854C125.092 9.14509 125.491 9.21145 125.704 9.31099C126.017 9.46363 126.317 9.80208 126.603 10.3197C126.889 10.8373 127.068 11.3948 127.148 11.9921C127.175 12.1447 127.268 13.1932 127.421 15.1244C127.574 17.0556 127.694 18.3297 127.774 18.9536L127.814 23.8113C127.787 26.1473 127.707 27.6471 127.581 28.324C127.528 28.5563 127.474 29.0076 127.428 29.6646C127.375 30.3282 127.288 30.8724 127.175 31.2971C127.062 31.7218 126.869 31.9806 126.609 32.0536C126.297 32.2063 125.891 32.12 125.398 31.7815C125.139 31.6555 124.913 31.463 124.713 31.2175C124.52 30.9719 124.38 30.7728 124.3 30.6136C124.221 30.4543 124.094 30.1822 123.908 29.7774C123.728 29.3792 123.622 29.1204 123.595 29.0208C123.202 28.2444 123.129 27.6869 123.362 27.3485C123.542 27.0897 123.788 27.3485 124.101 28.1249C124.127 28.1515 124.141 28.1913 124.141 28.2444C124.221 28.397 124.334 28.6691 124.493 29.0407C124.646 29.419 124.753 29.6579 124.806 29.7575C125.012 30.3282 125.219 30.6136 125.412 30.6136C125.605 30.6136 125.758 30.3282 125.857 29.7575C126.297 27.4746 126.456 24.9329 126.323 22.139C126.27 22.0328 126.097 22.066 125.798 22.2385C125.498 22.4044 125.192 22.6633 124.879 22.9951C124.467 23.4132 123.948 23.818 123.342 24.2228C122.73 24.6276 122.297 24.8267 122.038 24.8267C121.778 24.8267 121.519 24.7006 121.259 24.4551C121 24.2095 120.867 23.9706 120.867 23.7383C120.867 23.5857 120.967 23.4331 121.16 23.2937L121.146 23.2871ZM121.246 14.129C121.04 14.4674 120.947 14.6864 120.973 14.7926C120.947 14.8722 120.847 15.0979 120.68 15.4761C120.514 15.8544 120.388 16.299 120.308 16.8167C120.155 17.7988 120.168 18.2966 120.348 18.2966C120.374 18.2966 120.401 18.2833 120.428 18.2567C121.206 18.0245 122.171 17.5931 123.316 16.9759C124.46 16.3521 125.185 15.9805 125.498 15.8478C125.704 15.8212 125.837 15.7549 125.891 15.6553C125.917 15.5757 125.891 14.9784 125.811 13.8635C125.731 12.7486 125.671 12.085 125.618 11.8792C125.565 11.6204 125.412 11.3483 125.152 11.063C124.893 10.7776 124.653 10.6183 124.433 10.5785C124.214 10.5387 123.961 10.625 123.675 10.8307C123.568 10.9103 123.429 11.0033 123.249 11.1227C123.069 11.2422 122.943 11.3218 122.876 11.3749C122.81 11.428 122.723 11.5076 122.623 11.6072C122.517 11.7133 122.431 11.8394 122.351 11.9987C122.271 12.158 122.171 12.3372 122.038 12.5429C121.752 13.1667 121.612 13.5118 121.612 13.5914C121.585 13.618 121.472 13.7971 121.259 14.1356L121.246 14.129Z" fill="#383838"/>
<path d="M148.821 8.33558C148.914 8.67403 148.801 8.95939 148.488 9.19166C148.382 9.29784 148.262 9.45711 148.116 9.67611C147.976 9.89511 147.829 10.061 147.69 10.1606C147.55 10.2667 147.317 10.3928 147.004 10.5521C146.306 10.8906 145.807 11.1892 145.52 11.448C145.52 11.4746 145.534 11.5011 145.56 11.5276C145.973 11.9192 146.053 12.2908 145.793 12.6558C145.713 12.6558 145.64 12.8682 145.58 13.2995C145.514 13.7243 145.441 14.2286 145.367 14.7993C145.288 15.3701 145.234 15.7483 145.214 15.9275C145.161 16.0337 145.161 16.1399 145.214 16.2593C145.268 16.3788 145.347 16.4319 145.447 16.4319C145.627 16.3788 145.933 16.1863 146.366 15.8479C146.791 15.5094 147.277 15.1046 147.809 14.6202C148.342 14.1423 148.701 13.8238 148.881 13.6645C149.114 13.5384 149.406 13.2664 149.759 12.8483C150.112 12.4368 150.445 12.0984 150.771 11.8395C151.097 11.5807 151.416 11.4746 151.729 11.5276C151.935 11.5542 152.108 11.6471 152.234 11.7997C152.368 11.9524 152.427 12.1249 152.427 12.3041C152.248 12.6425 151.869 13.0739 151.296 13.6048C150.724 14.1357 150.059 14.7131 149.307 15.3369C148.555 15.9607 148.069 16.3721 147.863 16.5845C146.898 17.4671 146.326 17.9051 146.146 17.9051C146.066 17.9051 145.953 17.9781 145.793 18.1175C145.64 18.2635 145.56 18.3697 145.56 18.4493C145.64 18.4493 145.753 18.4692 145.913 18.509C146.073 18.5489 146.199 18.5953 146.306 18.6484C146.412 18.7015 146.525 18.801 146.658 18.9603C147.231 19.5045 148.096 20.1814 149.253 20.9844C150.411 21.7874 151.263 22.4245 151.809 22.889C152.274 23.254 152.827 23.6124 153.466 23.9774C154.104 24.3424 154.577 24.6742 154.89 24.9861C155.282 25.3245 155.635 25.5966 155.961 25.8023C156.287 26.0081 156.62 26.2005 156.952 26.3664C157.292 26.5323 157.578 26.6982 157.811 26.8509C158.276 27.269 159.308 27.707 160.892 28.1715C161.045 28.2511 161.151 28.3042 161.204 28.3241C161.258 28.3507 161.324 28.4104 161.417 28.4967C161.51 28.5896 161.55 28.6958 161.537 28.8285C161.524 28.9612 161.477 29.1139 161.397 29.293C161.218 29.8107 161.005 30.1226 160.772 30.2288C160.539 30.3349 160.2 30.2155 159.76 29.877C159.527 29.6979 159.082 29.4589 158.436 29.1603C157.784 28.8617 157.372 28.6493 157.185 28.5166C157.105 28.4635 156.866 28.3241 156.467 28.0919C156.061 27.8596 155.821 27.7003 155.748 27.6273C151.982 25.0856 149.406 23.2606 148.029 22.1457C147.743 21.8869 147.377 21.6347 146.938 21.3892C146.492 21.1437 146.186 20.9446 146 20.7853C145.587 20.4468 145.301 20.2478 145.161 20.1814C145.021 20.115 144.855 20.0818 144.675 20.0818C144.496 20.1084 144.376 20.1482 144.323 20.2013C144.269 20.2544 144.203 20.4203 144.13 20.7057C144.023 20.9114 143.897 21.2432 143.737 21.6945C143.584 22.1457 143.431 22.5572 143.291 22.9222C143.152 23.2872 143.012 23.5991 142.879 23.8579C142.772 23.9906 142.606 24.2627 142.373 24.6742C142.14 25.0923 141.921 25.4506 141.708 25.7625C141.501 26.0744 141.295 26.3333 141.082 26.539C140.902 26.7447 140.636 27.2026 140.304 27.8994C139.625 29.167 138.806 30.2155 137.848 31.0318C136.883 31.848 136.211 32.0604 135.819 31.6755C135.586 31.337 135.506 30.9853 135.586 30.607C135.666 30.2288 135.805 29.9169 136.012 29.6514C136.145 29.5718 136.231 29.5253 136.284 29.512C136.338 29.4988 136.437 29.5319 136.597 29.6116C136.757 29.6912 136.843 29.731 136.87 29.731L137.688 28.875C138.028 28.5896 138.46 27.9591 138.993 26.9902C139.525 26.0213 139.898 25.4174 140.104 25.1852C140.57 24.6675 141.095 23.7849 141.681 22.5439C142.267 21.3029 142.479 20.5995 142.326 20.4468C142.273 20.3938 142.1 20.4137 141.801 20.5066C141.501 20.5995 141.222 20.7189 140.962 20.8782C140.783 20.9844 140.39 21.1437 139.791 21.3627C139.192 21.5817 138.7 21.721 138.307 21.7741C137.995 21.8537 137.748 21.7741 137.569 21.5418C137.389 21.3096 137.349 21.0109 137.449 20.6459C137.555 20.3871 137.702 20.2013 137.895 20.0818C138.088 19.9624 138.394 19.8695 138.813 19.7898C140.763 19.2457 142.193 18.582 143.105 17.8056C143.238 17.6795 143.325 17.5202 143.378 17.341C143.431 17.1619 143.484 16.7571 143.531 16.1332C143.611 15.7417 143.664 15.3302 143.684 14.8856C143.71 14.4476 143.75 14.076 143.804 13.7774C143.857 13.4787 143.943 13.1071 144.076 12.6691C144.23 12.2311 144.283 11.9855 144.23 11.9524C144.176 11.9125 143.877 11.959 143.331 12.0917C142.679 12.2444 142.233 12.324 141.987 12.324C141.741 12.324 141.242 12.2709 140.483 12.1714C140.35 12.1448 140.23 12.0254 140.111 11.7997C139.991 11.5807 139.938 11.3418 139.938 11.083C139.938 10.8773 140.051 10.7313 140.27 10.6583C140.49 10.5786 140.916 10.5322 141.535 10.5056C142.732 10.5056 143.717 10.353 144.496 10.0411C145.274 9.7292 146.133 9.1983 147.071 8.44839C147.51 8.0834 147.849 7.90422 148.082 7.90422C148.475 7.87767 148.714 8.03694 148.801 8.36876L148.821 8.33558Z" fill="#383838"/>
<path d="M173.481 17.6461C173.401 17.5797 173.342 17.5465 173.308 17.5465C173.275 17.5465 173.169 17.5797 173.016 17.6461C172.863 17.7124 172.743 17.7589 172.663 17.7854C172.377 17.9912 172.064 17.9912 171.725 17.7854C171.385 17.5797 171.186 17.301 171.119 16.9493C171.053 16.5975 171.166 16.2591 171.452 15.9206C171.685 15.6087 171.878 15.4163 172.037 15.3366C172.869 15.0247 173.621 15.1707 174.3 15.7614C174.979 16.3586 175.251 17.0223 175.118 17.7456C174.965 18.6282 174.559 19.5772 173.907 20.6059C173.255 21.6279 172.623 22.3645 171.997 22.8025C171.738 22.9087 171.525 22.9286 171.352 22.8622C171.186 22.7958 171.106 22.6565 171.119 22.4375C171.132 22.2185 171.259 21.9928 171.492 21.7539C171.904 21.3159 172.33 20.6921 172.756 19.8891C173.182 19.0861 173.421 18.4889 173.475 18.0973C173.555 17.8651 173.555 17.7124 173.475 17.6527L173.481 17.6461Z" fill="#383838"/>
<path d="M228.358 13.4256C228.252 13.7507 228.178 14.2153 228.125 14.8258C228.072 15.4364 227.959 15.9872 227.773 16.4783C227.639 17.1021 227.62 17.4472 227.693 17.5268C227.766 17.6064 228.005 17.4472 228.391 17.0623C228.804 16.6243 229.416 16.1199 230.221 15.5625C231.026 15.005 231.532 14.7263 231.745 14.7263C232.138 14.7794 232.351 14.9984 232.391 15.3899C232.431 15.7815 232.264 16.0137 231.905 16.0867C231.825 16.1133 231.652 16.2858 231.379 16.611C231.106 16.9362 230.933 17.1087 230.853 17.1353C229.762 17.6263 228.411 18.7678 226.801 20.5596C226.695 20.7122 226.468 21.7608 226.116 23.6919C225.763 25.6231 225.41 26.7845 225.044 27.1694C224.732 27.8197 224.292 28.5431 223.72 29.3461C222.729 31.0848 221.937 31.2507 221.345 29.8504C221.291 29.4854 221.391 29.1072 221.637 28.7023C221.884 28.3042 222.136 28.1383 222.396 28.2179C222.656 28.2444 222.868 28.0719 223.041 27.6936C223.208 27.3154 223.308 27.1163 223.334 27.0897C223.674 26.6783 223.993 25.9549 224.292 24.9329C224.592 23.9109 224.712 23.0615 224.665 22.3846L224.625 21.7608L223.926 22.3448C222.935 23.1478 221.484 23.9242 219.561 24.6807C219.222 24.5547 219.016 24.402 218.936 24.2361C218.856 24.0702 218.889 23.8844 219.036 23.6919C219.175 23.4995 219.368 23.3137 219.601 23.1478C219.834 22.9818 220.107 22.8027 220.42 22.6235C222.343 21.6679 223.827 20.679 224.865 19.6703C225.177 19.3584 225.424 18.9602 225.603 18.4625C225.783 17.9714 225.949 17.3476 226.089 16.5977C226.229 15.8478 226.355 15.3169 226.462 15.005C226.462 14.7462 226.229 14.7595 225.763 15.0448C225.683 15.0979 225.61 15.151 225.53 15.1975C224.958 15.6155 224.339 15.8876 223.68 16.0137C223.015 16.1464 222.469 16.0469 222.043 15.7217C221.617 15.3965 221.491 14.8457 221.671 14.0693C221.697 13.7043 221.757 13.3459 221.844 12.9809C221.937 12.6159 222.057 12.2111 222.216 11.7532C222.369 11.3019 222.476 10.9701 222.529 10.7644C222.502 10.6582 222.582 10.4923 222.762 10.26C222.942 10.0278 222.995 9.8685 222.915 9.7955C222.682 9.40396 222.782 9.13187 223.228 8.97923C223.694 8.8266 224.046 8.91287 224.279 9.25132C224.386 9.40396 224.412 9.60305 224.359 9.83532C224.279 10.3795 224.093 11.0962 223.793 11.9921C223.494 12.888 223.321 13.4654 223.268 13.7242C223.241 13.9565 223.268 14.129 223.328 14.2286C223.394 14.3347 223.501 14.3613 223.66 14.3082C223.813 14.2551 223.953 14.202 224.073 14.1556C224.193 14.1025 224.352 14.0162 224.559 13.8835C224.638 13.8038 224.951 13.618 225.517 13.3194C226.076 13.0207 226.408 12.8084 226.508 12.6757C226.768 12.4168 226.888 11.1095 226.861 8.74696C226.861 8.51469 226.874 8.21606 226.901 7.85106C226.901 7.10116 226.934 6.64325 227.001 6.49062C227.067 6.33798 227.267 6.2318 227.606 6.17871C227.713 6.2318 227.839 6.28489 227.999 6.33135C228.179 6.38444 228.285 6.46407 228.312 6.56362C228.338 6.6698 228.365 7.01489 228.391 7.61215C228.391 7.97715 228.405 8.26251 228.431 8.46824C228.458 10.0742 228.511 10.917 228.584 10.9967C228.691 11.0498 229.05 10.7843 229.676 10.2003C230.301 9.61632 230.74 9.40396 231 9.55659C231.18 9.78886 231.279 10.0079 231.293 10.2202C231.306 10.4259 231.266 10.6184 231.173 10.7843C231.08 10.9502 230.94 11.1228 230.747 11.2887C230.554 11.4546 230.354 11.6072 230.161 11.7333C229.968 11.866 229.762 12.0054 229.556 12.158C229.35 12.3107 229.177 12.4567 229.05 12.5827C228.711 12.815 228.491 13.0937 228.385 13.4189L228.358 13.4256ZM241.653 29.2133C240.615 29.3328 239.75 29.4058 239.058 29.4456C238.366 29.4854 237.607 29.4456 236.776 29.3063C236.722 29.2532 236.21 29.2001 235.239 29.1536C234.267 29.1005 233.216 29.0342 232.098 28.9612C230.98 28.8815 230.268 28.782 229.955 28.6493C229.489 28.3373 229.137 27.8861 228.904 27.2888C228.797 27.2092 228.737 26.9039 228.711 26.373C228.684 25.8421 228.684 25.2913 228.711 24.7206C228.737 24.1498 228.711 23.6455 228.631 23.2008C228.551 23.0482 228.525 22.6898 228.551 22.1324C228.578 21.5749 228.525 21.2697 228.398 21.2166C228.032 20.7786 228.125 20.4667 228.671 20.2809C229.243 20.1017 229.696 20.1747 230.035 20.5131C230.141 20.6459 230.188 20.7985 230.188 20.9777C230.448 22.6898 230.541 24.1764 230.461 25.4506C230.461 26.227 230.567 26.7115 230.774 26.8906C230.98 27.0698 231.605 27.2025 232.643 27.2822C233.036 27.2822 234.221 27.3817 236.21 27.5742C238.2 27.7666 239.637 27.7865 240.515 27.6339C240.622 27.5543 241.161 27.4879 242.132 27.4215C243.104 27.3552 243.649 27.3087 243.749 27.2822C243.929 27.2291 244.015 26.9769 244.002 26.5256C243.989 26.0744 244.049 25.7691 244.175 25.6098C244.381 25.4041 244.608 25.3842 244.861 25.5501C245.107 25.716 245.233 25.9748 245.233 26.3066C245.233 26.4858 245.313 26.7115 245.466 26.9703C245.619 27.2291 245.732 27.4348 245.799 27.5941C245.865 27.7467 245.799 27.9856 245.626 28.2909C245.546 28.4701 245.493 28.5763 245.473 28.6028C245.446 28.6293 245.413 28.6957 245.373 28.7953C245.333 28.9014 245.293 28.9479 245.253 28.9479C245.213 28.9479 245.173 28.9678 245.133 29.0076C245.093 29.0474 245.02 29.0607 244.92 29.0474C244.814 29.0342 244.727 29.0342 244.648 29.0474C244.568 29.0607 244.435 29.0607 244.235 29.0474C244.042 29.0342 243.862 29.0275 243.709 29.0275C243.37 29.0275 242.685 29.0873 241.64 29.2001L241.653 29.2133Z" fill="#383838"/>
<path d="M257.098 8.52787C257.384 8.56769 257.577 8.71369 257.684 8.9725C257.79 9.23132 257.764 9.52995 257.604 9.86841C257.451 10.1803 257.511 10.3595 257.797 10.4126C258.03 10.4657 258.589 10.5055 259.474 10.532C261.317 10.5851 262.308 10.7378 262.435 10.9966C262.568 11.2554 262.568 11.5673 262.435 11.9323C262.302 12.2973 262.095 12.5694 261.809 12.7486C261.157 13.1667 260.838 13.0605 260.838 12.4367C260.838 12.2044 260.725 12.065 260.505 12.0252C260.285 11.9854 259.667 11.9522 258.655 11.9257C258.003 11.9257 257.591 11.9323 257.404 11.9456C257.225 11.9588 257.058 12.0318 256.918 12.1579C256.779 12.2907 256.612 12.4035 256.433 12.5097C256.253 12.5893 256.053 12.8547 255.847 13.306C255.641 13.7573 255.302 14.6465 254.836 15.9672C254.576 16.6905 254.23 17.5002 253.804 18.3762C253.378 19.2588 253.019 20.1414 252.733 21.0174C252.527 21.6678 252.407 22.0726 252.38 22.2451C252.354 22.411 252.394 22.5371 252.5 22.6168C252.786 22.8225 252.666 23.433 252.147 24.4417C251.262 26.1539 250.537 26.7114 249.965 26.1141C249.652 25.8022 249.692 25.1585 250.085 24.1697C250.683 22.849 251.116 21.7142 251.389 20.7652C251.662 19.8162 252.054 18.7876 252.58 17.6727C253.019 16.8432 253.611 15.4097 254.357 13.379C255.095 11.3417 255.781 9.83522 256.406 8.84641C256.586 8.5876 256.819 8.47478 257.105 8.5146L257.098 8.52787ZM260.492 23.7117C260.645 23.0348 260.824 22.5305 261.017 22.192C261.21 21.8536 261.45 21.7142 261.736 21.7673C261.969 21.7939 262.129 21.9266 262.202 22.1788C262.282 22.4243 262.268 22.703 262.162 23.0149C261.796 24.4417 261.383 25.5832 260.911 26.4393C260.598 27.0365 260.558 27.3219 260.791 27.2954C260.818 27.2688 260.858 27.2423 260.911 27.2157C261.044 27.1361 261.403 26.8242 262.002 26.28C262.601 25.7358 263.014 25.3974 263.253 25.2713C263.36 25.2447 263.519 25.0855 263.739 24.7868C263.959 24.4882 264.112 24.3289 264.185 24.3024C264.318 24.2227 264.451 24.2227 264.597 24.3024C264.737 24.382 264.837 24.4816 264.89 24.6143C264.943 24.8466 264.864 25.1186 264.657 25.4306C264.451 25.7425 264.045 26.1805 263.446 26.7512C262.98 27.2157 262.575 27.6006 262.235 27.8993C261.896 28.1979 261.543 28.4833 261.184 28.7553C260.818 29.0274 260.565 29.2133 260.425 29.3194C260.285 29.4256 259.946 29.6313 259.414 29.9432C258.881 30.2552 258.496 30.4741 258.263 30.6069C257.511 31.098 257.025 31.3966 256.819 31.5028C255.987 31.8412 255.568 31.6554 255.568 30.9586C255.568 30.7794 255.641 30.6135 255.781 30.4741C255.92 30.3348 256.24 30.076 256.739 29.7176C257.025 29.5119 257.178 29.3194 257.205 29.1535C257.231 28.9876 257.178 28.5894 257.052 27.9656C256.872 26.9834 256.506 26.3198 255.96 25.9814C255.701 25.8752 255.568 25.6695 255.568 25.3576C255.568 25.0456 255.661 24.8134 255.841 24.6607C256.233 24.2493 256.752 24.4683 257.398 25.3244C257.477 25.4571 257.544 25.5566 257.611 25.6363C257.677 25.7159 257.73 25.7756 257.784 25.8088C257.837 25.8486 257.877 25.8685 257.903 25.8685C257.93 25.8685 257.957 25.8553 257.983 25.8287C258.036 25.7225 258.063 25.1054 258.063 23.9639C258.063 22.8225 258.036 22.2119 257.983 22.1389C257.903 22.0328 257.777 22.0195 257.591 22.0991C256.812 22.4641 256.213 22.6433 255.794 22.6433C255.687 22.6433 255.594 22.5438 255.501 22.3513C255.408 22.1589 255.361 21.9399 255.361 21.7076C255.361 21.5284 255.428 21.3559 255.554 21.2032C255.687 21.0506 255.84 20.971 256.02 20.971C256.173 20.971 256.493 20.8847 256.978 20.7188C257.457 20.5529 257.737 20.4135 257.817 20.3073C257.897 20.3339 257.95 20.1879 257.97 19.8826C257.996 19.5707 258.003 19.2455 257.99 18.9137C257.976 18.5752 257.957 18.3828 257.93 18.3297C257.903 18.3032 257.564 18.343 256.918 18.4492C256.453 18.5288 256.16 18.5686 256.04 18.5686C255.92 18.5686 255.801 18.5155 255.667 18.416C255.222 18.1041 255.215 17.7324 255.628 17.2878C255.807 17.0821 256.173 16.9493 256.719 16.8963C257.604 16.8432 258.615 16.4052 259.76 15.5756C260.439 15.1111 260.878 15.0049 261.084 15.2637C261.497 15.7283 261.25 16.2592 260.345 16.8564C260.033 17.0356 259.813 17.3343 259.68 17.7523C259.6 17.9846 259.547 18.2169 259.527 18.4492C259.5 18.6814 259.5 18.8739 259.527 19.0132C259.554 19.1592 259.593 19.2256 259.647 19.2256C259.727 19.2256 260.053 18.9933 260.618 18.5288C261.19 18.0642 261.517 17.8452 261.59 17.8652C261.743 17.8652 261.889 17.9448 262.016 18.0974C262.149 18.2501 262.209 18.4226 262.209 18.6018C262.209 18.781 262.129 18.9602 261.976 19.1261C261.823 19.292 261.51 19.5375 261.037 19.8428C260.465 20.2609 260.093 20.5595 259.926 20.7586C259.76 20.951 259.647 21.2165 259.593 21.5549C259.54 21.7607 259.5 22.2518 259.474 23.0348C259.447 23.8113 259.434 24.5479 259.434 25.2315C259.434 25.915 259.447 26.2601 259.474 26.2601C259.527 26.2601 259.66 26.0345 259.886 25.5766C260.106 25.1253 260.219 24.8598 260.219 24.7802C260.219 24.7536 260.299 24.4019 260.452 23.7317L260.492 23.7117ZM273.98 10.4922C273.847 10.6714 273.747 11.189 273.667 12.0451C273.614 12.795 273.614 13.2662 273.667 13.4454C273.72 13.6246 273.887 13.6909 274.173 13.6378C274.852 13.5847 275.49 13.744 276.102 14.1024C276.715 14.4674 277.147 14.9319 277.407 15.5026C277.952 17.1883 278.199 18.9402 278.145 20.752C278.172 23.9175 278.119 25.8354 277.992 26.5056C277.886 26.9436 277.773 27.2688 277.64 27.4745C277.507 27.6803 277.274 27.8661 276.941 28.0187C276.735 28.0984 276.582 28.1382 276.495 28.1382C276.409 28.1382 276.242 28.0984 276.009 28.0187C275.67 27.8926 275.284 27.5807 274.838 27.083C274.392 26.5919 274.173 26.2136 274.173 25.9548C274.173 25.7756 274.306 25.7491 274.565 25.8752C274.698 25.9283 274.785 26.0079 274.838 26.1075C275.071 26.499 275.384 26.7445 275.776 26.8441C276.169 26.9503 276.429 26.8574 276.555 26.572C276.635 26.4194 276.675 25.696 276.695 24.4152C276.708 23.1344 276.675 22.2717 276.595 21.827C276.568 21.5948 276.535 21.4488 276.495 21.4023C276.455 21.3492 276.395 21.3227 276.322 21.3227C276.142 21.3492 275.69 21.6014 274.978 22.0792C274.259 22.557 273.853 22.8756 273.747 23.0348C273.594 23.4728 273.501 24.7669 273.474 26.9038C273.447 29.0407 273.354 30.3082 273.201 30.6931C273.048 31.0051 272.822 31.1842 272.536 31.2373C272.25 31.2904 272.017 31.1842 271.837 30.9254C271.757 30.6401 271.731 30.368 271.757 30.1092C271.784 29.8503 271.83 29.4787 271.897 29.0009C271.964 28.5231 271.997 28.2045 271.997 28.0453C272.077 27.5011 272.117 26.6583 272.117 25.5168C272.09 24.7138 272.063 24.2427 272.037 24.0967C272.01 23.9573 271.944 23.8976 271.844 23.9241C271.431 23.9772 270.872 24.2227 270.167 24.6607C269.881 24.8665 269.615 24.8731 269.368 24.6806C269.122 24.4882 269.102 24.2095 269.309 23.8445C269.515 23.2738 270.114 22.8225 271.105 22.484C271.624 22.4044 271.944 22.1987 272.063 21.8602C272.183 21.5218 272.177 21.1369 272.043 20.6922C271.937 20.6126 271.484 20.7719 270.679 21.1568C269.874 21.5483 269.395 21.8337 269.235 22.0129C269.102 22.192 269.016 22.5438 268.963 23.0614C268.909 23.6587 268.81 24.4484 268.65 25.4306C268.497 26.4127 268.404 27.0365 268.377 27.2954C268.377 27.5542 268.29 27.8661 268.124 28.2311C267.958 28.5961 267.791 28.8416 267.638 28.9677C267.272 29.2 266.973 29.1602 266.74 28.8483C266.634 28.5363 266.62 28.1382 266.7 27.6404C266.78 27.1494 266.886 26.5056 267.033 25.7159C267.173 24.9262 267.246 24.3621 267.246 24.0237C267.326 23.7117 267.412 22.3248 267.519 19.8627C267.625 17.4006 267.805 15.8212 268.064 15.1177C268.038 14.9916 268.151 14.8058 268.397 14.5735C268.643 14.3413 268.896 14.1754 269.156 14.0692C269.415 13.963 269.595 13.9763 269.701 14.109C269.834 14.1886 269.868 14.3413 269.821 14.5735C269.768 14.8058 269.688 15.0978 269.588 15.4495C269.482 15.8013 269.435 16.0136 269.435 16.0933C269.435 16.226 269.528 16.1994 269.708 16.0136C269.761 15.9871 269.801 15.9605 269.828 15.934C270.007 15.7814 270.333 15.5358 270.799 15.1974C271.265 14.8589 271.591 14.6134 271.771 14.4607L272.163 14.109L272.243 12.941V12.357C272.243 12.1778 272.256 12.0318 272.283 11.9323C272.31 11.8261 272.31 11.7398 272.283 11.6602C272.256 11.5806 272.236 11.5341 272.223 11.5076C272.21 11.481 272.143 11.481 272.03 11.5076C271.91 11.5341 271.811 11.5673 271.717 11.6071C271.624 11.6469 271.451 11.7332 271.192 11.8593C270.673 12.0916 270.054 12.3305 269.342 12.576C268.623 12.8216 268.177 12.9477 267.998 12.9477C267.505 12.9477 267.259 12.649 267.259 12.0518C267.259 11.6602 267.332 11.4147 267.472 11.3151C267.612 11.2089 267.958 11.1492 268.503 11.1227C268.916 11.1227 269.222 11.0895 269.422 11.0231C269.615 10.9568 270.001 10.7975 270.573 10.5387C271.378 10.1471 271.837 9.87504 271.957 9.72241C272.077 9.56977 272.097 9.21805 272.017 8.67387C271.99 8.52123 271.904 8.16287 271.764 7.60542C271.624 7.04797 271.558 6.59007 271.571 6.22507C271.584 5.86007 271.717 5.61453 271.984 5.48844C272.117 5.40881 272.21 5.37562 272.276 5.3889C272.343 5.40217 272.463 5.4619 272.649 5.56144C272.829 5.69417 272.962 5.86007 273.042 6.0658C273.121 6.27153 273.221 6.75598 273.354 7.50588C273.408 7.7116 273.447 7.9306 273.474 8.1496C273.501 8.3686 273.534 8.5146 273.574 8.57432C273.614 8.64069 273.734 8.70041 273.947 8.74687C274.179 8.79996 274.339 8.86632 274.412 8.93932C274.486 9.01232 274.532 9.15832 274.532 9.36405C274.532 9.59632 274.366 9.96131 274.026 10.4524L273.98 10.4922ZM272.03 18.5819C272.137 17.5201 272.137 16.8033 272.03 16.445C271.95 16.3189 271.757 16.3454 271.445 16.5445C271.132 16.7436 270.799 17.0024 270.453 17.3409C270.1 17.6793 269.861 17.9913 269.734 18.2766C269.601 18.5089 269.482 18.8473 269.362 19.2853C269.242 19.7233 269.209 19.9821 269.262 20.0618C269.315 20.1414 269.495 20.1215 269.808 20.0021C270.12 19.8826 270.819 19.5441 271.91 18.9734C271.964 19.0531 272.004 18.9203 272.03 18.5819ZM273.98 15.277C273.8 15.3301 273.687 15.4164 273.647 15.5292C273.607 15.642 273.561 15.9539 273.507 16.445C273.428 17.2745 273.494 17.7059 273.7 17.7258C273.807 17.7523 273.947 17.686 274.126 17.5333C274.279 17.4073 274.472 17.3409 274.692 17.3409C274.911 17.3409 275.051 17.4073 275.104 17.5333C275.417 18.0775 275.171 18.635 274.366 19.2057C274.053 19.3849 273.867 19.5508 273.8 19.6901C273.734 19.8361 273.674 20.1149 273.627 20.5263C273.574 20.9444 273.614 21.1501 273.747 21.1501C273.853 21.1501 274.159 20.971 274.685 20.606C274.865 20.4799 275.051 20.3604 275.231 20.2542C275.41 20.1481 275.544 20.075 275.623 20.022C275.703 19.9689 275.79 19.8959 275.896 19.7897C276.003 19.6835 276.116 19.5441 276.249 19.365C276.455 19.0531 276.568 18.7743 276.582 18.5288C276.595 18.2832 276.522 17.8851 276.369 17.3409C276.109 16.3322 275.69 15.6818 275.118 15.3965C274.672 15.1907 274.299 15.1509 273.986 15.277H273.98ZM276.828 5.28271C276.881 5.33581 277.174 5.58799 277.706 6.03925C278.238 6.49052 278.678 6.78252 279.01 6.91525C280.048 7.43288 280.621 7.81115 280.727 8.04342C280.933 8.50796 280.913 8.99905 280.667 9.50341C280.421 10.0078 280.035 10.1471 279.516 9.91486C279.336 9.83522 279.23 9.7755 279.203 9.72241C279.177 9.66932 279.177 9.52995 279.203 9.29768L279.283 8.87296L278.698 8.48142C278.518 8.37524 278.185 8.23587 277.706 8.05669C277.227 7.87751 276.834 7.68506 276.535 7.49261C276.236 7.30015 276.109 7.08115 276.162 6.84888C276.242 5.91316 276.462 5.39553 276.828 5.29599V5.28271Z" fill="#383838"/>
<path d="M289.377 25.3638C289.351 26.2862 289.311 26.8968 289.258 27.2087C289.204 27.6467 289.211 27.9121 289.278 28.005C289.344 28.0979 289.504 28.0382 289.763 27.8325C289.817 27.7794 290.089 27.5936 290.582 27.2684C291.074 26.9432 291.36 26.7308 291.44 26.6247C291.493 26.5716 291.786 26.3061 292.318 25.8283C292.851 25.3505 293.157 25.032 293.237 24.8727C293.443 24.5342 293.603 24.3551 293.703 24.3285C293.809 24.2754 293.942 24.2953 294.115 24.3882C294.281 24.4811 294.381 24.5873 294.408 24.72C294.641 25.032 294.368 25.6027 293.589 26.4322C292.811 27.2618 292.106 27.9121 291.487 28.3767C291.174 28.6089 290.768 28.8943 290.276 29.2327C288.639 30.4804 287.494 31.2568 286.842 31.5687C286.19 31.8806 285.698 31.8806 285.358 31.5687C285.205 31.4426 285.119 31.2435 285.105 30.9847C285.092 30.7259 285.125 30.0026 285.205 28.808C285.358 25.9809 285.312 24.1427 285.052 23.2866L284.779 22.1186L284.972 21.7271C285.105 21.4683 285.325 21.2426 285.638 21.0435C285.95 20.8444 286.183 20.8046 286.336 20.9042C286.443 20.9573 286.503 21.1962 286.529 21.6209C286.556 22.0456 286.569 22.5102 286.569 23.0012C286.569 23.4923 286.596 23.8042 286.649 23.937C286.802 24.9457 286.815 26.034 286.689 27.202C286.509 28.7549 286.483 29.611 286.609 29.7703C286.662 29.8499 286.722 29.8831 286.782 29.8698C286.849 29.8566 287.008 29.7437 287.268 29.538L287.774 29.1133L287.734 28.297C287.707 27.8059 287.754 27.1357 287.873 26.2929C287.993 25.45 288.06 24.7731 288.086 24.2489C288.346 19.7627 288.479 17.2011 288.479 16.5508L287.933 16.5906C287.621 16.6171 287.368 16.5375 287.175 16.3583C286.982 16.1791 286.855 15.9933 286.802 15.8141C286.749 15.6349 286.702 15.323 286.662 14.8784C286.622 14.4404 286.589 14.1285 286.563 13.9427C286.33 12.4362 286.157 11.5602 286.057 11.3014C285.924 10.9099 285.871 10.6245 285.884 10.4453C285.897 10.2662 285.997 10.0339 286.177 9.74853C286.356 9.51626 286.516 9.3769 286.642 9.33708C286.776 9.29726 286.982 9.31717 287.268 9.39681C287.421 9.4499 287.514 9.39681 287.541 9.24417C287.72 8.85263 288.359 8.56727 289.451 8.38809C290.542 8.20891 291.453 8.22218 292.179 8.42791C292.518 8.50754 292.758 8.58718 292.897 8.68009C293.037 8.773 293.19 8.91899 293.343 9.12472C293.756 9.80162 293.463 10.89 292.445 12.3898C292.239 12.7282 292.119 12.9539 292.092 13.0733C292.066 13.1928 292.119 13.3122 292.245 13.445C292.684 14.1418 292.378 14.7125 291.307 15.1571C291.021 15.2899 290.801 15.396 290.642 15.4889C290.489 15.5819 290.362 15.7079 290.269 15.8805C290.176 16.0464 290.116 16.1592 290.096 16.2123C290.069 16.2654 290.029 16.4379 289.976 16.7366C289.923 17.0352 289.883 17.2343 289.856 17.3405C289.803 17.5993 289.77 18.1833 289.757 19.0925C289.743 20.0016 289.757 20.4794 289.817 20.5325C289.896 20.6122 290.209 20.5325 290.755 20.3003C291.48 19.9618 292.212 19.4442 292.937 18.7474C293.483 18.2563 293.889 18.1501 294.148 18.4355C294.301 18.5682 294.368 18.7872 294.341 19.0991C294.315 19.3314 293.915 19.776 293.13 20.4197C292.352 21.0701 291.606 21.5877 290.908 21.9726C290.282 22.3376 289.903 22.5964 289.757 22.7491C289.617 22.9017 289.517 23.1738 289.464 23.5653C289.411 23.8507 289.371 24.4546 289.344 25.3704L289.377 25.3638ZM288.932 14.3807C289.071 14.2745 289.317 14.0422 289.65 13.6839C291.134 12.1774 291.926 11.1023 292.026 10.4586C292.079 10.2794 292.052 10.1334 291.946 10.0339C291.839 9.92771 291.673 9.87462 291.44 9.86135C291.207 9.84808 290.994 9.84144 290.795 9.84144C290.595 9.84144 290.362 9.85471 290.076 9.88126C289.79 9.90781 289.597 9.92108 289.49 9.92108C289.231 9.97417 288.918 10.1268 288.552 10.3856C288.186 10.6444 287.967 10.8037 287.887 10.8502C287.734 10.9033 287.647 10.963 287.634 11.0227C287.621 11.0891 287.634 11.2351 287.654 11.4673C287.681 11.6996 287.76 12.1973 287.887 12.9671C288.02 13.7303 288.08 14.1285 288.08 14.155C288.106 14.3342 288.14 14.447 288.18 14.4869C288.22 14.5267 288.319 14.5466 288.472 14.5466C288.625 14.5466 288.778 14.4935 288.918 14.394L288.932 14.3807ZM305.015 17.1414C304.835 17.1945 304.649 17.3604 304.469 17.6457C303.637 18.8403 302.819 19.8888 302.014 20.798C301.208 21.7072 300.61 22.2646 300.217 22.4703C299.751 22.8353 299.319 22.8088 298.933 22.3907C298.593 22.0788 298.633 21.8333 299.053 21.6541C299.132 21.601 299.206 21.5744 299.285 21.5744C299.492 21.5479 299.738 21.3953 300.024 21.1099C300.31 20.8245 300.596 20.4927 300.882 20.1211C301.169 19.7428 301.362 19.5039 301.468 19.4044C301.934 18.8867 302.326 18.3956 302.639 17.9245C302.952 17.4533 303.065 17.1746 302.992 17.0684C302.939 16.9887 302.639 16.8892 302.093 16.7565C301.342 16.6038 300.862 16.4313 300.669 16.2521C300.477 16.0729 300.443 15.7743 300.57 15.3562C300.676 15.0443 300.849 14.8784 301.095 14.8519C301.342 14.8253 301.814 14.9448 302.519 15.2036C303.012 15.3828 303.458 15.4757 303.844 15.4757C304.229 15.4757 304.529 15.2567 304.742 14.812C304.895 14.5267 305.028 14.2679 305.134 14.0356C305.241 13.8033 305.347 13.5246 305.467 13.1994C305.587 12.8742 305.707 12.5822 305.84 12.3234C306.126 11.6465 306.212 11.2815 306.093 11.2152C305.973 11.1488 305.554 11.3412 304.828 11.7792C303.89 12.35 303.205 12.6751 302.759 12.7481C302.08 12.9008 301.634 12.8145 301.415 12.4761C301.195 12.1376 301.215 11.5934 301.475 10.8435C302.02 9.13136 302.32 7.5121 302.373 5.98575C302.426 5.78002 302.459 5.65393 302.473 5.61411C302.486 5.57429 302.513 5.51457 302.553 5.44157C302.593 5.36857 302.626 5.30221 302.652 5.26902C302.679 5.22921 302.719 5.18939 302.772 5.14957C302.825 5.10975 302.885 5.08984 302.945 5.08984C303.005 5.08984 303.085 5.10312 303.158 5.12966C303.238 5.15621 303.311 5.2093 303.391 5.2823C303.73 5.43493 303.89 5.79329 303.877 6.35074C303.864 6.90819 303.677 7.88373 303.311 9.28399C303.285 9.41672 303.258 9.54944 303.231 9.69544C303.205 9.84144 303.178 9.95426 303.151 10.0472C303.125 10.1401 303.085 10.2463 303.032 10.379C302.925 10.744 302.892 10.9563 302.932 11.0227C302.972 11.0891 303.171 11.0227 303.537 10.8103C303.671 10.7573 304.05 10.5648 304.689 10.2263C305.327 9.8879 305.76 9.61581 305.993 9.41008C306.592 8.89245 307.084 8.72654 307.477 8.90572C307.71 8.98536 307.849 9.13136 307.889 9.35035C307.929 9.56935 307.909 9.94099 307.829 10.4586C307.596 11.6797 307.177 12.9074 306.578 14.155C306.212 14.9315 306.046 15.3695 306.073 15.4558C306.099 15.5487 306.485 15.6416 307.244 15.7478C307.53 15.8008 308.255 15.8871 309.426 15.9999C310.598 16.1128 311.522 16.2388 312.215 16.3716C312.9 16.5043 313.392 16.6569 313.678 16.8361C313.812 16.9688 313.858 17.1613 313.831 17.4201C313.752 17.8382 313.559 18.1036 313.246 18.2165C312.933 18.3293 312.554 18.2762 312.115 18.0439C311.855 17.9178 311.376 17.8116 310.671 17.732C308.042 17.367 306.159 17.1746 305.015 17.148V17.1414ZM310.977 30.0092C310.744 30.1154 310.405 30.1685 309.965 30.1817C309.52 30.195 309.227 30.2282 309.067 30.2813C305.713 30.9582 303.83 31.1639 303.411 30.9051C303.098 30.6994 303.032 30.3078 303.218 29.7371C303.424 29.1398 303.597 27.494 303.724 24.7997C303.804 23.3729 303.883 22.4902 303.977 22.1584C304.07 21.82 304.296 21.5612 304.662 21.382C305.101 21.1763 305.387 21.1298 305.52 21.2426C305.653 21.3621 305.66 21.7005 305.56 22.2713C305.48 22.842 305.427 23.1804 305.407 23.28C305.354 23.4326 305.354 23.5122 305.407 23.5122C305.487 23.5388 305.587 23.4326 305.72 23.2003C305.747 23.1738 305.76 23.1472 305.76 23.1207C306.046 22.6031 306.465 22.258 307.024 22.0921C307.583 21.9262 308.175 22.0589 308.801 22.5035C309.293 22.8154 309.633 23.3397 309.812 24.0763C309.992 24.813 309.965 25.6226 309.732 26.5052C309.599 27.0228 309.433 27.4675 309.227 27.8258C309.074 28.1112 309.027 28.2904 309.087 28.37C309.154 28.4497 309.38 28.4762 309.772 28.4497C310.212 28.3966 310.578 28.4696 310.864 28.662C311.15 28.8545 311.29 29.1067 311.29 29.4186C311.316 29.7039 311.21 29.8964 310.977 30.0026V30.0092ZM308.289 24.2157C308.155 24.0365 307.962 23.864 307.703 23.7113C307.29 23.6051 306.865 23.8839 306.439 24.5475C306.013 25.2111 305.653 26.107 305.367 27.2485C305.134 28.1842 305.041 28.7549 305.095 28.9607C305.148 29.1664 305.394 29.246 305.833 29.1929C306.352 29.1398 306.758 28.9938 307.044 28.7483C307.33 28.5027 307.643 28.0448 307.982 27.3679C308.242 26.8503 308.402 26.4389 308.468 26.1402C308.535 25.8416 308.541 25.47 308.488 25.032C308.488 24.667 308.422 24.3949 308.295 24.2157H308.289Z" fill="#383838"/>
<path d="M325.543 27.4877C325.35 27.6934 325.143 27.7731 324.937 27.72C324.831 27.7731 324.604 27.6802 324.252 27.4479C323.899 27.2156 323.6 26.9369 323.353 26.6117C323.107 26.2865 323.047 26.0609 323.18 25.9282C323.26 25.5167 323.473 25.2513 323.826 25.1517C324.179 25.0456 324.558 25.1517 324.977 25.4636C325.21 25.6428 325.416 25.8817 325.603 26.1605C325.782 26.4458 325.875 26.6781 325.875 26.8573C325.849 27.063 325.736 27.2754 325.543 27.4811V27.4877ZM323.886 19.3582C323.733 19.0729 323.646 18.7079 323.633 18.2699C323.62 17.8319 323.633 17.4072 323.693 17.009C323.746 16.6108 323.813 16.1994 323.886 15.7813C324.199 13.4254 324.451 11.8061 324.644 10.9434C324.837 10.074 325.057 9.56304 325.29 9.41041C325.782 9.0985 326.215 9.17813 326.574 9.64268C326.94 10.1072 327.066 10.6381 326.967 11.2354C326.887 11.6269 326.827 12.0782 326.794 12.5958C326.754 13.1135 326.694 13.5846 326.621 14.016C326.547 14.4474 326.414 14.9318 326.228 15.476C325.835 16.6705 325.603 17.5731 325.529 18.1969C325.396 19.2852 325.084 19.8294 324.591 19.8294C324.278 19.8029 324.045 19.6502 323.892 19.3649L323.886 19.3582Z" fill="#383838"/>
<path d="M190.682 18.5223C191.408 18.4028 192.02 18.6086 192.512 19.1262C192.951 19.6969 193.171 20.3672 193.158 21.1304C193.144 21.8935 192.905 22.5903 192.439 23.2075C192.286 23.4132 192.126 23.7185 191.973 24.1233C191.82 24.5281 191.647 24.8268 191.467 25.0391C191.388 25.1188 191.254 25.2847 191.055 25.5435C190.862 25.8023 190.676 26.028 190.509 26.227C190.343 26.4195 190.19 26.5589 190.063 26.6385C189.884 26.7447 189.618 26.8044 189.265 26.8309C188.912 26.8575 188.619 26.8177 188.387 26.7115C187.921 26.5058 187.761 26.101 187.921 25.5037C187.947 24.8533 187.974 24.3822 188.001 24.0835C188.027 23.7849 188.001 23.3137 187.921 22.6633C187.841 22.013 187.781 21.5418 187.728 21.2432C187.675 20.9445 187.588 20.4933 187.475 19.8827C187.355 19.2722 187.289 18.8541 187.262 18.6218C187.209 18.2834 187.235 18.0246 187.342 17.8454C187.448 17.6662 187.655 17.6131 187.967 17.6927C188.227 17.7193 188.42 17.8122 188.553 17.9648C188.686 18.1175 188.786 18.3896 188.866 18.7811C188.945 19.1992 189.005 19.4049 189.059 19.4049C189.425 18.9404 189.97 18.6484 190.696 18.5289L190.682 18.5223ZM191.64 20.991C191.654 20.8649 191.627 20.7388 191.561 20.6194C191.494 20.4999 191.447 20.4269 191.421 20.3871C191.394 20.3473 191.314 20.2743 191.188 20.1747C191.035 20.0486 190.842 20.0553 190.622 20.2145C190.403 20.3672 190.21 20.6194 190.057 20.9512C189.904 21.3162 189.797 21.7475 189.744 22.2519C189.691 22.7563 189.704 23.1943 189.784 23.5526C189.864 23.9176 189.99 24.0702 190.176 24.0172C190.569 23.9641 191.008 23.108 191.501 21.4489C191.581 21.2697 191.62 21.1104 191.64 20.9844V20.991ZM198.587 10.353C199.213 9.96145 199.652 9.769 199.912 9.769C199.991 9.769 200.065 9.84863 200.144 10.0013C200.224 10.1539 200.264 10.3264 200.264 10.5056C200.264 10.7644 200.191 10.9635 200.051 11.1095C199.912 11.2555 199.579 11.4413 199.06 11.6736L198.281 12.0652V12.689C198.281 13.7242 198.501 14.4144 198.947 14.7529C199.1 14.8856 199.186 14.9785 199.2 15.0449C199.213 15.1112 199.2 15.2174 199.14 15.3767C198.774 16.2859 198.335 16.4385 197.815 15.8412C197.45 15.4497 197.23 14.9719 197.15 14.4011C197.097 14.1423 197.044 13.8769 196.997 13.6048C196.944 13.3327 196.877 13.1071 196.804 12.9212C196.751 12.8416 196.671 12.8084 196.571 12.8217C196.465 12.835 196.165 12.9212 195.673 13.0739C195.227 13.2066 194.641 13.346 193.896 13.4986C193.151 13.6512 192.665 13.7309 192.432 13.7309C192.146 13.7574 192 13.5185 191.986 13.0142C191.973 12.5098 192.033 12.178 192.159 12.0253C192.186 11.9723 192.472 11.9324 193.018 11.9059C193.563 11.8793 194.102 11.8594 194.635 11.8462C195.167 11.8329 195.433 11.7864 195.433 11.7068C195.773 11.5542 195.986 11.4082 196.079 11.2821C196.172 11.156 196.218 10.9436 196.218 10.6583C196.218 10.6052 196.232 10.5388 196.258 10.4658C196.258 10.2335 196.272 10.0544 196.298 9.94154C196.325 9.82209 196.352 9.66945 196.378 9.477C196.405 9.28455 196.445 9.13855 196.498 9.05228C196.551 8.95937 196.618 8.87973 196.691 8.8001C196.764 8.72046 196.871 8.69391 197.004 8.72046C197.137 8.747 197.263 8.8001 197.396 8.87309C197.529 8.97928 197.589 9.19827 197.589 9.53673C197.642 10.5454 197.982 10.8175 198.601 10.353H198.587ZM205.548 31.0981C205.355 30.9587 205.135 30.7796 204.902 30.5738C204.669 30.3681 204.496 30.2354 204.396 30.1823C204.057 30.2885 203.605 30.4411 203.032 30.6468C202.46 30.8526 201.841 31.0782 201.183 31.3304C200.517 31.5759 200.071 31.7418 199.838 31.8148C199.526 31.9675 199.213 31.9874 198.9 31.8745C198.587 31.7617 198.394 31.5825 198.315 31.3503C198.235 31.1711 198.035 31.0185 197.709 30.9056C197.383 30.7862 197.223 30.5871 197.223 30.3017C197.17 30.1226 197.13 29.9699 197.103 29.8571C197.077 29.7377 197.057 29.5983 197.044 29.4324C197.03 29.2665 197.017 29.1404 197.004 29.0607C196.99 28.9811 197.004 28.8218 197.024 28.5763C197.05 28.3308 197.07 28.1449 197.084 28.0122C197.097 27.8861 197.123 27.614 197.163 27.1959C197.203 26.7845 197.237 26.446 197.263 26.1872C197.263 25.955 197.263 25.6364 197.283 25.2316C197.296 24.8334 197.303 24.5613 197.303 24.4352C197.303 24.3092 197.323 24.0636 197.363 23.7185C197.403 23.3734 197.463 23.0018 197.536 22.6103C197.609 22.2187 197.702 21.6878 197.809 21.0175C198.122 19.4646 198.448 18.582 198.78 18.3763C198.987 18.2502 199.213 18.2635 199.466 18.436C199.712 18.6019 199.858 18.8475 199.912 19.1527C199.938 19.385 199.978 19.5177 200.031 19.5443C200.085 19.5708 200.211 19.531 200.424 19.4248C200.63 19.3186 200.837 19.2589 201.049 19.2324C201.389 19.1527 201.828 19.0399 202.374 18.8806C202.919 18.7214 203.332 18.6218 203.605 18.5687C203.877 18.5157 204.204 18.4692 204.576 18.4294C204.955 18.3896 205.295 18.4028 205.608 18.4692C205.92 18.5356 206.233 18.655 206.546 18.8408C207.171 19.1262 207.59 19.5177 207.81 20.0088C208.03 20.4999 208.183 21.4754 208.256 22.9222C208.309 23.8048 208.336 24.3622 208.336 24.5945C208.336 24.8268 208.283 25.2183 208.183 25.7625C208.076 26.3067 208.003 26.7447 207.95 27.0831C207.923 27.5012 207.917 27.7733 207.93 27.8994C207.943 28.0321 208.003 28.2246 208.103 28.4834C208.309 28.6891 208.396 28.9081 208.356 29.1271C208.316 29.3461 208.249 29.5253 208.163 29.6514C208.07 29.7841 207.943 29.9301 207.77 30.096C207.604 30.2619 207.491 30.4013 207.437 30.5075C207.304 30.7132 207.098 30.8924 206.812 31.0317C206.526 31.1777 206.266 31.2441 206.033 31.2441C205.9 31.2972 205.741 31.2507 205.548 31.1047V31.0981ZM201.475 25.5568C201.395 25.5833 201.196 25.6364 200.87 25.7094C200.544 25.789 200.298 25.8554 200.131 25.9019C199.965 25.955 199.765 26.0346 199.546 26.1341C199.326 26.2403 199.16 26.3399 199.06 26.446C199.033 26.5788 198.967 27.1827 198.867 28.271C198.814 29.2333 198.814 29.7841 198.867 29.9235C198.92 30.0695 199.166 30.0827 199.605 29.9832C199.998 29.877 200.271 29.7111 200.424 29.4788C201.336 27.4282 201.682 26.1209 201.475 25.5501V25.5568ZM199.798 21.5153C199.592 21.8272 199.426 22.3249 199.313 23.0151C199.193 23.7052 199.213 24.1233 199.373 24.276C199.506 24.4286 199.878 24.4352 200.504 24.2959C201.129 24.1565 201.502 23.9773 201.635 23.7716C201.688 23.6654 201.722 23.1611 201.735 22.2519C201.748 21.3427 201.735 20.8516 201.675 20.772C201.282 20.4601 200.663 20.7056 199.805 21.5086L199.798 21.5153ZM204.343 22.2519C204.849 21.8139 205.235 21.5883 205.494 21.5883C205.647 21.5883 205.787 21.6546 205.907 21.7807C206.027 21.9134 206.08 22.0528 206.08 22.2054C206.08 22.3846 205.82 22.7297 205.301 23.2341C204.782 23.7384 204.31 24.0702 203.897 24.2229C203.558 24.3556 203.305 24.6211 203.139 25.0192C202.972 25.4241 202.833 25.935 202.726 26.5522C202.62 27.176 202.52 27.6273 202.414 27.9127C202.307 28.1715 202.241 28.3639 202.201 28.4967C202.161 28.6294 202.134 28.7422 202.121 28.8484C202.107 28.9546 202.121 29.0077 202.141 29.0209C202.167 29.0342 202.234 29.0408 202.334 29.0408C202.434 29.0408 202.547 29.0209 202.666 28.9811C202.786 28.9413 202.959 28.9015 203.192 28.8617C203.425 28.8218 203.645 28.7754 203.857 28.7223C204.896 28.4635 205.548 28.3108 205.807 28.2578C206.04 28.2312 206.2 28.1648 206.273 28.0653C206.353 27.9591 206.406 27.7534 206.426 27.4415C206.453 27.2358 206.506 26.9239 206.579 26.5058C206.659 26.0943 206.719 25.7691 206.752 25.5369C206.785 25.3046 206.832 24.9993 206.872 24.6211C206.912 24.2428 206.925 23.8778 206.912 23.5128C206.898 23.1478 206.878 22.7762 206.852 22.3846C206.745 21.4754 206.566 20.8848 206.306 20.6127C206.047 20.3406 205.541 20.0885 204.782 19.8562C204.55 19.8296 204.27 19.8562 203.944 19.9159C203.618 19.9823 203.418 20.0553 203.338 20.1283C203.259 20.1814 203.205 20.6592 203.185 21.5684C203.185 22.1656 203.185 22.5373 203.205 22.6965C203.219 22.8492 203.265 22.9288 203.345 22.9288C203.498 22.9023 203.831 22.67 204.337 22.232L204.343 22.2519ZM209.507 9.26464L210.445 9.185C210.651 9.185 211.004 9.14518 211.497 9.06555C211.989 8.98591 212.348 8.94609 212.568 8.94609C212.787 8.94609 213.067 8.99918 213.406 9.09873C213.692 9.35755 213.679 9.74909 213.366 10.2667C213 10.8905 212.561 11.0432 212.042 10.7313C211.962 10.6052 211.516 10.5654 210.698 10.6118C209.88 10.6649 209.367 10.7047 209.161 10.7313C208.928 10.8374 208.715 11.302 208.535 12.1315C208.509 12.47 208.442 12.7885 208.342 13.0872C208.236 13.3858 208.156 13.6048 208.09 13.7508C208.023 13.8968 207.903 14.1224 207.717 14.4343C207.537 14.7462 207.417 14.952 207.364 15.0581C207.311 15.1378 207.158 15.2506 206.898 15.4099C206.639 15.5625 206.453 15.589 206.353 15.4895C206.246 15.3833 206.213 15.2506 206.233 15.078C206.26 14.9121 206.386 14.5803 206.626 14.0892C207.091 13.0805 207.324 12.105 207.324 11.1759C207.324 11.0498 207.304 10.9702 207.264 10.9436C207.225 10.9171 207.078 10.9038 206.819 10.9038C206.326 10.9038 205.455 10.8374 204.204 10.7114C202.953 10.5853 202.334 10.4658 202.334 10.3596C202.254 10.2534 202.241 10.1141 202.294 9.9349C202.347 9.75572 202.447 9.60972 202.607 9.51018C202.839 9.35755 203.179 9.26464 203.618 9.23809C204.057 9.21155 204.596 9.23809 205.235 9.29782C205.874 9.36418 206.333 9.38409 206.619 9.35755C207.244 9.38409 207.617 9.35755 207.75 9.258C207.883 9.16509 207.983 8.88637 208.063 8.42183C208.169 7.90419 208.269 7.55247 208.376 7.37329C208.482 7.19411 208.688 7.02156 209.001 6.86893C209.467 6.53048 209.78 6.48402 209.939 6.72957C210.092 6.97511 210.046 7.37329 209.786 7.91747C209.607 8.25592 209.514 8.56782 209.514 8.85319V9.27791L209.507 9.26464Z" fill="#383838"/>
</g>
<defs>
<clipPath id="clip0_360_1774">
<rect width="327" height="38.1057" fill="white"/>
</clipPath>
</defs>
</svg>
