<svg width="241" height="103" viewBox="0 0 241 103" fill="none" xmlns="http://www.w3.org/2000/svg">
<path d="M0.6749 19.4656C1.20721 18.9242 1.59943 18.7002 1.85158 18.7935C2.16909 18.7935 2.7014 18.5508 3.43915 18.0747C4.17691 17.5893 4.78392 17.0852 5.26954 16.5345C5.75515 15.9931 6.13803 15.6197 6.42753 15.4236C7.03455 14.9755 7.53884 14.9289 7.92172 15.2836C8.17387 15.545 8.14585 15.881 7.82834 16.2918C7.47347 16.7398 7.17463 17.608 6.94116 18.8869C6.69836 20.1751 6.45555 22.3035 6.19407 25.2906C6.10068 26.2241 5.90457 27.475 5.61507 29.0433C5.32557 30.6209 5.12946 31.8344 5.03607 32.7026C4.90533 33.9908 4.71855 34.9616 4.45707 35.6431C4.36368 35.7737 4.19559 35.8858 3.95278 35.9791C3.70997 36.0725 3.47651 36.0631 3.25238 35.9324C2.89751 35.7737 2.72007 35.4563 2.72007 34.9896C2.72007 34.5229 2.86015 33.6641 3.14965 32.4132C3.37378 31.6477 3.56056 30.9103 3.70064 30.2008C3.84072 29.4913 3.96212 28.7539 4.06484 27.9884C4.16757 27.223 4.23294 26.5975 4.27963 26.1308C4.32633 25.664 4.3917 24.9452 4.47575 23.9651C4.55046 22.9849 4.61583 22.2848 4.64384 21.8741C4.67186 21.5847 4.70921 21.3233 4.73723 21.0806C4.76525 20.8379 4.79326 20.6325 4.81194 20.4551C4.83062 20.2778 4.83996 20.1284 4.85863 19.9977C4.87731 19.867 4.87731 19.7644 4.85863 19.6803C4.83996 19.5963 4.83062 19.5403 4.81194 19.5123C4.79326 19.4843 4.77459 19.4656 4.73723 19.4656C4.54112 19.531 3.96212 19.8577 2.98156 20.4551C2.00099 21.0526 1.24456 21.398 0.693578 21.4913C0.24532 21.4913 0.0211919 21.2206 0.0211919 20.6698C-0.072195 20.4178 0.142595 20.0164 0.6749 19.4656ZM7.89371 7.75032C8.25792 7.89035 8.33263 8.24507 8.1085 8.7865C7.59487 9.16923 6.70769 9.62664 5.45631 10.1587C4.20493 10.6908 3.27106 10.9709 2.66404 10.9989C2.43991 10.9989 2.26248 10.8402 2.13174 10.5134C1.93562 10.0654 1.99166 9.72933 2.27182 9.50529C2.56132 9.28125 3.28039 8.99186 4.43839 8.63714C5.42829 8.31975 6.11002 8.07704 6.46489 7.91834C7.04389 7.6663 7.52016 7.60096 7.88437 7.75032H7.89371ZM21.2574 21.6313C21.6122 21.8274 21.743 22.0047 21.6403 22.1821C21.5469 22.3595 21.108 22.7982 20.3422 23.5077C19.9219 23.8904 19.6044 24.3571 19.3803 24.9079C19.0254 25.6734 18.9507 26.0841 19.1375 26.1121C19.2029 26.1121 19.2776 26.0934 19.3803 26.0654C20.1461 25.9067 21.7243 26.3081 24.0963 27.2696C24.8621 27.587 26.2349 27.9884 28.2147 28.4738C30.1945 28.9593 31.3245 29.2953 31.6046 29.482C32.305 29.678 32.9774 29.8647 33.6031 30.0608C34.2288 30.2568 34.9666 30.4995 35.8164 30.8076C36.6662 31.1156 37.3666 31.3583 37.9083 31.5544C39.7013 32.1611 41.018 32.4225 41.8585 32.3198C42.5589 32.3198 43.1099 32.4318 43.4928 32.6559C43.8757 32.8799 43.9224 33.3187 43.6329 33.9534C43.4741 34.4015 43.3154 34.6442 43.1473 34.6722C42.699 34.7376 41.8025 34.6349 40.4484 34.3548C39.1036 34.0841 38.0577 33.7854 37.3199 33.468C37.0958 33.3373 36.6942 33.2066 36.1152 33.0573C35.5362 32.9079 35.1347 32.7772 34.9105 32.6465C34.4623 32.4879 33.5284 32.1798 32.1183 31.7317C30.7081 31.2836 29.354 30.8542 28.0466 30.4528C26.7485 30.0514 25.6652 29.7434 24.7967 29.51C24.5353 29.4167 23.8349 29.1459 22.6769 28.6885C21.5189 28.2405 20.7157 27.9698 20.2675 27.8671C19.95 27.8391 19.6044 27.727 19.2309 27.531C18.8573 27.335 18.5772 27.251 18.3904 27.2696C18.1943 27.2883 17.9702 27.503 17.718 27.9231C17.6526 28.0538 17.4378 28.3992 17.0643 28.9593C16.6908 29.5194 16.3546 30.0514 16.0557 30.5462C15.7475 31.0409 15.5328 31.405 15.402 31.629C14.4401 33.7481 13.6183 34.4669 12.9459 33.7947C12.6845 33.5707 12.6004 33.2813 12.6845 32.9266C12.7592 32.5719 12.8806 32.2731 13.0487 32.0118C13.2074 31.7597 13.4129 31.4517 13.6463 31.0969C13.8891 30.7422 14.0386 30.4902 14.1039 30.3315C14.3934 29.7247 14.9257 28.8846 15.6915 27.8017C16.4573 26.7282 17.055 25.7387 17.4752 24.8426C18.0542 23.657 18.4931 22.8355 18.8013 22.3875C19.1095 21.9394 19.3896 21.65 19.6418 21.5193C20.2208 21.2953 20.7531 21.3233 21.2294 21.6127L21.2574 21.6313ZM21.5936 8.39443C22.7516 7.2369 23.3306 6.90085 23.3306 7.38626C23.3306 7.89968 22.7329 8.82383 21.5469 10.1494C20.3609 11.4843 19.3803 12.3431 18.6052 12.7258C18.3437 12.8845 18.0729 12.9685 17.7834 12.9685C17.4939 12.9685 17.2978 12.9405 17.2044 12.8939C17.111 12.8472 16.8962 12.7258 16.5787 12.5298C16.3546 12.1751 16.2332 11.8577 16.2145 11.5683C16.1958 11.2789 16.2612 10.8589 16.4106 10.2894C16.5507 9.72933 16.6441 9.31859 16.6721 9.06655C16.8308 8.3571 16.9616 7.89968 17.055 7.66631C17.1483 7.44227 17.3445 7.12489 17.634 6.70482C17.8581 6.48078 18.0262 6.37808 18.1383 6.38742C18.2503 6.40609 18.4184 6.57412 18.6425 6.89151C18.7733 7.0222 18.8387 7.24624 18.8387 7.56363C18.8387 7.88101 18.8106 8.18906 18.7639 8.47845C18.7173 8.76783 18.6425 9.09455 18.5492 9.46794C18.4558 9.84134 18.4091 10.1027 18.4091 10.2614C18.3811 10.5228 18.3717 10.6815 18.3811 10.7468C18.3997 10.8122 18.4651 10.8402 18.5958 10.8402C18.9507 10.8402 19.9406 10.0187 21.5842 8.38509L21.5936 8.39443ZM31.1004 19.6803C30.6054 20.3991 30.2412 20.9219 30.0171 21.2486C29.7929 21.566 29.4754 22.0047 29.0739 22.5462C28.6723 23.0969 28.2614 23.5637 27.8505 23.9651C27.4302 24.3665 26.982 24.7585 26.5057 25.1413C25.5438 25.524 24.9462 25.524 24.722 25.1413C24.5633 24.9826 24.4605 24.8332 24.4325 24.7119C24.4045 24.5812 24.4045 24.3478 24.4325 23.9931C24.4325 23.2276 24.6286 21.874 25.0302 19.9511C25.4318 18.0281 25.6652 16.7118 25.7306 16.0024C25.824 14.9475 26.0388 14.014 26.3563 13.2112C26.6084 12.8565 26.982 12.7912 27.4676 13.0152C27.9532 13.2393 28.0933 13.566 27.8972 13.9767C27.8038 14.8449 27.6357 15.9557 27.4116 17.3186C27.1874 18.6815 26.9913 19.6057 26.8326 20.0817C26.7018 20.3711 26.6178 20.8005 26.5898 21.3793C26.5617 21.9581 26.5711 22.2661 26.6365 22.2941C26.8326 22.4248 27.6637 21.5287 29.1392 19.6243C30.6147 17.72 31.3992 16.5345 31.5019 16.0864C31.6607 15.1902 32.0342 14.8542 32.6132 15.0782C32.8373 15.2089 32.9774 15.3396 33.0241 15.489C33.0708 15.6383 33.0521 15.8437 32.9494 16.1144C32.856 16.3851 32.7907 16.6092 32.7533 16.7679C32.6599 17.44 32.4451 17.9067 32.1276 18.1681C31.9315 18.4575 31.586 18.9616 31.091 19.6803H31.1004ZM31.9408 4.06303C32.0996 4.22173 32.1836 4.41776 32.1836 4.64179C32.1556 4.93118 32.0342 5.18322 31.8194 5.38859C31.6046 5.59396 31.2591 5.86466 30.7642 6.18205C30.2692 6.49944 29.9984 6.67681 29.9704 6.71415C28.2707 7.74099 26.9353 7.83433 25.9734 7.00353C25.5252 6.62079 25.3104 6.12605 25.3197 5.53795C25.3384 4.94052 25.5999 3.78298 26.1135 2.04669C26.3096 1.37457 26.4497 0.935832 26.5431 0.749134C26.6365 0.562436 26.8326 0.385065 27.1221 0.217037C27.6077 -0.0723456 27.9906 -0.0723456 28.2801 0.217037C28.5322 0.506419 28.3735 1.48659 27.7945 3.15754C27.505 4.02569 27.3555 4.58579 27.3369 4.83783C27.3182 5.09921 27.4116 5.2859 27.5983 5.41659C27.9159 5.64063 28.691 5.36991 29.905 4.59512C30.7081 4.0817 31.1844 3.82966 31.3525 3.82966C31.5766 3.82966 31.7727 3.91367 31.9315 4.07236L31.9408 4.06303Z" fill="white"/>
<path d="M138.168 8.97319C138.57 8.30107 138.785 7.881 138.822 7.72231C139.074 7.47027 139.289 7.49826 139.448 7.81565C139.541 7.97435 139.532 8.45976 139.401 9.26257C139.139 10.5134 138.953 12.0444 138.822 13.8553C138.691 15.6663 138.616 17.0572 138.579 18.0187C138.551 18.9802 138.532 20.8472 138.532 23.601V28.3618C138.56 29.1926 138.448 29.8087 138.196 30.1914C137.935 30.5742 137.599 30.6769 137.188 30.4808C136.674 30.2568 136.478 29.7714 136.609 29.0339C136.833 18.2241 137.104 12.091 137.43 10.6441C137.524 10.1961 137.776 9.63597 138.178 8.96386L138.168 8.97319ZM142.595 22.3501C142.389 22.5088 142.165 22.6395 141.941 22.7329C141.717 22.8262 141.493 22.8635 141.269 22.8262C140.503 22.8262 140.111 22.6302 140.111 22.2474C140.111 21.8647 140.363 21.6687 140.876 21.6687C141.007 21.6687 141.306 21.51 141.792 21.1833C142.277 20.8659 142.838 20.4738 143.473 20.0071C144.117 19.5403 144.528 19.2416 144.724 19.1202L145.154 18.8775L145.2 17.8694C145.2 17.1599 145.154 16.7585 145.06 16.6652C144.967 16.5718 144.687 16.6465 144.238 16.9079C144.014 17.0386 143.566 17.3373 142.894 17.7947C142.221 18.2614 141.754 18.5415 141.493 18.6348C141.399 18.6348 141.166 18.7282 140.792 18.9242C140.419 19.1202 140.129 19.2416 139.905 19.3069C139.681 19.3723 139.476 19.2883 139.279 19.0642C138.99 18.6815 139.308 18.2614 140.241 17.8134C140.494 17.6827 141.231 17.2253 142.455 16.4411C143.678 15.657 144.462 15.2463 144.817 15.2182C145.069 15.2182 145.172 15.0782 145.107 14.7888C145.079 14.6581 145.06 13.8553 145.06 12.3804L145.107 10.0747C145.107 10.0747 144.995 10.0094 144.864 9.87867C144.733 9.74799 144.649 9.67331 144.603 9.63597C144.556 9.60797 144.462 9.55195 144.313 9.49594C144.173 9.4306 144.052 9.4306 143.949 9.49594C143.052 9.62663 142.427 9.87868 142.072 10.2614C141.848 10.5228 141.567 10.7748 141.231 11.0269C140.895 11.2882 140.69 11.3816 140.634 11.3162C140.662 11.2509 140.764 11.0455 140.923 10.6908C141.082 10.3361 141.203 10.0934 141.287 9.97203C141.371 9.84134 141.493 9.63596 141.67 9.34658C141.848 9.0572 142.006 8.85183 142.156 8.72114C142.296 8.59045 142.483 8.4411 142.707 8.26374C142.931 8.08637 143.183 7.96502 143.454 7.89968C143.725 7.83433 144.024 7.80632 144.341 7.80632C144.92 7.80632 145.368 7.93701 145.686 8.18906C146.069 8.54378 146.312 8.92651 146.405 9.34658C146.498 9.76665 146.582 10.6815 146.648 12.091C146.741 13.6033 146.956 18.0561 147.273 25.468C147.301 25.9814 147.311 26.5602 147.301 27.2043C147.283 27.8484 147.236 28.4458 147.161 29.0059C147.077 29.566 146.9 30.0328 146.61 30.4062C146.321 30.7796 145.957 30.9569 145.499 30.9569C144.948 31.0223 144.528 30.8916 144.22 30.5742C143.911 30.2568 143.603 29.594 143.276 28.6045C143.052 27.8391 142.875 27.643 142.744 28.0258C142.613 28.3431 142.24 28.6979 141.614 29.0806C140.988 29.4633 140.531 29.5753 140.241 29.4166C140.148 29.3513 140.101 29.202 140.101 28.9592C140.101 28.7165 140.167 28.5485 140.297 28.4552C140.456 28.3245 141.119 27.5963 142.296 26.2615C143.463 24.9266 144.248 24.0211 144.631 23.545C144.985 23.0969 145.21 22.7235 145.303 22.4341C145.396 22.1448 145.434 21.7434 145.396 21.2299C145.331 20.6512 145.228 20.3524 145.079 20.3431C144.939 20.3244 144.593 20.5952 144.042 21.1366C143.435 21.7434 143.099 22.0514 143.034 22.0514C142.94 22.0887 142.782 22.1821 142.576 22.3408L142.595 22.3501ZM145.508 28.7539C145.798 27.475 145.798 26.2988 145.508 25.2439C145.48 25.0852 145.424 24.9546 145.368 24.8612C145.303 24.8612 145.088 25.1133 144.715 25.608C144.341 26.1028 144.08 26.4948 143.921 26.7842C143.762 27.1016 143.687 27.3723 143.706 27.5777C143.725 27.783 143.855 28.1004 144.117 28.5205C144.761 29.9674 145.228 30.0421 145.518 28.7632L145.508 28.7539ZM162.99 20.7632C162.57 21.1833 162.206 21.5287 161.879 21.7994C161.562 22.0701 161.328 22.2568 161.207 22.3501C161.113 22.5088 161.067 22.6208 161.067 22.6862C161.067 22.7515 161.132 22.8449 161.263 22.9756C161.907 23.3956 162.383 23.6943 162.71 23.8624C163.028 24.0397 163.28 24.1518 163.457 24.1984C163.635 24.2451 163.98 24.3851 164.494 24.6092C165.008 24.8332 165.652 25.1413 166.418 25.524C166.959 25.7854 168.211 26.3268 170.153 27.1576C172.096 27.9884 173.534 28.6699 174.458 29.1833C174.748 29.3793 175.196 29.6033 175.803 29.8554C176.634 30.2381 177.167 30.5275 177.391 30.7235C177.615 30.9196 177.727 31.2183 177.727 31.6384C177.662 32.0864 177.549 32.4038 177.391 32.5999C177.232 32.7959 177.008 32.8519 176.718 32.7679C176.429 32.6839 176.167 32.5719 175.953 32.4318C175.728 32.2918 175.43 32.0771 175.065 31.8064C174.692 31.5357 174.43 31.3303 174.272 31.209C173.534 30.7889 172.609 30.3315 171.507 29.8087C170.396 29.2953 169.191 28.7539 167.875 28.1751C166.558 27.5964 165.624 27.1856 165.082 26.9242C164.952 26.8589 164.531 26.6535 163.803 26.2988C163.084 25.9441 162.505 25.6733 162.066 25.4773C161.627 25.2813 161.141 25.0852 160.6 24.8799C160.049 24.6745 159.657 24.5345 159.395 24.4692C159.171 24.4692 159.003 24.5158 158.891 24.6092C158.779 24.7025 158.639 24.8986 158.48 25.1879C158.162 25.9254 157.761 26.6162 157.275 27.2603C156.79 27.9044 156.425 28.4365 156.164 28.8472C155.716 29.4913 155.286 29.9394 154.884 30.1914C154.483 30.4528 154.044 30.4622 153.558 30.2381C153.428 30.1074 153.316 29.8834 153.222 29.566C153.129 29.2486 153.091 28.9873 153.129 28.8006C153.194 28.6045 153.222 26.5415 153.222 22.5928C153.222 19.1576 153.269 16.8799 153.362 15.7597C153.456 14.6395 153.68 13.4819 154.035 12.2964C154.165 12.0444 154.268 11.559 154.352 10.8495C154.436 10.14 154.586 9.69198 154.81 9.50528C155.034 9.2159 155.323 9.18789 155.678 9.41193C156.033 9.63597 156.173 9.90668 156.108 10.2334C156.042 10.4574 155.996 10.7095 155.968 10.9802C155.94 11.2509 155.921 11.4749 155.921 11.6523C155.921 11.8297 155.94 11.9137 155.968 11.9137C156.033 11.8857 156.369 11.7177 156.976 11.4283C159.031 10.4388 160.086 9.82266 160.151 9.59862C160.217 9.50528 160.151 9.34658 159.955 9.1132C159.797 8.91717 159.479 8.72114 159.012 8.51577C158.545 8.3104 158.181 8.19839 157.929 8.19839C157.574 8.19839 157.546 8.02103 157.835 7.6663C157.994 7.44227 158.2 7.28357 158.461 7.18088C159.04 6.98485 159.629 7.04086 160.245 7.3209C160.786 7.54494 161.216 8.01169 161.524 8.72114C161.832 9.43059 161.954 10.2334 161.888 11.1295C161.823 11.895 161.73 12.5018 161.599 12.9312C161.468 13.3606 161.337 13.6593 161.216 13.818C161.085 13.9767 160.796 14.3034 160.348 14.7795C160.282 14.8449 160.002 15.1342 159.507 15.6476C159.012 16.1611 158.62 16.5438 158.349 16.8052C158.078 17.0666 157.723 17.3373 157.294 17.6267C156.864 17.916 156.481 18.0747 156.164 18.1121C155.968 18.0467 155.762 18.0654 155.538 18.1587C155.314 18.2521 155.165 18.3828 155.109 18.5415C155.043 18.7655 154.997 20.2871 154.969 23.1156C154.969 25.0386 154.969 26.2335 154.997 26.7002C155.015 27.1669 155.071 27.4003 155.165 27.4003C155.295 27.4377 155.482 27.2603 155.744 26.8962C155.996 26.5322 156.276 26.1028 156.565 25.6173C156.855 25.1319 157.079 24.8145 157.238 24.6558C157.462 24.4972 157.602 24.2918 157.649 24.0584C157.695 23.825 157.705 23.6103 157.677 23.433C157.649 23.2556 157.677 23.0689 157.77 22.8822C157.863 22.6955 158.078 22.5275 158.396 22.3968C158.881 22.2008 159.61 21.6407 160.59 20.7165C161.571 19.783 162.187 19.2696 162.449 19.1762C162.58 19.1482 162.738 18.9802 162.934 18.6908C163.131 18.4015 163.289 18.2054 163.42 18.0934C163.551 17.9814 163.738 17.9907 163.999 18.1214C164.13 18.2521 164.204 18.5041 164.242 18.8869L164.335 19.4656L163.037 20.7632H162.99ZM154.95 17.4866C155.435 17.3279 155.772 17.1879 155.958 17.0759C156.155 16.9639 156.36 16.7585 156.584 16.4504C156.808 16.1424 157.032 15.881 157.256 15.657C157.611 15.3396 158.022 14.8355 158.508 14.1634C158.993 13.4913 159.339 13.0525 159.563 12.8658L159.806 12.6231C159.871 12.5578 159.909 12.4645 159.927 12.3338C159.946 12.2031 159.955 12.1284 159.974 12.091C159.993 12.063 160.002 11.951 160.002 11.755V11.4189C160.03 11.1949 159.871 11.2136 159.516 11.4656C159.423 11.531 159.339 11.5963 159.274 11.6616C159.208 11.7923 158.909 11.9604 158.386 12.1657C157.854 12.3711 157.378 12.5205 156.939 12.5951C156.509 12.6792 156.239 12.6325 156.145 12.4738C155.986 12.3151 155.856 12.2777 155.762 12.3804C155.632 12.5111 155.491 12.9685 155.333 13.7527C155.174 14.5368 155.071 15.2836 155.043 15.993L154.95 17.4866Z" fill="white"/>
<path d="M192.593 0.310366C192.883 0.46906 193.079 0.758435 193.191 1.17851C193.303 1.59858 193.387 1.99999 193.453 2.38272C193.518 2.76545 193.565 3.24153 193.593 3.80163C193.621 4.36172 193.677 4.79113 193.733 5.08051C193.798 5.34189 193.798 5.97666 193.733 7.0035C193.705 7.93699 193.733 8.46908 193.826 8.61843C193.92 8.76779 194.228 8.73979 194.741 8.54375C197.664 7.6476 199.504 7.55426 200.279 8.25437C200.727 8.6091 200.952 9.21588 200.952 10.084C200.952 10.9522 200.821 11.7643 200.569 12.5111C200.307 13.2672 200.055 13.79 199.803 14.0794C197.945 16.9359 195.89 19.1856 193.639 20.8192C193.509 20.9779 193.425 21.2206 193.378 21.538C193.331 21.8554 193.303 22.2474 193.303 22.6955C193.303 23.1436 193.285 23.4796 193.256 23.7037C193.098 24.6652 193.06 27.0176 193.163 30.7515C193.256 34.4948 193.294 36.5952 193.256 37.0806C193.256 37.7901 192.995 38.3035 192.491 38.6208C191.977 38.9382 191.445 38.8262 190.903 38.2848C190.165 37.6407 190.072 37.1179 190.614 36.6979C190.772 36.5672 190.875 36.4178 190.931 36.2405C190.987 36.0631 191.034 35.587 191.099 34.8215C191.165 33.9254 191.202 31.7877 191.221 28.4178C191.239 25.0479 191.221 23.2089 191.146 22.8822C191.118 22.6581 191.006 22.5275 190.828 22.4995C190.651 22.4715 190.502 22.4995 190.371 22.5928C190.277 22.6862 189.923 22.8168 189.316 22.9755C187.868 23.3956 186.878 23.3769 186.327 22.9289C186.066 22.7048 186.056 22.4435 186.28 22.1634C186.411 21.9394 187.224 21.566 188.737 21.0339C190.249 20.5018 191.015 20.1564 191.043 19.9977C191.202 19.867 191.295 19.1296 191.333 17.7853C191.361 16.4411 191.426 15.657 191.529 15.4236C191.66 14.7515 191.688 14.042 191.622 13.3046C191.622 12.9218 191.585 12.6418 191.501 12.4644C191.417 12.2871 191.305 12.231 191.165 12.2964C191.025 12.3617 190.866 12.4458 190.707 12.5578C190.548 12.6698 190.371 12.8098 190.175 12.9685C189.979 13.1272 189.839 13.2299 189.745 13.2579C189.232 13.6126 188.242 14.2194 186.785 15.0875C185.328 15.9557 184.338 16.5998 183.824 17.0105C183.852 17.3933 183.908 17.7573 183.993 18.0934C184.077 18.4294 184.198 18.8122 184.375 19.2229C184.553 19.643 184.693 19.9417 184.786 20.1097C184.88 20.2871 185.066 20.6418 185.337 21.1646C185.608 21.6967 185.767 22.0047 185.795 22.1074C185.954 22.3688 185.935 22.5741 185.748 22.7328C185.552 22.8915 185.319 22.9755 185.048 22.9755C184.777 22.9755 184.562 22.9102 184.394 22.7795C183.628 21.3046 182.816 20.091 181.966 19.1482C181.116 18.2054 180.014 17.3559 178.669 16.6185C178.38 16.4878 178.212 16.3477 178.165 16.1891C178.118 16.0304 178.146 15.8063 178.259 15.5169C178.371 15.2276 178.427 15.0035 178.427 14.8448C178.623 13.818 179.697 14.3127 181.648 16.3384C182.293 17.0105 182.638 17.3466 182.704 17.3466C182.956 17.5053 183.105 17.5053 183.133 17.3466C183.133 17.2532 183.068 17.0945 182.937 16.8612C182.713 16.5718 182.61 16.3477 182.62 16.1891C182.638 16.0304 182.76 15.7877 182.984 15.4703C183.208 15.0502 184.151 14.3874 185.804 13.4726C187.457 12.5578 188.382 12.0257 188.568 11.8577C188.662 11.7643 188.998 11.5683 189.558 11.2789C190.119 10.9895 190.567 10.7281 190.903 10.4854C191.239 10.2427 191.435 10.0093 191.501 9.7853C191.632 9.56126 191.697 8.5811 191.697 6.84481V5.50058C191.697 5.14585 191.697 4.81913 191.669 4.51108C191.65 4.20303 191.641 3.97899 191.622 3.81096C191.604 3.65227 191.566 3.4749 191.501 3.27886C191.435 3.08283 191.389 2.95215 191.361 2.86814C191.333 2.78412 191.258 2.62543 191.146 2.38272C191.034 2.14001 190.95 1.96265 190.884 1.83196C190.502 1.0945 190.707 0.534406 191.51 0.151674C191.93 0.08633 192.276 0.132999 192.565 0.291692L192.593 0.310366ZM199.243 10.6068C199.243 10.4481 199.215 10.3081 199.168 10.196C199.121 10.084 199.065 9.99067 199 9.90666C198.934 9.82264 198.85 9.76664 198.738 9.73864C198.626 9.71063 198.524 9.67329 198.421 9.64528C198.327 9.61728 198.187 9.60794 198.01 9.61728C197.832 9.63595 197.692 9.65462 197.58 9.66396C197.468 9.68262 197.309 9.71062 197.095 9.7573C196.889 9.80397 196.721 9.85065 196.609 9.87865C196.497 9.91599 196.348 9.944 196.151 9.97201C196.058 10.0093 195.993 10.0373 195.955 10.0653C195.152 10.196 194.611 10.3454 194.321 10.5228C194.032 10.7001 193.873 10.9615 193.835 11.3162C193.387 15.909 193.238 18.2801 193.406 18.4388C193.537 18.5695 193.948 18.2614 194.657 17.524C195.619 16.5345 196.217 16.0024 196.441 15.937C196.73 15.8063 197.216 15.1342 197.907 13.9113C198.598 12.6885 199.009 11.7643 199.14 11.1202C199.205 10.9242 199.233 10.7561 199.233 10.5881L199.243 10.6068Z" fill="white"/>
<path d="M215.661 16.2637C215.568 16.1797 215.493 16.1424 215.446 16.1424C215.4 16.1424 215.278 16.1797 215.082 16.2637C214.886 16.3478 214.746 16.4038 214.652 16.4318C214.298 16.6932 213.915 16.6932 213.494 16.4318C213.074 16.1797 212.831 15.8343 212.747 15.3956C212.663 14.9662 212.803 14.5368 213.158 14.1167C213.448 13.734 213.691 13.4913 213.877 13.3979C214.905 13.0152 215.838 13.1926 216.67 13.93C217.501 14.6675 217.837 15.4889 217.678 16.3851C217.482 17.4773 216.987 18.6535 216.184 19.923C215.381 21.1926 214.596 22.0981 213.821 22.6395C213.504 22.7702 213.233 22.7888 213.027 22.7142C212.822 22.6302 212.719 22.4621 212.738 22.1821C212.757 21.9114 212.906 21.6313 213.196 21.3419C213.709 20.8005 214.232 20.0257 214.764 19.0362C215.297 18.0467 215.586 17.2999 215.652 16.8238C215.745 16.5345 215.745 16.3478 215.652 16.2731L215.661 16.2637Z" fill="white"/>
<path d="M111.116 67.4091C111.209 67.6052 111.34 67.6985 111.499 67.6985C111.723 67.6985 111.919 67.7919 112.078 67.9879C112.236 68.1839 112.32 68.3893 112.32 68.6133C112.386 68.9027 112.227 69.1641 111.863 69.4068C111.489 69.6495 111.05 69.8922 110.537 70.1256C110.023 70.3683 109.706 70.5643 109.575 70.723C109.257 71.0404 108.828 71.7592 108.295 72.8607C107.763 73.9622 107.53 74.6157 107.595 74.8117C107.66 74.9424 107.838 74.9424 108.127 74.8117C109.061 74.5223 110.2 74.0836 111.573 73.4862C112.937 72.8887 114.02 72.4687 114.823 72.2073C116.103 71.7219 116.476 71.3391 115.934 71.0498C115.804 70.9844 115.645 70.9377 115.449 70.9097C115.159 70.8817 115.029 70.6857 115.066 70.331V70.1909H116.607C117.475 70.1909 118.054 70.247 118.362 70.359C118.671 70.471 118.82 70.6857 118.82 71.0124C118.82 71.3952 118.661 71.7312 118.334 72.0206C118.017 72.31 117.373 72.6927 116.411 73.1781C114.225 74.205 111.881 75.2038 109.379 76.1653C108.062 76.6507 107.156 77.0521 106.661 77.3882C106.166 77.7242 105.718 78.247 105.335 78.9564C104.952 79.6005 104.429 80.6554 103.766 82.1303C103.112 83.6052 102.571 84.7441 102.151 85.5469C100.385 89.0475 99.4516 91.2132 99.3582 92.044C99.2275 93.0988 98.7606 93.8923 97.9574 94.4057C97.3504 94.8258 96.9115 94.7791 96.6594 94.2657C96.4632 94.135 96.5566 93.6403 96.9208 92.7721C97.285 91.904 97.7333 90.9798 98.2469 90.009C98.7606 89.0288 99.0314 88.4594 99.0687 88.3007C99.5544 87.1805 100.161 85.8829 100.899 84.4267C101.637 82.9704 102.235 81.6729 102.683 80.5527C103.224 79.3672 103.355 78.7604 103.066 78.7231C103 78.6951 102.935 78.6951 102.87 78.7231C102.197 78.7884 101.011 79.0964 99.3022 79.6379C98.4057 79.9273 97.8267 80.086 97.5652 80.1233C97.3037 80.1606 97.0703 80.0766 96.8461 79.8806C96.4633 79.3952 96.4166 78.9844 96.7247 78.6297C97.0329 78.275 97.5372 78.0883 98.2376 78.0509C98.6578 77.9856 99.2462 77.8269 100.021 77.5655C100.787 77.3135 101.422 77.1455 101.898 77.0801C103.309 76.7254 104.252 76.38 104.719 76.0439C105.186 75.7079 105.606 74.9984 105.998 73.9062C106.129 73.5888 106.297 73.2155 106.502 72.7954C106.708 72.3753 106.829 72.0766 106.867 71.8806C106.801 71.8526 106.4 71.8992 105.662 72.0206C104.831 72.1513 104.224 72.1419 103.859 71.9926C103.486 71.8526 103.309 71.5352 103.309 71.0498C103.402 70.6017 103.626 70.2283 103.962 69.9389C104.298 69.6495 104.644 69.6495 104.999 69.9389C105.223 70.0976 105.596 70.1349 106.11 70.0323C106.689 70.0042 107.175 69.8455 107.576 69.5748C107.978 69.3041 108.258 69.0054 108.417 68.688C108.576 68.3706 108.809 68.0252 109.117 67.6518C109.425 67.2878 109.771 66.9984 110.154 66.8117C110.667 66.8117 110.985 67.0077 111.116 67.3905V67.4091ZM111.788 63.7312C111.527 63.9085 111.078 64.0579 110.443 64.1886C108.165 64.7674 106.306 65.0847 104.859 65.1501C103.831 65.1501 103.318 64.954 103.318 64.5713C103.318 64.4126 103.402 64.1699 103.561 63.8525C103.719 63.5352 103.85 63.3671 103.944 63.3671C106.577 63.3018 108.697 62.9844 110.303 62.4056C110.882 62.2096 111.34 62.1722 111.676 62.2843C112.012 62.3963 112.18 62.6297 112.18 62.9844C112.18 63.3018 112.05 63.5538 111.797 63.7312H111.788ZM109.285 81.8316C109.379 81.8783 109.64 81.6822 110.051 81.2341C110.565 80.7861 111.153 80.5807 111.807 80.6087C112.46 80.6461 113.002 80.8514 113.422 81.2341C113.488 81.3275 113.646 81.4955 113.908 81.7382C114.16 81.9809 114.375 82.2236 114.534 82.457C114.692 82.6997 114.758 82.9518 114.73 83.2038C114.73 83.5865 114.776 83.9693 114.87 84.3614C115.029 85.1268 115.075 86.3497 115.01 88.0206C114.945 89.6916 114.758 91.4092 114.459 93.1922C114.151 94.9751 113.712 95.946 113.133 96.1047C112.554 96.2354 112.106 96.1233 111.788 95.7686L111.405 95.3392L109.621 95.8713C108.305 96.2914 107.474 96.5247 107.119 96.5901C106.764 96.6554 106.493 96.6554 106.297 96.5901C105.653 96.2727 105.466 95.8246 105.718 95.2459C105.783 94.9565 105.858 94.2844 105.961 93.2202C106.063 92.156 106.157 91.1852 106.25 90.2797C106.344 89.3835 106.456 88.8701 106.586 88.7394C106.969 85.2108 107.193 82.8491 107.259 81.6636C107.287 81.4675 107.324 81.2342 107.352 80.9448C107.38 80.6554 107.399 80.45 107.399 80.3193C107.399 80.1886 107.418 80.0299 107.446 79.8339C107.474 79.6379 107.502 79.5165 107.52 79.4512C107.539 79.3858 107.567 79.3018 107.614 79.1898C107.66 79.0778 107.707 79.0031 107.754 78.9751C107.8 78.9471 107.875 78.9004 107.969 78.8537C108.062 78.8071 108.165 78.7697 108.258 78.7604C108.351 78.7417 108.482 78.7231 108.641 78.6857C108.93 78.7791 109.098 78.9191 109.145 79.0965C109.192 79.2738 109.201 79.7126 109.173 80.422C109.145 81.3182 109.173 81.7942 109.267 81.8409L109.285 81.8316ZM112.414 89.1222C112.414 89.1222 112.171 89.2995 111.592 89.5516C111.013 89.8129 110.369 90.1117 109.64 90.4664C108.921 90.8211 108.417 91.1105 108.127 91.3345C107.997 91.5306 107.931 92.072 107.931 92.9681C107.931 93.7709 107.969 94.2097 108.053 94.2937C108.137 94.3777 108.538 94.3217 109.276 94.1257C109.593 94.1257 109.976 93.9576 110.406 93.6216C110.835 93.2855 111.218 93.1362 111.536 93.1642C111.825 93.2295 112.106 93.2015 112.376 93.0895C112.647 92.9775 112.806 92.8281 112.834 92.6321C113.151 91.0638 113.32 89.953 113.32 89.3088C113.348 88.7674 113.049 88.7021 112.404 89.1128L112.414 89.1222ZM113.329 85.9669C113.329 85.4722 113.264 85.1081 113.133 84.8841C113.067 84.6601 112.871 84.5667 112.554 84.6227C112.236 84.6694 111.928 84.7628 111.639 84.9121C111.349 85.0615 111.041 85.2202 110.723 85.3975C110.406 85.5749 110.172 85.6589 110.051 85.6589C109.537 85.8549 109.192 86.0603 109.014 86.2843C108.837 86.5084 108.697 86.9284 108.604 87.5352C108.473 88.1793 108.473 88.5621 108.604 88.6928C108.734 88.8234 109.117 88.7768 109.762 88.5527C110.565 88.2633 111.657 87.7032 113.039 86.8724C113.236 86.7791 113.329 86.4804 113.329 85.9856V85.9669ZM111.069 82.5784C110.714 82.7371 110.471 82.9331 110.35 83.1571C110.154 83.4185 110.172 83.5399 110.397 83.5399C110.91 83.5119 111.424 83.2878 111.937 82.8678C112.068 82.7744 112.096 82.7277 112.031 82.7277C112.031 82.373 111.713 82.3263 111.069 82.5877V82.5784Z" fill="white"/>
<path d="M137.404 65.9156C138.169 65.7569 138.786 65.7195 139.234 65.8222C139.654 65.9156 140.131 66.1209 140.682 66.4196C141.223 66.7277 141.569 66.9891 141.69 67.2131C142.334 68.1466 142.727 70.3776 142.867 73.9062C143.007 77.4348 142.829 80.0673 142.316 81.8036C142.026 82.9238 141.401 83.9693 140.439 84.9308L139.72 85.6029V89.7943L140.345 90.373C140.728 90.7558 141.326 91.0918 142.129 91.3812C142.708 91.8013 144.781 92.0813 148.367 92.2214C151.944 92.3614 153.896 92.2494 154.213 91.8573C154.307 91.7266 154.325 91.2412 154.26 90.3917C154.195 89.5422 154.111 88.9541 153.999 88.6367C153.886 88.3194 153.84 88.0393 153.858 87.8153C153.877 87.5912 153.942 87.4419 154.055 87.3579C154.167 87.2738 154.335 87.2832 154.559 87.3859C155.325 87.7406 155.792 89.1222 155.96 91.5212C156.053 92.9028 155.848 93.6869 155.334 93.883C155.138 93.9763 153.765 94.0323 151.216 94.051C148.666 94.0697 146.854 94.023 145.799 93.9296C142.4 93.6776 139.972 92.8561 138.524 91.4746C138.076 91.0545 137.824 90.7091 137.777 90.4197C137.731 90.1303 137.749 89.2809 137.852 87.8713C137.88 87.3299 137.852 86.8164 137.731 86.331C137.618 85.8456 137.497 85.6122 137.366 85.6122C137.17 85.6122 136.657 86.1723 135.825 87.2925C135.116 88.3474 133.939 89.7943 132.286 91.6239C130.633 93.4536 129.69 94.5271 129.466 94.8445C128.887 95.7126 128.392 96.142 127.972 96.142C127.682 96.142 127.467 95.9273 127.318 95.4886C127.168 95.0498 127.215 94.7418 127.439 94.5457C127.533 94.4151 127.757 94.0603 128.112 93.4909C128.467 92.9121 128.765 92.4734 129.027 92.1653C129.279 91.8573 129.569 91.6426 129.895 91.5119C130.344 91.2225 130.885 90.7278 131.511 90.0183C132.137 89.3089 132.613 88.7021 132.93 88.1887C133.061 87.9366 133.341 87.5632 133.771 87.0778C134.201 86.5924 134.453 86.2003 134.518 85.8736C134.49 85.8736 134.004 86.0977 133.071 86.5457C130.923 87.6379 129.559 87.8899 128.98 87.3112C128.467 86.7978 128.56 86.303 129.27 85.8176L129.849 85.3882L129.895 83.8479C129.961 82.6904 130.194 80.8701 130.596 78.387C130.997 75.9039 131.193 73.5515 131.193 71.3391C131.221 68.744 131.334 66.9797 131.53 66.0462C131.502 65.5982 131.614 65.2248 131.894 64.9167C132.165 64.6087 132.463 64.5993 132.781 64.8887C132.94 65.0474 133.033 65.3741 133.071 65.8502C133.099 66.3356 133.155 66.6157 133.211 66.6904C133.276 66.7744 133.453 66.7464 133.743 66.6157C135.377 66.3263 136.601 66.0836 137.404 65.8969V65.9156ZM139.71 83.3158C139.934 83.0731 140.121 82.7184 140.261 82.261C140.401 81.7943 140.532 81.3835 140.644 81.0381C140.756 80.6834 140.85 80.1793 140.934 79.5259C141.018 78.8724 141.074 78.4243 141.102 78.2003C141.13 77.9763 141.186 77.5562 141.242 76.9494C141.27 76.5667 141.261 76.324 141.195 76.2306C141.13 76.1373 141.055 76.128 140.98 76.2026C140.896 76.2867 140.766 76.4173 140.57 76.6134C140.504 76.7067 140.457 76.7814 140.429 76.8281C140.401 76.8747 140.345 76.9214 140.289 76.9681C140.224 77.0148 140.177 77.0614 140.149 77.0895C140.121 77.1268 140.084 77.1361 140.056 77.1361C139.99 77.1735 139.794 77.2855 139.458 77.5002C139.122 77.7056 138.879 77.8549 138.739 77.9296C138.599 78.0136 138.356 78.1443 138.02 78.3403C137.684 78.5364 137.422 78.6764 137.226 78.7697C137.03 78.8631 136.778 78.9938 136.46 79.1525C136.143 79.3112 135.863 79.4325 135.639 79.5165C135.415 79.6005 135.172 79.6659 134.92 79.7312C134.658 79.7966 134.434 79.8246 134.247 79.8246C133.892 79.8619 133.659 79.8806 133.547 79.8993C133.435 79.9179 133.304 79.9366 133.164 79.9459C133.024 79.9646 132.94 80.0206 132.921 80.114C132.902 80.2073 132.874 80.2913 132.828 80.3567C132.781 80.422 132.734 80.5807 132.688 80.8421C132.641 81.1035 132.594 81.3088 132.566 81.4675C132.146 83.2038 131.81 84.324 131.558 84.8374C131.427 85.0988 131.427 85.2202 131.558 85.2202C132.006 85.1268 132.912 84.6601 134.275 83.8199C135.639 82.9891 136.348 82.569 136.414 82.569C136.769 82.373 137.105 82.1676 137.422 81.9436C137.908 81.5889 138.3 81.5329 138.599 81.7756C138.907 82.0183 138.973 82.429 138.814 82.9985C138.72 83.3532 138.674 83.5772 138.692 83.6706C138.711 83.7639 138.795 83.8106 138.954 83.8106C139.243 83.7172 139.496 83.5492 139.72 83.3065L139.71 83.3158ZM140.551 71.3298C140.467 71.7966 140.224 72.1606 139.804 72.4127C139.71 72.506 138.674 72.8701 136.694 73.4955C134.714 74.121 133.621 74.5597 133.397 74.8211C133.304 75.0171 133.239 75.4652 133.201 76.1653L133.155 77.2201C133.575 77.4442 133.986 77.6682 134.406 77.8923L135.415 77.5562C136.022 77.3602 136.713 77.0241 137.488 76.548C138.263 76.0719 138.786 75.6332 139.075 75.2505C139.589 74.5784 140.121 74.3543 140.663 74.5784C140.915 74.6717 141.083 74.6717 141.148 74.5504C141.214 74.4383 141.214 74.1863 141.148 73.8036C141.055 73.4208 140.98 72.8794 140.934 72.1886C140.887 71.4978 140.831 70.9097 140.766 70.4337C140.7 69.9482 140.588 69.4628 140.429 68.9681C140.271 68.4733 139.981 68.1186 139.561 67.9132C139.141 67.7079 138.618 67.6332 137.973 67.6985C137.945 67.6985 137.628 67.7732 137.03 67.9132C136.432 68.0532 135.872 68.2026 135.349 68.3426C134.826 68.4827 134.555 68.5947 134.555 68.66C134.425 68.7907 134.275 69.1548 134.098 69.7429C133.92 70.3403 133.799 70.8631 133.734 71.3111C133.668 71.7592 133.706 72.0206 133.827 72.0766C134.051 72.2073 134.723 72.1326 135.853 71.8619C136.974 71.5912 137.712 71.3298 138.067 71.0684C138.646 70.6484 139.225 70.443 139.804 70.443C140.383 70.5737 140.626 70.8724 140.551 71.3298Z" fill="white"/>
<path d="M168.315 80.9821C171.079 79.7033 172.937 78.9471 173.899 78.7231C174.189 78.6297 174.721 78.4244 175.515 78.1257C176.299 77.8176 177.018 77.5936 177.653 77.4255C178.298 77.2668 179.101 77.1361 180.063 77.0428C180.773 76.9495 181.529 76.7908 182.351 76.5574C183.173 76.3334 184.219 76.156 185.507 76.0253C185.759 75.9973 185.993 75.9506 186.18 75.9039C186.366 75.8573 186.497 75.8199 186.563 75.8106C186.628 75.7919 186.74 75.7919 186.899 75.8106C187.057 75.8293 187.282 75.8853 187.571 75.9786C187.823 76.1747 188.019 76.324 188.15 76.436C188.281 76.5481 188.402 76.7534 188.514 77.0615C188.626 77.3695 188.664 77.7149 188.636 78.0976C188.636 78.7698 188.496 79.3859 188.206 79.9273C187.945 80.4127 187.571 80.9355 187.076 81.4956C186.581 82.0557 186.198 82.3824 185.946 82.4851C185.685 82.6157 185.451 82.7744 185.227 82.9705C185.031 83.1012 184.657 83.2038 184.097 83.2879C183.537 83.3719 183.21 83.3439 183.107 83.2132C182.948 82.9238 183.21 82.5877 183.901 82.205C184.592 81.8223 185.246 81.2529 185.853 80.4967C186.46 79.7406 186.768 79.1432 186.768 78.6951C186.768 78.3777 186.675 78.163 186.506 78.0416C186.329 77.9296 185.965 77.8923 185.423 77.9203C183.91 78.051 182.155 78.303 180.147 78.6858C178.139 79.0685 176.626 79.4886 175.599 79.9366C175.113 80.1327 174.45 80.366 173.6 80.6367C172.751 80.9075 172.004 81.1875 171.359 81.4582C170.715 81.7289 169.902 82.121 168.903 82.6344C168.231 82.9891 167.54 83.3345 166.83 83.6706C166.12 84.0067 165.606 84.2494 165.261 84.3894C164.915 84.5294 164.533 84.7628 164.084 85.0895C163.636 85.4069 163.15 85.8083 162.637 86.2937C162.347 86.6111 162.095 86.7791 161.89 86.7791C161.684 86.7791 161.46 86.6204 161.236 86.2937C161.143 86.2284 161.077 86.0883 161.04 85.8643C161.012 85.6403 161.012 85.3509 161.068 84.9962C161.115 84.6414 161.161 84.3427 161.208 84.0813C161.255 83.8293 161.339 83.4839 161.451 83.0732C161.563 82.6531 161.638 82.401 161.666 82.3077C161.796 82.0556 161.88 81.5236 161.927 80.7208C161.974 79.918 162.058 79.2085 162.17 78.5831C162.282 77.9576 162.497 77.6309 162.824 77.5936C162.982 77.5656 163.169 77.6309 163.375 77.8083C163.58 77.9856 163.748 78.2003 163.879 78.4617C164.075 78.9471 163.991 79.8433 163.636 81.1595C163.319 82.4757 163.216 83.1852 163.347 83.2785C163.888 83.0545 165.541 82.2984 168.305 81.0195L168.315 80.9821ZM175.823 87.9086C176.075 87.7126 176.318 87.5072 176.542 87.2832C176.99 86.8351 177.373 86.5644 177.7 86.4617C178.018 86.3684 178.298 86.4617 178.522 86.7231C178.746 86.9938 178.923 87.3019 179.054 87.6379C179.185 87.974 179.297 88.4127 179.39 88.9635C179.456 89.4489 179.39 89.9063 179.176 90.3637C178.97 90.8118 178.709 91.0918 178.41 91.2039C178.102 91.3159 177.812 91.2412 177.523 90.9892C177.327 90.8305 177.261 90.6344 177.327 90.4104C177.457 90.0277 177.523 89.7383 177.523 89.5423C177.523 89.3462 177.495 89.2249 177.429 89.1782C177.364 89.1315 177.261 89.1409 177.112 89.2062C176.972 89.2715 176.841 89.3462 176.729 89.4209C176.617 89.5049 176.467 89.6263 176.271 89.785C176.178 89.8783 176.103 89.9437 176.057 89.981C176.01 90.0183 175.954 90.0557 175.888 90.1024C175.823 90.149 175.776 90.1957 175.748 90.2237C175.487 90.2891 175.319 90.4851 175.244 90.8025C175.16 91.1199 175.113 91.5213 175.104 91.9787C175.085 92.4454 175.067 92.7721 175.029 92.9682C174.964 93.4536 174.983 93.7243 175.076 93.7896C175.169 93.827 175.421 93.7896 175.823 93.6683C176.225 93.5563 176.598 93.4069 176.953 93.2109C177.439 92.9588 177.859 92.8935 178.232 93.0148C178.597 93.1455 178.737 93.3976 178.643 93.7803C178.513 94.2657 178.148 94.6018 177.532 94.7885C176.953 94.9845 176.346 95.2646 175.702 95.6286C175.057 96.002 174.693 96.2821 174.59 96.4688C174.432 96.8888 174.329 97.4116 174.273 98.037C174.217 98.6625 174.273 99.1665 174.394 99.5493H175.309C176.533 99.4839 177.822 99.3626 179.185 99.1852C180.548 99.0079 182.015 98.9238 183.593 98.9238C185.423 98.8958 187.029 98.7838 188.412 98.5878C189.794 98.3918 191.363 98.2704 193.128 98.2051C194.799 98.1117 195.742 98.121 195.967 98.2517C196.191 98.3824 196.303 98.6158 196.303 98.9518C196.303 99.2879 196.209 99.5493 196.013 99.7453C195.789 99.9694 195.528 100.109 195.22 100.156C194.911 100.203 194.342 100.193 193.511 100.128C191.876 100.1 190.289 100.203 188.748 100.445C187.207 100.688 185.461 100.837 183.499 100.903C175.823 101.155 170.033 101.799 166.12 102.826C165.224 103.078 164.607 103.059 164.262 102.751C163.916 102.443 163.982 101.939 164.43 101.239C164.654 100.987 164.962 100.8 165.345 100.688C165.728 100.576 166.624 100.455 168.044 100.324C170.229 100.1 171.546 99.9227 171.994 99.792C172.125 99.596 172.172 99.4279 172.134 99.2879C172.106 99.1479 172.032 98.9425 171.919 98.6905C171.807 98.4384 171.751 98.2237 171.751 98.065C171.723 97.7757 171.677 97.6076 171.63 97.561C171.583 97.5143 171.415 97.4769 171.126 97.4396C170.388 97.3462 170.126 96.9075 170.36 96.142C170.425 95.8527 170.528 95.6566 170.677 95.5446C170.818 95.4326 171.107 95.3486 171.518 95.2832C172.162 95.1525 172.601 94.9192 172.844 94.5831C173.087 94.2471 173.19 93.6963 173.162 92.9215C173.162 92.3147 173.105 91.9133 172.993 91.7173C172.881 91.5213 172.648 91.4279 172.293 91.4279C171.742 91.4279 171.406 91.1852 171.284 90.7091C171.088 90.4851 171.144 90.121 171.453 89.6263C171.761 89.1315 172.134 88.6088 172.583 88.058C173.031 87.5166 173.292 87.1805 173.348 87.0498C173.414 86.9565 173.507 86.8165 173.638 86.6391C173.769 86.4617 173.89 86.3124 174.002 86.1817C174.114 86.051 174.198 85.9296 174.245 85.799C174.292 85.6683 174.273 85.5936 174.198 85.5563C174.114 85.5282 173.946 85.5376 173.694 85.6029C173.432 85.6683 173.049 85.7803 172.536 85.939C171.733 86.2284 171.144 86.3217 170.78 86.2284C170.407 86.135 170.295 85.7429 170.416 85.0708C170.509 84.8748 170.846 84.6601 171.406 84.4174C171.966 84.1747 172.508 84.0253 173.021 83.96C173.246 83.96 173.572 83.8853 174.011 83.7453C174.45 83.6053 174.814 83.4466 175.123 83.2879C175.431 83.1292 175.842 82.9145 176.374 82.6344C176.906 82.3637 177.233 82.1957 177.364 82.1303C178.074 81.9716 178.503 82.0837 178.662 82.4664C178.755 82.7838 178.709 83.1198 178.522 83.4559C178.335 83.792 177.878 84.3334 177.177 85.0708C176.57 85.7149 175.926 86.4617 175.253 87.3112C174.581 88.1607 174.245 88.6554 174.245 88.7768C174.245 89.0662 174.786 88.7768 175.879 87.9086H175.823ZM175.87 60.716C177.317 60.6227 177.971 60.296 177.84 59.7545V59.2691L179.428 59.2224C180.483 59.2224 181.174 59.1758 181.501 59.0824C182.043 58.8304 182.435 58.8304 182.659 59.1104C182.883 59.3811 182.948 59.7265 182.855 60.1466C182.762 60.5667 182.584 60.8654 182.323 61.0614C182.192 61.0988 181.79 61.1454 181.118 61.2014C180.38 61.2668 179.278 61.5655 177.822 62.0883C176.365 62.6204 175.562 63.0311 175.44 63.3111C175.123 63.8899 174.749 64.8327 174.329 66.149C174.263 66.373 174.506 66.3917 175.048 66.1956C176.234 65.8409 176.813 65.6635 176.785 65.6635C177.102 65.5702 177.383 65.6075 177.607 65.7849C177.831 65.9623 177.915 66.1956 177.85 66.485C177.756 66.8677 177.532 67.2038 177.196 67.4932C176.86 67.7826 176.514 67.9133 176.159 67.8759C175.898 67.8479 175.309 68.0533 174.376 68.5014C173.479 68.9494 172.321 69.4162 170.911 69.9016C169.501 70.387 168.548 70.6204 168.072 70.6204C167.689 70.6204 167.493 70.3777 167.493 69.9016C167.493 69.0988 168.586 68.4547 170.771 67.9786C171.023 67.9133 171.228 67.7919 171.368 67.6145C171.509 67.4372 171.938 66.8397 172.648 65.8129C172.872 65.4582 173.059 65.0754 173.199 64.6554C173.339 64.2353 173.395 63.9833 173.367 63.8899C173.302 63.7966 173.049 63.8059 172.601 63.9366C172.153 64.0673 171.677 64.198 171.182 64.3473C170.687 64.4873 170.388 64.5527 170.295 64.5153C169.912 64.5807 168.688 64.8981 166.634 65.4768C165.737 65.7382 165.205 65.8129 165.046 65.7196C164.785 65.5889 164.626 65.2995 164.561 64.8327C164.495 64.366 164.579 64.0206 164.803 63.7965C165.028 63.6379 165.457 63.5445 166.101 63.5072C166.746 63.4792 167.213 63.3952 167.502 63.2645C171.387 62.4337 173.507 61.8362 173.862 61.4815C173.955 61.3881 174.011 61.2481 174.03 61.0708C174.049 60.8934 174.03 60.4547 173.955 59.7452C173.797 58.1769 173.712 57.2248 173.712 56.9074C173.712 56.59 173.806 56.3473 174.002 56.1886C174.385 55.7685 174.786 55.7219 175.207 56.0486C175.459 56.2726 175.655 57.3648 175.786 59.3251L175.879 60.7254L175.87 60.716ZM171.219 70.6577C171.649 70.8351 171.882 71.2085 171.919 71.7873C171.947 71.9833 171.985 72.1233 172.013 72.2166C172.041 72.31 172.097 72.3567 172.153 72.338C172.218 72.3193 172.284 72.2913 172.349 72.2447C172.414 72.198 172.517 72.1233 172.667 72.03C172.816 71.9366 172.947 71.8526 173.077 71.7873C173.208 71.7592 173.442 71.6286 173.778 71.4045C174.114 71.1805 174.422 70.9844 174.693 70.8258C174.964 70.6671 175.3 70.499 175.702 70.3217C176.103 70.1443 176.421 70.0696 176.664 70.079C176.906 70.0976 177.149 70.1816 177.411 70.3403C177.635 70.5364 177.7 70.8818 177.607 71.3765C177.513 71.8713 177.289 72.366 176.934 72.8421L176.645 73.2715C177.065 73.5609 177.317 73.8036 177.411 73.9903C177.439 74.4104 177.373 74.7371 177.196 74.9798C177.018 75.2225 176.664 75.5025 176.141 75.8199C175.608 76.1373 175.263 76.3707 175.104 76.492C173.432 77.6776 172.293 78.2283 171.686 78.1257C171.49 78.0976 171.331 78.0136 171.2 77.8829C171.07 77.7523 170.939 77.5936 170.817 77.3975C170.687 77.2015 170.575 77.0615 170.481 76.9681C170.257 76.7161 170.145 76.3427 170.145 75.8573C170.21 74.289 170.164 73.3275 170.005 72.9728C169.716 72.2633 169.762 71.6285 170.145 71.0498C170.435 70.6017 170.799 70.4617 171.228 70.639L171.219 70.6577ZM173.797 73.1408C173.572 73.2342 173.255 73.5142 172.853 73.9623C172.452 74.4104 172.237 74.7278 172.2 74.9238C172.134 75.2132 172.172 75.3532 172.293 75.3532C172.386 75.3532 172.751 75.0078 173.376 74.317C174.002 73.6262 174.32 73.2342 174.32 73.1408C174.32 73.0101 174.142 73.0101 173.787 73.1408H173.797Z" fill="white"/>
<path d="M203.951 82.4291C203.793 82.5878 203.531 82.7838 203.186 83.0078C202.186 83.6519 201.467 83.8106 201.019 83.4933C200.86 83.3626 200.758 83.1012 200.73 82.6998C200.702 82.2984 200.758 81.9437 200.926 81.6449C201.084 81.3369 201.327 81.2529 201.645 81.3836C201.962 81.4489 202.261 81.4209 202.532 81.3089C202.803 81.1969 203.111 81.0102 203.447 80.7581C203.783 80.5061 204.035 80.3381 204.194 80.2727C204.39 80.1794 204.764 79.8993 205.324 79.4326C205.885 78.9658 206.249 78.7044 206.407 78.6391C207.369 78.0603 207.948 77.9857 208.144 78.3964C208.434 78.9098 208.341 79.2832 207.855 79.5072C207.631 79.5726 207.117 79.9647 206.314 80.6834C205.511 81.4022 204.979 81.813 204.726 81.9063C204.372 82.1024 204.119 82.2797 203.961 82.4384L203.951 82.4291ZM208.714 85.3416C208.91 85.2295 209.162 85.3042 209.48 85.5563C209.676 85.8457 209.639 86.4991 209.386 87.5073C209.125 88.5154 208.854 89.3089 208.565 89.8877C208.341 90.3078 208.088 90.7838 207.818 91.3346C207.547 91.8853 207.388 92.1934 207.36 92.2774C207.332 92.3614 207.155 92.5948 206.828 92.9962C206.51 93.3976 206.211 93.743 205.941 94.0324C205.67 94.3218 205.165 94.8819 204.428 95.7127C203.979 96.1981 203.643 96.4688 203.419 96.5341C203.064 96.6275 202.756 96.5155 202.476 96.1981C202.205 95.8807 202.102 95.5073 202.158 95.0872C202.186 94.8632 202.242 94.7232 202.326 94.6578C202.41 94.5925 202.588 94.5271 202.877 94.4618C203.13 94.3311 203.428 94.0417 203.765 93.5936C204.101 93.1456 204.381 92.8282 204.605 92.6321C205.119 92.0907 205.819 91.0545 206.697 89.5236C207.584 88.002 208.135 86.8538 208.359 86.079C208.387 85.6963 208.499 85.4443 208.695 85.3322L208.714 85.3416ZM204.334 66.8398C204.465 66.9051 204.792 67.1105 205.324 67.4652C205.856 67.8199 206.202 68.0253 206.361 68.0906C207.388 68.5107 208.004 68.8094 208.219 68.9775C208.425 69.1548 208.537 69.4349 208.537 69.8176C208.565 70.2003 208.425 70.4244 208.107 70.4897C207.79 70.5551 207.351 70.4617 206.809 70.2003C206.043 69.7803 205.025 69.4442 203.774 69.1922C203.26 69.0615 202.952 68.9214 202.859 68.7628C202.765 68.6041 202.84 68.3987 203.102 68.1373C203.587 67.3999 203.998 66.9705 204.353 66.8398H204.334ZM214.448 76.4641C214.738 76.1467 214.98 76.1467 215.195 76.4921C215.401 76.8281 215.606 77.3509 215.793 78.0603C215.858 78.3777 215.858 79.1619 215.793 80.3941C215.727 81.6263 215.653 82.3637 215.55 82.5878C215.419 82.9052 215.167 83.0825 214.784 83.1199C214.401 83.1572 214.159 83.0265 214.065 82.7371C213.906 81.1689 214.037 79.0778 214.448 76.4827V76.4641ZM217.913 72.2727C218.165 72.114 218.38 71.9273 218.538 71.7219C218.697 71.5166 218.94 71.3112 219.257 71.1245C219.575 70.9285 219.837 70.8351 220.023 70.8351C220.275 70.8351 220.472 71.0031 220.602 71.3392C220.733 71.6752 220.714 71.9926 220.556 72.282C220.397 72.5434 220.247 72.7301 220.126 72.8608C219.995 72.9915 219.818 73.1222 219.594 73.2715C219.37 73.4115 219.22 73.5236 219.164 73.5889C218.744 74.037 218.174 74.317 217.455 74.4291C216.736 74.5411 216.148 74.345 215.699 73.8316C215.438 73.5422 215.326 73.2435 215.363 72.9448C215.391 72.6367 215.587 72.058 215.942 71.1898C216.325 70.359 216.484 69.911 216.428 69.8456C216.363 69.8176 216.092 69.8643 215.606 69.9856C214.962 70.275 214.495 70.2283 214.205 69.8456C213.916 69.4629 213.944 69.0241 214.299 68.5481C215.578 66.6531 216.288 65.2622 216.419 64.3567C216.484 63.7779 216.559 63.4418 216.661 63.3485C216.764 63.2551 217.026 63.1525 217.483 63.0591C217.642 63.0965 217.735 63.1525 217.773 63.2272C217.801 63.3112 217.819 63.5539 217.819 63.9739C217.885 64.2913 217.857 64.6554 217.745 65.0568C217.633 65.4582 217.446 65.9436 217.194 66.5037C216.932 67.0638 216.773 67.4279 216.708 67.5866C216.773 67.6239 216.998 67.5679 217.38 67.4465C218.501 67.0638 219.164 67.2505 219.351 68.0253C219.444 68.4454 219.211 68.9401 218.632 69.5189C218.408 69.7429 218.09 70.2097 217.689 70.9191C217.287 71.6286 217.091 72.0767 217.091 72.2633C217.091 72.5527 217.362 72.5714 217.913 72.31V72.2727ZM216.829 78.9658C216.783 78.2564 216.755 77.6123 216.755 77.0148C216.755 76.4174 216.839 76.1373 216.998 76.1747C217.315 75.9506 217.549 75.9133 217.698 76.0533C217.847 76.1933 218.015 76.6414 218.202 77.3789C218.492 79.3392 218.585 80.4967 218.492 80.8421C218.333 81.3929 217.894 81.5049 217.194 81.1782C216.97 81.0195 216.857 80.6928 216.857 80.2167C216.885 80.086 216.885 79.6753 216.829 78.9658ZM219.911 75.7919C220.247 75.9226 220.546 76.1093 220.798 76.3707C221.247 76.8561 221.424 77.7803 221.331 79.1619C221.303 79.9647 221.237 80.5061 221.135 80.7768C221.041 81.0475 220.864 81.2155 220.602 81.2809C220.313 81.4769 220.051 81.3649 219.808 80.9448C219.566 80.5248 219.528 80.1607 219.687 79.834C219.846 79.5819 219.874 79.0965 219.762 78.3871C219.65 77.6776 219.528 77.2202 219.398 76.9868C219.267 76.7908 219.192 76.5667 219.155 76.2867C219.127 76.016 219.155 75.848 219.248 75.7826C219.342 75.6519 219.566 75.6519 219.902 75.7826L219.911 75.7919ZM226.458 63.6192C226.056 63.8806 225.533 64.114 224.889 64.3193C224.244 64.5247 223.833 64.7114 223.637 64.8701C223.124 65.1875 222.601 65.3368 222.068 65.2995C221.536 65.2715 221.116 65.0568 220.789 64.6741C220.658 64.422 220.677 64.2073 220.836 64.0486C220.994 63.8899 221.377 63.6939 221.994 63.4699C222.124 63.4419 223.395 62.8911 225.795 61.8362C226.112 61.7056 226.392 61.7336 226.635 61.9109C226.878 62.0883 226.999 62.3217 226.999 62.611C227.027 63.0311 226.85 63.3672 226.448 63.6192H226.458ZM227.448 57.3181C227.42 57.6075 227.251 57.8222 226.943 57.9716C226.635 58.1116 226.019 58.2703 225.085 58.429C224.123 58.5877 223.451 58.653 223.086 58.625C222.713 58.597 222.386 58.4477 222.096 58.1956C221.424 57.5515 221.667 57.0848 222.816 56.7954C223.198 56.702 223.731 56.5994 224.403 56.506C226.523 56.2166 227.532 56.4873 227.438 57.3275L227.448 57.3181ZM225.935 67.0358C225.757 67.1945 225.505 67.3625 225.169 67.5399C224.833 67.7172 224.571 67.8853 224.375 68.044C223.889 68.3333 223.469 68.5387 223.096 68.6414C222.722 68.7534 222.433 68.7627 222.209 68.6694C221.984 68.576 221.872 68.3987 221.872 68.1373C221.872 67.8759 222.031 67.6892 222.358 67.5586C222.554 67.4652 222.946 67.1571 223.535 66.6437C224.132 66.1303 224.534 65.8409 224.758 65.7756C225.141 65.6449 225.505 65.6356 225.841 65.7476C226.177 65.8596 226.346 66.0463 226.346 66.2983C226.252 66.6157 226.112 66.8584 225.935 67.0171V67.0358ZM222.657 76.9962C222.834 76.5107 222.956 75.988 223.021 75.4092C223.31 73.7103 223.628 72.7021 223.983 72.3754C224.235 72.1793 224.627 72.1233 225.141 72.1793L225.094 73.0475C225.066 73.5329 225.094 73.8036 225.169 73.869C225.253 73.9343 225.468 73.841 225.823 73.5796C226.532 73.0942 227.149 73.1595 227.681 73.7476C228.213 74.345 228.297 75.1012 227.942 76.0346C227.746 76.5201 227.634 76.8188 227.606 76.9495C227.541 77.2109 227.205 77.6403 226.598 78.247C225.991 78.8538 225.542 79.2272 225.253 79.3579C224.963 79.4886 224.497 79.5166 223.852 79.4512C222.853 79.3579 222.358 79.0872 222.358 78.6298C222.386 78.023 222.498 77.4722 222.675 76.9962H222.657ZM224.581 70.1817C224.403 70.2003 224.263 70.2283 224.151 70.275C224.039 70.3217 223.918 70.3964 223.787 70.4897C223.077 71.0685 222.731 71.0218 222.731 70.3497C222.731 70.2843 222.75 70.219 222.778 70.1537C222.806 70.0883 222.872 70.023 222.974 69.9576C223.068 69.8923 223.17 69.8363 223.264 69.7896C223.357 69.7429 223.469 69.6869 223.6 69.6216C223.731 69.5562 223.843 69.5002 223.936 69.4535C224.03 69.4069 224.132 69.3695 224.226 69.3322C224.319 69.3042 224.384 69.2855 224.422 69.2855C224.646 69.1268 224.833 69.0988 224.973 69.2108C225.113 69.3228 225.178 69.4722 225.169 69.6682C225.15 69.8643 225.094 70.0043 225.001 70.0976C224.907 70.135 224.767 70.1537 224.59 70.1723L224.581 70.1817ZM232.574 88.8048C232.752 88.8515 232.985 88.9542 233.275 89.1222C233.564 89.3462 233.873 89.673 234.19 90.0837C234.508 90.5038 234.676 90.8212 234.676 91.0452C234.704 91.2039 234.76 91.4186 234.844 91.6987C234.928 91.9694 234.975 92.1654 234.984 92.2774C235.003 92.3894 235.012 92.5481 235.031 92.7628C235.049 92.9682 235.031 93.1829 235.003 93.3883C234.975 93.5936 234.909 93.8737 234.834 94.2097C234.75 94.5458 234.648 94.9565 234.517 95.4326C234.424 95.7873 234.321 96.0954 234.199 96.3754C234.087 96.6462 234.013 96.8515 233.985 96.9729C233.854 97.421 233.322 98.1491 232.369 99.1666C231.426 100.175 230.66 100.828 230.081 101.118C229.567 101.37 228.811 101.519 227.821 101.547C227.177 101.612 226.644 101.622 226.205 101.575C225.767 101.528 225.412 101.379 225.122 101.146C224.833 100.912 224.627 100.716 224.497 100.567C224.366 100.427 224.179 100.1 223.946 99.6053C223.712 99.1106 223.535 98.7652 223.441 98.5691C223.058 97.8597 223.068 97.4023 223.488 97.1689C223.843 96.9449 224.16 97.1502 224.45 97.7944C224.646 98.1117 224.795 98.3171 224.907 98.3918C225.019 98.4758 225.169 98.5131 225.365 98.5131C226.075 98.5131 226.523 98.6905 226.71 99.0452C226.803 99.2039 227.037 99.3253 227.41 99.4093C227.774 99.4933 228.12 99.512 228.447 99.484C228.96 99.4186 229.661 98.9892 230.539 98.1864C231.426 97.3836 231.939 96.7302 232.108 96.2168C233.041 94.3218 233.34 92.9122 233.023 91.9787C232.864 91.3999 232.659 91.0359 232.425 90.8678C232.182 90.7091 231.631 90.5971 230.763 90.5318C230.212 90.5038 229.838 90.4758 229.633 90.4571C229.427 90.4384 229.203 90.3731 228.96 90.2611C228.718 90.149 228.578 89.9997 228.531 89.8037C228.484 89.6076 228.456 89.3182 228.456 88.9355C228.484 88.6461 228.68 88.086 229.035 87.2552C229.39 86.4244 229.707 85.7523 229.997 85.2295C230.221 84.8468 230.268 84.6321 230.137 84.6041C230.044 84.5761 229.801 84.6041 229.418 84.6788C229.035 84.7628 228.792 84.7161 228.699 84.5574C228.316 84.3334 228.195 84.0347 228.335 83.6706C228.475 83.3066 228.839 83.0172 229.418 82.8305C230.539 82.4478 231.267 82.2517 231.585 82.2517C232.07 82.121 232.406 82.3077 232.621 82.8025C232.827 83.2972 232.771 83.6893 232.453 83.9787C232.136 84.2681 231.659 85.0522 231.034 86.3404C230.408 87.6286 230.146 88.3754 230.24 88.5995C230.268 88.6928 230.688 88.7395 231.491 88.7395C232.033 88.7395 232.397 88.7675 232.574 88.8142V88.8048ZM225.832 76.6788C226.299 75.96 226.486 75.4652 226.383 75.2132C226.252 74.8305 225.832 75.2318 225.132 76.4174C224.618 77.3135 224.487 77.7616 224.749 77.7616C225.01 77.7616 225.365 77.3975 225.832 76.6788ZM233.275 63.5912C233.947 62.2937 234.526 61.2575 235.012 60.4827C235.143 60.352 235.301 59.9599 235.497 59.3065C235.694 58.653 235.815 58.2703 235.88 58.177C235.974 58.0463 236.151 58.0089 236.413 58.0556C236.665 58.1023 236.842 58.2236 236.945 58.4197C236.973 58.8397 237.01 59.1384 237.038 59.3345C237.066 59.5305 237.038 59.7919 236.917 60.128C236.805 60.464 236.712 60.7067 236.627 60.8467C236.543 60.9868 236.422 61.2295 236.245 61.5655C236.067 61.9016 235.927 62.163 235.834 62.359C235.385 63.2925 235.077 63.8339 234.918 63.9926C234.76 64.254 234.694 64.45 234.722 64.59C234.75 64.7301 234.862 64.7861 235.04 64.7301C235.217 64.6834 235.385 64.562 235.544 64.366C236.058 63.8526 236.562 63.5725 237.057 63.5259C237.552 63.4792 237.982 63.7312 238.336 64.2727C238.43 64.4314 238.374 64.6461 238.168 64.9261C237.963 65.1968 237.692 65.4769 237.375 65.7662C237.057 66.0556 236.842 66.261 236.749 66.3917C236.721 66.5877 236.59 66.7744 236.366 66.9705C236.076 67.2598 235.992 67.4559 236.123 67.5492C236.151 67.5866 236.217 67.5679 236.319 67.5025C236.478 67.4372 236.786 67.2318 237.234 66.8771C237.907 66.3637 238.42 66.2703 238.775 66.5877C239.196 66.9051 239.13 67.3065 238.579 67.7919C238.066 68.3053 237.683 68.6787 237.421 68.9214C237.16 69.1642 236.74 69.4629 236.142 69.8083C235.544 70.163 235.04 70.303 234.629 70.2377C234.078 70.1723 233.76 69.9016 233.667 69.4162C233.574 68.9308 233.732 68.3894 234.153 67.7826C234.442 67.3345 234.573 67.0638 234.536 66.9611C234.508 66.8678 234.265 66.8491 233.817 66.9144C233.396 67.0451 233.051 66.9984 232.761 66.7744C232.472 66.5504 232.294 66.2797 232.229 65.9529C232.257 65.6636 232.612 64.8701 233.284 63.5725L233.275 63.5912ZM233.873 71.1712C234.05 71.0405 234.283 71.1432 234.573 71.4605C235.021 71.7779 235.264 72.5154 235.292 73.6543C235.32 74.7931 235.18 75.7173 234.862 76.4174C234.834 76.4827 234.76 76.8468 234.648 77.5282C234.536 78.2004 234.396 78.5551 234.237 78.5831C233.854 78.8725 233.518 78.9378 233.228 78.7791C232.939 78.6204 232.78 78.3497 232.743 77.9577C232.715 77.5749 232.771 77.1735 232.939 76.7534C233.069 76.3707 233.219 75.6239 233.396 74.5131C233.574 73.4022 233.658 72.5621 233.658 71.9833C233.63 71.5632 233.695 71.2925 233.873 71.1618V71.1712ZM237.701 73.2435C237.832 73.5982 237.86 74.093 237.795 74.7371C237.729 75.5399 237.655 76.0907 237.58 76.3987C237.496 76.7068 237.328 76.9215 237.076 77.0522C236.655 77.3135 236.329 77.2855 236.086 76.9775C235.843 76.6694 235.787 76.2774 235.918 75.8013C235.983 75.6052 236.039 75.1478 236.086 74.4291C236.133 73.7103 236.198 73.0568 236.282 72.478C236.366 71.8993 236.45 71.6286 236.543 71.6566C236.768 71.4606 236.973 71.4512 237.169 71.6099C237.365 71.7686 237.459 72.0393 237.459 72.4314C237.487 72.6274 237.571 72.8981 237.701 73.2528V73.2435ZM240.129 70.331C240.335 70.3123 240.503 70.359 240.634 70.4524C240.858 70.5831 240.979 71.1338 240.998 72.114C241.017 73.0942 240.923 74.2423 240.736 75.5586C240.708 75.7826 240.447 76.2214 239.971 76.8561C239.485 77.5002 239.14 77.883 238.915 78.0137C238.364 78.1724 238.038 78.1537 237.926 77.939C237.813 77.7336 237.982 77.4069 238.43 76.9495C238.813 76.4361 239.102 75.0545 239.298 72.8141C239.392 71.4979 239.522 70.7137 239.681 70.4524C239.775 70.387 239.933 70.3497 240.139 70.331H240.129Z" fill="white"/>
<path d="M53.4571 17.0946C54.4097 16.9452 55.2128 17.2066 55.8665 17.888C56.4455 18.6442 56.7256 19.5217 56.7163 20.5298C56.6976 21.538 56.3801 22.4528 55.7731 23.2743C55.5677 23.545 55.3622 23.9464 55.1568 24.4785C54.9513 25.0106 54.7272 25.412 54.4937 25.6827C54.391 25.7854 54.2135 26.0094 53.9521 26.3455C53.6999 26.6909 53.4571 26.9896 53.233 27.2416C53.0089 27.4937 52.8127 27.6804 52.6446 27.783C52.4018 27.9231 52.0563 28.0071 51.5987 28.0351C51.1411 28.0724 50.7489 28.0164 50.4501 27.8857C49.8337 27.615 49.6282 27.0829 49.8337 26.2988C49.8711 25.4493 49.8991 24.8239 49.9364 24.4318C49.9738 24.0398 49.9364 23.4143 49.8337 22.5648C49.731 21.7154 49.6469 21.0899 49.5816 20.6979C49.5162 20.3058 49.4041 19.7084 49.2454 18.9055C49.0959 18.1027 48.9932 17.552 48.9652 17.2439C48.8998 16.7959 48.9278 16.4598 49.0679 16.2171C49.208 15.9744 49.4788 15.909 49.8897 16.0117C50.2259 16.0491 50.4874 16.1611 50.6555 16.3665C50.8236 16.5718 50.9637 16.9266 51.0664 17.44C51.1691 17.9907 51.2532 18.2614 51.3185 18.2614C51.7948 17.6453 52.5139 17.2626 53.4664 17.1132L53.4571 17.0946ZM54.7085 20.3431C54.7272 20.1751 54.6898 20.0071 54.6058 19.8577C54.5217 19.7084 54.4563 19.6057 54.4283 19.5497C54.391 19.503 54.2883 19.4096 54.1202 19.2696C53.9147 19.1016 53.6626 19.1203 53.3731 19.3163C53.0836 19.5217 52.8314 19.8484 52.626 20.2871C52.4205 20.7632 52.2804 21.3326 52.2151 22.0047C52.1497 22.6675 52.1684 23.2463 52.2618 23.7224C52.3645 24.1985 52.5326 24.4038 52.7754 24.3385C53.289 24.2731 53.868 23.1436 54.5217 20.9592C54.6244 20.7165 54.6805 20.5111 54.6992 20.3431H54.7085ZM63.8324 6.33142C64.6542 5.818 65.2332 5.56596 65.5787 5.56596C65.6815 5.56596 65.7842 5.66863 65.8869 5.874C65.9896 6.07937 66.0363 6.30341 66.0363 6.53679C66.0363 6.88218 65.9429 7.14356 65.7562 7.33026C65.5694 7.51696 65.1305 7.76899 64.4487 8.07704L63.4215 8.59046V9.41194C63.4215 10.7748 63.711 11.6803 64.29 12.1284C64.4954 12.2964 64.6075 12.4271 64.6262 12.5111C64.6449 12.5951 64.6262 12.7445 64.5515 12.9499C64.0752 14.1447 63.4962 14.3501 62.8051 13.566C62.3289 13.0526 62.0394 12.4271 61.9366 11.671C61.8713 11.3256 61.7966 10.9802 61.7312 10.6255C61.6658 10.2708 61.5818 9.97203 61.479 9.72933C61.4137 9.62664 61.3109 9.5893 61.1709 9.59864C61.0308 9.61731 60.6386 9.72933 59.9942 9.9347C59.4152 10.1027 58.6401 10.2894 57.6595 10.4948C56.679 10.7002 56.0439 10.8028 55.7357 10.8028C55.3622 10.8402 55.1661 10.5228 55.1474 9.86001C55.1287 9.19724 55.2034 8.7585 55.3809 8.55313C55.4182 8.48779 55.7918 8.43177 56.5109 8.40377C57.2299 8.36643 57.9397 8.34776 58.6401 8.32909C59.3405 8.31042 59.686 8.25441 59.686 8.15172C60.1249 7.94635 60.4144 7.75966 60.5358 7.59164C60.6572 7.42361 60.7133 7.14356 60.7133 6.77016C60.7133 6.70481 60.7319 6.6208 60.76 6.51811C60.76 6.21006 60.7786 5.9767 60.8067 5.82734C60.844 5.67798 60.872 5.47261 60.9094 5.21123C60.9467 4.95919 60.9934 4.76315 61.0588 4.65113C61.1242 4.52978 61.2082 4.41776 61.3109 4.31507C61.4137 4.21239 61.5537 4.17505 61.7218 4.21239C61.8899 4.24973 62.058 4.31507 62.2355 4.41776C62.4036 4.55778 62.4876 4.84717 62.4876 5.28591C62.553 6.6208 63.0012 6.97552 63.8231 6.35942L63.8324 6.33142ZM72.975 33.6547C72.7228 33.468 72.4333 33.2346 72.1252 32.9639C71.817 32.6932 71.5928 32.5159 71.4621 32.4505C71.0138 32.5905 70.4162 32.7959 69.6691 33.0666C68.922 33.3373 68.1095 33.6361 67.2317 33.9628C66.3632 34.2895 65.7748 34.5042 65.4667 34.6069C65.0558 34.8123 64.6449 34.8402 64.234 34.6816C63.8231 34.5229 63.5709 34.2988 63.4682 33.9908C63.3655 33.7481 63.104 33.552 62.6744 33.4027C62.2448 33.2533 62.03 32.9826 62.03 32.6092C61.9647 32.3665 61.9086 32.1705 61.8806 32.0211C61.8433 31.8718 61.8246 31.6757 61.8059 31.461C61.7872 31.237 61.7685 31.0783 61.7592 30.9756C61.7405 30.8729 61.7592 30.6582 61.7872 30.3315C61.8246 30.0048 61.8433 29.7621 61.8619 29.5847C61.8806 29.4167 61.9086 29.0526 61.9647 28.5112C62.0113 27.9697 62.058 27.5217 62.0954 27.1763C62.0954 26.8682 62.0954 26.4482 62.1234 25.9254C62.1421 25.3933 62.1514 25.0479 62.1514 24.8799C62.1514 24.7119 62.1794 24.3945 62.2261 23.9371C62.2728 23.4797 62.3569 22.9942 62.4596 22.4808C62.5623 21.9674 62.6837 21.2673 62.8145 20.3805C63.2254 18.3361 63.655 17.1693 64.0939 16.8985C64.3647 16.7305 64.6635 16.7585 64.9904 16.9732C65.3172 17.1973 65.5134 17.5146 65.5787 17.916C65.6161 18.2241 65.6628 18.3921 65.7281 18.4295C65.7935 18.4668 65.971 18.4108 66.2418 18.2801C66.5126 18.1401 66.7834 18.0561 67.0636 18.0281C67.5025 17.9254 68.0908 17.776 68.8099 17.5707C69.529 17.3653 70.0613 17.2253 70.4255 17.1599C70.7804 17.0946 71.21 17.0292 71.7049 16.9826C72.1999 16.9359 72.6481 16.9452 73.059 17.0292C73.4699 17.1133 73.8808 17.2813 74.2917 17.5146C75.1135 17.888 75.6645 18.4015 75.954 19.0549C76.2435 19.7084 76.4396 20.9872 76.5423 22.8916C76.6077 24.0491 76.6451 24.7866 76.6451 25.0946C76.6451 25.4027 76.5797 25.9161 76.4396 26.6349C76.2995 27.3536 76.1968 27.9324 76.1314 28.3805C76.0941 28.9312 76.0848 29.286 76.1034 29.454C76.1221 29.622 76.1968 29.8834 76.3369 30.2195C76.6077 30.4902 76.7198 30.7702 76.6731 31.0689C76.6264 31.3583 76.533 31.5917 76.4209 31.7597C76.2995 31.9278 76.1314 32.1238 75.9073 32.3478C75.6832 32.5719 75.5431 32.7492 75.4684 32.8893C75.3003 33.16 75.0201 33.3933 74.6466 33.58C74.273 33.7667 73.9275 33.8601 73.6193 33.8601C73.4512 33.9254 73.2365 33.8601 72.975 33.6827V33.6547ZM67.6239 26.3548C67.5212 26.3921 67.2597 26.4575 66.8301 26.5602C66.4005 26.6629 66.083 26.7469 65.8589 26.8122C65.6348 26.8776 65.3826 26.9803 65.0931 27.1203C64.8036 27.2603 64.5888 27.391 64.4487 27.531C64.4114 27.699 64.3273 28.5019 64.1966 29.9394C64.1312 31.1996 64.1312 31.9278 64.1966 32.1145C64.262 32.3011 64.5888 32.3292 65.1678 32.1891C65.6815 32.0491 66.0363 31.8344 66.2418 31.5264C67.4371 28.8286 67.8947 27.1016 67.6239 26.3548ZM65.42 21.0246C65.1492 21.4353 64.9344 22.0888 64.7756 22.9942C64.6262 23.8997 64.6449 24.4505 64.8503 24.6559C65.0184 24.8612 65.5134 24.8706 66.3352 24.6839C67.157 24.4972 67.6519 24.2638 67.82 23.9931C67.8854 23.8531 67.9321 23.1903 67.9508 21.9954C67.9694 20.8005 67.9508 20.1471 67.876 20.0537C67.3624 19.643 66.5406 19.9697 65.42 21.0246ZM71.3874 21.9954C72.0504 21.4166 72.5547 21.1273 72.9003 21.1273C73.1057 21.1273 73.2831 21.2113 73.4419 21.3793C73.5913 21.5473 73.6754 21.734 73.6754 21.9394C73.6754 22.1821 73.3298 22.6302 72.6481 23.293C71.9664 23.9557 71.35 24.3945 70.7991 24.5999C70.3508 24.7679 70.0239 25.1226 69.7998 25.6454C69.5757 26.1775 69.3983 26.8496 69.2582 27.671C69.1181 28.4925 68.9874 29.0899 68.8473 29.4633C68.7072 29.8087 68.6138 30.0608 68.5671 30.2288C68.5204 30.3968 68.4831 30.5555 68.4644 30.6862C68.4457 30.8262 68.4644 30.9009 68.4924 30.9196C68.5298 30.9383 68.6138 30.9476 68.7445 30.9476C68.8753 30.9476 69.0247 30.9196 69.1835 30.8729C69.3422 30.8262 69.5663 30.7702 69.8745 30.7236C70.1827 30.6769 70.4722 30.6115 70.743 30.5462C72.1065 30.2008 72.9656 30.0048 73.3018 29.9301C73.61 29.8927 73.8155 29.8087 73.9182 29.678C74.0209 29.538 74.0863 29.2673 74.1236 28.8566C74.161 28.5859 74.2264 28.1751 74.3291 27.6244C74.4318 27.0829 74.5065 26.6535 74.5625 26.3455C74.6186 26.0374 74.6653 25.636 74.712 25.1413C74.7587 24.6465 74.7773 24.1611 74.7587 23.685C74.74 23.2089 74.712 22.7142 74.684 22.2008C74.5439 21.0059 74.3104 20.2311 73.9649 19.867C73.6193 19.5123 72.9563 19.1763 71.9664 18.8682C71.6582 18.8309 71.294 18.8682 70.8644 18.9429C70.4348 19.0269 70.1734 19.1202 70.0706 19.2229C69.9679 19.2883 69.9025 19.923 69.8652 21.1179C69.8652 21.9021 69.8652 22.3968 69.8932 22.6022C69.9119 22.8076 69.9679 22.9102 70.0706 22.9102C70.2761 22.8729 70.715 22.5648 71.3781 21.9861L71.3874 21.9954ZM78.1766 4.89385L79.4093 4.79116C79.6801 4.79116 80.1471 4.74448 80.7915 4.6418C81.4358 4.53912 81.9121 4.49244 82.2016 4.49244C82.4911 4.49244 82.8553 4.55778 83.3036 4.69781C83.6771 5.0432 83.6584 5.54729 83.2569 6.23808C82.7806 7.05955 82.2016 7.26491 81.5105 6.85417C81.4078 6.68614 80.8195 6.63014 79.7455 6.70482C78.6716 6.77017 77.9992 6.82616 77.719 6.85417C77.4108 6.99419 77.14 7.61031 76.8972 8.70249C76.8599 9.15057 76.7758 9.5613 76.6451 9.95337C76.505 10.3454 76.3929 10.6348 76.3089 10.8215C76.2248 11.0082 76.0567 11.3069 75.8233 11.7177C75.5805 12.1284 75.431 12.3991 75.3657 12.5391C75.3003 12.6418 75.0949 12.7912 74.7493 12.9965C74.4038 13.2019 74.1703 13.2393 74.0302 13.0992C73.8902 12.9592 73.8435 12.7818 73.8808 12.5578C73.9182 12.3338 74.0863 11.9044 74.3945 11.2509C75.0108 9.91603 75.319 8.63714 75.319 7.41427C75.319 7.24624 75.291 7.14356 75.2443 7.10622C75.1976 7.06888 74.9921 7.05954 74.6559 7.05954C74.0116 7.05954 72.8629 6.97552 71.2193 6.80749C69.5757 6.63946 68.7632 6.48078 68.7632 6.35009C68.6605 6.21007 68.6418 6.02336 68.7165 5.78999C68.7819 5.54728 68.922 5.36059 69.1274 5.2299C69.4356 5.02454 69.8745 4.90318 70.4629 4.87517C71.0419 4.83783 71.7516 4.87517 72.5921 4.94985C73.4326 5.03387 74.0302 5.06187 74.4131 5.02453C75.2349 5.06187 75.7299 5.02453 75.898 4.89385C76.0661 4.77249 76.2062 4.40842 76.3089 3.79232C76.449 3.11087 76.5797 2.65346 76.7198 2.41075C76.8599 2.16805 77.1307 1.95334 77.5416 1.74797C78.1579 1.29989 78.5688 1.2439 78.7743 1.57062C78.9797 1.89734 78.9144 2.42009 78.5688 3.12955C78.326 3.57762 78.214 3.97902 78.214 4.36175V4.92185L78.1766 4.89385Z" fill="white"/>
<path d="M94.3412 14.0047C94.5279 13.9673 94.7054 13.9673 94.8921 14.0047C95.0789 14.042 95.219 14.154 95.3311 14.3314C95.6206 14.5461 95.826 14.8542 95.9287 15.2369C96.0315 15.6196 96.1435 16.3758 96.2556 17.5053C96.4424 19.4003 96.6385 20.3524 96.8533 20.3524C97.0027 20.3524 97.2735 19.6803 97.6751 18.3268C98.4035 17.0105 99.244 16.3944 100.197 16.4691C100.561 16.3944 101.121 16.6931 101.868 17.3746C102.615 18.0467 103.026 18.5695 103.101 18.9335C103.176 19.1482 103.306 19.4656 103.512 19.867C103.708 20.2684 103.867 20.6418 103.979 20.9872C104.091 21.3326 104.175 21.706 104.25 22.1074C104.399 22.8355 104.539 23.2276 104.688 23.2836C104.838 23.3396 105.109 23.1062 105.51 22.6021C106.239 21.5473 106.752 21.2393 107.042 21.6687C107.229 21.8834 107.229 22.2568 107.042 22.7608C106.967 22.8729 106.696 23.3209 106.22 24.1051C105.744 24.8892 105.454 25.3373 105.342 25.4493C104.829 26.0654 104.576 26.9802 104.576 28.1844C104.576 28.8005 104.474 29.622 104.278 30.6488C104.081 31.6664 103.885 32.3851 103.699 32.7865C103.484 33.1879 103.166 33.4493 102.765 33.58C102.363 33.7107 102.018 33.6453 101.728 33.384C101.541 33.0572 101.476 32.8052 101.513 32.6465C101.551 32.4785 101.672 32.2545 101.868 31.9651C102.064 31.6757 102.186 31.4516 102.223 31.3116C102.298 31.0222 102.354 30.6582 102.391 30.2194C102.428 29.7807 102.41 29.5473 102.335 29.51C102.298 29.4726 101.821 29.8927 100.916 30.7702C99.6362 32.0117 98.8144 32.6278 98.4502 32.6278C98.4128 32.6278 98.2541 32.5065 97.9832 32.2731C97.7124 32.0398 97.535 31.9371 97.4603 31.9744C97.3482 32.0117 97.2735 32.3198 97.2455 32.9079C97.2828 33.8227 96.8813 34.4015 96.0408 34.6629C95.7139 34.6629 95.4991 34.4855 95.4151 34.1121C95.3217 33.748 95.275 32.7305 95.275 31.0502C95.2377 27.7363 95.191 25.5613 95.1349 24.5438C95.0789 23.5263 94.9108 22.1167 94.612 20.3338C94.3972 18.9149 94.2104 17.9627 94.061 17.4866C93.9116 17.0105 93.7155 16.7772 93.4633 16.7772C93.2765 16.7772 92.8843 17.0665 92.2866 17.6546C91.689 18.2427 91.2034 18.7842 90.8391 19.2976C90.1854 20.3524 89.7372 21.0245 89.4944 21.2953C89.2609 21.566 89.0088 21.706 88.7566 21.706C88.2803 21.706 88.0469 21.3979 88.0469 20.7725C88.0469 20.5205 88.2337 20.0444 88.5979 19.3536C88.9621 18.6628 89.345 18.0934 89.7465 17.6546C89.9613 17.4773 90.3909 16.6838 91.0353 15.2742C91.6703 13.874 92.296 12.5018 92.8937 11.1762C93.4913 9.84131 93.9022 9.17853 94.1264 9.17853C94.2011 9.1412 94.3225 9.0385 94.5092 8.87981C94.696 8.71178 94.8268 8.59977 94.9202 8.52509C95.0135 8.45041 95.1723 8.38506 95.4151 8.32905C95.6486 8.27304 95.8634 8.3384 96.0408 8.52509C96.2276 8.63711 96.2743 8.94517 96.2089 9.45859C96.2089 9.82265 95.9941 10.3641 95.5832 11.0735C95.163 11.783 94.7521 12.4364 94.3505 13.0432C93.9489 13.6406 93.7715 13.986 93.7995 14.0514C93.9863 14.0887 94.1637 14.0887 94.3505 14.0514L94.3412 14.0047ZM102.522 25.1879C102.541 24.7678 102.419 24.5251 102.167 24.4505C101.84 24.5251 101.326 24.8332 100.635 25.384C99.9444 25.9347 99.5615 26.2241 99.4868 26.2614C97.9552 27.5403 97.2081 28.5392 97.2455 29.2673C97.2455 30.3221 97.3576 30.8542 97.5723 30.8542C97.7871 30.8542 98.6089 30.1821 100.038 28.8285C101.457 27.4843 102.223 26.6442 102.335 26.3081C102.447 25.9721 102.503 25.608 102.531 25.1879H102.522ZM99.1599 19.5776C98.9731 19.7923 98.8331 19.9977 98.721 20.1751C98.6089 20.3618 98.5062 20.5578 98.3941 20.7725C98.2821 20.9872 98.198 21.1646 98.1513 21.2953C98.0953 21.4259 98.0299 21.6126 97.9552 21.874C97.8805 22.1261 97.8245 22.3128 97.7871 22.4248C97.7498 22.5368 97.7031 22.7422 97.647 23.0502C97.591 23.3583 97.5537 23.5636 97.535 23.6477C97.5163 23.741 97.479 23.9744 97.4229 24.3571C97.3669 24.7398 97.3202 24.9826 97.2828 25.0946C97.5723 25.1319 98.114 24.8425 98.8984 24.2171C99.6829 23.601 100.243 23.2369 100.57 23.1249C101.373 22.6862 101.849 22.3874 101.99 22.2194C102.139 22.0514 102.139 21.7713 101.99 21.3699C101.663 20.3151 101.317 19.6056 100.953 19.2322C100.15 18.7188 99.5521 18.8308 99.1506 19.559L99.1599 19.5776ZM119.061 19.4096C119.5 19.7363 119.789 19.9044 119.938 19.9044C119.976 19.8297 120.405 19.9884 121.227 20.3711C122.049 20.7538 122.946 21.1832 123.907 21.6593C124.869 22.1354 125.467 22.4061 125.682 22.4808C126.158 22.5928 126.438 22.8448 126.532 23.2462C126.625 23.6476 126.485 24.0491 126.121 24.4505C125.542 25.1412 124.86 25.1226 124.094 24.3945C123.655 23.9557 122.749 23.4236 121.386 22.7795C120.023 22.1447 119.21 21.874 118.949 21.986C118.911 21.986 118.883 22.0047 118.865 22.042C118.846 22.0794 118.827 22.1447 118.809 22.2381C118.79 22.3314 118.762 22.4341 118.724 22.5368C118.687 22.6488 118.65 22.8168 118.612 23.0596C118.575 23.2929 118.528 23.5356 118.472 23.769C118.416 24.0024 118.332 24.3384 118.23 24.7492C118.117 25.1692 118.033 25.5987 117.959 26.0374C117.044 29.7247 116.082 31.8717 115.054 32.4878C114.69 32.7772 114.307 32.8892 113.906 32.8145C112.925 32.7399 112.066 32.0491 111.338 30.7329C110.712 29.818 110.553 29.1646 110.843 28.7632C111.057 28.5111 111.375 28.6698 111.776 29.2579C112.327 30.2754 112.906 30.7609 113.532 30.7049C114.149 30.6488 114.625 30.0981 114.952 29.0339C115.68 27.2136 116.231 25.0946 116.595 22.6862C116.745 21.8834 116.763 21.4073 116.651 21.2673C116.689 21.1926 116.324 21.0432 115.559 20.8005C114.793 20.5671 113.812 20.2684 112.636 19.923C111.45 19.5776 110.768 19.3816 110.581 19.3443C110.394 19.2696 110.264 19.0922 110.17 18.7935C110.077 18.5041 110.086 18.2427 110.198 18.028C110.562 17.664 111.067 17.4959 111.702 17.5333C112.337 17.5706 112.906 17.6826 113.401 17.86C113.896 18.0467 114.466 18.2614 115.129 18.5135C115.783 18.7655 116.296 18.9149 116.661 18.9522C116.875 18.9522 117.015 18.9335 117.072 18.8962C117.128 18.8588 117.174 18.7282 117.212 18.5135C117.398 17.7106 117.529 16.3198 117.623 14.3314C117.716 12.3431 117.688 11.0269 117.538 10.3641C117.426 10.112 117.258 10 117.015 10.0373C116.782 10.0747 116.296 10.2894 115.568 10.6908C115.456 10.7281 115.204 10.8402 114.802 11.0175C114.401 11.2042 114.158 11.3162 114.064 11.3722C113.971 11.4283 113.766 11.5216 113.439 11.643C113.112 11.7736 112.897 11.8483 112.813 11.8577C112.72 11.8763 112.542 11.9137 112.262 11.9697C111.982 12.0257 111.795 12.035 111.683 11.9977C111.571 11.9603 111.412 11.9323 111.188 11.9137C110.973 11.895 110.796 11.8297 110.665 11.7176C110.534 11.6056 110.385 11.4843 110.198 11.3349C110.011 11.1855 109.834 11.0082 109.647 10.7841C109.208 10.3081 108.938 9.45858 108.825 8.24504C108.713 7.02217 108.844 6.10734 109.208 5.4819C109.423 5.19252 109.741 5.04316 110.142 5.04316C110.544 5.04316 110.889 5.22053 111.179 5.56593C111.468 5.91132 111.468 6.26604 111.179 6.63011C111.029 6.91949 110.983 7.32088 111.011 7.8343C111.048 8.34773 111.179 8.83314 111.394 9.30922C111.608 9.7853 111.814 9.96266 111.991 9.85998C112.645 9.82264 113.607 9.45858 114.868 8.7678C116.128 8.07701 117.118 7.73162 117.847 7.73162C118.323 7.76896 118.65 7.90899 118.827 8.14236C119.014 8.37573 119.191 8.91715 119.378 9.7573C119.528 10.196 119.612 10.7655 119.649 11.4843C119.686 12.1937 119.686 12.8191 119.649 13.3419C119.612 13.874 119.546 14.6115 119.453 15.5543C119.36 16.5064 119.313 17.1039 119.313 17.3559L119.042 19.3816L119.061 19.4096Z" fill="white"/>
</svg>
