<svg width="1220" height="60" viewBox="0 0 1220 60" fill="none" xmlns="http://www.w3.org/2000/svg">
<g clip-path="url(#clip0_351_1253)">
<path d="M1219.18 0H-0.000488281V60H1219.18V0Z" fill="white"/>
<path d="M24.9946 17.4521H29.8607C31.9744 17.4521 33.5863 17.807 34.6964 18.5115C35.6087 19.0792 36.3235 19.8852 36.8405 20.9192C37.3575 21.9888 37.616 23.109 37.616 24.2951C37.616 26.0134 37.1345 27.529 36.1714 28.8368C34.742 30.7731 32.4863 31.7463 29.4095 31.7463H26.7839L25.5876 41.4633H22.0293L24.9996 17.4572L24.9946 17.4521ZM28.1373 20.7621L27.1742 28.5833H29.4906C30.9505 28.5833 32.0758 28.2083 32.8564 27.4581C33.637 26.7079 34.0323 25.6231 34.0323 24.1988C34.0323 21.9077 32.5725 20.7621 29.6478 20.7621H28.1373Z" fill="#231815"/>
<path d="M55.0127 26.8145L53.2082 41.4635H49.7715L49.9742 39.8769C48.5043 41.1644 46.9785 41.8031 45.4021 41.8031C43.4658 41.8031 41.8843 41.1441 40.6577 39.8262C39.4361 38.5083 38.8228 36.8052 38.8228 34.7118C38.8228 32.299 39.5223 30.3171 40.9213 28.7711C42.3405 27.2251 44.1603 26.4546 46.3804 26.4546C47.4297 26.4546 48.3167 26.6269 49.0568 26.9665C49.8019 27.3062 50.5673 27.8992 51.3428 28.7406L51.576 26.8145H55.0127ZM50.8309 33.7183C50.8309 32.4206 50.4558 31.3714 49.7106 30.5604C48.9655 29.7392 48.0024 29.3337 46.8163 29.3337C45.5288 29.3337 44.4543 29.8355 43.5824 30.8442C42.7106 31.858 42.2746 33.1049 42.2746 34.5749C42.2746 35.8624 42.6396 36.9116 43.3644 37.7328C44.0893 38.5539 45.022 38.9594 46.1625 38.9594C47.4246 38.9594 48.5195 38.4475 49.442 37.4185C50.3645 36.3693 50.8258 35.1375 50.8258 33.7183H50.8309Z" fill="#231815"/>
<path d="M80.9698 26.8142L71.5468 42.999L68.5916 33.5456L63.3504 42.999L58.0332 26.8142H61.6574L64.2375 35.7557L69.4635 26.4087L72.2615 35.7557L77.0667 26.8142H80.9698Z" fill="#231815"/>
<path d="M97.3426 30.0027L95.9436 41.4634H92.5069L93.9211 30.0027H91.6807L92.071 26.8144H94.3114L95.1224 20.2705C95.3302 18.5268 95.8016 17.2495 96.5366 16.4283C97.2716 15.6072 98.3259 15.2017 99.6945 15.2017C100.526 15.2017 101.494 15.4652 102.604 15.9924L102.229 19.0084C101.585 18.4913 100.997 18.2328 100.455 18.2328C99.8314 18.2328 99.3701 18.4457 99.071 18.8715C98.7923 19.2973 98.5794 20.0779 98.4324 21.2184L97.7481 26.8144H100.855L100.465 30.0027H97.3375H97.3426Z" fill="#231815"/>
<path d="M118.855 33.9968C118.855 36.2372 118.08 38.1178 116.523 39.6384C114.977 41.1642 113.071 41.9245 110.801 41.9245C108.53 41.9245 106.487 41.2047 104.987 39.7652C103.471 38.3155 102.716 36.4805 102.716 34.2604C102.716 32.0402 103.496 30.1039 105.063 28.5985C106.639 27.0829 108.606 26.3276 110.973 26.3276C113.34 26.3276 115.185 27.0423 116.65 28.4718C118.12 29.8809 118.86 31.7209 118.86 33.9917L118.855 33.9968ZM115.388 33.8245C115.388 32.4153 114.977 31.3002 114.161 30.479C113.34 29.6275 112.271 29.2017 110.943 29.2017C109.615 29.2017 108.423 29.6731 107.521 30.6159C106.619 31.5688 106.168 32.7651 106.168 34.2097C106.168 35.6543 106.593 36.8252 107.445 37.7072C108.297 38.6095 109.391 39.0606 110.74 39.0606C112.088 39.0606 113.198 38.5689 114.065 37.5856C114.947 36.6123 115.388 35.3553 115.388 33.8245Z" fill="#231815"/>
<path d="M127.396 26.8146L127.239 28.0717C128.399 26.9718 129.57 26.4243 130.751 26.4243C131.785 26.4243 132.733 26.8045 133.58 27.5597L131.385 30.3882C130.751 29.8509 130.118 29.5771 129.489 29.5771C129.053 29.5771 128.668 29.6633 128.338 29.8357C128.009 30.008 127.72 30.2766 127.477 30.6467C127.233 31.0167 127.031 31.4881 126.869 32.071C126.706 32.6539 126.58 33.3484 126.488 34.1543L125.586 41.4636H122.149L123.954 26.8146H127.391H127.396Z" fill="#231815"/>
<path d="M148.213 17.4521H152.658C154.057 17.4521 155.193 17.6042 156.065 17.9033C156.916 18.2023 157.636 18.7143 158.224 19.429C159.167 20.5594 159.638 21.9229 159.638 23.5196C159.638 25.9475 158.472 27.7977 156.141 29.07C158.969 29.7745 160.383 31.5486 160.383 34.3872C160.383 35.5581 160.135 36.6631 159.638 37.6971C159.162 38.7211 158.488 39.5523 157.616 40.1859C156.921 40.6928 156.161 41.0324 155.33 41.1946C154.894 41.2757 154.372 41.3416 153.758 41.3873C153.145 41.4329 152.42 41.4582 151.584 41.4582H145.258L148.213 17.4521ZM150.124 30.7934L149.222 38.1483H151.614C153.398 38.1483 154.62 37.9252 155.284 37.4792C156.298 36.805 156.81 35.6848 156.81 34.1185C156.81 33.5255 156.724 33.0237 156.551 32.6029C156.379 32.1822 156.115 31.8375 155.75 31.5689C155.385 31.3003 154.919 31.1026 154.341 30.9758C153.763 30.8491 153.074 30.7883 152.263 30.7883H150.119L150.124 30.7934ZM151.351 20.7621L150.479 27.9447H151.487C154.534 27.9447 156.06 26.5254 156.06 23.6868C156.06 21.7404 154.899 20.7621 152.577 20.7621H151.351Z" fill="#231815"/>
<path d="M167.175 35.3655C167.175 36.4452 167.551 37.3322 168.296 38.0267C169.051 38.7211 170.014 39.0708 171.19 39.0708C172.797 39.0708 174.029 38.4677 174.89 37.2663L177.455 38.6805C176.563 39.8819 175.645 40.7233 174.703 41.1998C173.75 41.6864 172.559 41.9297 171.124 41.9297C168.853 41.9297 167.044 41.2606 165.695 39.9224C164.347 38.5842 163.673 36.7949 163.673 34.5596C163.673 32.3242 164.413 30.2561 165.898 28.6848C167.368 27.1185 169.228 26.3379 171.479 26.3379C173.729 26.3379 175.372 27.0425 176.624 28.4516C177.901 29.8709 178.535 31.7717 178.535 34.1591C178.535 34.4075 178.52 34.813 178.489 35.3706H167.17L167.175 35.3655ZM175.057 32.5979C174.693 30.3372 173.446 29.2069 171.312 29.2069C169.289 29.2069 167.971 30.3372 167.363 32.5979H175.057Z" fill="#231815"/>
<path d="M186.989 30.0025L185.575 41.4632H182.138L183.553 30.0025H181.611L182.002 26.8142H183.943L184.784 20.022H188.221L187.38 26.8142H190.553L190.162 30.0025H186.989Z" fill="#231815"/>
<path d="M196.656 30.0025L195.242 41.4632H191.805L193.22 30.0025H191.278L191.669 26.8142H193.61L194.451 20.022H197.888L197.047 26.8142H200.22L199.829 30.0025H196.656Z" fill="#231815"/>
<path d="M205.324 35.3655C205.324 36.4452 205.699 37.3322 206.444 38.0267C207.199 38.7211 208.162 39.0708 209.338 39.0708C210.945 39.0708 212.177 38.4677 213.039 37.2663L215.603 38.6805C214.711 39.8819 213.794 40.7233 212.851 41.1998C211.898 41.6864 210.707 41.9297 209.272 41.9297C207.002 41.9297 205.192 41.2606 203.844 39.9224C202.495 38.5842 201.821 36.7949 201.821 34.5596C201.821 32.3242 202.561 30.2561 204.047 28.6848C205.516 27.1185 207.377 26.3379 209.627 26.3379C211.878 26.3379 213.52 27.0425 214.772 28.4516C216.05 29.8709 216.683 31.7717 216.683 34.1591C216.683 34.4075 216.668 34.813 216.638 35.3706H205.319L205.324 35.3655ZM213.206 32.5979C212.841 30.3372 211.594 29.2069 209.46 29.2069C207.438 29.2069 206.12 30.3372 205.511 32.5979H213.206Z" fill="#231815"/>
<path d="M225.235 26.8146L225.077 28.0717C226.238 26.9718 227.409 26.4243 228.59 26.4243C229.624 26.4243 230.572 26.8045 231.419 27.5597L229.224 30.3882C228.59 29.8509 227.957 29.5771 227.328 29.5771C226.892 29.5771 226.507 29.6633 226.177 29.8357C225.848 30.008 225.559 30.2766 225.316 30.6467C225.072 31.0167 224.87 31.4881 224.707 32.071C224.545 32.6539 224.418 33.3484 224.327 34.1543L223.425 41.4636H219.988L221.793 26.8146H225.229H225.235Z" fill="#231815"/>
<path d="M235.504 39.765C235.504 40.3124 235.291 40.7889 234.865 41.1944C234.44 41.5999 233.948 41.8027 233.39 41.8027C232.833 41.8027 232.331 41.5948 231.931 41.1792C231.525 40.7635 231.322 40.2567 231.322 39.6535C231.322 39.0503 231.51 38.5839 231.88 38.1936C232.275 37.7983 232.747 37.6006 233.294 37.6006C233.907 37.6006 234.424 37.8135 234.85 38.2393C235.286 38.665 235.504 39.1719 235.504 39.765Z" fill="#231815"/>
<path d="M1169.96 33.3982C1169.96 33.3982 1167.35 37.0529 1166.37 37.3519C1165.41 37.651 1156.46 37.4026 1155.5 37.5192C1154.54 37.6408 1151.43 38.5989 1150.65 38.3556C1149.87 38.1173 1152.74 34.4018 1154.72 33.8645C1156.7 33.3272 1161.95 32.2577 1162.97 31.4214C1163.25 31.1882 1164.74 29.115 1165.3 27.3511C1165.3 27.3511 1169.25 27.7718 1169.96 33.3982H1169.96Z" fill="#181616"/>
<path d="M1167.34 16.6308C1164.17 10.1122 1162.35 10.0413 1161.36 10.244C1160.31 10.462 1160.43 16.8285 1160.43 16.8285L1167.33 16.6308H1167.34Z" fill="#181616"/>
<path d="M1203.77 28.9883C1203.18 35.2128 1201.51 41.2802 1195.19 44.3165C1188.89 47.3477 1183.46 48.7061 1181.46 52.2999C1179.47 55.8937 1175.4 52.4621 1179.15 48.6301C1182.9 44.798 1188.04 42.9631 1193.13 40.7277C1198.08 38.5532 1200.79 36.0188 1203.77 28.9934" fill="#181616"/>
<path d="M1158.42 22.4499C1155.76 19.6823 1157.52 17.2493 1159.19 16.0885C1159.63 15.7844 1159.81 13.4172 1163.18 11.9777C1165.28 11.0856 1168.98 11.9777 1168.98 11.9777C1168.98 11.9777 1169.97 9.9907 1171.25 10.2695C1172.32 10.5027 1174.21 13.7923 1174.55 16.6765C1174.85 19.3022 1180.57 17.8018 1185.37 15.6425C1194.57 11.5114 1201.52 17.1783 1203.77 23.3826C1206.17 30.0127 1202.22 36.8505 1197.49 37.9302C1192.76 39.0099 1176.19 40.9259 1175.28 41.4632C1174.38 42.0005 1172.67 45.1178 1171.7 45.4169C1170.73 45.716 1162.34 45.7768 1161.39 45.8934C1160.43 46.015 1157.32 46.973 1156.53 46.7297C1155.75 46.4915 1158.63 42.776 1160.6 42.2387C1162.58 41.7014 1165.93 40.9817 1166.95 40.1453C1167.23 39.9121 1167.53 39.385 1167.82 38.7463C1165.71 36.4096 1164.01 26.7179 1163.96 25.2986C1163.96 25.2986 1160.42 24.5484 1158.41 22.455L1158.42 22.4499Z" fill="#181616"/>
<path d="M1169.25 34.5752C1169.25 34.5752 1168.58 37.0589 1167.83 38.7418" stroke="#6D6D77" stroke-width="0.405" stroke-linecap="round" stroke-linejoin="round"/>
<path d="M1199.72 23.1195C1199.72 23.1195 1197.06 20.9196 1193.3 21.7711C1186.6 23.2918 1186.28 32.6388 1185.61 33.4447C1185.01 34.1695 1180.66 34.1138 1181.74 39.5273" stroke="#6D6D77" stroke-width="0.405" stroke-linecap="round" stroke-linejoin="round"/>
<path d="M1162.8 12.1504C1162.8 12.1504 1161.48 12.7232 1160.81 13.5545" stroke="#6D6D77" stroke-width="0.405" stroke-linecap="round" stroke-linejoin="round"/>
<path d="M1174.68 17.9033C1174.68 17.9033 1176 22.5819 1171.51 23.9403" stroke="#6D6D77" stroke-width="0.405" stroke-linecap="round" stroke-linejoin="round"/>
<path d="M1161.18 15.9363C1161.09 16.2455 1160.85 16.4533 1160.65 16.3925C1160.44 16.3368 1160.34 16.0377 1160.42 15.7285C1160.51 15.4193 1160.75 15.2115 1160.95 15.2723C1161.16 15.3281 1161.26 15.6271 1161.18 15.9363Z" fill="#6D6D77"/>
<path d="M1167.83 16.7171C1167.75 17.0263 1167.51 17.2341 1167.3 17.1733C1167.09 17.1125 1166.99 16.8185 1167.08 16.5093C1167.16 16.2001 1167.4 15.9922 1167.61 16.0531C1167.82 16.1088 1167.92 16.4079 1167.83 16.7171Z" fill="#6D6D77"/>
<path d="M1160.7 18.0349C1160.7 18.0349 1161.92 19.363 1163.23 17.9082C1163.23 17.9082 1163.87 19.5708 1165.91 18.8459" stroke="#6D6D77" stroke-width="0.405" stroke-linecap="round" stroke-linejoin="round"/>
<path d="M1164.09 17.3051C1164.04 17.5738 1163.62 17.9844 1163.23 17.9033C1162.83 17.8222 1162.61 17.2798 1162.67 17.0112C1162.72 16.7425 1163.04 16.7983 1163.44 16.8794C1163.83 16.9605 1164.15 17.0365 1164.09 17.3051Z" fill="#E96E6E"/>
<path d="M872.932 29.3432C871.143 33.7632 871.219 44.7119 867.66 47.9966C866.966 48.6403 864.016 48.5896 863.874 47.9966C863.722 47.3427 865.42 46.187 865.42 46.187C865.901 42.725 866.114 35.5829 866.114 35.5829C866.271 31.7965 865.952 26.3627 865.952 26.3627C865.952 26.3627 869.683 25.0296 872.932 29.3483V29.3432Z" fill="#FBDACF"/>
<path d="M882.456 45.199C882.456 45.199 885.979 45.3713 889.086 41.7775C892.193 38.1837 891.271 33.1858 891.276 29.4957C891.276 25.8056 891.438 23.5601 893.907 21.4413C896.375 19.3225 893.983 17.1784 892.432 17.6498C890.881 18.1263 888.371 20.5492 888.838 26.1046C889.299 31.6601 890.333 35.7912 888.407 39.3749C886.481 42.9586 882.963 43.6277 882.963 43.6277L882.461 45.2041L882.456 45.199Z" fill="#FBDACF"/>
<path d="M876.227 23.5853C873.079 22.5614 871.629 20.5947 871.629 20.5947C871.629 20.5947 872.567 19.5353 872.77 18.1718C873.043 16.3673 872.151 15.318 872.045 14.5171C871.938 13.7162 871.553 12.7633 871.051 11.8205C870.859 11.4606 869.632 8.10503 868.654 7.89721C867.807 7.71473 866.54 10.2187 866.54 10.2187C864.3 10.2745 859.991 11.3339 859.991 11.3339C858.876 9.79296 857.365 9.46348 856.707 9.8994C856.022 10.3556 856.489 13.3868 856.489 13.3868C856.382 15.3079 855.794 19.4542 857.335 21.5071C858.111 22.536 857.35 25.3695 858.09 29.4753C858.83 33.5811 859.099 35.4616 859.099 35.4616C859.099 35.4616 858.886 42.6036 858.405 46.0657C858.405 46.0657 856.57 47.0439 856.859 47.8752C857.056 48.4531 859.662 48.2453 860.387 47.637C862.115 46.1924 861.74 43.7644 863.529 39.3444C864.979 40.4595 866.429 41.6203 867.422 42.8216C867.143 44.6819 867.199 46.167 867.199 46.167C867.199 46.167 864.857 48.0172 865.268 48.0172H877.22C877.22 48.0172 882.162 46.8767 883.749 44.5906C886.055 41.2655 888.696 27.6302 876.232 23.5802L876.227 23.5853Z" fill="#FBDACF"/>
<path d="M870.493 14.4106C870.306 13.9088 870.052 13.4272 869.743 13.0521C869.206 12.4084 868.369 12.0738 867.503 11.9167C866.575 11.7444 865.663 11.8305 864.74 12.0029C863.24 12.2817 861.846 12.9406 860.989 14.0963C859.94 15.5156 860.34 17.7307 861.831 18.8002C862.637 19.378 863.706 19.5909 864.745 19.596C866.342 19.6011 868.06 19.3324 869.51 18.7242C870.838 18.1666 871.097 16.9044 870.863 15.7082C870.787 15.3078 870.666 14.8566 870.498 14.4156L870.493 14.4106Z" fill="#76463A"/>
<path d="M868.59 13.9498C868.696 14.264 868.955 14.4617 869.162 14.3908C869.37 14.3198 869.456 14.0055 869.35 13.6913C869.244 13.377 868.985 13.1793 868.777 13.2503C868.564 13.3212 868.483 13.6355 868.59 13.9498Z" fill="#181616"/>
<path d="M861.797 15.1563C861.903 15.4706 862.162 15.6683 862.37 15.5973C862.577 15.5263 862.663 15.2121 862.557 14.8978C862.451 14.5835 862.192 14.3858 861.984 14.4568C861.776 14.5278 861.69 14.842 861.797 15.1563Z" fill="#181616"/>
<path d="M869.213 16.0786C869.213 16.0786 868.037 17.5182 866.602 16.0989C866.602 16.0989 866.039 17.8426 863.9 17.2191" stroke="#060203" stroke-width="0.295" stroke-linecap="round" stroke-linejoin="round"/>
<path d="M865.679 15.5364C865.75 15.8101 866.206 16.2055 866.602 16.099C867.002 15.9926 867.195 15.4248 867.124 15.1511C867.053 14.8774 866.723 14.9534 866.328 15.0599C865.927 15.1663 865.608 15.2677 865.684 15.5364H865.679Z" fill="#E96E6E"/>
<path d="M877.189 48.0422C877.189 48.0422 871.517 49.3702 871.031 48.2551C870.544 47.1348 872.962 46.4049 872.962 46.4049C872.962 46.4049 872.906 44.9198 873.185 43.0595C873.57 40.4896 874.594 37.1999 877.28 36.1202C881.918 34.2549 882.983 40.6518 882.983 40.6518L877.189 48.0422Z" fill="#FBDACF"/>
<mask id="mask0_351_1253" style="mask-type:luminance" maskUnits="userSpaceOnUse" x="856" y="7" width="30" height="42">
<path d="M876.227 23.5853C873.079 22.5614 871.629 20.5947 871.629 20.5947C871.629 20.5947 872.567 19.5353 872.77 18.1718C873.043 16.3673 872.151 15.318 872.045 14.5171C871.938 13.7162 871.553 12.7633 871.051 11.8205C870.859 11.4606 869.632 8.10503 868.654 7.89721C867.807 7.71473 866.54 10.2187 866.54 10.2187C864.3 10.2745 859.991 11.3339 859.991 11.3339C858.876 9.79296 857.365 9.46348 856.707 9.8994C856.022 10.3556 856.489 13.3868 856.489 13.3868C856.382 15.3079 855.794 19.4542 857.335 21.5071C858.111 22.536 857.35 25.3695 858.09 29.4753C858.83 33.5811 859.099 35.4616 859.099 35.4616C859.099 35.4616 858.886 42.6036 858.405 46.0657C858.405 46.0657 856.57 47.0439 856.859 47.8752C857.056 48.4531 859.662 48.2453 860.387 47.637C862.115 46.1924 861.74 43.7644 863.529 39.3444C864.979 40.4595 866.429 41.6203 867.422 42.8216C867.143 44.6819 867.199 46.167 867.199 46.167C867.199 46.167 864.857 48.0172 865.268 48.0172H877.22C877.22 48.0172 882.162 46.8767 883.749 44.5906C886.055 41.2655 888.696 27.6302 876.232 23.5802L876.227 23.5853Z" fill="white"/>
</mask>
<g mask="url(#mask0_351_1253)">
<path d="M859.272 11.4912C859.566 11.4354 859.971 11.3796 860.23 11.2428C860.757 10.964 861.02 10.3202 860.995 9.72212C860.975 9.26592 860.823 8.78945 860.478 8.47011C860.143 8.16598 859.692 7.91761 859.226 7.95309C858.217 8.02406 857.274 8.30284 856.398 8.80973C855.647 9.24565 854.953 9.82857 854.385 10.4875C854.076 10.8474 853.868 11.2529 853.868 11.7395C853.868 12.1754 854.061 12.6925 854.385 12.9915C854.725 13.3007 855.166 13.5339 855.637 13.5086C855.967 13.4933 856.174 13.5947 856.448 13.4021C856.838 13.1284 857.279 12.5404 857.655 12.2413C858.05 11.9271 858.501 11.6736 858.998 11.5469C859.089 11.5266 859.175 11.5064 859.266 11.4861L859.272 11.4912Z" fill="#76463A"/>
<path d="M873.1 8.55592C872.263 8.04903 871.422 7.54215 870.515 7.16705C869.957 6.93896 869.384 6.71593 868.796 6.58414C868.543 6.52838 868.289 6.49797 868.036 6.47262C867.909 6.35097 867.772 6.23945 867.61 6.16342C866.637 5.69202 865.476 6.00122 864.944 6.9643C864.381 7.97807 864.452 9.12363 865.37 9.78258C866.084 10.2945 867.301 10.2895 868.117 10.4973C869.045 10.7355 870.362 11.4705 871.178 11.9521C871.503 12.1447 871.331 12.094 871.69 12.1954C872.527 12.4285 873.52 12.023 873.901 11.2323C874.387 10.2286 874.042 9.13884 873.1 8.56606V8.55592Z" fill="#76463A"/>
</g>
<path d="M870.971 47.7082C871.072 47.034 872.121 46.076 873.211 46.076C874.002 46.076 871.239 36.8608 876.521 34.0121C879.334 32.4965 881.57 34.0324 881.57 34.0324" stroke="#141421" stroke-width="0.295" stroke-linecap="round" stroke-linejoin="round"/>
<path d="M866.206 34.2148L865.846 41.0071" stroke="#141421" stroke-width="0.295" stroke-linecap="round" stroke-linejoin="round"/>
<path d="M871.518 34.7017C871.518 34.7017 870.164 41.3976 869.531 43.9675C869.206 45.2753 868.259 47.2572 867.863 47.7996" stroke="#141421" stroke-width="0.295" stroke-linecap="round" stroke-linejoin="round"/>
<path d="M868.4 10.584C868.4 10.584 869.728 10.6093 870.707 11.8208" stroke="#141421" stroke-width="0.295" stroke-linecap="round" stroke-linejoin="round"/>
<path d="M857.989 22.0449C857.989 22.0449 859.322 23.2767 861.02 23.2564" stroke="#141421" stroke-width="0.295" stroke-linecap="round" stroke-linejoin="round"/>
<path d="M859.292 34.7017C859.292 34.7017 861.512 37.6872 863.139 39.1825" stroke="#141421" stroke-width="0.295" stroke-linecap="round" stroke-linejoin="round"/>
<path d="M287.226 30.5649C286.764 36.7185 285.665 44.9808 285.756 46.8208C285.847 48.6557 283.921 49.2994 282.725 48.9345C282.116 48.7469 282.39 48.3718 282.806 48.0423C283.429 47.5507 283.683 46.7092 283.368 45.9743C283.095 45.3406 282.623 44.5347 281.807 43.602C279.785 41.3058 279.967 35.0154 279.967 35.0154" fill="#ED7343"/>
<path d="M260.103 21.5323C260.103 21.5323 265.693 18.8053 278.411 19.155C289.715 19.4642 293.841 24.3202 293.385 30.4737C292.923 36.6273 291.823 44.8896 291.915 46.7296C292.006 48.5645 290.08 49.2082 288.883 48.8433C288.275 48.6557 288.549 48.2806 288.965 47.9511C289.593 47.4595 289.841 46.618 289.527 45.8831C289.254 45.2495 288.782 44.4435 287.966 43.5108C285.944 41.2146 286.562 36.0393 286.562 36.0393C286.562 36.0393 280.799 40.1147 276.115 39.3797C275.512 41.2552 275.025 43.1611 274.544 45.072C274.311 45.9996 274.381 46.9881 274.022 47.8903C273.621 48.8838 272.486 49.1474 271.518 49.0866C271.148 49.0663 270.458 49.0916 270.484 48.6304C270.504 48.2705 271.127 47.9866 271.284 47.6774C271.791 46.689 271.183 44.8642 271.031 43.82C270.843 42.5427 270.651 41.2603 270.352 39.9981C270.017 38.6093 269.404 36.1559 267.579 36.1559C265.77 36.1559 265.764 38.9996 265.648 40.2313C265.435 42.4869 265.024 44.7578 264.305 46.9171C264.061 47.647 263.656 48.3668 262.982 48.7419C262.373 49.0815 260.995 49.2488 260.376 48.8433C259.667 48.3769 260.761 47.9866 261.066 47.7535C262.216 46.8613 261.314 44.9909 261.076 43.891C260.756 42.416 260.432 40.9409 260.133 39.4608C259.494 36.2674 258.947 33.0335 258.83 29.7742C258.729 27.0067 258.901 24.0617 260.103 21.5222V21.5323Z" fill="#ED7343"/>
<path d="M259.494 14.5276C259.494 14.5276 258.871 12.9157 257.964 13.4631C257.056 14.0105 256.777 18.76 256.777 18.76C256.777 18.76 253.853 27.5038 264.801 24.9897C271.538 23.7681 272.4 20.8079 269.49 16.839C269.262 14.8874 268.37 12.3378 267.635 12.2567C267.042 12.1908 266.464 13.5543 266.464 13.5543C266.464 13.5543 263.61 12.3277 259.489 14.5225L259.494 14.5276Z" fill="#ED7343"/>
<path d="M287.85 25.4457C287.85 25.4457 290.511 24.878 293.922 21.8975C297.105 19.1198 298.596 13.9699 294.018 9.6512C289.436 5.33253 296.213 1.58665 299.315 8.24206C302.417 14.8975 301.145 23.5094 288.777 26.0591" fill="#ED7343"/>
<path d="M259.186 25.1672C262.967 26.1405 267.823 25.1368 270.388 22.5264" stroke="#141421" stroke-width="0.36" stroke-linecap="round" stroke-linejoin="round"/>
<path d="M280.9 38.7566C280.9 38.7566 283.166 38.5336 286.289 36.6074" stroke="#141421" stroke-width="0.36" stroke-linecap="round" stroke-linejoin="round"/>
<path d="M261.339 30.5649C261.339 30.5649 263.285 33.9966 267.178 35.6845" stroke="#141421" stroke-width="0.36" stroke-linecap="round" stroke-linejoin="round"/>
<path d="M267.31 18.3186C267.417 18.5924 267.65 18.7546 267.832 18.6836C268.015 18.6126 268.076 18.3339 267.969 18.0652C267.863 17.7915 267.63 17.6293 267.447 17.7002C267.265 17.7712 267.204 18.05 267.31 18.3186Z" fill="#181616"/>
<path d="M261.389 19.6365C261.496 19.9102 261.729 20.0724 261.911 20.0015C262.094 19.9305 262.155 19.6517 262.048 19.3831C261.942 19.1094 261.709 18.9472 261.526 19.0181C261.344 19.0891 261.283 19.3679 261.389 19.6365Z" fill="#181616"/>
<path d="M267.938 20.1587C267.938 20.1587 266.965 21.4715 265.647 20.2753C265.647 20.2753 265.221 21.8314 263.315 21.3651" stroke="#060203" stroke-width="0.36" stroke-linecap="round" stroke-linejoin="round"/>
<path d="M264.815 19.8241C264.891 20.0624 265.302 20.3919 265.647 20.2803C265.991 20.1688 266.143 19.6619 266.067 19.4288C265.991 19.1905 265.707 19.2716 265.363 19.3781C265.018 19.4896 264.739 19.5859 264.815 19.8241Z" fill="#E96E6E"/>
<mask id="mask1_351_1253" style="mask-type:luminance" maskUnits="userSpaceOnUse" x="258" y="19" width="36" height="31">
<path d="M260.103 21.5328C260.103 21.5328 265.693 18.8057 278.411 19.1555C289.715 19.4647 293.841 24.3207 293.385 30.4742C292.923 36.6278 291.823 44.8901 291.915 46.73C292.006 48.565 290.08 49.2087 288.883 48.8438C288.275 48.6562 288.549 48.2811 288.965 47.9516C289.593 47.46 289.841 46.6185 289.527 45.8835C289.254 45.2499 288.782 44.444 287.966 43.5113C285.944 41.2151 286.562 36.0398 286.562 36.0398C286.562 36.0398 280.799 40.1152 276.115 39.3802C275.512 41.2557 275.025 43.1616 274.544 45.0725C274.311 46.0001 274.381 46.9886 274.022 47.8908C273.621 48.8843 272.486 49.1479 271.518 49.0871C271.148 49.0668 270.458 49.0921 270.484 48.6309C270.504 48.271 271.127 47.9871 271.284 47.6779C271.791 46.6895 271.183 44.8647 271.031 43.8205C270.843 42.5432 270.651 41.2608 270.352 39.9986C270.017 38.6097 269.404 36.1564 267.579 36.1564C265.77 36.1564 265.764 39 265.648 40.2318C265.435 42.4874 265.024 44.7583 264.305 46.9176C264.061 47.6475 263.656 48.3673 262.982 48.7424C262.373 49.082 260.995 49.2493 260.376 48.8438C259.667 48.3774 260.761 47.9871 261.066 47.754C262.216 46.8618 261.314 44.9914 261.076 43.8915C260.756 42.4165 260.432 40.9414 260.133 39.4613C259.494 36.2679 258.947 33.034 258.83 29.7747C258.729 27.0071 258.901 24.0621 260.103 21.5226V21.5328Z" fill="white"/>
</mask>
<g mask="url(#mask1_351_1253)">
<path d="M278.858 22.0803C278.645 20.3468 277.981 18.7653 277.555 17.0824C277.322 16.1497 276.227 15.4959 275.295 15.8C274.56 16.0382 274.053 16.6465 273.967 17.3663C273.789 17.3663 273.617 17.3713 273.465 17.422C272.618 17.6957 271.782 18.7349 272.182 19.6827C272.481 20.4025 272.73 21.1375 272.912 21.8978C273.003 22.278 273.069 22.6582 273.135 23.0434C273.135 23.0434 273.135 23.0434 273.135 23.0485C273.145 23.1245 273.15 23.2005 273.161 23.2766C273.181 23.4692 273.196 23.6618 273.206 23.8595C273.257 24.6958 273.221 25.5474 273.703 26.2824C274.473 27.4431 275.994 27.6712 277.155 26.9565C278.772 25.958 279.061 23.8088 278.853 22.0803H278.858Z" fill="#C94F2A"/>
<path d="M284.647 18.4303C284.449 18.035 283.967 17.7004 283.547 17.5838C283.106 17.4622 282.523 17.5179 282.132 17.7714C282.061 17.817 281.99 17.8727 281.925 17.9285C281.854 17.8373 281.788 17.7511 281.717 17.6599C281.433 17.3152 280.845 17.1226 280.419 17.1226C279.968 17.1226 279.431 17.3202 279.122 17.6599C278.802 18.0096 278.564 18.4709 278.584 18.9575C278.604 19.1197 278.63 19.2819 278.65 19.4441C278.726 19.7178 278.868 19.951 279.051 20.1639C279.421 20.6555 279.72 21.1928 279.978 21.7504C280.196 22.3181 280.358 22.8909 280.515 23.4789C280.759 24.4065 281.555 25.1415 282.548 25.1263C283.308 25.1161 283.937 24.6447 284.398 24.0821C285.067 23.266 285.513 22.2979 285.513 21.2233C285.513 20.2146 285.103 19.3072 284.662 18.4253L284.647 18.4303Z" fill="#C94F2A"/>
<path d="M262.683 39.5574C262.561 39.3699 262.364 39.1671 262.136 39.1367C261.958 39.1114 261.786 39.081 261.614 39.0303C261.517 39.0049 261.426 38.9745 261.335 38.939C261.33 38.939 261.325 38.939 261.315 38.934C261.315 38.934 261.299 38.934 261.269 38.9188C261.254 38.9137 261.238 38.9035 261.223 38.8985C261.233 38.8985 261.238 38.8985 261.244 38.9035C261.086 38.8326 260.929 38.7464 260.782 38.6552C260.706 38.6096 260.63 38.5589 260.559 38.5082C260.529 38.4879 260.498 38.4626 260.468 38.4423C260.468 38.4423 260.468 38.4423 260.463 38.4372C260.184 38.199 259.926 37.9455 259.692 37.6617C259.687 37.6566 259.642 37.6009 259.627 37.5806C259.622 37.5704 259.611 37.5603 259.611 37.5603C259.556 37.4843 259.505 37.4133 259.454 37.3373C259.348 37.1801 259.246 37.0129 259.145 36.8456C258.902 36.4299 258.304 36.2475 257.888 36.5161C257.472 36.7848 257.3 37.3271 257.558 37.7732C258.435 39.2786 259.839 40.6675 261.639 40.9057C261.897 40.9412 262.115 40.9514 262.349 40.8145C262.541 40.703 262.719 40.485 262.769 40.2671C262.825 40.0339 262.81 39.7703 262.678 39.5574H262.683Z" fill="#C94F2A"/>
<path d="M261.269 38.9136C261.269 38.9136 261.299 38.9238 261.314 38.9289C261.314 38.9289 261.289 38.9136 261.243 38.8984C261.243 38.8984 261.243 38.8984 261.248 38.8984C261.258 38.8984 261.258 38.8984 261.269 38.9086V38.9136Z" fill="#C94F2A"/>
<path d="M262.891 42.7868C262.846 42.726 262.795 42.6651 262.749 42.5992C262.633 42.4877 262.501 42.4066 262.344 42.361C261.766 42.143 261.188 41.9251 260.605 41.7071C260.392 41.626 260.083 41.6919 259.896 41.7984C259.703 41.9099 259.526 42.1278 259.475 42.3458C259.419 42.579 259.434 42.8425 259.566 43.0554C259.612 43.1163 259.662 43.1771 259.708 43.243C259.825 43.3545 259.956 43.4356 260.114 43.4812C260.691 43.6992 261.269 43.9171 261.852 44.1351C262.065 44.2162 262.374 44.1503 262.562 44.0439C262.754 43.9323 262.932 43.7144 262.982 43.4964C263.038 43.2633 263.023 42.9997 262.891 42.7868Z" fill="#C94F2A"/>
<path d="M267.681 38.6505C267.493 38.4782 267.285 38.4022 267.032 38.3819C266.464 38.3363 265.901 38.2704 265.334 38.1994C265.415 38.2096 265.496 38.2197 265.577 38.2298C265.425 38.2096 265.263 38.1893 265.111 38.1538C265.014 38.0727 264.903 38.0068 264.781 37.9764C264.563 37.9156 264.269 37.9409 264.072 38.0676C263.666 38.3261 263.463 38.8888 263.742 39.3247C263.945 39.644 264.259 39.8671 264.634 39.933C264.938 39.9887 265.248 40.0191 265.552 40.0597C266.043 40.1205 266.535 40.1763 267.032 40.2168C267.255 40.2371 267.529 40.1002 267.681 39.9482C267.838 39.791 267.959 39.5275 267.949 39.2994C267.939 39.0611 267.858 38.8178 267.681 38.6505Z" fill="#C94F2A"/>
<path d="M272.993 40.7031C272.445 40.7285 271.903 40.7335 271.356 40.7031C271.092 40.6879 270.834 40.6727 270.57 40.6474C270.438 40.6372 270.312 40.622 270.18 40.6068C270.154 40.6068 270.129 40.6017 270.104 40.5967C270.038 40.5865 269.972 40.5764 269.906 40.5663C269.653 40.5257 269.43 40.5257 269.196 40.6575C269.004 40.769 268.826 40.987 268.776 41.2049C268.72 41.4381 268.735 41.7017 268.867 41.9146C268.989 42.1021 269.186 42.2998 269.414 42.3353C270.6 42.5178 271.792 42.5989 272.993 42.538C273.474 42.5127 273.936 42.1325 273.91 41.6206C273.89 41.1441 273.505 40.6778 272.993 40.7031Z" fill="#C94F2A"/>
<path d="M276.642 43.7799C276.374 43.3642 275.826 43.1868 275.385 43.4504C275.208 43.5568 275.031 43.6531 274.848 43.7393C274.808 43.7596 274.762 43.7799 274.716 43.8001C274.625 43.8356 274.539 43.8711 274.448 43.9015C274.103 44.0232 273.748 44.1043 273.393 44.16C273.155 44.1854 272.912 44.2056 272.668 44.2107C272.187 44.2107 271.726 44.6314 271.751 45.1282C271.771 45.6249 272.157 46.0507 272.668 46.0456C273.946 46.0456 275.218 45.6908 276.313 45.0369C276.724 44.7886 276.911 44.2006 276.642 43.7799Z" fill="#C94F2A"/>
<path d="M291.434 39.4914C291.15 39.0454 290.638 38.9339 290.176 39.162C289.634 39.4255 289.087 39.679 288.534 39.9172C288.509 39.9274 288.483 39.9375 288.453 39.9527C288.392 39.9781 288.336 40.0034 288.276 40.0287C288.139 40.0845 287.997 40.1453 287.855 40.2011C287.576 40.3126 287.292 40.419 287.008 40.5255C286.78 40.6117 286.588 40.7282 286.461 40.9462C286.344 41.1439 286.299 41.4328 286.37 41.6558C286.512 42.0968 287.019 42.477 287.5 42.2996C288.727 41.8434 289.928 41.3314 291.104 40.7587C291.535 40.5458 291.687 39.897 291.434 39.5016V39.4914Z" fill="#C94F2A"/>
<path d="M291.347 42.8269C291.17 42.6647 290.941 42.5481 290.698 42.5582C290.617 42.5684 290.536 42.5785 290.455 42.5886C290.313 42.6292 290.196 42.7002 290.09 42.7965C289.451 43.2881 288.767 43.7241 288.052 44.0992C287.626 44.3222 287.464 44.9507 287.723 45.3562C288.002 45.7922 288.524 45.9239 288.98 45.6857C289.821 45.2447 290.602 44.7125 291.347 44.1245C291.519 43.9876 291.616 43.6835 291.616 43.4757C291.616 43.2527 291.514 42.9789 291.347 42.8269Z" fill="#C94F2A"/>
</g>
<mask id="mask2_351_1253" style="mask-type:luminance" maskUnits="userSpaceOnUse" x="256" y="12" width="16" height="14">
<path d="M259.494 14.5276C259.494 14.5276 258.871 12.9157 257.964 13.4631C257.056 14.0105 256.777 18.76 256.777 18.76C256.777 18.76 253.853 27.5038 264.801 24.9897C271.538 23.7681 272.4 20.8079 269.49 16.839C269.262 14.8874 268.37 12.3378 267.635 12.2567C267.042 12.1908 266.464 13.5543 266.464 13.5543C266.464 13.5543 263.61 12.3277 259.489 14.5225L259.494 14.5276Z" fill="white"/>
</mask>
<g mask="url(#mask2_351_1253)">
<path d="M263.072 15.0548C262.53 14.0613 261.856 13.1337 261.085 12.2974C260.761 11.9425 260.112 11.9425 259.788 12.2974C259.438 12.6775 259.438 13.2199 259.788 13.595C260.011 13.8383 260.224 14.0917 260.426 14.3502C260.817 14.8673 261.171 15.4096 261.486 15.9774C261.714 16.3981 262.332 16.5704 262.743 16.3068C263.169 16.0331 263.321 15.5009 263.072 15.0498V15.0548Z" fill="#C94F2A"/>
<path d="M265.399 14.7911C264.969 13.9953 264.548 13.1944 264.137 12.3834C264.036 12.1857 263.798 12.0185 263.59 11.9627C263.372 11.9019 263.078 11.9272 262.88 12.054C262.439 12.3378 262.318 12.8498 262.551 13.311C262.961 14.117 263.382 14.9229 263.813 15.7187C264.041 16.1394 264.659 16.3118 265.07 16.0482C265.501 15.7694 265.648 15.2423 265.399 14.7911Z" fill="#C94F2A"/>
<path d="M260.422 20.5086C260.28 20.0777 259.768 19.6773 259.291 19.8648C259.007 19.9763 258.718 20.0625 258.419 20.1183C258.353 20.1335 258.293 20.1436 258.227 20.1537C258.206 20.1537 258.186 20.1588 258.161 20.1639C258.156 20.1639 258.151 20.1639 258.146 20.1639C258.004 20.1791 257.862 20.1892 257.72 20.1994C257.117 20.2348 256.513 20.2095 255.91 20.1791C255.429 20.1588 254.973 20.615 254.993 21.0965C255.018 21.6136 255.398 21.9937 255.91 22.014C257.198 22.0748 258.551 22.1103 259.773 21.6288C260.001 21.5375 260.193 21.426 260.32 21.2081C260.437 21.0104 260.482 20.7215 260.411 20.4984L260.422 20.5086Z" fill="#C94F2A"/>
<path d="M259.429 23.3627C259.256 23.2055 259.023 23.0788 258.78 23.094C258.141 23.1295 257.497 23.1396 256.854 23.1143C256.625 23.1041 256.367 23.2207 256.205 23.3829C256.048 23.5401 255.926 23.8037 255.936 24.0317C255.961 24.5437 256.342 24.934 256.854 24.9492C257.497 24.9695 258.136 24.9644 258.78 24.9289C259.023 24.9137 259.251 24.8377 259.429 24.6603C259.586 24.5032 259.707 24.2396 259.697 24.0115C259.687 23.7732 259.611 23.5299 259.429 23.3627Z" fill="#C94F2A"/>
</g>
<mask id="mask3_351_1253" style="mask-type:luminance" maskUnits="userSpaceOnUse" x="287" y="4" width="14" height="23">
<path d="M287.85 25.4457C287.85 25.4457 290.511 24.878 293.922 21.8975C297.105 19.1198 298.596 13.9699 294.018 9.6512C289.436 5.33253 296.213 1.58665 299.315 8.24206C302.417 14.8975 301.145 23.5094 288.777 26.0591" fill="white"/>
</mask>
<g mask="url(#mask3_351_1253)">
<path d="M295.58 18.6689C295.661 18.7855 295.752 18.8868 295.849 18.9933C296.285 19.414 296.721 19.8296 297.111 20.296C297.304 20.5241 297.481 20.7572 297.653 21.0006C297.734 21.1121 297.81 21.2287 297.881 21.3452C298.094 21.7001 298.206 21.8724 298.272 22.288C298.302 22.4857 298.307 22.6885 298.282 22.8912C298.221 23.3626 297.952 23.8391 297.572 24.128C297.222 24.3967 296.68 24.564 296.234 24.4879C295.758 24.4068 295.281 24.1838 294.997 23.7783C294.886 23.6161 294.805 23.4437 294.739 23.2663C294.445 22.8304 294.105 22.4148 293.745 22.0397C293.36 21.6798 292.949 21.3351 292.655 20.9042C292.387 20.5089 292.235 20.0476 292.296 19.5661C292.351 19.1149 292.625 18.5928 293.005 18.3293C293.39 18.0606 293.867 17.8883 294.343 17.9694C294.815 18.0505 295.301 18.2735 295.58 18.679V18.6689Z" fill="#C94F2A"/>
<path d="M299.549 13.9187C300.329 14.4205 301.029 15.0339 301.754 15.6066C302.504 16.2048 302.727 17.4213 302.078 18.1867C301.439 18.9369 300.304 19.1498 299.498 18.5111C298.753 17.918 298.028 17.2946 297.222 16.7826C296.882 16.6001 296.533 16.4481 296.163 16.3315C296.071 16.3163 295.985 16.2909 295.894 16.2757C294.946 16.1389 294.125 15.2214 294.292 14.2279C294.454 13.2648 295.321 12.4792 296.34 12.6262C297.516 12.7985 298.55 13.28 299.544 13.9137L299.549 13.9187Z" fill="#C94F2A"/>
<path d="M300.015 5.96629C300.507 6.39208 300.796 6.98006 300.71 7.64408C300.705 7.6897 300.684 7.73532 300.674 7.78094C300.847 7.84177 301.014 7.89753 301.181 7.96342C302.073 8.31824 302.595 9.46887 302.18 10.361C301.754 11.2734 300.74 11.7397 299.782 11.3596C299.488 11.243 299.194 11.1365 298.895 11.0351C298.733 10.9845 298.571 10.9338 298.408 10.8831L298.266 10.8425C298.064 10.7868 298.079 10.7918 298.322 10.8577C298.135 10.7209 297.704 10.7158 297.471 10.6702C297.161 10.6094 296.852 10.5637 296.538 10.5232C295.965 10.4522 295.306 10.3356 294.728 10.4015C295.169 10.3509 294.703 10.4015 294.622 10.4015C294.475 10.4015 294.333 10.4117 294.186 10.4218C293.846 10.4421 293.512 10.4776 293.177 10.5181C292.265 10.6347 291.408 10.0569 291.165 9.17488C290.952 8.39934 291.266 7.64408 291.89 7.19296C291.606 6.9091 291.403 6.54921 291.368 6.15891C291.271 5.1198 291.925 4.28344 292.934 4.08575C295.398 3.59914 298.099 4.31892 300 5.95109L300.015 5.96629Z" fill="#C94F2A"/>
</g>
<path d="M324.639 17.4517H329.505C331.619 17.4517 333.231 17.8065 334.341 18.5111C335.253 19.0788 335.968 19.8847 336.485 20.9188C337.002 21.9883 337.261 23.1085 337.261 24.2946C337.261 26.013 336.779 27.5285 335.816 28.8363C334.387 30.7726 332.131 31.7458 329.054 31.7458H326.428L325.232 41.4628H321.674L324.644 17.4567L324.639 17.4517ZM327.782 20.7616L326.819 28.5829H329.135C330.595 28.5829 331.72 28.2078 332.501 27.4576C333.281 26.7074 333.677 25.6226 333.677 24.1983C333.677 21.9072 332.217 20.7616 329.292 20.7616H327.782Z" fill="#231815"/>
<path d="M354.652 26.814L352.847 41.463H349.411L349.613 39.8764C348.143 41.1639 346.618 41.8026 345.041 41.8026C343.105 41.8026 341.523 41.1436 340.297 39.8257C339.075 38.5078 338.462 36.8047 338.462 34.7113C338.462 32.2985 339.161 30.3166 340.56 28.7706C341.98 27.2246 343.799 26.4541 346.02 26.4541C347.069 26.4541 347.956 26.6264 348.696 26.9661C349.441 27.3057 350.206 27.8987 350.982 28.7402L351.215 26.814H354.652ZM350.47 33.7178C350.47 32.4201 350.095 31.3709 349.35 30.5599C348.605 29.7387 347.642 29.3332 346.456 29.3332C345.168 29.3332 344.093 29.835 343.222 30.8437C342.35 31.8575 341.914 33.1044 341.914 34.5744C341.914 35.8619 342.279 36.9111 343.004 37.7323C343.728 38.5535 344.661 38.959 345.802 38.959C347.064 38.959 348.159 38.447 349.081 37.418C350.004 36.3688 350.465 35.137 350.465 33.7178H350.47Z" fill="#231815"/>
<path d="M380.609 26.8137L371.186 42.9986L368.231 33.5451L362.99 42.9986L357.673 26.8137H361.297L363.877 35.7552L369.103 26.4082L371.901 35.7552L376.706 26.8137H380.609Z" fill="#231815"/>
<path d="M396.982 30.0022L395.583 41.4629H392.147L393.561 30.0022H391.32L391.711 26.8139H393.951L394.762 20.27C394.97 18.5263 395.441 17.249 396.176 16.4278C396.911 15.6067 397.966 15.2012 399.334 15.2012C400.165 15.2012 401.134 15.4648 402.244 15.9919L401.869 19.0079C401.225 18.4909 400.637 18.2323 400.094 18.2323C399.471 18.2323 399.01 18.4452 398.711 18.871C398.432 19.2968 398.219 20.0774 398.072 21.2179L397.388 26.8139H400.495L400.105 30.0022H396.977H396.982Z" fill="#231815"/>
<path d="M418.494 33.9963C418.494 36.2368 417.718 38.1173 416.162 39.638C414.616 41.1637 412.71 41.924 410.439 41.924C408.168 41.924 406.126 41.2042 404.625 39.7647C403.11 38.315 402.354 36.4801 402.354 34.2599C402.354 32.0397 403.135 30.1034 404.701 28.598C406.278 27.0824 408.244 26.3271 410.612 26.3271C412.979 26.3271 414.824 27.0419 416.289 28.4713C417.759 29.8804 418.499 31.7204 418.499 33.9913L418.494 33.9963ZM415.027 33.824C415.027 32.4148 414.616 31.2997 413.8 30.4785C412.979 29.627 411.909 29.2012 410.581 29.2012C409.253 29.2012 408.062 29.6726 407.16 30.6154C406.257 31.5683 405.806 32.7646 405.806 34.2092C405.806 35.6538 406.232 36.8247 407.084 37.7067C407.935 38.609 409.03 39.0601 410.378 39.0601C411.727 39.0601 412.837 38.5684 413.704 37.5851C414.586 36.6119 415.027 35.3548 415.027 33.824Z" fill="#231815"/>
<path d="M427.035 26.8136L426.878 28.0707C428.039 26.9708 429.21 26.4233 430.391 26.4233C431.425 26.4233 432.373 26.8035 433.219 27.5588L431.029 30.3872C430.396 29.8499 429.762 29.5762 429.134 29.5762C428.698 29.5762 428.312 29.6623 427.983 29.8347C427.654 30.007 427.365 30.2757 427.121 30.6457C426.878 31.0157 426.675 31.4871 426.513 32.07C426.351 32.653 426.224 33.3474 426.133 34.1533L425.231 41.4626H421.794L423.598 26.8136H427.035Z" fill="#231815"/>
<path d="M447.857 17.4517H452.303C453.702 17.4517 454.837 17.6037 455.709 17.9028C456.561 18.2018 457.28 18.7138 457.868 19.4285C458.811 20.5589 459.283 21.9224 459.283 23.5191C459.283 25.9471 458.117 27.7972 455.785 29.0695C458.614 29.774 460.028 31.5481 460.028 34.3867C460.028 35.5576 459.779 36.6626 459.283 37.6967C458.806 38.7206 458.132 39.5519 457.26 40.1855C456.566 40.6923 455.805 41.032 454.974 41.1942C454.538 41.2753 454.016 41.3412 453.403 41.3868C452.789 41.4324 452.065 41.4577 451.228 41.4577H444.902L447.857 17.4517ZM449.768 30.7929L448.866 38.1478H451.259C453.043 38.1478 454.265 37.9248 454.929 37.4787C455.942 36.8045 456.454 35.6843 456.454 34.118C456.454 33.525 456.368 33.0232 456.196 32.6025C456.023 32.1817 455.76 31.8371 455.395 31.5684C455.03 31.2998 454.564 31.1021 453.986 30.9754C453.408 30.8486 452.719 30.7878 451.913 30.7878H449.768V30.7929ZM450.995 20.7616L450.123 27.9442H451.132C454.178 27.9442 455.704 26.5249 455.704 23.6863C455.704 21.7399 454.543 20.7616 452.222 20.7616H450.995Z" fill="#231815"/>
<path d="M466.816 35.365C466.816 36.4447 467.191 37.3317 467.936 38.0262C468.692 38.7206 469.655 39.0704 470.831 39.0704C472.437 39.0704 473.669 38.4672 474.531 37.2658L477.096 38.6801C476.204 39.8814 475.286 40.7228 474.343 41.1993C473.39 41.6859 472.199 41.9292 470.765 41.9292C468.494 41.9292 466.684 41.2601 465.336 39.9219C463.988 38.5837 463.313 36.7944 463.313 34.5591C463.313 32.3237 464.054 30.2556 465.539 28.6843C467.009 27.118 468.869 26.3374 471.12 26.3374C473.37 26.3374 475.012 27.042 476.264 28.4511C477.542 29.8704 478.175 31.7712 478.175 34.1586C478.175 34.407 478.16 34.8125 478.13 35.3701H466.811L466.816 35.365ZM474.698 32.5974C474.333 30.3367 473.086 29.2064 470.952 29.2064C468.93 29.2064 467.612 30.3367 467.004 32.5974H474.698Z" fill="#231815"/>
<path d="M486.634 30.0021L485.22 41.4627H481.783L483.197 30.0021H481.256L481.646 26.8137H483.588L484.429 20.0215H487.866L487.024 26.8137H490.197L489.807 30.0021H486.634Z" fill="#231815"/>
<path d="M496.296 30.0021L494.882 41.4627H491.445L492.859 30.0021H490.918L491.308 26.8137H493.25L494.091 20.0215H497.528L496.686 26.8137H499.859L499.469 30.0021H496.296Z" fill="#231815"/>
<path d="M504.964 35.365C504.964 36.4447 505.339 37.3317 506.084 38.0262C506.839 38.7206 507.802 39.0704 508.978 39.0704C510.585 39.0704 511.817 38.4672 512.678 37.2658L515.243 38.6801C514.351 39.8814 513.434 40.7228 512.491 41.1993C511.538 41.6859 510.347 41.9292 508.912 41.9292C506.641 41.9292 504.832 41.2601 503.483 39.9219C502.135 38.5837 501.461 36.7944 501.461 34.5591C501.461 32.3237 502.201 30.2556 503.686 28.6843C505.156 27.118 507.016 26.3374 509.267 26.3374C511.518 26.3374 513.16 27.042 514.412 28.4511C515.689 29.8704 516.323 31.7712 516.323 34.1586C516.323 34.407 516.308 34.8125 516.277 35.3701H504.958L504.964 35.365ZM512.846 32.5974C512.481 30.3367 511.234 29.2064 509.1 29.2064C507.077 29.2064 505.764 30.3367 505.151 32.5974H512.846Z" fill="#231815"/>
<path d="M524.874 26.8136L524.717 28.0707C525.878 26.9708 527.049 26.4233 528.23 26.4233C529.264 26.4233 530.212 26.8035 531.058 27.5588L528.863 30.3872C528.23 29.8499 527.596 29.5762 526.968 29.5762C526.532 29.5762 526.146 29.6623 525.817 29.8347C525.488 30.007 525.199 30.2757 524.955 30.6457C524.712 31.0157 524.509 31.4871 524.347 32.07C524.185 32.653 524.058 33.3474 523.967 34.1533L523.065 41.4626H519.628L521.432 26.8136H524.869H524.874Z" fill="#231815"/>
<path d="M535.143 39.7645C535.143 40.3119 534.93 40.7884 534.504 41.1939C534.078 41.5994 533.587 41.8022 533.029 41.8022C532.471 41.8022 531.97 41.5944 531.569 41.1787C531.164 40.7631 530.961 40.2562 530.961 39.653C530.961 39.0498 531.148 38.5835 531.518 38.1932C531.914 37.7978 532.385 37.6001 532.933 37.6001C533.546 37.6001 534.063 37.813 534.489 38.2388C534.925 38.6646 535.143 39.1714 535.143 39.7645Z" fill="#231815"/>
<path d="M624.28 17.4521H629.146C631.26 17.4521 632.871 17.807 633.982 18.5115C634.894 19.0792 635.609 19.8852 636.126 20.9192C636.643 21.9888 636.901 23.109 636.901 24.2951C636.901 26.0134 636.42 27.529 635.457 28.8368C634.027 30.7731 631.772 31.7463 628.695 31.7463H626.069L624.873 41.4633H621.314L624.285 17.4572L624.28 17.4521ZM627.422 20.7621L626.459 28.5833H628.776C630.236 28.5833 631.361 28.2083 632.142 27.4581C632.922 26.7079 633.318 25.6231 633.318 24.1988C633.318 21.9077 631.858 20.7621 628.933 20.7621H627.422Z" fill="#231815"/>
<path d="M654.297 26.8145L652.493 41.4635H649.056L649.259 39.8769C647.789 41.1644 646.263 41.8031 644.687 41.8031C642.75 41.8031 641.169 41.1441 639.942 39.8262C638.721 38.5083 638.107 36.8052 638.107 34.7118C638.107 32.299 638.807 30.3171 640.206 28.7711C641.625 27.2251 643.445 26.4546 645.665 26.4546C646.714 26.4546 647.601 26.6269 648.341 26.9665C649.087 27.3062 649.852 27.8992 650.627 28.7406L650.861 26.8145H654.297ZM650.116 33.7183C650.116 32.4206 649.74 31.3714 648.995 30.5604C648.25 29.7392 647.287 29.3337 646.101 29.3337C644.814 29.3337 643.739 29.8355 642.867 30.8442C641.995 31.858 641.559 33.1049 641.559 34.5749C641.559 35.8624 641.924 36.9116 642.649 37.7328C643.374 38.5539 644.307 38.9594 645.447 38.9594C646.709 38.9594 647.804 38.4475 648.727 37.4185C649.649 36.3693 650.11 35.1375 650.11 33.7183H650.116Z" fill="#231815"/>
<path d="M680.255 26.8142L670.832 42.999L667.877 33.5456L662.636 42.999L657.318 26.8142H660.943L663.523 35.7557L668.749 26.4087L671.547 35.7557L676.352 26.8142H680.255Z" fill="#231815"/>
<path d="M696.628 30.0027L695.229 41.4634H691.792L693.206 30.0027H690.966L691.356 26.8144H693.597L694.408 20.2705C694.615 18.5268 695.087 17.2495 695.822 16.4283C696.557 15.6072 697.611 15.2017 698.98 15.2017C699.811 15.2017 700.779 15.4652 701.889 15.9924L701.514 19.0084C700.87 18.4913 700.282 18.2328 699.74 18.2328C699.117 18.2328 698.655 18.4457 698.356 18.8715C698.077 19.2973 697.864 20.0779 697.718 21.2184L697.033 26.8144H700.14L699.75 30.0027H696.623H696.628Z" fill="#231815"/>
<path d="M718.135 33.9973C718.135 36.2377 717.36 38.1183 715.804 39.6389C714.258 41.1647 712.352 41.925 710.081 41.925C707.81 41.925 705.767 41.2052 704.267 39.7657C702.751 38.316 701.996 36.481 701.996 34.2609C701.996 32.0407 702.777 30.1044 704.343 28.599C705.919 27.0834 707.886 26.3281 710.253 26.3281C712.62 26.3281 714.465 27.0428 715.93 28.4722C717.4 29.8814 718.14 31.7214 718.14 33.9922L718.135 33.9973ZM714.668 33.825C714.668 32.4158 714.258 31.3007 713.442 30.4795C712.62 29.6279 711.551 29.2022 710.223 29.2022C708.895 29.2022 707.704 29.6736 706.801 30.6164C705.899 31.5693 705.448 32.7656 705.448 34.2102C705.448 35.6548 705.874 36.8257 706.725 37.7077C707.577 38.61 708.672 39.0611 710.02 39.0611C711.368 39.0611 712.478 38.5694 713.345 37.586C714.227 36.6128 714.668 35.3558 714.668 33.825Z" fill="#231815"/>
<path d="M726.681 26.8146L726.524 28.0717C727.684 26.9718 728.855 26.4243 730.036 26.4243C731.07 26.4243 732.018 26.8045 732.865 27.5597L730.67 30.3882C730.036 29.8509 729.403 29.5771 728.774 29.5771C728.338 29.5771 727.953 29.6633 727.624 29.8357C727.294 30.008 727.005 30.2766 726.762 30.6467C726.519 31.0167 726.316 31.4881 726.154 32.071C725.991 32.6539 725.865 33.3484 725.773 34.1543L724.871 41.4636H721.435L723.239 26.8146H726.676H726.681Z" fill="#231815"/>
<path d="M747.499 17.4521H751.944C753.343 17.4521 754.479 17.6042 755.351 17.9033C756.202 18.2023 756.922 18.7143 757.51 19.429C758.453 20.5594 758.924 21.9229 758.924 23.5196C758.924 25.9475 757.758 27.7977 755.427 29.07C758.255 29.7745 759.669 31.5486 759.669 34.3872C759.669 35.5581 759.421 36.6631 758.924 37.6971C758.448 38.7211 757.774 39.5523 756.902 40.1859C756.207 40.6928 755.447 41.0324 754.616 41.1946C754.18 41.2757 753.658 41.3416 753.044 41.3873C752.431 41.4329 751.706 41.4582 750.87 41.4582H744.544L747.499 17.4521ZM749.41 30.7934L748.508 38.1483H750.9C752.685 38.1483 753.906 37.9252 754.57 37.4792C755.584 36.805 756.096 35.6848 756.096 34.1185C756.096 33.5255 756.01 33.0237 755.837 32.6029C755.665 32.1822 755.401 31.8375 755.037 31.5689C754.672 31.3003 754.205 31.1026 753.627 30.9758C753.049 30.8491 752.36 30.7883 751.549 30.7883H749.405L749.41 30.7934ZM750.637 20.7621L749.765 27.9447H750.774C753.82 27.9447 755.346 26.5254 755.346 23.6868C755.346 21.7404 754.185 20.7621 751.863 20.7621H750.637Z" fill="#231815"/>
<path d="M766.461 35.3655C766.461 36.4452 766.836 37.3322 767.581 38.0267C768.336 38.7211 769.299 39.0708 770.475 39.0708C772.082 39.0708 773.314 38.4677 774.175 37.2663L776.74 38.6805C775.848 39.8819 774.931 40.7233 773.988 41.1998C773.035 41.6864 771.844 41.9297 770.409 41.9297C768.138 41.9297 766.329 41.2606 764.981 39.9224C763.632 38.5842 762.958 36.7949 762.958 34.5596C762.958 32.3242 763.698 30.2561 765.183 28.6848C766.653 27.1185 768.513 26.3379 770.764 26.3379C773.015 26.3379 774.657 27.0425 775.909 28.4516C777.186 29.8709 777.82 31.7717 777.82 34.1591C777.82 34.4075 777.805 34.813 777.774 35.3706H766.456L766.461 35.3655ZM774.343 32.5979C773.978 30.3372 772.731 29.2069 770.597 29.2069C768.574 29.2069 767.261 30.3372 766.648 32.5979H774.343Z" fill="#231815"/>
<path d="M786.275 30.0025L784.86 41.4632H781.424L782.838 30.0025H780.896L781.287 26.8142H783.228L784.07 20.022H787.506L786.665 26.8142H789.838L789.448 30.0025H786.275Z" fill="#231815"/>
<path d="M795.942 30.0025L794.527 41.4632H791.091L792.505 30.0025H790.563L790.954 26.8142H792.895L793.737 20.022H797.173L796.332 26.8142H799.505L799.115 30.0025H795.942Z" fill="#231815"/>
<path d="M804.609 35.3655C804.609 36.4452 804.984 37.3322 805.729 38.0267C806.484 38.7211 807.448 39.0708 808.624 39.0708C810.23 39.0708 811.462 38.4677 812.324 37.2663L814.889 38.6805C813.997 39.8819 813.079 40.7233 812.136 41.1998C811.183 41.6864 809.992 41.9297 808.558 41.9297C806.287 41.9297 804.477 41.2606 803.129 39.9224C801.781 38.5842 801.106 36.7949 801.106 34.5596C801.106 32.3242 801.847 30.2561 803.332 28.6848C804.802 27.1185 806.662 26.3379 808.912 26.3379C811.163 26.3379 812.805 27.0425 814.057 28.4516C815.335 29.8709 815.968 31.7717 815.968 34.1591C815.968 34.4075 815.953 34.813 815.923 35.3706H804.604L804.609 35.3655ZM812.491 32.5979C812.126 30.3372 810.879 29.2069 808.745 29.2069C806.723 29.2069 805.405 30.3372 804.797 32.5979H812.491Z" fill="#231815"/>
<path d="M824.515 26.8146L824.357 28.0717C825.518 26.9718 826.689 26.4243 827.87 26.4243C828.904 26.4243 829.852 26.8045 830.699 27.5597L828.509 30.3882C827.875 29.8509 827.242 29.5771 826.613 29.5771C826.177 29.5771 825.792 29.6633 825.462 29.8357C825.133 30.008 824.844 30.2766 824.601 30.6467C824.358 31.0167 824.155 31.4881 823.993 32.071C823.83 32.6539 823.704 33.3484 823.612 34.1543L822.71 41.4636H819.273L821.078 26.8146H824.515Z" fill="#231815"/>
<path d="M834.783 39.7655C834.783 40.3129 834.57 40.7894 834.145 41.1949C833.719 41.6004 833.227 41.8032 832.67 41.8032C832.112 41.8032 831.61 41.5953 831.21 41.1797C830.809 40.764 830.602 40.2572 830.602 39.654C830.602 39.0508 830.789 38.5844 831.159 38.1941C831.554 37.7988 832.026 37.6011 832.573 37.6011C833.187 37.6011 833.704 37.814 834.129 38.2398C834.565 38.6655 834.783 39.1724 834.783 39.7655Z" fill="#231815"/>
<path d="M923.919 17.4521H928.785C930.899 17.4521 932.511 17.807 933.621 18.5115C934.534 19.0792 935.248 19.8852 935.765 20.9192C936.282 21.9888 936.541 23.109 936.541 24.2951C936.541 26.0134 936.059 27.529 935.096 28.8368C933.667 30.7731 931.411 31.7463 928.334 31.7463H925.709L924.512 41.4633H920.954L923.924 17.4572L923.919 17.4521ZM927.062 20.7621L926.099 28.5833H928.415C929.875 28.5833 931.001 28.2083 931.781 27.4581C932.562 26.7079 932.957 25.6231 932.957 24.1988C932.957 21.9077 931.497 20.7621 928.573 20.7621H927.062Z" fill="#231815"/>
<path d="M953.937 26.8145L952.132 41.4635H948.696L948.899 39.8769C947.429 41.1644 945.903 41.8031 944.326 41.8031C942.39 41.8031 940.809 41.1441 939.582 39.8262C938.36 38.5083 937.747 36.8052 937.747 34.7118C937.747 32.299 938.447 30.3171 939.846 28.7711C941.265 27.2251 943.085 26.4546 945.305 26.4546C946.354 26.4546 947.241 26.6269 947.981 26.9665C948.726 27.3062 949.492 27.8992 950.267 28.7406L950.5 26.8145H953.937ZM949.755 33.7183C949.755 32.4206 949.38 31.3714 948.635 30.5604C947.89 29.7392 946.927 29.3337 945.741 29.3337C944.453 29.3337 943.379 29.8355 942.507 30.8442C941.635 31.858 941.199 33.1049 941.199 34.5749C941.199 35.8624 941.564 36.9116 942.289 37.7328C943.014 38.5539 943.946 38.9594 945.087 38.9594C946.349 38.9594 947.444 38.4475 948.366 37.4185C949.289 36.3693 949.75 35.1375 949.75 33.7183H949.755Z" fill="#231815"/>
<path d="M979.895 26.8142L970.472 42.999L967.516 33.5456L962.275 42.999L956.958 26.8142H960.582L963.162 35.7557L968.388 26.4087L971.186 35.7557L975.992 26.8142H979.895Z" fill="#231815"/>
<path d="M996.267 30.0027L994.868 41.4634H991.432L992.846 30.0027H990.605L990.996 26.8144H993.236L994.047 20.2705C994.255 18.5268 994.726 17.2495 995.461 16.4283C996.196 15.6072 997.251 15.2017 998.619 15.2017C999.451 15.2017 1000.42 15.4652 1001.53 15.9924L1001.15 19.0084C1000.51 18.4913 999.922 18.2328 999.38 18.2328C998.756 18.2328 998.295 18.4457 997.996 18.8715C997.717 19.2973 997.504 20.0779 997.357 21.2184L996.673 26.8144H999.785L999.395 30.0027H996.267Z" fill="#231815"/>
<path d="M1017.78 33.9968C1017.78 36.2372 1017 38.1178 1015.45 39.6384C1013.9 41.1642 1012 41.9245 1009.73 41.9245C1007.45 41.9245 1005.41 41.2047 1003.91 39.7652C1002.4 38.3155 1001.64 36.4805 1001.64 34.2604C1001.64 32.0402 1002.42 30.1039 1003.99 28.5985C1005.56 27.0829 1007.53 26.3276 1009.9 26.3276C1012.26 26.3276 1014.11 27.0423 1015.57 28.4718C1017.04 29.8809 1017.78 31.7209 1017.78 33.9917L1017.78 33.9968ZM1014.31 33.8245C1014.31 32.4153 1013.9 31.3002 1013.09 30.479C1012.26 29.6275 1011.2 29.2017 1009.87 29.2017C1008.54 29.2017 1007.35 29.6731 1006.45 30.6159C1005.54 31.5688 1005.09 32.7651 1005.09 34.2097C1005.09 35.6543 1005.52 36.8252 1006.37 37.7072C1007.22 38.6095 1008.32 39.0606 1009.66 39.0606C1011.01 39.0606 1012.12 38.5689 1012.99 37.5856C1013.87 36.6123 1014.31 35.3553 1014.31 33.8245Z" fill="#231815"/>
<path d="M1026.32 26.8141L1026.16 28.0712C1027.32 26.9713 1028.49 26.4238 1029.68 26.4238C1030.71 26.4238 1031.66 26.804 1032.5 27.5592L1030.31 30.3877C1029.68 29.8504 1029.05 29.5767 1028.42 29.5767C1027.98 29.5767 1027.6 29.6628 1027.27 29.8352C1026.94 30.0075 1026.65 30.2762 1026.41 30.6462C1026.16 31.0162 1025.96 31.4876 1025.8 32.0705C1025.64 32.6534 1025.51 33.3479 1025.42 34.1538L1024.52 41.4631H1021.08L1022.88 26.8141H1026.32Z" fill="#231815"/>
<path d="M1047.14 17.4517H1051.58C1052.98 17.4517 1054.12 17.6037 1054.99 17.9028C1055.84 18.2018 1056.56 18.7138 1057.15 19.4285C1058.09 20.5589 1058.56 21.9224 1058.56 23.5191C1058.56 25.9471 1057.4 27.7972 1055.07 29.0695C1057.89 29.774 1059.31 31.5481 1059.31 34.3867C1059.31 35.5576 1059.06 36.6626 1058.56 37.6967C1058.09 38.7206 1057.41 39.5519 1056.54 40.1855C1055.85 40.6923 1055.09 41.032 1054.26 41.1942C1053.82 41.2753 1053.3 41.3412 1052.68 41.3868C1052.07 41.4324 1051.35 41.4577 1050.51 41.4577H1044.18L1047.14 17.4517ZM1049.05 30.7929L1048.15 38.1478H1050.54C1052.32 38.1478 1053.55 37.9248 1054.21 37.4787C1055.22 36.8045 1055.74 35.6843 1055.74 34.118C1055.74 33.525 1055.65 33.0232 1055.48 32.6025C1055.3 32.1817 1055.04 31.8371 1054.68 31.5684C1054.31 31.2998 1053.84 31.1021 1053.27 30.9754C1052.69 30.8486 1052 30.7878 1051.19 30.7878H1049.04L1049.05 30.7929ZM1050.28 20.7616L1049.4 27.9442H1050.41C1053.46 27.9442 1054.99 26.5249 1054.99 23.6863C1054.99 21.7399 1053.82 20.7616 1051.5 20.7616H1050.28Z" fill="#231815"/>
<path d="M1066.1 35.365C1066.1 36.4447 1066.48 37.3317 1067.22 38.0262C1067.98 38.7206 1068.94 39.0704 1070.12 39.0704C1071.72 39.0704 1072.95 38.4672 1073.82 37.2658L1076.38 38.6801C1075.49 39.8814 1074.57 40.7228 1073.63 41.1993C1072.68 41.6859 1071.48 41.9292 1070.05 41.9292C1067.78 41.9292 1065.97 41.2601 1064.63 39.9219C1063.28 38.5837 1062.6 36.7944 1062.6 34.5591C1062.6 32.3237 1063.34 30.2556 1064.83 28.6843C1066.3 27.118 1068.16 26.3374 1070.41 26.3374C1072.66 26.3374 1074.3 27.042 1075.55 28.4511C1076.83 29.8704 1077.47 31.7712 1077.47 34.1586C1077.47 34.407 1077.45 34.8125 1077.42 35.3701H1066.1V35.365ZM1073.98 32.5974C1073.62 30.3367 1072.37 29.2064 1070.24 29.2064C1068.21 29.2064 1066.9 30.3367 1066.29 32.5974H1073.98Z" fill="#231815"/>
<path d="M1085.92 30.0025L1084.51 41.4632H1081.07L1082.48 30.0025H1080.54L1080.93 26.8142H1082.87L1083.72 20.022H1087.15L1086.31 26.8142H1089.48L1089.09 30.0025H1085.92Z" fill="#231815"/>
<path d="M1095.58 30.0025L1094.17 41.4632H1090.73L1092.14 30.0025H1090.2L1090.59 26.8142H1092.53L1093.38 20.022H1096.81L1095.97 26.8142H1099.14L1098.75 30.0025H1095.58Z" fill="#231815"/>
<path d="M1104.25 35.365C1104.25 36.4447 1104.62 37.3317 1105.37 38.0262C1106.12 38.7206 1107.09 39.0704 1108.26 39.0704C1109.87 39.0704 1111.1 38.4672 1111.96 37.2658L1114.53 38.6801C1113.64 39.8814 1112.72 40.7228 1111.78 41.1993C1110.82 41.6859 1109.63 41.9292 1108.2 41.9292C1105.93 41.9292 1104.12 41.2601 1102.77 39.9219C1101.42 38.5837 1100.75 36.7944 1100.75 34.5591C1100.75 32.3237 1101.49 30.2556 1102.97 28.6843C1104.44 27.118 1106.3 26.3374 1108.55 26.3374C1110.8 26.3374 1112.44 27.042 1113.7 28.4511C1114.97 29.8704 1115.61 31.7712 1115.61 34.1586C1115.61 34.407 1115.59 34.8125 1115.56 35.3701H1104.24L1104.25 35.365ZM1112.13 32.5974C1111.77 30.3367 1110.52 29.2064 1108.38 29.2064C1106.36 29.2064 1105.04 30.3367 1104.44 32.5974H1112.13Z" fill="#231815"/>
<path d="M1124.16 26.8141L1124 28.0712C1125.16 26.9713 1126.33 26.4238 1127.52 26.4238C1128.55 26.4238 1129.5 26.804 1130.34 27.5592L1128.15 30.3877C1127.52 29.8504 1126.89 29.5767 1126.26 29.5767C1125.82 29.5767 1125.44 29.6628 1125.11 29.8352C1124.78 30.0075 1124.49 30.2762 1124.25 30.6462C1124 31.0162 1123.8 31.4876 1123.64 32.0705C1123.48 32.6534 1123.35 33.3479 1123.26 34.1538L1122.36 41.4631H1118.92L1120.72 26.8141H1124.16Z" fill="#231815"/>
<path d="M1134.43 39.765C1134.43 40.3124 1134.22 40.7889 1133.79 41.1944C1133.36 41.5999 1132.87 41.8027 1132.32 41.8027C1131.76 41.8027 1131.26 41.5948 1130.86 41.1792C1130.45 40.7635 1130.25 40.2567 1130.25 39.6535C1130.25 39.0503 1130.43 38.5839 1130.8 38.1936C1131.2 37.7983 1131.67 37.6006 1132.22 37.6006C1132.83 37.6006 1133.35 37.8135 1133.77 38.2393C1134.21 38.665 1134.43 39.1719 1134.43 39.765Z" fill="#231815"/>
<path d="M592.264 34.6713C591.448 28.3504 589.117 25.6132 582.289 22.1461C576.11 19.0085 576.931 15.5161 572.339 13.2604C571.208 12.7079 569.926 12.5254 568.689 12.7383C564.218 13.5088 565.222 16.469 564.066 18.7601C560.072 26.6675 564.234 31.4069 566.575 35.2795C568.922 39.1521 568.714 43.5367 567.493 44.7583C566.271 45.9799 567.493 46.7959 569.125 45.7771C569.191 45.7366 570.701 44.4846 570.737 44.5606C571.492 46.2434 573.353 44.2412 575.324 45.103C576.896 45.7923 579.146 46.2891 582.375 46.2384C592.057 46.0812 593.075 40.987 592.264 34.6662V34.6713Z" fill="#6D6D77"/>
<path d="M563.56 29.6431C563.56 29.6431 564.822 37.4187 563.56 40.2724C563.053 41.418 562.652 42.0618 562.394 42.4875C562.044 43.0552 562.571 43.77 563.215 43.5925C564.092 43.3492 564.791 42.6396 565.359 42.1074C568.188 39.4564 567.498 34.7677 567.498 34.7677L563.56 29.6431Z" fill="#6D6D77"/>
<path d="M564.285 8.40443C564.285 8.40443 563.018 6.85843 562.181 7.26901C561.122 7.78096 561.269 13.1083 561.269 13.1083C561.269 13.1083 557.269 20.5241 567.275 20.7724C572.106 21.1475 580.034 17.4016 575.38 10.9743C574.843 7.42614 573.53 5.67232 572.811 5.48477C571.645 5.18064 570.433 7.20311 570.433 7.20311C570.433 7.20311 565.871 7.48697 564.285 8.40443Z" fill="#6D6D77"/>
<path d="M592.488 37.8545C590.82 42.5178 584.053 46.3093 576.805 44.0436C569.556 41.7778 568.522 50.5418 577.758 50.0856C586.993 49.6294 593.126 45.3361 592.488 37.8545Z" fill="#6D6D77"/>
<path d="M563.793 13.6001C566.043 12.5813 563.793 9.25104 565.587 8.76443C568.335 8.01424 565.785 12.9513 568.639 13.4227C570.205 13.6812 571.082 15.3691 569.825 16.8087C566.667 20.4127 558.78 15.876 563.798 13.6001H563.793Z" fill="white"/>
<path d="M563.794 12.8601C563.773 13.1845 563.576 13.4379 563.358 13.4227C563.14 13.4075 562.982 13.1338 563.003 12.8094C563.023 12.485 563.221 12.2315 563.439 12.2467C563.657 12.262 563.814 12.5357 563.794 12.8601Z" fill="#181616"/>
<path d="M570.545 12.3025C570.525 12.6269 570.327 12.8803 570.109 12.8651C569.892 12.8499 569.734 12.5762 569.755 12.2518C569.775 11.9274 569.973 11.6739 570.191 11.6891C570.409 11.7043 570.566 11.9781 570.545 12.3025Z" fill="#181616"/>
<path d="M563.732 15.0347C563.732 15.0347 565.207 16.1093 566.216 14.396C566.216 14.396 567.189 15.9116 569.065 14.7863" stroke="#060203" stroke-width="0.36" stroke-linecap="round" stroke-linejoin="round"/>
<path d="M566.951 13.6358C566.951 13.9146 566.622 14.4012 566.216 14.4012C565.811 14.4012 565.481 13.9095 565.486 13.6307C565.486 13.3519 565.816 13.3418 566.221 13.3418C566.627 13.3418 566.956 13.357 566.956 13.6358H566.951Z" fill="#E96E6E"/>
<path d="M564.265 30.5654C564.265 30.5654 566.51 33.404 567.357 36.5011" stroke="#141421" stroke-width="0.36" stroke-linecap="round" stroke-linejoin="round"/>
<path d="M570.737 43.9776C570.737 43.9776 573.444 39.4359 572.542 32.0962" stroke="#141421" stroke-width="0.36" stroke-linecap="round" stroke-linejoin="round"/>
<path d="M584.099 32.1016C584.099 32.1016 573.241 29.6686 575.152 43.6231" stroke="#141421" stroke-width="0.36" stroke-linecap="round" stroke-linejoin="round"/>
<path d="M572.091 44.429C572.091 44.429 573.622 42.9996 577.656 44.282C581.686 45.5695 587.703 46.051 591.332 39.9785" stroke="#141421" stroke-width="0.36" stroke-linecap="round" stroke-linejoin="round"/>
<path d="M563.484 20.0273C563.484 20.0273 567.565 21.2794 570.434 20.0273" stroke="#141421" stroke-width="0.36" stroke-linecap="round" stroke-linejoin="round"/>
</g>
<defs>
<clipPath id="clip0_351_1253">
<rect width="1219.19" height="60" fill="white"/>
</clipPath>
</defs>
</svg>
