<svg width="327" height="110" viewBox="0 0 327 110" fill="none" xmlns="http://www.w3.org/2000/svg">
<rect width="321" height="103" transform="translate(6 7)" fill="#FA8334"/>
<rect width="321" height="103" fill="white"/>
<path d="M44.896 25.568L46.6 24.392C47.968 25.568 49.6 27.224 50.344 28.352L48.496 29.648C47.824 28.496 46.24 26.792 44.896 25.568ZM29.272 30.728H50.752V32.888H29.272V30.728ZM28.864 37.664C31.72 37.184 36.28 36.296 40.48 35.456L40.648 37.496C36.736 38.384 32.536 39.296 29.464 39.944L28.864 37.664ZM34.144 26.408H36.424V43.256C36.424 44.6 36.136 45.248 35.272 45.608C34.432 45.968 33.088 46.04 31.096 46.04C31 45.416 30.616 44.384 30.28 43.736C31.744 43.808 33.16 43.784 33.592 43.76C34 43.76 34.144 43.64 34.144 43.232V26.408ZM38.872 23.984L40.432 25.904C37.504 26.864 33.424 27.56 29.968 27.992C29.848 27.464 29.56 26.624 29.296 26.096C32.656 25.616 36.496 24.824 38.872 23.984ZM41.248 23.936H43.624C43.528 34.376 45.784 43.808 48.4 43.808C48.976 43.808 49.264 42.608 49.408 39.608C49.888 40.136 50.68 40.664 51.304 40.904C50.92 44.984 50.152 46.112 48.184 46.112C43.36 46.112 41.344 35.096 41.248 23.936ZM47.776 33.848L49.768 34.712C47.368 39.128 43.432 42.872 39.04 45.176C38.704 44.624 38.056 43.88 37.48 43.376C41.704 41.384 45.616 37.88 47.776 33.848ZM65.56 24.992L67.24 24.152C68.944 25.28 71.128 26.984 72.232 28.208L70.432 29.144C69.424 27.992 67.312 26.192 65.56 24.992ZM58.624 30.632L60.256 30.128C60.904 31.064 61.6 32.336 61.864 33.152L60.184 33.728C59.944 32.888 59.272 31.592 58.624 30.632ZM70.576 30.392L72.16 29.72C73.168 30.8 74.272 32.312 74.728 33.368L73.024 34.136C72.616 33.104 71.56 31.544 70.576 30.392ZM64.552 34.664L66.208 35.504C64.192 37.016 61.048 38.336 58.456 39.104C58.168 38.696 57.664 38.096 57.208 37.712C59.704 37.088 62.848 35.912 64.552 34.664ZM67.144 36.944L68.872 37.808C66.328 39.944 62.152 41.48 58.264 42.368C58.024 41.888 57.544 41.192 57.112 40.736C60.784 40.064 64.96 38.696 67.144 36.944ZM69.88 39.344L71.752 40.232C68.68 43.496 63.16 45.2 57.016 46.04C56.824 45.488 56.392 44.72 55.984 44.192C61.816 43.568 67.216 42.104 69.88 39.344ZM63.328 29.72L65.416 30.32C63.112 34.376 58.864 37.064 54.088 38.648C53.872 38.192 53.224 37.28 52.816 36.848C57.424 35.576 61.408 33.2 63.328 29.72ZM64.792 30.8C66.976 33.392 71.296 35.672 75.496 36.704C75.016 37.112 74.368 37.928 74.056 38.456C69.784 37.208 65.44 34.664 62.896 31.592L64.792 30.8ZM56.44 28.784C56.32 28.376 56.008 27.416 55.768 26.864C56.248 26.792 56.752 26.6 57.328 26.288C57.976 26 60.016 24.872 61.48 23.6L63.472 24.584C61.696 25.904 59.632 27.08 57.76 27.824V27.848C57.76 27.848 56.44 28.376 56.44 28.784ZM56.44 28.784L56.416 27.392L57.712 26.768L69.736 26.384C69.976 26.912 70.384 27.608 70.624 27.992C58.648 28.496 57.352 28.472 56.44 28.784ZM54.664 33.752C54.52 33.344 54.184 32.432 53.944 31.928C54.232 31.856 54.568 31.64 54.856 31.328C55.168 31.016 56.152 29.912 56.728 28.712L58.744 29.552C57.928 30.728 56.824 31.976 55.84 32.744V32.792C55.84 32.792 54.664 33.368 54.664 33.752ZM54.664 33.752L54.64 32.36L55.576 31.784L59.8 31.616C60.04 32.12 60.448 32.792 60.664 33.2C55.888 33.488 55.12 33.584 54.664 33.752ZM66.592 33.632C66.448 33.248 66.112 32.336 65.896 31.832C66.136 31.76 66.424 31.568 66.688 31.28C66.928 30.992 67.696 29.912 68.104 28.808L70.144 29.6C69.496 30.704 68.56 31.904 67.768 32.624V32.672C67.768 32.672 66.592 33.272 66.592 33.632ZM66.592 33.632L66.568 32.24L67.504 31.664L71.992 31.448C72.232 31.952 72.64 32.6 72.856 33.032C67.84 33.368 67.072 33.464 66.592 33.632ZM84.112 33.872H97.984V35.576H84.112V33.872ZM83.152 37.496H98.8V39.2H83.152V37.496ZM87.256 32.36H89.368V38.432H87.256V32.36ZM92.608 32.36H94.72V38.432H92.608V32.36ZM92.104 40.184L93.592 39.176C95.296 39.992 97.24 41.072 98.368 41.912L96.352 42.896C95.416 42.056 93.712 40.976 92.104 40.184ZM88.072 39.224L90.088 39.92C88.84 41.096 86.896 42.248 85.264 42.968C84.856 42.584 84.064 41.912 83.56 41.6C85.216 41.024 86.992 40.136 88.072 39.224ZM84.76 24.632H90.424V28.928H84.76V27.464H88.504V26.096H84.76V24.632ZM92.392 24.656H98.2V28.952H92.392V27.488H96.256V26.12H92.392V24.656ZM91.528 24.656H93.352V29.48C93.352 30.152 93.448 30.368 93.976 30.368C94.432 30.368 96.448 30.368 96.904 30.368C97.36 30.368 98.104 30.344 98.512 30.248C98.56 30.728 98.608 31.4 98.68 31.832C98.296 31.928 97.624 31.976 96.952 31.976C96.448 31.976 94.288 31.976 93.88 31.976C91.984 31.976 91.528 31.28 91.528 29.432V24.656ZM83.968 32.624L83.896 31.208L84.76 30.632L90.568 29.768C90.448 30.224 90.328 30.968 90.304 31.352C85.168 32.24 84.4 32.384 83.968 32.624ZM83.968 32.624C83.848 32.144 83.488 31.304 83.2 30.872C83.536 30.704 83.896 30.344 83.896 29.432V24.632H85.696V31.04C85.696 31.04 83.968 31.976 83.968 32.624ZM77.44 24.872L79.12 23.84C80.248 25.016 81.592 26.528 82.288 27.488L80.536 28.736C79.888 27.728 78.52 26.072 77.44 24.872ZM77.08 29.36H81.472V31.208H77.08V29.36ZM81.52 40.064C82.912 43.256 85.936 43.664 90.544 43.688C93.112 43.688 96.832 43.544 99.424 43.304C99.088 43.784 98.8 44.84 98.68 45.464C96.304 45.608 93.256 45.656 90.52 45.656C84.88 45.656 81.784 44.984 80.008 40.736L81.52 40.064ZM81.064 35.24H81.616L81.976 35.192L83.08 35.576C82.36 40.712 80.56 44.192 78.088 46.064C77.776 45.608 77.032 44.84 76.6 44.528C78.928 42.896 80.488 39.848 81.064 35.6V35.24ZM77.536 37.376V35.72L78.448 35.24H81.664V37.04H78.928C78.376 37.04 77.728 37.208 77.536 37.376ZM77.536 37.376C77.416 36.896 76.984 35.888 76.768 35.48C77.128 35.36 77.488 35.216 77.872 34.736C78.472 34.064 80.344 30.8 80.992 29.528V29.456L81.592 29.216L83.032 29.768C82.096 31.4 80.272 34.544 79.12 36.056C79.12 36.056 77.536 36.848 77.536 37.376ZM101.392 34.184H122.632V36.2H101.392V34.184ZM112.096 38.504H121.072V40.472H112.096V38.504ZM111.064 35.168H113.368V44.168H111.064V35.168ZM106.792 39.032C108.184 42.776 111.304 43.448 115.792 43.472C116.896 43.472 121.744 43.472 123.208 43.424C122.872 43.928 122.512 44.936 122.392 45.608H115.696C110.104 45.608 106.84 44.6 104.92 39.68L106.792 39.032ZM105.304 36.872L107.56 37.184C106.792 41.168 105.064 44.168 102.424 46.064C102.088 45.656 101.2 44.816 100.696 44.48C103.192 42.896 104.704 40.256 105.304 36.872ZM105.976 29.504V31.136H117.832V29.504H105.976ZM105.976 26.336V27.944H117.832V26.336H105.976ZM103.792 24.656H120.136V32.792H103.792V24.656ZM128.896 36.488H145.216V38.456H128.896V36.488ZM125.728 27.776H141.52V29.84H125.728V27.776ZM132.64 32.144H143.584V34.112H132.64V32.144ZM144.304 36.488H146.56C146.56 36.488 146.536 37.112 146.488 37.4C146.056 42.392 145.624 44.432 144.856 45.224C144.352 45.752 143.848 45.944 143.08 46.016C142.456 46.064 141.28 46.064 140.032 46.016C140.008 45.392 139.744 44.504 139.384 43.928C140.536 44.048 141.616 44.072 142.096 44.048C142.504 44.048 142.744 44.024 142.984 43.808C143.512 43.28 143.944 41.432 144.304 36.824V36.488ZM139.072 39.56L140.632 38.984C141.352 39.968 142.072 41.312 142.336 42.176L140.68 42.824C140.416 41.96 139.72 40.568 139.072 39.56ZM128.584 24.584L130.6 23.792C131.488 24.728 132.52 26.072 133 26.984L130.864 27.896C130.456 26.984 129.472 25.592 128.584 24.584ZM131.896 40.16L133.744 39.944C134.2 41.48 134.44 43.472 134.44 44.792L132.472 45.056C132.544 43.76 132.304 41.744 131.896 40.16ZM135.472 39.968L137.224 39.56C137.824 40.88 138.4 42.608 138.592 43.76L136.72 44.24C136.576 43.088 136.024 41.312 135.472 39.968ZM128.752 39.512L130.672 40.136C130.144 42.176 129.352 44.432 127.912 45.92L126.16 44.672C127.432 43.424 128.32 41.384 128.752 39.512ZM135.904 23.72L138.232 24.296C136.072 31.088 132.328 37.472 125.776 41.192C125.512 40.64 124.936 39.752 124.552 39.248C130.576 36.008 134.176 29.888 135.904 23.72ZM141.04 27.776H143.152C142.816 29.504 142.384 31.544 142 32.888L140.008 32.576C140.368 31.304 140.776 29.336 141.04 27.776ZM142.744 32.144H144.856C144.52 33.848 144.112 35.888 143.728 37.208L141.712 36.968C142.096 35.648 142.504 33.704 142.744 32.144ZM158.896 32.168H161.272V43.28C161.272 44.672 160.936 45.32 159.88 45.68C158.824 46.016 157.168 46.064 154.792 46.04C154.672 45.392 154.24 44.384 153.88 43.76C155.752 43.832 157.648 43.808 158.2 43.784C158.728 43.784 158.896 43.64 158.896 43.232V32.168ZM150.28 25.544H167.368V27.776H150.28V25.544ZM166.696 25.544H167.32L167.824 25.4L169.624 26.744C167.272 29.312 163.648 32.12 160.408 33.776C160.072 33.296 159.352 32.552 158.896 32.168C161.8 30.68 165.184 27.992 166.696 26.096V25.544ZM184.504 32.744H194.224V34.784H184.504V32.744ZM184.528 37.424H194.248V39.464H184.528V37.424ZM184.36 42.272H195.016V44.384H184.36V42.272ZM188.68 28.784H190.72V43.4H188.68V28.784ZM185.464 28.064H194.68V30.128H185.464V46.064H183.4V29.432L184.648 28.064H185.464ZM185.296 23.864L187.456 24.488C186.256 27.944 184.36 31.856 182.104 34.496C181.888 33.92 181.384 32.912 181.072 32.384C182.92 30.2 184.504 26.624 185.296 23.864ZM187.936 24.656L189.832 23.864C190.456 24.92 191.152 26.312 191.488 27.2L189.496 28.136C189.184 27.2 188.488 25.76 187.936 24.656ZM178.84 33.368L180.376 32.816C181.144 34.376 181.888 36.368 182.128 37.616L180.448 38.264C180.232 36.992 179.56 34.928 178.84 33.368ZM176.488 39.608L178.096 39.248C178.408 40.856 178.672 42.92 178.768 44.312L177.064 44.72C177.016 43.328 176.752 41.216 176.488 39.608ZM173.848 39.368L175.624 39.656C175.408 41.768 174.976 44.024 174.496 45.512C174.088 45.296 173.248 45.032 172.792 44.912C173.344 43.472 173.656 41.312 173.848 39.368ZM173.512 32.984C173.416 32.576 173.08 31.616 172.864 31.088C173.296 30.992 173.704 30.512 174.184 29.792C174.688 29.096 176.296 26.36 177.184 23.792L179.104 24.584C177.928 27.224 176.32 29.984 174.76 31.904V31.928C174.76 31.928 173.512 32.576 173.512 32.984ZM173.512 32.984L173.464 31.472L174.4 30.872L178.6 30.536C178.504 31.064 178.408 31.808 178.408 32.24C174.616 32.624 173.944 32.768 173.512 32.984ZM173.68 38.456C173.584 38.048 173.272 37.088 173.032 36.56C173.584 36.44 174.088 35.84 174.832 34.928C175.624 34.04 178.096 30.56 179.608 27.224L181.36 28.304C179.584 31.592 177.232 34.976 174.952 37.4V37.448C174.952 37.448 173.68 38.048 173.68 38.456ZM173.68 38.456L173.608 36.92L174.568 36.296L180.976 35.432C180.904 35.936 180.88 36.68 180.904 37.088C175.024 37.976 174.184 38.192 173.68 38.456ZM179.128 39.08L180.64 38.6C181.216 40.064 181.792 41.96 182.056 43.184L180.472 43.76C180.256 42.488 179.656 40.544 179.128 39.08ZM197.872 31.04H204.76V32.792H197.872V31.04ZM197.872 34.232H204.76V35.984H197.872V34.232ZM196.864 27.776H205.576V29.624H196.864V27.776ZM198.808 37.496H204.808V44.624H198.808V42.776H202.888V39.344H198.808V37.496ZM197.848 37.496H199.744V45.704H197.848V37.496ZM199.48 24.512L201.184 23.648C201.856 24.632 202.6 25.928 202.984 26.792L201.184 27.824C200.872 26.936 200.104 25.52 199.48 24.512ZM206.032 38.888H216.352V40.448H206.032V38.888ZM215.944 38.888H216.352L216.712 38.792L218.032 39.44C215.896 43.352 211.024 45.224 205.96 46.064C205.768 45.536 205.336 44.72 204.976 44.264C209.656 43.688 214.24 42.08 215.944 39.152V38.888ZM209.728 40.136C211.528 42.32 215.248 43.736 219.424 44.24C218.968 44.672 218.416 45.488 218.152 46.016C213.76 45.32 209.992 43.544 207.88 40.736L209.728 40.136ZM205.648 25.088H210.64V26.84H205.648V25.088ZM208.216 32.024H217.768V33.248H208.216V32.024ZM208.216 34.256H217.768V35.48H208.216V34.256ZM209.296 23.768H211.312V28.064H209.296V23.768ZM212.032 30.296H213.952V37.256H212.032V30.296ZM213.496 23.768H215.512V28.064H213.496V23.768ZM207.952 27.608L209.776 28.136C208.96 30.392 207.568 32.72 206.08 34.184C205.864 33.8 205.24 32.912 204.88 32.504C206.176 31.304 207.328 29.48 207.952 27.608ZM214.072 25.088H218.968V26.816H214.072V25.088ZM209.056 29.552H218.416V30.968H209.056V38.408H207.16V30.512L208.096 29.552H209.056ZM211.456 28.16L213.448 27.656C213.76 28.424 214.144 29.432 214.312 30.08L212.2 30.704C212.08 30.032 211.744 28.976 211.456 28.16ZM208.192 36.584H218.92V37.976H208.192V36.584ZM231.568 37.472H241.384V39.368H231.568V37.472ZM231.544 42.56H241.432V44.552H231.544V42.56ZM232.456 23.96H234.568V31.544H232.456V23.96ZM238.312 23.96H240.448V31.544H238.312V23.96ZM235.408 33.488H237.376V43.64H235.408V33.488ZM230.68 32.456H242.128V45.8H239.968V34.448H232.744V45.992H230.68V32.456ZM224.944 32.048L226.432 31.136C230.128 35.096 230.056 42.896 228.352 44.72C227.704 45.536 226.984 45.8 225.976 45.824C225.52 45.824 224.824 45.824 224.224 45.776C224.176 45.2 224.032 44.36 223.744 43.784C224.416 43.856 225.112 43.904 225.52 43.904C226.048 43.904 226.408 43.808 226.768 43.328C227.872 42.152 228.136 35.528 224.944 32.048ZM226.696 33.848L228.04 34.76C226.6 36.248 223.984 38.072 222.016 39.08C221.776 38.6 221.32 37.88 220.936 37.472C222.856 36.704 225.424 35.168 226.696 33.848ZM227.752 36.8L229.12 37.76C227.416 39.896 224.296 42.344 221.728 43.664C221.488 43.16 221.032 42.416 220.624 42.008C223.12 40.976 226.216 38.768 227.752 36.8ZM221.656 29.36L223.144 28.592C223.84 29.552 224.656 30.872 224.968 31.712L223.384 32.624C223.096 31.736 222.328 30.368 221.656 29.36ZM225.088 27.992L226.552 27.2C227.104 28.016 227.776 29.096 228.04 29.816L226.504 30.704C226.24 29.984 225.64 28.832 225.088 27.992ZM229.024 28.088L230.344 29.36C228.352 31.568 225.208 33.488 222.136 34.832C221.896 34.4 221.416 33.704 221.032 33.344C224.08 32.072 227.248 30.08 229.024 28.088ZM228.016 23.864L229.24 25.232C227.464 26.528 224.56 27.584 221.92 28.256C221.68 27.776 221.272 27.032 220.864 26.624C223.432 26.048 226.36 24.944 228.016 23.864ZM230.008 26.648H236.008V28.76H230.008V26.648ZM236.848 26.672H243.16V28.76H236.848V26.672ZM246.976 25.616H252.712V41.288H246.976V39.176H250.6V27.68H246.976V25.616ZM245.776 25.616H247.888V43.592H245.776V25.616ZM258.88 23.768H261.064V46.016H258.88V23.768ZM253.504 32.672H267.016V34.784H253.504V32.672ZM256.384 36.152L258.136 36.632C257.296 40.16 255.76 43.712 253.864 45.68C253.504 45.152 252.808 44.408 252.328 44C254.08 42.392 255.616 39.2 256.384 36.152ZM264.208 25.232L266.56 26.024C265.624 28.064 264.544 30.44 263.68 31.952L261.976 31.256C262.744 29.648 263.728 27.08 264.208 25.232ZM253.6 26.168L255.4 25.352C256.408 27.152 257.392 29.48 257.728 30.968L255.76 31.904C255.448 30.392 254.536 27.992 253.6 26.168ZM261.904 36.992L263.68 36.104C265.12 38.816 266.728 42.344 267.352 44.504L265.432 45.584C264.856 43.352 263.32 39.728 261.904 36.992ZM276.592 25.52H281.368V27.224H276.592V25.52ZM285.76 25.52H291.136V27.224H285.76V25.52ZM280.624 23.744H282.592V28.304H280.624V23.744ZM284.8 23.744H286.792V28.256H284.8V23.744ZM285.976 30.224V32.048H288.328V30.224H285.976ZM284.272 28.76H290.08V33.512H284.272V28.76ZM279.088 30.224V32.048H281.392V30.224H279.088ZM277.432 28.76H283.144V33.512H277.432V28.76ZM279.208 38.024H289.528V39.56H279.208V38.024ZM279.208 40.784H289.528V42.296H279.208V40.784ZM279.088 43.544H290.968V45.2H279.088V43.544ZM283.24 36.224H285.232V44.72H283.24V36.224ZM280.096 35.336H290.488V36.824H280.096V46.04H278.056V36.32L278.992 35.336H280.096ZM279.496 33.2L281.32 33.824C280.24 36.128 278.536 38.48 276.832 39.944C276.64 39.536 276.04 38.552 275.704 38.12C277.192 36.896 278.632 35.096 279.496 33.2ZM282.784 34.16L284.728 33.608C285.088 34.448 285.472 35.528 285.64 36.224L283.648 36.872C283.48 36.152 283.096 34.976 282.784 34.16ZM269.224 28.328H276.832V30.416H269.224V28.328ZM272.392 23.744H274.384V46.016H272.392V23.744ZM272.224 29.792L273.448 30.32C272.752 34.064 271.288 38.744 269.728 41.216C269.488 40.544 268.984 39.536 268.648 38.96C270.136 36.896 271.6 32.888 272.224 29.792ZM274.288 31.496C274.792 32.072 276.592 34.664 277 35.288L275.728 36.872C275.248 35.744 273.88 33.224 273.28 32.312L274.288 31.496ZM29.032 79.28H50.944V81.296H29.032V79.28ZM29.44 64.376H50.536V66.392H29.44V64.376ZM32.008 71.984H48.088V80.072H45.952V73.928H43.336V80.072H41.248V73.928H38.704V80.072H36.616V73.928H34.048V80.072H32.008V71.984ZM33.136 60.632L35.08 59.768C36.064 60.992 37.12 62.624 37.6 63.704L35.584 64.736C35.128 63.632 34.072 61.88 33.136 60.632ZM44.8 59.744L47.08 60.464C46.192 61.928 45.16 63.512 44.296 64.568L42.4 63.92C43.216 62.792 44.248 61.016 44.8 59.744ZM42.04 68.72L43.216 67.112C45.568 67.928 48.904 69.296 50.632 70.208L49.384 72.008C47.752 71.072 44.464 69.632 42.04 68.72ZM36.232 67.088L37.816 68.216C36.088 69.608 32.992 71.384 30.784 72.416C30.472 71.888 29.896 71.048 29.44 70.592C31.624 69.848 34.696 68.312 36.232 67.088ZM62.008 75.776L61.36 74.216C63.352 73.496 64.432 72.296 64.432 70.664L64.096 68.504L65.416 70.472C65.056 70.856 64.576 71 64.072 71C62.992 71 62.056 70.328 62.056 69.104C62.056 67.88 63.016 67.184 64.12 67.184C65.608 67.184 66.4 68.36 66.4 70.184C66.4 72.824 64.72 74.912 62.008 75.776ZM87.232 65.072H97.144V67.232H87.232V65.072ZM96.208 65.072H98.368C98.368 65.072 98.368 65.864 98.368 66.152C98.128 76.184 97.912 79.664 97.12 80.744C96.616 81.464 96.064 81.704 95.272 81.8C94.504 81.896 93.232 81.872 91.984 81.824C91.936 81.2 91.672 80.24 91.288 79.664C92.584 79.736 93.76 79.76 94.264 79.76C94.672 79.76 94.936 79.688 95.152 79.376C95.776 78.632 95.992 75.128 96.208 65.552V65.072ZM90.88 59.768H93.088C93.064 69.32 93.04 77.648 86.464 82.064C86.128 81.512 85.384 80.744 84.832 80.36C91.048 76.4 90.856 68.768 90.88 59.768ZM78.424 60.848H86.488V76.496H84.376V62.912H80.44V78.008H78.424V60.848ZM76.72 77.36C79.432 76.856 83.68 75.968 87.688 75.08L87.904 77.12C84.088 78.032 80.032 78.992 77.104 79.664L76.72 77.36ZM79.48 65.936H85.408V67.952H79.48V65.936ZM79.48 71H85.408V73.016H79.48V71ZM101.896 64.88H120.424V67.208H101.896V64.88ZM119.512 64.88H121.864C121.864 64.88 121.84 65.696 121.816 66.032C121.288 75.824 120.808 79.424 119.728 80.648C119.104 81.464 118.48 81.68 117.496 81.776C116.632 81.896 115.12 81.848 113.632 81.776C113.608 81.104 113.296 80.096 112.864 79.448C114.448 79.568 115.936 79.592 116.56 79.592C117.064 79.592 117.352 79.52 117.664 79.208C118.552 78.368 119.056 74.6 119.512 65.36V64.88ZM109.528 59.792H111.928V64.304C111.928 69.752 111.208 77.264 102.928 82.136C102.568 81.584 101.728 80.72 101.176 80.312C108.928 75.872 109.528 69.128 109.528 64.304V59.792ZM129.232 78.536H142.624V80.744H129.232V78.536ZM128.104 71.696H143.872V81.968H141.448V73.856H130.408V82.016H128.104V71.696ZM138.184 63.44L139.96 62.24C142.24 64.304 145.096 67.28 146.344 69.296L144.424 70.688C143.248 68.672 140.512 65.6 138.184 63.44ZM127.024 69.848C126.928 69.392 126.544 68.24 126.28 67.64C126.88 67.52 127.48 67.016 128.272 66.248C129.136 65.456 131.872 62.456 133.648 59.528L135.928 60.512C133.672 63.656 130.96 66.608 128.44 68.672V68.744C128.44 68.744 127.024 69.416 127.024 69.848ZM127.024 69.848L127 68.072L128.608 67.256L143.704 66.632C143.728 67.256 143.824 68.192 143.92 68.672C129.736 69.416 128.152 69.464 127.024 69.848ZM160 64.16H164.512V65.312H160V64.16ZM160 65.984H164.512V67.136H160V65.984ZM156.472 77.048H168.64V78.488H156.472V77.048ZM159.28 62.144H165.064V63.416H159.28V62.144ZM161.344 69.032V70.376H163.072V69.032H161.344ZM159.952 67.904H164.512V71.504H159.952V67.904ZM156.88 74.672H166.864V73.616H155.416V72.248H168.976V76.016H156.88V74.672ZM156.232 74.672H158.32C158.008 75.992 157.624 77.456 157.288 78.488H155.176C155.56 77.408 155.944 75.92 156.232 74.672ZM167.944 77.048H170.08C170.08 77.048 170.032 77.624 169.936 77.888C169.528 79.904 169.072 80.96 168.4 81.488C167.872 81.896 167.296 81.992 166.408 82.016C165.664 82.016 164.2 82.016 162.688 81.944C162.64 81.44 162.4 80.72 162.064 80.24C163.552 80.384 165.136 80.408 165.76 80.408C166.264 80.408 166.528 80.384 166.792 80.216C167.224 79.904 167.584 79.016 167.92 77.288L167.944 77.048ZM149.248 61.568L150.544 60.056C151.768 60.728 153.256 61.76 154 62.552L152.608 64.256C151.936 63.44 150.448 62.312 149.248 61.568ZM148.72 67.976L149.992 66.416C151.216 67.016 152.776 68 153.52 68.744L152.2 70.472C151.504 69.728 149.944 68.648 148.72 67.976ZM149.224 80.576C150.112 78.704 151.336 75.632 152.248 72.872L154.024 74.048C153.232 76.568 152.2 79.472 151.24 81.752L149.224 80.576ZM157.504 65.336L158.536 64.976C158.992 65.744 159.496 66.776 159.64 67.4L158.608 67.88C158.416 67.208 157.96 66.128 157.504 65.336ZM157.696 68.456L158.68 68.12C159.064 68.912 159.424 69.968 159.496 70.664L158.464 71.096C158.368 70.4 158.056 69.296 157.696 68.456ZM154.264 68.552L155.464 68.84C155.248 70.016 154.888 71.288 154.432 72.128C154.216 71.912 153.688 71.576 153.4 71.408C153.856 70.616 154.096 69.56 154.264 68.552ZM154.144 64.592C154.072 64.376 153.832 63.848 153.664 63.584C153.976 63.536 154.168 63.296 154.408 62.936C154.672 62.624 155.536 61.208 155.896 59.936L157.24 60.392C156.664 61.712 155.8 63.08 154.96 64.016V64.04C154.96 64.04 154.144 64.376 154.144 64.592ZM154.144 64.592L154.096 63.584L154.912 63.176L157.648 63.032C157.552 63.392 157.456 63.896 157.456 64.184C155.032 64.376 154.456 64.472 154.144 64.592ZM154.192 67.856C154.144 67.64 153.904 67.088 153.736 66.824C154.12 66.752 154.432 66.44 154.864 65.984C155.344 65.528 156.808 63.704 157.648 61.976L158.92 62.552C157.888 64.232 156.52 66.008 155.128 67.232V67.28C155.128 67.28 154.192 67.616 154.192 67.856ZM154.192 67.856L154.12 66.8L154.864 66.392L158.584 65.984C158.632 66.296 158.728 66.8 158.848 67.064C155.224 67.544 154.576 67.688 154.192 67.856ZM155.872 68.792L156.952 68.528C157.24 69.44 157.456 70.592 157.48 71.312L156.352 71.696C156.328 70.928 156.136 69.728 155.872 68.792ZM160.864 60.32L162.376 59.984C162.736 60.536 163.144 61.376 163.336 61.856L161.752 62.288C161.608 61.736 161.2 60.92 160.864 60.32ZM168.784 65.312L169.792 64.952C170.296 65.744 170.8 66.824 170.992 67.496L169.936 67.928C169.744 67.232 169.264 66.152 168.784 65.312ZM168.952 68.432L169.936 68.072C170.392 69.032 170.8 70.28 170.92 71.072L169.864 71.528C169.768 70.712 169.384 69.416 168.952 68.432ZM165.544 68.456L166.744 68.744C166.528 69.92 166.168 71.192 165.712 72.056C165.496 71.816 164.992 71.48 164.68 71.312C165.136 70.52 165.376 69.464 165.544 68.456ZM165.424 64.568C165.352 64.352 165.112 63.824 164.968 63.536C165.232 63.512 165.448 63.272 165.688 62.912C165.952 62.576 166.792 61.184 167.176 59.888L168.496 60.392C167.968 61.664 167.08 63.032 166.24 63.968V63.992C166.24 63.992 165.424 64.352 165.424 64.568ZM165.424 64.568L165.376 63.56L166.192 63.152L168.904 63.008C168.808 63.368 168.736 63.872 168.736 64.16C166.312 64.352 165.736 64.448 165.424 64.568ZM165.496 67.832C165.424 67.592 165.184 67.064 165.016 66.776C165.4 66.728 165.736 66.416 166.144 65.936C166.624 65.504 168.064 63.68 168.904 61.952L170.2 62.504C169.168 64.208 167.8 65.96 166.408 67.208V67.232C166.408 67.232 165.496 67.592 165.496 67.832ZM165.496 67.832L165.4 66.776L166.144 66.368L169.864 65.936C169.912 66.272 170.032 66.752 170.128 67.016C166.504 67.52 165.856 67.664 165.496 67.832ZM167.104 68.792L168.16 68.504C168.496 69.512 168.736 70.784 168.76 71.552L167.608 71.936C167.608 71.12 167.392 69.8 167.104 68.792ZM175.264 63.632H182.584V79.52H175.264V77.504H180.52V65.624H175.264V63.632ZM173.92 63.632H176.008V81.368H173.92V63.632ZM175.144 70.184H181.552V72.176H175.144V70.184ZM177.496 59.72L179.944 60.104C179.44 61.664 178.84 63.344 178.36 64.448L176.536 64.016C176.92 62.816 177.328 60.992 177.496 59.72ZM185.896 63.512H193.12V65.6H185.896V63.512ZM192.328 63.512H194.44C194.44 63.512 194.44 64.304 194.416 64.592C194.08 75.512 193.768 79.28 192.784 80.504C192.208 81.296 191.608 81.536 190.696 81.656C189.832 81.752 188.392 81.704 187.024 81.656C186.976 81.008 186.688 80.048 186.28 79.448C187.84 79.568 189.28 79.592 189.856 79.592C190.336 79.592 190.624 79.52 190.888 79.184C191.68 78.344 192.04 74.288 192.328 63.968V63.512ZM186.208 59.696L188.392 60.2C187.48 63.776 185.992 67.352 184.36 69.632C183.952 69.272 183.016 68.624 182.488 68.336C184.12 66.248 185.44 62.96 186.208 59.696ZM185.08 70.04L186.856 69.032C188.128 70.712 189.76 73.04 190.528 74.456L188.584 75.632C187.888 74.168 186.328 71.792 185.08 70.04ZM197.392 69.464H218.68V71.72H197.392V69.464ZM199.144 63.536H217V65.792H199.144V63.536ZM206.752 59.768H209.152V82.016H206.752V59.768ZM206.272 70.712L208.24 71.528C205.96 75.344 202.072 78.896 198.328 80.816C197.944 80.24 197.2 79.352 196.648 78.872C200.344 77.264 204.256 73.976 206.272 70.712ZM209.656 70.712C211.672 73.976 215.608 77.264 219.28 78.872C218.752 79.328 218.008 80.24 217.624 80.84C213.904 78.92 210.064 75.296 207.76 71.528L209.656 70.712ZM221.68 62.96H242.464V65.168H221.68V62.96ZM230.728 59.768H233.104V82.016H230.728V59.768ZM230.992 70.496L232.888 71.24C230.536 75.392 226.528 79.088 222.376 81.032C222.016 80.456 221.272 79.544 220.768 79.088C224.848 77.456 228.904 74.048 230.992 70.496ZM233.008 70.616C235.072 74.12 239.104 77.432 243.232 78.992C242.656 79.472 241.936 80.408 241.552 81.056C237.4 79.16 233.44 75.488 231.112 71.36L233.008 70.616ZM224.752 69.416L226.216 68C227.32 68.936 228.856 70.28 229.6 71.12L228.088 72.704C227.368 71.84 225.88 70.424 224.752 69.416ZM225.736 65.552L227.944 65.96C227.08 69.464 225.4 72.392 223.168 74.24C222.784 73.832 221.92 73.088 221.392 72.752C223.552 71.168 225.04 68.576 225.736 65.552ZM236.272 69.488L237.76 68.144C239.32 69.32 241.552 71.072 242.632 72.152L241.048 73.712C240.04 72.608 237.856 70.784 236.272 69.488ZM237.088 65.552L239.296 65.936C238.648 68.888 237.352 71.432 235.672 73.064C235.24 72.704 234.28 72.104 233.752 71.84C235.432 70.424 236.584 68.12 237.088 65.552ZM256.072 67.16C258.136 67.16 259.816 68.84 259.816 70.904C259.816 72.992 258.136 74.672 256.072 74.672C254.008 74.672 252.304 72.992 252.304 70.904C252.304 68.84 254.008 67.16 256.072 67.16ZM256.072 73.232C257.344 73.232 258.376 72.2 258.376 70.904C258.376 69.632 257.344 68.6 256.072 68.6C254.8 68.6 253.744 69.632 253.744 70.904C253.744 72.2 254.8 73.232 256.072 73.232Z" fill="#383838"/>
</svg>
