<svg width="328" height="182" viewBox="0 0 328 182" fill="none" xmlns="http://www.w3.org/2000/svg">
<g filter="url(#filter0_d_351_1593)">
<path d="M7.98709 1.9085L20.8886 156.258L254.57 144.279L236.886 170.652L275.075 144.101L321.614 139.859L328 9.99182L7.98709 1.9085Z" fill="white"/>
</g>
<path d="M35.18 30.5718H52.84V32.3918H35.18V30.5718ZM41.52 36.9718H52.04V38.7318H41.52V36.9718ZM40.74 43.9318H52.8V45.6918H40.74V43.9318ZM45.84 33.3518H47.74V44.8718H45.84V33.3518ZM41.64 27.6118L43.6 28.0918C42.16 32.7718 39.68 37.5118 35.58 40.3918C35.38 39.8718 34.92 39.0518 34.62 38.6118C38.24 36.1518 40.54 31.6918 41.64 27.6118ZM37.66 35.9118H39.56V46.1318H37.66V35.9118ZM55.86 31.3118H72.18V33.2118H55.86V31.3118ZM54.98 43.4718H73.02V45.3718H54.98V43.4718ZM58.52 34.5318L60.4 34.0718C61.2 36.7118 62 40.0118 62.34 42.2518L60.32 42.7718C60.04 40.5518 59.24 37.1118 58.52 34.5318ZM67.6 34.1118L69.72 34.4918C68.84 37.8118 67.56 41.7918 66.48 44.2718L64.62 43.8318C65.72 41.3318 66.96 37.1318 67.6 34.1118ZM62.36 27.9318L64.22 27.4518C64.64 28.4718 65.08 29.7918 65.3 30.6518L63.34 31.2318C63.16 30.3518 62.74 28.9718 62.36 27.9318ZM75.88 29.2118L76.94 27.8318C78.22 28.3518 79.9 29.2318 80.74 29.8918L79.64 31.4718C78.86 30.7718 77.2 29.8118 75.88 29.2118ZM74.76 34.6318L75.78 33.2118C77.04 33.7118 78.7 34.5718 79.54 35.2318L78.48 36.7918C77.7 36.1318 76.06 35.1918 74.76 34.6318ZM75.46 44.6518C76.52 43.1318 78.08 40.5518 79.26 38.2718L80.64 39.5118C79.58 41.6318 78.24 44.0318 77.06 45.9318L75.46 44.6518ZM85.78 27.6118H87.7V37.0918H85.78V27.6118ZM80.78 35.9118H92.78V37.7118H80.78V35.9118ZM81.64 30.8518H92V32.6518H81.64V30.8518ZM88.02 40.3518L89.54 39.6118C90.94 41.3718 92.42 43.7118 93 45.3118L91.32 46.1718C90.82 44.6118 89.38 42.1518 88.02 40.3518ZM81.82 45.5918L81.76 44.0918L82.76 43.4518L90.62 42.5918C90.6 43.0918 90.66 43.8318 90.74 44.2318C83.38 45.1518 82.42 45.3118 81.82 45.5918ZM81.82 45.5918C81.72 45.1718 81.4 44.2318 81.16 43.6918C81.6 43.5918 81.98 43.1318 82.46 42.3918C82.96 41.6918 84.58 38.9118 85.5 36.2918L87.52 36.9518C86.32 39.7318 84.64 42.5518 83.1 44.5118V44.5518C83.1 44.5518 81.82 45.2118 81.82 45.5918ZM103.3 33.6718H111.44V35.3118H103.3V33.6718ZM101.76 37.2518H113.16V38.9518H101.76V37.2518ZM101.7 30.0318H113.04V33.7718H111.24V31.6918H103.46V33.7718H101.7V30.0318ZM104.46 38.0518H106.28C106.04 42.0918 105.26 44.7318 101.1 46.1718C100.92 45.7118 100.42 45.0118 100.02 44.6518C103.7 43.5118 104.24 41.4318 104.46 38.0518ZM107.98 38.0118H109.78V43.6918C109.78 44.2318 109.82 44.3118 110.2 44.3118C110.36 44.3118 111.12 44.3118 111.32 44.3118C111.7 44.3118 111.8 43.9918 111.84 41.8318C112.2 42.1318 112.94 42.4118 113.42 42.5318C113.28 45.2118 112.82 45.9318 111.52 45.9318C111.2 45.9318 110.2 45.9318 109.9 45.9318C108.34 45.9318 107.98 45.3918 107.98 43.7118V38.0118ZM105.64 27.9718L107.4 27.4318C107.9 28.2518 108.42 29.3318 108.66 30.0318L106.82 30.6718C106.62 29.9318 106.12 28.7918 105.64 27.9718ZM95.48 28.4318H100.1V30.1318H97.16V46.1318H95.48V28.4318ZM99.66 28.4318H99.98L100.26 28.3518L101.48 29.0718C100.94 30.7318 100.24 32.7118 99.6 34.2918C100.96 35.9318 101.26 37.3518 101.26 38.5718C101.26 39.7518 101.02 40.6118 100.42 41.0518C100.12 41.2718 99.76 41.3918 99.34 41.4518C98.94 41.5118 98.46 41.5118 98 41.4918C98 41.0318 97.84 40.3118 97.56 39.8518C97.98 39.8718 98.32 39.8918 98.6 39.8718C98.82 39.8518 99.04 39.8118 99.2 39.6918C99.46 39.4918 99.58 38.9918 99.58 38.3918C99.58 37.3518 99.26 35.9918 97.96 34.4918C98.62 32.6918 99.3 30.2518 99.66 28.9518V28.4318ZM116.08 32.0918H131.06V33.9518H118V46.1918H116.08V32.0918ZM130.1 32.0918H132.02V43.8718C132.02 44.9718 131.8 45.5318 131.06 45.8518C130.28 46.1518 129.08 46.1718 127.38 46.1718C127.3 45.6318 127 44.7718 126.72 44.2518C127.96 44.2918 129.26 44.2918 129.64 44.2718C130 44.2718 130.1 44.1518 130.1 43.8518V32.0918ZM119.62 28.4718H123.98V30.1518H119.62V28.4718ZM122.72 28.4718H124.78C125 33.9718 126.3 38.0918 130.14 39.8318C129.72 40.2118 129.08 40.9718 128.78 41.4718C124.8 39.3318 123.36 34.9518 123.08 29.3718H122.72V28.4718ZM122.9 32.5518L124.66 32.8518C123.98 37.0118 122.34 39.9318 119.16 41.5918C118.9 41.1518 118.28 40.4118 117.88 40.0918C120.78 38.6918 122.38 36.1718 122.9 32.5518ZM134.54 38.0518C136.16 37.6518 138.56 36.9518 140.88 36.2718L141.14 37.9918C139.02 38.6518 136.74 39.3518 135 39.8918L134.54 38.0518ZM134.74 31.4718H141.12V33.2318H134.74V31.4718ZM137.16 27.6318H139V43.9518C139 44.9318 138.8 45.4518 138.24 45.7518C137.68 46.0718 136.86 46.1318 135.56 46.1318C135.52 45.6318 135.28 44.8318 135.04 44.2918C135.84 44.3118 136.58 44.3118 136.82 44.2918C137.06 44.2918 137.16 44.2318 137.16 43.9518V27.6318ZM143.18 35.1318H152.48V36.8118H143.18V35.1318ZM143.22 39.0918H152.46V40.7718H143.22V39.0918ZM143.28 43.1318H153.18V44.8718H143.28V43.1318ZM144.04 27.7318L145.82 28.2118C144.72 31.4718 143 34.7318 141.16 36.8318C140.86 36.4918 140.18 35.7718 139.78 35.4518C141.56 33.6118 143.12 30.6918 144.04 27.7318ZM144.44 31.1518H152.76V32.8718H144.44V46.1918H142.62V32.6318L144.08 31.1518H144.44ZM147.42 32.0518H149.2V44.0518H147.42V32.0518ZM146.82 28.4118L148.46 27.7718C149.04 28.6718 149.62 29.8518 149.88 30.6318L148.18 31.3718C147.94 30.5718 147.36 29.3318 146.82 28.4118ZM163.58 30.8718H172.58V32.4118H163.58V42.2318H161.86V32.4318L163.34 30.8718H163.58ZM162.68 34.1318H171.94V35.5918H162.68V34.1318ZM162.76 37.3518H171.96V38.8318H162.76V37.3518ZM162.7 40.6518H172.98V42.2318H162.7V40.6518ZM166.72 31.4918H168.36V41.4518H166.72V31.4918ZM163.4 27.7518L164.96 28.1918C163.92 31.1318 162.26 34.0918 160.48 35.9918C160.3 35.6518 159.8 34.8318 159.5 34.4718C161.08 32.8318 162.52 30.2918 163.4 27.7518ZM166.24 28.3518L167.8 27.8918C168.38 28.8718 169.02 30.2118 169.24 31.0518L167.6 31.5718C167.38 30.7318 166.8 29.3718 166.24 28.3518ZM155.52 28.4918L156.94 27.6318C157.86 28.5918 158.98 29.8518 159.54 30.6718L158.1 31.7118C157.56 30.8718 156.42 29.4718 155.52 28.4918ZM154.9 32.2518H159.22V33.7918H154.9V32.2518ZM158.68 41.2118C159.84 43.8718 162.34 44.2118 166.16 44.2318C168.26 44.2318 171.36 44.1118 173.5 43.9318C173.24 44.3118 172.98 45.1918 172.88 45.7118C170.92 45.8318 168.38 45.8718 166.12 45.8718C161.46 45.8718 158.9 45.2918 157.42 41.7718L158.68 41.2118ZM158.62 37.1918H159.06L159.38 37.1518L160.3 37.4918C159.62 41.8318 157.96 44.7118 155.68 46.2118C155.44 45.8518 154.82 45.1918 154.46 44.9318C156.6 43.6118 158.08 41.0918 158.62 37.4918V37.1918ZM155.22 38.9718V37.5918L156 37.1918H159.2L159.18 38.6918H156.42C155.92 38.6918 155.38 38.8118 155.22 38.9718ZM155.22 38.9718C155.1 38.5718 154.74 37.7318 154.56 37.3718C154.88 37.2918 155.2 37.1518 155.56 36.7518C156.18 36.1518 158.08 33.5118 158.76 32.4318V32.3718L159.28 32.1518L160.48 32.7118C159.52 34.0718 157.7 36.5918 156.56 37.8918C156.56 37.8918 155.22 38.5318 155.22 38.9718ZM180.28 29.9118H193V31.3718H180.28V29.9118ZM181.8 35.1518H191.3V36.5318H181.8V35.1518ZM181.8 32.5518H191.3V33.9118H181.8V32.5518ZM183.36 39.1718V41.3118H189.56V39.1718H183.36ZM181.58 37.7918H191.44V42.7118H181.58V37.7918ZM184.7 28.0318L186.44 27.3518C186.96 27.9718 187.6 28.8918 187.92 29.4718L186.08 30.2318C185.82 29.6518 185.2 28.7118 184.7 28.0318ZM175.52 28.4918L176.94 27.6318C177.86 28.5918 178.98 29.8518 179.54 30.6718L178.1 31.7118C177.56 30.8718 176.42 29.4718 175.52 28.4918ZM174.9 32.2518H179.22V33.7918H174.9V32.2518ZM178.68 41.2118C179.84 43.8718 182.34 44.2118 186.16 44.2318C188.26 44.2318 191.36 44.1118 193.5 43.9318C193.24 44.3118 192.98 45.1918 192.88 45.7118C190.92 45.8318 188.38 45.8718 186.12 45.8718C181.46 45.8718 178.9 45.2918 177.42 41.7718L178.68 41.2118ZM178.62 37.1918H179.06L179.38 37.1518L180.3 37.4918C179.62 41.8318 177.96 44.7118 175.68 46.2118C175.44 45.8518 174.82 45.1918 174.46 44.9318C176.6 43.6118 178.08 41.0918 178.62 37.4918V37.1918ZM175.22 38.9718V37.5918L176 37.1918H179.2L179.18 38.6918H176.42C175.92 38.6918 175.38 38.8118 175.22 38.9718ZM175.22 38.9718C175.1 38.5718 174.74 37.7318 174.56 37.3718C174.88 37.2918 175.2 37.1518 175.56 36.7518C176.18 36.1518 178.08 33.5118 178.76 32.4318V32.3718L179.28 32.1518L180.48 32.7118C179.52 34.0718 177.7 36.5918 176.56 37.8918C176.56 37.8918 175.22 38.5318 175.22 38.9718ZM197.32 39.5518H210.88V41.3718H197.32V39.5518ZM195.04 43.8518H212.98V45.7318H195.04V43.8518ZM200.06 30.8718H204.04V32.5718H200.06V30.8718ZM204.94 27.6118H206.82V35.3318C206.82 36.0518 206.96 36.1918 207.8 36.1918C208.16 36.1918 210.02 36.1918 210.54 36.1918C211.24 36.1918 211.36 35.8318 211.44 33.8518C211.86 34.1518 212.64 34.4718 213.18 34.5918C212.96 37.2118 212.42 37.9718 210.68 37.9718C210.22 37.9718 207.98 37.9718 207.56 37.9718C205.46 37.9718 204.94 37.3718 204.94 35.3318V27.6118ZM194.74 36.7118C197.12 36.4918 200.74 36.0918 204.18 35.6918L204.22 37.4318C200.92 37.8518 197.42 38.2718 194.96 38.5718L194.74 36.7118ZM199.24 27.6118H201.1V36.7718L199.24 36.9318V27.6118ZM195.98 29.7518H197.72V37.0518L195.98 37.2118V29.7518ZM205.9 30.8918H211.82V32.5918H205.9V30.8918ZM214.94 28.9318H224.14V30.7518H214.94V28.9318ZM219.94 34.7518H223.48V36.5518H219.94V34.7518ZM219.1 29.9118H220.94V42.5118H219.1V29.9118ZM215.68 33.5118H217.4V42.9918H215.68V33.5118ZM214.54 42.4918C216.92 42.0718 220.64 41.2718 224.12 40.5118L224.3 42.2518C220.98 43.0318 217.42 43.8318 214.9 44.3918L214.54 42.4918ZM225.54 31.3118H233.26V33.0718H225.54V31.3118ZM226.14 27.6118L228.02 27.9118C227.3 31.7118 226.06 35.2718 224.32 37.5718C224.02 37.2118 223.26 36.5718 222.82 36.2718C224.5 34.2518 225.56 31.0118 226.14 27.6118ZM230.14 32.3118L232.02 32.4918C231.06 39.3718 228.96 43.6518 223.96 46.2318C223.78 45.7918 223.22 44.9718 222.86 44.5718C227.52 42.4118 229.38 38.4718 230.14 32.3118ZM226.42 32.7918C227.36 38.1918 229.4 42.6918 233.44 44.5718C233.02 44.9518 232.44 45.6718 232.14 46.1718C227.86 43.9118 225.84 39.1918 224.74 33.0918L226.42 32.7918ZM235.3 33.3718H252.64V35.0118H235.3V33.3718ZM243.14 32.1718H245.16V46.1718H243.14V32.1718ZM236.68 36.3118H250.6V37.9318H238.68V41.6518H236.68V36.3118ZM249.62 36.3118H251.56V39.9118C251.56 40.7318 251.4 41.1318 250.78 41.3718C250.18 41.6318 249.32 41.6318 248.18 41.6318C248.06 41.1518 247.76 40.5518 247.56 40.1518C248.3 40.1918 249.08 40.1918 249.32 40.1718C249.54 40.1718 249.62 40.1118 249.62 39.9118V36.3118ZM243.32 39.2918L244.76 39.8518C242.86 42.5518 239.5 44.6118 236 45.5918C235.74 45.1118 235.22 44.3918 234.8 43.9918C238.26 43.2518 241.64 41.4718 243.32 39.2918ZM244.68 39.2518C246.14 41.0718 249.52 43.0318 253.42 43.8118C253.04 44.2318 252.48 44.9918 252.22 45.4718C248.38 44.4918 245.2 42.1718 243.68 40.2318L244.68 39.2518ZM237.46 28.9318H243.82V30.4318H237.46V28.9318ZM245.76 28.9518H253.16V30.4318H245.76V28.9518ZM237.76 27.4518L239.44 27.9318C238.66 29.8518 237.36 31.7918 236.1 33.0518C235.82 32.7118 235.18 32.0718 234.8 31.7718C236 30.6918 237.12 29.0918 237.76 27.4518ZM246.02 27.4518L247.76 27.8918C247.14 29.5918 246.06 31.2718 244.94 32.3318C244.62 32.0318 243.92 31.4518 243.5 31.2118C244.6 30.2918 245.52 28.8918 246.02 27.4518ZM238.88 31.0518L240.02 30.0718C240.72 30.6518 241.6 31.4718 242.04 32.0318L240.82 33.1118C240.42 32.5318 239.56 31.6718 238.88 31.0518ZM247.6 31.1318L248.82 30.1318C249.54 30.6718 250.46 31.4518 250.94 31.9718L249.66 33.0918C249.22 32.5318 248.32 31.7118 247.6 31.1318ZM262.34 40.9718L261.8 39.6718C263.46 39.0718 264.36 38.0718 264.36 36.7118L264.08 34.9118L265.18 36.5518C264.88 36.8718 264.48 36.9918 264.06 36.9918C263.16 36.9918 262.38 36.4318 262.38 35.4118C262.38 34.3918 263.18 33.8118 264.1 33.8118C265.34 33.8118 266 34.7918 266 36.3118C266 38.5118 264.6 40.2518 262.34 40.9718ZM284.66 37.3118H292.34V38.7318H284.66V37.3118ZM284.66 40.5318H292.34V41.9718H284.66V40.5318ZM284.66 43.7718H293.12V45.3518H284.66V43.7718ZM281.98 29.5918H292.82V33.0518H291.1V31.1918H283.6V33.1118H281.98V29.5918ZM287.94 35.2318H289.68V44.5718H287.94V35.2318ZM285.28 33.9718H292.58V35.5718H285.28V46.1918H283.5V35.6318L285.12 33.9718H285.28ZM286.94 27.5718L288.72 27.9318C287.5 32.2118 285.36 35.6918 282.28 37.8918C282.08 37.4918 281.54 36.6518 281.18 36.2718C284 34.4118 285.92 31.3118 286.94 27.5718ZM287.46 32.3718L289.02 31.7718C289.48 32.5518 289.96 33.5918 290.18 34.2518L288.54 34.9718C288.32 34.2718 287.86 33.1718 287.46 32.3718ZM274.96 28.9918H281.58V30.7318H274.96V28.9918ZM277 34.8918H281.4V43.6718H277V42.0318H279.76V36.5518H277V34.8918ZM277.38 29.6718L279.16 29.9518C278.52 34.0718 277.4 38.0118 275.46 40.5518C275.28 40.1318 274.76 39.2118 274.42 38.8118C276.02 36.6518 276.9 33.2518 277.38 29.6718ZM276.34 34.8918H277.94V45.2118H276.34V34.8918ZM45.82 64.5718H47.72V76.1918H45.82V64.5718ZM40.24 67.2518H53.18V68.9718H40.24V67.2518ZM43.44 60.2118V63.4518H50.2V60.2118H43.44ZM41.64 58.5318H52.1V65.1318H41.64V58.5318ZM39.34 57.6718L41.1 58.2318C39.76 61.6118 37.64 65.0718 35.44 67.3118C35.26 66.8718 34.74 65.8518 34.4 65.4118C36.34 63.5518 38.22 60.6318 39.34 57.6718ZM37.22 62.9918L39.02 61.1918L39.04 61.2118V76.1318H37.22V62.9918ZM42.96 69.7918L44.66 70.3118C43.78 72.0318 42.48 73.9918 41.4 75.2318C41.06 74.9518 40.36 74.4318 39.92 74.1918C41.02 73.0318 42.2 71.3318 42.96 69.7918ZM48.64 70.5718L50.06 69.7918C51.28 71.1518 52.66 72.9718 53.32 74.1718L51.8 75.1118C51.18 73.8918 49.82 71.9518 48.64 70.5718ZM59.26 63.0518H69.42V64.7318H59.26V63.0518ZM57.84 71.8718H72.46V73.5518H57.84V71.8718ZM58.54 59.5518H72.52V61.2518H58.54V59.5518ZM68.66 63.0518H70.54C70.54 63.0518 70.52 63.6918 70.52 63.9318C70.28 71.8518 70 74.4718 69.36 75.3118C68.96 75.8918 68.48 76.0718 67.84 76.1518C67.22 76.2118 66.22 76.2118 65.2 76.1518C65.18 75.7318 65 75.0918 64.76 74.6718C65.72 74.7518 66.58 74.7718 66.98 74.7518C67.34 74.7518 67.52 74.7118 67.7 74.4518C68.2 73.8318 68.46 71.0518 68.66 63.4518V63.0518ZM58.36 63.0518H60.26C59.86 66.4918 59.26 70.9318 58.78 73.5318H56.84C57.38 70.8518 58.04 66.3918 58.36 63.0518ZM59.3 57.4918L61.2 58.0518C59.96 60.7918 58.12 63.5118 56.38 65.2718C55.98 64.9518 55.16 64.4118 54.68 64.1518C56.52 62.5718 58.26 60.0118 59.3 57.4918ZM61.8 65.5918L62.86 64.5518C64.08 65.0918 65.58 65.9718 66.34 66.6718L65.22 67.8118C64.5 67.1118 63.04 66.1518 61.8 65.5918ZM61.4 69.8718L62.44 68.8318C63.72 69.4318 65.28 70.4118 66.06 71.1518L64.96 72.3118C64.22 71.5518 62.68 70.5118 61.4 69.8718ZM54.78 67.4118H58.72V67.4718H69.46V67.4118H73.24V69.1118H69.46V69.0518H58.72V69.1118H54.78V67.4118ZM74.82 65.6718H93.22V67.7318H74.82V65.6718ZM98.68 62.3918H110.96V63.6318H98.68V62.3918ZM98.68 64.7318H110.96V65.9918H98.68V64.7318ZM103.62 60.5118H105.44V67.8118H103.62V60.5118ZM99.18 57.5518L100.94 58.1118C99.72 60.7318 97.8 63.2318 95.92 64.8518C95.6 64.5118 94.92 63.8318 94.5 63.5318C96.38 62.1318 98.14 59.8718 99.18 57.5518ZM95.82 69.5918H109.14V71.0918H95.82V69.5918ZM108.78 69.5918H109.18L109.5 69.5118L110.66 70.2118C107.92 74.1918 101.76 75.6718 95.62 76.1918C95.5 75.7118 95.2 74.9518 94.92 74.5318C100.74 74.1918 106.6 72.8918 108.78 69.8318V69.5918ZM100.1 70.4518C102.44 72.8318 107.46 74.0718 112.94 74.4318C112.56 74.8318 112.12 75.5918 111.9 76.0718C106.32 75.5918 101.36 74.0918 98.54 71.1918L100.1 70.4518ZM103.22 58.1318L104.96 57.6318C105.42 58.4518 105.96 59.5518 106.22 60.2318L104.36 60.8118C104.16 60.0918 103.66 58.9718 103.22 58.1318ZM97.92 67.1118H112.04V68.5118H97.92V67.1118ZM99.22 59.8518H111.64V61.2918H99.22V69.0518H97.46V60.8918L98.46 59.8518H99.22ZM123.64 69.0518H131.82V70.6318H123.64V69.0518ZM123.62 73.2918H131.86V74.9518H123.62V73.2918ZM124.38 57.7918H126.14V64.1118H124.38V57.7918ZM129.26 57.7918H131.04V64.1118H129.26V57.7918ZM126.84 65.7318H128.48V74.1918H126.84V65.7318ZM122.9 64.8718H132.44V75.9918H130.64V66.5318H124.62V76.1518H122.9V64.8718ZM118.12 64.5318L119.36 63.7718C122.44 67.0718 122.38 73.5718 120.96 75.0918C120.42 75.7718 119.82 75.9918 118.98 76.0118C118.6 76.0118 118.02 76.0118 117.52 75.9718C117.48 75.4918 117.36 74.7918 117.12 74.3118C117.68 74.3718 118.26 74.4118 118.6 74.4118C119.04 74.4118 119.34 74.3318 119.64 73.9318C120.56 72.9518 120.78 67.4318 118.12 64.5318ZM119.58 66.0318L120.7 66.7918C119.5 68.0318 117.32 69.5518 115.68 70.3918C115.48 69.9918 115.1 69.3918 114.78 69.0518C116.38 68.4118 118.52 67.1318 119.58 66.0318ZM120.46 68.4918L121.6 69.2918C120.18 71.0718 117.58 73.1118 115.44 74.2118C115.24 73.7918 114.86 73.1718 114.52 72.8318C116.6 71.9718 119.18 70.1318 120.46 68.4918ZM115.38 62.2918L116.62 61.6518C117.2 62.4518 117.88 63.5518 118.14 64.2518L116.82 65.0118C116.58 64.2718 115.94 63.1318 115.38 62.2918ZM118.24 61.1518L119.46 60.4918C119.92 61.1718 120.48 62.0718 120.7 62.6718L119.42 63.4118C119.2 62.8118 118.7 61.8518 118.24 61.1518ZM121.52 61.2318L122.62 62.2918C120.96 64.1318 118.34 65.7318 115.78 66.8518C115.58 66.4918 115.18 65.9118 114.86 65.6118C117.4 64.5518 120.04 62.8918 121.52 61.2318ZM120.68 57.7118L121.7 58.8518C120.22 59.9318 117.8 60.8118 115.6 61.3718C115.4 60.9718 115.06 60.3518 114.72 60.0118C116.86 59.5318 119.3 58.6118 120.68 57.7118ZM122.34 60.0318H127.34V61.7918H122.34V60.0318ZM128.04 60.0518H133.3V61.7918H128.04V60.0518ZM136.48 59.1718H141.26V72.2318H136.48V70.4718H139.5V60.8918H136.48V59.1718ZM135.48 59.1718H137.24V74.1518H135.48V59.1718ZM146.4 57.6318H148.22V76.1718H146.4V57.6318ZM141.92 65.0518H153.18V66.8118H141.92V65.0518ZM144.32 67.9518L145.78 68.3518C145.08 71.2918 143.8 74.2518 142.22 75.8918C141.92 75.4518 141.34 74.8318 140.94 74.4918C142.4 73.1518 143.68 70.4918 144.32 67.9518ZM150.84 58.8518L152.8 59.5118C152.02 61.2118 151.12 63.1918 150.4 64.4518L148.98 63.8718C149.62 62.5318 150.44 60.3918 150.84 58.8518ZM142 59.6318L143.5 58.9518C144.34 60.4518 145.16 62.3918 145.44 63.6318L143.8 64.4118C143.54 63.1518 142.78 61.1518 142 59.6318ZM148.92 68.6518L150.4 67.9118C151.6 70.1718 152.94 73.1118 153.46 74.9118L151.86 75.8118C151.38 73.9518 150.1 70.9318 148.92 68.6518ZM155.7 59.8518H162.66V61.5118H155.7V59.8518ZM157.92 73.4318H163.28V74.9918H157.92V73.4318ZM157.92 70.1718H163.32V71.6318H157.92V70.1718ZM154.8 63.5718H165.1V65.2318H154.8V63.5718ZM158.58 57.7718H160.34V64.6518H158.58V57.7718ZM163.86 58.3918L165.58 58.8918C163.46 63.9918 159.92 67.9318 155.46 70.3518C155.24 69.9518 154.68 69.1718 154.34 68.7918C158.66 66.6918 162 63.0718 163.86 58.3918ZM158.52 66.9718H163.24V68.5118H158.52V76.1118H156.8V68.0718L157.84 66.9718H158.52ZM162.48 66.9718H164.3V75.8318H162.48V66.9718ZM165.86 58.7518H171.8V60.5318H167.72V76.1718H165.86V58.7518ZM171.34 58.7518H171.7L172 58.6718L173.36 59.5318C172.58 61.4318 171.58 63.7318 170.68 65.5518C172.6 67.3718 173.06 68.9518 173.06 70.3318C173.06 71.6918 172.76 72.6318 172 73.1318C171.62 73.3918 171.14 73.5518 170.62 73.6118C170.1 73.6718 169.42 73.6918 168.8 73.6518C168.78 73.1318 168.58 72.3118 168.28 71.8118C168.86 71.8518 169.38 71.8718 169.78 71.8518C170.12 71.8318 170.44 71.7718 170.68 71.6318C171.1 71.3918 171.24 70.8518 171.24 70.1518C171.24 68.9518 170.68 67.4518 168.78 65.7918C169.74 63.7718 170.78 60.9118 171.34 59.3718V58.7518ZM181.52 64.7718H183.32V74.2918C183.32 75.1518 183.14 75.5918 182.56 75.8518C181.98 76.0918 181.08 76.1118 179.84 76.1118C179.76 75.6718 179.5 75.0318 179.26 74.6118C180.1 74.6518 180.92 74.6318 181.18 74.6318C181.46 74.6318 181.52 74.5518 181.52 74.2918V64.7718ZM176.94 64.7718H182.5V66.3718H176.94V64.7718ZM184.98 66.9918H186.86V73.5518C186.86 74.2518 187.02 74.3518 187.9 74.3518C188.28 74.3518 190.22 74.3518 190.76 74.3518C191.52 74.3518 191.66 74.0118 191.76 71.9718C192.16 72.2718 192.92 72.5718 193.44 72.6718C193.2 75.2918 192.68 76.0318 190.92 76.0318C190.44 76.0318 188.12 76.0318 187.66 76.0318C185.54 76.0318 184.98 75.4718 184.98 73.5718V66.9918ZM180.56 59.6518L182.1 59.0718C183.02 60.4918 184.12 62.4118 184.62 63.6118L182.98 64.3118C182.54 63.0918 181.46 61.1118 180.56 59.6518ZM186.12 60.2518H192.06V61.8918H186.12V60.2518ZM186.14 69.2118H192.26V70.9118H186.14V69.2118ZM175.82 63.7918C175.72 63.4118 175.42 62.5318 175.22 62.0518C175.56 61.9718 175.9 61.6918 176.3 61.2518C176.7 60.8118 177.98 59.2118 178.78 57.6118L180.7 58.2118C179.62 59.9518 178.18 61.7318 176.92 62.8518V62.8718C176.92 62.8718 175.82 63.4318 175.82 63.7918ZM175.82 63.7918L175.76 62.4118L176.7 61.8518L182.96 61.3918C183.02 61.8718 183.18 62.5118 183.3 62.8918C177.18 63.4518 176.36 63.5718 175.82 63.7918ZM176.04 64.7718H177.78V69.5318C177.78 71.6118 177.54 74.4118 176.14 76.2318C175.88 75.8718 175.18 75.1918 174.82 74.9518C175.94 73.3918 176.04 71.2318 176.04 69.5118V64.7718ZM177.48 72.1718C178.64 71.6518 180.34 70.7718 182.04 69.9118L182.4 71.0718C180.92 72.0318 179.4 72.9918 178.08 73.7718L177.48 72.1718ZM177.78 68.1518L178.76 67.2718C179.72 67.8718 180.98 68.7518 181.64 69.2918L180.62 70.3118C180 69.7318 178.74 68.8118 177.78 68.1518ZM184.98 57.6518H186.86V63.7518C186.86 64.4718 187 64.7318 187.64 64.7318C188.18 64.7318 190.44 64.7318 191.02 64.7318C191.54 64.7318 192.36 64.6918 192.78 64.5918C192.8 65.0918 192.88 65.7918 192.94 66.2318C192.58 66.3318 191.8 66.3718 191.06 66.3718C190.48 66.3718 188.04 66.3718 187.6 66.3718C185.56 66.3718 184.98 65.6518 184.98 63.6918V57.6518ZM203.96 62.2318V63.6118H209.98V62.2318H203.96ZM203.96 59.5918V60.9318H209.98V59.5918H203.96ZM202.14 58.2118H211.88V64.9918H202.14V58.2118ZM201 66.1518H212.7V67.7118H201V66.1518ZM200.52 69.1718H213.08V70.8118H200.52V69.1718ZM208.28 67.5118H210.18V74.2118C210.18 75.1518 210 75.6318 209.32 75.8918C208.66 76.1718 207.68 76.1918 206.24 76.1918C206.16 75.6718 205.88 74.9718 205.64 74.4918C206.64 74.5318 207.62 74.5318 207.9 74.5118C208.2 74.4918 208.28 74.4118 208.28 74.1718V67.5118ZM202.08 71.8118L203.4 70.9318C204.3 71.7318 205.38 72.8918 205.9 73.6518L204.48 74.6718C204 73.8918 202.96 72.6718 202.08 71.8118ZM199.28 62.0518L200.94 62.7318C199.54 65.1518 197.32 67.6718 195.28 69.2718C195.14 68.8718 194.64 67.8318 194.34 67.3918C196.14 66.0918 198.08 64.0718 199.28 62.0518ZM198.84 57.6518L200.64 58.3718C199.38 60.1518 197.42 62.0718 195.58 63.2718C195.38 62.8318 194.92 62.0718 194.62 61.6918C196.18 60.6918 197.98 59.0318 198.84 57.6518ZM197.4 65.9918L199.16 64.2318L199.24 64.2718V76.1718H197.4V65.9918ZM215.82 68.0318H225.26V69.6918H215.82V68.0318ZM219.64 66.0318H221.44V73.9318H219.64V66.0318ZM215.14 73.5118C217.7 73.1318 221.72 72.4318 225.48 71.7518L225.58 73.3918C222.04 74.0718 218.22 74.7918 215.56 75.2918L215.14 73.5118ZM215.32 58.8718H225.68V60.5318H215.32V58.8718ZM221.36 61.6918L222.72 60.8718C223.82 62.2118 225.12 64.0318 225.66 65.1918L224.22 66.1318C223.68 64.9518 222.44 63.0718 221.36 61.6918ZM226.66 59.4118H228.4V71.5318H226.66V59.4118ZM230.56 57.8918H232.4V73.5518C232.4 74.6318 232.16 75.1518 231.5 75.4518C230.8 75.7518 229.72 75.8118 228.22 75.8118C228.12 75.3118 227.82 74.4718 227.54 73.9718C228.66 74.0118 229.76 74.0118 230.1 73.9918C230.46 73.9918 230.56 73.8918 230.56 73.5518V57.8918ZM216.36 65.8518C216.24 65.4718 215.96 64.5918 215.74 64.1118C216.06 64.0318 216.36 63.7118 216.7 63.2318C217.04 62.7718 218.1 61.0318 218.7 59.3118L220.54 60.0318C219.72 61.7718 218.52 63.6318 217.44 64.8718V64.9118C217.44 64.9118 216.36 65.4718 216.36 65.8518ZM216.36 65.8518L216.32 64.5118L217.24 63.9518L223.68 63.4518C223.9 63.9318 224.24 64.5518 224.46 64.9318C217.76 65.5318 216.92 65.6118 216.36 65.8518ZM246.24 57.6718H247.94V71.5918H246.24V57.6718ZM239.4 65.7318L251.3 61.0918L252.02 62.7318L240.12 67.4118L239.4 65.7318ZM241.9 59.7318H243.7V72.8918C243.7 74.0718 243.92 74.2918 245.3 74.2918C245.98 74.2918 249.28 74.2918 250.08 74.2918C251.3 74.2918 251.5 73.7718 251.66 71.4518C252.1 71.7518 252.84 72.0718 253.36 72.1718C253.08 75.0518 252.5 75.9918 250.18 75.9918C249.56 75.9918 245.8 75.9918 245.22 75.9918C242.66 75.9918 241.9 75.3718 241.9 72.8918V59.7318ZM239.1 57.6918L240.9 58.2518C239.58 61.6518 237.52 65.1318 235.36 67.3918C235.18 66.9318 234.64 65.9118 234.32 65.4718C236.22 63.5918 238.04 60.6518 239.1 57.6918ZM237.04 63.0118L238.82 61.2118L238.84 61.2318V76.1518H237.04V63.0118ZM250.76 61.5318H250.54L251.24 61.0118L252.66 61.4718L252.6 61.7718C252.52 64.6718 252.3 68.4918 251.9 70.9118L250.36 70.4718C250.62 68.2718 250.74 64.3918 250.76 61.5318ZM261.4 61.7118H265.2V63.1118H261.4V61.7118ZM267.6 61.7118H271.44V63.1118H267.6V61.7118ZM270.86 58.7318H272.66V73.8718C272.66 74.9918 272.42 75.5318 271.68 75.8118C270.94 76.1318 269.72 76.1518 267.84 76.1518C267.76 75.6518 267.46 74.8118 267.2 74.3318C268.54 74.3918 269.94 74.3718 270.34 74.3518C270.72 74.3518 270.86 74.2318 270.86 73.8518V58.7318ZM260.3 58.7318H262.06V76.1318H260.3V58.7318ZM261.5 58.7318H265.82V66.1918H261.5V64.7318H264.36V60.2118H261.5V58.7318ZM271.76 58.7318V60.2118H268.4V64.7318H271.76V66.1918H266.88V58.7318H271.76ZM258.44 57.6918L260.2 58.1918C259.06 61.6718 257.24 65.3118 255.24 67.6718C255.08 67.2118 254.6 66.1718 254.3 65.6718C255.98 63.7318 257.52 60.7118 258.44 57.6918ZM256.84 62.8518L258.6 61.1118L258.64 61.1518V76.1718H256.84V62.8518ZM284.22 64.5718H291.94V65.5718H284.22V64.5718ZM284.22 66.5318H291.98V67.5318H284.22V66.5318ZM283.62 68.5318H292.78V69.7318H283.62V68.5318ZM281.08 60.6918L282.64 61.1518C281.62 63.2118 280.06 65.2518 278.56 66.5718C278.32 66.2918 277.72 65.6518 277.38 65.3718C278.82 64.2118 280.24 62.4518 281.08 60.6918ZM284.32 60.6318L285.88 61.0718C285.04 62.9918 283.72 64.9518 282.46 66.2118C282.18 65.9318 281.54 65.3918 281.18 65.1518C282.44 64.0318 283.62 62.3318 284.32 60.6318ZM287.6 62.9918H289.2V68.9718H287.6V62.9918ZM282.22 71.4718H283.94V73.9918C283.94 74.4518 284.08 74.5318 284.84 74.5318C285.2 74.5318 286.94 74.5318 287.4 74.5318C288.02 74.5318 288.14 74.3318 288.2 72.9118C288.56 73.1718 289.28 73.4118 289.74 73.5318C289.56 75.5518 289.06 76.0518 287.58 76.0518C287.18 76.0518 285.04 76.0518 284.64 76.0518C282.68 76.0518 282.22 75.5918 282.22 74.0118V71.4718ZM283.96 70.9118L285.06 69.8718C286.2 70.3918 287.62 71.2118 288.34 71.8518L287.18 72.9918C286.5 72.3518 285.12 71.4518 283.96 70.9118ZM288.98 71.7918L290.38 71.1118C291.5 72.2518 292.7 73.8318 293.18 74.9518L291.68 75.7118C291.22 74.6318 290.08 72.9718 288.98 71.7918ZM279.72 71.3318L281.24 71.8918C280.8 73.2918 280.12 74.8118 278.96 75.7718L277.52 74.8518C278.56 74.0118 279.32 72.6118 279.72 71.3318ZM284.62 62.4718H292.48V63.6518H283.78L284.62 62.4718ZM283.24 63.8718L284.82 62.5518V70.3318H283.24V63.8718ZM277.1 59.1118H293.08V60.6718H277.1V59.1118ZM276.08 59.1118H277.82V65.0718C277.82 68.2518 277.56 73.0718 275.94 76.2118C275.64 75.8718 274.88 75.2918 274.5 75.1118C275.96 72.1918 276.08 68.0318 276.08 65.0718V59.1118ZM279.82 64.0918L281.4 62.5118L281.42 62.5318V70.3318H279.82V64.0918ZM283.16 57.7718L284.82 57.2518C285.38 57.9918 285.96 58.9918 286.2 59.6918L284.46 60.2918C284.24 59.5918 283.7 58.5318 283.16 57.7718ZM286.94 61.1518L288.28 60.5918C288.74 61.1118 289.22 61.7918 289.46 62.2518L288.04 62.8918C287.84 62.3918 287.38 61.6718 286.94 61.1518ZM35.18 90.1318H52.84V91.9118H35.18V90.1318ZM40.06 97.3118H49.34V98.9118H40.06V97.3118ZM48.68 93.9118H50.54V103.992C50.54 105.012 50.34 105.552 49.6 105.852C48.88 106.152 47.76 106.152 46.08 106.152C46 105.632 45.74 104.832 45.48 104.332C46.68 104.392 47.88 104.372 48.24 104.372C48.58 104.352 48.68 104.252 48.68 103.972V93.9118ZM41.58 87.6118L43.52 88.0518C42.16 92.4318 39.76 96.8718 36 99.5318C35.72 99.0918 35.12 98.4318 34.76 98.0718C38.26 95.6918 40.54 91.4918 41.58 87.6118ZM39.96 100.652H49.34V102.252H39.96V100.652ZM39.94 93.9118H49.16V95.5918H39.94V93.9118ZM38.92 93.9118H40.82V99.2318C40.82 101.532 40.44 104.492 38.4 106.312C38.16 105.912 37.42 105.112 37.06 104.852C38.74 103.292 38.92 101.092 38.92 99.2118V93.9118ZM56.72 90.8518H62.82V104.092H56.72V102.412H61.1V92.5118H56.72V90.8518ZM55.6 90.8518H57.34V105.632H55.6V90.8518ZM56.62 96.3118H61.96V97.9718H56.62V96.3118ZM58.58 87.5918L60.62 87.9118C60.2 89.2118 59.7 90.6118 59.3 91.5318L57.78 91.1718C58.1 90.1718 58.44 88.6518 58.58 87.5918ZM65.58 90.7518H71.6V92.4918H65.58V90.7518ZM70.94 90.7518H72.7C72.7 90.7518 72.7 91.4118 72.68 91.6518C72.4 100.752 72.14 103.892 71.32 104.912C70.84 105.572 70.34 105.772 69.58 105.872C68.86 105.952 67.66 105.912 66.52 105.872C66.48 105.332 66.24 104.532 65.9 104.032C67.2 104.132 68.4 104.152 68.88 104.152C69.28 104.152 69.52 104.092 69.74 103.812C70.4 103.112 70.7 99.7318 70.94 91.1318V90.7518ZM65.84 87.5718L67.66 87.9918C66.9 90.9718 65.66 93.9518 64.3 95.8518C63.96 95.5518 63.18 95.0118 62.74 94.7718C64.1 93.0318 65.2 90.2918 65.84 87.5718ZM64.9 96.1918L66.38 95.3518C67.44 96.7518 68.8 98.6918 69.44 99.8718L67.82 100.852C67.24 99.6318 65.94 97.6518 64.9 96.1918ZM75.72 88.4318H77.5V101.052H75.72V88.4318ZM76.7 88.4318H81.8V100.072H76.7V98.3718H80.04V90.1118H76.7V88.4318ZM76.66 93.2318H80.96V94.8918H76.66V93.2318ZM82.54 88.3918H91.44V90.0518H82.54V88.3918ZM90.84 88.3918H92.64C92.64 88.3918 92.64 88.8318 92.62 89.0718C92.44 91.9118 92.24 93.1318 91.8 93.6118C91.46 93.9718 91.06 94.1118 90.54 94.1518C90.06 94.1918 89.16 94.2118 88.24 94.1718C88.22 93.6918 88.04 93.0518 87.78 92.6118C88.6 92.6918 89.36 92.7118 89.68 92.7118C89.96 92.7118 90.12 92.6718 90.28 92.5318C90.56 92.2318 90.72 91.2518 90.84 88.6318V88.3918ZM85.84 88.9118H87.7C87.38 91.8718 86.48 93.8318 82.9 94.9118C82.72 94.4918 82.26 93.8318 81.88 93.5118C84.94 92.6918 85.6 91.1918 85.84 88.9118ZM84.92 96.5318V99.1918H90.18V96.5318H84.92ZM83.14 94.9918H92.04V100.732H83.14V94.9918ZM80.64 102.012L82.4 101.812C82.66 103.112 82.88 104.792 82.9 105.832L81.04 106.112C81.04 105.072 80.88 103.332 80.64 102.012ZM84.92 101.952L86.68 101.632C87.2 102.892 87.74 104.592 87.92 105.652L86.04 106.052C85.88 105.012 85.4 103.272 84.92 101.952ZM89.02 101.892L90.72 101.212C91.62 102.512 92.74 104.272 93.22 105.412L91.4 106.212C90.96 105.072 89.9 103.232 89.02 101.892ZM77.32 101.352L79.14 101.872C78.46 103.372 77.46 105.132 76.58 106.272L74.76 105.492C75.62 104.492 76.66 102.832 77.32 101.352ZM104.76 88.5118H113.04V90.1118H104.76V88.5118ZM106.84 96.1118V97.6918H110.82V96.1118H106.84ZM106.84 99.0718V100.652H110.82V99.0718H106.84ZM106.84 93.1718V94.7318H110.82V93.1718H106.84ZM105.28 91.7118H112.44V102.112H105.28V91.7118ZM107.96 89.3518L109.94 89.5718C109.64 90.7318 109.34 91.9918 109.08 92.8318L107.56 92.5318C107.74 91.6318 107.92 90.2718 107.96 89.3518ZM107.02 102.532L108.54 103.432C107.7 104.452 106.36 105.572 105.22 106.212C104.94 105.892 104.4 105.372 104 105.072C105.14 104.472 106.38 103.392 107.02 102.532ZM109.44 103.412L110.82 102.572C111.7 103.312 112.8 104.372 113.34 105.092L111.9 106.052C111.42 105.312 110.34 104.192 109.44 103.412ZM100.42 96.0718L101.7 95.7118C102.06 96.3318 102.44 97.1718 102.6 97.7118L101.26 98.1518C101.1 97.5718 100.76 96.7118 100.42 96.0718ZM98.6 99.5318H104.2V100.632H98.6V99.5318ZM98.6 101.592H104.24V102.712H98.6V101.592ZM101.02 97.9718H102.3V104.392H101.02V97.9718ZM99.3 97.3718H104.42V98.5918H99.3V105.972H97.88V98.5718L98.94 97.3718H99.3ZM98.68 95.6318L100.02 95.9918C99.44 97.8518 98.46 99.7718 97.38 101.012C97.22 100.732 96.78 100.072 96.5 99.7918C97.44 98.7518 98.22 97.1918 98.68 95.6318ZM96.36 91.2118H104.2V95.5918H96.36V94.1318H102.5V92.6518H96.36V91.2118ZM102.74 87.9518L104.14 89.2318C101.96 89.8718 98.8 90.2918 96.16 90.4918C96.1 90.1118 95.86 89.4918 95.68 89.1318C98.18 88.9118 101.1 88.4918 102.74 87.9518ZM95.66 89.1318H97.26V95.5918C97.26 98.6118 97.08 103.072 95.94 106.032C95.64 105.772 94.92 105.412 94.52 105.272C95.6 102.452 95.66 98.4118 95.66 95.5918V89.1318ZM98.64 103.672H104.56V104.952H98.64V103.672ZM122.34 100.972L121.8 99.6718C123.46 99.0718 124.36 98.0718 124.36 96.7118L124.08 94.9118L125.18 96.5518C124.88 96.8718 124.48 96.9918 124.06 96.9918C123.16 96.9918 122.38 96.4318 122.38 95.4118C122.38 94.3918 123.18 93.8118 124.1 93.8118C125.34 93.8118 126 94.7918 126 96.3118C126 98.5118 124.6 100.252 122.34 100.972ZM138.96 92.2118H149.06V93.8318H138.96V92.2118ZM139.94 95.6718H141.68V103.612H139.94V95.6718ZM140.9 95.6718H148.06V102.192H140.9V100.612H146.3V97.2518H140.9V95.6718ZM135.64 88.6118H151.62V90.4118H137.48V106.212H135.64V88.6118ZM150.52 88.6118H152.38V103.912C152.38 104.972 152.14 105.552 151.46 105.852C150.78 106.152 149.74 106.212 148.02 106.192C147.94 105.692 147.66 104.832 147.36 104.352C148.54 104.392 149.7 104.392 150.04 104.372C150.4 104.352 150.52 104.232 150.52 103.892V88.6118ZM162.5 93.8718H172.62V95.5318H162.5V93.8718ZM161.72 89.8918H173.22V91.5718H161.72V89.8918ZM161.78 97.4518H173.14V99.1318H161.78V97.4518ZM166.54 87.5918H168.4V94.8118H166.54V87.5918ZM169.12 95.2718H170.98V104.072C170.98 105.052 170.76 105.572 170.08 105.852C169.38 106.132 168.34 106.152 166.78 106.152C166.7 105.652 166.42 104.892 166.16 104.392C167.28 104.432 168.38 104.432 168.7 104.412C169.02 104.412 169.12 104.332 169.12 104.032V95.2718ZM162.82 100.512L164.38 99.6318C165.28 100.632 166.4 102.052 166.92 102.972L165.24 103.972C164.78 103.052 163.72 101.552 162.82 100.512ZM156.3 88.8918H161.36V102.272H156.3V100.572H159.6V90.5918H156.3V88.8918ZM156.38 94.6518H160.44V96.3318H156.38V94.6518ZM155.4 88.8918H157.16V103.972H155.4V88.8918ZM174.52 95.7118L190.3 90.8318L190.78 92.4918L175.04 97.4318L174.52 95.7118ZM183.64 87.6518H185.54V101.812H183.64V87.6518ZM178.1 88.9918H179.96V102.392C179.96 103.872 180.3 104.152 182.28 104.152C183.22 104.152 187.8 104.152 188.92 104.152C190.76 104.152 191.08 103.552 191.36 100.772C191.82 101.072 192.6 101.392 193.12 101.512C192.76 104.792 192.08 105.872 189.02 105.872C188.22 105.872 183.06 105.872 182.3 105.872C179.08 105.872 178.1 105.172 178.1 102.352V88.9918ZM189.82 91.1118H189.6L190.3 90.5918L191.72 91.0518L191.64 91.3518C191.52 94.1518 191.26 97.8318 190.82 100.172L189.26 99.7518C189.58 97.6118 189.76 93.8918 189.82 91.1118ZM198.08 98.2318H211.68V99.8718H198.08V98.2318ZM195.44 90.9718H208.6V92.6918H195.44V90.9718ZM201.2 94.6118H210.32V96.2518H201.2V94.6118ZM210.92 98.2318H212.8C212.8 98.2318 212.78 98.7518 212.74 98.9918C212.38 103.152 212.02 104.852 211.38 105.512C210.96 105.952 210.54 106.112 209.9 106.172C209.38 106.212 208.4 106.212 207.36 106.172C207.34 105.652 207.12 104.912 206.82 104.432C207.78 104.532 208.68 104.552 209.08 104.532C209.42 104.532 209.62 104.512 209.82 104.332C210.26 103.892 210.62 102.352 210.92 98.5118V98.2318ZM206.56 100.792L207.86 100.312C208.46 101.132 209.06 102.252 209.28 102.972L207.9 103.512C207.68 102.792 207.1 101.632 206.56 100.792ZM197.82 88.3118L199.5 87.6518C200.24 88.4318 201.1 89.5518 201.5 90.3118L199.72 91.0718C199.38 90.3118 198.56 89.1518 197.82 88.3118ZM200.58 101.292L202.12 101.112C202.5 102.392 202.7 104.052 202.7 105.152L201.06 105.372C201.12 104.292 200.92 102.612 200.58 101.292ZM203.56 101.132L205.02 100.792C205.52 101.892 206 103.332 206.16 104.292L204.6 104.692C204.48 103.732 204.02 102.252 203.56 101.132ZM197.96 100.752L199.56 101.272C199.12 102.972 198.46 104.852 197.26 106.092L195.8 105.052C196.86 104.012 197.6 102.312 197.96 100.752ZM203.92 87.5918L205.86 88.0718C204.06 93.7318 200.94 99.0518 195.48 102.152C195.26 101.692 194.78 100.952 194.46 100.532C199.48 97.8318 202.48 92.7318 203.92 87.5918ZM208.2 90.9718H209.96C209.68 92.4118 209.32 94.1118 209 95.2318L207.34 94.9718C207.64 93.9118 207.98 92.2718 208.2 90.9718ZM209.62 94.6118H211.38C211.1 96.0318 210.76 97.7318 210.44 98.8318L208.76 98.6318C209.08 97.5318 209.42 95.9118 209.62 94.6118ZM218.36 103.272H229.52V105.112H218.36V103.272ZM217.42 97.5718H230.56V106.132H228.54V99.3718H219.34V106.172H217.42V97.5718ZM225.82 90.6918L227.3 89.6918C229.2 91.4118 231.58 93.8918 232.62 95.5718L231.02 96.7318C230.04 95.0518 227.76 92.4918 225.82 90.6918ZM216.52 96.0318C216.44 95.6518 216.12 94.6918 215.9 94.1918C216.4 94.0918 216.9 93.6718 217.56 93.0318C218.28 92.3718 220.56 89.8718 222.04 87.4318L223.94 88.2518C222.06 90.8718 219.8 93.3318 217.7 95.0518V95.1118C217.7 95.1118 216.52 95.6718 216.52 96.0318ZM216.52 96.0318L216.5 94.5518L217.84 93.8718L230.42 93.3518C230.44 93.8718 230.52 94.6518 230.6 95.0518C218.78 95.6718 217.46 95.7118 216.52 96.0318ZM244 91.2918H247.76V92.2518H244V91.2918ZM244 92.8118H247.76V93.7718H244V92.8118ZM241.06 102.032H251.2V103.232H241.06V102.032ZM243.4 89.6118H248.22V90.6718H243.4V89.6118ZM245.12 95.3518V96.4718H246.56V95.3518H245.12ZM243.96 94.4118H247.76V97.4118H243.96V94.4118ZM241.4 100.052H249.72V99.1718H240.18V98.0318H251.48V101.172H241.4V100.052ZM240.86 100.052H242.6C242.34 101.152 242.02 102.372 241.74 103.232H239.98C240.3 102.332 240.62 101.092 240.86 100.052ZM250.62 102.032H252.4C252.4 102.032 252.36 102.512 252.28 102.732C251.94 104.412 251.56 105.292 251 105.732C250.56 106.072 250.08 106.152 249.34 106.172C248.72 106.172 247.5 106.172 246.24 106.112C246.2 105.692 246 105.092 245.72 104.692C246.96 104.812 248.28 104.832 248.8 104.832C249.22 104.832 249.44 104.812 249.66 104.672C250.02 104.412 250.32 103.672 250.6 102.232L250.62 102.032ZM235.04 89.1318L236.12 87.8718C237.14 88.4318 238.38 89.2918 239 89.9518L237.84 91.3718C237.28 90.6918 236.04 89.7518 235.04 89.1318ZM234.6 94.4718L235.66 93.1718C236.68 93.6718 237.98 94.4918 238.6 95.1118L237.5 96.5518C236.92 95.9318 235.62 95.0318 234.6 94.4718ZM235.02 104.972C235.76 103.412 236.78 100.852 237.54 98.5518L239.02 99.5318C238.36 101.632 237.5 104.052 236.7 105.952L235.02 104.972ZM241.92 92.2718L242.78 91.9718C243.16 92.6118 243.58 93.4718 243.7 93.9918L242.84 94.3918C242.68 93.8318 242.3 92.9318 241.92 92.2718ZM242.08 94.8718L242.9 94.5918C243.22 95.2518 243.52 96.1318 243.58 96.7118L242.72 97.0718C242.64 96.4918 242.38 95.5718 242.08 94.8718ZM239.22 94.9518L240.22 95.1918C240.04 96.1718 239.74 97.2318 239.36 97.9318C239.18 97.7518 238.74 97.4718 238.5 97.3318C238.88 96.6718 239.08 95.7918 239.22 94.9518ZM239.12 91.6518C239.06 91.4718 238.86 91.0318 238.72 90.8118C238.98 90.7718 239.14 90.5718 239.34 90.2718C239.56 90.0118 240.28 88.8318 240.58 87.7718L241.7 88.1518C241.22 89.2518 240.5 90.3918 239.8 91.1718V91.1918C239.8 91.1918 239.12 91.4718 239.12 91.6518ZM239.12 91.6518L239.08 90.8118L239.76 90.4718L242.04 90.3518C241.96 90.6518 241.88 91.0718 241.88 91.3118C239.86 91.4718 239.38 91.5518 239.12 91.6518ZM239.16 94.3718C239.12 94.1918 238.92 93.7318 238.78 93.5118C239.1 93.4518 239.36 93.1918 239.72 92.8118C240.12 92.4318 241.34 90.9118 242.04 89.4718L243.1 89.9518C242.24 91.3518 241.1 92.8318 239.94 93.8518V93.8918C239.94 93.8918 239.16 94.1718 239.16 94.3718ZM239.16 94.3718L239.1 93.4918L239.72 93.1518L242.82 92.8118C242.86 93.0718 242.94 93.4918 243.04 93.7118C240.02 94.1118 239.48 94.2318 239.16 94.3718ZM240.56 95.1518L241.46 94.9318C241.7 95.6918 241.88 96.6518 241.9 97.2518L240.96 97.5718C240.94 96.9318 240.78 95.9318 240.56 95.1518ZM244.72 88.0918L245.98 87.8118C246.28 88.2718 246.62 88.9718 246.78 89.3718L245.46 89.7318C245.34 89.2718 245 88.5918 244.72 88.0918ZM251.32 92.2518L252.16 91.9518C252.58 92.6118 253 93.5118 253.16 94.0718L252.28 94.4318C252.12 93.8518 251.72 92.9518 251.32 92.2518ZM251.46 94.8518L252.28 94.5518C252.66 95.3518 253 96.3918 253.1 97.0518L252.22 97.4318C252.14 96.7518 251.82 95.6718 251.46 94.8518ZM248.62 94.8718L249.62 95.1118C249.44 96.0918 249.14 97.1518 248.76 97.8718C248.58 97.6718 248.16 97.3918 247.9 97.2518C248.28 96.5918 248.48 95.7118 248.62 94.8718ZM248.52 91.6318C248.46 91.4518 248.26 91.0118 248.14 90.7718C248.36 90.7518 248.54 90.5518 248.74 90.2518C248.96 89.9718 249.66 88.8118 249.98 87.7318L251.08 88.1518C250.64 89.2118 249.9 90.3518 249.2 91.1318V91.1518C249.2 91.1518 248.52 91.4518 248.52 91.6318ZM248.52 91.6318L248.48 90.7918L249.16 90.4518L251.42 90.3318C251.34 90.6318 251.28 91.0518 251.28 91.2918C249.26 91.4518 248.78 91.5318 248.52 91.6318ZM248.58 94.3518C248.52 94.1518 248.32 93.7118 248.18 93.4718C248.5 93.4318 248.78 93.1718 249.12 92.7718C249.52 92.4118 250.72 90.8918 251.42 89.4518L252.5 89.9118C251.64 91.3318 250.5 92.7918 249.34 93.8318V93.8518C249.34 93.8518 248.58 94.1518 248.58 94.3518ZM248.58 94.3518L248.5 93.4718L249.12 93.1318L252.22 92.7718C252.26 93.0518 252.36 93.4518 252.44 93.6718C249.42 94.0918 248.88 94.2118 248.58 94.3518ZM249.92 95.1518L250.8 94.9118C251.08 95.7518 251.28 96.8118 251.3 97.4518L250.34 97.7718C250.34 97.0918 250.16 95.9918 249.92 95.1518ZM256.72 90.8518H262.82V104.092H256.72V102.412H261.1V92.5118H256.72V90.8518ZM255.6 90.8518H257.34V105.632H255.6V90.8518ZM256.62 96.3118H261.96V97.9718H256.62V96.3118ZM258.58 87.5918L260.62 87.9118C260.2 89.2118 259.7 90.6118 259.3 91.5318L257.78 91.1718C258.1 90.1718 258.44 88.6518 258.58 87.5918ZM265.58 90.7518H271.6V92.4918H265.58V90.7518ZM270.94 90.7518H272.7C272.7 90.7518 272.7 91.4118 272.68 91.6518C272.4 100.752 272.14 103.892 271.32 104.912C270.84 105.572 270.34 105.772 269.58 105.872C268.86 105.952 267.66 105.912 266.52 105.872C266.48 105.332 266.24 104.532 265.9 104.032C267.2 104.132 268.4 104.152 268.88 104.152C269.28 104.152 269.52 104.092 269.74 103.812C270.4 103.112 270.7 99.7318 270.94 91.1318V90.7518ZM265.84 87.5718L267.66 87.9918C266.9 90.9718 265.66 93.9518 264.3 95.8518C263.96 95.5518 263.18 95.0118 262.74 94.7718C264.1 93.0318 265.2 90.2918 265.84 87.5718ZM264.9 96.1918L266.38 95.3518C267.44 96.7518 268.8 98.6918 269.44 99.8718L267.82 100.852C267.24 99.6318 265.94 97.6518 264.9 96.1918ZM282.28 88.5518H293V90.2518H282.28V88.5518ZM282.74 98.9118H292.4V100.612H282.74V98.9118ZM281.72 103.972H293.22V105.712H281.72V103.972ZM286.58 99.7118H288.48V105.032H286.58V99.7118ZM284.14 90.7518L285.76 91.1518C285.22 92.1918 284.46 93.3918 283.8 94.3918C284.66 95.5118 285.54 96.8718 285.96 97.7518L284.42 98.3718C283.98 97.3318 283.06 95.8118 282.02 94.4118C282.82 93.1918 283.68 91.7118 284.14 90.7518ZM287.56 90.7718L289.18 91.1718C288.62 92.1918 287.86 93.3918 287.2 94.3718C288.08 95.4718 288.98 96.7918 289.4 97.6518L287.88 98.3118C287.44 97.2718 286.48 95.7718 285.4 94.3918C286.24 93.1918 287.1 91.7318 287.56 90.7718ZM291 90.7518L292.64 91.1718C292.04 92.2118 291.26 93.3918 290.6 94.3918C291.52 95.4918 292.48 96.8118 292.96 97.6718L291.44 98.3718C290.96 97.3318 289.9 95.7918 288.76 94.4118C289.62 93.2118 290.52 91.7118 291 90.7518ZM279.56 95.6518L280.96 95.2518C281.48 96.5718 282.04 98.3318 282.24 99.3918L280.74 99.8918C280.58 98.8118 280.06 97.0318 279.56 95.6518ZM277.7 100.872L279.12 100.612C279.36 101.932 279.6 103.652 279.66 104.792L278.18 105.092C278.14 103.952 277.94 102.192 277.7 100.872ZM275.54 100.632L277.12 100.892C276.92 102.712 276.56 104.652 276.14 105.932C275.78 105.752 275.02 105.512 274.62 105.372C275.1 104.152 275.38 102.312 275.54 100.632ZM275.18 95.3118C275.08 94.9518 274.8 94.1318 274.6 93.6718C274.98 93.5918 275.32 93.1918 275.72 92.5718C276.16 91.9918 277.5 89.7318 278.26 87.5718L279.94 88.2718C278.94 90.4718 277.56 92.7918 276.24 94.3718V94.4118C276.24 94.4118 275.18 94.9518 275.18 95.3118ZM275.18 95.3118L275.12 93.9718L275.96 93.4518L279.48 93.1718C279.38 93.6318 279.32 94.2918 279.3 94.6718C276.14 94.9918 275.54 95.1318 275.18 95.3118ZM275.32 99.8718C275.22 99.5118 274.94 98.6518 274.72 98.1718C275.18 98.0718 275.62 97.5918 276.24 96.8518C276.88 96.1318 278.92 93.2918 280.18 90.5918L281.76 91.5318C280.28 94.2118 278.34 96.9718 276.42 98.9318V98.9718C276.42 98.9718 275.32 99.5318 275.32 99.8718ZM275.32 99.8718L275.24 98.5118L276.08 97.9718L280.94 97.3518C280.88 97.8118 280.84 98.4718 280.86 98.8518C276.42 99.4918 275.74 99.6518 275.32 99.8718ZM279.7 100.452L281.02 100.032C281.4 101.072 281.84 102.392 282.02 103.272L280.62 103.752C280.48 102.872 280.08 101.492 279.7 100.452ZM35.12 118.892L36.12 117.832C37.16 118.552 38.46 119.632 39.12 120.392L38.06 121.592C37.44 120.812 36.16 119.652 35.12 118.892ZM34.58 124.512L35.52 123.412C36.56 123.992 37.92 124.912 38.6 125.572L37.62 126.832C36.98 126.132 35.62 125.172 34.58 124.512ZM34.84 134.972C35.56 133.432 36.62 130.892 37.38 128.652L38.62 129.572C37.94 131.632 37.02 134.032 36.24 135.872L34.84 134.972ZM39.7 122.472H43.54V123.712H39.7V122.472ZM39.6 119.512H52.98V121.052H39.6V119.512ZM42.18 128.852H49.88V130.332H42.18V128.852ZM42.04 131.752H49.92V133.252H42.04V131.752ZM45.36 123.352H46.76V127.532H45.36V123.352ZM49.34 127.652H51.12V136.212H49.34V127.652ZM42.94 122.472H44.22C44.22 122.472 44.2 122.832 44.2 123.012C44.14 125.492 44.08 126.512 43.78 126.872C43.56 127.132 43.32 127.252 42.92 127.292C42.66 127.332 42.22 127.332 41.8 127.332C41.78 126.952 41.66 126.452 41.5 126.112C41.88 126.172 42.18 126.172 42.34 126.172C42.5 126.172 42.6 126.152 42.7 126.012C42.84 125.812 42.88 124.992 42.94 122.692V122.472ZM51.28 121.712L52.38 122.652C51.28 123.232 49.8 123.692 48.52 123.972C48.44 123.712 48.24 123.272 48.08 122.992C49.24 122.672 50.54 122.172 51.28 121.712ZM47.34 120.992L48.68 121.452C47.88 122.292 46.94 123.192 46.22 123.752L45.34 123.372C46.04 122.712 46.88 121.692 47.34 120.992ZM51.02 122.632C51.36 124.192 52.08 125.772 53.14 126.492C52.86 126.712 52.5 127.132 52.3 127.432C51.16 126.512 50.42 124.692 50.06 122.892L51.02 122.632ZM41.04 127.652H42.8V130.292C42.8 132.132 42.42 134.672 40.18 136.232C39.86 135.952 39.2 135.472 38.76 135.232C40.76 133.852 41.04 131.732 41.04 130.272V127.652ZM40.82 122.892L42.1 122.992C41.9 125.132 41.18 126.712 39.7 127.672C39.56 127.412 39.18 126.892 38.92 126.672C40.14 125.892 40.68 124.632 40.82 122.892ZM43.92 121.472L44.94 121.032C45.3 121.512 45.68 122.192 45.82 122.612L44.74 123.132C44.6 122.652 44.26 121.972 43.92 121.472ZM44.74 117.692L46.48 117.472C46.76 118.192 47 119.132 47.06 119.732L45.22 120.032C45.16 119.412 44.96 118.432 44.74 117.692ZM48.08 122.992H49.24V126.472L48.16 127.652C48.06 127.332 47.78 126.752 47.6 126.472C47.82 126.332 48.08 125.992 48.08 125.212V122.992ZM48.16 127.672L48.08 126.672L48.56 126.212L50.56 125.652C50.58 125.952 50.68 126.392 50.76 126.652C48.82 127.292 48.4 127.492 48.16 127.672ZM64.82 123.612H68.92V125.072H64.82V123.612ZM63.3 129.432H70.08V130.752H63.3V129.432ZM56.68 118.392H62.24V119.912H56.68V118.392ZM61.74 118.392H62.06L62.36 118.332L63.54 118.912C62.06 122.332 58.82 124.592 55.52 125.752C55.28 125.352 54.82 124.692 54.5 124.372C57.5 123.452 60.58 121.332 61.74 118.692V118.392ZM65.36 117.672C66.76 120.712 69.68 123.092 73.4 124.072C73 124.432 72.52 125.092 72.26 125.552C68.4 124.332 65.46 121.692 63.84 118.132L65.36 117.672ZM68.98 117.752L70.36 118.712C69.4 119.592 68.22 120.492 67.32 121.112L66.22 120.252C67.08 119.612 68.3 118.532 68.98 117.752ZM71.46 119.752L72.84 120.712C71.88 121.592 70.66 122.492 69.74 123.092L68.6 122.232C69.5 121.592 70.76 120.512 71.46 119.752ZM57.56 123.692H62.42V128.412H60.72V125.152H57.56V123.692ZM56.92 126.972H58.48C58.28 128.512 58.02 130.392 57.78 131.592H56.18C56.46 130.352 56.74 128.452 56.92 126.972ZM60.72 130.172H62.44C62.44 130.172 62.42 130.632 62.38 130.872C62.16 133.632 61.92 134.872 61.42 135.372C61.02 135.772 60.6 135.912 59.96 135.952C59.42 135.992 58.38 135.992 57.28 135.932C57.26 135.432 57.04 134.772 56.74 134.332C57.8 134.412 58.86 134.432 59.24 134.432C59.6 134.432 59.82 134.412 59.98 134.252C60.32 133.972 60.54 132.912 60.72 130.412V130.172ZM64.12 123.612H65.72V125.152C65.72 126.532 65.3 128.112 63.52 129.192C63.28 128.852 62.66 128.232 62.32 128.012C63.88 127.152 64.12 126.072 64.12 125.112V123.612ZM69.68 129.432H70.02L70.32 129.372L71.36 129.752C70.02 133.432 66.88 135.292 63.1 136.192C62.94 135.792 62.58 135.172 62.28 134.812C65.66 134.172 68.6 132.492 69.68 129.652V129.432ZM57.62 126.972H61.32V128.412H57.36L57.62 126.972ZM57.04 130.172H61.2V131.592H56.76L57.04 130.172ZM56.1 121.112L57.18 120.112C58.06 120.592 59.16 121.332 59.7 121.872L58.56 123.012C58.06 122.452 56.98 121.652 56.1 121.112ZM68.06 123.612H69.64V126.692C69.64 127.172 69.68 127.312 69.96 127.312C70.18 127.312 71 127.312 71.22 127.312C71.5 127.312 71.98 127.292 72.22 127.232C72.24 127.612 72.28 128.172 72.34 128.532C72.08 128.632 71.66 128.632 71.26 128.632C70.98 128.632 70.04 128.632 69.76 128.632C68.34 128.632 68.06 128.072 68.06 126.672V123.612ZM63.16 131.732L64.06 130.672C66.44 131.932 69.78 133.812 71.48 134.972L70.52 136.212C68.9 135.052 65.6 133.072 63.16 131.732ZM79.16 125.252H92.22V126.852H79.16V125.252ZM78.66 128.652H93.04V130.272H78.66V128.652ZM81.96 123.512H83.7V129.472H81.96V123.512ZM87.28 123.512H89.06V129.452H87.28V123.512ZM76.7 118.532H78.62V124.432C78.62 127.892 78.32 132.932 76.22 136.212C75.84 135.932 75 135.432 74.54 135.252C76.54 132.132 76.7 127.632 76.7 124.432V118.532ZM77.86 118.532H91.9V123.512H77.86V121.872H90V120.152H77.86V118.532ZM86.16 129.272C87.26 132.032 89.72 133.932 93.28 134.612C92.9 134.992 92.4 135.692 92.16 136.192C88.36 135.232 85.9 133.012 84.58 129.632L86.16 129.272ZM90.72 130.212L92.14 131.192C91.06 132.012 89.64 132.812 88.56 133.352L87.36 132.432C88.4 131.872 89.88 130.912 90.72 130.212ZM80.36 136.232L80.28 134.832L81.02 134.232L86.3 133.112C86.22 133.592 86.16 134.312 86.18 134.692C81.42 135.812 80.76 135.992 80.36 136.232ZM80.36 136.252C80.26 135.812 79.9 135.052 79.64 134.692C80.02 134.472 80.64 133.952 80.64 133.012V129.392L82.4 129.452V134.292C82.4 134.292 80.36 135.572 80.36 136.252ZM103.36 122.052H111.62V123.852H103.36V122.052ZM110.84 122.052H112.64C112.64 122.052 112.64 122.712 112.64 122.952C112.44 131.312 112.26 134.212 111.6 135.112C111.18 135.712 110.72 135.912 110.06 135.992C109.42 136.072 108.36 136.052 107.32 136.012C107.28 135.492 107.06 134.692 106.74 134.212C107.82 134.272 108.8 134.292 109.22 134.292C109.56 134.292 109.78 134.232 109.96 133.972C110.48 133.352 110.66 130.432 110.84 122.452V122.052ZM106.4 117.632H108.24C108.22 125.592 108.2 132.532 102.72 136.212C102.44 135.752 101.82 135.112 101.36 134.792C106.54 131.492 106.38 125.132 106.4 117.632ZM96.02 118.532H102.74V131.572H100.98V120.252H97.7V132.832H96.02V118.532ZM94.6 132.292C96.86 131.872 100.4 131.132 103.74 130.392L103.92 132.092C100.74 132.852 97.36 133.652 94.92 134.212L94.6 132.292ZM96.9 122.772H101.84V124.452H96.9V122.772ZM96.9 126.992H101.84V128.672H96.9V126.992ZM114.82 125.672H133.22V127.732H114.82V125.672ZM148.88 127.492H150.82V134.372C150.82 135.312 150.58 135.732 149.84 135.972C149.12 136.192 148 136.192 146.4 136.192C146.3 135.752 146.04 135.132 145.82 134.712C146.9 134.772 148.12 134.752 148.44 134.732C148.78 134.712 148.88 134.632 148.88 134.372V127.492ZM144.28 118.832H152.7V120.092H144.28V118.832ZM144.28 124.132H152.68V125.412H144.28V124.132ZM143.84 121.812H153.28V123.092H143.84V121.812ZM147.62 122.452H149.42V126.992H147.62V122.452ZM136.7 118.412H143.36V121.892H136.7V120.712H141.74V119.572H136.7V118.412ZM145.48 120.492L146.84 120.252C147.16 120.772 147.48 121.492 147.58 121.972L146.18 122.312C146.08 121.812 145.8 121.052 145.48 120.492ZM150.06 120.272L151.6 120.572C151.26 121.232 150.94 121.832 150.66 122.272L149.32 121.992C149.56 121.492 149.9 120.772 150.06 120.272ZM135.98 118.412H137.58V120.552C137.58 122.372 137.26 124.932 135.84 126.692C135.6 126.372 134.92 125.772 134.58 125.572C135.82 124.032 135.98 122.012 135.98 120.512V118.412ZM147.16 117.872L148.88 117.552C149.2 118.052 149.48 118.752 149.58 119.232L147.76 119.612C147.68 119.132 147.44 118.392 147.16 117.872ZM138.62 123.952V125.492H141.88V123.952H138.62ZM137.08 122.772H143.52V126.672H137.08V122.772ZM138.3 127.492H149.42V128.752H138.3V127.492ZM137.44 127.492H139.24V130.832C139.24 132.572 139.04 134.892 137.98 136.432C137.66 136.112 136.88 135.532 136.46 135.352C137.36 134.012 137.44 132.212 137.44 130.792V127.492ZM139.16 132.912C141.6 132.632 145.58 132.112 149.3 131.592L149.34 132.672C145.9 133.332 142.3 133.952 139.6 134.412L139.16 132.912ZM139.82 130.352L140.28 129.332C142.66 129.572 145.96 130.092 147.7 130.492L147.28 131.652C145.56 131.252 142.26 130.672 139.82 130.352ZM155.92 121.472H170.18V123.332H155.92V121.472ZM169.42 121.472H169.86L170.24 121.372L171.66 122.312C168.96 126.372 164.06 130.872 159.68 133.392C159.38 132.972 158.78 132.392 158.34 132.032C162.58 129.712 167.36 125.232 169.42 121.912V121.472ZM162.1 118.352L163.8 117.452C164.56 118.472 165.56 119.872 166.02 120.712L164.22 121.732C163.82 120.852 162.86 119.392 162.1 118.352ZM158.8 131.632C159.44 131.632 159.92 132.212 161 132.892C162.26 133.712 163.96 133.852 166.16 133.852C168.38 133.852 171.4 133.692 173.32 133.452C173.12 133.952 172.8 134.952 172.78 135.472C171.32 135.572 168.06 135.692 166.1 135.692C163.64 135.692 162.04 135.452 160.66 134.612C159.84 134.092 159.18 133.412 158.76 133.412C158.1 133.412 157.18 134.672 156.3 135.972L154.9 134.212C156.28 132.712 157.72 131.632 158.8 131.632ZM175.58 121.892H191.02V123.832H175.58V121.892ZM190.26 121.892H192.22C192.22 121.892 192.2 122.572 192.18 122.852C191.74 131.012 191.34 134.012 190.44 135.032C189.92 135.712 189.4 135.892 188.58 135.972C187.86 136.072 186.6 136.032 185.36 135.972C185.34 135.412 185.08 134.572 184.72 134.032C186.04 134.132 187.28 134.152 187.8 134.152C188.22 134.152 188.46 134.092 188.72 133.832C189.46 133.132 189.88 129.992 190.26 122.292V121.892ZM181.94 117.652H183.94V121.412C183.94 125.952 183.34 132.212 176.44 136.272C176.14 135.812 175.44 135.092 174.98 134.752C181.44 131.052 181.94 125.432 181.94 121.412V117.652ZM204.06 123.792C205.78 123.792 207.18 125.192 207.18 126.912C207.18 128.652 205.78 130.052 204.06 130.052C202.34 130.052 200.92 128.652 200.92 126.912C200.92 125.192 202.34 123.792 204.06 123.792ZM204.06 128.852C205.12 128.852 205.98 127.992 205.98 126.912C205.98 125.852 205.12 124.992 204.06 124.992C203 124.992 202.12 125.852 202.12 126.912C202.12 127.992 203 128.852 204.06 128.852Z" fill="#383838"/>
<defs>
<filter id="filter0_d_351_1593" x="0.987305" y="1.90845" width="327.013" height="179.743" filterUnits="userSpaceOnUse" color-interpolation-filters="sRGB">
<feFlood flood-opacity="0" result="BackgroundImageFix"/>
<feColorMatrix in="SourceAlpha" type="matrix" values="0 0 0 0 0 0 0 0 0 0 0 0 0 0 0 0 0 0 127 0" result="hardAlpha"/>
<feOffset dx="-7" dy="11"/>
<feComposite in2="hardAlpha" operator="out"/>
<feColorMatrix type="matrix" values="0 0 0 0 0.337255 0 0 0 0 0.356863 0 0 0 0 0.74902 0 0 0 1 0"/>
<feBlend mode="normal" in2="BackgroundImageFix" result="effect1_dropShadow_351_1593"/>
<feBlend mode="normal" in="SourceGraphic" in2="effect1_dropShadow_351_1593" result="shape"/>
</filter>
</defs>
</svg>
