<svg width="327" height="146" viewBox="0 0 327 146" fill="none" xmlns="http://www.w3.org/2000/svg">
<g filter="url(#filter0_d_351_1590)">
<path d="M7.00011 1.49186L20.9501 122.266L254.5 114.492L237 134.992L275 114.492L321.5 111.492L327 9.99182L7.00011 1.49186Z" fill="white"/>
</g>
<path d="M42.14 33.3318H51.6V34.7918H42.14V33.3318ZM41.68 36.5118H52.06V38.0318H41.68V36.5118ZM33.88 38.2318H41.8V39.7718H33.88V38.2318ZM34.38 35.6118H41.36V37.0518H34.38V35.6118ZM44 41.5718H49.84V42.8318H44V41.5718ZM44 44.1918H49.82V45.5918H44V44.1918ZM44 31.8118H45.74V37.4518H44V31.8118ZM37.12 31.8118H38.84V46.1718H37.12V31.8118ZM47.96 31.8118H49.76V37.4518H47.96V31.8118ZM42.94 38.8718H51.02V46.1318H49.22V40.2718H44.66V46.1518H42.94V38.8718ZM37.06 38.8918L38.24 39.3118C37.46 41.4318 36.02 43.7718 34.64 45.0118C34.36 44.6118 33.8 44.0118 33.42 43.6918C34.8 42.6918 36.28 40.6918 37.06 38.8918ZM38.54 39.8118C39.16 40.2518 41.28 42.0518 41.78 42.5118L40.7 43.8718C40.06 43.0518 38.36 41.2918 37.6 40.5918L38.54 39.8118ZM40.78 32.6718L41.86 33.9118C39.84 34.4318 36.86 34.6918 34.42 34.7518C34.34 34.3918 34.16 33.8518 33.98 33.4718C36.36 33.3718 39.18 33.0918 40.78 32.6718ZM34.02 28.9318H42.4V30.5118H34.02V28.9318ZM38.06 27.6118H39.92V31.5518H38.06V27.6118ZM46.24 27.6118H48.08V31.5518H46.24V27.6118ZM43.42 28.9118H51.88V30.5118H43.42V28.9118ZM56.08 37.2918H69.84V39.1518H56.08V37.2918ZM56.08 43.1518H69.8V45.0118H56.08V43.1518ZM55.16 31.4718H70.88V46.1318H68.9V33.3718H57.04V46.1918H55.16V31.4718ZM61.94 27.6318H63.88V44.1318H61.94V27.6318ZM73.54 38.0518C75.16 37.6518 77.56 36.9518 79.88 36.2718L80.14 37.9918C78.02 38.6518 75.74 39.3518 74 39.8918L73.54 38.0518ZM73.74 31.4718H80.12V33.2318H73.74V31.4718ZM76.16 27.6318H78V43.9518C78 44.9318 77.8 45.4518 77.24 45.7518C76.68 46.0718 75.86 46.1318 74.56 46.1318C74.52 45.6318 74.28 44.8318 74.04 44.2918C74.84 44.3118 75.58 44.3118 75.82 44.2918C76.06 44.2918 76.16 44.2318 76.16 43.9518V27.6318ZM82.18 35.1318H91.48V36.8118H82.18V35.1318ZM82.22 39.0918H91.46V40.7718H82.22V39.0918ZM82.28 43.1318H92.18V44.8718H82.28V43.1318ZM83.04 27.7318L84.82 28.2118C83.72 31.4718 82 34.7318 80.16 36.8318C79.86 36.4918 79.18 35.7718 78.78 35.4518C80.56 33.6118 82.12 30.6918 83.04 27.7318ZM83.44 31.1518H91.76V32.8718H83.44V46.1918H81.62V32.6318L83.08 31.1518H83.44ZM86.42 32.0518H88.2V44.0518H86.42V32.0518ZM85.82 28.4118L87.46 27.7718C88.04 28.6718 88.62 29.8518 88.88 30.6318L87.18 31.3718C86.94 30.5718 86.36 29.3318 85.82 28.4118ZM94.28 40.6318H103.5V42.0118H94.28V40.6318ZM93.78 31.0318H103.78V32.4518H93.78V31.0318ZM97.96 29.3918H99.68V43.9518H97.96V29.3918ZM93.72 43.8718C96.18 43.6718 99.96 43.3518 103.54 42.9918L103.56 44.4518C100.16 44.8518 96.54 45.2318 93.96 45.4918L93.72 43.8718ZM95.88 37.1318V38.3518H101.84V37.1318H95.88ZM95.88 34.7518V35.9518H101.84V34.7518H95.88ZM94.34 33.5118H103.42V39.5918H94.34V33.5118ZM102.6 27.7718L103.48 29.2118C101.04 29.7318 97.36 30.0518 94.36 30.1318C94.28 29.7318 94.1 29.1318 93.92 28.7518C96.9 28.6118 100.46 28.2518 102.6 27.7718ZM103.68 32.2318H110.78V33.9718H103.68V32.2318ZM110.02 32.2318H111.84C111.84 32.2318 111.84 32.8918 111.84 33.1118C111.62 41.4718 111.44 44.3318 110.78 45.1918C110.4 45.7918 109.96 45.9718 109.34 46.0718C108.74 46.1518 107.8 46.1518 106.86 46.1118C106.82 45.5918 106.62 44.8118 106.32 44.2918C107.24 44.3718 108.08 44.3918 108.46 44.3918C108.78 44.3918 108.98 44.3318 109.16 44.0718C109.64 43.4518 109.84 40.5918 110.02 32.6518V32.2318ZM105.88 27.9118H107.7C107.68 36.1118 107.66 42.7118 102.96 46.3118C102.68 45.8718 102.04 45.2318 101.6 44.9118C106.02 41.6718 105.86 35.6518 105.88 27.9118ZM114.24 28.6118H131.74V30.3118H114.24V28.6118ZM122.14 29.3318H124.12V37.2318C124.12 41.1718 122.8 44.5918 115 46.1918C114.78 45.7718 114.26 44.9718 113.86 44.5318C121.4 43.2318 122.14 40.4718 122.14 37.2118V29.3318ZM117.84 36.4918V38.2118H128.62V36.4918H117.84ZM117.84 33.3318V35.0318H128.62V33.3318H117.84ZM116.04 31.7718H130.5V39.7518H116.04V31.7718ZM118.16 39.8118C120.82 43.5918 125.42 44.1118 132.48 44.1918C132.14 44.6318 131.78 45.4318 131.68 46.0518C124.46 45.8318 119.36 45.0118 116.52 40.4718L118.16 39.8118ZM137.62 33.4718H148.28V35.2118H137.62V33.4718ZM134.08 37.1718H151.9V38.9518H134.08V37.1718ZM139.32 38.3918H141.24C141.02 42.7918 140.16 45.0918 134.78 46.1918C134.64 45.7318 134.14 44.9918 133.78 44.6118C138.58 43.7518 139.12 42.0518 139.32 38.3918ZM144.38 38.2118H146.28V43.4518C146.28 44.0518 146.4 44.1518 147.18 44.1518C147.54 44.1518 149.14 44.1518 149.6 44.1518C150.3 44.1518 150.42 43.8118 150.5 41.5918C150.9 41.8918 151.7 42.1918 152.22 42.3318C152 45.1518 151.5 45.8918 149.78 45.8918C149.34 45.8918 147.36 45.8918 146.94 45.8918C144.88 45.8918 144.38 45.3118 144.38 43.4518V38.2118ZM134.52 29.8118H151.4V34.4918H149.44V31.6318H136.42V34.4918H134.52V29.8118ZM141.26 27.9718L143.18 27.4118C143.72 28.2918 144.28 29.4918 144.52 30.2718L142.48 30.8918C142.28 30.1318 141.76 28.8918 141.26 27.9718ZM157.6 44.0518H168.4V45.5318H157.6V44.0518ZM156.72 40.6518H169.36V46.1118H167.42V42.1118H158.58V46.1718H156.72V40.6518ZM155.14 29.7918H170.86V31.2118H155.14V29.7918ZM154.6 34.7918H171.48V36.2118H154.6V34.7918ZM156.4 32.2918H169.6V33.6718H156.4V32.2918ZM153.98 38.1718H172.04V39.6518H153.98V38.1718ZM161.96 30.4518H163.92V35.6718H161.96V30.4518ZM157.82 28.0718L159.5 27.5518C160 28.0718 160.48 28.8318 160.68 29.3718L158.92 30.0118C158.72 29.4518 158.26 28.6518 157.82 28.0718ZM156.9 36.5718L158.64 36.1518C159.08 36.6918 159.5 37.4118 159.7 37.9318L157.86 38.4118C157.72 37.9118 157.3 37.1118 156.9 36.5718ZM166.26 27.5718L168.24 27.9518C167.72 28.9118 167.14 29.8118 166.68 30.4318L165 30.0718C165.44 29.3718 165.98 28.3118 166.26 27.5718ZM167.24 36.1718L169.16 36.5118C168.72 37.3918 168.26 38.2118 167.86 38.8118L166.12 38.5118C166.5 37.8518 167 36.8518 167.24 36.1718ZM175.72 30.8518H181.82V44.0918H175.72V42.4118H180.1V32.5118H175.72V30.8518ZM174.6 30.8518H176.34V45.6318H174.6V30.8518ZM175.62 36.3118H180.96V37.9718H175.62V36.3118ZM177.58 27.5918L179.62 27.9118C179.2 29.2118 178.7 30.6118 178.3 31.5318L176.78 31.1718C177.1 30.1718 177.44 28.6518 177.58 27.5918ZM184.58 30.7518H190.6V32.4918H184.58V30.7518ZM189.94 30.7518H191.7C191.7 30.7518 191.7 31.4118 191.68 31.6518C191.4 40.7518 191.14 43.8918 190.32 44.9118C189.84 45.5718 189.34 45.7718 188.58 45.8718C187.86 45.9518 186.66 45.9118 185.52 45.8718C185.48 45.3318 185.24 44.5318 184.9 44.0318C186.2 44.1318 187.4 44.1518 187.88 44.1518C188.28 44.1518 188.52 44.0918 188.74 43.8118C189.4 43.1118 189.7 39.7318 189.94 31.1318V30.7518ZM184.84 27.5718L186.66 27.9918C185.9 30.9718 184.66 33.9518 183.3 35.8518C182.96 35.5518 182.18 35.0118 181.74 34.7718C183.1 33.0318 184.2 30.2918 184.84 27.5718ZM183.9 36.1918L185.38 35.3518C186.44 36.7518 187.8 38.6918 188.44 39.8718L186.82 40.8518C186.24 39.6318 184.94 37.6518 183.9 36.1918ZM202.64 39.0518H210.82V40.6318H202.64V39.0518ZM202.62 43.2918H210.86V44.9518H202.62V43.2918ZM203.38 27.7918H205.14V34.1118H203.38V27.7918ZM208.26 27.7918H210.04V34.1118H208.26V27.7918ZM205.84 35.7318H207.48V44.1918H205.84V35.7318ZM201.9 34.8718H211.44V45.9918H209.64V36.5318H203.62V46.1518H201.9V34.8718ZM197.12 34.5318L198.36 33.7718C201.44 37.0718 201.38 43.5718 199.96 45.0918C199.42 45.7718 198.82 45.9918 197.98 46.0118C197.6 46.0118 197.02 46.0118 196.52 45.9718C196.48 45.4918 196.36 44.7918 196.12 44.3118C196.68 44.3718 197.26 44.4118 197.6 44.4118C198.04 44.4118 198.34 44.3318 198.64 43.9318C199.56 42.9518 199.78 37.4318 197.12 34.5318ZM198.58 36.0318L199.7 36.7918C198.5 38.0318 196.32 39.5518 194.68 40.3918C194.48 39.9918 194.1 39.3918 193.78 39.0518C195.38 38.4118 197.52 37.1318 198.58 36.0318ZM199.46 38.4918L200.6 39.2918C199.18 41.0718 196.58 43.1118 194.44 44.2118C194.24 43.7918 193.86 43.1718 193.52 42.8318C195.6 41.9718 198.18 40.1318 199.46 38.4918ZM194.38 32.2918L195.62 31.6518C196.2 32.4518 196.88 33.5518 197.14 34.2518L195.82 35.0118C195.58 34.2718 194.94 33.1318 194.38 32.2918ZM197.24 31.1518L198.46 30.4918C198.92 31.1718 199.48 32.0718 199.7 32.6718L198.42 33.4118C198.2 32.8118 197.7 31.8518 197.24 31.1518ZM200.52 31.2318L201.62 32.2918C199.96 34.1318 197.34 35.7318 194.78 36.8518C194.58 36.4918 194.18 35.9118 193.86 35.6118C196.4 34.5518 199.04 32.8918 200.52 31.2318ZM199.68 27.7118L200.7 28.8518C199.22 29.9318 196.8 30.8118 194.6 31.3718C194.4 30.9718 194.06 30.3518 193.72 30.0118C195.86 29.5318 198.3 28.6118 199.68 27.7118ZM201.34 30.0318H206.34V31.7918H201.34V30.0318ZM207.04 30.0518H212.3V31.7918H207.04V30.0518ZM215.48 29.1718H220.26V42.2318H215.48V40.4718H218.5V30.8918H215.48V29.1718ZM214.48 29.1718H216.24V44.1518H214.48V29.1718ZM225.4 27.6318H227.22V46.1718H225.4V27.6318ZM220.92 35.0518H232.18V36.8118H220.92V35.0518ZM223.32 37.9518L224.78 38.3518C224.08 41.2918 222.8 44.2518 221.22 45.8918C220.92 45.4518 220.34 44.8318 219.94 44.4918C221.4 43.1518 222.68 40.4918 223.32 37.9518ZM229.84 28.8518L231.8 29.5118C231.02 31.2118 230.12 33.1918 229.4 34.4518L227.98 33.8718C228.62 32.5318 229.44 30.3918 229.84 28.8518ZM221 29.6318L222.5 28.9518C223.34 30.4518 224.16 32.3918 224.44 33.6318L222.8 34.4118C222.54 33.1518 221.78 31.1518 221 29.6318ZM227.92 38.6518L229.4 37.9118C230.6 40.1718 231.94 43.1118 232.46 44.9118L230.86 45.8118C230.38 43.9518 229.1 40.9318 227.92 38.6518ZM235.46 28.3718L236.96 27.7318C237.54 28.6318 238.24 29.8118 238.54 30.5718L237.02 31.3318C236.7 30.5518 236.02 29.2918 235.46 28.3718ZM245.56 38.1118H247.26V44.8318H245.56V38.1118ZM243.94 32.7518V34.6118H249.12V32.7518H243.94ZM242.26 31.2718H250.88V36.0918H242.26V31.2718ZM241.22 37.2118H251.78V46.1318H249.96V38.7518H242.98V46.1718H241.22V37.2118ZM242.24 40.4918H250.86V41.9518H242.24V40.4918ZM242.26 43.7518H250.88V45.2918H242.26V43.7518ZM241.14 28.5318H251.88V30.1318H241.14V28.5318ZM234.04 31.3518H240.06V33.0718H234.04V31.3518ZM238.66 35.9518C239.22 36.3318 241.02 37.9518 241.44 38.3718L240.34 39.9118C239.74 39.1118 238.26 37.5318 237.6 36.8718L238.66 35.9518ZM239.38 31.3518H239.76L240.08 31.2718L241.14 31.9518C239.76 35.6918 236.94 39.1318 234.24 41.0118C234.06 40.5118 233.6 39.5918 233.3 39.2518C235.8 37.6918 238.32 34.6918 239.38 31.7118V31.3518ZM236.64 37.7118L238.48 35.4918V46.1718H236.64V37.7118ZM253.94 33.6118H263.48V35.3718H253.94V33.6118ZM264.66 30.0118H266.5V41.1518H264.66V30.0118ZM257.96 29.4318H259.82V46.1518H257.96V29.4318ZM269.5 27.9918H271.38V43.7718C271.38 44.9718 271.1 45.5118 270.38 45.8318C269.64 46.1318 268.44 46.1918 266.6 46.1918C266.5 45.6518 266.2 44.7918 265.92 44.2518C267.3 44.2918 268.56 44.2918 268.96 44.2918C269.34 44.2718 269.5 44.1518 269.5 43.7718V27.9918ZM261.96 27.7118L263.34 29.1718C260.92 30.1318 257.36 30.7918 254.32 31.1918C254.24 30.7518 253.98 30.1118 253.74 29.7118C256.68 29.2918 260.06 28.5718 261.96 27.7118ZM257.92 34.4318L259.24 34.9918C258.22 38.0118 256.36 41.5918 254.48 43.5318C254.28 42.9718 253.8 42.1918 253.48 41.6918C255.22 40.0318 257.08 36.9518 257.92 34.4318ZM259.56 36.4718C260.32 36.9918 262.86 39.1718 263.48 39.7118L262.38 41.3318C261.54 40.3318 259.5 38.3118 258.56 37.4718L259.56 36.4718ZM284.16 41.8118H290.28V43.6318H284.16V41.8118ZM283.48 29.4918H291.18V45.1118H289.24V31.2918H285.32V45.2518H283.48V29.4918ZM277.72 29.4318H279.6V46.1518H277.72V29.4318ZM273.94 33.5518H282.86V35.3118H273.94V33.5518ZM277.6 34.1918L278.9 34.6518C278 37.8118 276.28 41.5518 274.46 43.5118C274.26 42.9718 273.8 42.2318 273.48 41.7518C275.16 40.0118 276.86 36.8718 277.6 34.1918ZM281.56 27.7918L282.82 29.2718C280.58 30.0918 277.34 30.6718 274.6 30.9918C274.52 30.5718 274.28 29.9118 274.08 29.4918C276.72 29.1318 279.78 28.5118 281.56 27.7918ZM279.46 35.5718C280.08 36.1918 282.34 38.8118 282.84 39.4518L281.72 41.0118C281.06 39.8918 279.28 37.4518 278.52 36.4918L279.46 35.5718ZM43.3 63.5118H50.68V65.2318H43.3V63.5118ZM43.32 68.3118H50.7V70.0318H43.32V68.3118ZM43.3 73.1118H50.7V74.8318H43.3V73.1118ZM42.38 58.7518H51.6V75.9518H49.7V60.5518H44.2V76.0318H42.38V58.7518ZM33.96 61.8318H41.58V63.6318H33.96V61.8318ZM37.06 57.6118H38.88V76.1718H37.06V57.6118ZM36.96 63.0118L38.14 63.4118C37.46 66.6718 36.02 70.5318 34.42 72.5718C34.24 72.0518 33.78 71.2918 33.48 70.8318C34.96 69.0518 36.36 65.7518 36.96 63.0118ZM38.72 65.0118C39.3 65.5718 41.32 67.9718 41.78 68.5318L40.66 70.0718C40.08 69.0118 38.52 66.7918 37.82 65.8918L38.72 65.0118ZM60.94 68.1518L61.9 67.8718C62.26 68.5918 62.7 69.5318 62.88 70.0718L61.88 70.4518C61.7 69.8518 61.3 68.8718 60.94 68.1518ZM63.5 70.3718H64.86V75.9118H63.5V70.3718ZM58.22 70.6718H59.44V72.4918H61.76V73.6118H58.22V70.6718ZM61.04 70.3718H62.36V72.2318C62.36 73.7718 62 75.1918 59.46 76.0718C59.3 75.7518 58.9 75.2518 58.6 74.9918C60.76 74.3518 61.04 73.2718 61.04 72.1918V70.3718ZM55.62 61.0118H60.98V62.2118H55.62V61.0118ZM64.82 61.0118H70.28V62.2118H64.82V61.0118ZM69.62 58.4318H71.44V73.9118C71.44 74.8918 71.28 75.4518 70.68 75.7718C70.08 76.0718 69.2 76.1118 67.92 76.1118C67.84 75.6118 67.62 74.7518 67.36 74.2518C68.18 74.2918 69 74.2918 69.28 74.2718C69.54 74.2718 69.62 74.1718 69.62 73.9118V58.4318ZM55.78 58.4318H62.18V64.7518H55.78V63.4318H60.4V59.7518H55.78V58.4318ZM70.54 58.4318V59.7518H65.56V63.4318H70.54V64.7518H63.76V58.4318H70.54ZM54.66 58.4318H56.46V76.1918H54.66V58.4318ZM58 67.9518C57.92 67.6918 57.74 67.0718 57.58 66.7718C57.8 66.7318 58.02 66.6118 58.24 66.4118C58.46 66.2118 59.24 65.3918 59.68 64.5318L60.82 65.1318C60.2 65.9718 59.44 66.7718 58.78 67.2718V67.2918C58.78 67.2918 58 67.6718 58 67.9518ZM58 67.9718L57.98 67.1518L58.56 66.8318L61.2 66.7318C61.1 67.0118 60.98 67.4118 60.94 67.6318C58.68 67.7718 58.22 67.8518 58 67.9718ZM57.9 70.3318C57.84 70.0718 57.66 69.4918 57.52 69.1918C57.84 69.1518 58.18 68.9518 58.6 68.6318C59.02 68.3118 60.48 67.0518 61.46 65.7718L62.46 66.4518C61.28 67.7118 59.96 68.8918 58.66 69.6918V69.7318C58.66 69.7318 57.9 70.0518 57.9 70.3318ZM57.9 70.3318L57.88 69.4918L58.44 69.1318L61.94 68.8318C61.96 69.1118 62.04 69.5118 62.08 69.7318C58.72 70.0918 58.18 70.2118 57.9 70.3318ZM66.36 68.1718L67.28 67.8718C67.68 68.5718 68.14 69.5118 68.36 70.0518L67.38 70.4718C67.16 69.8718 66.72 68.8918 66.36 68.1718ZM63.42 67.9718C63.34 67.7118 63.16 67.1118 63 66.7918C63.24 66.7518 63.46 66.6318 63.66 66.4318C63.88 66.2318 64.66 65.4118 65.1 64.5518L66.24 65.1518C65.64 65.9918 64.88 66.7918 64.2 67.2918V67.3118C64.2 67.3118 63.42 67.6918 63.42 67.9718ZM63.42 67.9718L63.4 67.1718L63.98 66.8518L66.62 66.7318C66.52 67.0118 66.4 67.4118 66.36 67.6318C64.12 67.7718 63.66 67.8718 63.42 67.9718ZM63.34 70.3518C63.28 70.0918 63.1 69.5118 62.98 69.2118C63.28 69.1718 63.64 68.9718 64.04 68.6318C64.48 68.3318 65.94 67.0518 66.9 65.7518L67.9 66.4318C66.74 67.7118 65.4 68.8918 64.1 69.7118V69.7518C64.1 69.7518 63.34 70.0718 63.34 70.3518ZM63.34 70.3518L63.32 69.5118L63.88 69.1518L67.4 68.8518C67.42 69.1318 67.48 69.5318 67.54 69.7518C64.16 70.1118 63.64 70.2118 63.34 70.3518ZM64.5 72.4918H67.16V73.6118H64.5V72.4918ZM66.48 70.6918H67.74V74.1918H66.48V70.6918ZM73.94 58.9318H83.14V60.7518H73.94V58.9318ZM78.94 64.7518H82.48V66.5518H78.94V64.7518ZM78.1 59.9118H79.94V72.5118H78.1V59.9118ZM74.68 63.5118H76.4V72.9918H74.68V63.5118ZM73.54 72.4918C75.92 72.0718 79.64 71.2718 83.12 70.5118L83.3 72.2518C79.98 73.0318 76.42 73.8318 73.9 74.3918L73.54 72.4918ZM84.54 61.3118H92.26V63.0718H84.54V61.3118ZM85.14 57.6118L87.02 57.9118C86.3 61.7118 85.06 65.2718 83.32 67.5718C83.02 67.2118 82.26 66.5718 81.82 66.2718C83.5 64.2518 84.56 61.0118 85.14 57.6118ZM89.14 62.3118L91.02 62.4918C90.06 69.3718 87.96 73.6518 82.96 76.2318C82.78 75.7918 82.22 74.9718 81.86 74.5718C86.52 72.4118 88.38 68.4718 89.14 62.3118ZM85.42 62.7918C86.36 68.1918 88.4 72.6918 92.44 74.5718C92.02 74.9518 91.44 75.6718 91.14 76.1718C86.86 73.9118 84.84 69.1918 83.74 63.0918L85.42 62.7918ZM94.3 63.3718H111.64V65.0118H94.3V63.3718ZM102.14 62.1718H104.16V76.1718H102.14V62.1718ZM95.68 66.3118H109.6V67.9318H97.68V71.6518H95.68V66.3118ZM108.62 66.3118H110.56V69.9118C110.56 70.7318 110.4 71.1318 109.78 71.3718C109.18 71.6318 108.32 71.6318 107.18 71.6318C107.06 71.1518 106.76 70.5518 106.56 70.1518C107.3 70.1918 108.08 70.1918 108.32 70.1718C108.54 70.1718 108.62 70.1118 108.62 69.9118V66.3118ZM102.32 69.2918L103.76 69.8518C101.86 72.5518 98.5 74.6118 95 75.5918C94.74 75.1118 94.22 74.3918 93.8 73.9918C97.26 73.2518 100.64 71.4718 102.32 69.2918ZM103.68 69.2518C105.14 71.0718 108.52 73.0318 112.42 73.8118C112.04 74.2318 111.48 74.9918 111.22 75.4718C107.38 74.4918 104.2 72.1718 102.68 70.2318L103.68 69.2518ZM96.46 58.9318H102.82V60.4318H96.46V58.9318ZM104.76 58.9518H112.16V60.4318H104.76V58.9518ZM96.76 57.4518L98.44 57.9318C97.66 59.8518 96.36 61.7918 95.1 63.0518C94.82 62.7118 94.18 62.0718 93.8 61.7718C95 60.6918 96.12 59.0918 96.76 57.4518ZM105.02 57.4518L106.76 57.8918C106.14 59.5918 105.06 61.2718 103.94 62.3318C103.62 62.0318 102.92 61.4518 102.5 61.2118C103.6 60.2918 104.52 58.8918 105.02 57.4518ZM97.88 61.0518L99.02 60.0718C99.72 60.6518 100.6 61.4718 101.04 62.0318L99.82 63.1118C99.42 62.5318 98.56 61.6718 97.88 61.0518ZM106.6 61.1318L107.82 60.1318C108.54 60.6718 109.46 61.4518 109.94 61.9718L108.66 63.0918C108.22 62.5318 107.32 61.7118 106.6 61.1318ZM121.34 70.9718L120.8 69.6718C122.46 69.0718 123.36 68.0718 123.36 66.7118L123.08 64.9118L124.18 66.5518C123.88 66.8718 123.48 66.9918 123.06 66.9918C122.16 66.9918 121.38 66.4318 121.38 65.4118C121.38 64.3918 122.18 63.8118 123.1 63.8118C124.34 63.8118 125 64.7918 125 66.3118C125 68.5118 123.6 70.2518 121.34 70.9718ZM134.24 58.6118H151.74V60.3118H134.24V58.6118ZM142.14 59.3318H144.12V67.2318C144.12 71.1718 142.8 74.5918 135 76.1918C134.78 75.7718 134.26 74.9718 133.86 74.5318C141.4 73.2318 142.14 70.4718 142.14 67.2118V59.3318ZM137.84 66.4918V68.2118H148.62V66.4918H137.84ZM137.84 63.3318V65.0318H148.62V63.3318H137.84ZM136.04 61.7718H150.5V69.7518H136.04V61.7718ZM138.16 69.8118C140.82 73.5918 145.42 74.1118 152.48 74.1918C152.14 74.6318 151.78 75.4318 151.68 76.0518C144.46 75.8318 139.36 75.0118 136.52 70.4718L138.16 69.8118ZM154.16 66.3118H171.86V67.9918H154.16V66.3118ZM163.08 69.9118H170.56V71.5518H163.08V69.9118ZM162.22 67.1318H164.14V74.6318H162.22V67.1318ZM158.66 70.3518C159.82 73.4718 162.42 74.0318 166.16 74.0518C167.08 74.0518 171.12 74.0518 172.34 74.0118C172.06 74.4318 171.76 75.2718 171.66 75.8318H166.08C161.42 75.8318 158.7 74.9918 157.1 70.8918L158.66 70.3518ZM157.42 68.5518L159.3 68.8118C158.66 72.1318 157.22 74.6318 155.02 76.2118C154.74 75.8718 154 75.1718 153.58 74.8918C155.66 73.5718 156.92 71.3718 157.42 68.5518ZM157.98 62.4118V63.7718H167.86V62.4118H157.98ZM157.98 59.7718V61.1118H167.86V59.7718H157.98ZM156.16 58.3718H169.78V65.1518H156.16V58.3718ZM180.08 69.8518H185.88V71.2518H180.08V69.8518ZM179.98 66.8518H186.76V74.3118H179.98V72.8918H184.98V68.2918H179.98V66.8518ZM179.18 66.8518H180.9V75.3318H179.18V66.8518ZM175.64 61.2518H180.96V62.5718H175.64V61.2518ZM184.88 61.2518H190.28V62.5718H184.88V61.2518ZM189.5 58.4318H191.4V73.8318C191.4 74.9318 191.18 75.5118 190.46 75.8318C189.74 76.1518 188.64 76.1718 186.94 76.1718C186.86 75.6518 186.58 74.7718 186.3 74.2518C187.44 74.3118 188.66 74.2918 189.02 74.2718C189.38 74.2718 189.5 74.1518 189.5 73.8118V58.4318ZM175.78 58.4318H182.16V65.4718H175.78V64.0718H180.38V59.8518H175.78V58.4318ZM190.48 58.4318V59.8518H185.56V64.1118H190.48V65.5118H183.76V58.4318H190.48ZM174.7 58.4318H176.58V76.1918H174.7V58.4318ZM193.48 68.0318C195.04 67.6318 197.38 66.9718 199.64 66.2718L199.9 67.9918C197.84 68.6518 195.64 69.3318 193.94 69.8718L193.48 68.0318ZM193.78 61.5518H199.92V63.2918H193.78V61.5518ZM196.14 57.6318H197.9V74.0118C197.9 74.9518 197.7 75.4518 197.16 75.7518C196.64 76.0318 195.82 76.1118 194.56 76.0918C194.5 75.6318 194.3 74.8518 194.06 74.3318C194.84 74.3718 195.58 74.3718 195.82 74.3518C196.06 74.3518 196.14 74.2718 196.14 74.0118V57.6318ZM200.8 59.5718H211.64V61.1918H200.8V59.5718ZM200.32 64.2318H212.04V65.8518H200.32V64.2318ZM202.26 61.8118L203.84 61.2318C204.4 61.9718 204.98 62.9718 205.2 63.6118L203.56 64.2718C203.34 63.6318 202.78 62.5718 202.26 61.8118ZM208.42 61.2718L210.2 61.7918C209.62 62.8718 209 64.0518 208.48 64.8318L206.96 64.3318C207.46 63.5118 208.1 62.1918 208.42 61.2718ZM200.08 67.8718H212.3V69.4918H200.08V67.8718ZM208.96 66.6918L210.78 66.9918C209.82 72.6318 207.18 75.0518 200.74 76.1518C200.6 75.6318 200.24 74.9518 199.92 74.5518C205.82 73.7718 208.12 71.6518 208.96 66.6918ZM204.7 57.8718L206.78 57.5118C207.26 58.3118 207.74 59.3518 207.96 60.0718L205.8 60.5318C205.62 59.8118 205.14 58.6918 204.7 57.8718ZM201.1 71.7518C202.3 70.2318 203.76 67.8718 204.56 65.9318L206.34 66.2918C205.48 68.2718 204.04 70.5718 203 71.9718L201.1 71.7518ZM201.1 71.7518L202.28 70.5518C205.42 71.5718 209.68 73.3518 211.96 74.7518L210.66 76.1318C208.62 74.7518 204.38 72.8518 201.1 71.7518ZM213.96 62.3518H220.08V64.1518H213.96V62.3518ZM216.26 57.8718H218.04V70.9718H216.26V57.8718ZM213.56 71.0118C215.18 70.4318 217.66 69.3918 220.04 68.3918L220.46 70.0718C218.36 71.0718 216.1 72.1118 214.32 72.9118L213.56 71.0118ZM225.54 57.6118H227.32V71.6318H225.54V57.6118ZM219.42 65.7718L230.02 61.2918L230.7 62.9118L220.12 67.4518L219.42 65.7718ZM221.5 59.5118H223.3V72.7118C223.3 73.8518 223.52 74.0518 224.8 74.0518C225.44 74.0518 228.5 74.0518 229.22 74.0518C230.36 74.0518 230.56 73.5518 230.72 71.3518C231.14 71.6518 231.88 71.9518 232.4 72.0518C232.14 74.8518 231.54 75.7518 229.34 75.7518C228.76 75.7518 225.26 75.7518 224.7 75.7518C222.2 75.7518 221.5 75.1318 221.5 72.6918V59.5118ZM229.54 61.8118H229.32L230.02 61.2918L231.44 61.7518L231.36 62.0518C231.2 64.8718 230.9 68.5518 230.38 70.8918L228.84 70.4518C229.2 68.3118 229.44 64.5918 229.54 61.8118ZM233.6 68.0118C235.26 67.6318 237.66 66.9918 239.98 66.3718L240.24 68.0918C238.12 68.7118 235.88 69.3518 234.12 69.8318L233.6 68.0118ZM233.84 61.5518H240.62V63.3118H233.84V61.5518ZM236.44 57.6118H238.28V73.9318C238.28 74.9118 238.08 75.4118 237.48 75.6918C236.9 75.9918 236 76.0318 234.6 76.0318C234.54 75.5518 234.3 74.7718 234.06 74.2918C234.94 74.3318 235.8 74.3118 236.04 74.3118C236.32 74.3118 236.44 74.2118 236.44 73.9318V57.6118ZM242.8 58.3118H248.12V60.0718H242.8V58.3118ZM240.52 66.3918H249.68V68.1518H240.52V66.3918ZM249.04 66.3918H249.4L249.74 66.3118L250.98 66.8318C249.24 72.2518 244.98 74.9718 239.92 76.2118C239.76 75.6918 239.34 74.8918 238.98 74.4718C243.64 73.5718 247.64 71.0718 249.04 66.6718V66.3918ZM242.66 67.7518C244.26 71.1718 247.66 73.5718 252.28 74.4718C251.86 74.8918 251.34 75.6918 251.08 76.2118C246.28 75.0918 242.94 72.3918 241.02 68.3318L242.66 67.7518ZM242.38 58.3118H244.14V60.5518C244.14 62.4318 243.58 64.6318 241 65.9918C240.76 65.6318 240.1 64.8918 239.74 64.6118C242.06 63.4518 242.38 61.8918 242.38 60.4918V58.3118ZM247.24 58.3118H249.04V62.8318C249.04 63.4118 249.1 63.6118 249.4 63.6118C249.66 63.6118 250.5 63.6118 250.76 63.6118C251.06 63.6118 251.54 63.5718 251.8 63.5118C251.84 63.9718 251.88 64.6718 251.96 65.0918C251.68 65.2118 251.22 65.2318 250.78 65.2318C250.48 65.2318 249.54 65.2318 249.26 65.2318C247.6 65.2318 247.24 64.5318 247.24 62.7918V58.3118ZM258.36 68.2518V69.3918H267.84V68.2518H258.36ZM258.36 70.5318V71.7118H267.84V70.5318H258.36ZM258.36 65.9718V67.1118H267.84V65.9718H258.36ZM256.52 64.7918H269.74V72.8918H256.52V64.7918ZM264.76 73.8518L266.02 72.8318C268.14 73.5318 270.48 74.4318 271.88 75.0918L270.18 76.1318C268.96 75.4918 266.84 74.5718 264.76 73.8518ZM259.84 72.8918L261.56 73.6718C259.94 74.6718 257.38 75.6318 255.36 76.1918C255.04 75.8318 254.38 75.1118 253.96 74.7918C256.04 74.3718 258.44 73.6718 259.84 72.8918ZM262.14 58.9118H270.32V60.3318H262.14V58.9118ZM262.4 57.5318L264.06 57.9118C263.52 59.5718 262.54 61.1918 261.48 62.2118C261.16 61.9318 260.46 61.4718 260.06 61.2518C261.1 60.3318 261.94 58.9518 262.4 57.5318ZM264.62 59.9118H266.36V60.6518C266.36 62.1318 265.64 63.9318 260 64.6918C259.82 64.2718 259.34 63.6118 259 63.2518C264.08 62.7118 264.62 61.5118 264.62 60.5718V59.9118ZM266.16 60.9318C267.18 62.1718 269.44 62.9118 272.26 63.1118C271.88 63.4718 271.42 64.1518 271.2 64.6318C268.22 64.2318 265.98 63.1118 264.82 61.2118L266.16 60.9318ZM254.32 58.7118H259.28V60.1518H254.32V58.7118ZM253.88 61.8318H259.78V63.3118H253.88V61.8318ZM269.68 58.9118H269.98L270.26 58.8318L271.54 59.2318C271.04 60.3118 270.38 61.5118 269.78 62.2718L268.32 61.7318C268.78 61.0518 269.34 60.0118 269.68 59.1518V58.9118ZM274 60.8318H282.24V62.5918H274V60.8318ZM277.1 65.1118H280.5V66.8318H277.1V65.1118ZM275.82 61.7718H277.66C277.6 67.9518 277.38 73.0518 274.92 76.1318C274.62 75.6718 274 75.0318 273.52 74.7318C275.7 72.0318 275.76 67.4318 275.82 61.7718ZM279.82 65.1118H281.6C281.6 65.1118 281.6 65.6718 281.58 65.8918C281.4 72.1118 281.22 74.3118 280.68 75.0318C280.34 75.5318 279.98 75.6918 279.44 75.7718C279 75.8318 278.28 75.8518 277.52 75.8118C277.5 75.2918 277.3 74.5518 277.06 74.0918C277.68 74.1518 278.24 74.1518 278.52 74.1518C278.78 74.1718 278.94 74.0918 279.1 73.8918C279.46 73.3918 279.64 71.3518 279.82 65.4718V65.1118ZM284.72 66.5718L285.94 65.3318C287.14 66.1118 288.7 67.2518 289.48 68.0318L288.18 69.4118C287.46 68.6318 285.92 67.4118 284.72 66.5718ZM283.46 72.1918L284.66 70.7718C286.5 71.6918 289.04 73.1918 290.28 74.2318L288.98 75.8718C287.82 74.7718 285.34 73.2118 283.46 72.1918ZM276.32 58.1718L278 57.5318C278.66 58.3718 279.36 59.5118 279.64 60.2718L277.88 61.0118C277.64 60.2318 276.96 59.0518 276.32 58.1718ZM287.66 58.9518C288.64 61.0918 290.62 63.4118 292.54 64.4918C292.1 64.8518 291.5 65.5318 291.18 66.0118C289.2 64.6718 287.26 62.0318 286.18 59.4718L287.66 58.9518ZM286.46 57.5118L288.2 58.0318C287.16 61.5118 285.34 64.3318 282.74 66.1718C282.46 65.6718 281.9 65.0518 281.44 64.6718C283.76 63.2118 285.56 60.6318 286.46 57.5118ZM37.36 103.272H48.52V105.112H37.36V103.272ZM36.42 97.5718H49.56V106.132H47.54V99.3718H38.34V106.172H36.42V97.5718ZM44.82 90.6918L46.3 89.6918C48.2 91.4118 50.58 93.8918 51.62 95.5718L50.02 96.7318C49.04 95.0518 46.76 92.4918 44.82 90.6918ZM35.52 96.0318C35.44 95.6518 35.12 94.6918 34.9 94.1918C35.4 94.0918 35.9 93.6718 36.56 93.0318C37.28 92.3718 39.56 89.8718 41.04 87.4318L42.94 88.2518C41.06 90.8718 38.8 93.3318 36.7 95.0518V95.1118C36.7 95.1118 35.52 95.6718 35.52 96.0318ZM35.52 96.0318L35.5 94.5518L36.84 93.8718L49.42 93.3518C49.44 93.8718 49.52 94.6518 49.6 95.0518C37.78 95.6718 36.46 95.7118 35.52 96.0318ZM63 91.2918H66.76V92.2518H63V91.2918ZM63 92.8118H66.76V93.7718H63V92.8118ZM60.06 102.032H70.2V103.232H60.06V102.032ZM62.4 89.6118H67.22V90.6718H62.4V89.6118ZM64.12 95.3518V96.4718H65.56V95.3518H64.12ZM62.96 94.4118H66.76V97.4118H62.96V94.4118ZM60.4 100.052H68.72V99.1718H59.18V98.0318H70.48V101.172H60.4V100.052ZM59.86 100.052H61.6C61.34 101.152 61.02 102.372 60.74 103.232H58.98C59.3 102.332 59.62 101.092 59.86 100.052ZM69.62 102.032H71.4C71.4 102.032 71.36 102.512 71.28 102.732C70.94 104.412 70.56 105.292 70 105.732C69.56 106.072 69.08 106.152 68.34 106.172C67.72 106.172 66.5 106.172 65.24 106.112C65.2 105.692 65 105.092 64.72 104.692C65.96 104.812 67.28 104.832 67.8 104.832C68.22 104.832 68.44 104.812 68.66 104.672C69.02 104.412 69.32 103.672 69.6 102.232L69.62 102.032ZM54.04 89.1318L55.12 87.8718C56.14 88.4318 57.38 89.2918 58 89.9518L56.84 91.3718C56.28 90.6918 55.04 89.7518 54.04 89.1318ZM53.6 94.4718L54.66 93.1718C55.68 93.6718 56.98 94.4918 57.6 95.1118L56.5 96.5518C55.92 95.9318 54.62 95.0318 53.6 94.4718ZM54.02 104.972C54.76 103.412 55.78 100.852 56.54 98.5518L58.02 99.5318C57.36 101.632 56.5 104.052 55.7 105.952L54.02 104.972ZM60.92 92.2718L61.78 91.9718C62.16 92.6118 62.58 93.4718 62.7 93.9918L61.84 94.3918C61.68 93.8318 61.3 92.9318 60.92 92.2718ZM61.08 94.8718L61.9 94.5918C62.22 95.2518 62.52 96.1318 62.58 96.7118L61.72 97.0718C61.64 96.4918 61.38 95.5718 61.08 94.8718ZM58.22 94.9518L59.22 95.1918C59.04 96.1718 58.74 97.2318 58.36 97.9318C58.18 97.7518 57.74 97.4718 57.5 97.3318C57.88 96.6718 58.08 95.7918 58.22 94.9518ZM58.12 91.6518C58.06 91.4718 57.86 91.0318 57.72 90.8118C57.98 90.7718 58.14 90.5718 58.34 90.2718C58.56 90.0118 59.28 88.8318 59.58 87.7718L60.7 88.1518C60.22 89.2518 59.5 90.3918 58.8 91.1718V91.1918C58.8 91.1918 58.12 91.4718 58.12 91.6518ZM58.12 91.6518L58.08 90.8118L58.76 90.4718L61.04 90.3518C60.96 90.6518 60.88 91.0718 60.88 91.3118C58.86 91.4718 58.38 91.5518 58.12 91.6518ZM58.16 94.3718C58.12 94.1918 57.92 93.7318 57.78 93.5118C58.1 93.4518 58.36 93.1918 58.72 92.8118C59.12 92.4318 60.34 90.9118 61.04 89.4718L62.1 89.9518C61.24 91.3518 60.1 92.8318 58.94 93.8518V93.8918C58.94 93.8918 58.16 94.1718 58.16 94.3718ZM58.16 94.3718L58.1 93.4918L58.72 93.1518L61.82 92.8118C61.86 93.0718 61.94 93.4918 62.04 93.7118C59.02 94.1118 58.48 94.2318 58.16 94.3718ZM59.56 95.1518L60.46 94.9318C60.7 95.6918 60.88 96.6518 60.9 97.2518L59.96 97.5718C59.94 96.9318 59.78 95.9318 59.56 95.1518ZM63.72 88.0918L64.98 87.8118C65.28 88.2718 65.62 88.9718 65.78 89.3718L64.46 89.7318C64.34 89.2718 64 88.5918 63.72 88.0918ZM70.32 92.2518L71.16 91.9518C71.58 92.6118 72 93.5118 72.16 94.0718L71.28 94.4318C71.12 93.8518 70.72 92.9518 70.32 92.2518ZM70.46 94.8518L71.28 94.5518C71.66 95.3518 72 96.3918 72.1 97.0518L71.22 97.4318C71.14 96.7518 70.82 95.6718 70.46 94.8518ZM67.62 94.8718L68.62 95.1118C68.44 96.0918 68.14 97.1518 67.76 97.8718C67.58 97.6718 67.16 97.3918 66.9 97.2518C67.28 96.5918 67.48 95.7118 67.62 94.8718ZM67.52 91.6318C67.46 91.4518 67.26 91.0118 67.14 90.7718C67.36 90.7518 67.54 90.5518 67.74 90.2518C67.96 89.9718 68.66 88.8118 68.98 87.7318L70.08 88.1518C69.64 89.2118 68.9 90.3518 68.2 91.1318V91.1518C68.2 91.1518 67.52 91.4518 67.52 91.6318ZM67.52 91.6318L67.48 90.7918L68.16 90.4518L70.42 90.3318C70.34 90.6318 70.28 91.0518 70.28 91.2918C68.26 91.4518 67.78 91.5318 67.52 91.6318ZM67.58 94.3518C67.52 94.1518 67.32 93.7118 67.18 93.4718C67.5 93.4318 67.78 93.1718 68.12 92.7718C68.52 92.4118 69.72 90.8918 70.42 89.4518L71.5 89.9118C70.64 91.3318 69.5 92.7918 68.34 93.8318V93.8518C68.34 93.8518 67.58 94.1518 67.58 94.3518ZM67.58 94.3518L67.5 93.4718L68.12 93.1318L71.22 92.7718C71.26 93.0518 71.36 93.4518 71.44 93.6718C68.42 94.0918 67.88 94.2118 67.58 94.3518ZM68.92 95.1518L69.8 94.9118C70.08 95.7518 70.28 96.8118 70.3 97.4518L69.34 97.7718C69.34 97.0918 69.16 95.9918 68.92 95.1518ZM75.72 90.8518H81.82V104.092H75.72V102.412H80.1V92.5118H75.72V90.8518ZM74.6 90.8518H76.34V105.632H74.6V90.8518ZM75.62 96.3118H80.96V97.9718H75.62V96.3118ZM77.58 87.5918L79.62 87.9118C79.2 89.2118 78.7 90.6118 78.3 91.5318L76.78 91.1718C77.1 90.1718 77.44 88.6518 77.58 87.5918ZM84.58 90.7518H90.6V92.4918H84.58V90.7518ZM89.94 90.7518H91.7C91.7 90.7518 91.7 91.4118 91.68 91.6518C91.4 100.752 91.14 103.892 90.32 104.912C89.84 105.572 89.34 105.772 88.58 105.872C87.86 105.952 86.66 105.912 85.52 105.872C85.48 105.332 85.24 104.532 84.9 104.032C86.2 104.132 87.4 104.152 87.88 104.152C88.28 104.152 88.52 104.092 88.74 103.812C89.4 103.112 89.7 99.7318 89.94 91.1318V90.7518ZM84.84 87.5718L86.66 87.9918C85.9 90.9718 84.66 93.9518 83.3 95.8518C82.96 95.5518 82.18 95.0118 81.74 94.7718C83.1 93.0318 84.2 90.2918 84.84 87.5718ZM83.9 96.1918L85.38 95.3518C86.44 96.7518 87.8 98.6918 88.44 99.8718L86.82 100.852C86.24 99.6318 84.94 97.6518 83.9 96.1918ZM94.16 95.7118H111.9V97.5918H94.16V95.7118ZM95.62 90.7718H110.5V92.6518H95.62V90.7718ZM101.96 87.6318H103.96V106.172H101.96V87.6318ZM101.56 96.7518L103.2 97.4318C101.3 100.612 98.06 103.572 94.94 105.172C94.62 104.692 94 103.952 93.54 103.552C96.62 102.212 99.88 99.4718 101.56 96.7518ZM104.38 96.7518C106.06 99.4718 109.34 102.212 112.4 103.552C111.96 103.932 111.34 104.692 111.02 105.192C107.92 103.592 104.72 100.572 102.8 97.4318L104.38 96.7518ZM114.4 90.2918H131.72V92.1318H114.4V90.2918ZM121.94 87.6318H123.92V106.172H121.94V87.6318ZM122.16 96.5718L123.74 97.1918C121.78 100.652 118.44 103.732 114.98 105.352C114.68 104.872 114.06 104.112 113.64 103.732C117.04 102.372 120.42 99.5318 122.16 96.5718ZM123.84 96.6718C125.56 99.5918 128.92 102.352 132.36 103.652C131.88 104.052 131.28 104.832 130.96 105.372C127.5 103.792 124.2 100.732 122.26 97.2918L123.84 96.6718ZM116.96 95.6718L118.18 94.4918C119.1 95.2718 120.38 96.3918 121 97.0918L119.74 98.4118C119.14 97.6918 117.9 96.5118 116.96 95.6718ZM117.78 92.4518L119.62 92.7918C118.9 95.7118 117.5 98.1518 115.64 99.6918C115.32 99.3518 114.6 98.7318 114.16 98.4518C115.96 97.1318 117.2 94.9718 117.78 92.4518ZM126.56 95.7318L127.8 94.6118C129.1 95.5918 130.96 97.0518 131.86 97.9518L130.54 99.2518C129.7 98.3318 127.88 96.8118 126.56 95.7318ZM127.24 92.4518L129.08 92.7718C128.54 95.2318 127.46 97.3518 126.06 98.7118C125.7 98.4118 124.9 97.9118 124.46 97.6918C125.86 96.5118 126.82 94.5918 127.24 92.4518ZM143.06 93.7918C144.78 93.7918 146.18 95.1918 146.18 96.9118C146.18 98.6518 144.78 100.052 143.06 100.052C141.34 100.052 139.92 98.6518 139.92 96.9118C139.92 95.1918 141.34 93.7918 143.06 93.7918ZM143.06 98.8518C144.12 98.8518 144.98 97.9918 144.98 96.9118C144.98 95.8518 144.12 94.9918 143.06 94.9918C142 94.9918 141.12 95.8518 141.12 96.9118C141.12 97.9918 142 98.8518 143.06 98.8518Z" fill="#383838"/>
<defs>
<filter id="filter0_d_351_1590" x="0" y="1.49182" width="327" height="144.5" filterUnits="userSpaceOnUse" color-interpolation-filters="sRGB">
<feFlood flood-opacity="0" result="BackgroundImageFix"/>
<feColorMatrix in="SourceAlpha" type="matrix" values="0 0 0 0 0 0 0 0 0 0 0 0 0 0 0 0 0 0 127 0" result="hardAlpha"/>
<feOffset dx="-7" dy="11"/>
<feComposite in2="hardAlpha" operator="out"/>
<feColorMatrix type="matrix" values="0 0 0 0 0.337255 0 0 0 0 0.356863 0 0 0 0 0.74902 0 0 0 1 0"/>
<feBlend mode="normal" in2="BackgroundImageFix" result="effect1_dropShadow_351_1590"/>
<feBlend mode="normal" in="SourceGraphic" in2="effect1_dropShadow_351_1590" result="shape"/>
</filter>
</defs>
</svg>
