<svg width="23" height="21" viewBox="0 0 23 21" fill="none" xmlns="http://www.w3.org/2000/svg">
<g clip-path="url(#clip0_316_176)">
<path d="M15.7932 17.4035C15.3075 18.7929 13.7521 19.5033 12.3625 18.9459C12.0767 18.8313 11.8213 18.6695 11.6016 18.4737C11.0304 17.9634 10.3755 17.555 9.65164 17.3015L9.45679 17.2332C8.71151 16.9725 7.92279 16.8641 7.13551 16.9091C6.76296 16.9303 6.37879 16.8719 6.00665 16.7219C4.7655 16.2231 4.09789 14.8473 4.47823 13.5737C4.72925 12.734 5.36284 12.1236 6.12793 11.8635C7.22658 11.4898 8.16151 10.7502 8.81574 9.79596C9.57456 8.68787 10.8098 7.67181 12.6438 8.31418C14.459 8.9497 14.7904 10.5194 14.6974 11.8633C14.6165 13.0275 14.9222 14.1849 15.5428 15.1777C15.9455 15.8219 16.0628 16.6335 15.7932 17.4035Z" fill="#5AD5E6"/>
<path d="M5.27038 10.2264C6.30841 10.5896 7.50509 9.86836 7.94323 8.6155C8.38138 7.36263 7.89508 6.05255 6.85706 5.68936C5.81903 5.32617 4.62235 6.04739 4.1842 7.30025C3.74605 8.55312 4.23235 9.86319 5.27038 10.2264Z" fill="#5AD5E6"/>
<path d="M10.5321 6.52619C11.5701 6.88939 12.7668 6.16817 13.205 4.9153C13.6431 3.66243 13.1568 2.35236 12.1188 1.98916C11.0807 1.62597 9.88407 2.34719 9.44592 3.60006C9.00777 4.85292 9.49407 6.163 10.5321 6.52619Z" fill="#5AD5E6"/>
<path d="M17.2186 14.4071C18.2566 14.7702 19.4533 14.049 19.8915 12.7962C20.3296 11.5433 19.8433 10.2332 18.8053 9.87002C17.7673 9.50683 16.5706 10.2281 16.1324 11.4809C15.6943 12.7338 16.1806 14.0439 17.2186 14.4071Z" fill="#5AD5E6"/>
<path d="M15.41 8.23298C16.4481 8.59617 17.6447 7.87495 18.0829 6.62209C18.521 5.36922 18.0347 4.05915 16.9967 3.69595C15.9587 3.33276 14.762 4.05398 14.3238 5.30684C13.8857 6.55971 14.372 7.86979 15.41 8.23298Z" fill="#5AD5E6"/>
</g>
<defs>
<clipPath id="clip0_316_176">
<rect width="16.64" height="16" fill="white" transform="translate(6.84082) rotate(20)"/>
</clipPath>
</defs>
</svg>
