<svg width="118" height="60" viewBox="0 0 118 60" fill="none" xmlns="http://www.w3.org/2000/svg">
<g clip-path="url(#clip0_360_1717)">
<path d="M36.0997 60.0002C36.0997 60.0002 33.523 36.2223 32.5414 24.4303C32.4316 23.1 32.3929 21.7374 32.7416 20.4458C33.3422 18.2307 35.131 16.4548 35.5831 14.2075C36.0287 12.0054 34.976 9.5772 33.0645 8.39541C31.1529 7.21362 28.5117 7.3557 26.7422 8.74414C26.7874 6.90365 26.5162 5.02441 25.6572 3.39703C24.7919 1.7761 23.2807 0.439327 21.4725 0.0841449C18.9539 -0.406652 16.2093 1.31114 15.5441 3.79096C14.104 1.20781 10.0549 0.930125 7.88504 2.93206C5.71518 4.934 5.42457 8.46645 6.7097 11.1271C4.78524 10.8752 2.75745 11.6373 1.47232 13.0967C0.187194 14.5498 -0.310066 16.6615 0.193652 18.5343C0.936313 21.3305 3.5776 23.2097 4.79815 25.8381C5.6506 27.6721 5.76038 29.7451 5.85079 31.7664C6.28993 41.1884 5.32124 60.0002 5.32124 60.0002H36.0997Z" fill="#FF9F52"/>
<path d="M35.5831 14.2075C36.0287 12.0054 34.976 9.5772 33.0645 8.39541C31.1529 7.21362 28.5117 7.3557 26.7422 8.74414C26.7874 6.90365 26.5162 5.02441 25.6572 3.39703C24.7919 1.7761 23.2807 0.439327 21.4725 0.0841449C18.9539 -0.406652 16.2093 1.31114 15.5441 3.79096C14.104 1.20781 10.0549 0.930125 7.88504 2.93206C5.71518 4.934 5.42457 8.46645 6.7097 11.1271C4.78524 10.8752 2.75745 11.6373 1.47232 13.0967C0.187194 14.5498 -0.310066 16.6615 0.193652 18.5343C0.936313 21.3305 3.5776 23.2097 4.79815 25.8381C5.6506 27.6721 5.76038 29.7451 5.85079 31.7664C5.97995 34.5691 5.98641 38.1984 5.93475 41.9182H7.05843C7.5686 41.9182 8.67937 38.8313 8.87956 38.4051C9.57702 36.9069 10.5586 35.0276 10.5328 33.3615C10.5522 34.7693 10.7911 36.1707 11.2302 37.5075C11.3982 38.0176 12.0633 40.3037 12.7801 40.3683C12.8899 40.3812 12.9997 40.3877 13.1095 40.4006C13.723 38.1726 14.5044 36.2417 15.4666 34.1429C15.4925 34.0848 15.5893 34.1106 15.5829 34.1752C15.3439 36.5129 14.95 39.2446 16.2868 41.3305C17.6688 43.4939 19.3543 39.4384 19.5997 38.3599C20.0259 36.4871 19.9743 34.5368 20.5684 32.7028C20.6394 32.4897 20.7686 32.2443 20.9882 32.2572C21.1625 32.2701 21.2723 32.4509 21.3434 32.6124C21.6469 33.2969 21.8277 34.0267 22.0279 34.7499C22.5058 36.4354 23.1257 38.0757 23.8749 39.6579C24.7209 37.7012 24.8629 35.809 24.9921 33.7167C26.1028 36.274 26.232 39.1736 26.077 41.9182H26.3482C26.4839 41.6469 26.6066 41.3757 26.7034 41.1174C26.9359 40.4845 28.6214 36.5194 28.0596 35.9705C28.5956 36.4936 29.067 37.0877 29.4545 37.727C28.8604 35.9576 28.5052 34.3173 28.5698 32.4509C28.5698 32.2701 28.8152 32.1991 28.912 32.3605C30.533 35.0922 32.1927 37.5979 34.0138 40.1487C33.439 34.4723 32.8837 28.6796 32.5285 24.4367C32.4187 23.1064 32.3799 21.7438 32.7287 20.4522C33.3293 18.2372 35.1181 16.4613 35.5702 14.2139L35.5831 14.2075Z" fill="#B85C52"/>
<path d="M23.0045 4.43672C21.7839 2.42833 19.1878 2.58978 18.3354 4.80482C17.5604 6.82613 17.7477 10.6492 20.4084 11.3079C21.4481 11.5662 22.5782 11.0367 23.2176 10.1778C23.8504 9.31887 24.0313 8.18228 23.9021 7.12319C23.7988 6.29013 23.5082 5.25687 23.0045 4.43672Z" fill="#FFD18E"/>
<path d="M14.7184 6.72284C14.473 6.316 14.1824 5.95436 13.8531 5.67667C13.4139 5.30212 12.8973 5.01151 12.3354 4.90819C11.7736 4.80486 11.1536 4.90819 10.7016 5.26337C10.4239 5.47648 10.2172 5.77354 10.0429 6.07706C8.71901 8.40189 9.01607 12.3476 11.9609 13.2647C13.1233 13.6263 14.5505 13.1936 15.1188 12.1152C15.9067 10.6169 15.6613 8.29856 14.7184 6.72284Z" fill="#FFD18E"/>
<path d="M31.7554 12.2643C31.5875 11.7218 31.2969 11.2568 30.8707 10.9275C30.212 10.4238 29.2368 10.5594 28.5523 11.0179C27.4415 11.767 26.3114 13.2265 26.0918 14.5568C25.7302 16.7137 27.8807 18.58 29.9408 17.6049C30.2184 17.4693 30.4768 17.2885 30.7028 17.0754C31.7361 16.1067 32.2656 13.8723 31.7554 12.2643Z" fill="#FFD18E"/>
<path d="M10.4828 19.8837C10.5926 19.6254 10.6701 19.3541 10.7089 19.0829C11.0189 16.7452 9.0169 14.5172 6.65975 14.6722C6.49185 14.6851 6.31748 14.7045 6.16895 14.7884C5.98167 14.8853 5.85251 15.0597 5.73627 15.234C4.4576 17.1972 5.13568 22.1246 8.33235 21.6596C9.30104 21.5175 10.1018 20.7878 10.4893 19.8837H10.4828Z" fill="#FFD18E"/>
<path d="M27.8023 23.5266C27.8023 22.5063 27.4472 21.4795 26.6528 20.627C25.8585 19.7811 24.8317 19.1482 24.1601 18.2053C23.7145 17.5789 23.4432 16.8427 22.9783 16.2422C21.8029 14.7181 19.3683 14.3758 17.8119 15.5124C16.5914 16.4101 16.0295 17.9341 15.0996 19.1353C14.5378 19.8586 13.8338 20.4656 13.2978 21.2018C11.6446 23.462 11.5671 27.7824 14.5636 28.9577C16.0554 29.5454 18.1348 28.9125 19.4329 28.1182C19.717 27.9438 20.0076 27.7565 20.3434 27.6919C20.9311 27.5886 21.4994 27.9115 22.0677 28.0988C25.1998 29.132 27.8217 26.3423 27.8088 23.5202L27.8023 23.5266Z" fill="#FFD18E"/>
</g>
<g clip-path="url(#clip1_360_1717)">
<path d="M79.7339 18.5365C79.5308 14.9546 79.6601 12.0497 78.3307 8.72012C77.4629 6.55375 75.2103 4.28274 73.1424 5.35362C72.847 3.21802 70.7914 0.608522 68.6988 0.0853917C67.671 -0.166942 64.206 0.0546193 64.206 1.35937C64.206 0.0607738 60.741 -0.160787 59.7132 0.0915462C57.6207 0.608522 55.1958 3.22417 54.9004 5.35978C52.8324 4.2889 50.5799 6.5599 49.7121 8.72628C48.3766 12.0497 48.8812 14.9608 48.6781 18.5365C47.9027 32.3472 48.1673 46.1701 48.0996 59.9992H80.3125C80.2448 46.1701 80.5094 32.3472 79.7339 18.5427V18.5365Z" fill="#FFD1A7"/>
<path d="M68.385 39.1791C67.2341 35.2464 67.9357 31.9168 72.1454 30.4889C75.2288 29.4427 78.6015 30.3412 80.214 33C80.2448 35.0125 80.2694 37.0188 80.2817 39.0314C78.9154 41.0377 76.8351 42.6625 74.4103 42.4717C73.4871 42.3979 72.8224 43.2718 72.7793 44.1026C72.5947 47.543 68.305 49.5986 66.0339 46.4844C64.6615 44.6073 65.8185 42.1701 67.591 41.1362C68.2496 40.7485 68.6004 39.9238 68.385 39.1852V39.1791ZM53.7987 59.9997C59.3316 45.3828 48.2596 42.4286 48.1119 42.404C48.0996 48.2692 48.1242 54.1344 48.0996 59.9997H53.7987ZM61.1411 9.68066C60.901 13.2564 61.1103 17.3799 63.2952 20.3771C66.1878 24.3468 72.1146 25.4915 76.7305 24.6853C77.8322 24.4945 78.9092 24.2545 79.9863 23.996C79.9186 22.1804 79.8324 20.3587 79.7339 18.5431C79.5308 14.9612 79.6601 12.0563 78.3307 8.72671C77.4629 6.56034 75.2103 4.28934 73.1424 5.36022C72.847 3.22461 70.7914 0.615114 68.6988 0.0919835C67.671 -0.16035 64.206 0.0612111 64.206 1.36596C64.206 1.0767 61.4796 4.64014 61.1411 9.68066Z" fill="#FFEFD6"/>
<path d="M68.658 29.5962C68.098 29.4731 67.0209 29.2762 65.9685 28.9869C64.4422 28.5684 62.9528 28.6546 61.4449 29.0669C60.614 29.2946 59.7647 29.5039 58.9092 29.5777C57.5737 29.6947 56.552 29.0731 55.9551 27.8791C55.0503 26.082 54.9642 24.2541 55.9427 22.4324C56.4536 21.4723 57.2167 20.8014 58.2938 20.6107C59.2477 20.4383 59.777 19.8106 60.2817 19.0782C60.7187 18.4443 61.1987 17.835 61.6911 17.238C62.9651 15.6932 65.4207 15.7732 66.7624 17.318C67.464 18.1242 68.018 19.0536 68.6888 19.8844C68.9288 20.1798 69.3042 20.4999 69.6551 20.5491C72.3446 20.9553 73.4155 22.7832 73.2862 25.325C73.2616 25.7804 73.1878 26.2358 73.077 26.6728C72.5785 28.6669 71.2429 29.67 68.6703 29.6023L68.658 29.5962Z" fill="#9D424F"/>
<path d="M72.4373 8.91704C72.4558 11.0588 70.991 13.0344 69.0339 13.5144C67.5998 13.8652 66.2889 13.3421 65.4827 12.0989C64.0795 9.92637 64.5595 6.5291 66.5105 4.83662C67.9814 3.56264 69.9324 3.72881 71.1633 5.23666C71.945 6.19676 72.425 7.58767 72.4373 8.91704Z" fill="#9D424F"/>
<path d="M55.992 8.99108C55.9612 7.32322 56.3305 6.28311 57.0014 5.35379C58.0846 3.85825 59.974 3.56899 61.4819 4.63987C63.8267 6.30158 64.3806 10.2528 62.5835 12.4868C61.3834 13.9824 59.5001 14.1916 57.9738 12.9669C56.5521 11.8221 56.0659 10.2466 55.992 8.99724V8.99108Z" fill="#9D424F"/>
<path d="M70.375 16.4751C70.5412 14.6842 71.1382 13.0655 72.8861 12.1177C74.3201 11.3423 75.8464 11.7669 76.6772 13.164C77.5881 14.7088 77.5143 16.3151 76.7573 17.8783C76.468 18.4753 76.0249 19.0477 75.5202 19.4785C73.3046 21.3679 71.0089 19.8047 70.5473 17.7122C70.4612 17.3367 70.4427 16.9429 70.3873 16.4813L70.375 16.4751Z" fill="#9D424F"/>
<path d="M58.0598 16.3824C58.0598 18.3703 56.7242 20.0504 54.9825 20.2659C53.8439 20.4074 52.9576 19.9335 52.3114 19.0596C51.2221 17.5702 50.7666 15.9269 51.2959 14.0929C51.8129 12.2958 53.37 11.4773 55.1363 12.0742C56.8535 12.6589 58.0659 14.4437 58.0598 16.3824Z" fill="#9D424F"/>
</g>
<g clip-path="url(#clip2_360_1717)">
<path d="M93.3359 18.7585C93.6888 20.0938 94.1359 21.4114 94.3653 22.7761C94.6065 24.2232 94.5947 25.6938 94.583 27.1585C94.4888 38.1055 94.2182 49.0526 93.7771 59.9938H116.866C117.171 48.3408 117.477 36.6938 117.783 25.0408C117.942 18.9291 118.777 10.6761 115.583 5.14673C114.589 3.42908 112.624 2.15849 110.665 2.47026C109.371 0.0702578 105.836 -0.770919 103.595 0.79967C103.107 1.14085 102.389 2.08202 102.389 2.08202C102.389 2.08202 101.048 1.71732 99.7595 2.04673C97.9065 2.5232 96.7359 4.29379 96.1006 6.09967C95.9712 6.45849 95.9241 7.12908 95.9241 7.12908C95.9241 7.12908 94.7888 7.37026 94.4006 7.49379C92.6241 8.07026 92.2359 10.3879 92.3241 12.2467C92.43 14.4467 92.7712 16.635 93.3359 18.7585Z" fill="#984B4A"/>
<path d="M94.7715 36.7762C94.6715 36.7762 94.5538 36.7585 94.448 36.7409C94.4009 39.4585 94.3421 42.1703 94.2715 44.8879C96.4715 45.0585 98.7892 44.4997 100.795 43.6997C102.054 43.1997 103.266 42.5585 104.336 41.7291C105.342 40.9526 106.213 39.8526 107.013 38.8644C107.595 38.1467 108.154 37.3585 108.295 36.4467C107.095 37.0173 105.919 37.6232 104.754 38.2644C105.542 37.6938 106.136 36.8703 106.442 35.9467C106.595 35.482 106.648 34.935 106.466 34.5056C106.401 34.3526 106.307 34.2173 106.172 34.1115C105.766 33.7762 105.177 33.8056 104.66 33.9115C105.125 33.5291 105.642 32.9997 105.477 32.4173C105.372 32.0467 105.001 31.7997 104.619 31.7291C104.236 31.6585 103.848 31.7291 103.466 31.8056C102.93 31.9056 102.389 32.0115 101.854 32.1115C101.907 31.8644 101.954 31.6232 102.007 31.3762C102.048 31.1703 100.707 31.6644 100.601 31.7526C100.172 32.1056 99.7127 32.4585 99.2833 32.8291C97.6362 34.2467 97.195 36.835 94.7774 36.7644L94.7715 36.7762Z" fill="#540000"/>
<path d="M116.93 57.5231C116.43 57.4114 115.93 57.2878 115.488 57.0878C114.641 56.7114 113.788 56.3114 112.929 55.9467C113.147 55.5937 113.218 55.1525 113.118 54.7525C113.059 54.5114 112.929 54.2643 112.7 54.1643C112.541 54.0937 112.353 54.1055 112.177 54.1172C111.106 54.1937 110.041 54.2702 108.971 54.3467C109.853 54.1937 110.677 53.7172 111.259 53.0349C111.377 52.8937 111.494 52.7172 111.441 52.5408C111.365 52.2702 111.006 52.2408 110.724 52.2643C108.824 52.4172 106.929 52.6114 105.041 52.8584C104.165 52.9702 103.218 53.2231 102.347 53.1702C101.541 53.1231 100.712 52.9937 99.9 52.9349C97.9529 52.7937 95.9646 52.9055 94.047 52.6172C93.9646 55.0819 93.8764 57.5408 93.7764 59.9996H116.865C116.888 59.1761 116.906 58.3525 116.93 57.529V57.5231Z" fill="#540000"/>
<path d="M112.701 41.9642C111.413 42.6701 110.29 43.6406 108.972 44.3054C106.766 45.423 104.578 46.4642 102.207 47.2348C102.131 47.3583 102.319 47.4701 102.46 47.4936C102.854 47.5642 103.248 47.6289 103.642 47.6995C103.278 47.8112 102.954 48.0465 102.731 48.3583C103.231 48.523 103.748 48.623 104.278 48.6524C104.054 48.7465 103.819 48.8524 103.672 49.0406C103.525 49.2348 103.501 49.5465 103.689 49.6995C103.766 49.7642 103.866 49.7877 103.96 49.8112C106.237 50.3759 108.807 49.523 110.942 48.7465C113.072 47.9701 115.119 47.0054 117.237 46.2112C117.319 42.9583 117.407 39.7054 117.495 36.4465C115.066 38.8348 112.648 41.0524 109.584 42.6524C110.619 43.0289 111.742 42.4877 112.713 41.9583L112.701 41.9642Z" fill="#540000"/>
<path d="M112.443 23.7105C111.984 23.7281 111.119 23.7869 110.249 23.7752C108.99 23.7575 107.86 24.1164 106.778 24.734C106.184 25.0693 105.566 25.4046 104.925 25.6281C103.919 25.9811 103.007 25.7046 102.313 24.9046C101.26 23.6987 100.831 22.3046 101.219 20.7105C101.554 19.3281 102.831 18.9517 103.501 17.7928C103.937 17.0458 104.125 16.1634 104.537 15.4164C104.878 14.8046 105.472 14.1046 106.037 13.6987C106.943 13.0517 108.496 12.7458 109.49 13.334C109.813 13.5281 110.084 13.7987 110.349 14.0693C110.813 14.5399 111.078 15.1105 111.472 15.634C112.113 16.4928 113.107 16.6281 113.902 17.2517C114.607 17.8046 114.972 18.634 115.149 19.4928C115.219 19.8458 115.255 20.2164 115.255 20.5752C115.266 22.2105 114.437 23.2458 112.443 23.7046V23.7105Z" fill="#FF9275"/>
<path d="M112.108 6.72865C112.12 6.9463 112.12 7.16395 112.108 7.38159C112.026 8.56394 111.414 10.2698 110.255 10.7698C109.179 11.2345 108.079 10.9992 107.285 10.1286C105.897 8.611 105.826 5.88159 107.132 4.29336C108.114 3.09924 109.673 2.96983 110.832 3.99336C111.632 4.69336 112.038 5.68159 112.108 6.72865Z" fill="#FF9275"/>
<path d="M99.0902 8.94031C98.849 7.63442 98.9961 6.76972 99.402 5.95207C100.055 4.63443 101.496 4.15795 102.82 4.79913C104.879 5.79325 105.831 8.82266 104.714 10.8109C103.967 12.1403 102.52 12.558 101.161 11.7932C99.8961 11.0815 99.302 9.91089 99.0843 8.94031H99.0902Z" fill="#FF9275"/>
<path d="M111.984 11.423C112.131 10.6935 112.284 9.96413 112.431 9.2406C112.543 8.68177 112.672 8.09354 113.061 7.67589C114.025 6.62295 115.655 7.31707 116.025 8.52883C116.49 10.0465 116.078 11.7994 114.996 12.9582C114.172 13.8347 112.055 14.0759 111.878 12.4641C111.843 12.1406 111.908 11.8171 111.972 11.4935C111.972 11.47 111.984 11.4465 111.984 11.423Z" fill="#FF9275"/>
<path d="M101.613 14.1522C101.631 14.2404 101.649 14.3287 101.66 14.4169C101.743 14.9169 101.819 15.4346 101.737 15.9346C101.654 16.4346 101.407 16.9404 100.966 17.1993C100.549 17.4463 100.025 17.4463 99.5485 17.3463C98.2191 17.0816 96.272 15.711 96.072 14.264C95.8308 12.4993 96.8896 10.8228 98.8191 11.1346C100.431 11.3993 101.296 12.6757 101.607 14.1463L101.613 14.1522Z" fill="#FF9275"/>
</g>
<defs>
<clipPath id="clip0_360_1717">
<rect width="36.0998" height="60" fill="white"/>
</clipPath>
<clipPath id="clip1_360_1717">
<rect width="32.2128" height="60" fill="white" transform="translate(48.0996 -0.000244141)"/>
</clipPath>
<clipPath id="clip2_360_1717">
<rect width="25.6885" height="60" fill="white" transform="translate(92.3125 -0.000244141)"/>
</clipPath>
</defs>
</svg>
