<svg width="118" height="60" viewBox="0 0 118 60" fill="none" xmlns="http://www.w3.org/2000/svg">
<g clip-path="url(#clip0_360_1748)">
<path d="M77.0476 59.9999C77.0476 59.9999 74.4709 36.2221 73.4893 24.43C73.3795 23.0997 73.3408 21.7371 73.6895 20.4455C74.2901 18.2305 76.0789 16.4546 76.531 14.2072C76.9766 12.0051 75.9239 9.57696 74.0124 8.39517C72.1009 7.21338 69.4596 7.35545 67.6902 8.74389C67.7354 6.9034 67.4641 5.02417 66.6052 3.39678C65.7399 1.77586 64.2287 0.439083 62.4205 0.0839008C59.902 -0.406897 57.1574 1.31089 56.4922 3.79071C55.0521 1.20757 51.003 0.929881 48.8332 2.93182C46.6634 4.93375 46.3728 8.4662 47.6579 11.1268C45.7334 10.875 43.7057 11.637 42.4205 13.0965C41.1354 14.5495 40.6382 16.6612 41.1419 18.534C41.8845 21.3303 44.5258 23.2095 45.7463 25.8379C46.5988 27.6719 46.7086 29.7449 46.799 31.7662C47.2381 41.1882 46.2694 59.9999 46.2694 59.9999H77.0476Z" fill="#FFBA6C"/>
<path d="M77.0475 60.0005C77.0475 60.0005 75.601 46.6456 74.4579 34.9827C74.3546 33.9494 72.9791 32.5093 72.2752 31.8183C71.4098 30.9724 70.1828 30.1781 68.9817 29.9197C68.7879 30.3653 68.2067 30.5397 67.7353 30.4299C67.2639 30.3201 66.87 29.9972 66.4889 29.6873C66.5664 29.9649 66.3275 30.2555 66.0498 30.3266C65.7721 30.3976 65.4751 30.3201 65.2038 30.2233C65.094 30.7786 64.487 31.108 63.9187 31.1274C63.3569 31.1467 62.808 30.9401 62.259 30.8109C61.426 30.6172 60.5542 30.5914 59.7146 30.7463C59.3917 30.8045 59.0753 30.8949 58.7912 31.0628C57.8354 31.6504 57.5383 33.097 56.4663 33.4264C56.363 33.2972 56.2597 33.168 56.1564 33.0389C56.2274 33.4264 55.7818 33.7557 55.3943 33.704C55.0069 33.6524 54.6969 33.3489 54.4709 33.026C54.2255 32.6708 54.0382 32.2639 53.9284 31.8442C53.9284 32.5287 53.8251 33.2132 53.612 33.8655C53.7024 33.5813 50.7576 32.7483 50.4218 32.7677C49.1883 32.8387 48.0388 32.8581 46.8118 32.5998C47.1606 42.2543 46.25 59.994 46.25 59.994H77.0475V60.0005ZM53.3343 43.5394C53.3924 43.2617 53.4763 43.0098 53.5732 42.758C54.3998 40.6592 56.5826 38.2245 59.0172 39.4774C59.4822 39.7163 60.1925 39.7938 60.4121 39.3159C60.735 40.2588 61.0514 41.2016 61.3743 42.1509C61.9491 42.2349 62.5561 41.828 62.6982 41.2662C62.6013 42.3318 62.8984 43.4231 63.5183 44.3014C63.9704 43.972 64.3643 43.5587 64.6807 43.0938C64.9972 44.5274 65.1392 46.271 64.6355 47.6853C64.4289 48.273 64.0027 48.8154 63.4085 49.0092C63.6991 49.2869 63.7766 49.7647 63.5829 50.1135C63.3956 50.4687 62.9565 50.6688 62.5626 50.5784C62.4851 51.0176 62.1815 51.405 61.807 51.6504C61.4324 51.8958 60.9868 52.0185 60.5412 52.0831C58.1325 52.4448 55.5558 51.0951 54.4902 48.8994C54.0834 48.9963 53.6701 48.6734 53.5216 48.2794C53.373 47.8855 53.4699 47.5239 53.4763 47.117C53.4763 46.7554 53.3666 46.426 53.302 46.0644C53.147 45.2313 53.1535 44.3724 53.3278 43.5394H53.3343Z" fill="#FFEB98"/>
<path d="M53.6572 18.6247C53.6314 16.9586 52.8112 15.5572 51.9007 14.1946C50.4541 12.9224 48.6911 11.915 46.8894 11.0754C45.2103 11.0819 43.5313 11.8246 42.4205 13.0903C41.1354 14.5498 40.6382 16.6615 41.1419 18.5343C41.8845 21.3305 44.5258 23.2098 45.7463 25.8381C45.8561 26.0771 45.9595 26.3225 46.0434 26.5743C46.1015 26.5872 46.1597 26.6001 46.2242 26.6131C47.0573 26.6131 47.6837 26.7745 48.4651 27.0522C48.8397 27.1813 49.2659 27.3105 49.6081 27.1168C49.3886 26.7293 49.2659 26.2837 49.253 25.8381C49.7954 26.5033 50.7512 26.8003 51.5778 26.5614C51.4745 25.1407 51.8684 23.9266 52.624 22.7706C53.3925 21.6082 53.6766 20.0067 53.6572 18.6311V18.6247Z" fill="#FFEB98"/>
<path d="M63.9536 4.43672C62.7331 2.42833 60.137 2.58978 59.2846 4.80482C58.5096 6.82613 58.6969 10.6492 61.3576 11.3079C62.3973 11.5662 63.5274 11.0367 64.1667 10.1778C64.7996 9.31887 64.9804 8.18228 64.8513 7.12319C64.7479 6.29013 64.4573 5.25687 63.9536 4.43672Z" fill="#AB5452"/>
<path d="M55.6686 6.72284C55.4232 6.316 55.1326 5.95436 54.8032 5.67667C54.3641 5.30212 53.8474 5.01151 53.2856 4.90819C52.7238 4.80486 52.1038 4.90819 51.6518 5.26337C51.3741 5.47648 51.1674 5.77354 50.9931 6.07706C49.6692 8.40189 49.9663 12.3476 52.9111 13.2647C54.0735 13.6263 55.5007 13.1936 56.069 12.1152C56.8568 10.6169 56.6114 8.29856 55.6686 6.72284Z" fill="#AB5452"/>
<path d="M72.7046 12.2635C72.5367 11.7211 72.2461 11.2561 71.8199 10.9267C71.1612 10.423 70.186 10.5586 69.5015 11.0172C68.3907 11.7663 67.2606 13.2257 67.0411 14.5561C66.6794 16.713 68.8299 18.5793 70.8899 17.6042C71.1676 17.4686 71.4259 17.2877 71.652 17.0746C72.6852 16.106 73.2148 13.8715 72.7046 12.2635Z" fill="#AB5452"/>
<path d="M51.432 19.8839C51.5418 19.6256 51.6193 19.3544 51.658 19.0832C51.968 16.7454 49.9661 14.5174 47.609 14.6724C47.4411 14.6854 47.2667 14.7047 47.1182 14.7887C46.9309 14.8855 46.8017 15.0599 46.6855 15.2343C45.4068 17.1975 46.0849 22.1248 49.2815 21.6598C50.2502 21.5178 51.051 20.788 51.4385 19.8839H51.432Z" fill="#AB5452"/>
<path d="M68.7524 23.5261C68.7524 22.5058 68.3972 21.479 67.6029 20.6266C66.8086 19.7806 65.7818 19.1477 65.1101 18.2049C64.6646 17.5784 64.3933 16.8423 63.9284 16.2417C62.753 14.7176 60.3184 14.3753 58.7621 15.5119C57.5415 16.4096 56.9797 17.9336 56.0498 19.1348C55.4879 19.8581 54.784 20.4651 54.248 21.2013C52.5948 23.4616 52.5173 27.7819 55.5138 28.9572C57.0055 29.5449 59.085 28.912 60.383 28.1177C60.6671 27.9433 60.9577 27.7496 61.2935 27.6915C61.8812 27.5881 62.4495 27.911 63.0178 28.0983C66.1499 29.1316 68.7718 26.3418 68.7588 23.5197L68.7524 23.5261Z" fill="#AB5452"/>
</g>
<defs>
<clipPath id="clip0_360_1748">
<rect width="36.0994" height="60" fill="white" transform="translate(40.9502)"/>
</clipPath>
</defs>
</svg>
