<svg width="118" height="60" viewBox="0 0 118 60" fill="none" xmlns="http://www.w3.org/2000/svg">
<g clip-path="url(#clip0_360_1686)">
<path d="M48.5098 26.1946C49.8971 27.6765 49.7646 30.2808 49.7646 32.1662C49.771 41.4547 49.4115 50.7432 48.6863 60.0002H74.5718C74.5718 59.9623 74.5718 59.9308 74.5718 59.893C74.1808 52.4962 73.8592 45.0995 73.607 37.7027C73.4809 33.9319 73.3674 30.1547 73.2728 26.3838C73.1908 23.1552 74.3385 21.2761 75.6312 18.3943C76.6842 16.0422 77.0311 13.3812 76.6212 10.8399C76.4825 9.98861 76.0221 9.01121 75.3285 8.48782C71.9549 5.92766 69.1425 9.27605 68.3416 9.84358C69.338 5.68803 68.5245 -0.0565794 63.4357 0.000173119C61.7268 0.0190906 59.6711 1.20459 58.8009 2.72429C58.1577 3.85304 57.7415 5.12051 57.5965 6.41321C56.4047 4.64757 54.8598 3.00175 52.8482 2.3018C50.8366 1.60185 48.3017 2.0874 47.1162 3.86565C46.2523 5.16465 46.2523 6.89245 46.7442 8.37432C47.236 9.85619 48.163 11.1489 49.0773 12.4164C46.7883 12.2398 44.5182 11.5903 42.7463 13.3812C41.422 14.7243 40.8923 16.7989 41.4094 18.6087C41.8634 20.2041 43.03 21.4968 44.1903 22.6823C45.483 24.0065 47.318 24.9208 48.5098 26.1883V26.1946Z" fill="#FFBD59"/>
<path d="M74.1878 51.9037C73.9671 47.168 73.7653 42.4386 73.6076 37.6966C73.5509 36.0193 73.513 34.3483 73.4626 32.6709C67.554 34.4491 62.667 41.209 66.9991 46.8464C68.853 49.2615 71.5772 50.5164 74.1941 51.8974L74.1878 51.9037Z" fill="#FFE8CA"/>
<path d="M59.6228 57.3959C57.7941 53.2214 56.4573 48.3344 54.0358 44.4815C52.8882 42.6591 51.3748 41.5493 49.6533 40.8115C49.5019 47.2182 49.1866 53.6124 48.6885 60.0002H60.9218C60.4425 59.1678 60.0138 58.2913 59.6165 57.3959H59.6228Z" fill="#FFE8CA"/>
<path d="M66.5966 4.54029C66.1425 3.45569 65.1967 2.61071 63.9355 2.57287C61.142 2.4909 60.1457 6.19242 60.2781 8.39946C60.3412 9.42101 60.543 10.4678 61.1294 11.3065C61.7159 12.1451 62.7626 12.719 63.7652 12.5109C64.4526 12.3721 65.0264 11.8929 65.4804 11.3569C66.9938 9.57865 67.5046 6.7158 66.5966 4.54029Z" fill="#E07743"/>
<path d="M57.3017 9.63544C57.1188 7.93917 55.8198 6.15462 54.4388 5.20244C53.02 4.22504 51.103 4.42052 50.3652 6.11048C49.7851 7.44101 50.2013 9.09945 50.6994 10.3858C51.4183 12.2271 53.0263 13.6901 55.1009 13.0595C56.1225 12.7505 56.9422 11.874 57.2197 10.8399C57.3269 10.4426 57.3458 10.039 57.3017 9.62914V9.63544Z" fill="#E07743"/>
<path d="M74.0124 15.2221C74.3719 14.0492 74.5421 12.3466 73.8107 11.2746C72.7387 9.70449 70.4055 11.0855 69.4281 12.1196C68.5705 13.0214 68.0597 14.251 68.0219 15.4932C67.9715 17.076 69.302 18.4128 70.9037 18.1354C72.2468 17.9021 73.4449 16.7544 73.9242 15.5059C73.9557 15.4176 73.9872 15.323 74.0187 15.2221H74.0124Z" fill="#E07743"/>
<path d="M52.4774 20.2794C52.8432 19.3839 52.799 18.2552 52.4333 17.2904C51.6514 15.2347 48.8137 13.9988 46.8715 15.405C45.9194 16.0923 45.5347 17.385 45.7617 18.5074C45.9635 19.4911 46.5563 20.7019 47.4265 21.2442C47.912 21.5468 48.4795 21.7108 49.0407 21.8117C49.4885 21.8937 49.9488 21.9378 50.3965 21.8747C51.4685 21.7234 52.1369 21.0928 52.4711 20.2794H52.4774Z" fill="#E07743"/>
<path d="M67.2973 20.4686C66.5091 20.0146 65.6326 19.6552 65.3046 18.7534C65.229 18.539 65.1911 18.312 65.1407 18.0913C64.6425 16.0482 62.4355 14.7177 60.3924 15.1087C57.6683 15.6321 57.8701 18.4003 56.7476 20.3299C55.7765 21.9946 53.8659 22.827 54.5721 25.0845C54.9568 26.3204 56.0666 27.2726 57.3215 27.6005C58.5763 27.9221 59.9447 27.6573 61.0671 27.0078C61.2815 26.8817 61.5022 26.7366 61.7482 26.7177C62.1139 26.6862 62.4481 26.9132 62.7697 27.0961C64.2957 27.9537 66.3703 27.7014 67.6441 26.5033C68.9809 25.2485 69.5422 22.5433 68.1612 21.1118C67.9153 20.8596 67.6126 20.6641 67.2973 20.4812V20.4686Z" fill="#E07743"/>
</g>
<defs>
<clipPath id="clip0_360_1686">
<rect width="35.5712" height="60" fill="white" transform="translate(41.2148)"/>
</clipPath>
</defs>
</svg>
