<svg width="118" height="60" viewBox="0 0 118 60" fill="none" xmlns="http://www.w3.org/2000/svg">
<g clip-path="url(#clip0_360_1697)">
<path d="M56.2637 60C56.2637 60 53.6869 36.2221 52.7053 24.43C52.5956 23.0997 52.5568 21.7371 52.9055 20.4455C53.5061 18.2305 55.295 16.4546 55.747 14.2072C56.1926 12.0051 55.14 9.57696 53.2284 8.39517C51.3169 7.21338 48.6756 7.35545 46.9061 8.74389C46.9514 6.9034 46.6801 5.02417 45.8212 3.39678C44.9559 1.77586 43.4447 0.439083 41.6365 0.0839008C39.1179 -0.406897 36.3733 1.31089 35.7081 3.79071C34.268 1.20757 30.2189 0.929881 28.0491 2.93182C25.8792 4.93376 25.5886 8.46621 26.8737 11.1268C24.9493 10.875 22.9215 11.637 21.6364 13.0965C20.3513 14.5495 19.854 16.6612 20.3577 18.534C21.1004 21.3303 23.7417 23.2095 24.9622 25.8379C25.8146 27.6719 25.9244 29.7449 26.0148 31.7662C26.454 41.1882 25.4853 60 25.4853 60H56.2637Z" fill="#FF9F52"/>
<path d="M55.747 14.2072C56.1926 12.0051 55.14 9.57696 53.2284 8.39517C51.3169 7.21338 48.6756 7.35545 46.9062 8.74389C46.9514 6.9034 46.6801 5.02417 45.8212 3.39678C44.9559 1.77586 43.4447 0.439083 41.6365 0.0839008C39.1179 -0.406897 36.3733 1.31089 35.7081 3.79071C34.268 1.20757 30.2189 0.929881 28.0491 2.93182C25.8792 4.93376 25.5886 8.46621 26.8737 11.1268C24.9493 10.875 22.9215 11.637 21.6364 13.0965C20.3513 14.5495 19.854 16.6612 20.3577 18.534C21.1004 21.3303 23.7417 23.2095 24.9622 25.8379C25.8146 27.6719 25.9244 29.7449 26.0148 31.7662C26.1052 33.7164 26.1375 36.0736 26.1311 38.5792C26.1311 38.5792 27.526 38.5792 27.6099 38.5792C28.3978 38.5792 29.0694 38.6696 29.7088 39.1798C29.7669 38.76 29.8315 38.3338 30.0252 37.9593C30.2189 37.5847 30.5547 37.2554 30.9745 37.1908C31.4782 37.1133 31.9626 37.4168 32.3371 37.7591C32.7569 38.1465 33.1121 38.6115 33.3768 39.1217C33.0733 38.3403 33.0346 37.462 33.2541 36.6483C33.2929 36.5127 33.3381 36.3706 33.4414 36.2673C33.7449 35.9573 34.2616 36.1834 34.6232 36.4158C35.3078 36.8614 36.5929 38.1272 37.497 37.772C37.7811 37.6557 37.8393 37.3716 38.0524 37.1779C38.3494 36.9131 38.8467 36.7064 39.1954 36.5127C40.1189 36.009 41.1651 35.6473 42.2242 35.7959C43.6901 36.0025 44.8396 37.1133 46.0214 38.0045C46.5574 38.4113 47.2097 38.7988 47.8684 38.6567C48.5077 38.5211 48.9339 37.9334 49.4183 37.4943C50.6582 36.3835 51.7883 37.6235 52.6472 38.5857H54.0228C53.5061 33.4194 53.0153 28.2854 52.6924 24.4365C52.5826 23.1062 52.5439 21.7436 52.8926 20.452C53.4932 18.237 55.2821 16.461 55.7341 14.2137L55.747 14.2072Z" fill="#E87552"/>
<path d="M43.1665 4.43672C41.946 2.42833 39.3499 2.58978 38.4975 4.80482C37.7225 6.82613 37.9098 10.6492 40.5705 11.3079C41.6102 11.5662 42.7403 11.0367 43.3797 10.1778C44.0125 9.31887 44.1933 8.18228 44.0642 7.12319C43.9609 6.29013 43.6703 5.25687 43.1665 4.43672Z" fill="#FFCFB8"/>
<path d="M34.8815 6.72284C34.6361 6.316 34.3455 5.95436 34.0161 5.67667C33.577 5.30212 33.0604 5.01151 32.4985 4.90819C31.9367 4.80486 31.3167 4.90819 30.8647 5.26337C30.587 5.47648 30.3803 5.77354 30.206 6.07706C28.8821 8.40189 29.1792 12.3476 32.124 13.2647C33.2864 13.6263 34.7136 13.1936 35.2819 12.1152C36.0697 10.6169 35.8243 8.29856 34.8815 6.72284Z" fill="#FFCFB8"/>
<path d="M51.9175 12.2638C51.7496 11.7213 51.459 11.2563 51.0328 10.927C50.3741 10.4233 49.3989 10.5589 48.7144 11.0174C47.6036 11.7665 46.4735 13.226 46.2539 14.5563C45.8923 16.7132 48.0428 18.5796 50.1029 17.6044C50.3805 17.4688 50.6389 17.288 50.8649 17.0749C51.8981 16.1062 52.4277 13.8718 51.9175 12.2638Z" fill="#FFCFB8"/>
<path d="M30.6449 19.8839C30.7547 19.6256 30.8322 19.3544 30.871 19.0832C31.1809 16.7454 29.179 14.5174 26.8219 14.6724C26.654 14.6854 26.4796 14.7047 26.3311 14.7887C26.1438 14.8855 26.0146 15.0599 25.8984 15.2343C24.6197 17.1975 25.2978 22.1248 28.4945 21.6598C29.4631 21.5178 30.2639 20.788 30.6514 19.8839H30.6449Z" fill="#FFCFB8"/>
<path d="M47.9654 23.5261C47.9654 22.5058 47.6102 21.479 46.8159 20.6266C46.0215 19.7806 44.9947 19.1477 44.3231 18.2049C43.8775 17.5784 43.6063 16.8423 43.1413 16.2417C41.966 14.7176 39.5313 14.3753 37.975 15.5119C36.7545 16.4096 36.1926 17.9336 35.2627 19.1348C34.7008 19.8581 33.9969 20.4651 33.4609 21.2013C31.8077 23.4616 31.7302 27.7819 34.7267 28.9572C36.2184 29.5449 38.2979 28.912 39.5959 28.1177C39.8801 27.9433 40.1707 27.7496 40.5065 27.6915C41.0942 27.5881 41.6625 27.911 42.2308 28.0983C45.3628 29.1316 47.9847 26.3418 47.9718 23.5197L47.9654 23.5261Z" fill="#FFCFB8"/>
</g>
<g clip-path="url(#clip1_360_1697)">
<path d="M69.5596 26.1944C70.9469 27.6762 70.8145 30.2805 70.8145 32.166C70.8208 41.4545 70.4614 50.743 69.7362 59.9999H95.6218C95.6218 59.9621 95.6218 59.9306 95.6218 59.8927C95.2308 52.496 94.9092 45.0992 94.657 37.7025C94.5309 33.9316 94.4174 30.1544 94.3228 26.3835C94.2408 23.1549 95.3885 21.2758 96.6812 18.394C97.7343 16.042 98.0811 13.3809 97.6712 10.8397C97.5325 9.98837 97.0722 9.01096 96.3785 8.48758C93.0049 5.92741 90.1924 9.27581 89.3916 9.84333C90.3879 5.68779 89.5745 -0.0568235 84.4856 -7.10217e-05C82.7767 0.0188465 80.721 1.20434 79.8508 2.72405C79.2076 3.85279 78.7914 5.12027 78.6464 6.41296C77.4546 4.64733 75.9096 3.00151 73.8981 2.30156C71.8865 1.60161 69.3515 2.08716 68.166 3.8654C67.3021 5.16441 67.3021 6.8922 67.794 8.37407C68.2858 9.85595 69.2128 11.1486 70.1272 12.4161C67.8381 12.2396 65.568 11.59 63.7961 13.3809C62.4718 14.724 61.9421 16.7987 62.4592 18.6084C62.9132 20.2038 64.0798 21.4965 65.2401 22.682C66.5328 24.0062 68.3678 24.9206 69.5596 26.1881V26.1944Z" fill="#CC8B68"/>
<path d="M95.1351 49.8033C94.9586 45.7676 94.7946 41.7319 94.6559 37.6961C94.5865 35.5837 94.5298 33.4775 94.473 31.3651C94.0316 31.5416 93.5272 31.6299 93.0794 31.7245C92.4488 31.8569 91.8939 32.0965 91.3516 32.4434C91.1183 32.5947 90.8156 32.3488 90.8913 32.0902C90.9417 31.9074 91.0237 31.7245 91.1183 31.5416C91.0931 31.447 91.1057 31.3462 91.1688 31.2453C91.0742 31.2894 90.9796 31.3272 90.8913 31.3777C90.2229 31.7182 89.7815 32.1029 89.3905 32.7208C89.0626 33.5406 87.6185 33.4019 87.5618 32.3299C87.5492 32.1155 87.5807 31.9074 87.6249 31.7056C87.1834 32.1533 86.7483 32.601 86.3258 33.0613C86.0042 33.4082 85.4682 33.282 85.2286 32.9226C84.8377 32.3299 84.7305 31.7939 84.8061 31.2957C83.2612 32.0965 81.7793 33.8433 80.165 32.3109C78.2669 30.5075 76.1923 32.3929 74.1429 31.7434C73.5438 31.5542 73.2853 31.1254 73.2538 30.6777H70.8071C70.8134 31.2011 70.8071 31.7056 70.8071 32.1659C70.8071 38.0493 70.6494 43.9326 70.3594 49.8033H70.7377C70.8197 49.5637 70.9143 49.3304 71.0152 49.1097C71.3053 48.4665 71.7025 47.6404 72.4592 47.4765C73.6195 47.2242 73.9979 48.4034 73.9663 49.3241C74.124 49.2989 74.2753 49.2673 74.433 49.2169C75.4419 48.9016 76.3626 48.4034 77.1886 47.7476C77.6931 47.3504 78.3111 47.9494 77.8949 48.4539C77.6616 48.7376 77.3589 49.1034 77.0121 49.488C78.1156 49.3998 79.238 49.4439 80.31 49.116C81.5523 48.7376 82.6747 47.4071 84.0053 47.4008C85.6448 47.4008 86.6096 48.416 86.3069 49.7277C86.5024 49.6772 86.6979 49.6205 86.8745 49.5385C87.6753 49.1664 88.4005 48.7376 89.1446 48.271C89.5671 48.0062 90.0589 48.6304 89.6806 48.9646C89.4031 49.2106 89.1698 49.5069 88.9491 49.8096H89.1446C89.3905 49.6835 89.6364 49.5259 89.8824 49.3241C90.3679 48.9331 91.0868 48.2143 91.7237 48.0881C93.1299 47.817 94.0947 48.3278 94.8829 49.4943C94.9523 49.6015 94.9523 49.715 94.9081 49.8096H95.1225L95.1351 49.8033Z" fill="#B6684F"/>
<path d="M87.6435 4.54005C87.1895 3.45544 86.2436 2.61046 84.9824 2.57263C82.1889 2.49065 81.1926 6.19218 81.325 8.39922C81.3881 9.42076 81.5898 10.4675 82.1763 11.3062C82.7627 12.1449 83.8095 12.7187 84.8121 12.5106C85.4995 12.3719 86.0733 11.8926 86.5273 11.3567C88.0408 9.57841 88.5515 6.71556 87.6435 4.54005Z" fill="#EDC7A4"/>
<path d="M78.3486 9.6352C78.1657 7.93893 76.8667 6.15438 75.4857 5.2022C74.0669 4.22479 72.1499 4.42028 71.4121 6.11024C70.832 7.44077 71.2482 9.0992 71.7463 10.3856C72.4652 12.2269 74.0732 13.6898 76.1478 13.0593C77.1694 12.7503 77.9891 11.8738 78.2666 10.8396C78.3738 10.4423 78.3927 10.0388 78.3486 9.62889V9.6352Z" fill="#EDC7A4"/>
<path d="M95.0594 15.2221C95.4188 14.0492 95.589 12.3466 94.8576 11.2746C93.7856 9.70449 91.4524 11.0855 90.475 12.1196C89.6174 13.0214 89.1066 14.251 89.0688 15.4932C89.0183 17.076 90.3489 18.4128 91.9506 18.1354C93.2937 17.9021 94.4918 16.7544 94.9711 15.5059C95.0026 15.4176 95.0341 15.323 95.0657 15.2221H95.0594Z" fill="#EDC7A4"/>
<path d="M73.5243 20.2794C73.8901 19.3839 73.8459 18.2552 73.4802 17.2904C72.6983 15.2347 69.8606 13.9988 67.9184 15.405C66.9662 16.0923 66.5816 17.385 66.8086 18.5074C67.0104 19.4911 67.6031 20.7019 68.4733 21.2442C68.9589 21.5468 69.5264 21.7108 70.0876 21.8117C70.5354 21.8937 70.9957 21.9378 71.4434 21.8747C72.5154 21.7234 73.1838 21.0928 73.518 20.2794H73.5243Z" fill="#EDC7A4"/>
<path d="M88.3433 20.4686C87.555 20.0146 86.6785 19.6552 86.3506 18.7534C86.2749 18.539 86.2371 18.312 86.1867 18.0913C85.6885 16.0482 83.4814 14.7177 81.4383 15.1087C78.7142 15.6321 78.916 18.4003 77.7935 20.3299C76.8224 21.9946 74.9118 22.827 75.618 25.0845C76.0027 26.3204 77.1125 27.2726 78.3674 27.6005C79.6222 27.9221 80.9906 27.6573 82.1131 27.0078C82.3275 26.8817 82.5482 26.7366 82.7941 26.7177C83.1598 26.6862 83.4941 26.9132 83.8157 27.0961C85.3417 27.9537 87.4163 27.7014 88.6901 26.5033C90.0269 25.2485 90.5882 22.5433 89.2072 21.1118C88.9612 20.8596 88.6586 20.6641 88.3433 20.4812V20.4686Z" fill="#EDC7A4"/>
</g>
<defs>
<clipPath id="clip0_360_1697">
<rect width="36.0997" height="60" fill="white" transform="translate(20.1641)"/>
</clipPath>
<clipPath id="clip1_360_1697">
<rect width="35.5714" height="60" fill="white" transform="translate(62.2637)"/>
</clipPath>
</defs>
</svg>
