<svg width="65" height="129" viewBox="0 0 65 129" fill="none" xmlns="http://www.w3.org/2000/svg">
<g clip-path="url(#clip0_351_1236)">
<path d="M49.6656 6.18369C50.3417 5.53428 51.5146 1.53163 51.3394 0C48.228 1.20896 46.4482 4.08026 46.4482 4.08026C48.0243 5.79976 49.6697 6.17961 49.6697 6.17961L49.6656 6.18369Z" fill="#D8CBC5"/>
<path d="M20.583 4.38251C20.2286 3.51663 16.9421 0.955751 15.4596 0.55957C15.4393 3.90464 17.4552 6.62073 17.4552 6.62073C19.6259 5.77936 20.583 4.3866 20.583 4.3866V4.38251Z" fill="#D8CBC5"/>
<path d="M6.74425 23.9056C5.95416 23.4073 1.79603 23.2317 0.358398 23.7749C2.28067 26.5114 5.49396 27.5488 5.49396 27.5488C6.77683 25.6006 6.74832 23.9056 6.74832 23.9056H6.74425Z" fill="#D8CBC5"/>
<path d="M60.8773 26.7441C62.6896 25.5229 64.9947 21.7734 64.9947 21.7734C61.142 22.0022 58.4419 23.738 58.4419 23.738C59.8673 27.0218 60.8773 26.7441 60.8773 26.7441Z" fill="#D8CBC5"/>
<path d="M11.2892 38.1068C7.54236 36.5099 4.91553 32.785 4.91553 28.4474C4.91553 22.8804 9.24064 18.3264 14.7061 17.9792C14.1685 16.7131 13.8753 15.3162 13.8753 13.854C13.8753 8.00526 18.6036 3.26743 24.4315 3.26743C28.0764 3.26743 31.2897 5.12172 33.1876 7.93991C35.2279 4.98285 38.6286 3.04688 42.4813 3.04688C48.7205 3.04688 53.7787 8.11963 53.7787 14.3768C53.7787 16.1086 53.3918 17.7464 52.6994 19.2127C57.6599 19.7314 61.5288 23.9383 61.5288 29.0519C61.5288 33.271 58.8939 36.8693 55.1878 38.2906C52.1333 40.7494 52.6872 42.0932 54.0108 51.8221C56.2385 68.1839 60.7428 105.997 61.5248 128.967H11.11C12.8693 84.1006 19.1208 44.1312 18.742 41.1864C18.4529 38.9931 15.4188 40.1858 11.2892 38.115V38.1068Z" fill="#CCB696"/>
<path d="M11.2892 38.1068C7.54236 36.5099 4.91553 32.785 4.91553 28.4474C4.91553 22.8804 9.24064 18.3264 14.7061 17.9792C14.1685 16.7131 13.8753 15.3162 13.8753 13.854C13.8753 8.00526 18.6036 3.26743 24.4315 3.26743C28.0764 3.26743 31.2897 5.12172 33.1876 7.93991C35.2279 4.98285 38.6286 3.04688 42.4813 3.04688C48.7205 3.04688 53.7787 8.11963 53.7787 14.3768C53.7787 16.1086 53.3918 17.7464 52.6994 19.2127C57.6599 19.7314 61.5288 23.9383 61.5288 29.0519C61.5288 33.271 58.8939 36.8693 55.1878 38.2906C52.1333 40.7494 52.6872 42.0932 54.0108 51.8221C54.6217 56.323 55.4077 62.4454 56.2385 69.4378C41.8989 76.2137 24.4437 72.9994 15.5939 70.5937C17.3859 53.9459 18.9375 42.6976 18.742 41.1864C18.4529 38.9931 15.4188 40.1858 11.2892 38.115V38.1068Z" fill="#F3E8E2"/>
<path d="M35.1425 22.9255C29.0377 22.9255 23.7922 32.4256 26.2195 34.7006C29.8278 38.0865 31.2288 34.4637 34.6742 34.4637C38.1196 34.4637 40.5917 37.817 43.6787 35.3255C46.8879 32.7361 40.9379 22.9214 35.1466 22.9214L35.1425 22.9255Z" fill="#E49FA0"/>
<path d="M50.3335 28.1862C50.3335 29.3135 51.2458 30.2284 52.3698 30.2284C53.4938 30.2284 54.4061 29.3135 54.4061 28.1862C54.4061 27.0589 53.4938 26.144 52.3698 26.144C51.2458 26.144 50.3335 27.0589 50.3335 28.1862Z" fill="#E49FA0"/>
<path d="M39.6548 15.6555C39.6548 16.7827 40.567 17.6976 41.6911 17.6976C42.8151 17.6976 43.7274 16.7827 43.7274 15.6555C43.7274 14.5282 42.8151 13.6133 41.6911 13.6133C40.567 13.6133 39.6548 14.5282 39.6548 15.6555Z" fill="#E49FA0"/>
<path d="M22.7212 16.0353C22.7212 17.1626 23.6335 18.0775 24.7575 18.0775C25.8815 18.0775 26.7938 17.1626 26.7938 16.0353C26.7938 14.9081 25.8815 13.9932 24.7575 13.9932C23.6335 13.9932 22.7212 14.9081 22.7212 16.0353Z" fill="#E49FA0"/>
<path d="M13.6392 29.5871C13.6392 30.7144 14.5514 31.6293 15.6755 31.6293C16.7995 31.6293 17.7118 30.7144 17.7118 29.5871C17.7118 28.4598 16.7995 27.5449 15.6755 27.5449C14.5514 27.5449 13.6392 28.4598 13.6392 29.5871Z" fill="#E49FA0"/>
<g style="mix-blend-mode:multiply">
<path d="M35.5254 46.6188C37.35 46.6188 39.1623 46.3492 40.7669 45.8142C41.1375 45.6917 41.337 45.2914 41.2108 44.9197C41.0886 44.5481 40.6895 44.3479 40.3189 44.4745C37.4233 45.4425 33.6317 45.4425 30.6587 44.4745C30.2881 44.3561 29.893 44.5562 29.7708 44.9279C29.6487 45.2996 29.8523 45.6958 30.2229 45.8183C31.8682 46.3533 33.6968 46.6229 35.5173 46.6229L35.5254 46.6188Z" fill="#E3DCBC"/>
</g>
</g>
<defs>
<clipPath id="clip0_351_1236">
<rect width="64.6364" height="128.959" fill="white" transform="translate(0.358398)"/>
</clipPath>
</defs>
</svg>
