<svg width="52" height="114" viewBox="0 0 52 114" fill="none" xmlns="http://www.w3.org/2000/svg">
<g clip-path="url(#clip0_351_1197)">
<path d="M46.9438 113.479C48.0218 111.805 46.9257 111.177 47.6384 110.182C46.4735 108.926 47.2296 107.147 47.4792 106.886C46.1986 106.21 46.7448 104.584 46.8968 104.217C45.9091 103.31 46.1624 102.228 46.3179 101.654C45.6776 100.99 45.4823 99.875 45.9019 99.2469C45.4135 98.2594 45.6921 97.3626 46.0068 96.7345C44.4947 94.9555 45.6378 93.5432 45.6378 93.5432C44.8745 92.6464 45.2254 90.9255 45.2254 90.9255C44.5706 89.4152 45.5401 88.257 45.5401 88.257C44.6538 86.8955 44.5634 85.9552 44.9975 85.8499C44.1329 84.6845 44.2595 83.8603 44.7443 83.1269C43.9412 82.5605 44.444 80.5637 44.8636 80.1425C43.9773 79.5653 44.0822 77.946 44.2378 77.3687C43.4709 77.2017 43.6626 75.2739 44.1329 74.8055C43.7675 74.1774 42.9933 72.972 43.7205 72.4492C42.675 70.9825 42.675 69.6754 43.7169 69.9877C42.6895 67.8492 43.2466 67.163 43.7675 67.5261C42.4435 64.7414 42.8305 63.8083 43.7169 63.4416C41.4233 61.4521 44.0822 60.2503 44.3427 60.2503C41.9732 58.2571 41.8646 56.3256 42.7908 56.5326C42.6207 55.0149 40.9024 51.8745 43.091 52.085C41.9949 50.9849 41.369 49.4165 43.2466 48.7884C42.3096 46.6935 42.0455 45.7532 42.7256 44.3917C41.7344 42.718 40.5876 40.1511 42.3603 39.2616C41.2533 37.479 43.1417 35.965 43.4564 36.0159C43.3008 33.5543 44.5525 33.3982 45.2833 33.3982C43.7711 31.9859 44.6574 29.3137 46.0141 29.5243C45.2146 28.1483 46.9004 27.3786 47.9422 27.2733C47.3164 26.2277 47.0559 24.082 49.2446 24.082C48.1195 22.6043 49.2374 19.9975 51.0136 20.052C49.7764 18.676 51.1221 16.3887 52.0085 16.2834C51.0715 14.8711 51.5924 13.6149 52.0085 12.9323C49.7655 12.4603 49.089 11.6253 48.6694 9.47595C47.5732 10.2602 46.6363 9.73735 46.4807 9.00396C45.3846 9.99876 44.1329 9.3162 43.7675 8.74256C43.5324 9.52677 41.568 9.34524 41.4667 8.23064C39.846 8.53198 39.7013 6.33182 40.0667 5.9143C38.815 5.86347 37.8237 4.13529 38.3447 2.56323C36.4852 2.96623 36.156 1.77901 36.156 1.5176C35.1141 1.8843 34.8537 0.755171 34.5534 0C33.0666 0.838676 32.6614 0.943964 31.88 0.261405C31.3084 2.1094 29.8975 1.5176 29.4815 1.04562C29.4236 1.63015 28.635 2.79922 27.4665 2.46883C27.2024 3.32203 26.128 3.74318 25.6251 2.9045C24.0985 4.10624 22.8757 3.13323 22.8757 2.78832C21.6023 3.18406 21.1718 2.38532 21.1718 1.87341C19.685 2.24373 19.0844 1.46314 19.0519 1.35786C17.9377 1.7427 17.4855 1.14728 17.4855 1.14728C16.4436 1.98595 15.5717 1.25257 15.5717 1.25257C15.0146 2.47246 14.0415 2.40348 13.904 2.29819C13.6942 3.62337 12.6161 3.72866 12.6161 3.72866C12.6198 4.96307 11.6755 5.57665 11.6755 5.57665C11.9179 6.92361 11.2595 7.18139 11.2595 7.18139C10.8833 9.41423 9.12874 8.71714 9.12874 8.57555C8.1556 9.51951 6.84602 8.57555 6.84602 8.57555C5.82947 9.64296 4.72609 8.40128 4.72609 8.53924C4.23771 9.75914 3.69868 9.83175 2.7979 9.51588C3.1271 10.4744 2.20822 10.91 1.68367 10.7721C1.82114 11.8177 1.61493 12.1336 1.05782 12.2025C1.38702 12.8633 1.03973 13.564 0.53688 13.7202C1.24955 14.0687 0.659879 15.2741 0.240234 15.2559C0.53688 16.1091 0.970995 16.6682 0.363234 17.0712C1.12655 17.2092 1.15188 18.204 0.851613 18.538C1.57514 19.0862 0.710526 19.1479 1.45937 20.0738C2.20822 20.9996 2.46869 21.0686 2.27696 21.4679C2.66043 22.0597 3.2501 22.5208 3.00772 22.9274C3.58292 23.7008 3.91212 24.1727 3.7023 24.8154C4.29198 25.654 5.09147 25.3926 4.69353 26.264C5.38812 27.1535 6.03205 26.9429 5.51112 27.8506C6.43361 28.0067 6.76281 28.6892 6.63981 28.9325C7.56231 29.1939 8.25689 29.7421 7.7866 30.4501C8.85742 30.8168 9.11789 31.5502 8.59333 32.1783C9.89568 32.6757 9.92462 33.2784 9.58456 33.881C11.1221 34.1679 11.3066 35.0574 10.9412 35.5039C11.8347 36.3462 12.6885 36.2882 11.6719 37.0215C11.7768 37.7549 12.5329 37.8602 11.7226 38.6953C12.428 40.398 12.1386 41.2875 11.5128 41.5998C12.1893 42.2279 11.2595 42.01 11.7515 43.1137C12.2435 44.2175 11.983 45.1868 11.3572 45.4736C11.8781 46.4684 11.5128 47.3579 11.1221 47.4088C12.2942 48.2475 11.2523 49.3185 10.8616 49.3984C11.8022 50.237 11.3319 52.223 10.9122 52.3029C12.0337 53.1415 11.4621 54.0637 11.0714 54.2416C12.059 55.6757 11.0714 57.0917 10.3913 57.4039C11.227 58.0066 11.643 58.3987 10.8869 58.976C11.1221 59.9962 10.6771 61.1471 10.1561 61.3068C11.1727 62.1709 10.782 63.0096 10.1055 63.1113C10.8869 64.2113 10.4709 64.814 10.0259 64.9701C10.7313 65.3368 10.9195 66.466 10.2394 66.6221C10.6264 67.5116 10.3153 68.4265 9.60989 68.4773C10.3406 69.1054 9.89568 70.387 9.429 70.4125C9.94632 70.9098 10.1055 72.5582 9.37836 72.7143C9.92462 73.9451 10.0838 75.5425 9.0383 75.8294C9.51944 77.0057 10.2394 78.1058 9.08895 78.7084C9.429 79.9901 10.0259 81.0103 9.0383 81.4822C9.37836 82.5279 9.0383 84.5174 7.94216 84.728C9.32409 85.9842 9.50859 88.1844 8.25328 88.5765C9.19386 89.3607 8.98404 90.9582 7.99281 91.1397C9.19386 92.2144 8.79954 95.2242 7.2114 95.3549C8.51374 96.7418 8.14836 98.6769 7.29099 98.8875C7.65637 100.013 7.86619 101.218 6.90028 101.61C8.49204 102.082 7.65637 104.726 6.66514 104.932C7.63104 105.51 6.22017 106.24 6.66514 107.786C7.11011 109.329 7.52613 110.037 6.45531 110.273C7.36696 110.745 6.48064 113.178 6.08994 113.57C8.35819 113.57 46.9546 113.464 46.9546 113.464L46.9438 113.479Z" fill="#CCB696"/>
<path d="M11.1585 106.544C9.76932 106.377 11.437 109.463 8.93003 109.318C7.03801 109.206 8.78171 113.559 6.85352 113.581C9.90679 113.573 20.4088 113.548 29.9014 113.522C31.5438 112.154 28.2373 111.17 28.8559 108.828C29.8327 105.753 26.9024 108.581 27.3655 105.237C27.72 102.692 24.1168 104.351 24.1168 100.717C24.1168 97.0829 21.6388 101.926 19.9819 98.9926C18.032 97.8272 18.1152 103.335 16.6718 102.075C15.2283 100.815 16.035 106.029 14.0381 104.773C11.0355 102.881 12.7068 106.73 11.1585 106.544Z" fill="#F3E8E2"/>
<path d="M26.6526 19.5217C19.4861 19.5217 17.5398 26.9536 20.1481 28.9432C22.7564 30.9328 23.5921 27.5817 26.5115 27.5817C29.4309 27.5817 30.3715 30.9328 32.9798 28.6273C35.5881 26.3255 33.1896 19.5181 26.6562 19.5181L26.6526 19.5217Z" fill="#583524"/>
<path d="M43.1782 16.7264C45.1245 18.4655 40.7436 21.9836 39.282 20.9379C37.8205 19.8923 41.0547 14.8312 43.1782 16.7264Z" fill="#583524"/>
<path d="M33.3272 9.03309C35.7004 10.0061 33.8228 15.0999 31.5727 14.5553C29.0042 13.9381 30.9794 8.07097 33.3272 9.03309Z" fill="#583524"/>
<path d="M18.5673 9.34907C20.7958 8.73187 22.3658 13.9382 20.3906 14.5481C18.4154 15.1581 15.959 10.0716 18.5673 9.34907Z" fill="#583524"/>
<path d="M9.66812 18.302C11.2924 17.0168 14.5374 21.0178 12.9348 22.274C11.3358 23.5302 7.71822 19.8451 9.66812 18.302Z" fill="#583524"/>
<path d="M43.5799 72.246C43.6233 72.3113 43.6668 72.3767 43.7138 72.442C42.9866 72.9648 43.7608 74.1702 44.1262 74.7983C43.6559 75.2703 43.4642 77.1945 44.2311 77.3615C44.0755 77.9388 43.9706 79.5617 44.857 80.1353C44.4409 80.5528 43.9381 82.5497 44.7376 83.1197C44.2564 83.8531 44.1262 84.6736 44.9908 85.8427C44.5531 85.948 44.6435 86.8883 45.5335 88.2498C45.5335 88.2498 44.5639 89.4079 45.2187 90.9183C45.2187 90.9183 44.8678 92.6392 45.6311 93.536C45.6311 93.536 45.2947 93.9535 45.2296 94.6215C44.2383 94.7958 43.1639 94.941 42.1256 94.4945C40.1794 93.6558 40.5954 94.6324 40.3168 92.3996C40.0383 90.1667 38.6491 92.2616 38.3706 88.631C38.092 85.0004 35.5886 87.2368 37.1189 85.7011C38.6491 84.1653 35.4511 83.1887 36.4243 82.9091C37.3974 82.6296 32.6692 78.5814 34.478 78.0223C36.2868 77.4632 33.7834 75.6479 35.3137 76.069C36.8439 76.4865 37.1225 72.8595 38.2331 72.8595C39.3437 72.8595 39.9008 70.7647 41.2936 72.0209C42.444 73.0592 42.2631 71.7159 43.5799 72.2423V72.246Z" fill="#F3E8E2"/>
<path d="M10.1486 61.3177C10.3222 61.2669 10.4886 61.0999 10.6225 60.8675C12.992 58.7799 15.4773 59.0522 14.175 63.2347C12.7858 67.6967 19.4603 66.5785 16.3998 68.6734C13.3393 70.7682 16.9569 70.6266 15.5641 72.304C14.175 73.9777 18.5776 75.0959 17.2102 75.793C15.8427 76.4901 16.1213 77.1872 16.1213 77.1872C16.1213 77.1872 16.5373 77.1872 16.3998 78.7229C16.2623 80.2587 16.6784 81.2353 16.1213 82.4915C15.5641 83.7477 14.591 83.4682 14.591 84.1653C14.591 84.8623 13.2018 83.8857 13.0607 85.1419C12.9233 86.3981 10.2969 85.701 10.1486 86.3981C10.0002 87.0952 10.4343 90.1667 10.1486 90.0287C9.92065 89.9162 10.1377 91.3975 8.69065 90.5951C8.9873 90.0106 8.87515 89.1174 8.24569 88.5874C9.49738 88.1953 9.3165 85.9951 7.93457 84.7389C9.03071 84.5283 9.36715 82.5387 9.03071 81.4931C10.0219 81.0211 9.42141 80.0009 9.08136 78.7193C10.2281 78.1166 9.50824 77.0165 9.03071 75.8402C10.0726 75.5534 9.91703 73.9559 9.37077 72.7251C10.1015 72.569 9.93874 70.9207 9.42141 70.4233C9.89171 70.3979 10.3331 69.1163 9.6023 68.4882C10.3077 68.4374 10.6188 67.5188 10.2318 66.6329C10.9155 66.4768 10.7238 65.3477 10.0183 64.981C10.4633 64.8249 10.8793 64.2222 10.0979 63.1221C10.7744 63.0168 11.1687 62.1782 10.1486 61.3177Z" fill="#F3E8E2"/>
<path d="M43.2252 36.0849C42.6464 36.408 41.4055 37.7332 42.3533 39.258C40.5807 40.1476 41.7275 42.7144 42.7187 44.3881C42.0422 45.7496 42.3027 46.6899 43.2397 48.7848C41.3621 49.4129 41.988 50.9814 43.0841 52.0814C41.0546 51.889 42.3823 54.5684 42.7223 56.1695C41.174 56.2312 40.3998 53.8241 39.6256 54.1582C38.6525 54.5757 41.1559 51.2282 39.6256 51.3662C38.0954 51.5042 38.2365 48.9918 36.4277 49.2713C34.6189 49.5509 36.4277 46.3414 34.0654 46.7589C31.6994 47.1765 35.5956 45.6407 34.7599 43.829C33.9243 42.0137 40.0453 43.5495 39.3507 41.1787C38.6561 38.8042 39.7667 39.6429 40.4649 37.4101C40.7978 36.3463 41.9771 36.0123 43.2324 36.0885L43.2252 36.0849Z" fill="#F3E8E2"/>
</g>
<defs>
<clipPath id="clip0_351_1197">
<rect width="51.7718" height="113.584" fill="white" transform="translate(0.229492)"/>
</clipPath>
</defs>
</svg>
