<svg width="62" height="136" viewBox="0 0 62 136" fill="none" xmlns="http://www.w3.org/2000/svg">
<g clip-path="url(#clip0_351_1208)">
<path d="M3.83178 18.744C2.46163 17.8777 1.37137 15.5844 0.494141 13.4585C2.61619 14.2704 4.97217 15.1408 5.92459 16.6683C5.67395 17.2542 3.83178 18.7398 3.83178 18.7398V18.744Z" fill="#D9CFCA"/>
<path d="M20.0066 6.39472C19.1544 5.01789 19.1544 2.38142 19.309 0.180176C20.6332 1.31428 22.6007 3.46949 22.7928 5.2648C22.3125 5.68329 20.0066 6.39472 20.0066 6.39472Z" fill="#D9CFCA"/>
<path d="M40.5287 5.69143C40.5036 4.07189 41.8529 1.86227 43.1144 0C43.6073 2.18869 44.1629 4.67451 43.4068 6.31079C42.7802 6.42379 40.5287 5.69143 40.5287 5.69143Z" fill="#D9CFCA"/>
<path d="M56.0557 15.0657C56.6697 13.6302 58.796 12.4459 61.1937 11.5127C60.4334 13.8395 59.6941 16.0617 58.207 17.0786C57.6138 16.8526 56.0557 15.0657 56.0557 15.0657Z" fill="#D9CFCA"/>
<path d="M6.82701 135.113C5.56965 133.163 6.8479 132.43 6.01662 131.271C7.37841 129.806 6.49283 127.735 6.2046 127.429C7.70006 126.643 7.06094 124.747 6.88549 124.32C8.03842 123.265 7.74183 122.002 7.56221 121.332C8.30994 120.558 8.53551 119.256 8.05095 118.524C8.62324 117.373 8.29323 116.327 7.92981 115.594C9.69679 113.519 8.36007 111.874 8.36007 111.874C9.254 110.828 8.84463 108.823 8.84463 108.823C9.60907 107.062 8.47703 105.714 8.47703 105.714C9.513 104.128 9.61743 103.031 9.1078 102.906C10.1187 101.546 9.96832 100.588 9.40439 99.7338C10.3401 99.0726 9.75528 96.7458 9.26654 96.2562C10.3025 95.5866 10.1814 93.695 9.99756 93.0213C10.8957 92.8246 10.6701 90.5815 10.1187 90.0333C10.5448 89.3009 11.4471 87.899 10.5991 87.288C11.823 85.5805 11.823 84.0531 10.6033 84.4213C11.8021 81.9271 11.1505 81.1278 10.5406 81.5547C12.0862 78.3072 11.635 77.2233 10.6033 76.7965C13.2809 74.4781 10.1772 73.0761 9.87224 73.0761C12.6418 70.7535 12.7671 68.5021 11.6852 68.7448C11.8815 66.9746 13.8908 63.317 11.3343 63.5597C12.6125 62.2792 13.3435 60.4504 11.1505 59.718C13.1681 56.9309 12.5499 56.1818 11.7604 54.5957C12.9175 52.6456 14.2584 49.6534 12.1864 48.6197C13.4814 46.5398 11.2716 44.778 10.9082 44.8366C11.092 41.9699 9.62996 41.7858 8.7778 41.7858C10.5448 40.137 9.50882 37.0276 7.92563 37.2703C8.85716 35.6675 6.88967 34.7678 5.67409 34.6464C6.40511 33.4244 6.71005 30.926 4.15356 30.926C5.46522 29.2019 4.16192 26.1678 2.08999 26.2306C3.53533 24.6278 1.96467 21.962 0.928711 21.8365C2.02315 20.1877 1.41745 18.7271 0.928711 17.932C3.54786 17.3838 4.33736 16.4087 4.8261 13.9061C6.10435 14.8226 7.19879 14.2116 7.38259 13.3579C8.66083 14.5171 10.1229 13.722 10.549 13.0524C11.0962 14.8812 13.1681 15.3081 13.7153 14.2744C14.9351 15.4964 16.5768 14.764 14.9351 13.0524C16.4013 11.4664 15.7288 10.734 14.8724 9.75894C16.3345 9.69616 17.3203 8.23146 16.7104 6.39848C18.8784 6.86719 18.7656 4.85844 18.7656 4.55295C20.3488 5.23927 20.9587 4.38137 21.2636 3.10498C23.0306 4.74545 23.5194 3.96288 24.4342 3.17194C25.1026 5.32715 26.7484 4.63665 27.2371 4.08843C27.4209 5.97999 29.0626 6.71235 29.9148 6.28549C29.8521 7.75019 30.4244 9.5204 31.3559 8.96799C31.7402 10.6754 33.3861 9.08936 32.7762 7.74601C34.7855 7.98873 34.9484 7.01366 34.9484 6.11809C36.4355 6.57843 36.9368 5.64939 36.9368 5.05095C38.6745 5.48199 39.3721 4.57387 39.4139 4.45251C40.713 4.90029 41.0681 3.9587 41.0681 3.9587C42.2878 4.93377 43.4742 4.33115 43.4742 4.33115C44.1217 5.75401 45.262 5.6745 45.4208 5.55313C45.6672 7.09735 46.9246 7.21872 46.9246 7.21872C46.9204 8.65831 48.019 9.37393 48.019 9.37393C47.735 10.9433 48.5078 11.2446 48.5078 11.2446C47.9104 12.3368 48.182 13.5211 48.7125 13.3203C47.8812 14.3707 48.065 15.6805 48.4284 15.0695C48.512 16.1744 49.6482 15.0277 49.6482 14.1321C51.0392 14.8268 51.5948 13.563 51.5948 13.3998C52.731 14.4962 53.6667 12.8725 53.6667 12.8725C54.8531 14.1154 56.1438 12.6674 56.1438 12.8306C56.7119 14.2535 57.3427 14.3372 58.3954 13.9689C58.0111 15.0863 59.0846 15.5968 59.6945 15.4336C59.5316 16.6556 59.7739 17.0197 60.4255 17.0992C60.0412 17.8692 60.4464 18.6853 61.0354 18.8694C60.2041 19.2753 60.8934 20.6773 61.3821 20.6605C61.0354 21.6565 60.53 22.3094 61.2401 22.7739C60.3462 22.9371 60.3211 24.0963 60.6678 24.4813C59.824 25.1216 60.8349 25.1928 59.9619 26.2725C59.0888 27.3522 58.7839 27.4317 59.0094 27.9004C58.5625 28.5909 57.8732 29.1265 58.1573 29.6036C57.4889 30.5034 57.1004 31.0516 57.3469 31.8049C56.6576 32.7799 55.7219 32.4745 56.1898 33.4914C55.3794 34.5292 54.6275 34.2865 55.2374 35.3411C54.1596 35.5252 53.7753 36.3162 53.9173 36.6007C52.8396 36.9062 52.0292 37.5465 52.5764 38.3709C51.3274 38.7978 51.0225 39.6515 51.6324 40.3839C50.1119 40.9614 50.0784 41.6644 50.4753 42.3675C48.6791 42.7023 48.466 43.7401 48.8921 44.2591C47.8478 45.2425 46.8536 45.1756 48.0399 46.0293C47.9188 46.883 47.0332 47.0043 47.9773 47.9794C47.1543 49.9631 47.4885 51.0009 48.2196 51.365C47.4259 52.0973 48.5161 51.8421 47.9397 53.131C47.3632 54.4158 47.6682 55.5457 48.3992 55.8805C47.7893 57.0397 48.2154 58.0775 48.6749 58.1361C47.3047 59.1112 48.5245 60.3625 48.9798 60.4545C47.8854 61.4296 48.4326 63.748 48.9172 63.8401C47.6097 64.8152 48.2739 65.8907 48.7334 66.0999C47.5804 67.7739 48.7334 69.4185 49.527 69.7868C48.5537 70.4899 48.065 70.946 48.9506 71.6156C48.6749 72.8041 49.1929 74.1475 49.8027 74.3316C48.6164 75.3402 49.0717 76.3152 49.8654 76.4366C48.9506 77.7172 49.4393 78.4202 49.9573 78.6002C49.1344 79.027 48.913 80.3453 49.7108 80.5252C49.2597 81.5589 49.6231 82.626 50.446 82.6888C49.5939 83.4212 50.1119 84.9152 50.6591 84.9444C50.0575 85.522 49.8696 87.447 50.7217 87.627C50.0826 89.0624 49.8988 90.9205 51.1186 91.2552C50.5588 92.6279 49.7192 93.9085 51.0559 94.6115C50.6591 96.1055 49.9615 97.294 51.1186 97.8464C50.7217 99.0684 51.1186 101.383 52.3968 101.63C50.7844 103.094 50.5714 105.655 52.0334 106.112C50.939 107.028 51.1812 108.886 52.3383 109.1C50.939 110.351 51.3943 113.858 53.2532 114.008C51.7326 115.624 52.1587 117.884 53.1613 118.126C52.7352 119.436 52.4929 120.842 53.6166 121.298C51.7577 121.847 52.7352 124.927 53.8923 125.174C52.7644 125.843 54.4103 126.697 53.8923 128.496C53.3743 130.296 52.8856 131.12 54.1346 131.392C53.0694 131.941 54.1053 134.778 54.5606 135.234C51.9123 135.234 6.85208 135.113 6.85208 135.113H6.82701Z" fill="white"/>
<path d="M12.1029 58.5505C12.0903 58.45 12.0736 58.3663 12.0528 58.291C11.8397 58.7011 11.5473 59.1698 11.1505 59.7181C13.3435 60.4504 12.6125 62.2792 11.3343 63.5598C13.8907 63.3171 11.8815 66.9746 11.6852 68.7448C12.7671 68.5021 12.6417 70.7494 9.87222 73.0762C10.1772 73.0762 13.2809 74.4781 10.6032 76.7965C11.6392 77.2234 12.0862 78.3073 10.5406 81.5548C11.1505 81.1279 11.8021 81.9272 10.6032 84.4214C11.823 84.0573 11.823 85.5806 10.5991 87.288C11.447 87.899 10.5448 89.301 10.1187 90.0333C10.6659 90.5815 10.8915 92.8288 9.99754 93.0213C10.1813 93.6909 10.3025 95.5825 9.26651 96.2562C9.75525 96.7459 10.3401 99.0727 9.40436 99.7339C9.9683 100.588 10.1187 101.546 9.10778 102.906C9.61741 103.027 9.51297 104.128 8.47701 105.714C8.47701 105.714 9.60905 107.066 8.84461 108.823C8.84461 108.823 9.25398 110.828 8.36005 111.874C8.36005 111.874 9.6926 113.523 7.92979 115.595C8.29321 116.327 8.62322 117.373 8.05093 118.524C8.53967 119.256 8.30992 120.558 7.56219 121.332C7.74599 122.002 8.04258 123.265 6.88547 124.32C7.06092 124.747 7.70004 126.647 6.20458 127.429C6.49281 127.735 7.37839 129.811 6.0166 131.271C6.84788 132.43 5.56963 133.163 6.82699 135.113C6.82699 135.113 51.8872 135.234 54.5355 135.234C54.0802 134.778 53.0443 131.941 54.1095 131.392C52.8605 131.116 53.3492 130.296 53.8672 128.497C54.3852 126.697 52.7393 125.843 53.8672 125.174C52.7101 124.931 51.7368 121.851 53.5915 121.299C52.4636 120.842 52.7101 119.436 53.1362 118.126C52.1294 117.884 51.7034 115.624 53.2281 114.008C51.3692 113.858 50.9139 110.347 52.3132 109.1C51.1561 108.886 50.9139 107.024 52.0083 106.112C50.5463 105.655 50.7593 103.09 52.3717 101.63C51.0935 101.387 50.6966 99.0685 51.0935 97.8465C49.9364 97.2983 50.6382 96.1098 51.0308 94.6116C49.6899 93.9085 50.5296 92.6279 51.0935 91.2553C49.8779 90.9205 50.0575 89.0582 50.6966 87.627C49.8445 87.4429 50.0325 85.522 50.634 84.9445C50.0868 84.9152 49.5688 83.4212 50.4209 82.6889C49.598 82.6261 49.2346 81.5589 49.6857 80.5253C48.8879 80.3453 49.1135 79.0271 49.9322 78.6002C49.4142 78.4161 48.9255 77.7172 49.8403 76.4366C49.0466 76.3153 48.5913 75.3402 49.7776 74.3317C49.1678 74.1475 48.6498 72.8084 48.9255 71.6157C48.0441 70.9461 48.5286 70.4857 49.5019 69.7869C48.7124 69.4228 47.5553 67.7739 48.7083 66.1C48.2488 65.8908 47.5846 64.8152 48.8921 63.8402C48.4033 63.7481 47.8561 61.4297 48.9547 60.4546C48.7208 60.4086 48.2822 60.0529 48.1026 59.5883C47.8561 60.2454 47.1209 60.3667 45.333 59.2159C45.333 59.2159 43.3572 61.2581 42.6387 59.195C42.6387 59.195 41.3813 61.438 39.2259 60.1868C37.6093 61.4548 35.0946 58.7388 33.8372 59.0987C33.1187 60.3583 31.6817 59.0987 29.3466 58.9062C28.4485 61.233 27.3708 60.3584 24.8059 58.7807C24.217 59.9064 23.4191 60.7183 20.5451 58.7807C18.5693 58.1069 16.7731 60.3542 15.3361 58.7807C13.8991 57.203 12.4621 61.2581 12.1029 58.5547V58.5505Z" fill="#B4BBCA"/>
<g style="mix-blend-mode:multiply">
<path d="M30.2944 50.5115C28.7404 50.5115 27.1948 50.2813 25.8247 49.8252C25.4404 49.6954 25.2357 49.2811 25.361 48.9003C25.4905 48.5153 25.9041 48.3102 26.2842 48.4358C28.7028 49.2435 31.8692 49.2435 34.3505 48.4358C34.7348 48.3102 35.1442 48.5195 35.2695 48.9045C35.3948 49.2895 35.1859 49.7038 34.8016 49.8252C33.4023 50.2813 31.84 50.5073 30.2902 50.5073L30.2944 50.5115Z" fill="#B5C1DA"/>
</g>
<path d="M31.0006 28.9595C39.3677 28.9595 41.6401 37.6222 38.5949 39.9406C35.5497 42.259 34.5764 38.3545 31.1677 38.3545C27.7591 38.3545 26.6604 42.259 23.6152 39.5765C20.57 36.894 23.3729 28.9637 31.0006 28.9637V28.9595Z" fill="#583524"/>
<path d="M13.4266 25.2723C11.0539 27.1848 16.1042 30.8842 17.8127 29.6664C19.517 28.4445 15.7032 23.4435 13.4266 25.2723Z" fill="#583524"/>
<path d="M24.1329 17.2206C22.2907 17.8358 23.8029 23.5816 25.7996 23.3054C29.25 22.8325 26.9651 16.2748 24.1329 17.2206Z" fill="#583524"/>
<path d="M39.3634 17.3424C36.7944 16.5096 34.9397 22.4228 37.2121 23.2388C39.4846 24.0507 42.3669 18.3216 39.3634 17.3424Z" fill="#583524"/>
<path d="M49.9614 25.0757C48.0649 23.5775 44.2803 28.2395 46.1475 29.7042C48.0148 31.1689 52.238 26.871 49.9614 25.0757Z" fill="#583524"/>
</g>
<defs>
<clipPath id="clip0_351_1208">
<rect width="60.8711" height="135.234" fill="white" transform="translate(0.494141)"/>
</clipPath>
</defs>
</svg>
