<svg width="61" height="136" viewBox="0 0 61 136" fill="none" xmlns="http://www.w3.org/2000/svg">
<g clip-path="url(#clip0_351_1225)">
<path d="M11.0326 40.7821C7.66882 32.221 -2.24527 18.9148 0.949895 13.8295C5.29514 6.91256 12.6713 12.4732 13.8689 11.9629C15.0665 11.4526 12.4637 2.62544 18.9103 0.457894C25.9059 -1.89283 28.6168 5.60855 30.316 5.8615C32.0195 6.11445 34.8947 -1.89283 42.2492 0.689041C47.2084 2.42482 47.524 7.449 46.7674 11.5791C46.642 12.9137 47.9694 10.6545 51.986 9.62963C57.2911 8.27328 62.7129 13.5373 59.0595 21.6754C55.406 29.8136 47.2516 38.9155 46.8323 42.5615C46.4129 46.2075 51.3721 112.917 52.881 135.548H4.53851C4.53851 135.548 13.7565 47.7209 11.0326 40.7821Z" fill="#F3E8E2"/>
<path d="M28.5136 25.5571C37.1739 25.5571 39.5259 34.5849 36.374 37.0011C33.2221 39.4172 32.2146 35.3482 28.6866 35.3482C25.1585 35.3482 24.0214 39.4172 20.8694 36.6217C17.7175 33.8261 20.6187 25.5615 28.5136 25.5615V25.5571Z" fill="#E49FA0"/>
<path d="M10.6998 21.5754C8.26124 23.5903 13.2161 27.4849 14.8677 26.0675C16.5367 24.637 12.9178 19.7393 10.6998 21.5754Z" fill="#E49FA0"/>
<path d="M22.1143 14.0213C20.307 14.802 22.3132 20.4193 24.3194 19.7738C26.0531 19.2155 24.9809 12.7827 22.1143 14.0213Z" fill="#E49FA0"/>
<path d="M36.9922 14.4007C34.3332 13.5328 32.1325 19.9613 34.4845 20.8074C36.8366 21.6535 40.1009 15.4169 36.9922 14.4007Z" fill="#E49FA0"/>
<path d="M47.7357 21.5187C45.7728 19.9574 41.8556 24.8158 43.7882 26.3423C45.7209 27.8687 50.0921 23.3897 47.7357 21.5187Z" fill="#E49FA0"/>
<path d="M49.907 93.0957C45.9595 110.907 39.3746 105.312 39.1411 113.197C38.9033 121.078 28.8466 117.519 27.9516 123.878C27.463 127.336 24.3716 131.47 24.9293 135.548H52.8816C52.2633 126.311 51.0743 109.734 49.907 93.0957Z" fill="#583524"/>
<path d="M23.7138 95.0016C22.2653 88.137 27.9379 84.8311 31.466 77.2949C34.9941 69.763 21.3833 70.3343 19.2345 64.7388C17.518 60.2641 15.0795 63.1077 11.0715 60.2598C10.4359 71.5947 9.24257 86.1439 8.04492 99.4283C14.5001 102.791 24.9373 100.806 23.7138 95.0016Z" fill="#583524"/>
<path d="M6.28945 118.103C6.14244 119.603 6.00409 121.038 5.87006 122.395C5.39013 127.406 4.94912 131.906 4.58594 135.548C8.52476 130.066 9.54082 123.725 6.28945 118.103Z" fill="#583524"/>
</g>
<defs>
<clipPath id="clip0_351_1225">
<rect width="59.9298" height="135.548" fill="white" transform="translate(0.323242)"/>
</clipPath>
</defs>
</svg>
