<svg width="327" height="94" viewBox="0 0 327 94" fill="none" xmlns="http://www.w3.org/2000/svg">
<path d="M115.888 20.0916C117.335 19.8137 118.244 19.6184 118.593 19.4983C118.684 19.4382 119.123 19.288 119.926 19.0326C120.721 18.7847 121.168 18.597 121.259 18.4843C121.289 18.3641 121.335 17.4403 121.395 15.7128C121.456 13.9853 121.509 13.0615 121.57 12.9413C121.63 12.6484 121.774 12.3555 122.016 12.0626C122.251 11.7696 122.463 11.6194 122.638 11.6194C122.789 11.6194 123.009 11.7095 123.304 11.8823C123.6 12.055 123.774 12.1902 123.834 12.2804C123.774 12.4832 123.66 12.7085 123.501 12.9413C123.342 13.1742 123.213 13.437 123.122 13.73C123.031 14.0229 123.001 14.4059 123.031 14.8716C122.88 16.6892 122.925 17.6281 123.168 17.6882C123.259 17.6882 123.418 17.6281 123.653 17.5154C124.183 17.2225 125.63 16.5315 127.978 15.4499C130.333 14.3684 131.864 13.5872 132.568 13.1141C132.538 12.9714 132.416 12.6409 132.212 12.1226C132.007 11.6119 131.856 11.1913 131.765 10.8683C131.674 10.5454 131.689 10.2524 131.811 9.98957C131.901 9.84686 132.091 9.77175 132.386 9.77175C132.682 9.74171 132.909 9.8018 133.075 9.9445C133.235 10.0947 133.401 10.3651 133.56 10.7557C133.719 11.1537 133.818 11.3791 133.848 11.4392C133.909 11.7621 134.144 11.8973 134.56 11.8372C134.977 11.7771 135.272 11.8523 135.446 12.055C135.863 12.2879 135.908 12.6484 135.583 13.1366C135.257 13.6173 135.212 14.0229 135.446 14.3458C135.537 14.7589 135.893 15.4574 136.537 16.4564C137.173 17.4553 137.522 18.0712 137.582 18.304C137.582 18.3942 137.719 18.7171 137.984 19.2729C138.484 20.2118 138.84 20.6399 139.052 20.5498C139.203 20.347 139.393 19.7386 139.628 18.7246C139.862 17.7107 140.075 17.0422 140.249 16.7193C140.362 16.5465 140.491 16.2536 140.627 15.8405C140.764 15.4274 140.915 15.127 141.097 14.9392C141.271 14.7514 141.521 14.6838 141.855 14.7439C142.059 14.804 142.294 14.9392 142.544 15.1645C142.794 15.3823 142.923 15.5701 142.923 15.7128C142.832 15.8856 142.68 16.1184 142.453 16.3963C142.233 16.6742 142.044 16.9596 141.9 17.2525C141.749 17.5455 141.62 17.9585 141.499 18.4843C140.787 20.6249 140.415 21.7816 140.393 21.9618C140.218 22.2547 140.173 22.5101 140.256 22.7354C140.34 22.9608 140.673 23.3588 141.233 23.9447C141.529 24.2977 142.014 24.7859 142.695 25.4168C143.377 26.0477 143.847 26.5284 144.119 26.8438C144.271 27.0767 144.589 27.3546 145.074 27.6775C145.559 28.0005 145.907 28.1507 146.119 28.1207C146.354 28.0906 146.505 27.9404 146.566 27.655C146.627 27.3771 146.611 26.7687 146.521 25.8299C146.316 24.3352 146.399 23.6142 146.786 23.6743C147.111 23.7043 147.361 24.2151 147.543 25.214C147.929 27.0016 148.028 28.2033 147.854 28.8192C147.733 29.1722 147.573 29.4801 147.369 29.743C147.164 30.0059 146.967 30.1411 146.793 30.1411C145.581 29.8482 144.763 29.5628 144.354 29.2849C143.938 29.007 143.097 28.2333 141.824 26.9715C140.4 25.5595 139.62 24.876 139.469 24.9061C139.294 24.9361 138.984 25.3492 138.537 26.1378C137.469 28.1657 136.613 29.5402 135.961 30.2763C135.454 30.8621 134.924 30.8621 134.363 30.2763C134.098 29.9533 133.962 29.6153 133.962 29.2623C133.962 28.9694 134.015 28.7666 134.121 28.6464C134.227 28.5263 134.393 28.5037 134.628 28.5563C134.833 28.6464 135.03 28.5713 135.204 28.3385C135.378 28.1057 135.568 27.8127 135.757 27.4597C135.946 27.1067 136.09 26.8889 136.181 26.7988C136.446 26.5359 136.757 26.0702 137.113 25.4093C137.469 24.7483 137.719 24.2 137.87 23.7569C137.961 23.5241 138.007 23.2912 138.007 23.0734C138.007 22.8556 137.984 22.6753 137.938 22.5477C137.893 22.42 137.802 22.2397 137.673 22.0219C137.545 21.8041 137.454 21.6614 137.431 21.6013C137.279 21.3685 137.037 20.8878 136.696 20.1742C136.355 19.4532 136.037 18.7998 135.742 18.2139C135.446 17.6281 135.257 17.3051 135.166 17.245C135.075 17.1849 134.84 16.7643 134.454 15.9682C133.924 14.9692 133.628 14.4885 133.568 14.5186C133.363 14.4585 133.022 14.5486 132.545 14.7815C132.076 15.0143 131.773 15.1495 131.659 15.1795C131.098 15.5025 129.887 16.1184 128.023 17.0272C126.16 17.936 124.902 18.597 124.251 19.0101C124.19 19.0701 123.986 19.2053 123.63 19.4307C123.274 19.656 123.054 19.8813 122.963 20.1142C122.933 20.2644 122.865 20.8202 122.766 21.7891C122.66 22.758 122.607 23.4039 122.607 23.7269C122.607 23.7869 122.653 23.817 122.744 23.817C122.834 23.817 122.933 23.802 123.054 23.7719C123.168 23.7419 123.274 23.6818 123.365 23.5992C123.6 23.4264 124.266 23.0659 125.364 22.5176C126.455 21.9768 127.076 21.7064 127.228 21.7064C127.379 21.7064 127.493 21.7891 127.584 21.9468C127.675 22.112 127.69 22.2773 127.629 22.45C127.508 22.6228 127.273 22.803 126.917 22.9758C126.561 23.1485 126.296 23.2987 126.122 23.4189C126.031 23.509 125.637 23.7644 124.925 24.1925C124.213 24.6206 123.653 24.9812 123.236 25.2741C122.819 25.567 122.6 25.7698 122.569 25.89C122.478 25.8599 122.388 26.228 122.282 26.9866C122.175 27.7527 122.062 28.7065 121.948 29.8482C121.827 30.9898 121.729 31.801 121.638 32.2667C121.516 32.6197 121.388 33.6186 121.236 35.256C121.176 36.2849 120.911 36.9459 120.441 37.2388C120.024 37.5317 119.668 37.4566 119.373 37.021C119.282 36.8708 119.168 36.3976 119.017 35.5939C118.865 34.7903 118.797 34.1669 118.797 33.7238V33.1529H119.244C119.539 33.183 119.729 33.0928 119.82 32.8901C119.933 32.537 120.077 31.5156 120.244 29.8332C120.403 28.1432 120.441 27.2569 120.358 27.1743C120.062 27.2344 119.668 27.3546 119.183 27.5499C118.699 27.7376 118.168 27.963 117.608 28.2108C117.047 28.4587 116.676 28.6164 116.502 28.6765C116.085 28.9694 115.646 28.9619 115.169 28.654C114.699 28.346 114.548 28.0155 114.722 27.6625C114.783 27.4597 115.101 27.2194 115.676 26.9565C116.252 26.6936 116.782 26.5284 117.252 26.4758C117.547 26.4458 118.146 26.2355 119.047 25.8374C119.949 25.4393 120.464 25.1539 120.577 24.9812C120.842 24.3653 121.047 23.0434 121.198 21.023C121.198 20.7601 121.198 20.6549 121.198 20.715C121.168 20.7451 121.153 20.7751 121.153 20.8051C121.001 20.715 120.804 20.685 120.555 20.715C120.305 20.7451 120.115 20.7751 120.002 20.8051C119.88 20.8352 119.691 20.9028 119.426 21.0004C119.161 21.1056 118.964 21.1807 118.85 21.2408C118.555 21.3309 118.176 21.4661 117.722 21.6614C117.26 21.8492 116.813 22.0144 116.366 22.1421C115.919 22.2698 115.434 22.3374 114.904 22.3374C113.987 22.4275 113.465 22.4125 113.351 22.2923C113.23 22.2022 113.131 22.0144 113.063 21.7215C112.987 21.4285 112.98 21.2107 113.04 21.0605C113.51 20.7075 114.472 20.3921 115.926 20.1142L115.888 20.0916ZM126.145 7.12795C125.637 7.18803 125.228 7.27816 124.902 7.39083C124.13 7.56357 123.13 7.68375 121.888 7.74383L120.024 7.7889C119.789 7.46593 119.653 7.14297 119.623 6.82C119.623 6.61721 119.646 6.48953 119.691 6.44446C119.736 6.3994 119.903 6.36184 120.198 6.3318C120.229 6.3318 120.873 6.28674 122.13 6.19661C123.387 6.10648 124.251 5.99381 124.728 5.8436C125.258 5.70089 125.751 5.58072 126.19 5.49059C126.781 5.4305 127.198 5.54316 127.432 5.82106C127.667 6.09896 127.607 6.41442 127.258 6.76743C127.023 6.94018 126.652 7.06035 126.152 7.12044L126.145 7.12795ZM146.604 7.28567C146.369 7.36078 146.028 7.20305 145.581 6.82C145.134 6.37686 144.642 5.96377 144.097 5.5657C143.551 5.16762 142.923 4.74702 142.211 4.28886C141.499 3.83821 140.968 3.47769 140.612 3.2073C140.408 3.00451 140.105 2.80923 139.726 2.63648C139.34 2.46373 139.105 2.34356 139.014 2.28347C138.779 2.02059 138.673 1.65256 138.703 1.18689C138.734 0.721219 139.029 0.555981 139.59 0.706197C139.946 0.766283 140.241 0.863924 140.476 0.991608C140.711 1.1268 140.983 1.29955 141.294 1.51737C141.605 1.73518 141.862 1.92295 142.074 2.06566C142.248 2.15578 142.688 2.45622 143.385 2.96695C144.082 3.47769 144.68 3.86825 145.18 4.13113C145.596 4.36397 145.899 4.55925 146.089 4.70195C146.278 4.85217 146.468 5.06998 146.642 5.3629C146.816 5.65583 146.922 5.99381 146.952 6.37686C146.952 6.90262 146.831 7.20305 146.596 7.27816L146.604 7.28567Z" fill="white"/>
<path d="M154.61 6.20379C154.686 5.79069 154.799 5.50528 154.966 5.34755C155.125 5.18983 155.443 5.18983 155.921 5.37009C156.39 5.57288 156.542 6.00099 156.367 6.64693C156.307 6.70701 156.246 7.18019 156.193 8.07398C156.133 8.96777 156.057 10.0268 155.974 11.2435C155.883 12.4603 155.814 13.3316 155.754 13.8648C155.58 14.308 155.451 15.1717 155.375 16.4636C155.299 17.7554 155.239 19.2125 155.201 20.8424C155.163 22.4722 155.118 23.5012 155.087 23.9443C155.027 24.0345 154.981 24.9883 154.951 26.806C154.951 28.218 154.913 29.1569 154.837 29.6225C154.762 30.0957 154.625 30.3886 154.413 30.5013C154.239 30.5914 154.034 30.629 153.815 30.6139C153.595 30.5989 153.421 30.5163 153.307 30.3736C153.133 30.2835 153.057 29.3822 153.088 27.6697C153.118 25.9497 153.178 24.9508 153.262 24.6579C153.322 24.3649 153.375 22.7426 153.421 19.7984C153.466 16.8541 153.55 15.2769 153.663 15.0666C153.754 14.8938 153.822 14.1277 153.86 12.7758C153.906 11.4238 153.959 10.1395 154.019 8.9227C154.08 7.70595 154.193 7.08255 154.375 7.05251C154.466 6.9098 154.542 6.62439 154.618 6.21881L154.61 6.20379ZM161.246 7.54822C162.132 7.18019 162.859 6.86474 163.419 6.60186C163.51 6.54177 163.866 6.41409 164.51 6.20379C165.146 6.00099 165.51 5.8658 165.601 5.80571C165.957 5.54283 166.714 5.36258 167.889 5.27996C169.055 5.18983 170.009 5.24991 170.752 5.45271C171.699 5.80571 172.441 6.72954 172.971 8.2242C173.501 9.71885 173.713 11.3487 173.592 13.1062C173.623 14.4281 173.683 15.3219 173.767 15.7876C173.941 16.6964 174.039 18.3413 174.054 20.7147C174.069 23.0881 174.001 24.733 173.857 25.6418C173.736 26.2577 173.623 26.9937 173.501 27.8425C173.297 29.3071 172.895 30.0582 172.305 30.0882C171.979 30.1182 171.661 29.953 171.35 29.6075C171.04 29.262 170.661 28.6386 170.222 27.7598C169.805 26.9712 169.563 26.4304 169.487 26.1525C169.411 25.8746 169.464 25.6869 169.646 25.6042C170.002 25.4014 170.388 25.7244 170.797 26.5731C171.327 27.8349 171.699 27.6322 171.903 25.9572C171.903 25.8145 171.918 25.5742 171.949 25.2512C171.979 24.8982 172.009 24.6804 172.039 24.5903C172.039 24.0645 172.07 23.6514 172.13 23.3585C172.221 22.8928 172.221 21.6986 172.13 19.7909C172.039 17.8831 171.941 16.6063 171.82 15.9603C171.668 15.1942 171.6 14.1277 171.6 12.7457C171.6 11.4839 171.555 10.5676 171.464 9.99675C171.373 9.42593 171.199 8.91519 170.934 8.47956C170.312 7.42054 169.229 6.9098 167.692 6.93985C167.275 6.93985 166.737 7.06753 166.071 7.31539C165.404 7.56324 164.631 7.88621 163.76 8.28428C162.889 8.68236 162.306 8.93773 162.011 9.0579C160.647 9.58366 159.359 10.3047 158.147 11.2135C157.617 11.6266 157.216 11.6266 156.951 11.2135C156.504 10.5375 157.026 9.77894 158.503 8.9227C159.45 8.3669 160.367 7.90123 161.253 7.5332L161.246 7.54822ZM165.419 13.4667C165.184 13.7296 164.472 14.0526 163.291 14.4356C162.109 14.8187 161.412 15.0666 161.208 15.1867C160.587 15.4796 159.943 15.5923 159.276 15.5172C158.61 15.4421 158.261 15.0966 158.231 14.4807C158.261 14.1277 158.897 13.8047 160.14 13.5118C160.435 13.4217 160.935 13.279 161.647 13.0687C162.359 12.8659 162.912 12.6931 163.313 12.5655C163.715 12.4378 164.147 12.265 164.624 12.0622C165.093 11.8594 165.449 11.6341 165.692 11.4013C165.722 11.4013 165.79 11.3562 165.889 11.2661C165.995 11.1759 166.055 11.1234 166.086 11.1084L166.26 11.0182C166.351 10.9732 166.419 10.9506 166.457 10.9506C166.495 10.9506 166.571 10.9656 166.654 10.9957C166.745 11.0257 166.828 11.0708 166.919 11.1309C167.449 11.6867 166.949 12.4678 165.412 13.4667H165.419ZM159.67 17.8681C159.746 17.425 159.928 17.0945 160.223 16.8541C160.397 16.7114 160.768 16.6664 161.329 16.7189L161.283 17.3348V17.5526C161.283 17.6428 161.283 17.7254 161.261 17.793C161.246 17.8681 161.238 17.9357 161.238 17.9883V18.2061C161.208 18.6793 161.215 18.9496 161.261 19.0172C161.306 19.0924 161.488 19.0248 161.814 18.822C162.079 18.6192 162.488 18.4164 163.033 18.2286C163.579 18.0408 164.078 17.9132 164.518 17.8531C165.139 17.7329 165.624 17.9132 165.957 18.3788C166.298 18.852 166.434 19.4153 166.381 20.0763C166.321 20.7372 166.086 21.2705 165.669 21.6836C165.343 22.0066 164.662 22.8553 163.624 24.2373C163.419 24.5001 163.056 24.778 162.533 25.071C162.018 25.3639 161.473 25.5592 160.912 25.6643C160.352 25.7695 159.89 25.6418 159.534 25.2888C159.087 24.763 159.019 24.2147 159.314 23.6589C159.465 23.3961 159.534 22.3821 159.534 20.6246C159.534 19.2125 159.572 18.2887 159.647 17.8531L159.67 17.8681ZM161.798 23.5012C161.905 23.4712 162.048 23.366 162.245 23.1933C162.435 23.0205 162.601 22.8553 162.73 22.7126C162.867 22.5699 163.018 22.3896 163.2 22.1868C163.374 21.984 163.495 21.8488 163.556 21.7887C163.616 21.6986 163.73 21.5334 163.912 21.2855C164.086 21.0377 164.23 20.8123 164.336 20.602C164.442 20.3992 164.495 20.1964 164.51 20.0087C164.525 19.8209 164.51 19.6932 164.487 19.6331C164.457 19.573 164.366 19.528 164.222 19.4979C163.753 19.4979 163.124 19.9261 162.359 20.7748C161.586 21.6235 161.276 22.3596 161.427 22.9754C161.488 23.2383 161.518 23.4186 161.518 23.5012C161.609 23.5312 161.7 23.5312 161.806 23.5012H161.798Z" fill="white"/>
<path d="M184.637 30.1484C184.402 30.6216 184.069 31.1399 183.637 31.7107C183.205 32.2815 182.948 32.7171 182.857 33.01C182.887 33.1828 182.455 33.7461 181.569 34.685C180.683 35.6238 180.145 36.0069 179.971 35.8266C179.675 35.8266 179.425 35.7365 179.213 35.5637C179.009 35.391 178.903 35.1657 178.903 34.9028C178.872 34.73 179.13 34.3244 179.683 33.6935C180.228 33.0626 180.516 32.7021 180.546 32.612C180.577 32.4918 180.986 32.0036 181.766 31.1399C182.546 30.2761 182.94 29.7504 182.94 29.5776C182.94 29.2246 183.16 28.9767 183.607 28.8265C184.054 28.6838 184.387 28.7514 184.629 29.0443C184.864 29.3072 184.864 29.6752 184.629 30.1409L184.637 30.1484ZM196.264 5.28011C196.385 5.37024 196.522 5.38526 196.688 5.32517C196.847 5.26508 197.006 5.25757 197.158 5.30264C197.309 5.3477 197.377 5.49792 197.377 5.76831C197.377 5.9711 197.294 6.249 197.135 6.57948C196.976 6.91746 196.756 7.28549 196.491 7.67606C196.226 8.06662 196.059 8.35954 196.006 8.53229C195.976 8.62242 195.832 8.8853 195.582 9.32093C195.332 9.76406 195.204 10.0119 195.204 10.072C195.234 10.1321 195.514 10.0119 196.044 9.719C196.575 9.42608 197.067 9.14818 197.506 8.8853C198.87 8.00653 199.854 7.45824 200.46 7.23292C201.066 7.0151 201.521 7.05266 201.816 7.34558C202.051 7.51833 202.142 7.69859 202.081 7.87134C202.021 8.04409 201.945 8.17177 201.862 8.24688C201.771 8.32199 201.627 8.41963 201.415 8.53229C201.21 8.65246 201.059 8.73508 200.968 8.79517C200.794 8.91534 200.021 9.35848 198.658 10.1396C197.294 10.9207 196.287 11.5291 195.643 11.9647C194.34 12.9036 193.423 13.4744 192.893 13.6847C192.628 13.7748 192.136 14.0527 191.431 14.5184C190.719 14.9916 190.204 15.1944 189.879 15.1343C189.704 15.1343 189.227 15.307 188.454 15.6601C187.742 16.0131 187.212 16.1933 186.856 16.2083C186.5 16.2234 186.205 16.0957 185.97 15.8328C185.705 15.5399 185.606 15.2995 185.682 15.1043C185.758 14.9165 186.031 14.6987 186.5 14.4658C186.765 14.3231 187.22 14.1429 187.856 13.9401C188.492 13.7373 189.06 13.542 189.568 13.3693C190.068 13.1965 190.363 13.0463 190.454 12.9261C190.515 12.7233 190.591 12.115 190.674 11.101C190.757 10.087 190.81 9.52372 190.81 9.40355C190.871 9.02049 190.871 8.80268 190.81 8.74259C190.75 8.68251 190.591 8.71255 190.325 8.83272C190.03 8.98294 189.689 9.08809 189.303 9.1632C188.917 9.23831 188.667 9.24582 188.545 9.18573C188.189 9.01298 188.015 8.59989 188.015 7.95396C188.015 7.78121 188.106 7.62348 188.28 7.48829C188.454 7.35309 188.667 7.29301 188.901 7.29301C189.318 7.20288 189.674 7.09021 189.969 6.94C190.265 6.79729 190.591 6.60201 190.947 6.36917C191.303 6.13634 191.628 5.94106 191.924 5.79835C192.515 5.50543 192.924 5.27259 193.143 5.09234C193.363 4.91208 193.923 4.59662 194.81 4.12344C195.166 3.92065 195.491 3.83052 195.787 3.86056C196.082 3.8906 196.219 4.15348 196.188 4.6492C196.128 4.97216 196.158 5.17495 196.279 5.26508L196.264 5.28011ZM192.446 0.833701C193.537 0.773614 194.31 0.64593 194.757 0.435627C194.931 0.375541 195.143 0.307944 195.378 0.240346C195.613 0.165238 195.84 0.082619 196.044 0C196.135 0 196.264 0.0675974 196.446 0.195281C196.628 0.322965 196.726 0.450649 196.756 0.570822C196.878 1.01396 196.469 1.44959 195.537 1.89273C194.605 2.33586 193.575 2.58372 192.454 2.64381C191.242 2.70389 190.53 2.58372 190.325 2.2908C190.204 2.14809 190.151 1.9453 190.151 1.69745C190.151 1.44959 190.212 1.29186 190.325 1.23177C190.651 1.02898 191.363 0.893787 192.454 0.833701H192.446ZM191.401 19.6258C191.742 18.0109 191.954 16.8993 192.045 16.2835C192.136 16.0206 192.333 15.6901 192.643 15.292C192.954 14.894 193.227 14.6311 193.461 14.5034C193.696 14.3682 194.052 14.3156 194.529 14.3306C194.999 14.3457 195.34 14.4283 195.552 14.571C195.847 14.7437 196.052 14.9465 196.173 15.1643C196.294 15.3822 196.393 15.6525 196.484 15.9755C196.575 16.2985 196.658 16.5614 196.749 16.7641C196.809 16.8543 196.855 16.9369 196.885 17.0045C196.915 17.0796 196.938 17.1697 196.953 17.2674C196.968 17.3725 196.976 17.4476 196.976 17.5077C196.976 17.5678 196.976 17.673 196.953 17.8157C196.938 17.9659 196.923 18.0785 196.908 18.1687C196.893 18.2588 196.862 18.4165 196.817 18.6494C196.771 18.8822 196.734 19.0925 196.703 19.2653C196.643 19.6483 196.567 19.9863 196.484 20.2792C196.393 20.5721 196.279 20.8425 196.128 21.0904C195.976 21.3382 195.855 21.541 195.749 21.6837C195.643 21.834 195.461 22.0593 195.196 22.3672C194.931 22.6752 194.726 22.9305 194.575 23.1408C193.954 23.8468 193.499 24.2524 193.219 24.3501C192.939 24.4552 192.416 24.4026 191.643 24.1923C191.053 24.0496 190.757 23.7492 190.757 23.3136C190.848 22.4649 191.06 21.2331 191.401 19.6183V19.6258ZM198.9 29.9456C198.855 29.9006 198.802 29.863 198.741 29.833C198.68 29.8029 198.612 29.7729 198.544 29.7428C198.468 29.7128 198.385 29.6903 198.302 29.6752C198.211 29.6602 198.12 29.6527 198.014 29.6527H196.575C195.719 29.6828 195.188 29.6828 194.999 29.6527C194.81 29.6227 194.635 29.5325 194.492 29.3898C194.196 29.127 194.113 28.8265 194.249 28.4885C194.385 28.1505 194.673 27.9553 195.113 27.8952C196.264 27.6323 197.862 27.1065 199.907 26.3104C201.953 25.5143 203.248 25.0336 203.816 24.8608C204.02 24.8007 204.755 24.5604 206.013 24.1323C207.27 23.7041 208.058 23.4638 208.384 23.4037C208.883 23.3136 209.467 23.1784 210.118 22.9831C210.77 22.7953 211.391 22.6376 211.982 22.5174C212.398 22.3973 212.739 22.4348 213.027 22.6301C213.307 22.8179 213.375 23.1108 213.224 23.4863C213.193 23.5464 213.148 23.6516 213.087 23.7943C213.027 23.9445 212.989 24.0271 212.974 24.0572C212.959 24.0872 212.913 24.1548 212.837 24.2524C212.762 24.3576 212.694 24.4027 212.64 24.3876C212.58 24.3726 212.489 24.4027 212.375 24.4778C212.254 24.5529 212.133 24.5679 211.997 24.5228C211.86 24.4778 211.679 24.4853 211.444 24.5454C210.376 24.5754 208.989 24.8683 207.27 25.4241C205.551 25.9799 204.43 26.3029 203.899 26.393C203.748 26.363 203.271 26.5658 202.46 27.0089C201.642 27.452 201.044 27.6849 200.665 27.7149C199.748 27.8651 199.286 28.083 199.286 28.3759C199.286 28.466 199.521 28.6237 199.998 28.8566C200.468 29.0894 200.779 29.2096 200.93 29.2096C201.43 29.3823 201.657 29.7128 201.597 30.201C201.536 30.6817 201.271 31.0272 200.801 31.2375C198.938 32.4392 197.324 33.0251 195.961 32.995L194.938 33.0401L193.742 32.3791C192.999 32.0261 192.507 31.6957 192.257 31.3877C192.007 31.0798 191.787 30.5916 191.613 29.9156C191.522 29.5025 191.59 29.2246 191.81 29.0819C192.03 28.9392 192.287 28.9242 192.59 29.0368C192.886 29.157 193.09 29.3448 193.211 29.6076C193.537 30.1935 194.022 30.6517 194.673 30.9746C194.969 31.1474 195.196 31.2525 195.363 31.2826C195.522 31.3126 195.749 31.2976 196.029 31.2375C196.309 31.1774 196.552 31.1474 196.764 31.1474C197.09 31.1173 197.559 30.9746 198.188 30.7042C198.817 30.4338 199.12 30.2386 199.12 30.0883C199.029 30.0283 198.961 29.9757 198.923 29.9306L198.9 29.9456ZM195.59 5.58805C195.499 5.49792 195.249 5.66316 194.832 6.06874C194.06 6.74472 193.552 7.22541 193.302 7.51833C193.052 7.81125 192.893 8.10417 192.833 8.3971C192.568 9.39603 192.408 10.0119 192.363 10.2448C192.318 10.4776 192.34 10.6579 192.431 10.7705C192.552 10.8907 192.696 10.8156 192.878 10.5527C193.052 10.3499 193.439 9.66642 194.029 8.50976C194.62 7.35309 194.991 6.66961 195.135 6.46681C195.522 5.9711 195.666 5.67818 195.582 5.58805H195.59ZM193.037 22.6226C193.196 22.6226 193.295 22.4498 193.325 22.0968C193.264 21.7739 193.484 21.526 193.969 21.3457C194.454 21.1655 194.719 20.9927 194.749 20.82C194.87 20.5872 194.901 20.4069 194.84 20.2942C194.688 19.8811 194.295 19.9863 193.643 20.6022C193.022 21.188 192.742 21.7138 192.802 22.187C192.802 22.4799 192.886 22.6301 193.045 22.6301L193.037 22.6226ZM194.166 16.6815C194.045 16.8543 193.946 17.0946 193.855 17.3875C193.62 18.1536 193.651 18.5142 193.946 18.4841C194.067 18.4841 194.242 18.394 194.476 18.2212C194.946 17.8382 195.219 17.5753 195.272 17.4326C195.332 17.2899 195.272 16.9895 195.097 16.5538C194.832 16.0581 194.522 16.1032 194.166 16.689V16.6815Z" fill="white"/>
<path d="M226.934 16.3059C226.843 16.2308 226.775 16.1933 226.737 16.1933C226.699 16.1933 226.578 16.2308 226.404 16.3059C226.229 16.381 226.093 16.4336 226.002 16.4637C225.676 16.6965 225.32 16.6965 224.934 16.4637C224.548 16.2308 224.32 15.9154 224.245 15.5173C224.169 15.1192 224.298 14.7362 224.623 14.3531C224.889 14.0001 225.108 13.7823 225.29 13.6922C226.237 13.3392 227.093 13.5044 227.865 14.1729C228.638 14.8488 228.949 15.5999 228.797 16.4186C228.623 17.4175 228.161 18.4916 227.419 19.6558C226.676 20.8124 225.957 21.6461 225.245 22.1418C224.949 22.262 224.707 22.2845 224.51 22.2094C224.32 22.1343 224.23 21.9766 224.245 21.7287C224.26 21.4809 224.404 21.2255 224.669 20.9551C225.139 20.4594 225.623 19.7534 226.108 18.8446C226.593 17.9358 226.866 17.2598 226.926 16.8167C227.017 16.5538 227.017 16.381 226.926 16.3134L226.934 16.3059Z" fill="white"/>
<path d="M22.8885 76.4393C24.3353 76.1614 25.2442 75.9661 25.5927 75.8459C25.6836 75.7858 26.1229 75.6356 26.9258 75.3802C27.7211 75.1324 28.168 74.9446 28.2589 74.832C28.2892 74.7118 28.3347 73.788 28.3953 72.0605C28.4559 70.333 28.5165 69.4091 28.5695 69.289C28.6301 68.9961 28.774 68.7031 29.0164 68.4102C29.2512 68.1173 29.4633 67.9671 29.6375 67.9671C29.789 67.9671 30.0087 68.0572 30.3041 68.23C30.5995 68.4027 30.7738 68.5379 30.8343 68.628C30.7738 68.8308 30.6601 69.0561 30.5011 69.289C30.342 69.5218 30.2132 69.7847 30.1223 70.0776C30.0314 70.3705 30.0011 70.7536 30.0314 71.2193C29.8799 73.0369 29.9254 73.9757 30.1678 74.0358C30.2587 74.0358 30.4177 73.9757 30.6526 73.8631C31.1828 73.5701 32.6296 72.8791 34.9777 71.7976C37.3334 70.716 38.8635 69.9349 39.568 69.4617C39.5377 69.319 39.4165 68.9885 39.212 68.4703C39.0075 67.9596 38.856 67.539 38.7651 67.216C38.6742 66.893 38.6893 66.6001 38.8105 66.3372C38.9014 66.1945 39.0908 66.1194 39.3862 66.1194C39.6816 66.0894 39.9088 66.1495 40.0755 66.2922C40.2346 66.4424 40.4012 66.7128 40.5603 67.1033C40.7193 67.5014 40.8178 67.7267 40.8481 67.7868C40.9087 68.1098 41.1435 68.245 41.5601 68.1849C41.9767 68.1248 42.2721 68.1999 42.4464 68.4027C42.863 68.6355 42.9084 68.9961 42.5827 69.4843C42.257 69.9649 42.2116 70.3705 42.4464 70.6935C42.5373 71.1066 42.8933 71.8051 43.5371 72.804C44.1734 73.803 44.5218 74.4189 44.5824 74.6517C44.5824 74.7418 44.7188 75.0648 44.9839 75.6206C45.4838 76.5594 45.8398 76.9876 46.0519 76.8974C46.2034 76.6946 46.3928 76.0863 46.6276 75.0723C46.8624 74.0583 47.0745 73.3899 47.2487 73.0669C47.3699 72.8942 47.4911 72.6012 47.6275 72.1882C47.7638 71.7751 47.9153 71.4746 48.0971 71.2869C48.2713 71.0991 48.5288 71.0315 48.8546 71.0916C49.0591 71.1517 49.2939 71.2869 49.5439 71.5122C49.7938 71.73 49.9226 71.9178 49.9226 72.0605C49.8317 72.2332 49.6802 72.4661 49.453 72.744C49.2333 73.0219 49.0439 73.3073 48.9 73.6002C48.7485 73.8931 48.6197 74.3062 48.4985 74.832C47.7865 76.9725 47.4154 78.1292 47.3926 78.3095C47.2184 78.6024 47.173 78.8578 47.2563 79.0831C47.3396 79.3084 47.6729 79.7065 48.2334 80.2923C48.5289 80.6453 49.0136 81.1335 49.6954 81.7644C50.3771 82.3954 50.8467 82.876 51.1194 83.1915C51.2709 83.4243 51.589 83.7022 52.0738 84.0252C52.5586 84.3482 52.907 84.4984 53.1191 84.4683C53.3539 84.4383 53.5054 84.2881 53.566 84.0027C53.6266 83.7248 53.6115 83.1164 53.5206 82.1775C53.3161 80.6829 53.3994 79.9618 53.7857 80.0219C54.1114 80.052 54.3614 80.5627 54.5432 81.5617C54.9295 83.3492 55.0279 84.551 54.8537 85.1668C54.7325 85.5199 54.5735 85.8278 54.3689 86.0907C54.1644 86.3536 53.9675 86.4888 53.7933 86.4888C52.5813 86.1958 51.7632 85.9104 51.3542 85.6325C50.9376 85.3546 50.0968 84.581 48.8243 83.3192C47.4002 81.9072 46.62 81.2237 46.4685 81.2537C46.2943 81.2838 45.9838 81.6968 45.5368 82.4855C44.4688 84.5134 43.6129 85.8879 42.9614 86.6239C42.4539 87.2098 41.9237 87.2098 41.3632 86.6239C41.0981 86.301 40.9617 85.963 40.9617 85.61C40.9617 85.3171 41.0147 85.1143 41.1208 84.9941C41.2268 84.8739 41.3935 84.8514 41.6283 84.904C41.8328 84.9941 42.0298 84.919 42.204 84.6862C42.3782 84.4533 42.5676 84.1604 42.7569 83.8074C42.9463 83.4544 43.0902 83.2366 43.1811 83.1464C43.4462 82.8836 43.7568 82.4179 44.1128 81.7569C44.4688 81.096 44.7188 80.5477 44.8703 80.1046C44.9612 79.8717 45.0066 79.6389 45.0066 79.4211C45.0066 79.2033 44.9839 79.023 44.9384 78.8953C44.893 78.7676 44.8021 78.5874 44.6733 78.3696C44.5446 78.1517 44.4612 78.009 44.4309 77.9489C44.2794 77.7161 44.0371 77.2354 43.6962 76.5219C43.3553 75.8009 43.0372 75.1474 42.7418 74.5616C42.4464 73.9757 42.257 73.6528 42.1661 73.5927C42.0752 73.5326 41.8404 73.112 41.4541 72.3158C40.9239 71.3169 40.6284 70.8362 40.5678 70.8662C40.3633 70.8062 40.0225 70.8963 39.5453 71.1291C39.0756 71.362 38.7726 71.4972 38.659 71.5272C38.0985 71.8502 36.8865 72.4661 35.0232 73.3749C33.1598 74.2837 31.9024 74.9446 31.251 75.3577C31.1904 75.4178 30.9858 75.553 30.6298 75.7783C30.2738 76.0036 30.0541 76.229 29.9633 76.4618C29.933 76.612 29.8648 77.1678 29.7663 78.1367C29.6603 79.1056 29.6073 79.7515 29.6073 80.0745C29.6073 80.1346 29.6527 80.1646 29.7436 80.1646C29.8345 80.1646 29.933 80.1496 30.0542 80.1196C30.1754 80.0895 30.2738 80.0294 30.3647 79.9468C30.5995 79.7741 31.2661 79.4136 32.3644 78.8653C33.4552 78.3245 34.0763 78.0541 34.2278 78.0541C34.3793 78.0541 34.4929 78.1367 34.5838 78.2944C34.6747 78.4597 34.6899 78.6249 34.6293 78.7977C34.5081 78.9704 34.2733 79.1507 33.9172 79.3234C33.5612 79.4962 33.2961 79.6464 33.1219 79.7666C33.031 79.8567 32.6371 80.1121 31.9251 80.5402C31.2131 80.9683 30.6525 81.3288 30.2359 81.6217C29.8193 81.9147 29.5997 82.1175 29.5694 82.2376C29.4785 82.2076 29.3876 82.5756 29.2815 83.3342C29.1755 84.1003 29.0694 85.0542 28.9482 86.1958C28.827 87.3375 28.7286 88.1486 28.6377 88.6143C28.5165 88.9673 28.3877 89.9663 28.2362 91.6036C28.1756 92.6326 27.9105 93.2936 27.4409 93.5865C27.0243 93.8794 26.6683 93.8043 26.3729 93.3687C26.282 93.2184 26.1683 92.7453 26.0168 91.9416C25.8653 91.1379 25.7972 90.5146 25.7972 90.0714V89.5006H26.2441C26.5395 89.5306 26.7289 89.4405 26.8198 89.2377C26.941 88.8847 27.0773 87.8632 27.2439 86.1808C27.403 84.4909 27.4409 83.6046 27.3576 83.522C27.0622 83.5821 26.6683 83.7022 26.1835 83.8975C25.6987 84.0853 25.1685 84.3106 24.6079 84.5585C24.0474 84.8063 23.6762 84.9641 23.502 85.0241C23.0854 85.3171 22.6461 85.3096 22.1689 85.0016C21.6993 84.6937 21.5478 84.3632 21.722 84.0102C21.7826 83.8074 22.1007 83.567 22.6764 83.3042C23.2521 83.0413 23.7823 82.876 24.2519 82.8235C24.5473 82.7934 25.1457 82.5831 26.0471 82.1851C26.9485 81.787 27.4636 81.5016 27.5772 81.3288C27.8423 80.7129 28.0469 79.391 28.1984 77.3706C28.1984 77.1077 28.1984 77.0026 28.1984 77.0627C28.1681 77.0927 28.1529 77.1228 28.1529 77.1528C28.0014 77.0627 27.8045 77.0326 27.5545 77.0627C27.3045 77.0927 27.1152 77.1228 27.0016 77.1528C26.8804 77.1828 26.691 77.2504 26.4259 77.3481C26.1608 77.4532 25.9638 77.5283 25.8502 77.5884C25.5548 77.6786 25.176 77.8138 24.7216 78.009C24.2595 78.1968 23.8126 78.362 23.3657 78.4897C22.9188 78.6174 22.434 78.685 21.9038 78.685C20.9872 78.7751 20.4646 78.7601 20.351 78.6399C20.2298 78.5498 20.1389 78.362 20.0631 78.0691C19.9874 77.7762 19.9798 77.5584 20.0404 77.4082C20.51 77.0552 21.472 76.7397 22.9264 76.4618L22.8885 76.4393ZM33.1446 63.4756C32.6371 63.5357 32.2281 63.6258 31.9024 63.7385C31.1298 63.9112 30.1299 64.0314 28.8876 64.0915L27.0243 64.1366C26.7895 63.8136 26.6531 63.4906 26.6228 63.1677C26.6228 62.9649 26.6455 62.8372 26.691 62.7921C26.7364 62.7471 26.9031 62.7095 27.1985 62.6795C27.2288 62.6795 27.8726 62.6344 29.13 62.5443C30.3874 62.4541 31.251 62.3415 31.7282 62.1913C32.2584 62.0485 32.7507 61.9284 33.1901 61.8382C33.7809 61.7782 34.1975 61.8908 34.4323 62.1687C34.6671 62.4466 34.6066 62.7621 34.2581 63.1151C34.0233 63.2878 33.6521 63.408 33.1522 63.4681L33.1446 63.4756ZM53.6039 63.6333C53.3691 63.7084 53.0282 63.5507 52.5813 63.1677C52.1344 62.7245 51.6421 62.3114 51.0967 61.9134C50.5513 61.5153 49.9226 61.0947 49.2106 60.6365C48.4985 60.1859 47.9683 59.8253 47.6123 59.555C47.4078 59.3522 47.1048 59.1569 46.7261 58.9841C46.3398 58.8114 46.1049 58.6912 46.014 58.6311C45.7792 58.3682 45.6732 58.0002 45.7035 57.5345C45.7338 57.0689 46.0292 56.9036 46.5897 57.0539C46.9457 57.1139 47.2412 57.2116 47.476 57.3393C47.7108 57.4745 47.9835 57.6472 48.294 57.865C48.6046 58.0828 48.8621 58.2706 49.0742 58.4133C49.2485 58.5034 49.6878 58.8039 50.3847 59.3146C51.0815 59.8253 51.6799 60.2159 52.1799 60.4788C52.5965 60.7116 52.8995 60.9069 53.0888 61.0496C53.2782 61.1998 53.4676 61.4176 53.6418 61.7106C53.816 62.0035 53.922 62.3415 53.9523 62.7245C53.9523 63.2503 53.8311 63.5507 53.5963 63.6258L53.6039 63.6333Z" fill="white"/>
<path d="M65.14 82.2227C65.0491 83.1315 65.1097 84.2206 65.3142 85.4824C65.3142 85.5725 65.2914 85.7828 65.246 86.1208C65.2005 86.4588 65.1551 86.7743 65.1097 87.0672C65.0642 87.3601 64.9885 87.653 64.89 87.9459C64.7839 88.2389 64.6324 88.4492 64.4204 88.5844C64.2158 88.7196 63.9734 88.7421 63.7083 88.652C63.2917 88.5093 63.0493 88.2464 62.9736 87.8783C62.8978 87.5103 62.9357 86.9996 63.0872 86.3386C63.2387 85.6777 63.3069 85.1745 63.3069 84.8214C63.4811 82.065 63.5417 77.3557 63.4811 70.6936C63.2463 70.6936 62.86 71.2194 62.3297 72.2784C62.1782 72.3385 61.9207 72.8116 61.5496 73.7054C61.1784 74.5992 60.8602 75.11 60.5951 75.2226C60.0346 75.4555 59.6483 75.4104 59.4438 75.0874C59.2393 74.7645 59.3377 74.3138 59.7543 73.7205C60.0801 72.6915 60.7088 71.4071 61.6404 69.8674C62.5721 68.3277 63.1705 67.2762 63.4356 66.7204C64.4128 64.7525 65.2687 63.2879 66.011 62.319C66.2156 62.1162 66.3671 61.8759 66.458 61.613C66.5489 61.1699 66.7382 60.892 67.0336 60.7793C67.329 60.6591 67.6699 60.7042 68.0562 60.9145C68.1471 61.0046 68.1926 61.2074 68.1926 61.5304C68.1926 61.8534 68.1471 62.1012 68.0562 62.2815C67.6093 63.1302 67.1169 64.0165 66.5716 64.9253C66.0262 65.8341 65.5717 66.6152 65.2157 67.2612C64.9203 67.6742 64.9354 68.0423 65.2611 68.3577C65.496 68.7107 65.6323 69.1464 65.6626 69.6796C65.6929 70.2054 65.6626 70.9114 65.549 71.7902C65.4429 72.6689 65.3899 73.375 65.3899 73.9007C65.3899 76.8074 65.299 79.5789 65.1248 82.2152L65.14 82.2227ZM73.7297 62.7471C74.2145 62.8823 74.6083 63.0025 74.9037 63.1227C75.1992 63.2429 75.5173 63.4006 75.8582 63.6034C76.199 63.8062 76.449 64.0766 76.6156 64.392C76.7747 64.715 76.8429 65.1131 76.8126 65.5787C76.5475 66.4875 76.3429 67.1785 76.1915 67.6442C76.04 68.1174 75.8051 68.6431 75.4794 69.229C75.1537 69.8148 74.7523 70.3706 74.2826 70.9039C74.1614 71.0541 73.8584 71.4221 73.3737 72.023C72.8889 72.6239 72.5404 73.0895 72.3283 73.4125C72.2375 73.7054 72.192 74.9447 72.192 77.1304C72.192 79.316 72.2526 80.5703 72.3662 80.8933C72.4268 81.1862 72.4571 81.5242 72.4571 81.9072C72.4571 82.2903 72.4192 82.6809 72.3435 83.0714C72.2678 83.4695 72.1238 83.7624 71.8966 83.9502C71.6769 84.138 71.3891 84.1605 71.0331 84.0178C70.7074 83.8751 70.518 83.6798 70.4574 83.447C70.3968 83.2141 70.3665 82.5382 70.3665 81.419C70.3665 78.8053 70.3665 76.4319 70.3438 74.2913C70.3286 72.1507 70.3438 70.273 70.4119 68.6582C70.4725 67.0433 70.5862 66.0294 70.768 65.6238C70.768 65.5337 70.8967 65.3534 71.1467 65.0755C71.3967 64.7976 71.4497 64.5422 71.3058 64.3019C71.1012 63.9188 71.1543 63.5433 71.48 63.1828C71.8057 62.8147 72.1769 62.5594 72.5859 62.4092C72.851 62.4993 73.2297 62.6044 73.7145 62.7396L73.7297 62.7471ZM71.9799 64.4821C71.9799 64.6549 72.1163 64.9403 72.3814 65.3158L72.7828 65.9317C74.4947 65.436 74.881 65.0229 73.9342 64.7C72.6313 64.1442 71.9799 64.0691 71.9799 64.4821ZM74.2675 67.0133C74.1084 66.9983 73.9948 67.0358 73.9342 67.126C73.9039 67.2161 73.6539 67.3588 73.1767 67.5691C72.6465 67.832 72.3359 68.0197 72.245 68.1174C72.1541 68.2225 72.139 68.4929 72.1996 68.9286C72.2905 69.9575 72.4344 70.4382 72.6465 70.3781C72.7374 70.3481 72.8056 70.1904 72.8662 69.8974C72.9268 69.6346 73.2146 69.1614 73.7297 68.4854C74.2448 67.8094 74.5099 67.3738 74.5099 67.1635C74.5099 67.0734 74.4265 67.0208 74.2675 67.0058V67.0133ZM83.1677 64.1967C83.1374 63.9489 83.0314 63.6785 82.8572 63.3856C82.4709 62.8598 82.4481 62.3115 82.789 61.7557C83.1299 61.1999 83.5768 61.0046 84.1449 61.1849C84.3797 61.3351 84.7509 61.1098 85.2508 60.5239C85.7507 59.9381 86.0461 59.6452 86.137 59.6452C86.2885 59.555 86.5158 59.3973 86.8263 59.1645C87.1369 58.9317 87.402 58.7439 87.6217 58.6162C87.8413 58.4885 88.1519 58.3683 88.5534 58.2632C88.9548 58.158 89.3033 58.1956 89.5987 58.3759C89.9244 58.4359 90.3107 58.6913 90.75 59.1495C91.1969 59.6076 91.5226 60.0057 91.7272 60.3587C91.7878 60.4789 91.8559 61.1849 91.9241 62.4918C91.9999 63.7987 92.0604 64.5122 92.121 64.6249C92.1513 65.0379 92.0908 66.1571 91.9468 67.9897C91.7953 69.8223 91.7726 70.8288 91.8559 71.0015C91.9165 71.0917 91.9544 73.6754 91.9696 78.7452C91.9847 83.8225 91.9696 86.7517 91.9468 87.5479C91.9165 88.4266 91.7423 89.05 91.4166 89.4181C91.0909 89.7861 90.5455 90.0715 89.7729 90.2743C89.3033 90.3644 88.7957 90.1616 88.2655 89.6809C87.7353 89.2003 87.4096 88.6294 87.2884 87.9835C87.1369 87.3977 87.1369 87.0597 87.2884 86.9695C87.4399 86.8794 87.6747 87.0597 88.0004 87.4953C88.6518 88.3741 89.1063 88.8172 89.379 88.8172C89.8486 88.6745 90.1365 88.1412 90.2425 87.2324C90.3486 86.3236 90.3561 85.2571 90.2653 84.0403C90.1744 82.8236 90.1592 82.0349 90.2198 81.6894C90.2804 80.6905 90.2956 79.6615 90.2653 78.61C90.235 77.551 90.1743 75.9737 90.091 73.8782C90.0001 71.7827 89.9547 70.3331 89.9547 69.5444C89.8335 69.1313 89.5381 69.1163 89.0684 69.4994C88.3564 70.0852 87.349 70.596 86.0537 71.0391C85.7886 71.1593 85.5841 71.2269 85.4326 71.2569C85.2811 71.287 85.1523 71.2794 85.0311 71.2344C84.9099 71.1893 84.8342 71.1518 84.7887 71.1217C84.7433 71.0917 84.6751 71.0015 84.5918 70.8588C84.5009 70.7161 84.4327 70.611 84.3721 70.5509C84.3721 70.3181 84.357 70.1378 84.3267 70.0251C84.2964 69.905 84.3494 69.8073 84.4858 69.7172C84.6221 69.6271 84.7206 69.5595 84.7963 69.5219C84.8721 69.4768 85.0236 69.4017 85.2659 69.3041C85.5008 69.1989 85.6977 69.1088 85.8416 69.0187C87.705 68.3728 89.0684 67.4489 89.9244 66.2472C90.0153 66.0744 90.0835 65.7965 90.1213 65.4135C90.1668 65.0304 90.1441 64.8126 90.0532 64.7525C89.9623 64.7826 89.3487 65.0304 88.2125 65.5036C87.0763 65.9768 86.2658 66.3073 85.7962 66.5176C85.675 66.5176 85.5614 66.6152 85.4402 66.803C85.319 66.9908 85.2659 67.1936 85.2659 67.3963C85.4174 67.9521 85.2356 68.3803 84.7357 68.6732C84.2282 68.9661 83.804 68.9511 83.448 68.6281C83.2965 68.4554 83.2283 67.6442 83.2283 66.2096C83.2283 65.1281 83.2132 64.4596 83.1829 64.2042L83.1677 64.1967ZM89.1821 60.216C89.1063 60.1559 88.9245 60.1184 88.6291 60.1033C88.3337 60.0883 88.1216 60.1184 88.008 60.1935C87.8868 60.2686 87.6368 60.4939 87.2505 60.877C86.3946 61.7557 85.8416 62.7096 85.6068 63.7386C85.372 64.2944 85.4326 64.5723 85.781 64.5723C85.8719 64.5723 86.4325 64.3695 87.4702 63.9564C87.7656 63.8663 87.9549 63.8362 88.0458 63.8663C88.6973 63.8362 89.2124 63.4907 89.5987 62.8298C89.985 62.1688 89.9698 61.4703 89.5532 60.7418C89.379 60.4488 89.2502 60.2761 89.1745 60.216H89.1821Z" fill="white"/>
<path d="M119.11 73.1117C118.989 73.1718 118.799 73.277 118.534 73.4197C116.701 74.4186 115.497 75.012 114.914 75.1997C114.338 75.3875 113.278 75.5903 111.74 75.7931C110.528 75.9658 109.475 76.1161 108.589 76.2362C108.081 76.3264 107.46 76.4465 106.703 76.6118C105.945 76.777 105.279 76.9122 104.68 77.0324C104.089 77.1526 103.446 77.2577 102.749 77.3629C102.052 77.468 101.378 77.5131 100.726 77.4981C100.075 77.483 99.4688 77.4004 98.9083 77.2577C98.7341 77.1976 98.522 76.9197 98.2872 76.424C98.166 76.1611 98.166 76.0259 98.2872 76.0259C98.3478 76.0259 98.4084 76.041 98.4614 76.071C98.6659 76.041 98.9613 75.9133 99.3476 75.6729C99.7339 75.4401 100.325 75.35 101.12 75.41C102.158 75.38 103.271 75.2373 104.468 74.9669C105.665 74.6965 106.695 74.5388 107.551 74.4862C108.619 74.3961 109.505 74.2984 110.217 74.1783C110.929 74.0581 111.475 73.9529 111.861 73.8478C112.247 73.7426 113.058 73.5173 114.3 73.1643C114.77 73.0441 115.467 72.8263 116.383 72.5034C117.3 72.1804 118.095 71.895 118.754 71.6471C119.421 71.3993 119.784 71.2566 119.845 71.2265C120.405 70.8735 120.761 70.9636 120.913 71.4894C121.064 71.9851 120.943 72.3381 120.557 72.5484C120.436 72.6085 120.307 72.6386 120.155 72.6386C119.951 72.6386 119.595 72.8038 119.087 73.1192L119.11 73.1117Z" fill="white"/>
<path d="M132.956 71.6174C132.956 71.4747 133.108 71.1668 133.403 70.6936C133.729 70.1979 134.024 69.4768 134.29 68.538C134.555 67.5991 134.615 67.0884 134.464 66.9982C134.343 66.9081 133.456 67.0583 131.798 67.4414C131.381 67.5616 131.101 67.5916 130.957 67.5315C130.805 67.4714 130.676 67.3137 130.555 67.0508C130.434 66.6978 130.525 66.4124 130.82 66.1946C131.116 65.9768 131.707 65.759 132.593 65.5562C133.835 65.2332 134.547 65.0304 134.721 64.9403L134.63 63.5733C134.57 62.1913 134.706 61.4177 135.032 61.2374C135.388 61.0347 135.714 61.0647 136.009 61.3276C136.161 61.4778 136.229 61.9435 136.229 62.7396C136.229 63.5358 136.289 63.9564 136.403 64.0165C136.698 64.1066 137.274 63.7686 138.138 63.0025C138.637 62.5594 139.016 62.3566 139.266 62.3866C139.516 62.4166 139.675 62.6945 139.736 63.2203C139.766 63.4531 139.759 63.6259 139.713 63.7235C139.668 63.8287 139.486 64.024 139.16 64.3169C138.956 64.5197 138.478 64.8426 137.736 65.2858C136.994 65.7289 136.554 66.0068 136.403 66.1195C136.282 66.3824 136.108 67.0658 135.873 68.1624C135.638 69.259 135.403 69.9425 135.161 70.2054C134.986 70.5584 134.918 70.7537 134.964 70.7987C135.009 70.8438 135.206 70.7311 135.562 70.4682C136.153 70.0852 137.1 69.3566 138.403 68.2676C139.319 67.5916 139.865 67.5015 140.046 68.0047C140.168 68.3577 140.099 68.7107 139.849 69.0637C139.599 69.4167 139.054 69.8974 138.228 70.5133C137.812 70.8062 137.532 71.0691 137.388 71.3019C137.236 71.5348 137.092 71.9329 136.941 72.4887C136.88 72.7215 136.842 73.1571 136.827 73.788C136.812 74.4189 136.827 74.9973 136.85 75.523C136.88 76.0488 136.926 76.3117 136.986 76.3117C137.077 76.3117 137.395 76.0338 137.941 75.478C138.486 74.9222 138.834 74.5241 138.986 74.2913C139.19 74.0885 139.403 73.9082 139.607 73.7655C139.812 73.6228 140.054 73.5176 140.342 73.4576C140.622 73.3975 140.819 73.5176 140.94 73.8106C141.114 74.1035 141.099 74.4264 140.872 74.7795C140.645 75.1325 140.024 75.8084 138.986 76.8074C137.744 78.0091 137.009 78.6851 136.789 78.8353C136.57 78.9855 136.395 79.4061 136.282 80.1121C136.161 80.7881 136.123 81.1862 136.145 81.2988C135.971 81.3289 136.395 81.5016 137.433 81.8246C140.274 82.7034 142.493 83.2892 144.091 83.5821C146.606 84.0553 148.363 84.3708 149.371 84.5285C150.378 84.6937 151.908 84.8515 153.961 85.0092C156.014 85.1744 158.142 85.1895 160.331 85.0768L163.308 85.0317C163.513 85.2045 163.664 85.4598 163.755 85.7828C163.846 86.1058 163.785 86.3837 163.581 86.6165C163.46 86.7367 163.195 86.8043 162.786 86.8343C162.369 86.8644 161.218 86.8944 159.324 86.9245H155.219C154.703 86.9245 154.15 86.9019 153.575 86.8569C152.999 86.8118 152.537 86.7742 152.196 86.7442C151.855 86.7141 151.378 86.6616 150.772 86.5865C150.166 86.5114 149.712 86.4513 149.416 86.4137C149.121 86.3686 148.598 86.286 147.863 86.1734C147.121 86.0532 146.561 85.9706 146.174 85.9105C144.871 85.7377 143.023 85.3096 140.63 84.6337C138.236 83.9577 136.38 83.5371 135.085 83.3568C134.699 83.3568 134.464 83.2967 134.373 83.1841C134.221 83.0113 133.843 82.8461 133.222 82.7034C132.6 82.5607 131.994 82.4856 131.404 82.4856C130.783 82.4856 130.389 82.5532 130.23 82.6808C130.07 82.816 129.707 83.3944 129.139 84.4158C128.669 85.3246 128.162 86.0307 127.631 86.5264C127.101 87.0221 126.639 87.3075 126.253 87.3601C125.745 87.4502 125.457 87.3601 125.389 87.0747C125.314 86.7968 125.503 86.5114 125.942 86.2184C126.442 85.9856 126.995 85.3171 127.586 84.213C128.177 83.1165 128.624 82.1851 128.919 81.419C128.919 81.1261 129.101 80.4501 129.472 79.3911C129.843 78.3321 130.177 77.4834 130.472 76.8374C130.472 76.7172 130.548 76.6046 130.692 76.4844C130.843 76.3642 130.972 76.3117 131.093 76.3117C131.449 76.3117 131.654 76.4994 131.714 76.8825C131.775 77.2655 131.684 77.7462 131.449 78.3321C130.919 79.5638 130.737 80.2699 130.919 80.4426C131.093 80.5327 131.54 80.6154 132.252 80.7055C132.964 80.7956 133.419 80.8707 133.631 80.9233C134.131 81.0735 134.441 81.0885 134.562 80.9684C134.736 80.7656 134.933 79.4061 135.138 76.8975C135.342 74.3889 135.358 73.0745 135.183 72.9618C135.123 72.9318 134.426 73.2397 133.1 73.8857C132.002 74.4415 131.267 74.7644 130.881 74.8546C130.495 74.9447 130.199 74.8846 129.995 74.6818C129.699 74.3589 129.752 73.9758 130.154 73.5402C130.555 73.1045 130.904 72.8942 131.199 72.9243C132.35 72.5713 132.941 72.1356 132.972 71.6024L132.956 71.6174ZM153.037 76.7848C153.582 76.7999 154.052 76.7698 154.438 76.6947C154.825 76.6196 155.385 76.5069 156.127 76.3417C156.87 76.184 157.43 76.0713 157.817 76.0112C158.438 75.9211 158.907 75.7183 159.241 75.3953C159.362 75.2752 159.4 74.9222 159.354 74.3138C159.309 73.7129 159.354 73.3374 159.513 73.1947C159.665 73.0219 159.885 73.0144 160.18 73.1721C160.475 73.3374 160.627 73.4876 160.627 73.6378C160.862 74.6368 160.937 75.3578 160.847 75.7934C160.672 76.4994 160.468 76.9726 160.248 77.2205C160.028 77.4683 159.635 77.611 159.074 77.6411C158.809 77.6411 157.847 77.8063 156.188 78.1218C154.529 78.4447 153.348 78.5799 152.636 78.5198C152.189 78.4898 151.59 78.3771 150.84 78.1668C150.083 77.964 149.666 77.8138 149.575 77.7237C149.219 77.2806 148.863 76.3342 148.507 74.8621C148.477 74.6593 148.447 73.6528 148.416 71.8502C148.386 70.0476 148.341 69.0262 148.28 68.7933C147.954 67.7118 148.326 67.1485 149.386 67.1184C149.651 67.1184 150.037 67.0658 150.537 66.9607C151.037 66.8555 151.507 66.7579 151.939 66.6528C152.37 66.5476 152.795 66.51 153.226 66.5176C153.658 66.5326 153.976 66.6603 154.181 66.8931C154.385 67.0959 154.506 67.2536 154.537 67.3588C154.567 67.4639 154.567 67.7043 154.537 68.0873C154.506 68.583 154.272 69.3491 153.825 70.3781C153.113 72.053 152.446 72.9618 151.825 73.1045C151.59 73.1346 151.249 73.2472 150.802 73.435C150.356 73.6228 150.113 73.8706 150.068 74.1636C150.022 74.4565 150.151 74.9447 150.446 75.6132C150.598 75.9361 150.719 76.1389 150.825 76.229C150.931 76.3192 151.158 76.4168 151.514 76.537C151.984 76.6872 152.499 76.7623 153.045 76.7773L153.037 76.7848ZM152.567 68.4028C152.272 68.3727 151.666 68.4779 150.749 68.7107C150.484 68.6807 150.295 68.8684 150.196 69.259C150.09 69.6571 150.037 70.1227 150.022 70.671C150.007 71.2118 150 71.4972 150 71.5273C150.265 71.5874 150.439 71.6174 150.507 71.6174C150.575 71.6174 150.712 71.5648 150.908 71.4597C151.098 71.3545 151.257 71.2944 151.378 71.2644C151.613 71.2043 151.81 71.0916 151.954 70.9114C152.105 70.7386 152.264 70.4307 152.439 69.9876C152.613 69.5444 152.764 69.2665 152.885 69.1539C153.06 68.6581 152.961 68.4028 152.575 68.4028H152.567Z" fill="white"/>
<path d="M175.7 68.8909C175.874 68.7707 176.23 68.5078 176.768 68.1022C177.776 67.2535 178.382 66.7803 178.586 66.6902C178.942 66.7803 179.109 66.9756 179.094 67.2835C179.078 67.5915 178.912 67.8769 178.586 68.1398C178.291 68.4027 177.836 68.8458 177.23 69.4617C176.624 70.0776 176.23 70.4756 176.056 70.6484C175.791 70.8812 175.594 71.099 175.48 71.2868C175.359 71.4746 175.284 71.6173 175.238 71.7074C175.193 71.7976 175.147 71.9928 175.102 72.3008C175.056 72.6087 175.018 72.8641 174.988 73.0744C174.928 73.4274 174.92 74.0733 174.965 75.0122C175.011 75.951 175.079 76.5068 175.162 76.6871C175.193 76.7171 175.231 76.7246 175.276 76.7096C175.321 76.6946 175.39 76.6495 175.473 76.5744C175.564 76.4993 175.647 76.4092 175.738 76.289C176.238 75.7933 176.685 75.3727 177.071 75.0347C177.457 74.6967 177.768 74.4789 178.003 74.3738C178.238 74.2686 178.389 74.2761 178.45 74.3963C178.51 74.5165 178.427 74.7418 178.207 75.0798C177.988 75.4178 177.715 75.7783 177.389 76.1613C177.064 76.5444 176.874 76.7922 176.814 76.9124C176.783 76.9725 176.518 77.3255 176.018 77.9714C175.511 78.6174 175.261 79.083 175.261 79.3835C175.17 79.7966 175.071 81.156 174.95 83.4769C174.829 85.7977 174.655 87.2773 174.42 87.9233C174.269 88.2162 173.95 88.2988 173.466 88.1636C172.981 88.0284 172.746 87.7881 172.776 87.4351C172.572 86.6464 172.382 86.0681 172.223 85.7151C172.064 85.3621 171.784 84.9415 171.405 84.4383C171.17 84.0552 170.966 83.8149 170.807 83.7097C170.648 83.6046 170.413 83.552 170.118 83.552C169.822 83.552 169.542 83.4919 169.277 83.3792C169.012 83.2591 168.83 83.1314 168.747 82.9812C168.625 82.7483 168.625 82.538 168.747 82.3653C168.868 82.1925 169.148 81.9672 169.587 81.7043C170.087 81.4414 170.769 80.9683 171.633 80.2923C172.488 79.6163 173.026 79.1506 173.231 78.8803C173.382 78.7901 173.466 78.4296 173.496 77.7987C173.526 77.1678 173.496 76.3867 173.428 75.4628C173.352 74.539 173.314 73.9607 173.314 73.7278C173.314 73.3448 173.276 73.0819 173.2 72.9392C173.125 72.7965 173.041 72.7364 172.958 72.7664C172.867 72.7965 172.701 72.8716 172.451 72.9843C172.201 73.1044 171.981 73.1871 171.807 73.2471C171.277 73.48 170.678 73.6903 170.034 73.863C169.383 74.0358 168.966 74.0808 168.792 73.9982C168.641 73.9682 168.481 73.7804 168.307 73.4274C168.133 73.0744 168.057 72.8416 168.088 72.7214C168.088 72.6313 168.398 72.466 169.019 72.2182C169.64 71.9703 170.337 71.7074 171.102 71.4295C171.875 71.1516 172.36 70.9563 172.564 70.8362C172.799 70.746 172.981 70.6709 173.094 70.5958C173.216 70.5207 173.299 70.4231 173.36 70.2879C173.42 70.1527 173.45 70.0475 173.45 69.9574C173.45 69.8673 173.45 69.6945 173.428 69.4316C173.413 69.1688 173.405 68.951 173.405 68.7707V67.937C173.405 67.8469 173.458 67.6891 173.564 67.4563C173.67 67.2235 173.731 67.0132 173.761 66.8404C173.791 66.4874 173.973 66.2471 174.314 66.1119C174.655 65.9767 174.988 65.9992 175.314 66.1795C175.64 66.4123 175.67 66.7353 175.405 67.1484C175.314 67.2685 175.253 67.4863 175.231 67.8093C175.2 68.1323 175.193 68.4327 175.208 68.7106C175.223 68.9885 175.261 69.1312 175.321 69.1312C175.291 69.2213 175.427 69.1462 175.723 68.9134L175.7 68.8909ZM173.435 82.7784C173.466 81.6818 173.435 81.111 173.344 81.0809C173.314 81.0509 173.216 81.1035 173.057 81.2387C172.898 81.3738 172.708 81.5541 172.504 81.7869C172.299 82.0198 172.132 82.2301 172.019 82.4028C171.898 82.5756 171.845 82.7033 171.86 82.7784C171.875 82.8535 171.973 83.0037 172.148 83.244C172.352 83.537 172.541 83.7773 172.701 83.9726C172.86 84.1604 172.996 84.3031 173.102 84.3932C173.208 84.4833 173.269 84.5134 173.299 84.4833C173.36 84.4533 173.405 83.89 173.435 82.7859V82.7784ZM187.35 79.2558C187.07 79.421 186.88 79.4811 186.797 79.4511C186.676 79.4511 186.494 79.2933 186.244 78.9854C185.994 78.6775 185.865 78.4371 185.865 78.2569C185.926 78.1142 186.168 77.8738 186.6 77.5508C187.032 77.2279 187.274 77.0401 187.335 76.98C187.395 76.95 187.986 76.612 189.107 75.9661C190.228 75.3201 191.062 74.7343 191.592 74.2085C191.857 73.9456 192.251 73.7278 192.766 73.5476C193.281 73.3748 193.736 73.3748 194.122 73.5476C194.508 73.8104 194.569 74.3813 194.296 75.2675C194.145 75.7633 193.864 76.5369 193.455 77.5809C193.039 78.6249 192.758 79.2483 192.614 79.4511C192.38 79.774 192.342 80.0369 192.501 80.2397C192.66 80.4425 193.251 80.8556 194.251 81.4715C194.902 81.9146 195.932 82.5005 197.334 83.229C198.735 83.9651 199.689 84.5209 200.197 84.9039C200.522 85.1969 201.318 85.655 202.59 86.2709C203.863 86.8868 204.643 87.2999 204.946 87.5027C205.12 87.7355 205.135 88.066 204.992 88.4941C204.84 88.9222 204.613 89.2076 204.302 89.3503C203.992 89.5006 203.658 89.3804 203.302 88.9973C202.681 88.5016 201.719 87.8782 200.416 87.1271C199.114 86.3761 198.167 85.7827 197.576 85.3471C197.19 85.1142 196.758 84.8964 196.265 84.6861C195.781 84.4833 195.152 84.1303 194.379 83.6271C192.516 82.4254 191.418 81.8095 191.092 81.7794C190.918 81.8696 190.547 82.17 189.986 82.6807C189.426 83.1915 189.024 83.4919 188.789 83.582C188.638 83.6722 188.251 83.9651 187.615 84.4608C186.979 84.9565 186.396 85.2269 185.865 85.2494C185.479 85.3095 185.184 85.2344 184.979 85.0316C184.684 84.7387 184.608 84.4533 184.759 84.1754C184.911 83.8975 185.206 83.7848 185.646 83.8449C185.85 83.8749 186.017 83.8674 186.131 83.8224C186.252 83.7773 186.487 83.597 186.843 83.2741C188.554 81.8095 189.418 80.9307 189.418 80.6303C189.418 80.4876 189.191 80.1796 188.729 79.7064C188.267 79.2408 187.979 79.0004 187.865 79.0004C187.805 79.0004 187.638 79.083 187.358 79.2408L187.35 79.2558ZM194.251 60.2684C194.281 60.4412 194.266 60.644 194.205 60.8618C194.145 61.0796 194.099 61.2448 194.069 61.3425C194.038 61.4476 193.963 61.6504 193.849 61.9584C193.728 62.2663 193.66 62.4616 193.629 62.5517C193.273 63.2577 192.993 64.3393 192.789 65.8114C192.728 66.2546 192.698 66.585 192.698 66.8029C192.698 67.0207 192.72 67.1634 192.766 67.2235C192.811 67.2835 192.88 67.2685 192.963 67.1784C193.046 67.0883 193.137 66.9906 193.228 66.8705C193.319 66.7503 193.425 66.6151 193.561 66.4498C193.698 66.2921 193.804 66.1644 193.895 66.0743C194.046 65.9016 194.288 65.5485 194.629 65.0153C194.97 64.4895 195.288 64.0239 195.584 63.6258C195.879 63.2277 196.129 63.0024 196.341 62.9423C196.728 63.0625 196.97 63.2653 197.076 63.5582C197.182 63.8511 197.038 64.2041 196.652 64.6172C196.326 64.9702 196.099 65.3307 195.962 65.6988C195.826 66.0668 195.523 66.585 195.054 67.261C194.584 67.937 194.167 68.4627 193.811 68.8458C193.364 69.2288 192.925 69.4392 192.478 69.4842C192.031 69.5293 191.683 69.3565 191.41 68.981C191.145 68.5979 191.054 68.0271 191.145 67.261C191.145 66.0893 191.425 64.6923 191.986 63.0775C192.455 61.7856 192.531 61.1247 192.205 61.0946C192.054 61.0946 191.819 61.1998 191.493 61.4026C191.433 61.4627 191.069 61.7331 190.403 62.2137C189.736 62.6944 189.213 63.1075 188.827 63.4455C188.441 63.7835 188.176 64.0689 188.032 64.3018C187.941 64.3919 187.858 64.6698 187.789 65.1355C187.714 65.6086 187.638 66.1419 187.57 66.7428C187.494 67.3436 187.426 67.7793 187.373 68.0421C187.282 68.1924 187.214 68.4627 187.176 68.8533C187.138 69.2439 187.017 69.5518 186.843 69.7546C186.547 70.0776 186.221 70.1602 185.865 69.995C185.509 69.8372 185.403 69.4917 185.555 68.9585C185.615 68.4327 185.706 68.0196 185.82 67.7267C185.941 67.3436 185.987 66.6902 185.979 65.7664C185.964 64.8425 185.881 64.0314 185.737 63.3253C185.615 62.7695 185.562 62.4165 185.562 62.2663C185.562 62.1161 185.608 61.9734 185.699 61.8232C185.934 61.4401 186.396 61.4401 187.077 61.8232L187.653 62.1311L188.274 61.688C188.395 61.5979 188.683 61.38 189.138 61.027C189.6 60.674 189.941 60.4262 190.183 60.276C190.418 60.1332 190.743 59.9455 191.16 59.7277C191.577 59.5098 191.955 59.3371 192.311 59.2244C192.698 59.0817 193.061 59.0517 193.402 59.1343C193.743 59.2244 193.97 59.4122 194.092 59.7051C194.182 59.8779 194.243 60.0581 194.266 60.2309L194.251 60.2684ZM191.054 76.8148L190.077 77.5208C189.721 77.641 189.736 77.9339 190.122 78.3996C190.357 78.6624 190.531 78.8127 190.63 78.8427C190.736 78.8727 190.857 78.8127 191.009 78.67C191.16 78.4972 191.342 78.1667 191.562 77.6785C191.781 77.1903 191.895 76.8674 191.895 76.6871C191.955 76.3341 191.675 76.3792 191.054 76.8223V76.8148Z" fill="white"/>
<path d="M210.165 88.2761C210.059 88.0282 209.991 87.5175 209.968 86.7589C209.999 86.3759 209.946 85.9027 209.809 85.3319C209.673 84.761 209.635 84.3104 209.673 83.9874C209.718 83.6645 209.931 83.3866 210.317 83.1537C210.521 83.0936 210.665 83.0711 210.741 83.0861C210.817 83.1011 210.938 83.1988 211.12 83.3715C211.589 83.8673 211.771 84.7686 211.65 86.0529C211.589 86.5787 211.62 87.0068 211.741 87.3297C212.067 88.2085 211.741 88.6516 210.764 88.6516C210.468 88.6516 210.271 88.524 210.165 88.2761ZM217.71 64.2715C216.839 65.9765 216.043 67.3059 215.339 68.2748C215.187 68.5076 215.15 68.6578 215.203 68.7179C215.263 68.778 215.407 68.748 215.649 68.6278C216.21 68.4551 216.664 68.3123 217.005 68.2072C217.346 68.102 217.71 68.0119 218.096 67.9218C218.482 67.8317 218.785 67.7791 219.005 67.7641C219.225 67.749 219.354 67.8016 219.384 67.9218C219.649 68.0945 219.816 68.2973 219.869 68.5151C219.929 68.733 219.899 69.1235 219.778 69.6793C219.657 70.175 219.399 70.866 218.998 71.7448C218.596 72.6236 218.248 73.2695 217.952 73.6826C217.717 74.0055 217.498 74.3435 217.308 74.6965C217.119 75.0496 217.036 75.2373 217.066 75.2674C217.096 75.3275 217.407 75.3275 217.998 75.2674C218.823 75.1472 219.429 75.2448 219.816 75.5528C220.202 75.8607 220.331 76.2588 220.217 76.7395C220.096 77.2202 219.785 77.7159 219.285 78.2116C219.051 78.5045 218.778 78.6998 218.467 78.805C218.157 78.9101 217.884 78.8876 217.649 78.7374C217.475 78.6172 217.392 78.497 217.407 78.3618C217.422 78.2266 217.543 78.0313 217.786 77.7685C218.202 77.3253 218.285 77.0925 218.051 77.0625C217.929 77.0324 217.339 77.0925 216.278 77.2352C215.483 77.3554 214.953 77.3629 214.703 77.2577C214.453 77.1526 214.324 76.9122 214.324 76.5292C214.324 76.1461 214.794 75.4176 215.748 74.3285C216.339 73.6525 216.914 72.7888 217.483 71.7298C218.195 70.468 218.46 69.777 218.278 69.6643C218.104 69.5441 217.149 69.7995 215.437 70.4154C213.635 71.0913 212.657 71.1665 212.506 70.6332C212.415 70.3403 212.642 69.8446 213.173 69.1385C213.347 68.9357 213.635 68.5001 214.013 67.8392C214.4 67.1782 214.695 66.69 214.9 66.367C215.4 65.6911 215.884 64.8123 216.339 63.7232C216.801 62.6417 217.119 61.6427 217.293 60.7339C217.323 60.3809 217.649 60.1631 218.27 60.073C218.422 60.073 218.566 60.1631 218.717 60.3359C218.869 60.5086 218.937 60.7039 218.937 60.9067C218.998 61.4324 218.588 62.5515 217.717 64.249L217.71 64.2715ZM217.467 85.6173C217.377 85.9402 217.157 86.1881 216.801 86.3684C216.536 86.3984 216.286 86.2782 216.043 86.0153C215.809 85.7525 215.559 85.4145 215.309 85.0014C215.059 84.5883 214.854 84.3254 214.71 84.2128C214.354 83.8297 214.18 83.5668 214.18 83.4241C214.241 82.9284 214.445 82.5679 214.801 82.3426C215.157 82.1172 215.528 82.2449 215.907 82.7181C216.112 82.981 216.354 83.3415 216.642 83.7997C216.922 84.2578 217.089 84.5432 217.149 84.6559C217.445 84.9789 217.551 85.3018 217.46 85.6248L217.467 85.6173ZM220.664 80.908C220.929 81.2009 221.671 82.1247 222.883 83.6795C223.474 84.4456 223.77 84.9713 223.77 85.2643C223.77 85.5572 223.694 85.7825 223.55 85.9478C223.398 86.113 223.209 86.1881 222.974 86.1881C222.77 86.2181 222.482 86.0229 222.111 85.5947C221.74 85.1666 221.497 84.8211 221.376 84.5583C221.285 84.3254 221.02 83.9649 220.581 83.4767C220.141 82.9885 219.755 82.6505 219.429 82.4402C219.073 82.2074 218.982 81.8243 219.164 81.2986C219.346 80.7728 219.596 80.4949 219.922 80.4649C220.156 80.4649 220.406 80.6151 220.679 80.908H220.664ZM234.177 60.0955C234.367 60.4485 234.344 60.8165 234.109 61.1921C233.814 61.485 233.935 61.8155 234.465 62.1835C234.995 62.5515 235.472 62.7468 235.889 62.7769C236.041 62.8069 236.434 62.9046 237.086 63.0623C237.737 63.2275 238.358 63.3177 238.949 63.3477C240.313 63.4979 241.093 63.7007 241.305 63.9636C241.51 64.2565 241.532 64.5419 241.373 64.8198C241.214 65.0977 240.79 65.5033 240.108 66.0291C239.517 66.4722 239.055 66.69 238.73 66.69C238.048 66.66 238.002 66.337 238.593 65.7211C238.919 65.3981 239.078 65.2104 239.078 65.1503C239.017 65.0602 238.707 65.0076 238.146 64.9775C237.556 64.9175 236.692 64.7672 235.548 64.5119C234.412 64.264 233.708 64.0612 233.442 63.9185C233.238 63.7983 233.094 63.7458 233.018 63.7458C232.943 63.7458 232.89 63.7683 232.859 63.8134C232.829 63.8584 232.783 63.9561 232.723 64.0988C232.662 64.249 232.571 64.3917 232.458 64.5419C232.162 65.0677 231.678 65.9915 231.019 67.3134C230.36 68.6353 229.723 69.7169 229.132 70.5731C228.542 71.4218 227.86 72.1579 227.087 72.7738C226.527 73.2169 226.057 73.307 225.686 73.0592C225.315 72.8113 225.338 72.3907 225.754 71.8049C225.845 71.6847 225.951 71.4519 226.087 71.0989C226.224 70.7459 226.368 70.468 226.534 70.2652C226.693 70.0624 226.898 70.0173 227.133 70.13C227.307 70.2802 227.511 70.2276 227.731 69.9722C227.951 69.7244 228.178 69.3864 228.398 68.9583C228.617 68.5302 228.792 68.2748 228.905 68.1847C229.14 67.8317 229.466 67.2007 229.882 66.2919C230.299 65.3831 230.693 64.617 231.079 64.0011C231.14 63.881 231.322 63.4528 231.632 62.7018C231.943 61.9507 232.223 61.3648 232.473 60.9442C232.723 60.5161 232.98 60.2307 233.253 60.088C233.67 59.735 233.973 59.735 234.162 60.088L234.177 60.0955ZM231.935 71.8049C234.268 71.6321 236.192 71.1589 237.707 70.3928C238.624 69.8671 239.131 69.8971 239.214 70.483C239.275 71.0087 239.093 71.4669 238.684 71.8499C238.51 72.0002 238.343 72.0527 238.199 72.0227C237.813 72.1128 236.98 72.3607 235.692 72.7738C234.404 73.1869 233.45 73.4497 232.829 73.5624C232.177 73.7126 231.723 73.7352 231.473 73.6525C231.223 73.5624 231.094 73.3146 231.094 72.9015C230.973 72.4583 231.253 72.0978 231.935 71.8049ZM248.137 82.1923C248.433 82.1623 248.652 82.1623 248.804 82.1923C248.955 82.2224 249.054 82.29 249.115 82.3876C249.175 82.4928 249.213 82.5904 249.228 82.6956C249.243 82.8007 249.251 82.966 249.251 83.1988C249.16 83.6119 248.978 83.8522 248.698 83.9273C248.418 84.0024 247.509 84.04 245.971 84.04C241.267 84.1902 237.624 84.6559 235.056 85.452C234.526 85.6548 234.185 85.7299 234.033 85.6699C232.905 84.9037 232.594 84.0851 233.102 83.2063C233.223 82.8833 233.291 82.5378 233.321 82.1698C233.352 81.8018 233.367 80.9005 233.367 79.4659C233.367 77.8811 233.397 76.8446 233.458 76.3639C233.518 75.8833 233.662 75.5227 233.905 75.2824C234.056 75.0796 234.245 74.9744 234.48 74.9744C234.715 74.9744 234.912 75.0496 235.056 75.1923C235.291 75.4551 235.306 76.2062 235.101 77.438C234.95 77.9637 234.904 78.3618 234.942 78.6247C234.98 78.8876 235.215 78.9026 235.632 78.6698C236.078 78.4369 236.594 78.2792 237.184 78.2041C237.775 78.129 238.313 78.2116 238.805 78.4444C239.29 78.6773 239.525 79.0904 239.495 79.6762C239.495 79.9691 239.358 80.3822 239.093 80.908C238.828 81.4337 238.518 81.9069 238.162 82.32C237.745 82.8157 237.699 83.0711 238.025 83.0711C242.911 82.4552 246.282 82.1623 248.145 82.1923H248.137ZM237.396 79.9015C236.836 79.9316 236.298 80.1794 235.798 80.6526C235.533 80.9155 235.291 81.3361 235.086 81.9069C234.882 82.4777 234.821 82.8833 234.912 83.1162C234.973 83.2363 235.116 83.2213 235.359 83.0711C235.715 82.8383 236.116 82.4702 236.556 81.9745C237.003 81.4788 237.336 81.0056 237.578 80.5625C237.904 80.0968 237.843 79.8715 237.404 79.9015H237.396Z" fill="white"/>
<path d="M256.66 72.541C256.425 72.8339 256.19 73.0743 255.948 73.2695C255.713 73.4573 255.478 73.6751 255.235 73.908C254.766 74.4037 254.319 74.5539 253.902 74.3511C253.577 74.1783 253.433 73.938 253.455 73.6451C253.486 73.3522 253.721 72.894 254.167 72.2781C256.182 69.2287 257.849 66.5699 259.182 64.3091C259.712 63.3402 260.159 62.8145 260.515 62.7243C261.257 62.6042 261.621 62.807 261.606 63.3177C261.591 63.8284 261.394 64.3242 261.007 64.7898C260.712 65.4358 260.167 66.307 259.364 67.4111C258.561 68.5152 258.031 69.454 257.765 70.2502C257.826 70.2802 258.076 70.1601 258.523 69.8972C260.651 68.4626 261.409 70.3553 260.788 75.5754C260.757 75.7481 260.727 75.9885 260.697 76.2814C260.667 76.5443 260.651 76.7245 260.651 76.8071C260.53 76.9799 260.447 77.8361 260.386 79.3608C260.326 80.8855 260.25 82.3576 260.167 83.7847C260.076 85.2117 259.932 85.9478 259.72 86.0079C259.455 86.3008 259.114 86.3834 258.697 86.2482C258.281 86.113 258.121 85.7976 258.212 85.3019C258.334 84.6259 258.417 83.319 258.477 81.3887C258.538 79.4509 258.637 78.1065 258.788 77.3404C259.053 75.4327 259.205 74.276 259.235 73.8629C259.265 73.4498 259.235 72.9541 259.144 72.3682C259.083 71.7223 259.008 71.3092 258.924 71.1365C258.841 70.9637 258.69 70.8736 258.477 70.8736C258.243 70.8736 257.637 71.4294 256.66 72.5485V72.541ZM274.793 73.6C273.74 74.276 273.218 74.644 273.218 74.6966C273.127 75.0196 273.044 75.4702 272.975 76.041C272.9 76.6119 272.862 77.2578 272.862 77.9788C272.862 78.6999 272.968 79.173 273.172 79.4059C273.559 80.0218 273.839 80.4198 274.013 80.5926C274.187 80.7653 274.483 80.9456 274.899 81.1183C275.846 81.5615 277.278 81.8093 279.202 81.8694C281.126 81.9295 282.966 81.8694 284.724 81.6967C286.481 81.5239 287.913 81.2836 289.003 80.9907C289.685 80.8179 290.155 80.6677 290.428 80.5475C290.693 80.4273 290.852 80.3297 290.897 80.2396C290.943 80.1494 290.988 79.9842 291.034 79.7364C291.079 79.4885 291.162 79.2331 291.276 78.9627C291.48 78.79 291.723 78.7599 291.988 78.8726C292.253 78.9928 292.374 79.1956 292.344 79.4885C292.374 79.5786 292.442 79.7213 292.541 79.9316C292.647 80.1344 292.73 80.3222 292.806 80.4799C292.882 80.6452 292.912 80.8329 292.897 81.0507C292.882 81.2686 292.798 81.4864 292.655 81.6892C292.503 81.922 292.344 82.0872 292.17 82.1699C291.996 82.2525 291.473 82.3726 290.617 82.5229C285.822 83.7246 281.164 84.0325 276.634 83.4467C275.066 83.1538 273.778 82.628 272.771 81.8619C272.12 81.3362 271.688 80.8555 271.483 80.4349C271.279 80.0067 271.142 79.2707 271.082 78.2117C271.051 77.7685 271.044 77.2277 271.059 76.5818C271.074 75.9359 271.059 75.5378 270.991 75.3951C270.9 75.335 270.574 75.3801 270.014 75.5303C269.484 75.6805 269.097 75.7481 268.862 75.7481C268.628 75.7481 268.393 75.673 268.15 75.5303C267.764 75.1773 267.756 74.8543 268.128 74.5614C268.499 74.2685 268.885 74.0507 269.302 73.9004C269.688 73.7803 270.143 73.615 270.68 73.3972C271.218 73.1794 271.521 73.0217 271.612 72.9316C271.877 72.6687 272.059 71.9176 272.142 70.6858C272.226 69.454 272.173 68.4701 271.968 67.7341C271.938 67.351 271.87 66.983 271.771 66.6375C271.665 66.2845 271.536 65.8864 271.37 65.4508C271.211 65.0076 271.082 64.6621 270.991 64.3917C270.839 63.9261 271.014 63.5806 271.498 63.3553C271.983 63.1299 272.392 63.16 272.718 63.4229C273.013 63.8059 273.347 64.8274 273.718 66.4798C274.089 68.1396 274.187 69.5066 274.006 70.5957C273.945 70.9487 273.915 71.2116 273.915 71.3843C273.915 71.5571 273.915 71.6998 273.937 71.8049C273.953 71.9101 274.013 71.9476 274.112 71.9176C274.218 71.8875 274.309 71.85 274.399 71.8049C274.49 71.7599 274.649 71.6622 274.884 71.5195C275.119 71.3768 275.346 71.2566 275.551 71.1665C275.816 70.9036 276.134 70.7008 276.505 70.5506C276.876 70.4079 277.157 70.2277 277.346 70.0249C277.535 69.8221 277.679 69.4691 277.77 68.9658C277.975 67.7641 278.096 66.9905 278.126 66.6525C278.157 66.3145 278.141 65.5709 278.081 64.4293C278.02 63.3703 278.081 62.7093 278.255 62.4464C278.429 62.1836 278.891 62.1385 279.634 62.3113C279.808 62.6042 279.899 63.1675 279.899 64.0087C279.899 64.8499 279.876 65.7512 279.831 66.7351C279.785 67.719 279.778 68.3575 279.808 68.6504C280.043 68.6203 280.444 68.4927 281.005 68.2748C281.565 68.057 282.073 67.8843 282.512 67.7716C282.959 67.6514 283.239 67.6364 283.353 67.7266C284.269 67.8467 284.868 67.9744 285.148 68.1246C285.428 68.2748 285.671 68.5678 285.883 69.0034C286.148 69.4165 286.133 70.0699 285.837 70.9637C285.542 71.8575 285.171 72.5861 284.731 73.1419C284.58 73.4949 284.141 73.9004 283.398 74.3511C282.656 74.8093 282.035 75.0045 281.535 74.9444C280.497 74.9144 279.656 74.4337 279.005 73.4949C278.884 73.2921 278.8 73.1869 278.74 73.1869C278.566 73.4798 278.346 73.7653 278.096 74.0432C277.846 74.3211 277.573 74.5764 277.278 74.8168C276.982 75.0496 276.664 75.1623 276.323 75.1472C275.983 75.1322 275.68 74.967 275.414 74.644C275.414 74.5013 275.475 74.3361 275.589 74.1633C275.71 73.9906 275.808 73.8854 275.899 73.8554C276.051 73.7953 276.263 73.6 276.543 73.262C276.823 72.924 276.967 72.6987 276.967 72.5785C276.967 72.4584 276.892 72.3983 276.748 72.3833C276.596 72.3682 276.483 72.4208 276.392 72.541C276.361 72.571 275.824 72.924 274.771 73.6H274.793ZM283.959 69.5742C283.724 69.4691 283.474 69.394 283.201 69.3339C282.754 69.3639 282.042 69.6043 281.05 70.0624C280.058 70.5206 279.49 70.8736 279.338 71.144C279.278 71.3468 279.262 71.497 279.293 71.5871C279.323 71.6772 279.399 71.7974 279.512 71.9627C279.634 72.1279 279.702 72.2631 279.732 72.3833C280.444 73.6451 281.338 73.8479 282.414 72.9991C283.497 72.1504 284.08 71.1665 284.163 70.0474C284.254 69.8446 284.178 69.6869 283.944 69.5817L283.959 69.5742Z" fill="white"/>
<path d="M306.342 84.4682C306.122 84.7011 305.887 84.7912 305.653 84.7311C305.531 84.7912 305.274 84.686 304.872 84.4232C304.471 84.1603 304.13 83.8448 303.85 83.4768C303.57 83.1088 303.501 82.8534 303.653 82.7032C303.744 82.2375 303.986 81.9371 304.388 81.8244C304.789 81.7042 305.221 81.8244 305.698 82.1774C305.963 82.3802 306.198 82.6506 306.41 82.9661C306.615 83.289 306.721 83.5519 306.721 83.7547C306.69 83.9875 306.562 84.2279 306.342 84.4607V84.4682ZM304.456 75.2675C304.282 74.9445 304.183 74.5314 304.168 74.0357C304.153 73.54 304.168 73.0593 304.236 72.6086C304.297 72.158 304.372 71.6923 304.456 71.2191C304.812 68.5528 305.1 66.7202 305.319 65.7437C305.539 64.7598 305.789 64.1815 306.054 64.0087C306.615 63.6557 307.107 63.7459 307.516 64.2716C307.933 64.7974 308.077 65.3982 307.963 66.0742C307.872 66.5174 307.804 67.0281 307.766 67.6139C307.72 68.1998 307.652 68.7331 307.569 69.2213C307.486 69.7095 307.334 70.2577 307.122 70.8736C306.675 72.2256 306.41 73.2471 306.327 73.9531C306.175 75.1848 305.819 75.8007 305.259 75.8007C304.903 75.7707 304.638 75.5979 304.463 75.275L304.456 75.2675Z" fill="white"/>
</svg>
