<svg width="536" height="230" viewBox="0 0 536 230" fill="none" xmlns="http://www.w3.org/2000/svg">
<path d="M1.50102 43.2929C2.68491 42.0887 3.55724 41.5904 4.11803 41.7981C4.8242 41.7981 6.00808 41.2583 7.6489 40.1994C9.28972 39.1198 10.6398 37.9987 11.7198 36.7738C12.7998 35.5696 13.6514 34.7392 14.2953 34.3032C15.6453 33.3066 16.7669 33.2028 17.6184 33.9917C18.1792 34.5731 18.1169 35.3205 17.4107 36.234C16.6215 37.2305 15.9569 39.1613 15.4376 42.0057C14.8976 44.8707 14.3576 49.6044 13.776 56.248C13.5683 58.3242 13.1321 61.1062 12.4883 64.5942C11.8444 68.1028 11.4082 70.8018 11.2006 72.7327C10.9098 75.5977 10.4944 77.7569 9.91282 79.2725C9.70512 79.5632 9.33126 79.8123 8.79125 80.0199C8.25123 80.2275 7.73198 80.2068 7.23351 79.9161C6.44425 79.5632 6.04962 78.8573 6.04962 77.8192C6.04962 76.7811 6.36117 74.8711 7.00504 72.089C7.50351 70.3866 7.91891 68.7465 8.23046 67.1686C8.54201 65.5907 8.81202 63.9505 9.04049 62.2481C9.26895 60.5457 9.41434 59.1547 9.51819 58.1166C9.62204 57.0785 9.76743 55.4799 9.95436 53.2999C10.1205 51.12 10.2659 49.5629 10.3282 48.6494C10.3905 48.0058 10.4736 47.4244 10.5359 46.8846C10.5982 46.3448 10.6605 45.8881 10.7021 45.4936C10.7436 45.0991 10.7644 44.7669 10.8059 44.4763C10.8475 44.1856 10.8475 43.9573 10.8059 43.7704C10.7644 43.5835 10.7436 43.459 10.7021 43.3967C10.6605 43.3344 10.619 43.2929 10.5359 43.2929C10.0997 43.4382 8.81202 44.1649 6.63118 45.4936C4.45034 46.8223 2.76798 47.5905 1.54256 47.7981C0.545609 47.7981 0.0471322 47.196 0.0471322 45.9711C-0.160566 45.4106 0.317141 44.5178 1.50102 43.2929ZM17.5561 17.2372C18.3662 17.5487 18.5323 18.3376 18.0338 19.5418C16.8915 20.393 14.9184 21.4103 12.1352 22.5937C9.35203 23.7771 7.27505 24.3999 5.925 24.4622C5.42653 24.4622 5.0319 24.1093 4.74112 23.3826C4.30496 22.3861 4.42957 21.6387 5.05267 21.1404C5.69654 20.6421 7.29582 19.9985 9.87128 19.2096C12.0729 18.5037 13.5891 17.9639 14.3783 17.6109C15.6661 17.0504 16.7253 16.905 17.5354 17.2372H17.5561ZM47.2778 48.1095C48.0671 48.5455 48.3578 48.94 48.1294 49.3345C47.9217 49.7289 46.9455 50.7047 45.2424 52.2826C44.3077 53.1338 43.6015 54.1719 43.1031 55.3968C42.3138 57.0993 42.1477 58.0128 42.5631 58.0751C42.7084 58.0751 42.8746 58.0335 43.1031 57.9712C44.8062 57.6183 48.3163 58.5111 53.5919 60.6495C55.295 61.3554 58.3482 62.2481 62.7514 63.3277C67.1546 64.4073 69.6677 65.1547 70.2908 65.57C71.8486 66.0059 73.344 66.4212 74.7356 66.8571C76.1272 67.2931 77.768 67.8329 79.658 68.5181C81.5481 69.2032 83.1058 69.743 84.3105 70.179C88.2983 71.5285 91.2269 72.1098 93.0961 71.8814C94.6539 71.8814 95.8793 72.1306 96.7309 72.6288C97.5824 73.1271 97.6863 74.1029 97.0424 75.5147C96.6893 76.5112 96.3362 77.051 95.9624 77.1133C94.9654 77.2587 92.9715 77.0303 89.9599 76.4074C86.969 75.8054 84.6428 75.141 83.002 74.4351C82.5035 74.1444 81.6104 73.8538 80.3227 73.5216C79.0349 73.1894 78.1418 72.8987 77.6434 72.6081C76.6464 72.2551 74.5694 71.57 71.4332 70.5735C68.2969 69.5769 65.2853 68.6219 62.3775 67.7291C59.4905 66.8364 57.0812 66.1513 55.1496 65.6322C54.568 65.4246 53.0103 64.8225 50.4348 63.8052C47.8594 62.8087 46.0732 62.2066 45.0762 61.9782C44.37 61.9159 43.6015 61.6668 42.7708 61.2308C41.94 60.7948 41.3169 60.608 40.9015 60.6495C40.4653 60.691 39.9668 61.1685 39.406 62.1028C39.2606 62.3934 38.7829 63.1616 37.9521 64.4073C37.1213 65.653 36.3736 66.8364 35.709 67.9368C35.0236 69.0371 34.5459 69.8468 34.2551 70.3451C32.1158 75.0579 30.2881 76.6566 28.7926 75.1617C28.2111 74.6635 28.0241 74.0199 28.2111 73.2309C28.3772 72.442 28.6472 71.7776 29.0211 71.1963C29.3742 70.6357 29.8311 69.9506 30.3504 69.1617C30.8904 68.3727 31.2227 67.8122 31.3681 67.4592C32.012 66.1098 33.1958 64.2412 34.899 61.8329C36.6021 59.4453 37.9314 57.2446 38.866 55.2515C40.1537 52.6148 41.1299 50.7878 41.8153 49.7912C42.5007 48.7947 43.1238 48.1511 43.6846 47.8604C44.9724 47.3621 46.1562 47.4244 47.2155 48.068L47.2778 48.1095ZM48.0255 18.6698C50.601 16.0954 51.8887 15.3479 51.8887 16.4275C51.8887 17.5694 50.5595 19.6248 47.9217 22.5729C45.2839 25.5418 43.1031 27.4519 41.3792 28.3031C40.7976 28.656 40.1953 28.8429 39.5514 28.8429C38.9076 28.8429 38.4714 28.7806 38.2637 28.6768C38.056 28.573 37.5783 28.3031 36.8721 27.8671C36.3736 27.0782 36.1036 26.3723 36.0621 25.7287C36.0205 25.0851 36.1659 24.1508 36.4983 22.8844C36.8098 21.6387 37.0175 20.7252 37.0798 20.1646C37.4329 18.5867 37.7237 17.5694 37.9314 17.0504C38.1391 16.5521 38.5752 15.8462 39.2191 14.912C39.7176 14.4137 40.0914 14.1853 40.3407 14.206C40.5899 14.2476 40.9638 14.6213 41.4622 15.3272C41.753 15.6178 41.8984 16.1161 41.8984 16.822C41.8984 17.5279 41.8361 18.213 41.7323 18.8566C41.6284 19.5002 41.4623 20.2269 41.2546 21.0573C41.0469 21.8878 40.943 22.4691 40.943 22.8221C40.8807 23.4034 40.8599 23.7563 40.8807 23.9016C40.9222 24.047 41.0676 24.1093 41.3584 24.1093C42.1477 24.1093 44.3493 22.2823 48.0048 18.649L48.0255 18.6698ZM69.1693 43.7704C68.0684 45.369 67.2584 46.5317 66.7599 47.2583C66.2615 47.9642 65.5553 48.94 64.6622 50.1442C63.7691 51.3691 62.8552 52.4072 61.9413 53.2999C61.0067 54.1927 60.0097 55.0647 58.9505 55.9159C56.8112 56.7671 55.4819 56.7671 54.9834 55.9159C54.6303 55.5629 54.4019 55.2307 54.3396 54.9608C54.2773 54.6702 54.2773 54.1511 54.3396 53.3622C54.3396 51.6598 54.7757 48.6493 55.6688 44.3725C56.5619 40.0956 57.0812 37.1682 57.2266 35.5904C57.4343 33.2443 57.912 31.1682 58.6182 29.3827C59.1789 28.5937 60.0097 28.4484 61.0898 28.9467C62.1698 29.445 62.4814 30.1716 62.0452 31.0851C61.8375 33.016 61.4636 35.4866 60.9652 38.5177C60.4667 41.5489 60.0305 43.6043 59.6774 44.6631C59.3866 45.3067 59.1997 46.2618 59.1374 47.549C59.0751 48.8362 59.0959 49.5213 59.2413 49.5836C59.6774 49.8743 61.5259 47.8812 64.8076 43.6458C68.0892 39.4105 69.8339 36.7738 70.0624 35.7772C70.4154 33.7841 71.2462 33.0367 72.534 33.535C73.0324 33.8256 73.344 34.1163 73.4478 34.4485C73.5517 34.7807 73.5102 35.2374 73.2817 35.8395C73.074 36.4416 72.9286 36.9399 72.8455 37.2928C72.6378 38.7877 72.1601 39.8257 71.4539 40.407C71.0178 41.0507 70.2493 42.1718 69.1485 43.7704H69.1693ZM71.0385 9.03645C71.3916 9.3894 71.5786 9.82538 71.5786 10.3237C71.5162 10.9673 71.2462 11.5278 70.7685 11.9846C70.2908 12.4413 69.5223 13.0434 68.4215 13.7493C67.3207 14.4552 66.7184 14.8497 66.6561 14.9327C62.876 17.2165 59.9059 17.4241 57.7666 15.5763C56.7696 14.7251 56.2919 13.6247 56.3127 12.3168C56.3542 10.988 56.9358 8.4136 58.0781 4.55197C58.5143 3.05714 58.8259 2.08135 59.0336 1.66612C59.2413 1.25089 59.6774 0.856411 60.3213 0.482704C61.4013 -0.160901 62.2529 -0.160901 62.8968 0.482704C63.4575 1.12631 63.1045 3.30628 61.8167 7.02259C61.1729 8.95341 60.8405 10.1991 60.799 10.7597C60.7575 11.341 60.9652 11.7562 61.3806 12.0469C62.0867 12.5451 63.8106 11.943 66.5107 10.2198C68.2969 9.07796 69.3562 8.51742 69.73 8.51742C70.2285 8.51742 70.6647 8.70426 71.0178 9.05721L71.0385 9.03645Z" fill="white"/>
<path d="M307.294 19.957C308.187 18.4621 308.665 17.5279 308.748 17.1749C309.309 16.6144 309.787 16.6766 310.14 17.3825C310.347 17.7355 310.327 18.8151 310.036 20.6006C309.454 23.3826 309.039 26.7875 308.748 30.8152C308.457 34.8429 308.291 37.9364 308.208 40.0748C308.146 42.2133 308.104 46.3656 308.104 52.4902V63.0786C308.167 64.9263 307.917 66.2966 307.357 67.1478C306.775 67.999 306.027 68.2274 305.113 67.7914C303.971 67.2931 303.535 66.2135 303.826 64.5734C304.324 40.5316 304.926 26.8913 305.653 23.6733C305.861 22.6767 306.422 21.431 307.315 19.9362L307.294 19.957ZM317.139 49.7082C316.682 50.0611 316.184 50.3518 315.685 50.5594C315.187 50.767 314.688 50.85 314.19 50.767C312.487 50.767 311.614 50.331 311.614 49.4798C311.614 48.6286 312.175 48.1926 313.318 48.1926C313.608 48.1926 314.273 47.8396 315.353 47.113C316.433 46.4071 317.679 45.5351 319.092 44.497C320.525 43.459 321.439 42.7946 321.875 42.5247L322.83 41.9849L322.934 39.7427C322.934 38.1648 322.83 37.272 322.622 37.0644C322.415 36.8568 321.792 37.0229 320.795 37.6042C320.296 37.8949 319.299 38.5592 317.804 39.5766C316.308 40.6146 315.27 41.2375 314.688 41.4451C314.481 41.4451 313.961 41.6527 313.131 42.0887C312.3 42.5247 311.656 42.7946 311.157 42.9399C310.659 43.0853 310.202 42.8984 309.766 42.4001C309.122 41.5489 309.828 40.6146 311.905 39.6181C312.466 39.3274 314.107 38.3101 316.828 36.5661C319.548 34.8222 321.293 33.9087 322.082 33.8464C322.643 33.8464 322.872 33.535 322.726 32.8914C322.664 32.6007 322.622 30.8152 322.622 27.5349L322.726 22.4068C322.726 22.4068 322.477 22.2615 322.186 21.9708C321.895 21.6802 321.709 21.5141 321.605 21.431C321.501 21.3688 321.293 21.2442 320.961 21.1196C320.649 20.9743 320.379 20.9743 320.151 21.1196C318.157 21.4103 316.765 21.9708 315.976 22.8221C315.478 23.4034 314.854 23.9639 314.107 24.5245C313.359 25.1058 312.902 25.3134 312.777 25.1681C312.84 25.0228 313.068 24.566 313.421 23.7771C313.774 22.9881 314.044 22.4484 314.231 22.1785C314.418 21.8878 314.688 21.431 315.083 20.7874C315.478 20.1438 315.831 19.6871 316.163 19.3964C316.475 19.1057 316.89 18.7736 317.388 18.3791C317.887 17.9846 318.448 17.7147 319.05 17.5694C319.652 17.4241 320.317 17.3618 321.023 17.3618C322.311 17.3618 323.308 17.6524 324.014 18.213C324.866 19.0019 325.406 19.8531 325.613 20.7874C325.821 21.7217 326.008 23.7563 326.153 26.8913C326.361 30.2546 326.839 40.1579 327.545 56.6425C327.607 57.7844 327.628 59.0716 327.607 60.5041C327.566 61.9367 327.462 63.2654 327.296 64.5111C327.109 65.7568 326.714 66.7949 326.07 67.6253C325.426 68.4558 324.616 68.8502 323.599 68.8502C322.373 68.9956 321.439 68.7049 320.753 67.999C320.068 67.2931 319.382 65.8191 318.655 63.6183C318.157 61.9159 317.762 61.4799 317.471 62.3311C317.181 63.037 316.35 63.826 314.958 64.6772C313.567 65.5284 312.549 65.7775 311.905 65.4246C311.697 65.2793 311.594 64.9471 311.594 64.4073C311.594 63.8675 311.739 63.4938 312.03 63.2862C312.383 62.9955 313.858 61.3761 316.475 58.4072C319.071 55.4383 320.815 53.4245 321.667 52.3656C322.456 51.3691 322.955 50.5386 323.162 49.895C323.37 49.2514 323.453 48.3587 323.37 47.2168C323.225 45.9296 322.996 45.2652 322.664 45.2444C322.352 45.2029 321.584 45.805 320.359 47.0092C319.008 48.3587 318.261 49.0438 318.115 49.0438C317.908 49.1268 317.555 49.3345 317.098 49.6874L317.139 49.7082ZM323.619 63.9505C324.263 61.1062 324.263 58.4903 323.619 56.1442C323.557 55.7913 323.432 55.5006 323.308 55.293C323.162 55.293 322.685 55.8536 321.854 56.9539C321.023 58.0543 320.442 58.9263 320.088 59.5699C319.735 60.2758 319.569 60.8778 319.611 61.3346C319.652 61.7913 319.943 62.4972 320.525 63.4315C321.958 66.6495 322.996 66.8156 323.64 63.9713L323.619 63.9505ZM362.501 46.1787C361.566 47.113 360.756 47.8812 360.029 48.4832C359.323 49.0853 358.804 49.5006 358.533 49.7082C358.326 50.0611 358.222 50.3102 358.222 50.4556C358.222 50.6009 358.367 50.8085 358.658 51.0992C360.091 52.0334 361.151 52.6978 361.877 53.0715C362.584 53.466 363.144 53.7151 363.539 53.8189C363.934 53.9227 364.702 54.2342 365.845 54.7324C366.987 55.2307 368.42 55.9158 370.123 56.7671C371.328 57.3484 374.111 58.5525 378.431 60.4003C382.751 62.2481 385.95 63.7637 388.006 64.9055C388.65 65.3415 389.647 65.8398 390.997 66.4004C392.845 67.2516 394.029 67.8952 394.528 68.3312C395.026 68.7672 395.275 69.4316 395.275 70.3658C395.13 71.3624 394.881 72.0683 394.528 72.5043C394.175 72.9402 393.676 73.0648 393.032 72.878C392.388 72.6911 391.807 72.442 391.329 72.1306C390.831 71.8191 390.166 71.3416 389.356 70.7395C388.525 70.1375 387.944 69.6807 387.591 69.4108C385.95 68.4766 383.894 67.4592 381.443 66.2966C378.971 65.1547 376.292 63.9505 373.363 62.6633C370.435 61.3761 368.358 60.4626 367.153 59.8813C366.862 59.7359 365.928 59.2792 364.308 58.4903C362.708 57.7013 361.421 57.0992 360.444 56.6632C359.468 56.2272 358.388 55.7913 357.183 55.3345C355.958 54.8778 355.086 54.5664 354.504 54.421C354.006 54.421 353.632 54.5248 353.383 54.7324C353.133 54.9401 352.822 55.376 352.469 56.0196C351.763 57.6598 350.869 59.1961 349.789 60.6287C348.709 62.0612 347.899 63.2446 347.318 64.1581C346.321 65.5907 345.365 66.5872 344.472 67.1478C343.579 67.7291 342.603 67.7499 341.523 67.2516C341.232 66.9609 340.983 66.4627 340.775 65.7568C340.568 65.0509 340.484 64.4696 340.568 64.0544C340.713 63.6184 340.775 59.0301 340.775 50.248C340.775 42.6077 340.879 37.5419 341.087 35.0506C341.295 32.5592 341.793 29.9848 342.582 27.348C342.873 26.7875 343.101 25.7079 343.288 24.13C343.475 22.5521 343.808 21.5556 344.306 21.1404C344.805 20.4968 345.448 20.4345 346.238 20.9328C347.027 21.431 347.339 22.0331 347.193 22.7598C347.048 23.2581 346.944 23.8186 346.882 24.4207C346.819 25.0228 346.778 25.521 346.778 25.9155C346.778 26.31 346.819 26.4968 346.882 26.4968C347.027 26.4345 347.775 26.0608 349.125 25.4172C353.694 23.2165 356.041 21.8463 356.187 21.348C356.332 21.1404 356.187 20.7874 355.75 20.2684C355.397 19.8324 354.691 19.3964 353.653 18.9396C352.614 18.4829 351.804 18.2338 351.243 18.2338C350.454 18.2338 350.392 17.8393 351.036 17.0504C351.389 16.5521 351.846 16.1991 352.427 15.9708C353.715 15.5348 355.023 15.6593 356.394 16.2822C357.599 16.7805 358.554 17.8185 359.24 19.3964C359.925 20.9743 360.195 22.7598 360.05 24.7529C359.904 26.4553 359.697 27.8048 359.406 28.7598C359.115 29.7149 358.824 30.3792 358.554 30.7322C358.264 31.0851 357.62 31.8118 356.623 32.8706C356.477 33.0159 355.854 33.6595 354.753 34.8014C353.653 35.9433 352.78 36.7945 352.178 37.3758C351.576 37.9572 350.786 38.5593 349.831 39.2029C348.876 39.8465 348.024 40.1994 347.318 40.2824C346.882 40.1371 346.425 40.1786 345.926 40.3863C345.428 40.5939 345.095 40.8845 344.971 41.2375C344.825 41.7358 344.722 45.1199 344.659 51.4106C344.659 55.6875 344.659 58.3449 344.722 59.383C344.763 60.4211 344.888 60.9401 345.095 60.9401C345.386 61.0232 345.802 60.6287 346.383 59.819C346.944 59.0093 347.567 58.0543 348.211 56.9747C348.855 55.8951 349.353 55.1892 349.706 54.8363C350.205 54.4833 350.516 54.0266 350.62 53.5075C350.724 52.9885 350.745 52.511 350.682 52.1165C350.62 51.722 350.683 51.3068 350.89 50.8916C351.098 50.4763 351.576 50.1026 352.282 49.812C353.362 49.376 354.982 48.1303 357.163 46.0749C359.344 43.9988 360.714 42.8569 361.296 42.6492C361.587 42.587 361.94 42.2133 362.376 41.5697C362.812 40.9261 363.165 40.4901 363.456 40.2409C363.747 39.9918 364.162 40.0126 364.744 40.3032C365.034 40.5939 365.201 41.1544 365.284 42.0056L365.491 43.2929L362.604 46.1787H362.501ZM344.618 38.8914C345.698 38.5385 346.445 38.227 346.861 37.9779C347.297 37.7288 347.754 37.272 348.252 36.5869C348.751 35.9018 349.249 35.3205 349.748 34.8222C350.537 34.1163 351.451 32.9952 352.531 31.5003C353.611 30.0055 354.38 29.0297 354.878 28.6145L355.418 28.0747C355.563 27.9294 355.646 27.7218 355.688 27.4311C355.73 27.1404 355.75 26.9743 355.792 26.8913C355.833 26.829 355.854 26.5799 355.854 26.1439V25.3965C355.917 24.8982 355.563 24.9397 354.774 25.5003C354.566 25.6456 354.38 25.791 354.234 25.9363C354.089 26.2269 353.424 26.6006 352.261 27.0574C351.077 27.5141 350.018 27.8463 349.042 28.0124C348.086 28.1993 347.484 28.0955 347.276 27.7425C346.923 27.3896 346.632 27.3065 346.425 27.5349C346.134 27.8256 345.822 28.8429 345.469 30.5868C345.116 32.3308 344.888 33.9917 344.825 35.5696L344.618 38.8914Z" fill="white"/>
<path d="M428.342 0.690276C428.985 1.04322 429.422 1.68681 429.671 2.62108C429.92 3.55534 430.107 4.4481 430.252 5.29933C430.398 6.15055 430.502 7.20939 430.564 8.45508C430.626 9.70077 430.751 10.6558 430.876 11.2994C431.021 11.8807 431.021 13.2925 430.876 15.5762C430.813 17.6524 430.876 18.8358 431.083 19.168C431.291 19.5002 431.976 19.4379 433.119 19.0019C439.62 17.0088 443.711 16.8012 445.435 18.3583C446.432 19.1472 446.931 20.4967 446.931 22.4275C446.931 24.3584 446.64 26.1646 446.079 27.8255C445.498 29.5072 444.937 30.6698 444.376 31.3134C440.243 37.6665 435.673 42.67 430.668 46.3032C430.377 46.6562 430.19 47.196 430.086 47.9019C429.982 48.6078 429.92 49.4797 429.92 50.4763C429.92 51.4728 429.879 52.2202 429.816 52.7185C429.463 54.8569 429.38 60.0888 429.609 68.3934C429.816 76.7188 429.899 81.3901 429.816 82.4697C429.816 84.0476 429.235 85.1894 428.113 85.8953C426.971 86.6012 425.787 86.3521 424.582 85.1479C422.941 83.7154 422.734 82.5527 423.938 81.6185C424.291 81.3278 424.52 80.9957 424.645 80.6012C424.769 80.2067 424.873 79.1479 425.018 77.4454C425.164 75.4523 425.247 70.698 425.288 63.2031C425.33 55.7082 425.288 51.6181 425.122 50.8915C425.06 50.3932 424.811 50.1026 424.416 50.0403C424.021 49.978 423.689 50.0403 423.398 50.2479C423.191 50.4555 422.401 50.7462 421.051 51.0991C417.832 52.0334 415.63 51.9919 414.405 50.9953C413.823 50.497 413.803 49.9157 414.301 49.2929C414.592 48.7946 416.399 47.9641 419.764 46.7807C423.128 45.5973 424.832 44.8292 424.894 44.4762C425.247 44.1855 425.455 42.5454 425.538 39.5558C425.6 36.5661 425.745 34.8221 425.974 34.3031C426.265 32.8083 426.327 31.2304 426.182 29.5902C426.182 28.739 426.098 28.1162 425.912 27.7217C425.725 27.3273 425.475 27.2027 425.164 27.348C424.852 27.4933 424.499 27.6802 424.146 27.9293C423.793 28.1785 423.398 28.4899 422.962 28.8428C422.526 29.1958 422.214 29.4241 422.007 29.4864C420.864 30.2754 418.663 31.6249 415.423 33.5557C412.183 35.4865 409.981 36.919 408.839 37.8325C408.901 38.6838 409.026 39.4935 409.213 40.2409C409.399 40.9883 409.669 41.8395 410.064 42.753C410.459 43.6873 410.77 44.3516 410.978 44.7253C411.186 45.1198 411.601 45.9088 412.203 47.0714C412.806 48.2548 413.159 48.9399 413.221 49.1683C413.574 49.7496 413.533 50.2064 413.117 50.5593C412.681 50.9123 412.162 51.0991 411.56 51.0991C410.957 51.0991 410.48 50.9538 410.106 50.6631C408.403 47.3828 406.596 44.6838 404.706 42.5869C402.815 40.49 400.365 38.6007 397.374 36.9606C396.73 36.6699 396.356 36.3585 396.252 36.0055C396.148 35.6526 396.211 35.1543 396.46 34.5107C396.709 33.8671 396.834 33.3688 396.834 33.0159C397.27 30.7321 399.658 31.8325 403.999 36.3377C405.432 37.8325 406.201 38.58 406.346 38.58C406.907 38.9329 407.239 38.9329 407.302 38.58C407.302 38.3723 407.156 38.0194 406.866 37.5004C406.367 36.8567 406.139 36.3585 406.159 36.0055C406.201 35.6526 406.471 35.1128 406.969 34.4069C407.468 33.4727 409.566 31.9986 413.242 29.964C416.918 27.9293 418.974 26.7459 419.39 26.3722C419.597 26.1646 420.345 25.7286 421.591 25.085C422.838 24.4414 423.835 23.8601 424.582 23.3203C425.33 22.7805 425.766 22.2614 425.912 21.7632C426.202 21.2649 426.348 19.0849 426.348 15.2233V12.2336C426.348 11.4447 426.348 10.7181 426.285 10.0329C426.244 9.34781 426.223 8.84953 426.182 8.47583C426.14 8.12288 426.057 7.7284 425.912 7.29241C425.766 6.85642 425.662 6.56578 425.6 6.37893C425.538 6.19208 425.372 5.83912 425.122 5.29933C424.873 4.75953 424.686 4.36507 424.541 4.07441C423.689 2.43425 424.146 1.18856 425.932 0.337335C426.867 0.192005 427.635 0.295799 428.279 0.648744L428.342 0.690276ZM443.13 23.5902C443.13 23.2372 443.067 22.9258 442.964 22.6767C442.86 22.4275 442.735 22.2199 442.59 22.0331C442.444 21.8462 442.257 21.7217 442.008 21.6594C441.759 21.5971 441.53 21.514 441.302 21.4517C441.094 21.3895 440.783 21.3687 440.388 21.3895C439.994 21.431 439.682 21.4725 439.433 21.4933C439.183 21.5348 438.83 21.5971 438.353 21.7009C437.896 21.8047 437.522 21.9085 437.273 21.9708C437.023 22.0538 436.691 22.1161 436.255 22.1784C436.047 22.2615 435.902 22.3237 435.819 22.386C434.033 22.6767 432.828 23.0089 432.184 23.4033C431.54 23.7978 431.187 24.3791 431.104 25.168C430.107 35.3827 429.775 40.6561 430.149 41.009C430.439 41.2997 431.353 40.6146 432.932 38.9744C435.071 36.7737 436.4 35.5903 436.899 35.445C437.543 35.1543 438.623 33.6595 440.16 30.9397C441.697 28.22 442.611 26.1646 442.901 24.7321C443.047 24.2961 443.109 23.9224 443.109 23.5486L443.13 23.5902Z" fill="white"/>
<path d="M479.644 36.1716C479.437 35.9848 479.27 35.9017 479.167 35.9017C479.063 35.9017 478.793 35.9848 478.357 36.1716C477.92 36.3585 477.609 36.4831 477.401 36.5454C476.612 37.1267 475.76 37.1267 474.826 36.5454C473.891 35.9848 473.351 35.2166 473.164 34.2408C472.977 33.2858 473.289 32.3308 474.078 31.3965C474.722 30.5453 475.262 30.0055 475.677 29.7979C477.962 28.9467 480.039 29.3411 481.887 30.9813C483.736 32.6214 484.484 34.4485 484.131 36.4416C483.694 38.8706 482.594 41.4866 480.807 44.3101C479.021 47.1337 477.276 49.1476 475.553 50.3517C474.846 50.6424 474.244 50.6839 473.787 50.5178C473.33 50.331 473.102 49.9573 473.143 49.3344C473.185 48.7323 473.517 48.1095 474.161 47.4659C475.303 46.2617 476.466 44.5385 477.65 42.3378C478.834 40.1371 479.478 38.4762 479.623 37.4173C479.831 36.7737 479.831 36.3585 479.623 36.1924L479.644 36.1716Z" fill="white"/>
<path d="M247.128 149.922C247.336 150.358 247.627 150.566 247.98 150.566C248.478 150.566 248.914 150.774 249.267 151.21C249.621 151.646 249.807 152.102 249.807 152.601C249.953 153.244 249.6 153.826 248.79 154.365C247.959 154.905 246.983 155.445 245.84 155.964C244.698 156.504 243.992 156.94 243.701 157.293C242.995 157.999 242.039 159.597 240.856 162.047C239.672 164.497 239.152 165.95 239.298 166.386C239.443 166.677 239.838 166.677 240.482 166.386C242.559 165.743 245.093 164.767 248.146 163.438C251.178 162.109 253.588 161.175 255.374 160.594C258.219 159.514 259.05 158.663 257.845 158.019C257.555 157.874 257.201 157.77 256.765 157.708C256.121 157.646 255.831 157.21 255.914 156.421V156.109H259.341C261.272 156.109 262.56 156.234 263.246 156.483C263.931 156.732 264.263 157.21 264.263 157.936C264.263 158.788 263.91 159.535 263.183 160.179C262.477 160.822 261.044 161.673 258.905 162.753C254.044 165.037 248.831 167.258 243.265 169.397C240.336 170.476 238.322 171.369 237.221 172.116C236.12 172.864 235.123 174.026 234.272 175.604C233.42 177.037 232.257 179.383 230.782 182.663C229.328 185.944 228.124 188.476 227.189 190.262C223.264 198.047 221.187 202.864 220.979 204.712C220.688 207.058 219.65 208.823 217.863 209.965C216.513 210.899 215.537 210.795 214.976 209.653C214.54 209.363 214.748 208.262 215.558 206.331C216.368 204.401 217.365 202.345 218.507 200.186C219.65 198.006 220.252 196.74 220.335 196.387C221.415 193.895 222.765 191.009 224.406 187.771C226.047 184.532 227.376 181.646 228.373 179.155C229.578 176.518 229.868 175.168 229.224 175.085C229.079 175.023 228.934 175.023 228.788 175.085C227.293 175.231 224.655 175.916 220.854 177.12C218.86 177.764 217.573 178.116 216.991 178.2C216.409 178.283 215.89 178.096 215.392 177.66C214.54 176.58 214.436 175.667 215.122 174.878C215.807 174.089 216.929 173.674 218.486 173.59C219.421 173.445 220.73 173.092 222.454 172.511C224.157 171.95 225.569 171.577 226.628 171.431C229.764 170.642 231.862 169.874 232.901 169.127C233.939 168.379 234.874 166.801 235.746 164.372C236.037 163.666 236.411 162.836 236.868 161.902C237.325 160.968 237.595 160.303 237.678 159.867C237.532 159.805 236.639 159.909 234.998 160.179C233.15 160.469 231.8 160.448 230.99 160.116C230.159 159.805 229.765 159.099 229.765 158.019C229.972 157.023 230.471 156.192 231.218 155.549C231.966 154.905 232.735 154.905 233.524 155.549C234.022 155.902 234.853 155.985 235.995 155.756C237.283 155.694 238.363 155.341 239.256 154.739C240.149 154.137 240.773 153.473 241.126 152.767C241.479 152.061 241.998 151.293 242.683 150.462C243.369 149.652 244.137 149.009 244.989 148.594C246.131 148.594 246.837 149.03 247.128 149.881V149.922ZM248.624 141.742C248.042 142.137 247.045 142.469 245.633 142.76C240.565 144.047 236.432 144.753 233.212 144.898C230.928 144.898 229.785 144.462 229.785 143.611C229.785 143.258 229.972 142.718 230.325 142.012C230.678 141.306 230.969 140.933 231.177 140.933C237.034 140.787 241.749 140.081 245.321 138.794C246.609 138.358 247.627 138.275 248.374 138.524C249.122 138.773 249.496 139.293 249.496 140.081C249.496 140.787 249.205 141.348 248.644 141.742H248.624ZM243.057 181.999C243.265 182.103 243.846 181.667 244.76 180.67C245.903 179.674 247.211 179.217 248.665 179.279C250.119 179.362 251.324 179.819 252.258 180.67C252.404 180.878 252.757 181.251 253.338 181.791C253.899 182.331 254.377 182.871 254.73 183.39C255.083 183.93 255.228 184.49 255.166 185.051C255.166 185.902 255.27 186.753 255.478 187.625C255.831 189.328 255.935 192.047 255.789 195.764C255.644 199.48 255.228 203.3 254.564 207.266C253.878 211.231 252.902 213.39 251.614 213.743C250.327 214.034 249.33 213.785 248.624 212.996L247.772 212.041L243.805 213.224C240.876 214.158 239.028 214.677 238.239 214.823C237.449 214.968 236.847 214.968 236.411 214.823C234.978 214.117 234.562 213.12 235.123 211.833C235.269 211.19 235.435 209.695 235.663 207.328C235.892 204.961 236.099 202.802 236.307 200.788C236.515 198.795 236.764 197.653 237.055 197.362C237.906 189.515 238.405 184.262 238.55 181.625C238.612 181.189 238.696 180.67 238.758 180.027C238.82 179.383 238.862 178.926 238.862 178.636C238.862 178.345 238.903 177.992 238.966 177.556C239.028 177.12 239.09 176.85 239.132 176.705C239.173 176.559 239.236 176.373 239.339 176.123C239.443 175.874 239.547 175.708 239.651 175.646C239.755 175.584 239.921 175.48 240.129 175.376C240.336 175.272 240.565 175.189 240.773 175.168C240.98 175.127 241.271 175.085 241.624 175.002C242.268 175.21 242.642 175.521 242.746 175.916C242.849 176.31 242.87 177.286 242.808 178.864C242.746 180.857 242.808 181.916 243.016 182.02L243.057 181.999ZM250.015 198.214C250.015 198.214 249.475 198.608 248.187 199.169C246.9 199.75 245.466 200.414 243.846 201.203C242.247 201.992 241.126 202.636 240.482 203.134C240.191 203.57 240.046 204.774 240.046 206.767C240.046 208.553 240.129 209.529 240.316 209.715C240.503 209.902 241.396 209.778 243.036 209.342C243.743 209.342 244.594 208.968 245.55 208.221C246.505 207.473 247.357 207.141 248.063 207.203C248.707 207.349 249.33 207.286 249.932 207.037C250.534 206.788 250.887 206.456 250.95 206.02C251.656 202.532 252.03 200.061 252.03 198.629C252.092 197.425 251.427 197.279 249.994 198.193L250.015 198.214ZM252.051 191.196C252.051 190.096 251.905 189.286 251.614 188.788C251.469 188.29 251.033 188.082 250.327 188.207C249.621 188.31 248.935 188.518 248.291 188.85C247.647 189.182 246.962 189.535 246.256 189.93C245.55 190.324 245.03 190.511 244.76 190.511C243.618 190.947 242.85 191.404 242.455 191.902C242.06 192.4 241.749 193.335 241.541 194.684C241.25 196.117 241.25 196.968 241.541 197.259C241.832 197.549 242.683 197.445 244.116 196.947C245.903 196.304 248.333 195.058 251.407 193.21C251.843 193.002 252.051 192.338 252.051 191.238V191.196ZM247.024 183.66C246.235 184.013 245.695 184.449 245.425 184.947C244.989 185.528 245.03 185.798 245.529 185.798C246.671 185.736 247.814 185.238 248.956 184.303C249.247 184.096 249.309 183.992 249.164 183.992C249.164 183.203 248.457 183.099 247.024 183.681V183.66Z" fill="white"/>
<path d="M305.594 146.601C307.298 146.248 308.668 146.165 309.665 146.393C310.6 146.601 311.659 147.057 312.885 147.722C314.089 148.407 314.858 148.988 315.128 149.486C316.561 151.563 317.433 156.525 317.745 164.372C318.056 172.22 317.662 178.075 316.519 181.937C315.876 184.428 314.484 186.753 312.345 188.892L310.745 190.387V199.708L312.137 200.996C312.988 201.847 314.318 202.594 316.104 203.238C317.392 204.172 322.003 204.795 329.978 205.106C337.933 205.418 342.274 205.169 342.98 204.297C343.188 204.006 343.229 202.926 343.084 201.037C342.939 199.148 342.752 197.84 342.502 197.134C342.253 196.428 342.149 195.805 342.191 195.307C342.232 194.809 342.378 194.477 342.627 194.29C342.876 194.103 343.25 194.124 343.749 194.352C345.452 195.141 346.49 198.214 346.864 203.549C347.072 206.622 346.615 208.366 345.473 208.802C345.036 209.01 341.983 209.134 336.313 209.176C330.643 209.217 326.613 209.113 324.266 208.906C316.706 208.345 311.306 206.518 308.087 203.446C307.09 202.511 306.529 201.743 306.425 201.099C306.321 200.456 306.363 198.567 306.591 195.432C306.654 194.227 306.591 193.086 306.321 192.006C306.072 190.926 305.802 190.407 305.511 190.407C305.075 190.407 303.933 191.653 302.084 194.144C300.506 196.49 297.889 199.708 294.212 203.778C290.536 207.847 288.438 210.235 287.94 210.94C286.652 212.871 285.551 213.826 284.617 213.826C283.973 213.826 283.495 213.349 283.163 212.373C282.831 211.397 282.934 210.712 283.433 210.276C283.641 209.985 284.139 209.196 284.928 207.93C285.718 206.643 286.382 205.667 286.964 204.982C287.525 204.297 288.168 203.819 288.895 203.529C289.892 202.885 291.097 201.785 292.489 200.207C293.88 198.629 294.939 197.279 295.646 196.137C295.936 195.577 296.56 194.746 297.515 193.667C298.47 192.587 299.031 191.715 299.177 190.989C299.114 190.989 298.034 191.487 295.957 192.483C291.18 194.913 288.148 195.473 286.86 194.186C285.718 193.044 285.925 191.944 287.504 190.864L288.792 189.909L288.895 186.483C289.041 183.909 289.56 179.86 290.453 174.338C291.346 168.815 291.782 163.583 291.782 158.663C291.845 152.891 292.094 148.967 292.53 146.891C292.468 145.895 292.717 145.064 293.34 144.379C293.943 143.694 294.607 143.673 295.313 144.317C295.666 144.67 295.874 145.396 295.957 146.455C296.02 147.535 296.144 148.158 296.269 148.324C296.414 148.511 296.809 148.448 297.453 148.158C301.087 147.514 303.808 146.974 305.594 146.559V146.601ZM310.725 185.3C311.223 184.76 311.638 183.971 311.95 182.954C312.262 181.916 312.552 181.002 312.802 180.234C313.051 179.445 313.258 178.324 313.445 176.871C313.632 175.418 313.757 174.421 313.819 173.923C313.882 173.424 314.006 172.49 314.131 171.141C314.193 170.289 314.172 169.75 314.027 169.542C313.882 169.334 313.715 169.314 313.549 169.48C313.362 169.667 313.072 169.957 312.635 170.393C312.49 170.601 312.386 170.767 312.324 170.871C312.262 170.975 312.137 171.078 312.012 171.182C311.867 171.286 311.763 171.39 311.701 171.452C311.638 171.535 311.555 171.556 311.493 171.556C311.348 171.639 310.912 171.888 310.164 172.366C309.416 172.822 308.876 173.155 308.564 173.321C308.253 173.507 307.713 173.798 306.965 174.234C306.218 174.67 305.636 174.982 305.2 175.189C304.764 175.397 304.203 175.687 303.497 176.04C302.79 176.393 302.167 176.663 301.669 176.85C301.17 177.037 300.63 177.182 300.07 177.328C299.488 177.473 298.99 177.535 298.574 177.535C297.785 177.618 297.266 177.66 297.016 177.701C296.767 177.743 296.476 177.784 296.165 177.805C295.853 177.847 295.666 177.971 295.625 178.179C295.583 178.386 295.521 178.573 295.417 178.719C295.313 178.864 295.21 179.217 295.106 179.798C295.002 180.38 294.898 180.836 294.836 181.189C293.901 185.051 293.153 187.542 292.592 188.684C292.302 189.265 292.302 189.535 292.592 189.535C293.589 189.328 295.604 188.29 298.636 186.421C301.669 184.573 303.247 183.639 303.393 183.639C304.182 183.203 304.93 182.746 305.636 182.248C306.716 181.459 307.588 181.335 308.253 181.874C308.938 182.414 309.084 183.328 308.731 184.594C308.523 185.383 308.419 185.881 308.461 186.089C308.502 186.297 308.689 186.4 309.042 186.4C309.686 186.193 310.247 185.819 310.745 185.279L310.725 185.3ZM312.594 158.642C312.407 159.68 311.867 160.49 310.932 161.051C310.725 161.258 308.419 162.068 304.016 163.459C299.613 164.85 297.183 165.826 296.684 166.407C296.476 166.843 296.331 167.84 296.248 169.397L296.144 171.743C297.079 172.241 297.993 172.739 298.927 173.238L301.17 172.49C302.52 172.054 304.057 171.307 305.781 170.248C307.505 169.189 308.668 168.213 309.312 167.362C310.455 165.867 311.638 165.369 312.843 165.867C313.404 166.075 313.778 166.075 313.923 165.805C314.069 165.556 314.069 164.995 313.923 164.144C313.715 163.293 313.549 162.089 313.445 160.552C313.342 159.016 313.217 157.708 313.072 156.649C312.926 155.57 312.677 154.49 312.324 153.39C311.971 152.289 311.327 151.5 310.392 151.044C309.458 150.587 308.295 150.421 306.861 150.566C306.799 150.566 306.093 150.732 304.764 151.044C303.434 151.355 302.188 151.687 301.025 151.999C299.862 152.31 299.26 152.559 299.26 152.704C298.969 152.995 298.636 153.805 298.242 155.113C297.847 156.442 297.577 157.604 297.432 158.601C297.286 159.597 297.37 160.179 297.64 160.303C298.138 160.594 299.633 160.428 302.147 159.826C304.639 159.224 306.28 158.642 307.069 158.061C308.357 157.127 309.645 156.67 310.932 156.67C312.22 156.961 312.76 157.625 312.594 158.642Z" fill="white"/>
<path d="M374.343 180.11C380.491 177.265 384.624 175.584 386.763 175.085C387.407 174.878 388.591 174.421 390.356 173.757C392.101 173.071 393.7 172.573 395.113 172.2C396.546 171.847 398.332 171.556 400.471 171.348C402.05 171.141 403.732 170.788 405.56 170.269C407.388 169.77 409.714 169.376 412.58 169.085C413.141 169.023 413.66 168.919 414.076 168.815C414.491 168.712 414.782 168.629 414.927 168.608C415.072 168.566 415.322 168.566 415.675 168.608C416.028 168.649 416.526 168.774 417.17 168.981C417.731 169.417 418.167 169.75 418.458 169.999C418.749 170.248 419.019 170.705 419.268 171.39C419.517 172.075 419.6 172.843 419.538 173.694C419.538 175.189 419.226 176.559 418.583 177.764C418.001 178.843 417.17 180.006 416.069 181.252C414.969 182.497 414.117 183.224 413.556 183.452C412.975 183.743 412.455 184.096 411.957 184.532C411.521 184.822 410.69 185.051 409.444 185.238C408.198 185.425 407.471 185.362 407.242 185.072C406.889 184.428 407.471 183.681 409.008 182.829C410.545 181.978 411.999 180.712 413.349 179.03C414.699 177.348 415.384 176.02 415.384 175.023C415.384 174.317 415.176 173.84 414.802 173.57C414.408 173.321 413.598 173.238 412.393 173.3C409.028 173.591 405.124 174.151 400.658 175.002C396.193 175.854 392.828 176.788 390.543 177.784C389.463 178.22 387.989 178.739 386.098 179.341C384.208 179.944 382.547 180.566 381.114 181.168C379.681 181.771 377.874 182.643 375.651 183.784C374.156 184.573 372.619 185.342 371.04 186.089C369.462 186.836 368.319 187.376 367.551 187.688C366.782 187.999 365.931 188.518 364.934 189.245C363.937 189.951 362.857 190.843 361.715 191.923C361.071 192.629 360.51 193.003 360.053 193.003C359.596 193.003 359.098 192.65 358.599 191.923C358.391 191.778 358.246 191.466 358.163 190.968C358.101 190.47 358.101 189.826 358.225 189.037C358.329 188.248 358.433 187.584 358.537 187.002C358.641 186.442 358.828 185.674 359.077 184.76C359.326 183.826 359.492 183.265 359.555 183.058C359.845 182.497 360.032 181.314 360.136 179.528C360.24 177.743 360.427 176.165 360.676 174.774C360.925 173.383 361.403 172.656 362.13 172.573C362.483 172.511 362.899 172.656 363.355 173.051C363.812 173.445 364.186 173.923 364.477 174.504C364.913 175.584 364.726 177.577 363.937 180.504C363.231 183.431 363.002 185.009 363.293 185.217C364.498 184.719 368.174 183.037 374.322 180.193L374.343 180.11ZM391.042 195.515C391.603 195.079 392.143 194.622 392.641 194.124C393.638 193.127 394.489 192.525 395.216 192.297C395.923 192.089 396.546 192.297 397.044 192.878C397.543 193.48 397.937 194.165 398.228 194.913C398.519 195.66 398.768 196.636 398.976 197.861C399.121 198.94 398.976 199.958 398.498 200.975C398.041 201.971 397.46 202.594 396.795 202.843C396.11 203.093 395.466 202.926 394.822 202.366C394.386 202.013 394.24 201.577 394.386 201.079C394.676 200.228 394.822 199.584 394.822 199.148C394.822 198.712 394.76 198.442 394.614 198.338C394.469 198.234 394.24 198.255 393.908 198.4C393.596 198.546 393.306 198.712 393.056 198.878C392.807 199.065 392.475 199.335 392.039 199.688C391.831 199.895 391.665 200.041 391.561 200.124C391.457 200.207 391.332 200.29 391.187 200.394C391.042 200.497 390.938 200.601 390.876 200.664C390.294 200.809 389.92 201.245 389.754 201.951C389.567 202.657 389.463 203.549 389.442 204.567C389.401 205.605 389.359 206.331 389.276 206.767C389.131 207.847 389.172 208.449 389.38 208.594C389.588 208.677 390.149 208.594 391.042 208.324C391.935 208.075 392.766 207.743 393.555 207.307C394.635 206.747 395.57 206.601 396.4 206.871C397.21 207.162 397.522 207.722 397.314 208.574C397.023 209.653 396.213 210.401 394.843 210.816C393.555 211.252 392.205 211.875 390.772 212.684C389.339 213.515 388.529 214.138 388.3 214.553C387.947 215.487 387.719 216.65 387.594 218.041C387.469 219.432 387.594 220.553 387.864 221.404H389.899C392.62 221.259 395.486 220.989 398.519 220.595C401.551 220.2 404.812 220.013 408.322 220.013C412.393 219.951 415.966 219.702 419.039 219.266C422.113 218.83 425.603 218.56 429.528 218.415C433.246 218.207 435.344 218.228 435.842 218.518C436.341 218.809 436.59 219.328 436.59 220.075C436.59 220.823 436.382 221.404 435.946 221.84C435.448 222.338 434.866 222.65 434.181 222.754C433.495 222.858 432.228 222.837 430.38 222.691C426.745 222.629 423.214 222.858 419.787 223.397C416.36 223.937 412.476 224.269 408.115 224.415C391.042 224.975 378.164 226.408 369.462 228.691C367.468 229.252 366.097 229.211 365.329 228.525C364.56 227.84 364.706 226.719 365.702 225.162C366.201 224.601 366.886 224.186 367.738 223.937C368.59 223.688 370.583 223.418 373.74 223.127C378.601 222.629 381.529 222.235 382.526 221.944C382.817 221.508 382.921 221.134 382.838 220.823C382.775 220.511 382.609 220.055 382.36 219.494C382.111 218.934 381.986 218.456 381.986 218.103C381.924 217.46 381.82 217.086 381.716 216.982C381.612 216.878 381.238 216.795 380.594 216.712C378.954 216.504 378.372 215.529 378.891 213.826C379.037 213.183 379.265 212.747 379.598 212.498C379.909 212.248 380.553 212.062 381.467 211.916C382.9 211.626 383.876 211.107 384.416 210.359C384.956 209.612 385.185 208.387 385.122 206.664C385.122 205.314 384.998 204.421 384.748 203.985C384.499 203.549 383.98 203.342 383.191 203.342C381.965 203.342 381.218 202.802 380.948 201.743C380.511 201.245 380.636 200.435 381.321 199.335C382.007 198.234 382.838 197.072 383.835 195.847C384.832 194.643 385.413 193.895 385.538 193.605C385.683 193.397 385.891 193.086 386.182 192.691C386.472 192.297 386.742 191.964 386.992 191.674C387.241 191.383 387.428 191.113 387.532 190.823C387.635 190.532 387.594 190.366 387.428 190.283C387.241 190.22 386.867 190.241 386.306 190.387C385.725 190.532 384.873 190.781 383.731 191.134C381.944 191.778 380.636 191.985 379.826 191.778C378.995 191.57 378.746 190.698 379.016 189.203C379.224 188.767 379.971 188.29 381.218 187.75C382.464 187.21 383.668 186.878 384.811 186.733C385.309 186.733 386.036 186.566 387.012 186.255C387.989 185.944 388.799 185.591 389.484 185.238C390.169 184.885 391.083 184.407 392.267 183.784C393.451 183.182 394.178 182.809 394.469 182.663C396.047 182.31 397.003 182.559 397.356 183.411C397.563 184.117 397.46 184.864 397.044 185.611C396.629 186.359 395.611 187.563 394.053 189.203C392.703 190.636 391.27 192.297 389.775 194.186C388.279 196.075 387.532 197.176 387.532 197.445C387.532 198.089 388.736 197.445 391.166 195.515H391.042ZM391.146 135.036C394.365 134.829 395.819 134.102 395.528 132.898V131.818L399.059 131.715C401.406 131.715 402.943 131.611 403.67 131.403C404.874 130.843 405.747 130.843 406.245 131.466C406.744 132.068 406.889 132.836 406.681 133.77C406.474 134.704 406.079 135.369 405.498 135.805C405.207 135.888 404.314 135.991 402.818 136.116C401.177 136.261 398.727 136.926 395.486 138.088C392.246 139.272 390.46 140.185 390.19 140.808C389.484 142.095 388.653 144.192 387.719 147.12C387.573 147.618 388.113 147.659 389.318 147.223C391.956 146.435 393.243 146.04 393.181 146.04C393.887 145.832 394.51 145.915 395.009 146.31C395.507 146.704 395.694 147.223 395.549 147.867C395.341 148.718 394.843 149.466 394.095 150.109C393.347 150.753 392.579 151.044 391.789 150.961C391.208 150.898 389.899 151.355 387.822 152.352C385.828 153.348 383.253 154.386 380.117 155.466C376.981 156.545 374.862 157.064 373.803 157.064C372.951 157.064 372.515 156.525 372.515 155.466C372.515 153.68 374.945 152.248 379.805 151.189C380.366 151.044 380.823 150.774 381.134 150.379C381.446 149.985 382.401 148.656 383.98 146.372C384.478 145.583 384.894 144.732 385.205 143.798C385.517 142.864 385.642 142.303 385.579 142.095C385.434 141.888 384.873 141.909 383.876 142.199C382.879 142.49 381.82 142.781 380.719 143.113C379.618 143.424 378.954 143.569 378.746 143.486C377.894 143.632 375.174 144.338 370.604 145.625C368.61 146.206 367.426 146.372 367.073 146.165C366.492 145.874 366.139 145.23 365.993 144.192C365.848 143.154 366.035 142.386 366.533 141.888C367.032 141.535 367.987 141.327 369.42 141.244C370.853 141.182 371.892 140.995 372.536 140.704C381.176 138.857 385.891 137.528 386.68 136.739C386.888 136.531 387.012 136.22 387.054 135.825C387.095 135.431 387.054 134.455 386.888 132.877C386.535 129.389 386.348 127.272 386.348 126.566C386.348 125.86 386.555 125.32 386.992 124.967C387.843 124.033 388.736 123.929 389.671 124.656C390.232 125.154 390.668 127.583 390.959 131.943L391.166 135.057L391.146 135.036ZM380.802 157.147C381.758 157.542 382.277 158.372 382.36 159.66C382.422 160.096 382.505 160.407 382.568 160.615C382.63 160.822 382.755 160.926 382.879 160.885C383.025 160.843 383.17 160.781 383.315 160.677C383.461 160.573 383.689 160.407 384.022 160.199C384.354 159.992 384.645 159.805 384.935 159.66C385.226 159.597 385.745 159.307 386.493 158.808C387.241 158.31 387.926 157.874 388.529 157.521C389.131 157.168 389.879 156.794 390.772 156.4C391.665 156.006 392.371 155.839 392.911 155.86C393.451 155.902 393.991 156.089 394.573 156.442C395.071 156.878 395.216 157.646 395.009 158.746C394.801 159.846 394.303 160.947 393.513 162.006L392.869 162.961C393.804 163.604 394.365 164.144 394.573 164.559C394.635 165.494 394.49 166.22 394.095 166.76C393.7 167.3 392.911 167.923 391.748 168.629C390.564 169.334 389.796 169.853 389.442 170.123C385.725 172.76 383.191 173.985 381.841 173.757C381.404 173.694 381.051 173.507 380.761 173.217C380.47 172.926 380.179 172.573 379.909 172.137C379.618 171.701 379.369 171.39 379.161 171.182C378.663 170.622 378.414 169.791 378.414 168.712C378.559 165.224 378.455 163.085 378.102 162.296C377.458 160.718 377.562 159.307 378.414 158.019C379.057 157.023 379.868 156.711 380.823 157.106L380.802 157.147ZM386.535 162.67C386.036 162.878 385.33 163.5 384.437 164.497C383.544 165.494 383.066 166.199 382.983 166.635C382.838 167.279 382.921 167.59 383.191 167.59C383.398 167.59 384.208 166.822 385.6 165.286C386.992 163.75 387.698 162.878 387.698 162.67C387.698 162.379 387.303 162.379 386.514 162.67H386.535Z" fill="white"/>
<path d="M453.601 183.328C453.248 183.681 452.666 184.117 451.898 184.615C449.675 186.047 448.076 186.4 447.079 185.695C446.726 185.404 446.498 184.823 446.435 183.93C446.373 183.037 446.498 182.248 446.871 181.584C447.224 180.899 447.765 180.712 448.471 181.002C449.177 181.148 449.841 181.086 450.444 180.836C451.046 180.587 451.732 180.172 452.479 179.611C453.227 179.051 453.788 178.677 454.141 178.532C454.577 178.324 455.408 177.701 456.654 176.663C457.9 175.625 458.71 175.044 459.063 174.899C461.203 173.611 462.49 173.445 462.927 174.359C463.57 175.501 463.363 176.331 462.283 176.829C461.784 176.975 460.642 177.847 458.856 179.445C457.069 181.044 455.886 181.957 455.325 182.165C454.535 182.601 453.975 182.996 453.622 183.348L453.601 183.328ZM464.193 189.805C464.63 189.556 465.19 189.722 465.897 190.283C466.333 190.926 466.25 192.38 465.689 194.622C465.107 196.864 464.505 198.629 463.861 199.916C463.363 200.85 462.802 201.909 462.2 203.134C461.597 204.359 461.244 205.044 461.182 205.231C461.12 205.418 460.725 205.937 459.998 206.83C459.292 207.722 458.627 208.491 458.025 209.134C457.423 209.778 456.301 211.024 454.66 212.871C453.663 213.951 452.915 214.553 452.417 214.698C451.628 214.906 450.942 214.657 450.319 213.951C449.717 213.245 449.488 212.415 449.613 211.48C449.675 210.982 449.8 210.671 449.987 210.525C450.174 210.38 450.568 210.235 451.212 210.089C451.773 209.799 452.438 209.155 453.185 208.158C453.933 207.162 454.556 206.456 455.055 206.02C456.197 204.816 457.755 202.511 459.707 199.106C461.68 195.722 462.906 193.169 463.404 191.445C463.467 190.594 463.716 190.034 464.152 189.785L464.193 189.805ZM454.452 148.656C454.743 148.801 455.47 149.258 456.654 150.047C457.838 150.836 458.606 151.293 458.959 151.438C461.244 152.372 462.615 153.037 463.093 153.41C463.55 153.805 463.799 154.428 463.799 155.279C463.861 156.13 463.55 156.628 462.843 156.774C462.137 156.919 461.161 156.712 459.956 156.13C458.253 155.196 455.989 154.449 453.206 153.888C452.064 153.597 451.378 153.286 451.171 152.933C450.963 152.58 451.129 152.123 451.711 151.542C452.791 149.902 453.705 148.947 454.494 148.656H454.452ZM476.946 170.061C477.59 169.355 478.13 169.355 478.608 170.123C479.065 170.871 479.522 172.034 479.937 173.611C480.082 174.317 480.082 176.061 479.937 178.802C479.792 181.542 479.625 183.182 479.397 183.681C479.106 184.387 478.545 184.781 477.694 184.864C476.842 184.947 476.302 184.656 476.095 184.013C475.742 180.525 476.032 175.874 476.946 170.103V170.061ZM484.652 160.739C485.213 160.386 485.69 159.971 486.043 159.514C486.396 159.058 486.936 158.601 487.643 158.186C488.349 157.75 488.93 157.542 489.346 157.542C489.907 157.542 490.343 157.916 490.634 158.663C490.924 159.411 490.883 160.116 490.53 160.76C490.177 161.341 489.844 161.757 489.574 162.047C489.283 162.338 488.889 162.629 488.39 162.961C487.892 163.272 487.56 163.521 487.435 163.667C486.5 164.663 485.233 165.286 483.634 165.535C482.035 165.784 480.726 165.348 479.729 164.206C479.148 163.563 478.899 162.898 478.982 162.234C479.044 161.549 479.48 160.262 480.269 158.331C481.121 156.483 481.474 155.487 481.349 155.341C481.204 155.279 480.602 155.383 479.522 155.653C478.088 156.296 477.05 156.193 476.406 155.341C475.762 154.49 475.825 153.514 476.614 152.455C479.459 148.241 481.038 145.147 481.329 143.134C481.474 141.846 481.64 141.099 481.869 140.891C482.097 140.684 482.679 140.455 483.696 140.248C484.049 140.331 484.257 140.455 484.34 140.621C484.403 140.808 484.444 141.348 484.444 142.282C484.59 142.988 484.527 143.798 484.278 144.691C484.029 145.583 483.613 146.663 483.053 147.909C482.471 149.154 482.118 149.964 481.973 150.317C482.118 150.4 482.616 150.275 483.468 150.006C485.96 149.154 487.435 149.57 487.85 151.293C488.058 152.227 487.539 153.327 486.251 154.615C485.753 155.113 485.046 156.151 484.153 157.729C483.26 159.307 482.824 160.303 482.824 160.718C482.824 161.362 483.426 161.404 484.652 160.822V160.739ZM482.242 175.625C482.139 174.047 482.076 172.615 482.076 171.286C482.076 169.957 482.263 169.335 482.616 169.418C483.323 168.919 483.842 168.836 484.174 169.148C484.506 169.459 484.88 170.456 485.296 172.096C485.939 176.456 486.147 179.03 485.939 179.798C485.586 181.023 484.61 181.272 483.053 180.546C482.554 180.193 482.305 179.466 482.305 178.407C482.367 178.117 482.367 177.203 482.242 175.625ZM489.097 168.566C489.844 168.857 490.509 169.272 491.07 169.854C492.067 170.933 492.461 172.989 492.254 176.061C492.191 177.847 492.046 179.051 491.817 179.653C491.61 180.255 491.215 180.629 490.634 180.774C489.99 181.21 489.408 180.961 488.868 180.027C488.328 179.092 488.245 178.283 488.598 177.556C488.951 176.995 489.013 175.916 488.764 174.338C488.515 172.76 488.245 171.743 487.954 171.224C487.663 170.788 487.497 170.29 487.414 169.667C487.352 169.065 487.414 168.691 487.622 168.546C487.83 168.255 488.328 168.255 489.076 168.546L489.097 168.566ZM503.656 141.493C502.763 142.075 501.6 142.594 500.167 143.05C498.734 143.507 497.82 143.922 497.384 144.275C496.241 144.981 495.078 145.313 493.894 145.23C492.711 145.168 491.776 144.691 491.049 143.839C490.758 143.279 490.8 142.801 491.153 142.448C491.506 142.095 492.357 141.659 493.728 141.161C494.019 141.099 496.844 139.874 502.182 137.528C502.888 137.237 503.511 137.3 504.051 137.694C504.591 138.088 504.861 138.608 504.861 139.251C504.923 140.185 504.529 140.933 503.635 141.493H503.656ZM505.858 127.479C505.796 128.123 505.422 128.6 504.736 128.933C504.051 129.244 502.68 129.597 500.603 129.95C498.464 130.303 496.968 130.448 496.158 130.386C495.327 130.324 494.601 129.991 493.957 129.431C492.461 127.998 493.001 126.96 495.556 126.317C496.408 126.109 497.591 125.881 499.087 125.673C503.802 125.03 506.045 125.632 505.837 127.5L505.858 127.479ZM502.493 149.092C502.098 149.445 501.538 149.819 500.79 150.213C500.042 150.608 499.461 150.981 499.025 151.334C497.945 151.978 497.01 152.435 496.179 152.663C495.348 152.912 494.704 152.933 494.206 152.725C493.707 152.518 493.458 152.123 493.458 151.542C493.458 150.961 493.811 150.545 494.538 150.255C494.974 150.047 495.847 149.362 497.155 148.22C498.485 147.078 499.378 146.435 499.876 146.289C500.728 145.999 501.538 145.978 502.285 146.227C503.033 146.476 503.407 146.891 503.407 147.452C503.199 148.158 502.888 148.698 502.493 149.051V149.092ZM495.203 171.245C495.598 170.165 495.868 169.002 496.013 167.715C496.657 163.937 497.363 161.694 498.152 160.968C498.713 160.532 499.585 160.407 500.728 160.532L500.624 162.462C500.561 163.542 500.624 164.144 500.79 164.289C500.977 164.435 501.455 164.227 502.244 163.646C503.822 162.566 505.193 162.712 506.377 164.02C507.561 165.348 507.748 167.03 506.959 169.106C506.522 170.186 506.273 170.85 506.211 171.141C506.066 171.722 505.318 172.677 503.968 174.027C502.618 175.376 501.621 176.207 500.977 176.497C500.333 176.788 499.295 176.85 497.861 176.705C495.639 176.497 494.538 175.895 494.538 174.878C494.601 173.528 494.85 172.303 495.244 171.245H495.203ZM499.481 156.089C499.087 156.13 498.775 156.192 498.526 156.296C498.277 156.4 498.007 156.566 497.716 156.774C496.138 158.061 495.369 157.957 495.369 156.462C495.369 156.317 495.411 156.172 495.473 156.026C495.535 155.881 495.681 155.736 495.909 155.59C496.117 155.445 496.345 155.321 496.553 155.217C496.761 155.113 497.01 154.988 497.301 154.843C497.591 154.698 497.841 154.573 498.048 154.469C498.256 154.365 498.485 154.282 498.692 154.199C498.9 154.137 499.045 154.096 499.128 154.096C499.627 153.743 500.042 153.68 500.354 153.929C500.665 154.179 500.811 154.511 500.79 154.947C500.748 155.383 500.624 155.694 500.416 155.902C500.208 155.985 499.897 156.026 499.502 156.068L499.481 156.089ZM517.26 197.508C517.655 197.612 518.174 197.84 518.818 198.214C519.462 198.712 520.148 199.439 520.854 200.352C521.56 201.286 521.934 201.992 521.934 202.491C521.996 202.844 522.121 203.321 522.308 203.944C522.494 204.546 522.598 204.982 522.619 205.231C522.661 205.48 522.681 205.833 522.723 206.311C522.765 206.767 522.723 207.245 522.661 207.702C522.598 208.158 522.453 208.781 522.287 209.529C522.1 210.276 521.871 211.19 521.581 212.249C521.373 213.037 521.144 213.723 520.874 214.345C520.625 214.947 520.459 215.404 520.397 215.674C520.106 216.671 518.922 218.29 516.804 220.553C514.706 222.795 513.003 224.249 511.715 224.892C510.573 225.453 508.89 225.785 506.689 225.847C505.256 225.993 504.072 226.013 503.095 225.91C502.119 225.806 501.33 225.474 500.686 224.955C500.042 224.435 499.585 223.999 499.295 223.667C499.004 223.356 498.588 222.629 498.069 221.529C497.55 220.428 497.155 219.66 496.948 219.224C496.096 217.646 496.117 216.629 497.051 216.11C497.841 215.612 498.547 216.069 499.191 217.501C499.627 218.207 499.959 218.664 500.208 218.83C500.458 219.017 500.79 219.1 501.226 219.1C502.805 219.1 503.802 219.494 504.217 220.283C504.425 220.636 504.944 220.906 505.775 221.093C506.585 221.28 507.353 221.321 508.08 221.259C509.223 221.114 510.78 220.159 512.733 218.373C514.706 216.588 515.848 215.134 516.222 213.992C518.299 209.778 518.964 206.643 518.257 204.567C517.904 203.28 517.447 202.47 516.928 202.096C516.388 201.743 515.163 201.494 513.231 201.349C512.006 201.286 511.175 201.224 510.718 201.183C510.261 201.141 509.763 200.996 509.223 200.747C508.683 200.497 508.371 200.165 508.267 199.729C508.163 199.293 508.101 198.65 508.101 197.798C508.163 197.155 508.599 195.909 509.389 194.061C510.178 192.214 510.884 190.719 511.528 189.556C512.026 188.705 512.13 188.227 511.84 188.165C511.632 188.103 511.092 188.165 510.24 188.331C509.389 188.518 508.849 188.414 508.641 188.061C507.789 187.563 507.519 186.899 507.831 186.089C508.142 185.279 508.953 184.636 510.24 184.221C512.733 183.369 514.353 182.933 515.059 182.933C516.139 182.643 516.887 183.058 517.364 184.158C517.821 185.259 517.697 186.131 516.99 186.774C516.284 187.418 515.225 189.162 513.833 192.027C512.442 194.892 511.86 196.553 512.068 197.051C512.13 197.259 513.065 197.362 514.851 197.362C516.056 197.362 516.866 197.425 517.26 197.529V197.508ZM502.265 170.539C503.303 168.94 503.719 167.84 503.49 167.279C503.199 166.428 502.265 167.321 500.707 169.957C499.565 171.95 499.274 172.947 499.855 172.947C500.437 172.947 501.226 172.137 502.265 170.539ZM518.818 141.431C520.314 138.545 521.601 136.241 522.681 134.518C522.972 134.227 523.325 133.355 523.761 131.902C524.198 130.448 524.468 129.597 524.613 129.389C524.821 129.099 525.215 129.016 525.797 129.12C526.358 129.223 526.752 129.493 526.981 129.929C527.043 130.863 527.126 131.528 527.188 131.964C527.251 132.4 527.188 132.981 526.918 133.729C526.669 134.476 526.462 135.016 526.275 135.327C526.088 135.639 525.818 136.178 525.423 136.926C525.028 137.673 524.717 138.255 524.509 138.691C523.512 140.767 522.827 141.971 522.474 142.324C522.121 142.905 521.975 143.341 522.038 143.653C522.1 143.964 522.349 144.089 522.744 143.964C523.138 143.86 523.512 143.59 523.865 143.154C525.008 142.012 526.129 141.39 527.23 141.286C528.331 141.182 529.286 141.743 530.075 142.947C530.283 143.3 530.159 143.777 529.702 144.4C529.245 145.002 528.642 145.625 527.936 146.268C527.23 146.912 526.752 147.369 526.545 147.66C526.482 148.096 526.192 148.511 525.693 148.947C525.049 149.59 524.862 150.026 525.153 150.234C525.215 150.317 525.361 150.275 525.589 150.13C525.942 149.985 526.628 149.528 527.625 148.739C529.12 147.597 530.262 147.39 531.052 148.096C531.986 148.801 531.841 149.694 530.615 150.774C529.473 151.916 528.622 152.746 528.04 153.286C527.458 153.826 526.524 154.49 525.195 155.258C523.865 156.047 522.744 156.359 521.83 156.213C520.604 156.068 519.898 155.466 519.691 154.386C519.483 153.307 519.836 152.102 520.771 150.753C521.414 149.756 521.705 149.154 521.622 148.926C521.56 148.718 521.02 148.677 520.023 148.822C519.088 149.113 518.32 149.009 517.676 148.511C517.032 148.012 516.637 147.41 516.492 146.684C516.554 146.04 517.344 144.275 518.839 141.39L518.818 141.431ZM520.147 158.289C520.542 157.999 521.061 158.227 521.705 158.933C522.702 159.639 523.242 161.279 523.305 163.812C523.367 166.345 523.055 168.4 522.349 169.957C522.287 170.103 522.121 170.912 521.871 172.428C521.622 173.923 521.311 174.712 520.958 174.774C520.106 175.418 519.358 175.563 518.714 175.21C518.071 174.857 517.717 174.255 517.634 173.383C517.572 172.532 517.697 171.639 518.07 170.705C518.361 169.854 518.694 168.193 519.088 165.722C519.483 163.251 519.67 161.383 519.67 160.096C519.607 159.161 519.753 158.559 520.147 158.269V158.289ZM528.663 162.898C528.954 163.687 529.016 164.788 528.871 166.22C528.725 168.006 528.559 169.231 528.393 169.916C528.206 170.601 527.832 171.078 527.272 171.369C526.337 171.95 525.61 171.888 525.07 171.203C524.53 170.518 524.405 169.646 524.696 168.587C524.841 168.151 524.966 167.134 525.07 165.535C525.174 163.937 525.319 162.483 525.506 161.196C525.693 159.909 525.88 159.307 526.088 159.369C526.586 158.933 527.043 158.912 527.479 159.265C527.915 159.618 528.123 160.22 528.123 161.092C528.185 161.528 528.372 162.13 528.663 162.919V162.898ZM534.063 156.421C534.52 156.379 534.894 156.483 535.185 156.691C535.683 156.981 535.953 158.206 535.995 160.386C536.036 162.566 535.829 165.12 535.413 168.047C535.351 168.546 534.769 169.521 533.71 170.933C532.63 172.366 531.862 173.217 531.363 173.508C530.138 173.861 529.411 173.819 529.162 173.341C528.912 172.885 529.286 172.158 530.283 171.141C531.135 169.999 531.779 166.926 532.215 161.943C532.423 159.016 532.713 157.272 533.066 156.691C533.274 156.545 533.627 156.462 534.084 156.421H534.063Z" fill="white"/>
<path d="M118.891 38.0195C121.01 37.6873 122.796 38.2686 124.25 39.7842C125.537 41.4659 126.161 43.4175 126.14 45.6597C126.098 47.902 125.392 49.9366 124.042 51.7636C123.585 52.3657 123.128 53.2584 122.671 54.4418C122.214 55.6252 121.716 56.5179 121.197 57.12C120.968 57.3484 120.573 57.8467 119.992 58.5941C119.431 59.3623 118.891 60.0267 118.393 60.5872C117.894 61.1478 117.458 61.563 117.084 61.7914C116.544 62.1028 115.776 62.2896 114.758 62.3519C113.74 62.435 112.868 62.3104 112.203 62.0197C110.832 61.4177 110.375 60.2343 110.832 58.4903C110.915 56.601 110.978 55.21 111.061 54.338C111.144 53.466 111.061 52.075 110.832 50.1857C110.604 48.2964 110.417 46.9054 110.272 46.0334C110.126 45.1614 109.877 43.8327 109.524 42.0472C109.192 40.2617 108.963 39.0368 108.901 38.3517C108.755 37.3551 108.818 36.6077 109.129 36.0679C109.441 35.5281 110.043 35.3828 110.957 35.6111C111.705 35.6942 112.286 35.9433 112.66 36.4001C113.034 36.8568 113.346 37.6458 113.574 38.7877C113.802 40.0126 113.989 40.6147 114.135 40.6147C115.194 39.2444 116.793 38.3932 118.912 38.061L118.891 38.0195ZM121.674 45.2445C121.716 44.8708 121.633 44.4971 121.446 44.1649C121.259 43.8327 121.113 43.6043 121.051 43.4798C120.968 43.3759 120.74 43.1683 120.366 42.8569C119.909 42.4832 119.348 42.5247 118.704 42.9607C118.06 43.4175 117.5 44.1441 117.043 45.1199C116.586 46.1787 116.274 47.4452 116.129 48.94C115.983 50.4141 116.025 51.7013 116.233 52.7601C116.461 53.819 116.835 54.2757 117.375 54.1304C118.517 53.9851 119.805 51.4729 121.259 46.6147C121.487 46.0749 121.612 45.6182 121.654 45.2445H121.674ZM141.966 14.0815C143.794 12.9396 145.082 12.3791 145.85 12.3791C146.079 12.3791 146.307 12.6074 146.536 13.0642C146.764 13.5209 146.868 14.0192 146.868 14.5383C146.868 15.3064 146.66 15.8878 146.245 16.303C145.83 16.7182 144.853 17.2788 143.337 17.9639L141.053 19.1058V20.9328C141.053 23.964 141.696 25.9778 142.984 26.9744C143.441 27.3481 143.69 27.6387 143.732 27.8256C143.773 28.0124 143.732 28.3446 143.566 28.8014C142.506 31.4588 141.219 31.9156 139.682 30.1716C138.622 29.0298 137.979 27.6387 137.75 25.9571C137.605 25.1889 137.439 24.4207 137.293 23.6318C137.148 22.8429 136.961 22.1785 136.732 21.6387C136.587 21.4103 136.359 21.3273 136.047 21.348C135.735 21.3895 134.863 21.6387 133.43 22.0954C132.142 22.4691 130.418 22.8844 128.238 23.3411C126.057 23.7979 124.644 24.0263 123.959 24.0263C123.128 24.1093 122.692 23.4034 122.65 21.9293C122.609 20.4553 122.775 19.4795 123.17 19.0227C123.253 18.8774 124.084 18.7528 125.683 18.6905C127.282 18.6075 128.861 18.566 130.418 18.5245C131.976 18.4829 132.745 18.3584 132.745 18.13C133.721 17.6732 134.365 17.258 134.635 16.8843C134.905 16.5106 135.029 15.8878 135.029 15.0573C135.029 14.912 135.071 14.7251 135.133 14.4967C135.133 13.8116 135.175 13.2926 135.237 12.9604C135.32 12.6282 135.382 12.1715 135.465 11.5901C135.549 11.0296 135.652 10.5936 135.798 10.3444C135.943 10.0745 136.13 9.82539 136.359 9.59702C136.587 9.36864 136.899 9.28559 137.272 9.36864C137.646 9.45168 138.02 9.59702 138.415 9.82539C138.789 10.1368 138.976 10.7804 138.976 11.7562C139.121 14.7251 140.118 15.514 141.946 14.1438L141.966 14.0815ZM162.3 74.8503C161.739 74.4351 161.095 73.9161 160.41 73.314C159.725 72.7119 159.226 72.3174 158.935 72.1721C157.938 72.4835 156.609 72.9403 154.948 73.5424C153.286 74.1444 151.479 74.8088 149.527 75.5355C147.595 76.2621 146.287 76.7396 145.601 76.968C144.687 77.4248 143.773 77.487 142.86 77.1341C141.946 76.7811 141.385 76.2829 141.156 75.5978C140.928 75.058 140.346 74.622 139.391 74.2898C138.436 73.9576 137.958 73.3555 137.958 72.5251C137.812 71.9853 137.688 71.5493 137.626 71.2171C137.542 70.8849 137.501 70.4489 137.459 69.9714C137.418 69.4731 137.376 69.1202 137.356 68.8918C137.314 68.6634 137.356 68.1859 137.418 67.4593C137.501 66.7326 137.542 66.1928 137.584 65.7983C137.626 65.4246 137.688 64.6149 137.812 63.4107C137.916 62.2066 138.02 61.21 138.103 60.4419C138.103 59.7567 138.103 58.8225 138.166 57.6598C138.207 56.4764 138.228 55.7082 138.228 55.3345C138.228 54.9608 138.29 54.255 138.394 53.2376C138.498 52.2203 138.685 51.1407 138.913 49.9989C139.142 48.857 139.412 47.2999 139.703 45.3275C140.616 40.7808 141.572 38.1856 142.548 37.5835C143.15 37.2098 143.815 37.2721 144.542 37.7496C145.269 38.2479 145.705 38.9538 145.85 39.8465C145.933 40.5316 146.037 40.9053 146.183 40.9884C146.328 41.0714 146.723 40.9469 147.325 40.6562C147.927 40.3448 148.53 40.1579 149.153 40.0956C150.129 39.8672 151.437 39.5351 153.037 39.0783C154.636 38.6216 155.82 38.3102 156.63 38.1648C157.419 38.0195 158.375 37.8742 159.475 37.7703C160.576 37.6665 161.573 37.6873 162.487 37.8742C163.401 38.061 164.315 38.4347 165.229 38.9537C167.056 39.7842 168.282 40.9261 168.926 42.3794C169.57 43.8327 170.006 46.677 170.234 50.9124C170.38 53.4868 170.463 55.1269 170.463 55.8121C170.463 56.4972 170.317 57.6391 170.006 59.2377C169.694 60.8363 169.466 62.1235 169.32 63.1201C169.237 64.345 169.216 65.134 169.258 65.5077C169.3 65.8814 169.466 66.4627 169.777 67.2101C170.38 67.8122 170.629 68.435 170.525 69.0994C170.421 69.743 170.213 70.2621 169.964 70.6358C169.694 71.0095 169.32 71.4454 168.822 71.9437C168.323 72.442 168.012 72.8365 167.846 73.1479C167.472 73.75 166.849 74.269 166.018 74.6842C165.187 75.0995 164.419 75.3071 163.733 75.3071C163.359 75.4524 162.882 75.3071 162.3 74.9126V74.8503ZM150.399 58.6149C150.171 58.6979 149.589 58.8432 148.634 59.0716C147.678 59.3 146.972 59.4868 146.473 59.6322C145.975 59.7775 145.414 60.0059 144.77 60.3173C144.126 60.6287 143.649 60.9194 143.337 61.2308C143.254 61.6045 143.067 63.39 142.776 66.5873C142.631 69.3901 142.631 71.0095 142.776 71.4247C142.922 71.8399 143.649 71.9022 144.937 71.5908C146.079 71.2794 146.868 70.8019 147.325 70.1167C149.984 64.1167 151.001 60.2758 150.399 58.6149ZM145.497 46.7601C144.895 47.6736 144.417 49.1269 144.064 51.1407C143.732 53.1546 143.773 54.3795 144.23 54.8363C144.604 55.293 145.705 55.3138 147.533 54.8986C149.361 54.4833 150.461 53.9643 150.835 53.3622C150.981 53.0508 151.084 51.5767 151.126 48.9192C151.167 46.2618 151.126 44.8085 150.96 44.6009C149.817 43.6874 147.99 44.414 145.497 46.7601ZM158.769 48.9192C160.244 47.632 161.365 46.9884 162.134 46.9884C162.591 46.9884 162.986 47.1753 163.339 47.549C163.671 47.9227 163.858 48.3379 163.858 48.7947C163.858 49.3345 163.089 50.331 161.573 51.8051C160.057 53.2792 158.686 54.255 157.461 54.7117C156.464 55.0854 155.737 55.8743 155.238 57.037C154.74 58.2204 154.345 59.7152 154.034 61.5422C153.722 63.3692 153.431 64.698 153.12 65.5284C152.808 66.2966 152.601 66.8572 152.497 67.2309C152.393 67.6046 152.31 67.9575 152.268 68.2482C152.227 68.5596 152.268 68.7257 152.331 68.7672C152.414 68.8087 152.601 68.8295 152.891 68.8295C153.182 68.8295 153.514 68.7672 153.868 68.6634C154.221 68.5596 154.719 68.435 155.405 68.3312C156.09 68.2274 156.734 68.0821 157.336 67.9368C160.369 67.1686 162.279 66.7326 163.027 66.5665C163.712 66.4835 164.169 66.2966 164.398 66.0059C164.626 65.6945 164.772 65.0924 164.855 64.1789C164.938 63.5769 165.083 62.6633 165.312 61.4384C165.54 60.2342 165.706 59.2792 165.831 58.5941C165.956 57.909 166.059 57.0162 166.163 55.9159C166.267 54.8155 166.309 53.7359 166.267 52.6771C166.226 51.6182 166.163 50.5179 166.101 49.376C165.789 46.7185 165.27 44.9953 164.502 44.1856C163.733 43.3967 162.259 42.6493 160.057 41.9642C159.372 41.8811 158.562 41.9641 157.606 42.1302C156.651 42.3171 156.069 42.5247 155.841 42.7531C155.612 42.8984 155.467 44.3102 155.384 46.9677C155.384 48.7116 155.384 49.812 155.446 50.2688C155.488 50.7255 155.612 50.9539 155.841 50.9539C156.298 50.8708 157.274 50.1857 158.748 48.8985L158.769 48.9192ZM173.869 10.8842L176.611 10.6559C177.213 10.6559 178.251 10.5521 179.685 10.3237C181.118 10.0953 182.177 9.99149 182.821 9.99149C183.465 9.99149 184.275 10.1368 185.272 10.4482C186.102 11.2164 186.061 12.3376 185.168 13.8739C184.108 15.7009 182.821 16.1576 181.284 15.2441C181.055 14.8704 179.747 14.7459 177.358 14.912C174.97 15.0573 173.474 15.1819 172.851 15.2441C172.166 15.5556 171.563 16.9258 171.023 19.3549C170.94 20.3515 170.753 21.265 170.463 22.137C170.151 23.0089 169.902 23.6525 169.715 24.0678C169.528 24.483 169.154 25.1474 168.635 26.0609C168.095 26.9744 167.763 27.5765 167.617 27.8879C167.472 28.1163 167.015 28.4484 166.246 28.9052C165.478 29.3619 164.959 29.445 164.647 29.1336C164.336 28.8221 164.232 28.4277 164.315 27.9294C164.398 27.4311 164.772 26.4761 165.457 25.0228C166.828 22.0539 167.513 19.2096 167.513 16.4898C167.513 16.1161 167.451 15.8878 167.347 15.8047C167.243 15.7217 166.786 15.7009 166.039 15.7009C164.606 15.7009 162.051 15.514 158.395 15.1403C154.74 14.7666 152.933 14.4137 152.933 14.123C152.704 13.8116 152.663 13.3964 152.829 12.8773C152.974 12.3375 153.286 11.9223 153.743 11.6317C154.428 11.1749 155.405 10.905 156.713 10.8427C158.001 10.7597 159.579 10.8427 161.449 11.0088C163.318 11.1957 164.647 11.258 165.499 11.1749C167.326 11.258 168.427 11.1749 168.801 10.8842C169.175 10.6143 169.487 9.80463 169.715 8.43438C170.027 6.91879 170.317 5.90149 170.629 5.36169C170.94 4.82189 171.543 4.34436 172.457 3.88761C173.827 2.89106 174.741 2.76652 175.198 3.49317C175.655 4.21982 175.51 5.38246 174.741 6.96033C174.201 7.95688 173.952 8.84961 173.952 9.70083V10.9465L173.869 10.8842Z" fill="white"/>
<path d="M209.821 31.1474C210.237 31.0643 210.631 31.0643 211.047 31.1474C211.462 31.2304 211.774 31.4795 212.023 31.874C212.667 32.3515 213.124 33.0367 213.352 33.8879C213.581 34.7391 213.83 36.4208 214.079 38.9329C214.494 43.1475 214.931 45.2652 215.408 45.2652C215.741 45.2652 216.343 43.7703 217.236 40.7599C218.856 37.8326 220.725 36.4623 222.844 36.6284C223.654 36.4623 224.9 37.1267 226.562 38.6422C228.223 40.1371 229.137 41.2997 229.303 42.1094C229.469 42.5869 229.76 43.2928 230.217 44.1856C230.653 45.0783 231.006 45.9088 231.256 46.6769C231.505 47.4451 231.692 48.2756 231.858 49.1683C232.19 50.7877 232.502 51.6597 232.834 51.7843C233.166 51.9088 233.769 51.3898 234.662 50.2687C236.282 47.9226 237.424 47.2375 238.068 48.1925C238.484 48.6701 238.484 49.5005 238.068 50.6216C237.902 50.8708 237.3 51.8673 236.24 53.6113C235.181 55.3552 234.537 56.3518 234.288 56.6009C233.146 57.9712 232.585 60.0058 232.585 62.684C232.585 64.0543 232.356 65.8813 231.92 68.1651C231.484 70.4281 231.048 72.0267 230.633 72.9194C230.155 73.8122 229.449 74.3935 228.556 74.6842C227.662 74.9748 226.894 74.8295 226.25 74.2482C225.835 73.5215 225.689 72.961 225.772 72.608C225.855 72.2343 226.126 71.736 226.562 71.0924C226.998 70.4488 227.268 69.9505 227.351 69.6391C227.517 68.9955 227.642 68.1858 227.725 67.21C227.808 66.2342 227.766 65.7152 227.6 65.6322C227.517 65.5491 226.458 66.4834 224.443 68.435C221.598 71.1963 219.77 72.5665 218.96 72.5665C218.877 72.5665 218.524 72.2966 217.921 71.7776C217.319 71.2585 216.924 71.0301 216.758 71.1132C216.509 71.1962 216.343 71.8814 216.281 73.1893C216.364 75.224 215.471 76.5112 213.601 77.0925C212.874 77.0925 212.397 76.698 212.21 75.8676C212.002 75.0579 211.898 72.7949 211.898 69.0578C211.815 61.6875 211.711 56.85 211.587 54.587C211.462 52.324 211.088 49.1891 210.423 45.2236C209.946 42.0679 209.53 39.9502 209.198 38.8914C208.866 37.8325 208.43 37.3135 207.869 37.3135C207.453 37.3135 206.581 37.9571 205.252 39.2651C203.923 40.5731 202.842 41.7772 202.032 42.9191C200.579 45.2652 199.582 46.76 199.042 47.3621C198.522 47.9641 197.962 48.2756 197.401 48.2756C196.342 48.2756 195.822 47.5904 195.822 46.1994C195.822 45.6389 196.238 44.58 197.048 43.0437C197.858 41.5073 198.709 40.2409 199.602 39.2651C200.08 38.8706 201.036 37.1059 202.469 33.9709C203.881 30.8567 205.273 27.8048 206.602 24.8566C207.931 21.8877 208.845 20.4137 209.343 20.4137C209.51 20.3306 209.78 20.1022 210.195 19.7493C210.61 19.3756 210.901 19.1265 211.109 18.9604C211.317 18.7943 211.67 18.6489 212.21 18.5244C212.729 18.3998 213.207 18.5451 213.601 18.9604C214.017 19.2095 214.121 19.8946 213.975 21.0365C213.975 21.8462 213.497 23.0504 212.584 24.6283C211.649 26.2061 210.735 27.6594 209.842 29.0089C208.949 30.3377 208.554 31.1058 208.617 31.2512C209.032 31.3342 209.427 31.3342 209.842 31.2512L209.821 31.1474ZM228.016 56.0196C228.057 55.0853 227.787 54.5455 227.226 54.3794C226.499 54.5455 225.357 55.2307 223.82 56.4556C222.283 57.6805 221.432 58.3241 221.265 58.4072C217.859 61.2515 216.198 63.473 216.281 65.0924C216.281 67.4384 216.53 68.6218 217.008 68.6218C217.485 68.6218 219.313 67.127 222.491 64.1166C225.648 61.1269 227.351 59.2584 227.6 58.511C227.849 57.7636 227.974 56.9539 228.036 56.0196H228.016ZM220.538 43.542C220.123 44.0195 219.811 44.4762 219.562 44.8707C219.313 45.2859 219.085 45.7219 218.835 46.1994C218.586 46.6769 218.399 47.0714 218.295 47.3621C218.171 47.6527 218.025 48.068 217.859 48.6493C217.693 49.2099 217.568 49.6251 217.485 49.8742C217.402 50.1234 217.298 50.5801 217.174 51.2652C217.049 51.9504 216.966 52.4071 216.924 52.594C216.883 52.8016 216.8 53.3206 216.675 54.1718C216.551 55.023 216.447 55.5629 216.364 55.812C217.008 55.895 218.212 55.2514 219.957 53.8604C221.702 52.4902 222.948 51.6805 223.675 51.4313C225.461 50.4555 226.52 49.7912 226.832 49.4175C227.164 49.0438 227.164 48.4209 226.832 47.5282C226.105 45.1821 225.336 43.6043 224.526 42.7738C222.74 41.6319 221.411 41.881 220.518 43.5004L220.538 43.542ZM264.799 43.1682C265.775 43.8949 266.419 44.2686 266.751 44.2686C266.834 44.1025 267.79 44.4555 269.618 45.3067C271.445 46.1579 273.439 47.1129 275.579 48.1718C277.718 49.2306 279.047 49.8327 279.525 49.9988C280.584 50.2479 281.207 50.8085 281.415 51.7012C281.623 52.5939 281.311 53.4867 280.501 54.3794C279.213 55.9158 277.697 55.8743 275.994 54.2549C275.018 53.2791 273.003 52.0957 269.971 50.6631C266.938 49.2513 265.131 48.6493 264.55 48.8984C264.467 48.8984 264.404 48.9399 264.363 49.023C264.321 49.106 264.28 49.2514 264.238 49.459C264.197 49.6666 264.134 49.895 264.051 50.1233C263.968 50.3725 263.885 50.7462 263.802 51.286C263.719 51.805 263.615 52.3448 263.49 52.8639C263.366 53.3829 263.179 54.1303 262.95 55.0438C262.701 55.9781 262.514 56.9331 262.348 57.9089C260.313 66.1097 258.173 70.8848 255.889 72.2551C255.079 72.8987 254.227 73.1478 253.334 72.9817C251.153 72.8156 249.242 71.2793 247.622 68.3519C246.231 66.3173 245.878 64.864 246.522 63.9712C246.999 63.4107 247.705 63.7636 248.599 65.0716C249.824 67.3346 251.112 68.4142 252.503 68.2896C253.874 68.1651 254.933 66.9401 255.66 64.5733C257.28 60.5249 258.506 55.812 259.316 50.4555C259.648 48.67 259.69 47.6112 259.44 47.2998C259.523 47.1337 258.713 46.8015 257.01 46.2617C255.307 45.7427 253.126 45.0783 250.509 44.3101C247.872 43.5419 246.355 43.106 245.94 43.0229C245.525 42.8568 245.234 42.4624 245.026 41.798C244.818 41.1544 244.839 40.5731 245.088 40.0955C245.898 39.2858 247.02 38.9121 248.432 38.9952C249.845 39.0782 251.112 39.3274 252.212 39.7219C253.313 40.1371 254.58 40.6146 256.055 41.1751C257.509 41.7357 258.651 42.0679 259.461 42.1509C259.939 42.1509 260.25 42.1094 260.375 42.0264C260.5 41.9433 260.603 41.6527 260.687 41.1751C261.102 39.3897 261.393 36.2962 261.6 31.874C261.808 27.4518 261.746 24.5245 261.414 23.0504C261.164 22.4898 260.79 22.2407 260.25 22.3237C259.731 22.4068 258.651 22.8843 257.031 23.777C256.782 23.8601 256.221 24.1092 255.328 24.5037C254.435 24.9189 253.895 25.1681 253.687 25.2926C253.479 25.4172 253.022 25.6248 252.296 25.8947C251.569 26.1854 251.091 26.3514 250.904 26.3722C250.696 26.4137 250.302 26.4968 249.679 26.6214C249.055 26.7459 248.64 26.7667 248.391 26.6836C248.142 26.6006 247.788 26.5383 247.29 26.4968C246.812 26.4552 246.418 26.3099 246.127 26.0608C245.836 25.8117 245.504 25.5418 245.088 25.2096C244.673 24.8774 244.278 24.4829 243.863 23.9847C242.887 22.9258 242.284 21.0365 242.035 18.3375C241.786 15.6178 242.077 13.5831 242.887 12.1921C243.365 11.5485 244.071 11.2163 244.964 11.2163C245.857 11.2163 246.625 11.6108 247.269 12.379C247.913 13.1472 247.913 13.9361 247.269 14.7458C246.937 15.3894 246.833 16.2821 246.895 17.424C246.978 18.5659 247.269 19.6455 247.747 20.7043C248.225 21.7632 248.682 22.1576 249.076 21.9293C250.53 21.8462 252.669 21.0365 255.473 19.5002C258.277 17.9638 260.479 17.1956 262.099 17.1956C263.158 17.2787 263.885 17.5901 264.28 18.1091C264.695 18.6282 265.09 19.8323 265.505 21.7009C265.837 22.6767 266.024 23.9431 266.107 25.5418C266.191 27.1196 266.191 28.5106 266.107 29.6733C266.024 30.8567 265.879 32.4969 265.671 34.5938C265.464 36.7114 265.36 38.0402 265.36 38.6007L264.757 43.106L264.799 43.1682Z" fill="white"/>
</svg>
