<svg width="536" height="242" viewBox="0 0 536 242" fill="none" xmlns="http://www.w3.org/2000/svg">
<path d="M22.6944 74.7635C29.223 71.0708 33.6345 68.8492 35.9707 68.1155C36.6574 67.817 37.9301 67.2279 39.8072 66.3263C41.6844 65.4248 43.374 64.7214 44.9351 64.1913C46.4776 63.683 48.4279 63.2039 50.7675 62.7759C52.4821 62.3969 54.327 61.8649 56.2787 61.141C58.2521 60.4358 60.7977 59.7877 63.9186 59.2373C64.5372 59.1073 65.0938 58.9617 65.548 58.8038L66.4766 58.4863C66.6347 58.4332 66.8967 58.4126 67.303 58.4216C67.7093 58.4305 68.2644 58.5298 68.9887 58.7177C69.6495 59.135 70.1629 59.4822 70.4872 59.7423C70.8114 60.0024 71.1529 60.4854 71.4929 61.2133C71.833 61.9411 71.9793 62.7861 71.9923 63.7435C72.1206 65.4056 71.8735 66.9339 71.2728 68.3472C70.7402 69.5921 69.9115 70.9417 68.7883 72.4163C67.6651 73.8909 66.8206 74.7728 66.1944 75.0666C65.5946 75.4398 65.0196 75.8723 64.5129 76.4014C64.0743 76.762 63.1457 77.0795 61.7907 77.3896C60.4357 77.6997 59.6248 77.702 59.3579 77.3967C58.9 76.7188 59.4809 75.8373 61.1207 74.7504C62.7404 73.6651 64.2248 72.1417 65.5725 70.1601C66.9202 68.1784 67.5518 66.6404 67.4658 65.5256C67.4048 64.7351 67.1424 64.2254 66.6973 63.9748C66.2521 63.7242 65.3574 63.6924 64.0132 63.8792C60.3294 64.4941 56.0644 65.4604 51.2198 66.7984C46.3751 68.1364 42.7259 69.4623 40.2908 70.7543C39.1376 71.3136 37.5502 72.0293 35.5257 72.8609C33.4811 73.694 31.7186 74.505 30.1996 75.3174C28.679 76.1094 26.7384 77.2403 24.398 78.7083C22.8124 79.7094 21.185 80.6934 19.5156 81.6602C17.8463 82.6271 16.6218 83.3144 15.8235 83.744C15.0253 84.1736 14.1016 84.8169 13.0539 85.6943C12.0063 86.5716 10.9139 87.6564 9.73474 88.9315C9.09026 89.7773 8.51684 90.2301 7.99277 90.2711C7.46871 90.3122 6.91493 89.9681 6.30815 89.2C6.05376 89.0568 5.86593 88.7248 5.76167 88.162C5.63882 87.6211 5.60424 86.9101 5.65793 86.029C5.71163 85.148 5.7747 84.3886 5.84716 83.7507C5.91962 83.1129 6.03691 82.2677 6.23934 81.2118C6.44178 80.156 6.55455 79.515 6.61641 79.2655C6.87028 78.6134 6.99035 77.2785 6.95959 75.303C6.92727 73.3071 6.97262 71.5295 7.13596 69.9669C7.2993 68.4043 7.76081 67.5525 8.54065 67.4098C8.93753 67.2972 9.39504 67.4448 9.93179 67.831C10.4701 68.2375 10.9341 68.7313 11.305 69.3344C11.8609 70.4939 11.85 72.7175 11.2334 76.0285C10.6976 79.3331 10.5902 81.0952 10.9314 81.3132C12.2195 80.6617 16.1271 78.4795 22.6758 74.7853L22.6944 74.7635ZM42.4373 90.4272C43.0262 89.9121 43.5902 89.3377 44.0922 88.7478C45.1148 87.5461 46.0105 86.803 46.7779 86.4982C47.5452 86.1934 48.2291 86.3845 48.8435 86.9889C49.4394 87.6152 49.9407 88.3304 50.3071 89.1377C50.6736 89.9451 51.0402 91.0175 51.3853 92.3363C51.6389 93.5196 51.5652 94.6673 51.1271 95.8231C50.6891 96.979 50.1174 97.7171 49.3935 98.0593C48.6696 98.4015 47.9299 98.2759 47.1759 97.7029C46.6826 97.3541 46.4839 96.8803 46.6029 96.3204C46.8317 95.344 46.9382 94.622 46.9023 94.1558C46.8663 93.6896 46.7622 93.3919 46.5916 93.2829C46.421 93.1739 46.1605 93.2147 45.8303 93.4037C45.48 93.5943 45.1918 93.8004 44.9236 94.0049C44.6571 94.2297 44.3162 94.5419 43.8637 94.9852C43.6406 95.2474 43.4717 95.4237 43.3756 95.4924C43.2609 95.583 43.1276 95.6954 42.9758 95.8297C42.8239 95.9639 42.7108 96.0747 42.6364 96.1621C42.0241 96.3732 41.6368 96.8726 41.4962 97.6789C41.3556 98.4852 41.3097 99.4676 41.3586 100.626C41.4074 101.785 41.4095 102.6 41.3648 103.073C41.2958 104.281 41.3878 104.947 41.6421 105.09C41.8903 105.152 42.4887 105.024 43.4529 104.642C44.4187 104.281 45.3177 103.844 46.1469 103.289C47.2877 102.568 48.3031 102.325 49.2352 102.578C50.1673 102.832 50.5584 103.433 50.39 104.405C50.1598 105.626 49.3169 106.528 47.8613 107.111C46.4863 107.688 45.0293 108.516 43.5275 109.551C42.0256 110.586 41.1718 111.346 40.9674 111.852C40.6441 112.917 40.5007 114.213 40.4986 115.763C40.4965 117.313 40.7144 118.56 41.0903 119.489L43.3276 119.314C46.2983 118.918 49.4409 118.386 52.7726 117.677C56.0858 116.989 59.6766 116.483 63.5264 116.181C68.0151 115.748 71.9237 115.156 75.274 114.425C78.6243 113.693 82.4491 113.068 86.7702 112.566C90.8432 112.002 93.1643 111.861 93.7537 112.141C94.323 112.423 94.649 112.968 94.7131 113.799C94.7772 114.63 94.5854 115.298 94.1593 115.821C93.6573 116.41 93.0187 116.807 92.2823 116.987C91.5459 117.167 90.1536 117.256 88.0851 117.255C84.0677 117.488 80.1777 118.058 76.4538 118.941C72.7299 119.824 68.4462 120.547 63.6614 121.085C44.8838 123.189 30.7956 125.883 21.3966 129.168C19.248 129.969 17.7114 130.028 16.8272 129.343C15.9429 128.658 15.987 127.39 16.9611 125.56C17.4569 124.889 18.1667 124.364 19.0937 124.027C20.0207 123.689 22.1943 123.213 25.6362 122.617C30.9556 121.649 34.1462 120.951 35.2112 120.561C35.4776 120.072 35.5657 119.636 35.4771 119.276C35.3683 118.918 35.1493 118.446 34.8388 117.838C34.5082 117.231 34.3264 116.716 34.2967 116.33C34.1613 115.627 34.0277 115.21 33.8974 115.097C33.7671 114.985 33.3561 114.916 32.6242 114.891C30.7914 114.79 30.0852 113.785 30.4824 111.837C30.589 111.115 30.8119 110.588 31.1342 110.298C31.4751 109.985 32.1448 109.729 33.1603 109.486C34.7075 109.039 35.7521 108.386 36.2725 107.509C36.793 106.632 36.9502 105.254 36.7226 103.355C36.6069 101.855 36.3891 100.873 36.071 100.429C35.7528 99.9845 35.1697 99.7855 34.303 99.8534C32.9525 99.9592 32.0807 99.4362 31.6861 98.264C31.1803 97.753 31.2324 96.8517 31.903 95.5553C32.5549 94.2807 33.382 92.9108 34.3874 91.4862C35.3928 90.0615 35.9535 89.1816 36.0898 88.8446C36.2322 88.5887 36.4491 88.2455 36.717 87.7759C36.9865 87.3265 37.2592 86.9177 37.5163 86.5713C37.7735 86.2249 37.9315 85.9066 38.0274 85.5729C38.1233 85.2391 38.0689 85.0598 37.8611 84.9945C37.6533 84.9292 37.2533 85.0014 36.6208 85.2141C36.0084 85.4252 35.083 85.7832 33.8428 86.2678C31.9222 87.132 30.5099 87.4873 29.5841 87.3152C28.6583 87.143 28.2825 86.214 28.4767 84.5267C28.6826 84.0415 29.4467 83.4311 30.7719 82.7359C32.0972 82.0407 33.3978 81.5514 34.635 81.2913C35.1792 81.2487 35.9714 81.0031 37.0131 80.5748C38.0548 80.1465 38.912 79.6919 39.6467 79.2265C40.3627 78.783 41.3485 78.1552 42.5869 77.3852C43.8253 76.6152 44.5987 76.1264 44.9087 75.939C46.6124 75.4181 47.6809 75.5994 48.1575 76.5205C48.4604 77.2921 48.402 78.1123 47.9824 78.9813C47.5628 79.8502 46.576 81.253 44.9833 83.213C43.6137 84.9109 42.1838 86.8786 40.692 89.0958C39.2018 91.3333 38.4677 92.5939 38.4927 92.9182C38.5474 93.6276 39.823 92.814 42.3396 90.4757L42.4373 90.4272ZM37.3803 23.3064C40.9091 22.7852 42.4606 21.8684 42.0349 20.5559L41.9426 19.36L45.8234 18.9336C48.4236 18.7299 50.1073 18.4756 50.8747 18.1708C52.1565 17.4382 53.1054 17.3842 53.7214 18.0089C54.3173 18.6351 54.5442 19.4738 54.3821 20.5265C54.2199 21.5792 53.8545 22.3623 53.2656 22.8774C52.9494 22.9838 51.9913 23.1812 50.351 23.4729C48.5494 23.7772 45.9047 24.7185 42.4371 26.2952C38.9494 27.8736 37.0724 29.0402 36.8248 29.7733C36.1482 31.2537 35.4225 33.676 34.6448 36.9997C34.5257 37.5596 35.1134 37.5543 36.4279 36.9823C39.2632 35.8833 40.6615 35.3455 40.5808 35.3519C41.3482 35.047 42.0211 35.0963 42.6199 35.498C43.1986 35.9012 43.4439 36.453 43.3374 37.1751C43.169 38.1467 42.7091 39.0188 41.9374 39.7929C41.1657 40.5671 40.3442 40.9577 39.4712 40.9446C38.8401 40.9124 37.4093 41.5547 35.2161 42.8277C33.1051 44.1147 30.3506 45.4724 26.976 46.9399C23.6013 48.4074 21.3287 49.1769 20.1395 49.27C19.1921 49.3443 18.6832 48.7928 18.5909 47.5969C18.4376 45.6105 20.9965 43.8195 26.2472 42.2254C26.8595 42.0142 27.3416 41.691 27.6498 41.2182C27.9798 40.7641 28.892 39.1837 30.43 36.5142C30.907 35.6 31.2971 34.611 31.56 33.5504C31.843 32.4883 31.9155 31.8505 31.8363 31.612C31.6562 31.3814 31.0345 31.4709 29.9509 31.882C28.8674 32.2932 27.7435 32.7075 26.5421 33.1687C25.3407 33.6299 24.6244 33.8084 24.398 33.7649C23.4632 34.0013 20.5209 35.0271 15.6114 36.8392C13.4628 37.6397 12.1683 37.945 11.7666 37.7318C11.1167 37.4564 10.6573 36.7583 10.4084 35.6359C10.158 34.4932 10.2939 33.6261 10.7959 33.0362C11.3104 32.6084 12.36 32.2815 13.9259 32.0772C15.4918 31.873 16.6251 31.5803 17.3071 31.2209C26.6614 28.4081 31.7492 26.5413 32.5487 25.6018C32.7718 25.3396 32.8677 25.0058 32.8938 24.5551C32.9012 24.1263 32.7765 23.035 32.4606 21.306C31.7588 17.4662 31.396 15.1292 31.335 14.3387C31.274 13.5482 31.4705 12.9414 31.9028 12.4997C32.7704 11.3917 33.7487 11.1927 34.8175 11.9043C35.4846 12.4026 36.1763 15.0605 36.8509 19.8609L37.3586 23.2877L37.3803 23.3064ZM27.8842 48.7244C28.9869 49.0866 29.6217 49.9545 29.8133 51.3873C29.9299 51.8472 30.0387 52.2057 30.1381 52.4427C30.2375 52.6796 30.3662 52.7714 30.5243 52.7183C30.6825 52.6651 30.8173 52.573 30.9692 52.4387C31.121 52.3045 31.369 52.1015 31.6945 51.8517C32.0199 51.6019 32.3469 51.3723 32.6569 51.1849C32.953 51.0802 33.5141 50.7303 34.2967 50.098C35.0809 49.486 35.7892 48.9411 36.4246 48.5039C37.0601 48.0667 37.8536 47.5763 38.8069 47.053C39.7617 46.5499 40.5322 46.2856 41.1198 46.2804C41.7075 46.2751 42.3294 46.4507 43.0041 46.7853C43.5843 47.2088 43.8112 48.0475 43.6648 49.3029C43.5183 50.5583 43.0663 51.7968 42.2919 53.0606L41.6693 54.1901C42.752 54.819 43.4222 55.3578 43.7016 55.8254C43.862 56.8528 43.7431 57.6777 43.3652 58.2987C42.9873 58.9197 42.1753 59.697 40.9261 60.5902C39.6971 61.4817 38.8927 62.0953 38.5146 62.4512C34.6496 65.7109 31.9511 67.2681 30.4408 67.1418C29.9709 67.097 29.5521 66.9259 29.2062 66.6471C28.8587 66.3481 28.5266 65.9867 28.1666 65.5255C27.8081 65.0846 27.5179 64.7402 27.2573 64.516C26.6646 63.9303 26.312 63.0403 26.2197 61.8444C26.0823 57.9603 25.7768 55.578 25.3064 54.738C24.4665 53.0501 24.4654 51.4597 25.3033 49.9666C25.9228 48.7965 26.7846 48.4027 27.8858 48.7447L27.8842 48.7244ZM34.6654 54.3514C34.14 54.6373 33.4256 55.3662 32.524 56.5584C31.6223 57.7506 31.1593 58.5821 31.1146 59.0546C31.0081 59.7767 31.1169 60.1352 31.4394 60.1099C31.6813 60.091 32.5025 59.1702 33.903 57.3476C35.3035 55.5249 35.9944 54.492 35.9756 54.2488C35.9506 53.9245 35.5273 53.9576 34.6856 54.3498L34.6654 54.3514Z" fill="white"/>
<path d="M110.379 71.4807C110.007 71.9176 109.418 72.4326 108.594 73.0476C106.277 74.8193 104.535 75.3633 103.365 74.6595C102.937 74.3667 102.665 73.7354 102.507 72.7485C102.35 71.7617 102.444 70.8775 102.769 70.0976C103.114 69.3161 103.681 69.0475 104.492 69.3103C105.291 69.411 106.012 69.2935 106.655 68.9577C107.298 68.622 108.01 68.1178 108.788 67.4248C109.565 66.7319 110.139 66.2792 110.529 66.0856C110.974 65.8061 111.848 65.0445 113.15 63.7804C114.431 62.518 115.268 61.8 115.658 61.6064C117.907 60.0032 119.322 59.6886 119.866 60.6861C120.67 61.9079 120.497 62.8186 119.372 63.4775C118.84 63.6822 117.646 64.7544 115.808 66.6925C113.971 68.6306 112.759 69.7449 112.152 70.0167C111.321 70.5506 110.73 71.0454 110.357 71.462L110.379 71.4807ZM122.625 77.742C123.066 77.422 123.725 77.554 124.56 78.1209C125.079 78.7941 125.142 80.4 124.69 82.9435C124.258 85.4854 123.744 87.5035 123.129 88.9791C122.664 90.0553 122.13 91.2798 121.57 92.6898C121.008 94.0796 120.687 94.9 120.62 95.0887C120.555 95.2977 120.177 95.9186 119.468 96.9732C118.759 98.0278 118.099 98.9359 117.488 99.6973C116.878 100.459 115.737 101.955 114.081 104.144C113.065 105.426 112.29 106.16 111.758 106.365C110.91 106.676 110.122 106.452 109.396 105.713C108.67 104.975 108.337 104.083 108.419 103.037C108.457 102.483 108.57 102.107 108.759 101.929C108.948 101.752 109.379 101.555 110.073 101.358C110.673 100.985 111.344 100.218 112.086 99.0593C112.826 97.8799 113.45 97.0358 113.978 96.5255C115.125 95.0901 116.64 92.4022 118.526 88.462C120.393 84.5437 121.544 81.5989 121.941 79.6511C121.948 78.6921 122.183 78.062 122.625 77.742ZM108.35 32.9159C108.685 33.0529 109.53 33.4966 110.888 34.2673C112.245 35.038 113.131 35.4785 113.547 35.6092C116.146 36.4459 117.714 37.0574 118.271 37.4421C118.81 37.8486 119.125 38.5173 119.199 39.4699C119.353 40.4163 119.032 40.9919 118.259 41.2155C117.485 41.4391 116.398 41.2794 115.019 40.7551C113.045 39.8695 110.501 39.2322 107.389 38.8434C106.114 38.6168 105.321 38.3321 105.068 37.944C104.796 37.5778 104.957 37.0351 105.534 36.3579C106.582 34.4407 107.506 33.2877 108.35 32.9159ZM134.979 54.733C135.624 53.8874 136.23 53.8604 136.818 54.6505C137.387 55.4421 137.991 56.6999 138.588 58.3865C138.81 59.1644 138.959 61.09 139.033 64.1429C139.107 67.1959 139.045 69.0155 138.867 69.6004C138.605 70.4161 138.015 70.9109 137.072 71.0457C136.131 71.2009 135.522 70.9223 135.225 70.2318C134.522 66.3919 134.447 61.2184 134.978 54.7128L134.979 54.733ZM142.686 43.7309C143.281 43.297 143.769 42.7898 144.113 42.2532C144.477 41.7149 145.022 41.1625 145.772 40.6349C146.522 40.1072 147.129 39.8152 147.612 39.7773C148.237 39.7285 148.754 40.1163 149.12 40.9237C149.507 41.7295 149.526 42.5029 149.178 43.2438C148.824 43.9037 148.519 44.4169 148.22 44.7462C147.922 45.0957 147.524 45.4531 147.008 45.8605C146.492 46.2679 146.148 46.5394 145.999 46.7142C145.057 47.9093 143.72 48.7072 141.968 49.1296C140.216 49.5521 138.746 49.1572 137.54 47.9872C136.86 47.3266 136.522 46.619 136.544 45.8628C136.567 45.1065 136.919 43.6312 137.62 41.4149C138.407 39.2734 138.706 38.149 138.552 37.9978C138.385 37.9294 137.729 38.103 136.565 38.5202C135.047 39.3526 133.889 39.3208 133.11 38.4233C132.331 37.5258 132.328 36.4452 133.104 35.2019C135.888 30.2942 137.355 26.713 137.505 24.4582C137.557 23.0268 137.694 22.18 137.897 21.9194C138.1 21.6588 138.768 21.3823 139.858 21.0524C140.267 21.102 140.5 21.2265 140.596 21.4229C140.692 21.6193 140.78 22.2242 140.86 23.2579C141.082 24.0358 141.091 24.9324 140.885 25.9476C140.68 26.9629 140.327 28.1731 139.81 29.6205C139.292 31.0477 138.958 31.971 138.828 32.389C138.996 32.4575 139.53 32.2933 140.453 31.895C143.141 30.7264 144.791 31.0868 145.4 32.9356C145.722 33.9504 145.211 35.2138 143.912 36.7632C143.41 37.353 142.733 38.5682 141.88 40.3886C141.027 42.2089 140.63 43.3615 140.666 43.8277C140.721 44.5371 141.389 44.5257 142.691 43.7917L142.686 43.7309ZM141.301 60.4378C141.046 58.7042 140.861 57.1077 140.748 55.6483C140.636 54.1889 140.784 53.484 141.172 53.5149C141.915 52.9062 142.472 52.7607 142.861 53.0769C143.251 53.3931 143.739 54.4561 144.363 56.2425C145.442 61.0114 145.905 63.8504 145.73 64.7409C145.431 66.1101 144.404 66.4758 142.61 65.8209C142.036 65.4783 141.691 64.6896 141.6 63.514C141.656 63.1834 141.557 62.1715 141.301 60.4378ZM148.254 52.0029C149.105 52.2626 149.867 52.672 150.54 53.2515C151.741 54.3607 152.342 56.618 152.363 60.0421C152.436 62.0348 152.377 63.3649 152.207 64.0511C152.017 64.7389 151.626 65.1976 151.014 65.4086C150.344 65.9299 149.679 65.7169 148.994 64.7304C148.33 63.7424 148.159 62.8382 148.48 62.0177C148.835 61.3579 148.783 60.1589 148.386 58.4362C147.969 56.7152 147.597 55.5819 147.233 55.0598C146.874 54.6189 146.647 54.0453 146.515 53.3827C146.383 52.7201 146.43 52.2882 146.66 52.1071C146.876 51.7639 147.4 51.7229 148.252 51.9826L148.254 52.0029ZM161.996 20.7085C161.056 21.414 159.832 22.1011 158.299 22.7307C156.766 23.3604 155.774 23.9069 155.34 24.3283C154.152 25.2164 152.89 25.6821 151.593 25.7019C150.297 25.7217 149.21 25.2969 148.35 24.4057C147.979 23.8026 147.979 23.2724 148.352 22.8558C148.725 22.4392 149.615 21.8802 151.084 21.2148C151.4 21.1085 154.401 19.5281 160.105 16.4517C160.866 16.066 161.556 16.0732 162.195 16.4719C162.814 16.8721 163.16 17.416 163.215 18.1254C163.376 19.1528 162.976 20.0201 162.058 20.724L161.996 20.7085ZM163.211 4.95287C163.185 5.66859 162.824 6.24736 162.085 6.65181C161.367 7.07495 159.884 7.55797 157.617 8.14298C155.29 8.73271 153.668 9.00222 152.755 8.99205C151.842 8.98188 151.009 8.70034 150.253 8.10688C148.478 6.65511 148.973 5.45408 151.76 4.5225C152.689 4.20521 153.962 3.88141 155.596 3.50898C160.741 2.39304 163.272 2.86811 163.19 4.95445L163.211 4.95287ZM161.337 29.2428C160.945 29.6813 160.332 30.1371 159.54 30.6476C158.748 31.1581 158.134 31.6139 157.682 32.0571C156.547 32.8595 155.559 33.4466 154.672 33.781C153.787 34.1356 153.063 34.2126 152.5 34.0119C151.937 33.8113 151.622 33.4077 151.573 32.7793C151.524 32.151 151.89 31.633 152.652 31.2675C153.097 30.9881 154.007 30.1625 155.381 28.7908C156.735 27.4207 157.687 26.6122 158.22 26.4278C159.142 26.0294 160.027 25.9398 160.876 26.159C161.724 26.3781 162.182 26.791 162.231 27.4193C162.05 28.2287 161.773 28.8417 161.361 29.2818L161.337 29.2428ZM155.216 54.4561C155.547 53.2272 155.749 51.9063 155.801 50.4749C156.182 46.2241 156.775 43.6696 157.581 42.8113C158.169 42.2963 159.104 42.0601 160.387 42.123L160.43 44.2607C160.442 45.4628 160.574 46.1254 160.768 46.2734C160.983 46.4198 161.488 46.1356 162.306 45.4395C163.947 44.1081 165.47 44.1318 166.894 45.509C168.297 46.8675 168.665 48.7352 167.975 51.0934C167.604 52.3255 167.38 53.0975 167.323 53.4078C167.21 54.0488 166.467 55.1876 165.091 56.8041C163.715 58.4206 162.677 59.4194 161.997 59.7988C161.316 60.1783 160.174 60.3492 158.589 60.3099C156.131 60.2574 154.85 59.6846 154.764 58.5698C154.728 57.0636 154.885 55.6851 155.218 54.4764L155.216 54.4561ZM158.634 37.2845C158.213 37.3581 157.857 37.4675 157.584 37.6112C157.311 37.7549 157.043 37.9594 156.738 38.2075C155.114 39.7619 154.238 39.708 154.109 38.046C154.097 37.8838 154.125 37.7185 154.194 37.5703C154.262 37.4019 154.411 37.2271 154.622 37.0679C154.851 36.8868 155.062 36.7276 155.294 36.5871C155.527 36.4466 155.778 36.2842 156.088 36.0969L156.882 35.6066C157.114 35.4661 157.328 35.3474 157.563 35.2474C157.799 35.1474 157.957 35.0943 158.018 35.0896C158.532 34.6619 158.991 34.5649 159.354 34.8016C159.739 35.057 159.908 35.4108 159.905 35.9004C159.901 36.3697 159.788 36.7456 159.565 37.0077C159.33 37.1077 159.012 37.1937 158.572 37.2689L158.634 37.2845ZM181.801 81.7213C182.234 81.8098 182.838 82.0276 183.574 82.3576C184.322 82.8497 185.128 83.5819 185.994 84.5541C186.861 85.5264 187.325 86.2854 187.367 86.8327C187.479 87.2317 187.661 87.7477 187.914 88.4008C188.168 89.0539 188.326 89.5309 188.387 89.7913C188.449 90.0719 188.519 90.4538 188.6 90.9777C188.68 91.4813 188.68 92.0114 188.659 92.5229C188.617 93.0359 188.53 93.7361 188.392 94.5828C188.255 95.4296 188.071 96.4635 187.86 97.6628C187.685 98.5532 187.503 99.3424 187.273 100.033C187.042 100.724 186.9 101.245 186.863 101.554C186.627 102.694 185.456 104.6 183.331 107.275C181.206 109.949 179.455 111.697 178.099 112.516C176.898 113.242 175.071 113.752 172.639 114.024C171.079 114.309 169.75 114.433 168.693 114.394C167.635 114.354 166.701 114.08 165.949 113.527C165.196 112.974 164.636 112.549 164.307 112.228C163.957 111.889 163.452 111.133 162.773 109.962C162.095 108.792 161.604 107.953 161.326 107.506C160.244 105.837 160.195 104.679 161.181 104.051C162.005 103.436 162.83 103.881 163.658 105.407C164.183 106.161 164.603 106.618 164.901 106.798C165.199 106.979 165.57 107.052 166.054 107.014C167.787 106.879 168.929 107.218 169.46 108.053C169.733 108.439 170.319 108.679 171.242 108.811C172.165 108.943 173.016 108.937 173.796 108.795C175.033 108.535 176.663 107.327 178.688 105.191C180.691 103.036 181.856 101.313 182.142 100.027C184.059 95.1867 184.535 91.6421 183.57 89.3929C183.057 88.0056 182.503 87.1313 181.887 86.7716C181.273 86.4322 179.88 86.2556 177.751 86.2589C176.395 86.2834 175.483 86.2935 174.956 86.2939C174.449 86.2928 173.872 86.1747 173.267 85.9569C172.66 85.7189 172.269 85.3824 172.111 84.9054C171.952 84.4284 171.837 83.7237 171.765 82.7913C171.79 82.0756 172.147 80.6611 172.854 78.5259C173.561 76.3907 174.219 74.6672 174.827 73.3554C175.298 72.3602 175.379 71.844 175.071 71.7866C174.823 71.7244 174.244 71.8512 173.311 72.1077C172.379 72.3844 171.787 72.3288 171.514 71.9423C170.524 71.4691 170.165 70.763 170.458 69.8226C170.75 68.8821 171.583 68.1236 172.957 67.5269C175.645 66.3584 177.382 65.7535 178.168 65.6921C179.333 65.2748 180.195 65.6764 180.813 66.8516C181.413 68.0486 181.345 69.0122 180.616 69.8034C179.884 70.5742 178.866 72.6114 177.578 75.8932C176.291 79.1749 175.79 81.09 176.054 81.6199C176.154 81.8569 177.191 81.8981 179.146 81.7453C180.477 81.6413 181.368 81.6328 181.821 81.7197L181.801 81.7213ZM162.957 53.0761C163.968 51.2027 164.319 49.9721 164.027 49.3424C163.631 48.415 162.68 49.4885 161.192 52.5412C160.113 54.8482 159.877 55.9882 160.502 55.9394C161.127 55.8905 161.945 54.9293 162.956 53.0559L162.957 53.0761ZM178.701 19.3415C180.106 16.0098 181.319 13.3456 182.361 11.3473C182.659 10.9978 182.968 10.0152 183.325 8.33564C183.663 6.67788 183.913 5.7203 184.056 5.46447C184.273 5.12125 184.688 4.98682 185.322 5.05959C185.957 5.13236 186.424 5.40172 186.681 5.85058C186.842 6.87799 186.981 7.62164 187.097 8.08152C187.214 8.5414 187.185 9.21658 186.947 10.0712C186.729 10.9243 186.553 11.5295 186.379 11.9101C186.206 12.2907 185.949 12.9021 185.57 13.7678C185.211 14.6319 184.918 15.3073 184.714 15.8127C183.783 18.1897 183.142 19.606 182.789 20.0211C182.434 20.6809 182.332 21.1987 182.439 21.5369C182.548 21.8955 182.818 21.9763 183.234 21.8419C183.648 21.6872 184.047 21.3501 184.414 20.8524C185.567 19.498 186.762 18.6909 187.982 18.4732C189.202 18.2555 190.277 18.7832 191.249 20.0734C191.522 20.4599 191.422 20.9979 190.949 21.7078C190.497 22.416 189.885 23.1572 189.156 23.9483C188.424 24.7192 187.961 25.2856 187.743 25.6085C187.698 26.081 187.413 26.5926 186.905 27.1014C186.255 27.8659 186.091 28.3681 186.43 28.5659C186.517 28.6407 186.675 28.5875 186.885 28.408C187.275 28.2144 187.982 27.6494 189.003 26.6927C190.559 25.3068 191.789 24.9659 192.737 25.6871C193.827 26.3972 193.742 27.403 192.503 28.6826C191.352 30.0572 190.475 31.0434 189.877 31.7019C189.297 32.3385 188.306 33.1501 186.922 34.1351C185.538 35.1201 184.317 35.5827 183.276 35.5009C181.913 35.4443 181.095 34.8353 180.761 33.6583C180.427 32.4814 180.726 31.1121 181.638 29.5319C182.258 28.3619 182.528 27.6678 182.429 27.4309C182.329 27.194 181.742 27.1991 180.646 27.448C179.643 27.8526 178.767 27.7988 178.017 27.2864C177.269 26.7943 176.774 26.1601 176.57 25.3603C176.596 24.6446 177.311 22.6108 178.716 19.2791L178.701 19.3415ZM181.619 37.9347C182.017 37.5773 182.62 37.7748 183.387 38.5101C184.557 39.214 185.281 40.9722 185.579 43.7833C185.878 46.5944 185.691 48.8929 185.039 50.6974C184.971 50.8659 184.86 51.7922 184.727 53.4747C184.573 55.1588 184.318 56.0556 183.921 56.1682C183.029 56.9517 182.215 57.1784 181.478 56.8282C180.743 56.4982 180.286 55.8406 180.132 54.8942C179.978 53.9479 180.062 52.9421 180.367 51.8987C180.615 50.9209 180.836 49.0481 181.069 46.2974C181.281 43.528 181.343 41.4432 181.231 40.0041C181.071 38.9767 181.2 38.2936 181.599 37.9362L181.619 37.9347ZM191.407 42.3082C191.797 43.1545 191.973 44.3846 191.934 45.9782C191.926 47.9772 191.85 49.3494 191.727 50.1135C191.583 50.8792 191.222 51.458 190.601 51.8124C189.621 52.5211 188.81 52.5234 188.168 51.8191C187.525 51.1148 187.309 50.153 187.519 48.9335C187.644 48.4547 187.697 47.3086 187.68 45.5155C187.663 43.7223 187.701 42.1085 187.772 40.6755C187.864 39.2409 188.034 38.5547 188.261 38.5982C188.769 38.0894 189.29 38.0079 189.783 38.3568C190.278 38.7259 190.572 39.3759 190.645 40.3285C190.762 40.7884 191.017 41.4618 191.387 42.3097L191.407 42.3082ZM196.818 34.6666C197.319 34.5866 197.75 34.6549 198.092 34.8729C198.661 35.1547 199.068 36.4891 199.295 38.8979C199.522 41.3068 199.52 44.1617 199.307 47.441C199.269 47.9946 198.727 49.1177 197.66 50.7916C196.593 52.4656 195.8 53.486 195.281 53.8528C193.961 54.3637 193.171 54.3644 192.848 53.8595C192.526 53.3748 192.887 52.5309 193.909 51.3295C194.759 49.9988 195.202 46.5384 195.236 40.9485C195.227 37.6866 195.379 35.7171 195.733 35.0573C195.963 34.8762 196.318 34.7465 196.839 34.665L196.818 34.6666Z" fill="white"/>
<path d="M243.681 45.6647C244.078 45.5521 244.461 45.5222 244.87 45.5717C245.28 45.6213 245.601 45.8409 245.873 46.2071C246.534 46.6244 247.029 47.2587 247.315 48.0723C247.601 48.886 247.969 50.5089 248.401 52.9425C249.122 57.0256 249.705 59.06 250.169 59.0237C250.492 58.9985 250.963 57.4935 251.603 54.4867C252.954 51.5059 254.665 50.0263 256.733 50.0278C257.507 49.8042 258.766 50.3582 260.493 51.7118C262.219 53.0451 263.193 54.1108 263.416 54.8887C263.613 55.3423 263.948 56.0094 264.459 56.8463C264.95 57.6848 265.355 58.4687 265.655 59.1998C265.955 59.9308 266.199 60.7274 266.428 61.5864C266.873 63.1421 267.241 63.9698 267.573 64.0662C267.905 64.1626 268.45 63.6102 269.232 62.4479C270.627 60.0346 271.684 59.2791 272.381 60.1626C272.82 60.5973 272.883 61.408 272.564 62.5341C272.422 62.7899 271.913 63.8085 271.016 65.5914C270.12 67.3744 269.57 68.3961 269.347 68.6583C268.342 70.0827 267.952 72.1116 268.154 74.7263C268.257 76.064 268.173 77.865 267.922 80.1277C267.67 82.3701 267.367 83.9639 267.032 84.867C266.636 85.7748 265.994 86.3959 265.149 86.7474C264.304 87.0989 263.548 87.0154 262.879 86.4967C262.421 85.8188 262.238 85.2825 262.292 84.9317C262.344 84.5605 262.568 84.0536 262.943 83.3922C263.318 82.7307 263.542 82.2238 263.599 81.9135C263.712 81.2725 263.772 80.4726 263.779 79.5136C263.786 78.5547 263.706 78.0511 263.539 77.9826C263.452 77.9079 262.494 78.9003 260.686 80.9585C258.133 83.8701 256.463 85.3465 255.677 85.4079C255.596 85.4142 255.233 85.1775 254.61 84.7165C253.986 84.2555 253.586 84.0625 253.431 84.1561C253.195 84.2561 253.086 84.9376 253.124 86.2193C253.358 88.1993 252.588 89.5238 250.818 90.2331C250.113 90.2882 249.619 89.9394 249.375 89.1428C249.113 88.3681 248.841 86.1666 248.559 82.5182C247.922 75.3291 247.456 70.6143 247.164 68.4144C246.872 66.2146 246.273 63.1823 245.328 59.3614C244.627 56.3167 244.064 54.2808 243.661 53.2723C243.259 52.2638 242.796 51.7902 242.252 51.8327C241.849 51.8642 241.051 52.5587 239.86 53.9365C238.668 55.3143 237.711 56.5718 237.011 57.7481C235.777 60.1488 234.923 61.6838 234.444 62.3125C233.985 62.9397 233.465 63.2863 232.921 63.3288C231.893 63.4092 231.337 62.7797 231.232 61.4217C231.19 60.8744 231.513 59.8092 232.183 58.2479C232.853 56.6865 233.584 55.3855 234.377 54.3651C234.811 53.9438 235.605 52.1484 236.759 48.9791C237.894 45.8316 239.014 42.7465 240.082 39.7675C241.148 36.7682 241.923 35.2597 242.407 35.2219C242.562 35.1282 242.807 34.8848 243.183 34.5087C243.558 34.1123 243.822 33.8471 244.011 33.6692C244.2 33.4912 244.531 33.3226 245.046 33.16C245.541 32.999 246.015 33.1046 246.43 33.4801C246.852 33.6918 247.004 34.3528 246.949 35.4786C247.01 36.2691 246.638 37.4809 245.87 39.0907C245.082 40.702 244.305 42.1902 243.54 43.5754C242.773 44.9404 242.448 45.7203 242.52 45.8574C242.929 45.907 243.312 45.8771 243.709 45.7645L243.681 45.6647ZM263.216 68.5666C263.186 67.6514 262.883 67.1448 262.326 67.0252C261.633 67.2425 260.577 67.9981 259.177 69.3105C257.778 70.623 257 71.3159 256.845 71.4096C253.754 74.4449 252.31 76.7397 252.513 78.3144C252.69 80.6048 253.021 81.7412 253.484 81.705C253.948 81.6687 255.609 80.0707 258.466 76.8906C261.304 73.7324 262.816 71.779 263.001 71.0304C263.187 70.2818 263.246 69.4819 263.236 68.565L263.216 68.5666ZM255.018 56.9522C254.651 57.4499 254.383 57.9195 254.171 58.3235C253.96 58.7478 253.771 59.1908 253.565 59.6759C253.36 60.1609 253.208 60.5602 253.129 60.8519C253.03 61.1451 252.92 61.5615 252.803 62.1416C252.684 62.7015 252.595 63.1163 252.533 63.3659C252.471 63.6154 252.405 64.0692 252.335 64.7475C252.266 65.4259 252.22 65.8781 252.194 66.0636C252.169 66.2695 252.128 66.7825 252.071 67.623C252.014 68.4635 251.954 68.9983 251.893 69.2479C252.524 69.2801 253.644 68.5604 255.232 67.07C256.822 65.5999 257.97 64.7149 258.657 64.4165C260.317 63.3283 261.295 62.5994 261.569 62.2109C261.863 61.8208 261.816 61.2128 261.426 60.3664C260.544 58.1312 259.679 56.649 258.83 55.8997C257.01 54.9205 255.739 55.2645 254.994 56.9133L255.018 56.9522ZM297.943 53.2296C298.946 53.865 299.599 54.181 299.921 54.1557C299.989 53.9873 300.943 54.2594 302.781 54.9517C304.619 55.6441 306.626 56.4252 308.782 57.2966C310.939 58.1681 312.274 58.655 312.75 58.7809C313.797 58.9438 314.444 59.4438 314.713 60.2996C314.982 61.1554 314.747 62.0506 314.028 62.9836C312.894 64.5812 311.42 64.6557 309.645 63.2039C308.624 62.3253 306.579 61.3229 303.528 60.1543C300.479 59.0061 298.68 58.5554 298.134 58.8427C298.053 58.849 297.996 58.8943 297.962 58.9785C297.928 59.0628 297.899 59.2078 297.874 59.4136C297.849 59.6195 297.806 59.8472 297.743 60.0764C297.681 60.326 297.629 60.6971 297.589 61.2304C297.547 61.7434 297.487 62.2783 297.405 62.7945C297.324 63.3107 297.199 64.0545 297.046 64.9637C296.875 65.8947 296.765 66.8412 296.678 67.8065C295.322 75.9671 293.606 80.7913 291.492 82.3024C290.755 82.9921 289.947 83.3 289.068 83.2056C286.939 83.2089 284.968 81.8539 283.175 79.1189C281.671 77.2381 281.219 75.8461 281.776 74.9257C282.197 74.3422 282.909 74.6332 283.875 75.8424C285.235 77.9587 286.566 78.915 287.907 78.6878C289.228 78.4622 290.164 77.186 290.69 74.8202C291.957 70.7448 292.79 66.0508 293.172 60.76C293.36 58.9916 293.32 57.9548 293.055 57.6697C293.123 57.5012 292.312 57.2383 290.618 56.8406C288.926 56.463 286.76 55.9799 284.162 55.4285C281.544 54.8786 280.04 54.568 279.63 54.5184C279.214 54.3878 278.902 54.0248 278.651 53.3919C278.401 52.7793 278.377 52.2102 278.583 51.7251C279.308 50.8732 280.368 50.4233 281.745 50.3972C283.122 50.3711 284.37 50.5182 285.468 50.8198C286.568 51.1417 287.834 51.5118 289.307 51.9471C290.76 52.3841 291.894 52.6218 292.686 52.6414C293.15 52.6051 293.449 52.541 293.564 52.4504C293.678 52.3599 293.757 52.0683 293.802 51.5958C294.07 49.8211 294.119 46.779 293.987 42.446C293.854 38.1129 293.573 35.2597 293.139 33.8458C292.855 33.3175 292.473 33.1026 291.955 33.2247C291.458 33.3451 290.446 33.8933 288.941 34.8877C288.705 34.9877 288.18 35.2735 287.343 35.7263C286.507 36.1995 286.002 36.4837 285.81 36.621C285.618 36.7584 285.19 36.9958 284.505 37.3144C283.821 37.6533 283.37 37.8517 283.191 37.8862C282.992 37.9425 282.615 38.0535 282.02 38.2224C281.425 38.3912 281.023 38.443 280.775 38.3809C280.527 38.3187 280.18 38.2847 279.693 38.2819C279.226 38.2776 278.832 38.1657 278.531 37.9445C278.23 37.7234 277.887 37.4851 277.459 37.1923C277.031 36.8995 276.618 36.5443 276.177 36.0894C275.15 35.1297 274.423 33.331 273.977 30.7149C273.53 28.0786 273.658 26.0702 274.34 24.6507C274.755 23.9861 275.415 23.6082 276.282 23.5405C277.148 23.4727 277.924 23.7995 278.607 24.5006C279.29 25.2017 279.349 25.972 278.785 26.8113C278.511 27.4649 278.478 28.3443 278.625 29.4544C278.792 30.5628 279.155 31.5948 279.699 32.5922C280.242 33.5897 280.716 33.9402 281.081 33.6873C282.486 33.4959 284.501 32.5431 287.106 30.8305C289.711 29.1179 291.79 28.2009 293.362 28.078C294.396 28.0787 295.125 28.3276 295.548 28.8044C295.99 29.2796 296.464 30.4253 297.008 32.218C297.404 33.1454 297.681 34.3676 297.883 35.922C298.082 37.4561 298.187 38.8142 298.194 39.9555C298.203 41.1172 298.186 42.7294 298.143 44.7924C298.101 46.8755 298.1 48.1806 298.143 48.7279L297.898 53.172L297.943 53.2296Z" fill="white"/>
<path d="M347.183 60.6162C346.641 61.2091 345.964 61.8942 345.149 62.6308C344.334 63.3674 343.637 64.0541 343.054 64.6502C341.747 66.0982 340.896 66.8988 340.498 66.9911C340.107 67.1848 339.57 67.0636 338.864 66.5886C338.16 66.1339 337.741 65.6977 337.631 65.3188C337.508 64.7779 338.508 63.2927 340.615 60.9053C340.838 60.6432 341.151 60.2313 341.591 59.6259C343.753 56.908 345.195 54.8377 345.918 53.4353C346.641 52.033 346.947 50.2146 346.855 47.9787C346.372 47.7717 345.656 47.685 344.743 47.6748C343.829 47.6647 343.197 47.8772 342.823 48.2939C342.304 48.6607 341.45 49.1557 340.263 49.7991C339.076 50.4425 338.264 50.9545 337.824 51.2948C337.433 51.4885 337.195 51.813 337.066 52.2513C336.939 52.7098 336.874 53.9588 336.893 56.0373C336.691 61.5587 335.712 64.3677 333.978 64.5032C332.87 64.5899 332.168 64.1757 331.853 63.242C331.537 62.3082 331.61 60.6304 332.052 58.2101C332.352 56.8408 332.482 55.6479 332.486 54.6484C332.49 53.649 332.324 51.5004 331.986 48.1826C331.778 45.4869 331.593 43.6253 331.434 42.6181C331.274 41.5907 331.034 40.5899 330.737 39.6343C330.418 38.66 330.148 37.5189 329.881 36.1735C329.678 34.5988 329.564 33.6493 329.539 33.325C329.514 33.0007 329.68 32.5188 330.014 31.8605C330.369 31.2006 330.59 30.6532 330.722 30.2554C330.685 29.7893 331.003 29.4382 331.656 29.224C332.308 29.0099 332.822 29.0921 333.155 29.4738C333.416 29.6982 333.69 30.8798 333.96 33.061C334.249 35.2203 334.487 36.466 334.673 36.7777C334.951 37.2249 335.142 37.3324 335.286 37.0968C335.354 36.9284 335.473 36.3685 335.621 35.3985C335.975 33.9435 336.48 32.864 337.096 32.1837C337.713 31.5034 338.841 30.885 340.464 30.3707C342.087 29.8564 343.304 29.5981 344.097 29.6177C344.895 29.7184 345.824 30.1964 346.886 31.0718C347.947 31.9472 348.796 32.9616 349.431 34.0947L350.543 36.1488L351.123 42.0782C351.346 42.8561 351.438 43.7869 351.4 44.8706C351.362 45.9543 351.363 46.7495 351.402 47.2562C351.441 47.7629 351.375 48.4818 351.201 49.3723C351.026 50.2627 350.934 50.9021 350.925 51.3106C350.916 51.7192 350.78 52.3212 350.539 53.1353C350.277 53.951 350.098 54.5156 349.962 54.8525C349.826 55.1894 349.607 55.7774 349.329 56.6352C349.051 57.493 348.836 58.1216 348.706 58.5396C348.223 59.3726 347.69 60.0872 347.149 60.7004L347.183 60.6162ZM339.34 45.9968C340.478 45.235 341.651 44.4092 342.9 43.5163C344.129 42.6249 344.902 42.1363 345.219 42.03C346.247 41.9496 346.789 41.3567 346.864 40.2293C346.939 39.1019 346.691 37.9997 346.078 36.8853C345.485 35.7694 344.89 35.1633 344.334 35.0437C343.09 34.4273 342.043 34.5295 341.154 35.3535C340.264 36.1775 339.395 37.5301 338.546 39.3909C337.696 41.2518 337.21 42.3094 337.066 42.5449C336.508 43.4653 336.258 44.4229 336.335 45.4161C336.412 46.4093 336.772 46.8705 337.397 46.8217C337.577 47.0523 338.225 46.7773 339.362 46.0155L339.34 45.9968ZM372.501 56.5571C373.053 56.0857 373.721 55.8092 374.527 55.7462C375.475 55.6721 376.36 55.3174 377.184 54.7024C378.009 54.0874 380.496 51.8946 384.647 48.1444C385.816 47.013 386.52 46.1423 386.696 45.5372C386.872 44.9321 386.91 43.5833 386.751 41.5361C386.703 40.9078 386.605 40.161 386.457 39.2957C386.347 37.8769 386.146 37.1177 385.855 37.0182C385.563 36.9186 384.706 37.3731 383.282 38.3612L382.138 39.042C381.383 39.5088 380.495 40.088 379.475 40.7999C378.456 41.5117 377.668 42.083 377.11 42.4733C376.553 42.8636 375.818 43.3288 374.905 43.8488C373.992 44.3688 373.039 44.8919 372.067 45.4369C371.677 45.6305 371.125 45.8368 370.39 46.037C369.657 46.2574 369.068 46.5074 368.601 46.7682C368.135 47.029 367.864 47.458 367.746 48.0381C367.85 49.3759 367.868 52.4943 367.818 57.3514C367.767 62.2085 367.821 65.7932 367.999 68.0836C368.297 72.995 367.906 75.5337 366.803 75.7015C365.082 75.9991 363.953 75.2922 363.435 73.579C363.107 72.4831 362.906 69.0935 362.831 63.4101C362.757 57.7267 362.842 54.1107 363.129 52.5793C363.268 51.2226 363.385 49.0723 363.526 46.1658C363.664 43.2389 363.757 40.7643 363.843 38.7388C363.93 36.7133 364.067 35.6014 364.297 35.4204C364.484 34.692 364.418 31.7404 364.08 26.5874C363.866 22.7705 363.773 20.5144 363.798 19.7987C363.824 19.083 363.986 18.5605 364.264 18.2125C364.846 17.6164 365.747 17.4644 366.966 17.7566C368.187 18.069 368.662 18.7048 368.413 19.6826C368.555 20.4668 368.707 20.8628 368.868 20.8501C369.029 20.8375 369.252 20.5754 369.519 20.0856C369.587 19.9171 369.638 19.7908 369.672 19.7066C369.706 19.6223 369.759 19.5163 369.83 19.3883C369.901 19.2604 370.014 19.1496 370.169 19.056C371.265 16.9719 372.836 15.2586 374.882 13.916C375.7 13.2199 376.297 12.8062 376.694 12.6936C377.09 12.581 377.937 12.5148 379.294 12.4903C381.114 12.4296 382.339 12.5377 383.008 12.7913C383.991 13.1835 384.978 14.1463 385.967 15.6595C386.956 17.1727 387.632 18.8328 388.015 20.6381C388.132 21.098 388.661 24.2784 389.581 30.1404C390.501 36.0024 391.165 39.8657 391.554 41.7521L392.822 56.5795C393.293 63.7205 393.406 68.3202 393.182 70.4175C393.076 71.1395 393.021 72.5304 393.035 74.5481C393.031 76.5876 392.897 78.2701 392.655 79.5941C392.413 80.9181 391.889 81.7543 391.12 82.0387C390.209 82.579 388.959 82.4116 387.388 81.4945C386.572 81.1708 385.841 80.6366 385.178 79.9339C384.536 79.2296 384.065 78.6547 383.786 78.1871C383.507 77.7196 383.059 76.9185 382.399 75.7262C381.761 74.5526 381.377 73.7873 381.273 73.4896C379.901 71.2111 379.547 69.5258 380.173 68.437C380.656 67.6039 381.463 68.3361 382.594 70.6335C382.68 70.7083 382.73 70.8268 382.743 70.9889C383.021 71.4362 383.428 72.2404 383.999 73.3377C384.552 74.4568 384.931 75.1612 385.116 75.4527C385.875 77.147 386.568 77.9697 387.152 77.924C387.737 77.8783 388.133 76.9705 388.3 75.2037C389.092 68.1272 388.975 60.3264 387.912 51.8247C387.726 51.513 387.21 51.6553 386.343 52.2532C385.475 52.8308 384.609 53.6938 383.74 54.7813C382.589 56.1559 381.113 57.5152 379.374 58.895C377.615 60.2764 376.352 60.9869 375.566 61.0483C374.78 61.1098 373.964 60.7861 373.12 60.0976C372.276 59.4091 371.816 58.711 371.761 58.0015C371.725 57.5354 371.992 57.0455 372.543 56.5742L372.501 56.5571ZM370.641 28.5623C370.096 29.6449 369.865 30.3358 369.971 30.6538C369.909 30.9033 369.66 31.6161 369.246 32.8108C368.831 34.0055 368.553 35.3935 368.433 36.9934C368.202 40.0294 368.36 41.5465 368.904 41.5039C368.984 41.4976 369.062 41.4508 369.136 41.3634C371.44 40.4696 374.261 38.9237 377.582 36.7676C380.901 34.5913 383.011 33.2845 383.927 32.8051C384.545 32.6752 384.933 32.441 385.071 32.1243C385.132 31.8748 384.911 30.0569 384.405 26.6706C383.9 23.2844 383.562 21.2716 383.352 20.6559C383.13 19.878 382.602 19.0832 381.749 18.2731C380.895 17.463 380.132 17.0333 379.457 16.9637C378.783 16.8941 378.037 17.2174 377.219 17.9135C376.915 18.182 376.514 18.4988 375.998 18.9062C375.482 19.3136 375.118 19.5867 374.929 19.7646C374.74 19.9426 374.496 20.2063 374.217 20.5339C373.92 20.8835 373.688 21.289 373.484 21.7944C373.279 22.2998 373.019 22.8707 372.665 23.5305C371.945 25.5036 371.604 26.5906 371.622 26.8339C371.548 26.9212 371.248 27.4953 370.683 28.5794L370.641 28.5623Z" fill="white"/>
<path d="M452.802 4.3379C453.164 5.34955 452.889 6.24791 451.996 7.03138C451.699 7.38089 451.374 7.8957 450.982 8.59924C450.61 9.30121 450.206 9.8426 449.806 10.1797C449.408 10.5371 448.732 10.9774 447.823 11.5379C445.786 12.737 444.345 13.7673 443.539 14.6256C443.545 14.7066 443.592 14.7846 443.679 14.8593C445.021 15.9575 445.351 17.0737 444.651 18.2499C444.409 18.2688 444.237 18.9348 444.158 20.2664C444.057 21.5794 443.954 23.1372 443.867 24.8976C443.76 26.6597 443.688 27.8276 443.67 28.3796C443.534 28.7165 443.559 29.0408 443.748 29.393C443.938 29.7453 444.192 29.8885 444.495 29.8649C445.026 29.6602 445.908 28.9999 447.138 27.8638C448.348 26.7292 449.724 25.3778 451.222 23.7721C452.722 22.1867 453.735 21.1287 454.242 20.5997C454.918 20.1594 455.74 19.2591 456.71 17.8986C457.681 16.5584 458.609 15.4459 459.535 14.5782C460.462 13.7105 461.404 13.3106 462.364 13.3987C462.995 13.4309 463.541 13.6737 463.96 14.11C464.4 14.5446 464.622 15.0574 464.664 15.6047C464.2 16.681 463.153 18.0883 461.545 19.8453C459.937 21.6023 458.057 23.5233 455.927 25.6066C453.797 27.6899 452.422 29.0616 451.848 29.7591C449.133 32.6833 447.503 34.1566 446.959 34.1991C446.717 34.218 446.392 34.4678 445.941 34.9312C445.512 35.4134 445.295 35.7566 445.314 35.9998C445.556 35.9809 445.903 36.015 446.396 36.0988C446.889 36.1825 447.283 36.2945 447.618 36.4314C447.953 36.5684 448.32 36.8456 448.76 37.3006C450.622 38.8271 453.403 40.6897 457.099 42.8681C460.796 45.0465 463.527 46.7906 465.289 48.0802C466.787 49.0847 468.544 50.0484 470.566 51.012C472.587 51.9755 474.096 52.8771 475.117 53.7556C476.386 54.6964 477.519 55.4439 478.555 55.995C479.592 56.5462 480.645 57.0552 481.692 57.4831C482.759 57.9095 483.665 58.3485 484.407 58.7595C485.916 59.9261 489.144 61.0197 494.051 62.0635C494.533 62.2705 494.868 62.4074 495.034 62.4556C495.202 62.5241 495.418 62.6907 495.72 62.9322C496.024 63.1939 496.17 63.5087 496.161 63.9173C496.152 64.3258 496.047 64.803 495.848 65.3692C495.426 66.9927 494.854 67.9957 494.174 68.3752C493.494 68.7547 492.437 68.4702 491.027 67.5405C490.279 67.0483 488.872 66.4242 486.847 65.665C484.801 64.9073 483.501 64.3564 482.905 63.9951C482.651 63.8519 481.892 63.4829 480.628 62.8681C479.344 62.2548 478.58 61.825 478.341 61.6194C466.332 54.7483 458.101 49.7841 453.665 46.7051C452.737 45.9823 451.569 45.2988 450.181 44.6528C448.772 44.0084 447.798 43.4728 447.196 43.0305C445.866 42.0945 444.952 41.5542 444.513 41.3846C444.074 41.215 443.563 41.153 443.018 41.1956C442.481 41.3192 442.127 41.4692 441.978 41.6439C441.83 41.8187 441.667 42.3412 441.513 43.2301C441.239 43.8836 440.934 44.927 440.557 46.3431C440.2 47.7576 439.834 49.0505 439.497 50.1984C439.16 51.3463 438.81 52.332 438.468 53.154C438.177 53.5846 437.737 54.455 437.129 55.7669C436.522 57.0989 435.942 58.2455 435.37 59.2485C434.819 60.25 434.255 61.0894 433.659 61.7681C433.163 62.439 432.465 63.9006 431.622 66.1076C429.865 70.1397 427.634 73.536 424.924 76.256C422.194 78.9775 420.208 79.7853 418.928 78.7026C418.143 77.7241 417.818 76.6687 417.97 75.4945C418.123 74.3202 418.473 73.3345 419.035 72.4749C419.419 72.2002 419.67 72.0378 419.828 71.9847C419.986 71.9315 420.296 72.0092 420.799 72.2146C421.302 72.42 421.573 72.5212 421.654 72.5149L423.931 69.7064C424.891 68.7544 426.053 66.7265 427.436 63.6412C428.82 60.5558 429.806 58.6231 430.376 57.8649C431.665 56.1736 433.049 53.3534 434.529 49.4244C436.01 45.4955 436.489 43.2965 435.989 42.8666C435.816 42.717 435.296 42.8188 434.411 43.1735C433.526 43.5281 432.708 43.9592 431.959 44.5071C431.44 44.8739 430.288 45.4533 428.526 46.264C426.764 47.0747 425.305 47.617 424.128 47.8721C423.2 48.1894 422.435 48.0044 421.836 47.3376C421.237 46.6707 421.045 45.768 421.262 44.6296C421.523 43.8139 421.922 43.2117 422.479 42.8012C423.035 42.3906 423.94 42.0344 425.191 41.6919C430.969 39.5682 435.146 37.2025 437.724 34.6152C438.097 34.1986 438.322 33.6916 438.441 33.1318C438.56 32.5719 438.625 31.3229 438.619 29.4066C438.768 28.1918 438.832 26.9225 438.788 25.5598C438.765 24.2157 438.798 23.0712 438.889 22.1465C438.98 21.2218 439.154 20.0662 439.454 18.697C439.814 17.323 439.917 16.5604 439.748 16.4717C439.577 16.3627 438.681 16.5755 437.06 17.1101C435.12 17.7307 433.789 18.0794 433.043 18.1377C432.297 18.196 430.773 18.1521 428.451 18.0277C428.042 17.9781 427.651 17.6416 427.235 16.9808C426.82 16.3403 426.603 15.6233 426.542 14.8328C426.493 14.2044 426.801 13.7317 427.449 13.4568C428.095 13.1615 429.374 12.9188 431.243 12.6912C434.871 12.4076 437.818 11.7082 440.103 10.5712C442.387 9.43421 444.862 7.60943 447.527 5.09687C448.771 3.87808 449.757 3.25047 450.463 3.19532C451.646 3.02128 452.409 3.451 452.749 4.44397L452.802 4.3379Z" fill="white"/>
<path d="M529.701 26.9358C529.444 26.752 529.254 26.6648 529.154 26.6727C529.053 26.6806 528.738 26.8071 528.29 27.0461C527.842 27.285 527.49 27.4552 527.255 27.5552C526.437 28.2513 525.489 28.3254 524.413 27.7774C523.336 27.2294 522.666 26.4254 522.381 25.3669C522.096 24.3084 522.359 23.2479 523.146 22.1464C523.778 21.1386 524.317 20.5051 524.782 20.2241C527.228 19.0745 529.54 19.3424 531.735 20.9856C533.932 22.6491 534.916 24.6113 534.683 26.8522C534.428 29.5842 533.423 32.5788 531.69 35.8749C529.956 39.1507 528.215 41.5502 526.424 43.0361C525.663 43.4219 525.023 43.5331 524.483 43.3714C523.963 43.2081 523.689 42.8013 523.677 42.1293C523.666 41.4573 523.996 40.7382 524.645 39.9534C525.791 38.5179 526.934 36.5118 528.034 33.9584C529.134 31.405 529.719 29.5241 529.788 28.3156C529.975 27.5873 529.939 27.1211 529.683 26.9576L529.701 26.9358Z" fill="white"/>
<path d="M223.828 172.419C223.61 173.443 223.537 174.882 223.571 176.759C223.605 178.636 223.439 180.351 223.032 181.906C222.829 183.849 222.879 184.907 223.126 185.126C223.372 185.346 224.045 184.784 225.089 183.488C226.195 182.021 227.884 180.289 230.139 178.333C232.394 176.377 233.833 175.366 234.477 175.298C235.68 175.334 236.393 175.933 236.639 177.113C236.884 178.293 236.456 179.054 235.393 179.392C235.161 179.498 234.693 180.079 233.972 181.157C233.252 182.235 232.784 182.816 232.551 182.922C229.41 184.768 225.693 188.677 221.399 194.651C221.126 195.151 220.777 198.417 220.328 204.414C219.878 210.41 219.183 214.061 218.2 215.351C217.463 217.432 216.366 219.777 214.893 222.406C212.452 228.02 210.113 228.779 207.876 224.703C207.599 223.608 207.78 222.423 208.395 221.111C209.012 219.819 209.723 219.233 210.532 219.393C211.325 219.39 211.913 218.797 212.315 217.589C212.697 216.383 212.935 215.745 213.007 215.655C213.901 214.293 214.636 211.987 215.214 208.778C215.793 205.568 215.884 202.942 215.527 200.895L215.208 199.007L213.283 201.01C210.543 203.773 206.408 206.603 200.838 209.523C199.773 209.247 199.101 208.848 198.806 208.369C198.512 207.889 198.554 207.312 198.934 206.679C199.295 206.048 199.819 205.42 200.47 204.84C201.121 204.26 201.888 203.627 202.776 202.981C208.281 199.454 212.45 195.967 215.264 192.562C216.11 191.511 216.727 190.219 217.111 188.646C217.497 187.092 217.801 185.138 217.984 182.809C218.166 180.479 218.379 178.822 218.601 177.837C218.519 177.049 217.819 177.164 216.503 178.182C216.278 178.369 216.074 178.555 215.848 178.722C214.252 180.178 212.469 181.205 210.519 181.8C208.55 182.417 206.87 182.289 205.479 181.434C204.089 180.58 203.531 178.942 203.826 176.519C203.79 175.399 203.857 174.288 204.002 173.148C204.167 172.006 204.399 170.735 204.736 169.288C205.054 167.865 205.27 166.82 205.365 166.176C205.251 165.861 205.439 165.33 205.908 164.565C206.377 163.8 206.487 163.297 206.222 163.1C205.394 161.982 205.608 161.121 206.907 160.514C208.266 159.9 209.359 160.05 210.171 161.006C210.541 161.437 210.685 162.035 210.598 162.76C210.531 164.443 210.196 166.686 209.577 169.512C208.958 172.337 208.62 174.151 208.542 174.957C208.535 175.673 208.671 176.19 208.883 176.474C209.118 176.777 209.449 176.823 209.914 176.611C210.36 176.4 210.765 176.193 211.112 176.014C211.457 175.813 211.912 175.5 212.493 175.029C212.709 174.761 213.595 174.095 215.208 173.004C216.802 171.915 217.74 171.162 217.999 170.726C218.7 169.854 218.645 165.833 217.811 158.644C217.737 157.936 217.682 157.022 217.646 155.901C217.406 153.617 217.361 152.211 217.513 151.725C217.666 151.238 218.235 150.851 219.243 150.581C219.582 150.708 219.981 150.83 220.478 150.92C221.038 151.024 221.385 151.233 221.497 151.528C221.612 151.843 221.802 152.886 222.073 154.697C222.19 155.809 222.321 156.674 222.467 157.292C223.06 162.176 223.49 164.727 223.736 164.946C224.075 165.074 225.076 164.15 226.78 162.171C228.483 160.192 229.742 159.404 230.575 159.786C231.192 160.436 231.564 161.072 231.672 161.714C231.778 162.337 231.718 162.936 231.49 163.471C231.261 164.007 230.894 164.577 230.364 165.144C229.834 165.711 229.279 166.24 228.737 166.686C228.196 167.152 227.617 167.643 227.042 168.174C226.468 168.705 225.992 169.205 225.65 169.629C224.698 170.446 224.124 171.365 223.906 172.39L223.828 172.419ZM269.038 216.265C265.939 216.961 263.349 217.46 261.27 217.803C259.192 218.145 256.887 218.267 254.329 218.108C254.152 217.964 252.586 217.966 249.636 218.135C246.684 218.284 243.486 218.418 240.084 218.553C236.681 218.668 234.498 218.593 233.511 218.289C232.004 217.487 230.794 216.225 229.9 214.48C229.553 214.272 229.274 213.361 229.025 211.752C228.775 210.143 228.599 208.465 228.497 206.717C228.396 204.97 228.154 203.442 227.771 202.113C227.481 201.673 227.286 200.59 227.189 198.883C227.091 197.176 226.833 196.263 226.434 196.142C225.189 194.925 225.371 193.945 226.96 193.204C228.632 192.475 230.023 192.553 231.156 193.475C231.52 193.846 231.709 194.296 231.767 194.842C233.097 199.975 233.853 204.474 234.018 208.382C234.266 210.747 234.742 212.189 235.423 212.669C236.103 213.149 238.035 213.353 241.197 213.264C242.384 213.138 245.994 213.062 252.068 213.012C258.141 212.962 262.49 212.563 265.096 211.817C265.392 211.54 266.999 211.166 269.914 210.653C272.828 210.14 274.462 209.824 274.755 209.711C275.281 209.492 275.462 208.696 275.278 207.325C275.093 205.954 275.177 205.005 275.508 204.48C276.066 203.787 276.743 203.654 277.56 204.078C278.357 204.505 278.822 205.253 278.927 206.264C278.985 206.81 279.298 207.472 279.843 208.211C280.388 208.951 280.795 209.541 281.047 210.005C281.297 210.449 281.172 211.198 280.747 212.184C280.563 212.755 280.436 213.096 280.384 213.183C280.312 213.272 280.233 213.485 280.144 213.801C280.057 214.137 279.951 214.292 279.831 214.305C279.71 214.317 279.596 214.391 279.488 214.525C279.38 214.659 279.163 214.723 278.857 214.714C278.531 214.708 278.27 214.736 278.033 214.801C277.796 214.867 277.393 214.91 276.786 214.933C276.199 214.955 275.654 214.992 275.191 215.041C274.166 215.15 272.114 215.551 268.993 216.229L269.038 216.265Z" fill="white"/>
<path d="M309.105 148.304C309.982 148.333 310.612 148.716 311.016 149.471C311.42 150.225 311.435 151.144 311.061 152.226C310.698 153.225 310.936 153.752 311.817 153.822C312.538 153.909 314.24 153.852 316.922 153.65C322.509 153.222 325.553 153.37 326.018 154.118C326.502 154.864 326.602 155.814 326.316 156.968C326.031 158.123 325.494 159.018 324.687 159.655C322.85 161.138 321.851 160.916 321.652 159.016C321.578 158.308 321.191 157.92 320.515 157.869C319.839 157.818 317.958 157.915 314.894 158.157C312.923 158.366 311.679 158.518 311.12 158.618C310.581 158.716 310.102 158.992 309.72 159.421C309.34 159.87 308.874 160.267 308.365 160.647C307.847 160.948 307.329 161.82 306.849 163.261C306.37 164.702 305.628 167.52 304.642 171.692C304.089 173.979 303.302 176.556 302.294 179.361C301.289 182.187 300.485 184.991 299.9 187.751C299.484 189.798 299.252 191.07 299.226 191.604C299.199 192.118 299.36 192.489 299.707 192.698C300.637 193.233 300.47 195.132 299.223 198.371C297.096 203.87 295.082 205.801 293.162 204.164C292.118 203.314 292.033 201.34 292.904 198.202C294.292 193.987 295.237 190.391 295.758 187.413C296.28 184.434 297.138 181.175 298.37 177.61C299.433 174.942 300.765 170.385 302.369 163.96C303.951 157.517 305.541 152.708 307.115 149.495C307.576 148.649 308.243 148.231 309.121 148.261L309.105 148.304ZM324.204 193.478C324.45 191.366 324.832 189.772 325.307 188.679C325.782 187.586 326.462 187.085 327.343 187.155C328.055 187.162 328.58 187.515 328.882 188.26C329.202 188.983 329.25 189.836 329.028 190.82C328.378 195.284 327.495 198.894 326.341 201.653C325.586 203.573 325.557 204.455 326.252 204.3C326.324 204.21 326.436 204.117 326.589 204.019C326.965 203.733 327.951 202.668 329.587 200.819C331.223 198.969 332.362 197.806 333.046 197.345C333.359 197.23 333.791 196.694 334.359 195.714C334.927 194.734 335.339 194.2 335.551 194.096C335.928 193.81 336.33 193.768 336.798 193.964C337.246 194.161 337.579 194.433 337.782 194.82C338.017 195.511 337.863 196.365 337.339 197.381C336.815 198.398 335.728 199.862 334.101 201.792C332.842 203.357 331.738 204.659 330.808 205.678C329.878 206.696 328.903 207.678 327.904 208.622C326.885 209.568 326.18 210.215 325.792 210.583C325.404 210.951 324.444 211.687 322.935 212.807C321.426 213.928 320.33 214.719 319.668 215.197C317.553 216.934 316.18 217.999 315.591 218.389C313.186 219.686 311.86 219.254 311.637 217.131C311.58 216.585 311.749 216.056 312.126 215.587C312.504 215.118 313.387 214.227 314.78 212.976C315.579 212.257 315.98 211.622 316.008 211.108C316.035 210.594 315.747 209.398 315.166 207.538C314.31 204.603 312.992 202.698 311.236 201.842C310.418 201.601 309.95 201.017 309.85 200.067C309.751 199.117 309.958 198.379 310.452 197.857C311.507 196.478 313.145 196.979 315.369 199.38C315.653 199.759 315.885 200.041 316.112 200.263C316.338 200.484 316.518 200.649 316.69 200.733C316.863 200.837 316.99 200.885 317.071 200.877C317.151 200.868 317.227 200.819 317.299 200.73C317.426 200.389 317.31 198.5 316.945 195.023C316.581 191.545 316.306 189.694 316.122 189.488C315.847 189.19 315.46 189.19 314.923 189.493C312.687 190.854 310.935 191.591 309.668 191.725C309.346 191.759 309.033 191.486 308.69 190.929C308.347 190.373 308.136 189.72 308.062 189.013C308.005 188.467 308.151 187.92 308.484 187.414C308.838 186.907 309.275 186.615 309.818 186.558C310.28 186.509 311.218 186.144 312.633 185.483C314.027 184.824 314.827 184.31 315.035 183.961C315.285 184.017 315.399 183.555 315.362 182.618C315.343 181.66 315.259 180.667 315.113 179.66C314.965 178.633 314.843 178.053 314.746 177.9C314.657 177.828 313.644 178.058 311.728 178.587C310.345 178.979 309.473 179.194 309.112 179.232C308.75 179.271 308.371 179.147 307.937 178.887C306.49 178.079 306.352 176.949 307.456 175.462C307.934 174.778 308.997 174.257 310.629 173.92C313.286 173.475 316.202 171.817 319.396 168.924C321.299 167.292 322.592 166.828 323.298 167.55C324.692 168.833 324.118 170.53 321.574 172.639C320.686 173.285 320.118 174.265 319.849 175.581C319.682 176.314 319.595 177.039 319.609 177.753C319.603 178.469 319.664 179.056 319.789 179.472C319.916 179.908 320.058 180.097 320.219 180.08C320.46 180.055 321.371 179.243 322.932 177.647C324.513 176.048 325.428 175.277 325.656 175.314C326.118 175.265 326.586 175.461 327.017 175.885C327.468 176.308 327.704 176.814 327.761 177.36C327.818 177.906 327.634 178.478 327.224 179.032C326.815 179.586 325.948 180.434 324.618 181.516C323.022 182.972 321.992 184.002 321.552 184.661C321.111 185.301 320.854 186.146 320.801 187.194C320.706 187.838 320.742 189.347 320.912 191.741C321.079 194.115 321.274 196.363 321.492 198.446C321.71 200.528 321.86 201.576 321.941 201.567C322.102 201.55 322.432 200.82 322.969 199.353C323.489 197.907 323.746 197.063 323.72 196.82C323.712 196.739 323.841 195.642 324.09 193.551L324.204 193.478ZM360.741 148.888C360.396 149.476 360.26 151.085 360.292 153.719C360.37 156.021 360.521 157.456 360.739 157.985C360.957 158.514 361.48 158.663 362.328 158.409C364.362 158.031 366.343 158.311 368.307 159.207C370.273 160.124 371.729 161.401 372.695 163.056C374.881 168.017 376.184 173.276 376.602 178.813C377.692 188.448 378.143 194.308 377.975 196.391C377.793 197.759 377.555 198.786 377.218 199.456C376.882 200.125 376.238 200.766 375.281 201.337C374.683 201.646 374.233 201.816 373.972 201.844C373.711 201.871 373.195 201.803 372.466 201.635C371.4 201.359 370.135 200.533 368.629 199.159C367.125 197.805 366.341 196.723 366.258 195.935C366.201 195.389 366.595 195.265 367.419 195.566C367.838 195.686 368.125 195.901 368.318 196.187C369.146 197.305 370.17 197.953 371.388 198.131C372.608 198.329 373.362 197.963 373.653 197.053C373.846 196.562 373.736 194.346 373.387 190.437C373.019 186.531 372.643 183.913 372.26 182.584C372.105 181.885 371.958 181.451 371.823 181.322C371.685 181.173 371.496 181.111 371.275 181.135C370.74 181.273 369.453 182.186 367.454 183.87C365.435 185.555 364.311 186.656 364.04 187.175C363.717 188.558 363.848 192.531 364.45 199.049C365.051 205.568 365.174 209.46 364.835 210.681C364.472 211.681 363.845 212.299 362.998 212.552C362.15 212.805 361.412 212.556 360.787 211.825C360.455 210.982 360.287 210.161 360.285 209.364C360.283 208.567 360.305 207.42 360.354 205.943C360.402 204.466 360.401 203.485 360.35 203C360.418 201.316 360.27 198.736 359.906 195.258C359.569 192.82 359.338 191.393 359.211 190.957C359.086 190.541 358.866 190.38 358.573 190.493C357.343 190.787 355.733 191.714 353.741 193.274C352.942 193.992 352.14 194.097 351.335 193.59C350.529 193.082 350.38 192.239 350.887 191.061C351.328 189.257 352.994 187.69 355.882 186.342C357.425 185.933 358.324 185.204 358.578 184.135C358.832 183.065 358.689 181.895 358.145 180.583C357.798 180.374 356.481 181.004 354.171 182.434C351.863 183.885 350.507 184.908 350.081 185.505C349.736 186.093 349.587 187.192 349.592 188.786C349.621 190.623 349.572 193.061 349.403 196.104C349.254 199.146 349.171 201.076 349.173 201.873C349.256 202.661 349.094 203.639 348.708 204.805C348.322 205.97 347.897 206.771 347.475 207.204C346.443 208.029 345.526 208.003 344.723 207.128C344.301 206.211 344.134 205.003 344.217 203.461C344.301 201.939 344.417 199.944 344.608 197.491C344.778 195.04 344.819 193.298 344.711 192.267C344.853 191.291 344.672 187.038 344.208 179.503C343.744 171.968 343.783 167.098 344.343 164.872C344.222 164.497 344.505 163.894 345.174 163.108C345.844 162.322 346.555 161.735 347.306 161.329C348.056 160.922 348.603 160.905 348.967 161.275C349.394 161.476 349.544 161.93 349.477 162.652C349.39 163.377 349.242 164.292 349.053 165.396C348.843 166.501 348.77 167.163 348.796 167.406C348.838 167.81 349.111 167.7 349.595 167.076C349.747 166.978 349.859 166.884 349.931 166.795C350.425 166.273 351.332 165.42 352.632 164.24C353.931 163.06 354.838 162.208 355.332 161.685L356.406 160.488L356.275 156.904L356.089 155.125C356.031 154.579 356.025 154.13 356.074 153.818C356.12 153.486 356.093 153.223 355.987 152.989C355.881 152.755 355.806 152.62 355.757 152.543C355.709 152.466 355.507 152.488 355.174 152.605C354.821 152.724 354.53 152.857 354.261 153.008C353.992 153.159 353.497 153.477 352.753 153.945C351.259 154.818 349.465 155.744 347.392 156.72C345.299 157.698 343.992 158.225 343.449 158.282C341.961 158.44 341.122 157.609 340.932 155.789C340.807 154.596 340.949 153.825 341.34 153.477C341.728 153.108 342.755 152.816 344.395 152.56C345.642 152.428 346.556 152.229 347.138 151.963C347.7 151.699 348.815 151.091 350.462 150.119C352.77 148.669 354.07 147.693 354.383 147.19C354.697 146.686 354.645 145.608 354.23 143.976C354.101 143.519 353.725 142.455 353.125 140.802C352.525 139.148 352.177 137.774 352.101 136.658C352.025 135.542 352.349 134.751 353.113 134.282C353.489 133.997 353.76 133.866 353.966 133.885C354.171 133.904 354.552 134.048 355.147 134.291C355.732 134.638 356.187 135.101 356.494 135.702C356.801 136.303 357.257 137.747 357.898 139.99C358.125 140.599 358.315 141.254 358.466 141.912C358.616 142.571 358.763 143.005 358.903 143.174C359.045 143.364 359.426 143.508 360.084 143.581C360.805 143.668 361.308 143.819 361.553 144.018C361.797 144.217 361.985 144.647 362.05 145.274C362.124 145.982 361.738 147.147 360.869 148.752L360.741 148.888ZM357.431 174.158C357.414 170.889 357.186 168.705 356.75 167.647C356.468 167.289 355.893 167.431 355.012 168.138C354.13 168.844 353.208 169.739 352.27 170.881C351.313 172.025 350.688 173.052 350.397 173.962C350.069 174.712 349.815 175.782 349.593 177.154C349.371 178.527 349.353 179.326 349.539 179.552C349.726 179.777 350.262 179.659 351.169 179.195C352.076 178.731 354.079 177.477 357.194 175.389C357.381 175.614 357.459 175.197 357.431 174.158ZM362.268 163.465C361.742 163.684 361.428 163.983 361.343 164.34C361.259 164.696 361.217 165.662 361.213 167.175C361.237 169.728 361.575 171.02 362.205 171.015C362.535 171.062 362.936 170.815 363.43 170.293C363.853 169.859 364.414 169.596 365.078 169.525C365.741 169.455 366.185 169.612 366.386 169.98C367.505 171.537 366.939 173.315 364.688 175.311C363.8 175.957 363.29 176.522 363.133 176.968C362.979 177.434 362.887 178.302 362.877 179.571C362.85 180.861 363.036 181.475 363.438 181.433C363.76 181.399 364.628 180.755 366.1 179.475C366.602 179.033 367.127 178.61 367.636 178.229C368.145 177.848 368.524 177.583 368.748 177.395C368.973 177.208 369.211 176.958 369.499 176.601C369.786 176.243 370.084 175.782 370.429 175.194C370.952 174.177 371.205 173.292 371.167 172.54C371.129 171.787 370.781 170.598 370.145 168.989C369.039 165.999 367.565 164.151 365.744 163.465C364.332 162.981 363.193 162.979 362.288 163.463L362.268 163.465ZM367.685 132.105C367.862 132.25 368.828 132.925 370.58 134.129C372.333 135.334 373.753 136.083 374.8 136.381C378.102 137.626 379.952 138.595 380.348 139.269C381.119 140.618 381.216 142.12 380.633 143.736C380.05 145.351 378.928 145.899 377.286 145.358C376.717 145.173 376.377 145.025 376.279 144.871C376.182 144.718 376.137 144.294 376.144 143.577L376.249 142.258L374.355 141.252C373.778 140.986 372.729 140.668 371.224 140.276C369.719 139.883 368.471 139.422 367.505 138.932C366.539 138.441 366.087 137.814 366.174 137.09C366.116 134.213 366.615 132.566 367.689 132.146L367.685 132.105Z" fill="white"/>
<path d="M412.013 189.271C412.227 192.09 412.301 193.963 412.24 194.93C412.219 196.282 412.323 197.088 412.554 197.35C412.785 197.612 413.248 197.379 413.967 196.669C414.111 196.49 414.876 195.837 416.26 194.689C417.644 193.54 418.441 192.802 418.648 192.453C418.792 192.274 419.592 191.372 421.048 189.746C422.504 188.12 423.327 187.051 423.518 186.54C424.033 185.443 424.459 184.846 424.752 184.733C425.056 184.538 425.465 184.556 426.017 184.783C426.55 185.013 426.885 185.305 427.008 185.701C427.811 186.576 427.169 188.403 425.081 191.179C422.993 193.955 421.07 196.162 419.348 197.776C418.477 198.583 417.342 199.582 415.962 200.771C411.414 205.096 408.203 207.827 406.332 208.986C404.461 210.145 402.973 210.303 401.848 209.461C401.346 209.126 401.021 208.547 400.898 207.763C400.775 206.978 400.645 204.764 400.505 201.099C400.066 192.437 399.338 186.852 398.281 184.327L397.084 180.855L397.542 179.601C397.862 178.77 398.453 178.012 399.335 177.305C400.216 176.599 400.907 176.403 401.401 176.657C401.74 176.785 401.997 177.494 402.213 178.779C402.429 180.065 402.617 181.476 402.774 182.972C402.931 184.468 403.111 185.41 403.314 185.797C404.098 188.821 404.486 192.133 404.476 195.732C404.429 200.52 404.622 203.137 405.055 203.582C405.241 203.807 405.432 203.889 405.609 203.83C405.806 203.768 406.253 203.373 406.971 202.663L408.364 201.208L407.983 198.733C407.745 197.246 407.672 195.189 407.765 192.583C407.858 189.977 407.843 187.893 407.756 186.287C407.109 172.537 406.694 164.69 406.486 162.709L404.85 163.004C403.914 163.185 403.124 163.024 402.484 162.54C401.844 162.055 401.403 161.53 401.185 161.001C400.967 160.472 400.726 159.537 400.464 158.195C400.203 156.873 400.003 155.933 399.864 155.376C398.679 150.861 397.877 148.247 397.493 147.491C396.966 146.34 396.714 145.488 396.697 144.938C396.68 144.388 396.907 143.648 397.359 142.721C397.828 141.956 398.266 141.481 398.635 141.319C399.025 141.155 399.654 141.15 400.544 141.301C401.024 141.413 401.288 141.222 401.32 140.748C401.738 139.498 403.577 138.424 406.817 137.529C410.058 136.634 412.817 136.383 415.074 136.778C416.125 136.912 416.874 137.078 417.326 137.316C417.778 137.555 418.287 137.95 418.815 138.528C420.277 140.459 419.74 143.868 417.142 148.763C416.627 149.86 416.337 150.586 416.295 150.958C416.252 151.331 416.451 151.678 416.876 152.042C418.425 154.024 417.682 155.861 414.587 157.558C413.765 158.054 413.135 158.448 412.682 158.782C412.249 159.114 411.908 159.538 411.681 160.094C411.453 160.629 411.308 160.992 411.264 161.16C411.201 161.33 411.135 161.869 411.07 162.796C411.004 163.723 410.947 164.342 410.9 164.674C410.822 165.48 410.908 167.269 411.158 170.044C411.408 172.818 411.6 174.269 411.798 174.412C412.065 174.629 412.985 174.286 414.559 173.404C416.643 172.141 418.689 170.33 420.659 167.975C422.151 166.304 423.343 165.851 424.218 166.637C424.723 166.992 424.994 167.638 425.013 168.597C425.007 169.313 423.942 170.796 421.775 173.008C419.63 175.238 417.544 177.054 415.555 178.45C413.782 179.762 412.718 180.672 412.325 181.184C411.951 181.694 411.736 182.554 411.7 183.764C411.631 184.651 411.703 186.503 411.914 189.302L412.013 189.271ZM407.161 155.952C407.55 155.584 408.219 154.798 409.11 153.6C413.113 148.535 415.163 145.007 415.259 143.014C415.363 142.451 415.236 142.014 414.882 141.745C414.527 141.456 414.007 141.347 413.299 141.381C412.591 141.415 411.946 141.463 411.343 141.527C410.739 141.591 410.04 141.706 409.184 141.878C408.328 142.051 407.749 142.153 407.427 142.187C406.66 142.432 405.764 142.997 404.74 143.902C403.717 144.808 403.105 145.363 402.878 145.531C402.433 145.741 402.19 145.951 402.169 146.137C402.15 146.344 402.237 146.784 402.371 147.485C402.526 148.184 402.926 149.675 403.554 151.98C404.199 154.263 404.507 155.457 404.516 155.538C404.653 156.075 404.79 156.408 404.923 156.517C405.056 156.625 405.364 156.654 405.827 156.605C406.289 156.556 406.735 156.345 407.125 155.997L407.161 155.952ZM456.639 159.218C456.113 159.437 455.603 160.003 455.151 160.929C453.019 164.835 450.881 168.291 448.738 171.319C446.595 174.346 444.964 176.236 443.843 176.988C442.552 178.249 441.236 178.307 439.937 177.157C438.812 176.315 438.854 175.554 440.064 174.874C440.288 174.687 440.501 174.582 440.742 174.557C441.357 174.41 442.052 173.866 442.826 172.905C443.599 171.944 444.358 170.842 445.104 169.618C445.848 168.374 446.355 167.585 446.645 167.247C447.887 165.521 448.916 163.899 449.711 162.364C450.506 160.828 450.759 159.943 450.504 159.643C450.317 159.417 449.381 159.21 447.69 158.98C445.369 158.756 443.866 158.383 443.226 157.899C442.586 157.415 442.39 156.516 442.639 155.201C442.861 154.217 443.331 153.656 444.066 153.497C444.801 153.337 446.267 153.55 448.481 154.113C450.026 154.501 451.403 154.642 452.569 154.518C453.735 154.395 454.57 153.632 455.072 152.209C455.443 151.291 455.763 150.459 456.01 149.718C456.258 148.976 456.49 148.093 456.749 147.064C457.007 146.035 457.276 145.107 457.595 144.276C458.244 142.122 458.389 140.982 458.005 140.818C457.622 140.655 456.417 141.375 454.365 142.941C451.712 144.98 449.745 146.19 448.421 146.555C446.419 147.237 445.045 147.117 444.273 146.156C443.502 145.195 443.388 143.531 443.933 141.164C445.035 135.773 445.424 130.744 445.097 126.076C445.193 125.433 445.253 125.038 445.28 124.912C445.308 124.787 445.369 124.596 445.467 124.361C445.564 124.126 445.643 123.913 445.713 123.803C445.781 123.674 445.889 123.539 446.037 123.401C446.185 123.263 446.36 123.183 446.541 123.164C446.722 123.145 446.967 123.16 447.197 123.217C447.447 123.272 447.685 123.411 447.949 123.607C449.023 123.964 449.62 125.005 449.758 126.707C449.896 128.41 449.644 131.442 448.985 135.825C448.947 136.238 448.909 136.65 448.875 137.104C448.841 137.557 448.797 137.909 448.746 138.201C448.695 138.492 448.608 138.829 448.49 139.25C448.284 140.396 448.252 141.054 448.394 141.243C448.535 141.433 449.117 141.167 450.155 140.403C450.541 140.198 451.625 139.491 453.448 138.255C455.27 137.02 456.49 136.052 457.128 135.351C458.772 133.582 460.207 132.919 461.451 133.34C462.18 133.508 462.649 133.908 462.839 134.562C463.03 135.217 463.088 136.355 463.012 137.958C462.698 141.753 461.823 145.627 460.411 149.62C459.553 152.102 459.19 153.49 459.298 153.744C459.408 154.019 460.604 154.178 462.93 154.259C463.812 154.329 466.031 154.36 469.605 154.329C473.18 154.298 476.015 154.387 478.149 154.57C480.262 154.755 481.798 155.062 482.72 155.517C483.165 155.878 483.367 156.45 483.369 157.247C483.261 158.546 482.763 159.417 481.854 159.86C480.945 160.304 479.782 160.264 478.381 159.697C477.556 159.395 476.075 159.225 473.918 159.208C465.86 158.937 460.108 158.953 456.641 159.238L456.639 159.218ZM478.76 196.514C478.09 196.912 477.082 197.183 475.759 197.363C474.416 197.547 473.542 197.741 473.077 197.954C463.159 201.089 457.535 202.318 456.185 201.664C455.175 201.137 454.849 199.966 455.229 198.167C455.662 196.282 455.66 191.212 455.182 182.963C454.968 178.591 454.928 175.876 455.103 174.835C455.277 173.774 455.878 172.914 456.927 172.251C458.188 171.483 459.038 171.25 459.476 171.551C459.916 171.873 460.044 172.902 459.925 174.672C459.866 176.437 459.813 177.485 459.784 177.795C459.672 178.277 459.697 178.519 459.858 178.502C460.108 178.558 460.376 178.202 460.704 177.452C460.776 177.363 460.807 177.277 460.799 177.197C461.498 175.528 462.655 174.343 464.291 173.658C465.927 172.974 467.759 173.189 469.791 174.343C471.378 175.136 472.571 176.625 473.349 178.812C474.127 180.998 474.304 183.473 473.882 186.237C473.645 187.857 473.285 189.264 472.776 190.422C472.404 191.341 472.321 191.901 472.527 192.125C472.754 192.346 473.446 192.355 474.623 192.148C475.934 191.846 477.063 191.951 477.989 192.446C478.915 192.941 479.417 193.665 479.517 194.615C479.688 195.476 479.428 196.096 478.758 196.494L478.76 196.514ZM468.789 179.724C468.329 179.22 467.691 178.756 466.858 178.374C465.578 178.183 464.38 179.168 463.305 181.326C462.23 183.484 461.43 186.329 460.93 189.898C460.525 192.823 460.425 194.592 460.652 195.202C460.878 195.811 461.648 195.975 462.958 195.673C464.509 195.345 465.689 194.77 466.475 193.931C467.261 193.091 468.06 191.596 468.87 189.425C469.489 187.765 469.84 186.461 469.946 185.529C470.051 184.598 469.953 183.464 469.652 182.147C469.536 181.035 469.248 180.227 468.809 179.722L468.789 179.724Z" fill="white"/>
<path d="M521.968 184.172C521.451 184.86 520.853 185.169 520.213 185.073C519.908 185.269 519.195 185.058 518.055 184.463C516.915 183.868 515.921 183.115 515.074 182.203C514.226 181.291 513.973 180.623 514.333 180.176C514.443 178.897 515.002 178.02 516.035 177.604C517.067 177.168 518.247 177.37 519.613 178.186C520.374 178.657 521.074 179.319 521.726 180.109C522.36 180.921 522.715 181.598 522.772 182.144C522.758 182.78 522.484 183.463 521.966 184.151L521.968 184.172ZM514.368 159.934C513.814 159.114 513.436 158.029 513.256 156.699C513.076 155.369 512.981 154.071 513.035 152.839C513.069 151.608 513.139 150.334 513.226 149.036C513.42 141.759 513.667 136.745 513.975 134.055C514.281 131.344 514.781 129.717 515.436 129.178C516.824 128.07 518.157 128.174 519.391 129.475C520.645 130.773 521.196 132.35 521.085 134.201C520.969 135.42 520.932 136.814 520.996 138.401C521.041 139.991 521.01 141.446 520.927 142.783C520.843 144.121 520.596 145.64 520.207 147.357C519.401 151.122 518.986 153.946 518.963 155.87C518.909 159.229 518.137 160.986 516.649 161.144C515.696 161.163 514.944 160.773 514.39 159.952L514.368 159.934Z" fill="white"/>
<path d="M111.612 199.999C113.766 199.403 115.681 199.834 117.334 201.253C118.843 202.852 119.72 204.824 119.924 207.153C120.127 209.482 119.626 211.682 118.415 213.711C118.018 214.387 117.633 215.368 117.3 216.65C116.967 217.933 116.539 218.898 116.064 219.602C115.848 219.87 115.499 220.418 114.978 221.271C114.478 222.121 113.987 222.868 113.548 223.528C113.106 224.167 112.688 224.641 112.332 224.924C111.823 225.305 111.038 225.572 109.98 225.766C108.923 225.959 108.026 225.932 107.288 225.683C105.815 225.205 105.204 224.023 105.496 222.152C105.368 220.162 105.299 218.718 105.284 217.8C105.269 216.881 105.038 215.454 104.589 213.499C104.14 211.543 103.809 210.126 103.553 209.234C103.297 208.341 102.891 206.994 102.355 205.17C101.798 203.348 101.464 202.095 101.309 201.396C101.04 200.382 101.038 199.585 101.303 199.005C101.567 198.425 102.174 198.198 103.144 198.34C103.937 198.338 104.549 198.559 105 198.982C105.451 199.404 105.839 200.201 106.206 201.369C106.58 202.617 106.827 203.224 106.988 203.207C107.945 201.675 109.501 200.611 111.654 200.015L111.612 199.999ZM115.295 207.214C115.295 206.825 115.174 206.45 114.935 206.107C114.696 205.764 114.532 205.557 114.439 205.444C114.346 205.331 114.081 205.134 113.667 204.872C113.165 204.536 112.584 204.618 111.971 205.174C111.356 205.709 110.854 206.539 110.497 207.599C110.151 208.76 109.967 210.108 109.967 211.662C109.967 213.215 110.147 214.546 110.503 215.612C110.86 216.698 111.291 217.123 111.837 216.901C113.007 216.614 114.06 213.865 115.019 208.653C115.203 208.082 115.273 207.584 115.293 207.193L115.295 207.214ZM132.892 172.581C134.657 171.188 135.922 170.461 136.707 170.378C136.948 170.353 137.194 170.572 137.484 171.012C137.774 171.451 137.95 171.964 138.007 172.51C138.09 173.298 137.932 173.928 137.557 174.418C137.181 174.907 136.235 175.58 134.741 176.454L132.513 177.896L132.712 179.796C133.043 182.95 133.926 184.983 135.381 185.871C135.886 186.226 136.177 186.482 136.239 186.68C136.3 186.878 136.294 187.205 136.163 187.71C135.348 190.597 134.069 191.202 132.311 189.549C131.08 188.473 130.264 187.088 129.84 185.374C129.597 184.603 129.351 183.811 129.124 182.997C128.876 182.185 128.603 181.519 128.323 180.976C128.136 180.751 127.885 180.675 127.587 180.748C127.27 180.822 126.392 181.181 124.953 181.803C123.649 182.35 121.924 182.962 119.72 183.666C117.517 184.369 116.075 184.767 115.371 184.841C114.515 185.014 113.996 184.333 113.795 182.801C113.594 181.268 113.669 180.238 114.003 179.733C114.066 179.562 114.918 179.35 116.558 179.094C118.198 178.839 119.821 178.606 121.425 178.395C123.029 178.184 123.819 177.957 123.793 177.715C124.77 177.141 125.367 176.628 125.608 176.214C125.849 175.8 125.922 175.139 125.831 174.269C125.814 174.107 125.833 173.901 125.891 173.67C125.816 172.962 125.799 172.412 125.844 172.06C125.886 171.688 125.918 171.214 125.937 170.619C125.956 170.024 126.03 169.567 126.163 169.287C126.294 168.987 126.47 168.723 126.666 168.457C126.862 168.191 127.175 168.076 127.586 168.114C127.996 168.153 128.395 168.274 128.82 168.454C129.256 168.735 129.507 169.383 129.615 170.414C130.098 173.47 131.21 174.19 132.932 172.577L132.892 172.581ZM160.542 233.557C159.915 233.194 159.194 232.719 158.425 232.166C157.655 231.614 157.09 231.265 156.772 231.135C155.78 231.567 154.462 232.177 152.798 232.987C151.135 233.797 149.337 234.682 147.427 235.661C145.494 236.622 144.2 237.27 143.52 237.567C142.623 238.132 141.685 238.293 140.704 238.049C139.723 237.806 139.083 237.321 138.767 236.639C138.469 236.119 137.817 235.718 136.796 235.478C135.772 235.219 135.226 234.663 135.135 233.794C134.917 233.265 134.748 232.813 134.631 232.478C134.513 232.122 134.408 231.704 134.315 231.203C134.222 230.702 134.141 230.322 134.076 230.083C134.01 229.845 133.999 229.356 133.981 228.601C133.983 227.844 133.985 227.272 133.982 226.863C133.982 226.475 133.976 225.637 133.963 224.351C133.953 223.085 133.945 222.043 133.943 221.246C133.869 220.538 133.767 219.568 133.698 218.328C133.612 217.111 133.545 216.28 133.505 215.895C133.464 215.511 133.446 214.757 133.457 213.693C133.467 212.629 133.53 211.477 133.626 210.261C133.722 209.045 133.834 207.397 133.942 205.321C134.392 200.49 135.095 197.697 136.035 196.964C136.618 196.513 137.306 196.481 138.125 196.926C138.922 197.353 139.442 198.054 139.701 198.967C139.855 199.666 140.018 200.058 140.188 200.122C140.357 200.186 140.726 200.024 141.336 199.632C141.925 199.243 142.529 198.995 143.164 198.846C144.164 198.495 145.455 198.01 147.053 197.351C148.651 196.691 149.866 196.256 150.673 196.007C151.481 195.758 152.451 195.512 153.564 195.271C154.698 195.029 155.727 194.96 156.694 195.063C157.66 195.165 158.643 195.429 159.647 195.895C161.628 196.564 163.02 197.623 163.84 199.049C164.66 200.474 165.434 203.398 166.117 207.782C166.559 210.454 166.818 212.144 166.892 212.851C166.966 213.559 166.93 214.769 166.802 216.459C166.654 218.151 166.572 219.508 166.52 220.557C166.573 221.839 166.639 222.67 166.72 223.05C166.802 223.45 167.045 224.017 167.429 224.774C168.118 225.334 168.449 225.974 168.398 226.654C168.348 227.334 168.204 227.901 167.982 228.313C167.743 228.747 167.408 229.232 166.938 229.793C166.488 230.352 166.191 230.813 166.064 231.153C165.728 231.823 165.161 232.434 164.341 232.951C163.523 233.487 162.76 233.772 162.057 233.847C161.671 234.051 161.174 233.96 160.544 233.577L160.542 233.557ZM146.469 217.978C146.236 218.084 145.65 218.31 144.688 218.636C143.728 218.983 143.006 219.264 142.518 219.459C142.032 219.674 141.454 219.98 140.822 220.354C140.193 220.748 139.722 221.104 139.454 221.46C139.416 221.872 139.408 223.734 139.453 227.081C139.6 230.03 139.775 231.708 139.981 232.116C140.188 232.544 140.936 232.505 142.232 232.061C143.384 231.612 144.155 231.02 144.544 230.263C146.644 223.724 147.272 219.63 146.467 217.957L146.469 217.978ZM140.113 206.201C139.589 207.217 139.245 208.787 139.124 210.926C138.982 213.067 139.176 214.334 139.707 214.748C140.158 215.171 141.286 215.072 143.131 214.447C144.977 213.822 146.046 213.157 146.382 212.488C146.509 212.147 146.449 210.6 146.199 207.826C145.949 205.052 145.752 203.56 145.546 203.336C144.26 202.512 142.468 203.458 140.131 206.179L140.113 206.201ZM154.08 206.991C155.469 205.495 156.563 204.684 157.347 204.601C157.81 204.552 158.253 204.71 158.655 205.056C159.059 205.422 159.265 205.829 159.313 206.294C159.371 206.84 158.696 207.975 157.289 209.677C155.882 211.38 154.56 212.542 153.362 213.139C152.379 213.652 151.7 214.541 151.324 215.808C150.951 217.094 150.691 218.696 150.567 220.61C150.444 222.545 150.286 223.952 150.056 224.855C149.817 225.678 149.677 226.285 149.599 226.702C149.52 227.119 149.476 227.472 149.47 227.799C149.463 228.127 149.521 228.285 149.585 228.319C149.67 228.351 149.873 228.35 150.175 228.318C150.476 228.286 150.812 228.189 151.161 228.029C151.51 227.87 152.02 227.693 152.711 227.497C153.402 227.301 154.051 227.09 154.677 226.86C157.731 225.739 159.653 225.065 160.42 224.821C161.115 224.665 161.577 224.412 161.766 224.085C161.974 223.736 162.069 223.093 162.03 222.136C162.044 221.501 162.106 220.533 162.193 219.236C162.303 217.957 162.381 216.947 162.407 216.229C162.433 215.511 162.477 214.566 162.477 213.4C162.477 212.235 162.4 211.119 162.244 210.011C162.087 208.903 161.908 207.778 161.703 206.593C161.091 203.857 160.36 202.115 159.489 201.37C158.618 200.624 157.009 200.017 154.643 199.552C153.931 199.546 153.095 199.716 152.129 200.002C151.165 200.309 150.585 200.595 150.367 200.843C150.142 201.03 150.134 202.503 150.364 205.279C150.554 207.099 150.673 208.231 150.784 208.71C150.873 209.171 151.039 209.399 151.28 209.373C151.734 209.243 152.666 208.429 154.054 206.933L154.08 206.991ZM165.539 165.772L168.349 165.23C168.972 165.164 170.025 164.929 171.487 164.529C172.95 164.129 174.023 163.893 174.686 163.823C175.35 163.752 176.211 163.825 177.268 164.019C178.216 164.716 178.3 165.914 177.52 167.591C176.614 169.608 175.335 170.214 173.667 169.429C173.386 169.071 172.026 169.092 169.568 169.496C167.112 169.919 165.576 170.204 164.961 170.351C164.292 170.749 163.796 172.233 163.518 174.817C163.546 175.857 163.446 176.849 163.24 177.791C163.014 178.734 162.842 179.427 162.688 179.893C162.533 180.359 162.243 181.085 161.78 182.095C161.337 183.103 161.04 183.768 160.913 184.108C160.778 184.368 160.351 184.761 159.618 185.329C158.883 185.877 158.328 186.017 157.995 185.746C157.639 185.457 157.496 185.063 157.502 184.531C157.529 184.017 157.805 182.966 158.372 181.393C159.458 178.171 159.85 175.124 159.554 172.293C159.514 171.909 159.428 171.673 159.299 171.605C159.17 171.537 158.723 171.543 157.939 171.626C156.451 171.784 153.796 171.86 149.976 171.876C146.156 171.892 144.248 171.727 144.214 171.403C143.939 171.105 143.854 170.685 143.958 170.122C144.061 169.559 144.316 169.082 144.767 168.728C145.422 168.188 146.418 167.797 147.736 167.575C149.055 167.354 150.692 167.262 152.641 167.24C154.593 167.238 155.986 167.152 156.842 166.979C158.741 166.86 159.858 166.66 160.229 166.314C160.601 165.988 160.814 165.107 160.907 163.666C161.064 162.055 161.253 160.952 161.517 160.372C161.782 159.792 162.35 159.2 163.246 158.635C164.546 157.455 165.476 157.214 166.037 157.911C166.578 158.61 166.564 159.838 165.954 161.579C165.519 162.667 165.337 163.647 165.428 164.517L165.563 165.811L165.539 165.772Z" fill="white"/>
</svg>
