<svg width="536" height="234" viewBox="0 0 536 234" fill="none" xmlns="http://www.w3.org/2000/svg">
<path d="M68.482 100.632C67.8186 101.497 66.8457 102.384 65.5853 103.249C64.3249 104.115 63.1308 104.374 62.0031 104.007C61.1849 103.942 60.0572 103.574 58.5978 102.903C57.1384 102.233 56.4308 101.779 56.4308 101.476C56.4308 101.259 55.9885 100.502 55.0819 99.1827C53.4456 96.7167 52.9591 95.1375 53.6225 94.4886C53.91 94.1209 54.2638 94.0776 54.6839 94.3804C55.0819 94.6616 55.6347 95.3971 56.2981 96.5653C57.1162 97.7983 57.7796 98.6852 58.3103 99.2476C58.8189 99.7884 59.438 100.134 60.1014 100.286C60.61 100.502 61.1186 100.524 61.6051 100.351C62.0915 100.178 62.6443 99.7884 63.2856 99.2043C63.9047 98.6203 64.2807 98.3391 64.347 98.3391C65.3199 97.3224 66.2929 95.6351 67.2437 93.3205C68.2167 90.9843 68.9243 88.475 69.3665 85.771C69.7424 83.8025 69.8751 82.6128 69.7645 82.2234C69.654 81.834 69.079 81.3581 68.0398 80.8606C67.0005 80.4279 66.2929 80.0602 65.917 79.7574C65.5411 79.4761 65.3642 79.0651 65.3642 78.546C65.3642 78.0268 65.5853 77.6807 66.0275 77.4428C66.4698 77.2048 67.2658 77.1183 68.3715 77.1183C69.3444 77.1183 69.9856 77.0534 70.3173 76.902C70.649 76.7505 70.848 76.5991 70.9365 76.4044C71.0028 76.2314 71.047 75.7122 71.047 74.8686C71.047 74.0249 71.1134 73.2462 71.2682 72.5107C71.3345 70.6071 71.3566 69.4174 71.3345 68.8982C71.2903 68.379 71.0913 67.7301 70.7154 66.9297C70.5606 66.3457 70.2952 65.8698 69.9414 65.502C69.5655 65.1343 69.0127 64.8963 68.2609 64.7882C67.5091 64.68 66.8899 64.6151 66.3592 64.6151C65.8285 64.6151 65.0104 64.68 63.9048 64.7882C62.7991 64.8963 62.0031 64.9612 61.5608 64.9612C60.4331 65.1126 59.2612 65.4804 58.045 66.1077C56.8288 66.735 53.6667 68.379 48.603 71.083C47.7185 71.5156 46.0822 72.4026 43.7383 73.7654C41.3944 75.1282 39.5811 76.0367 38.3207 76.5559C37.6574 76.8371 36.8613 76.5559 35.9768 75.6906C35.0923 74.8253 34.827 74.0466 35.2029 73.3976C35.5788 72.5323 36.7286 70.3692 38.6745 66.9514C40.6204 63.5335 42.0356 60.7863 42.9201 58.7529C43.5835 57.3685 43.8488 56.5032 43.694 56.1787C43.5393 55.8542 42.8317 55.7894 41.5713 56.0057C39.3379 56.3734 37.6574 56.0706 36.5517 55.1404C36.1095 54.8592 35.8442 54.5996 35.7778 54.3833C35.7115 54.167 35.7115 53.7343 35.7778 53.0637C35.9326 51.3116 36.198 49.819 36.6181 48.586C37.0161 47.353 37.9448 45.0167 39.36 41.5989C39.5148 41.0797 39.5369 40.7553 39.4264 40.6255C39.3158 40.4957 38.2986 40.5822 36.4191 40.95C34.5395 41.3177 33.4118 41.5989 33.1243 41.8152C32.3062 43.8486 31.2227 47.3313 29.8959 52.2417C28.5692 57.1522 27.5078 60.6349 26.7781 62.6683C24.9206 67.6868 21.8249 74.5008 17.513 83.1103C13.2011 91.6981 10.1717 97.2791 8.46904 99.8316C8.18158 100.264 7.54032 101.368 6.56738 103.12C5.59443 104.872 4.88683 106.04 4.44459 106.624C3.69277 107.489 3.09573 107.987 2.60926 108.095C2.12279 108.203 1.54787 107.965 0.884494 107.381C0.28746 106.862 0 106.364 0 105.845C0 105.326 0.221126 104.569 0.663374 103.552C0.884497 102.968 1.39308 101.627 2.16701 99.5072C2.94094 97.3873 3.67066 95.5269 4.33403 93.8829C4.9974 92.2389 5.59443 91.0708 6.12513 90.3353C6.34625 90.119 6.6116 90.3786 6.89906 91.0924C7.05385 91.4601 7.12019 91.7846 7.12019 92.0658C7.12019 92.5634 7.16441 92.823 7.23075 92.823C7.29708 92.823 7.40764 92.7581 7.56243 92.6066C16.4295 76.5126 21.7143 65.1126 23.417 58.4068C23.6381 57.6064 24.0361 56.3301 24.6553 54.578C25.2523 52.8258 25.7388 51.2683 26.1147 49.8839C26.4906 48.4994 26.9329 46.531 27.4636 43.9784L27.7952 42.4425L26.8002 41.6854C26.4243 41.4691 26.181 41.2312 26.0705 40.9716C25.9599 40.712 25.982 40.4524 26.1368 40.2145C26.2916 39.9549 26.4464 39.7386 26.6454 39.5655C26.8223 39.3925 27.0655 39.1761 27.3751 38.9598C27.6626 38.7435 27.8616 38.5488 27.9279 38.419C28.525 38.0513 29.0335 37.4456 29.4316 36.6236C29.8296 35.78 30.0507 35.0445 30.0507 34.3739C30.4266 32.7731 31.3996 29.5716 33.0138 24.7694C34.6059 19.9671 35.6672 16.3114 36.1979 13.8453C36.9498 9.69203 39.0283 5.38731 42.4558 0.952796C43.2739 0.0875252 44.0921 -0.193688 44.9102 0.130789C45.7284 0.455265 46.2591 1.01769 46.4802 1.81807C46.4802 2.12091 45.662 3.41882 44.0257 5.75505C43.2076 6.33911 41.0406 12.7421 37.5468 24.9857C37.2593 25.7861 36.8834 26.8677 36.4191 28.2088C35.9547 29.55 35.5346 31.021 35.0702 32.5785C34.6059 34.1359 34.3184 35.2175 34.1857 35.8016C33.7435 36.602 33.9646 36.9697 34.8491 36.9048C35.5125 36.8399 36.5296 36.5371 37.8564 36.0395C39.0504 35.5204 40.3108 35.2824 41.6597 35.2824C43.0086 35.2824 43.8488 35.4987 44.2247 35.9314C44.5122 36.4505 44.6228 37.1428 44.5564 38.008C44.4901 38.8733 44.3795 39.5439 44.2247 39.9765C44.07 40.4092 43.8267 41.0581 43.495 41.8801C43.1633 42.7021 42.9201 43.3943 42.7653 43.8919C42.5442 44.6274 42.2125 45.4061 41.8145 46.2497C41.3944 47.0934 41.0848 47.8289 40.8637 48.4994C40.6425 49.17 40.5762 49.9488 40.6425 50.9006C40.7089 51.1169 41.8366 51.225 44.0036 51.225C46.3918 51.225 47.8954 51.4414 48.5367 51.874C49.1558 52.3066 49.2664 53.2152 48.8241 54.5996C48.1607 56.5032 47.1436 58.9909 45.8168 62.0842C44.4901 65.1775 43.5393 67.3407 43.0307 68.5954C44.07 68.379 46.2149 67.384 49.4433 65.6534C52.6717 63.9229 54.8166 62.8413 55.8559 62.4952C58.5314 61.392 62.2242 60.57 66.912 59.9859C68.8579 59.6182 70.5385 59.9427 71.9979 60.9593C73.4573 61.976 74.5187 63.2523 75.1821 64.7882C76.0002 66.6918 76.3098 69.6337 76.0666 73.6356C76.0002 75.6041 76.0002 76.6856 76.1329 76.9236C76.2656 77.1615 76.9732 77.4644 78.2999 77.897C79.4276 78.1133 82.1696 79.0219 86.5699 80.6226L90.5944 82.0503L90.4838 81.9422C91.0809 81.7907 91.5452 82.072 91.8769 82.7642C92.2086 83.4564 92.3634 84.2351 92.3191 85.122C92.2749 85.9873 92.0317 86.5714 91.5894 86.8742C91.0587 87.242 90.3069 87.4366 89.2898 87.4799C88.2726 87.5232 87.4765 87.3501 86.8795 86.9824C81.8158 84.0621 78.2336 82.5479 76.155 82.3964C75.7791 82.245 75.4695 82.3964 75.2042 82.894C74.9388 83.3699 74.6293 84.3649 74.2533 85.9008C74.0322 86.9175 73.8111 87.8909 73.59 88.7994C73.3688 89.708 73.1919 90.4218 73.0814 90.9194C72.9708 91.4169 72.7497 92.1307 72.418 92.996C72.0863 93.8613 71.8652 94.4021 71.7989 94.5751C71.7325 94.7482 71.4672 95.3539 71.0249 96.3706C70.5827 97.3873 70.3173 97.9713 70.251 98.1227C69.8088 98.9231 69.2559 99.7667 68.5705 100.632H68.482ZM26.9771 20.854C27.751 22.3899 28.8124 23.5796 30.1613 24.4665C31.5101 25.4183 31.8639 26.3701 31.289 27.3003C30.692 28.2521 29.4979 28.1656 27.7068 27.084C26.955 26.7162 25.982 25.9808 24.8101 24.8992C23.616 23.796 22.7979 22.9307 22.3556 22.2817C22.0681 21.8491 21.8912 21.0487 21.847 19.8806C21.8028 18.7125 22.0239 18.0203 22.4662 17.804C23.1295 17.2199 23.8371 17.155 24.589 17.5876C25.4071 18.2366 26.2032 19.3398 26.9992 20.8757L26.9771 20.854ZM30.7804 83.305C32.0187 82.8291 32.9474 83.0021 33.6329 83.8025C34.2299 84.0837 34.4953 84.5164 34.4069 85.0571C34.3405 85.5979 34.1194 86.1171 33.7877 86.593C33.456 87.0689 33.1022 87.5664 32.7263 88.1289C32.3504 88.6696 32.1735 89.1023 32.1735 89.3835C31.9524 90.2488 31.4659 91.352 30.7141 92.6715C29.9623 93.9911 29.2547 94.9645 28.5913 95.6134C26.8665 97.2142 25.584 97.1493 24.6774 95.3971C24.1467 94.4453 24.4121 93.2556 25.4513 91.7846C26.1147 90.9194 26.8223 89.708 27.5741 88.1721C28.3259 86.6363 28.7019 85.6628 28.7019 85.2302C28.8566 84.4298 29.5421 83.7809 30.7583 83.3266L30.7804 83.305ZM39.8907 82.9156C40.3993 82.8507 40.9742 82.7642 41.5713 82.6993C42.1683 82.6344 42.5 82.5479 42.5663 82.483C42.9422 82.3315 43.4508 82.6128 44.1363 83.305C44.8218 83.9972 45.4851 84.7976 46.1485 85.7061C46.8119 86.6146 47.2762 87.1554 47.4974 87.2852C47.9396 87.7179 48.205 87.9991 48.2713 88.1072C48.3376 88.2154 48.4482 88.3884 48.603 88.6048C48.7578 88.8211 48.8462 89.0158 48.8905 89.2104C48.9347 89.3835 48.9347 89.6214 48.8905 89.8594C48.8462 90.119 48.7578 90.3569 48.603 90.5732C48.3819 91.3736 47.9396 91.9793 47.2541 92.3687C46.5908 92.7581 45.8389 92.7797 45.0208 92.4336C44.5785 92.2822 43.694 91.1357 42.3894 88.9941C41.0848 86.8526 40.1782 85.5979 39.6475 85.2302C39.1168 84.8625 38.7851 84.4731 38.6524 84.0837C38.4976 83.6727 38.6082 83.3699 38.9841 83.1535C39.0504 83.0887 39.36 83.0021 39.8686 82.9372L39.8907 82.9156ZM54.8608 79.9737C55.7453 80.4928 56.7182 81.25 57.7575 82.2666C58.7968 83.2833 59.3938 83.9107 59.5486 84.127C60.0572 84.8625 59.8803 85.6845 58.9958 86.6363C58.1113 87.5881 57.271 87.8693 56.5413 87.5015C56.0991 87.2852 55.3473 86.593 54.308 85.4249C53.2687 84.2568 52.5832 83.5646 52.2958 83.3482C51.4776 82.7642 51.0796 82.072 51.1238 81.2716C51.168 80.4712 51.5439 79.8871 52.2958 79.5194C53.1139 79.3031 53.9763 79.4545 54.8608 79.952V79.9737Z" fill="white"/>
<path d="M204.252 91.6116C207.524 90.6382 210.067 90.0541 211.836 89.9243C213.097 89.9243 213.893 89.8162 214.18 89.5998C214.468 89.3835 214.667 88.7562 214.733 87.7395C214.733 86.9391 214.932 86.2253 215.352 85.6196C215.75 84.9923 215.993 84.5164 216.082 84.1486C216.082 83.6295 216.237 82.8291 216.524 81.7475C217.121 79.6276 217.121 78.5893 216.524 78.5893C216.148 78.6542 215.043 79.5627 213.163 81.3149C212.566 81.834 212.19 82.1152 212.035 82.1801C211.593 82.3316 211.107 82.2667 210.576 82.0071C210.045 81.7475 209.714 81.4014 209.581 80.9687C209.36 80.3198 209.78 79.2598 210.863 77.8105C211.947 76.3612 212.853 75.4743 213.605 75.1931C216.281 73.5274 217.785 72.4242 218.072 71.905C218.359 71.4724 218.647 70.499 218.912 69.0064C219.178 67.5138 219.31 66.1942 219.355 65.0694C219.399 63.9445 219.288 63.274 219.067 63.0576C218.536 63.0576 217.497 63.685 215.949 64.918C213.871 66.5187 212.279 67.6436 211.195 68.3142C210.112 68.9631 208.011 70.0663 204.893 71.6022C202.593 72.7054 200.692 72.8352 199.188 72.0348C198.746 71.8185 198.458 71.6238 198.348 71.4291C198.237 71.2345 198.171 70.91 198.171 70.3908C198.171 69.2227 198.657 68.0978 199.63 66.9946C200.073 66.7134 200.802 65.3939 201.797 63.0576C202.792 60.7214 203.478 59.3153 203.81 58.8611C204.141 58.4068 204.672 57.3036 205.379 55.573C206.087 53.8641 206.618 52.7609 206.994 52.2417C207.502 51.5063 207.856 50.7924 207.989 50.0569C208.144 49.1051 208.63 48.4995 209.448 48.1966C210.266 47.9154 211.018 48.1317 211.682 48.8456C212.19 49.4945 212.102 50.5328 211.394 51.9605C210.686 53.3882 210.333 54.2751 210.333 54.6429C210.266 55.0755 209.957 55.811 209.448 56.8277C208.917 57.8444 208.674 58.5366 208.674 58.9043C208.674 59.2721 208.409 59.7047 207.9 60.2239C207.458 60.5916 207.016 61.2622 206.551 62.2356C206.087 63.2091 205.822 64.0527 205.711 64.7449C205.601 65.4371 205.711 65.8481 205.999 65.9996C207.569 65.4804 209.846 64.2258 212.876 62.2356C215.905 60.2455 217.762 59.0558 218.514 58.688C219.023 58.4717 219.399 58.277 219.642 58.1472C219.885 58.0174 220.04 57.8011 220.151 57.5415C220.261 57.282 220.327 57.044 220.327 56.8277C220.327 56.6114 220.327 56.2004 220.394 55.6163C220.438 55.0323 220.482 54.4482 220.571 53.8641C220.725 52.112 221.013 50.3382 221.455 48.4995C221.897 46.6607 222.273 45.5792 222.583 45.2114C222.87 44.9302 223.401 44.7572 224.153 44.7139C224.905 44.6706 225.458 44.8004 225.833 45.1033C226.209 45.3845 226.276 46.0767 226.055 47.1799C225.988 47.5477 225.922 47.937 225.878 48.3913C225.833 48.8239 225.789 49.1917 225.701 49.4945C225.634 49.7757 225.546 50.1435 225.48 50.5977C225.259 51.6144 225.126 52.4364 225.082 53.0638C225.037 53.6911 225.281 53.9939 225.811 53.9939C226.342 53.9939 227.182 53.5829 228.376 52.7825C229.04 52.2634 229.88 51.701 230.897 51.0953C231.914 50.4896 232.821 49.8839 233.639 49.2998C234.678 48.4995 235.696 48.0668 236.646 47.9803C237.243 47.8289 237.708 47.8505 238.039 48.0452C238.371 48.2399 238.592 48.4562 238.703 48.759C238.813 49.0619 238.946 49.408 239.101 49.8623C239.101 50.1435 238.858 50.5328 238.371 51.0087C237.885 51.4846 237.487 51.7226 237.199 51.7226C236.912 51.7226 236.071 52.1552 234.745 53.0421C233.418 53.929 231.959 54.8808 230.389 55.9408C228.819 57.0007 227.779 57.6713 227.271 57.9525C226.143 58.5366 225.48 59.0774 225.259 59.5966C224.728 60.5484 224.33 62.1058 224.02 64.2907C223.733 66.4755 223.755 67.6868 224.131 67.9032C224.286 67.9681 225.502 67.6436 227.824 66.9297C229.681 66.2808 230.919 65.913 231.516 65.8265C232.113 65.7616 232.755 65.8698 233.418 66.151C234.302 66.5836 234.656 67.3191 234.413 68.3358C234.037 69.7202 233.506 70.672 232.799 71.1696C232.091 71.6887 231.45 71.5806 230.853 70.8451C230.477 70.3259 230.035 70.088 229.504 70.1312C228.973 70.1745 228.155 70.4341 227.05 70.9532C226.077 71.3859 225.126 72.0348 224.197 72.8568C223.268 73.7005 222.649 74.436 222.362 75.1065C221.61 77.2265 221.168 80.3847 221.013 84.6029L220.792 87.8909L222.804 87.7828C224.153 87.5015 226.364 87.0689 229.46 86.5281C232.556 85.9873 234.612 85.598 235.651 85.3816C235.872 85.1653 236.823 84.9057 238.504 84.6245C240.184 84.3433 242.108 84.0188 244.319 83.6944C246.509 83.3699 248.676 83.067 250.798 82.7642C252.921 82.4613 254.712 82.2018 256.15 81.9422C257.587 81.6826 258.25 81.5312 258.095 81.4446C258.317 81.4446 258.692 81.3581 259.223 81.1634C259.732 80.9904 260.196 80.839 260.572 80.7308C260.948 80.6226 261.39 80.5145 261.921 80.4063C262.429 80.2982 262.894 80.2549 263.27 80.2982C263.646 80.3414 264.022 80.428 264.397 80.5794C264.773 80.7308 265.039 80.9904 265.171 81.3365C265.326 81.7042 265.392 82.1801 265.392 82.7642C265.392 83.9323 264.994 84.6894 264.221 85.0572C263.447 85.4249 262.319 85.6196 260.859 85.6628C259.4 85.7061 258.383 85.8575 257.786 86.1604C256.968 86.3767 255.575 86.6147 253.607 86.8742C251.639 87.1338 249.87 87.3501 248.3 87.5232C246.73 87.6962 245.845 87.8693 245.624 88.0207C231.561 90.941 219.31 93.3421 208.873 95.2241C207.9 95.4404 205.932 96.0677 202.947 97.0844C199.962 98.1011 197.773 98.6852 196.358 98.8366C196.137 98.6852 195.849 98.2309 195.517 97.4738C195.186 96.7167 195.009 96.111 195.009 95.6784C195.009 95.3972 195.318 94.9429 195.96 94.3588C196.601 93.7748 197.087 93.4936 197.463 93.4936C198.724 93.2772 201.001 92.6715 204.274 91.6981L204.252 91.6116ZM207.038 37.1428C207.701 35.1743 208.033 31.8213 207.989 27.084C207.945 22.3466 207.524 19.1884 206.706 17.5876C206.485 17.3064 206.352 16.6142 206.308 15.511C206.264 14.4078 206.22 13.7155 206.131 13.4343C205.755 11.7687 206.286 10.925 207.701 10.925C208.453 10.8601 209.05 10.925 209.537 11.0981C210.023 11.2712 210.377 11.6605 210.598 12.2446C210.819 12.8286 210.974 13.218 211.04 13.456C211.107 13.6723 211.217 14.2563 211.372 15.2081L211.704 16.0734C211.991 14.4078 212.787 13.0233 214.048 11.985C215.308 10.925 216.812 10.3194 218.514 10.1896C219.775 10.1247 220.969 9.92998 222.096 9.64877C223.291 9.36756 224.728 9.36756 226.453 9.64877C228.155 9.92998 229.349 10.3842 230.035 10.9683C230.853 11.7687 231.45 13.0233 231.826 14.7322C232.202 16.4411 232.224 18.0635 231.936 19.5994C231.715 20.8324 231.229 22.3034 230.477 24.0339C229.725 25.7428 229.128 26.7811 228.686 27.1489C228.31 27.7329 228.023 28.3819 227.801 29.1174C227.58 29.8529 227.271 30.4802 226.851 31.021C226.43 31.5618 225.679 32.2323 224.551 33.0327C223.578 33.9845 222.34 35.0445 220.814 36.191C219.288 37.3591 218.293 38.1162 217.851 38.4839C214.49 41.3177 211.814 42.7454 209.802 42.7454C206.817 42.8968 205.888 41.0365 207.016 37.1644L207.038 37.1428ZM224.639 26.6514C225.037 26.0024 225.435 25.1588 225.811 24.1421C226.187 23.1254 226.519 22.2817 226.806 21.6328C226.806 20.8324 225.811 21.2218 223.799 22.8442C223.202 23.4282 222.207 24.0988 220.836 24.8559C219.465 25.613 218.47 26.262 217.873 26.7595C217.276 27.3436 216.524 27.906 215.573 28.4468C214.645 28.9876 213.959 29.2688 213.517 29.2688C212.699 29.2688 212.212 30.61 212.057 33.3139C211.991 34.9796 211.881 36.0179 211.726 36.364C211.571 36.7967 211.726 37.013 212.168 37.013C212.677 36.9481 213.318 36.6885 214.07 36.2559C214.821 35.8232 215.374 35.1743 215.75 34.3523C216.126 33.5086 216.988 32.838 218.315 32.3405C219.797 31.605 221.3 30.4369 222.782 28.8362C223.6 28.0358 224.219 27.3003 224.617 26.6514H224.639ZM212.411 17.6958C212.345 17.8472 212.301 18.7557 212.301 20.4214V22.9956C212.301 23.2552 212.301 23.5147 212.367 23.8176C212.411 24.0988 212.455 24.2935 212.544 24.3584C212.61 24.4233 212.721 24.5098 212.831 24.5747C212.942 24.6396 213.119 24.618 213.384 24.4665C213.65 24.3151 213.915 24.1637 214.224 23.969C214.512 23.796 214.888 23.558 215.352 23.2552C216.17 22.6062 217.453 21.8058 219.2 20.8973C220.947 19.9888 222.207 19.2749 222.937 18.7774C224.197 17.977 225.347 17.6093 226.408 17.6742L227.978 17.7823C228.266 16.2465 227.824 15.0135 226.629 14.0617C225.435 13.1099 223.976 12.9584 222.273 13.629C218.558 14.7322 216.391 15.6624 215.794 16.4628C215.573 16.8305 215.175 17.2199 214.622 17.6093C214.07 17.9986 213.627 18.215 213.34 18.215C212.743 17.7823 212.455 17.5876 212.455 17.6742L212.411 17.6958Z" fill="white"/>
<path d="M303.36 47.4179C303.095 47.937 302.94 48.2615 302.852 48.3913C302.786 48.5427 302.675 48.7374 302.564 48.997C302.454 49.2566 302.432 49.4296 302.498 49.5378C302.564 49.646 302.631 49.7757 302.675 49.9272C302.719 50.0786 302.874 50.2084 303.184 50.3598C303.471 50.5112 303.736 50.6627 303.958 50.8573C304.179 51.052 304.555 51.29 305.085 51.6144C305.594 51.9389 306.08 52.2418 306.545 52.5446C309.751 54.7294 315.743 57.8228 324.522 61.8246C325.119 62.1059 326.424 62.7332 328.436 63.685C330.448 64.6368 331.996 65.3506 333.08 65.8049C334.163 66.2808 335.578 66.8649 337.325 67.5571C339.072 68.2493 340.73 68.8117 342.3 69.2443C343.87 69.677 345.418 70.0015 346.988 70.2178C350.261 70.6504 352.804 71.321 354.573 72.1863C355.325 72.4675 355.7 72.9866 355.7 73.7221C355.7 74.4576 355.391 75.0417 354.75 75.5176C354.108 75.9935 353.357 76.1449 352.45 76.0151C350.659 76.1665 346.9 75.3878 341.173 73.7221C338.055 72.7703 335.025 71.7104 332.129 70.5639C329.232 69.4174 325.628 67.8167 321.36 65.8049C317.07 63.7931 314.107 62.4303 312.471 61.7165C311.719 61.4353 309.773 60.4186 306.611 58.7097C303.449 57.0008 301.127 55.8975 299.623 55.3784C299.336 55.3135 298.894 55.5514 298.341 56.0922C297.788 56.633 297.147 57.3469 296.439 58.2121C295.732 59.0774 295.09 59.9211 294.493 60.7214C293.896 61.5218 293.255 62.3871 292.592 63.2956C291.928 64.2041 291.464 64.8098 291.243 65.091C289.894 66.9081 286.82 70.6937 281.978 76.4477C281.911 76.5992 281.735 76.8155 281.469 77.0967C281.204 77.3779 281.049 77.6158 280.961 77.7456C280.894 77.8971 280.74 78.0701 280.518 78.2864C280.297 78.5028 280.12 78.6542 280.01 78.7191C279.899 78.784 279.744 78.8921 279.568 79.0435C279.391 79.195 279.214 79.2599 279.059 79.2599H278.506C278.285 79.2599 278.086 79.195 277.887 79.0435C277.71 78.8921 277.489 78.7623 277.268 78.6109C276.383 77.8754 276.118 76.9885 276.494 75.9286C276.87 74.8686 277.378 73.9168 278.064 73.0299C278.749 72.143 279.302 71.5806 279.744 71.2777C281.536 70.1745 283.216 68.7468 284.83 66.9514C286.422 65.1559 288.413 62.625 290.801 59.2937C293.189 55.9841 294.516 54.1454 294.825 53.7776C296.837 51.2251 298.761 47.8722 300.574 43.7189C302.41 39.5656 303.316 35.9963 303.316 33.0111C303.25 30.3937 303.825 28.966 305.107 28.7497C306.08 28.5982 306.81 29.3337 307.341 30.9345C307.341 31.1508 307.385 31.3671 307.451 31.5834C307.96 35.5204 306.81 40.3659 303.98 46.12C303.825 46.4012 303.626 46.8122 303.36 47.3314V47.4179Z" fill="white"/>
<path d="M389.996 50.1002C389.774 49.9272 389.597 49.819 389.487 49.819C389.376 49.819 389.089 49.9056 388.647 50.1002C388.204 50.2949 387.873 50.4031 387.652 50.4896C386.833 51.0737 385.927 51.0737 384.976 50.4896C384.003 49.9056 383.428 49.1268 383.251 48.1317C383.074 47.1583 383.384 46.1849 384.202 45.2331C384.865 44.3678 385.44 43.8054 385.883 43.5891C388.271 42.7238 390.416 43.1132 392.362 44.8005C394.307 46.4661 395.081 48.3264 394.705 50.3815C394.263 52.8475 393.113 55.5298 391.234 58.4068C389.376 61.2839 387.541 63.3389 385.75 64.5719C384.998 64.8531 384.401 64.918 383.915 64.745C383.428 64.5719 383.207 64.1609 383.251 63.5336C383.295 62.9063 383.649 62.2789 384.313 61.63C385.507 60.397 386.723 58.6448 387.939 56.3951C389.155 54.1454 389.863 52.4581 389.996 51.3765C390.217 50.7276 390.217 50.2949 389.996 50.1219V50.1002Z" fill="white"/>
<path d="M111.202 52.7609C113.457 52.4148 115.359 53.0205 116.907 54.5996C118.278 56.3518 118.941 58.3851 118.919 60.7214C118.875 63.0576 118.123 65.1775 116.686 67.0811C116.199 67.7084 115.713 68.6386 115.226 69.8716C114.74 71.1046 114.209 72.0348 113.656 72.6621C113.413 72.9001 112.993 73.4192 112.374 74.198C111.777 74.9983 111.202 75.6906 110.671 76.2746C110.14 76.8587 109.676 77.2913 109.278 77.5293C108.703 77.8537 107.885 78.0484 106.801 78.1133C105.718 78.1998 104.789 78.0701 104.082 77.7672C102.622 77.1399 102.136 75.9069 102.622 74.0898C102.711 72.1213 102.777 70.672 102.865 69.7635C102.954 68.8549 102.865 67.4056 102.622 65.4371C102.379 63.4686 102.18 62.0193 102.025 61.1107C101.87 60.2022 101.605 58.8178 101.229 56.9574C100.875 55.0971 100.632 53.8208 100.566 53.107C100.411 52.0687 100.477 51.2899 100.809 50.7275C101.141 50.1651 101.782 50.0136 102.755 50.2516C103.551 50.3381 104.17 50.5977 104.568 51.0736C104.966 51.5495 105.298 52.3715 105.541 53.5613C105.784 54.8375 105.983 55.4648 106.138 55.4648C107.266 54.0372 108.968 53.1502 111.224 52.8041L111.202 52.7609ZM114.165 60.2887C114.209 59.8994 114.121 59.51 113.922 59.1639C113.723 58.8178 113.568 58.5798 113.502 58.45C113.413 58.3419 113.17 58.1256 112.772 57.8011C112.285 57.4117 111.688 57.455 111.003 57.9092C110.317 58.3851 109.72 59.1423 109.234 60.1589C108.747 61.2622 108.416 62.5817 108.261 64.1392C108.106 65.675 108.15 67.0162 108.371 68.1194C108.615 69.2227 109.013 69.6986 109.588 69.5471C110.804 69.3957 112.175 66.7783 113.723 61.7164C113.966 61.154 114.099 60.6781 114.143 60.2887H114.165ZM135.769 27.8194C137.715 26.6297 139.086 26.0456 139.904 26.0456C140.147 26.0456 140.39 26.2836 140.633 26.7595C140.877 27.2354 140.987 27.7545 140.987 28.2953C140.987 29.0957 140.766 29.7014 140.324 30.134C139.882 30.5667 138.842 31.1507 137.228 31.8646L134.796 33.0543V34.9579C134.796 38.1162 135.481 40.2144 136.852 41.2528C137.339 41.6421 137.604 41.945 137.648 42.1397C137.692 42.3344 137.648 42.6805 137.471 43.1564C136.344 45.9252 134.973 46.4011 133.336 44.5841C132.209 43.3943 131.523 41.945 131.28 40.1928C131.125 39.3924 130.948 38.5921 130.793 37.7701C130.639 36.9481 130.44 36.2558 130.196 35.6934C130.042 35.4555 129.798 35.3689 129.467 35.3906C129.135 35.4338 128.206 35.6934 126.68 36.1693C125.31 36.5587 123.474 36.9913 121.152 37.4672C118.831 37.9431 117.327 38.1811 116.597 38.1811C115.713 38.2676 115.248 37.5321 115.204 35.9962C115.16 34.4604 115.337 33.4437 115.757 32.9678C115.845 32.8164 116.73 32.6866 118.433 32.6217C120.135 32.5352 121.816 32.4919 123.474 32.4486C125.133 32.4054 125.951 32.2756 125.951 32.0376C126.99 31.5617 127.676 31.1291 127.963 30.7397C128.25 30.3504 128.383 29.7014 128.383 28.8361C128.383 28.6847 128.427 28.49 128.494 28.2521C128.494 27.5382 128.538 26.9974 128.604 26.6513C128.693 26.3052 128.759 25.8293 128.848 25.2236C128.936 24.6396 129.047 24.1853 129.201 23.9257C129.356 23.6445 129.555 23.3849 129.798 23.147C130.042 22.909 130.373 22.8225 130.771 22.909C131.169 22.9956 131.567 23.147 131.987 23.3849C132.385 23.7094 132.585 24.38 132.585 25.3967C132.739 28.49 133.801 29.312 135.747 27.8843L135.769 27.8194ZM157.417 91.1356C156.82 90.703 156.134 90.1622 155.404 89.5349C154.675 88.9076 154.144 88.4966 153.835 88.3451C152.773 88.6696 151.358 89.1455 149.589 89.7728C147.82 90.4002 145.896 91.0924 143.818 91.8495C141.761 92.6066 140.368 93.1041 139.638 93.3421C138.665 93.818 137.692 93.8829 136.72 93.5151C135.747 93.1474 135.15 92.6282 134.906 91.9144C134.663 91.352 134.044 90.8977 133.027 90.5516C132.01 90.2055 131.501 89.5782 131.501 88.7129C131.346 88.1505 131.214 87.6962 131.147 87.3501C131.059 87.004 131.015 86.5497 130.97 86.0522C130.926 85.533 130.882 85.1653 130.86 84.9273C130.816 84.6894 130.86 84.1919 130.926 83.4347C131.015 82.6776 131.059 82.1152 131.103 81.7042C131.147 81.3148 131.214 80.4712 131.346 79.2165C131.457 77.9619 131.567 76.9236 131.656 76.1232C131.656 75.4093 131.656 74.4359 131.722 73.2245C131.766 71.9915 131.788 71.1912 131.788 70.8018C131.788 70.4124 131.855 69.6769 131.965 68.617C132.076 67.557 132.275 66.4322 132.518 65.2424C132.761 64.0527 133.049 62.4303 133.358 60.3753C134.331 55.6379 135.349 52.9339 136.388 52.3066C137.029 51.9172 137.737 51.9821 138.511 52.4797C139.285 52.9988 139.749 53.7343 139.904 54.6645C139.992 55.3783 140.103 55.7677 140.258 55.8542C140.412 55.9407 140.832 55.811 141.474 55.5081C142.115 55.1836 142.756 54.9889 143.42 54.9241C144.459 54.6861 145.852 54.34 147.555 53.8641C149.257 53.3882 150.518 53.0637 151.38 52.9123C152.22 52.7609 153.237 52.6095 154.409 52.5013C155.581 52.3931 156.643 52.4148 157.616 52.6095C158.589 52.8041 159.562 53.1935 160.535 53.7343C162.48 54.5996 163.785 55.7893 164.471 57.3036C165.156 58.8178 165.62 61.7813 165.864 66.1942C166.018 68.8766 166.107 70.5855 166.107 71.2993C166.107 72.0132 165.952 73.2029 165.62 74.8685C165.289 76.5342 165.045 77.8754 164.891 78.9137C164.802 80.19 164.78 81.012 164.824 81.4013C164.869 81.7907 165.045 82.3964 165.377 83.1752C166.018 83.8025 166.284 84.4514 166.173 85.1436C166.063 85.8142 165.842 86.355 165.576 86.7444C165.289 87.1338 164.891 87.588 164.36 88.1072C163.829 88.6264 163.498 89.0374 163.321 89.3618C162.923 89.9892 162.259 90.53 161.375 90.9626C160.49 91.3952 159.672 91.6115 158.942 91.6115C158.544 91.763 158.036 91.6115 157.417 91.2005V91.1356ZM144.746 74.2196C144.503 74.3061 143.884 74.4576 142.867 74.6955C141.85 74.9334 141.098 75.1281 140.567 75.2796C140.036 75.431 139.439 75.6689 138.754 75.9934C138.068 76.3179 137.56 76.6207 137.228 76.9452C137.14 77.3346 136.941 79.1949 136.631 82.5262C136.476 85.4465 136.476 87.1338 136.631 87.5664C136.786 87.999 137.56 88.0639 138.931 87.7395C140.147 87.415 140.987 86.9174 141.474 86.2036C144.304 79.952 145.388 75.9501 144.746 74.2196ZM139.528 61.8679C138.887 62.8197 138.378 64.3339 138.002 66.4322C137.648 68.5304 137.692 69.8067 138.179 70.2826C138.577 70.7585 139.749 70.7801 141.695 70.3475C143.641 69.9149 144.813 69.3741 145.211 68.7468C145.365 68.4223 145.476 66.8864 145.52 64.1176C145.564 61.3487 145.52 59.8345 145.343 59.6181C144.127 58.6664 142.181 59.4235 139.528 61.8679ZM153.658 64.1176C155.228 62.7764 156.422 62.1058 157.24 62.1058C157.726 62.1058 158.146 62.3005 158.522 62.6899C158.876 63.0792 159.075 63.5119 159.075 63.9878C159.075 64.5502 158.257 65.5885 156.643 67.1244C155.029 68.6602 153.569 69.6769 152.265 70.1528C151.203 70.5422 150.429 71.3642 149.898 72.5756C149.368 73.8086 148.948 75.3661 148.616 77.2697C148.284 79.1733 147.975 80.5577 147.643 81.423C147.311 82.2234 147.09 82.8074 146.98 83.1968C146.869 83.5862 146.781 83.9539 146.736 84.2567C146.692 84.5812 146.736 84.7543 146.803 84.7975C146.891 84.8408 147.09 84.8624 147.4 84.8624C147.709 84.8624 148.063 84.7975 148.439 84.6894C148.815 84.5812 149.346 84.4514 150.075 84.3433C150.805 84.2351 151.491 84.0837 152.132 83.9323C155.36 83.1319 157.395 82.6776 158.191 82.5046C158.92 82.418 159.407 82.2234 159.65 81.9205C159.893 81.596 160.048 80.9687 160.137 80.0169C160.225 79.3896 160.38 78.4378 160.623 77.1615C160.866 75.9069 161.043 74.9118 161.176 74.198C161.308 73.4841 161.419 72.554 161.53 71.4075C161.64 70.261 161.684 69.1361 161.64 68.0329C161.596 66.9297 161.53 65.7832 161.463 64.5935C161.132 61.8246 160.579 60.0292 159.761 59.1855C158.942 58.3635 157.372 57.5848 155.029 56.8709C154.299 56.7844 153.436 56.8709 152.419 57.044C151.402 57.2387 150.783 57.455 150.54 57.6929C150.297 57.8443 150.142 59.3153 150.053 62.0842C150.053 63.9012 150.053 65.0477 150.12 65.5236C150.164 65.9995 150.297 66.2375 150.54 66.2375C151.026 66.1509 152.066 65.4371 153.635 64.0959L153.658 64.1176ZM169.733 24.4881L172.652 24.2502C173.293 24.2502 174.399 24.142 175.925 23.9041C177.451 23.6661 178.578 23.558 179.264 23.558C179.949 23.558 180.812 23.7094 181.873 24.0339C182.757 24.8343 182.713 26.0024 181.762 27.6031C180.635 29.5067 179.264 29.9826 177.627 29.0308C177.384 28.6414 175.991 28.5117 173.448 28.6847C170.905 28.8361 169.313 28.9659 168.65 29.0308C167.92 29.3553 167.279 30.783 166.704 33.3139C166.615 34.3522 166.416 35.304 166.107 36.2126C165.775 37.1211 165.51 37.7917 165.311 38.2243C165.112 38.657 164.714 39.3492 164.161 40.301C163.586 41.2528 163.232 41.8801 163.077 42.2046C162.923 42.4425 162.436 42.7886 161.618 43.2645C160.8 43.7404 160.247 43.827 159.915 43.5025C159.584 43.178 159.473 42.767 159.562 42.2478C159.65 41.7287 160.048 40.7336 160.778 39.2194C162.237 36.126 162.967 33.1625 162.967 30.3287C162.967 29.9394 162.901 29.7014 162.79 29.6149C162.679 29.5284 162.193 29.5067 161.397 29.5067C159.871 29.5067 157.151 29.312 153.26 28.9227C149.368 28.5333 147.444 28.1655 147.444 27.8627C147.201 27.5382 147.157 27.1056 147.333 26.5648C147.488 26.0024 147.82 25.5697 148.306 25.2669C149.036 24.791 150.075 24.5098 151.468 24.4449C152.839 24.3584 154.52 24.4449 156.51 24.6179C158.5 24.8126 159.915 24.8775 160.822 24.791C162.768 24.8775 163.94 24.791 164.338 24.4881C164.736 24.2069 165.068 23.3633 165.311 21.9356C165.642 20.3565 165.952 19.2965 166.284 18.7341C166.615 18.1717 167.257 17.6741 168.23 17.1982C169.689 16.1599 170.662 16.0301 171.148 16.7872C171.635 17.5443 171.48 18.7557 170.662 20.3997C170.087 21.4381 169.822 22.3682 169.822 23.2551V24.553L169.733 24.4881Z" fill="white"/>
<path d="M200.904 167.651C199.445 167.499 198.848 166.742 199.069 165.358C199.135 164.557 199.688 163.973 200.683 163.606C201.678 163.238 202.917 162.978 204.376 162.784C205.836 162.589 206.808 162.394 207.339 162.178C207.936 161.962 208.843 161.68 210.081 161.356C211.319 161.031 212.248 160.772 212.934 160.599C213.619 160.426 214.437 160.123 215.454 159.734C216.472 159.344 217.489 158.868 218.528 158.371C220.01 157.505 221.137 157.289 221.889 157.765C222.641 158.241 222.884 159.085 222.663 160.339C222.508 160.988 221.933 161.551 220.938 162.027C219.943 162.502 218.683 162.957 217.201 163.389C215.72 163.822 214.703 164.19 214.194 164.493C212.469 165.142 209.418 166.028 205.039 167.11C203.779 167.629 202.408 167.802 200.971 167.651H200.904ZM211.12 204.035C213.354 202.932 215.167 203.192 216.538 204.793C217.909 206.393 218.196 208.535 217.378 211.239C216.936 212.688 216.936 213.445 217.378 213.489C217.82 213.532 218.727 212.883 220.054 211.585C221.845 209.919 223.105 209.184 223.857 209.4C224.83 209.681 224.852 210.741 223.968 212.558C223.083 214.462 221.58 215.976 219.501 217.144C218.97 217.512 217.843 218.204 216.096 219.221C214.349 220.238 212.757 221.233 211.342 222.163C209.926 223.115 208.843 224.023 208.113 224.888C207.671 225.754 207.03 226.186 206.211 226.143C205.393 226.1 204.818 225.754 204.487 225.105C204.155 224.456 204.177 223.72 204.553 222.92C204.708 221.817 204.84 219.437 204.951 215.76C205.062 212.082 205.194 208.686 205.349 205.593C205.504 202.5 205.725 200.704 206.012 200.185C206.388 198.281 207.096 196.832 208.135 195.815C208.887 195.015 209.617 195.08 210.369 196.032C210.966 196.897 210.921 197.741 210.258 198.541C210.103 198.909 209.971 199.601 209.816 200.618C209.661 201.634 209.595 202.521 209.595 203.3C209.595 204.079 209.639 204.49 209.705 204.555C209.926 204.555 210.413 204.382 211.165 204.014L211.12 204.035ZM210.789 176.282C211.983 175.849 213.332 175.135 214.857 174.162C216.383 173.189 217.334 172.604 217.71 172.475C218.462 172.042 219.147 171.999 219.766 172.367C220.408 172.734 220.607 173.275 220.385 174.011C220.231 174.746 219.413 175.698 217.931 176.909C216.449 178.121 215.211 178.813 214.238 179.029C213.575 179.245 212.867 179.548 212.115 179.894C211.297 180.262 210.479 180.565 209.661 180.825C208.843 181.084 208.069 181.257 207.317 181.365C206.565 181.473 205.946 181.365 205.415 181.084C204.885 180.803 204.597 180.349 204.531 179.765C204.376 178.661 204.465 177.926 204.818 177.515C205.172 177.104 205.836 176.909 206.875 176.909C208.29 176.909 209.595 176.693 210.789 176.26V176.282ZM220.12 146.884C219.634 147.166 218.838 147.317 217.71 147.317C216.074 147.382 213.995 147.209 211.518 146.776C209.02 146.343 207.472 145.911 206.875 145.457C205.017 142.753 204.708 141.195 205.99 140.762C206.499 140.481 206.963 140.351 207.339 140.373C207.715 140.416 208.334 140.676 209.241 141.195C210.59 141.844 212.093 142.407 213.774 142.839C215.454 143.272 216.693 143.466 217.511 143.38C218.484 143.229 219.28 143.38 219.921 143.769C220.562 144.18 220.872 144.743 220.872 145.457C220.872 146.106 220.629 146.581 220.142 146.884H220.12ZM217.953 186.665C217.577 187.033 217.024 187.422 216.273 187.812C215.521 188.223 215.034 188.482 214.813 188.634C214.658 188.699 214.238 188.958 213.531 189.391C212.823 189.823 212.093 190.256 211.364 190.71C210.612 191.143 209.86 191.554 209.064 191.922C208.268 192.289 207.582 192.441 206.941 192.354C206.3 192.289 205.88 191.943 205.659 191.381C204.907 189.477 205.813 188.136 208.334 187.336C211.098 186.47 212.978 185.475 214.039 184.394C214.636 183.745 215.565 183.529 216.825 183.788C218.086 184.048 218.727 184.545 218.727 185.259C218.572 185.843 218.307 186.319 217.953 186.687V186.665ZM211.585 208.621C210.767 209.27 210.103 210.157 209.573 211.239C209.351 212.039 209.241 213.207 209.241 214.743C209.241 216.279 209.396 217.144 209.683 217.361C210.346 217.945 211.253 217.079 212.359 214.743C212.735 213.943 213.066 213.078 213.354 212.126C213.796 210.806 213.907 209.833 213.685 209.184C213.088 208.167 212.381 207.972 211.563 208.643L211.585 208.621ZM243.029 154.326C242.763 154.326 242.255 154.585 241.525 155.083C239.446 156.251 237.368 157.181 235.333 157.873C233.277 158.565 231.928 158.738 231.265 158.371C230.734 158.09 230.402 157.808 230.27 157.549C230.115 157.289 230.049 156.77 230.049 155.97C230.049 155.018 230.314 154.369 230.822 154.001C231.331 153.633 232.238 153.46 233.498 153.46C235.731 153.46 238.12 152.617 240.64 150.951C242.21 149.999 243.139 149.156 243.427 148.442C243.714 147.706 243.802 146.192 243.648 143.856C243.427 141.671 243.581 140.287 244.156 139.703C244.731 139.118 245.594 139.227 246.788 140.027C247.075 140.178 247.318 141.13 247.517 142.926C247.694 144.721 247.915 145.673 248.136 145.824C248.579 146.473 248.512 148.593 247.915 152.162C247.628 154.628 247.141 156.056 246.456 156.424C245.417 156.943 244.621 156.64 244.112 155.559C243.67 154.758 243.316 154.347 243.051 154.347L243.029 154.326ZM260.121 159.798C262.686 158.998 264.455 158.349 265.428 157.83C266.844 156.727 267.949 156.878 268.789 158.263C269.541 159.431 269.431 160.339 268.458 160.988C268.082 161.205 267.684 161.356 267.219 161.421C265.362 161.702 264.5 162.524 264.654 163.822C264.588 164.406 264.876 164.817 265.539 165.077C266.202 165.336 266.578 165.531 266.667 165.682C266.888 166.05 266.954 166.569 266.888 167.261C266.821 167.954 266.622 168.516 266.335 168.949C265.804 169.598 265.672 169.9 265.893 169.814C265.959 169.814 266.158 169.749 266.446 169.598C267.264 169.014 267.971 168.97 268.568 169.425C269.165 169.9 269.342 170.636 269.121 171.674C269.055 172.193 268.812 172.669 268.391 173.145C267.971 173.621 266.689 174.833 264.544 176.801C263.129 178.034 262.421 179.505 262.421 181.171C263.018 181.106 264.389 180.392 266.556 179.051C268.723 177.71 270.205 176.996 271.023 176.931C272.062 177.147 272.549 177.839 272.482 179.007C272.416 180.176 271.929 180.911 271.023 181.192C264.831 185.346 260.741 187.357 258.728 187.206C257.689 187.487 256.871 187.076 256.274 185.951C255.677 184.826 255.832 183.94 256.716 183.269C257.092 182.901 257.468 182.339 257.844 181.582C258.22 180.825 258.33 180.37 258.176 180.219C258.021 180.154 257.645 180.089 257.048 180.046C256.451 180.003 255.898 179.959 255.367 179.873C254.837 179.808 254.549 179.656 254.483 179.44C254.195 179.224 253.996 179.116 253.93 179.116C253.864 179.116 253.775 179.289 253.709 179.656C253.178 181.841 252.891 184.177 252.824 186.643C252.824 188.093 252.758 189.023 252.647 189.434C252.537 189.845 252.249 190.364 251.807 191.013C250.923 192.679 249.905 193.133 248.8 192.333C247.694 191.532 247.429 190.256 248.026 188.504C249.065 185.735 249.729 181.993 250.038 177.255C250.326 172.518 250.193 168.473 249.596 165.12C249.375 164.017 248.623 164.709 247.363 167.197L244.798 172.215C244.046 173.664 243.471 174.789 243.073 175.546C242.653 176.304 241.989 177.255 241.061 178.38C240.132 179.505 239.247 180.176 238.429 180.392C237.235 180.392 236.638 179.808 236.638 178.64C236.638 178.121 237.036 177.126 237.81 175.633C238.584 174.14 239.269 173.059 239.866 172.41C241.436 170.506 242.984 167.932 244.51 164.644C246.036 161.356 247.363 158.782 248.468 156.878C250.702 152.876 252.603 150.324 254.173 149.221C256.119 147.901 257.269 147.793 257.645 148.896C257.932 149.848 257.379 150.929 255.964 152.184C254.328 154.088 253.399 155.407 253.178 156.164C252.957 156.921 253.289 157.527 254.173 157.96C254.682 158.176 254.991 158.371 255.058 158.565C255.124 158.739 255.168 159.128 255.168 159.712C255.102 160.512 255.212 160.923 255.5 160.923C256.008 160.923 257.556 160.512 260.144 159.712L260.121 159.798ZM280.222 222.725C275.335 220.692 271.708 218.896 269.342 217.382C268.9 217.101 267.595 216.387 265.428 215.262C263.261 214.137 262.001 213.467 261.625 213.251C260.431 212.45 259.502 212.45 258.839 213.251C257.048 215.37 255.809 216.755 255.102 217.404C254.394 218.053 253.62 218.615 252.802 219.048C251.321 219.783 249.883 220.043 248.512 219.87C247.141 219.675 246.456 219.113 246.456 218.183C246.456 217.317 247.208 216.863 248.689 216.863C249.441 216.863 250.37 216.43 251.475 215.544C252.581 214.657 253.598 213.618 254.483 212.385C255.301 211.217 255.699 210.525 255.655 210.309C255.61 210.092 254.925 209.573 253.598 208.773C253.068 208.405 252.515 208.145 251.918 207.951C251.321 207.778 250.79 207.497 250.348 207.129C249.596 206.48 249.286 205.679 249.397 204.771C249.507 203.862 250.016 203.192 250.901 202.759C251.498 202.478 251.785 202.024 251.785 201.44C251.63 200.423 251.962 199.536 252.736 198.822C253.51 198.108 254.571 197.416 255.854 196.81C257.158 196.183 258.021 195.707 258.485 195.339C262.664 192.571 265.229 191.035 266.202 190.754C266.954 190.818 267.551 191.143 268.038 191.684C268.524 192.224 268.723 192.938 268.657 193.804C268.657 195.037 266.932 199.082 263.527 205.939C262.775 207.323 262.554 208.189 262.863 208.556C267.551 211.607 271.974 214.137 276.109 216.149C280.244 218.161 285.241 220.281 291.123 222.531C291.875 222.898 293.533 223.374 296.098 223.958C298.663 224.542 300.277 225.062 300.963 225.494C301.847 226.078 302.29 226.879 302.245 227.895C302.201 228.912 301.803 229.626 301.007 230.015C300.211 230.405 299.194 230.253 297.934 229.518C297.27 229.15 295.767 228.609 293.467 227.874C291.167 227.138 289.818 226.77 289.442 226.77C288.182 226.121 285.108 224.759 280.222 222.725ZM256.716 173.34C254.77 173.924 253.819 174.768 253.819 175.849C253.819 177.082 254.195 177.234 254.947 176.282C255.323 175.763 256.075 175.417 257.18 175.179C257.999 175.114 258.684 174.854 259.237 174.422C259.79 173.989 260.077 173.535 260.077 173.059C260.077 172.583 259.635 172.496 258.728 172.778C258.574 172.842 257.91 173.037 256.716 173.318V173.34ZM262.753 198.152C262.598 197.784 262.045 198.043 261.072 198.909C260.63 199.341 259.591 200.012 257.954 200.877C256.318 201.742 255.301 202.37 254.947 202.738L254.063 203.495C254.881 204.23 255.854 204.836 256.959 205.355C257.844 205.874 258.507 205.982 258.905 205.744C259.303 205.485 259.856 204.663 260.519 203.278C261.338 201.613 261.89 200.466 262.2 199.882C262.709 199.082 262.908 198.498 262.753 198.13V198.152ZM259.79 165.271C259.303 164.687 258.795 164.622 258.286 165.055C257.999 165.271 257.313 165.488 256.274 165.704C255.389 165.855 254.792 166.072 254.549 166.353C254.284 166.634 254.195 167.11 254.262 167.781C254.262 168.213 254.328 168.494 254.483 168.603C254.638 168.711 254.991 168.776 255.61 168.776C256.495 168.841 257.468 168.667 258.507 168.235C259.546 167.802 260.144 167.37 260.298 166.915C260.453 166.396 260.298 165.855 259.79 165.271ZM273.256 133.083C273.632 133.494 273.809 133.948 273.809 134.446C273.964 134.727 273.521 135.29 272.526 136.09C271.531 136.89 270.227 137.842 268.679 138.924C267.131 140.005 266.224 140.676 266.003 140.892C264.146 142.212 262.355 143.077 260.652 143.51C258.927 143.942 257.755 143.769 257.07 142.969C256.782 142.753 256.65 141.498 256.738 139.205C256.805 136.912 256.694 135.549 256.407 135.117C255.876 133.451 255.677 132.391 255.787 131.958C255.898 131.526 256.407 131.007 257.291 130.423C257.8 130.206 258.286 130.076 258.684 130.033C259.082 129.99 259.436 130.098 259.679 130.358C259.944 130.617 260.166 130.877 260.343 131.115C260.519 131.374 260.674 131.764 260.785 132.326C260.895 132.889 260.962 133.321 261.006 133.689C261.05 134.057 261.094 134.554 261.183 135.225C261.249 135.657 261.293 135.982 261.293 136.198C261.293 137.366 261.448 138.015 261.736 138.167C262.399 138.167 264.035 137.215 266.6 135.333C269.165 133.451 270.979 132.499 272.018 132.499C272.46 132.499 272.88 132.694 273.256 133.105V133.083ZM266.49 149.805C268.17 150.865 269.121 151.6 269.342 152.054C269.63 152.638 269.541 153.309 269.055 154.066C268.568 154.823 267.949 155.213 267.219 155.213C266.401 154.931 265.871 154.715 265.605 154.607C265.34 154.499 264.809 154.282 263.991 153.958C263.173 153.633 262.642 153.331 262.377 153.028C262.112 152.746 261.802 152.357 261.426 151.881C261.05 151.405 260.94 150.908 261.094 150.41C261.249 149.891 261.581 149.35 262.089 148.766C262.377 148.399 262.797 148.225 263.328 148.225C263.77 148.225 264.831 148.745 266.512 149.805H266.49Z" fill="white"/>
<path d="M329.509 183.615C335.922 180.695 340.234 178.986 342.467 178.488C343.13 178.272 344.391 177.818 346.204 177.126C348.039 176.433 349.676 175.914 351.179 175.546C352.661 175.179 354.54 174.897 356.774 174.681C358.41 174.465 360.179 174.097 362.081 173.578C363.982 173.059 366.415 172.669 369.4 172.367C369.997 172.302 370.527 172.193 370.97 172.085C371.412 171.977 371.722 171.912 371.854 171.869C372.009 171.826 372.252 171.826 372.628 171.869C373.004 171.912 373.513 172.042 374.198 172.258C374.795 172.691 375.237 173.037 375.547 173.297C375.834 173.556 376.122 174.032 376.387 174.724C376.653 175.417 376.741 176.195 376.675 177.082C376.675 178.618 376.343 180.003 375.68 181.236C375.083 182.339 374.198 183.507 373.048 184.783C371.898 186.059 371.014 186.795 370.417 187.033C369.82 187.314 369.267 187.682 368.736 188.136C368.294 188.417 367.41 188.655 366.105 188.85C364.8 189.023 364.049 188.98 363.805 188.677C363.429 188.028 364.049 187.249 365.641 186.384C367.233 185.519 368.758 184.221 370.174 182.512C371.589 180.803 372.296 179.44 372.296 178.423C372.296 177.688 372.097 177.212 371.677 176.952C371.257 176.693 370.439 176.606 369.157 176.671C365.663 176.952 361.572 177.537 356.928 178.423C352.285 179.289 348.747 180.241 346.381 181.257C345.253 181.69 343.727 182.231 341.737 182.836C339.769 183.464 338.022 184.069 336.541 184.697C335.059 185.324 333.158 186.211 330.836 187.379C329.266 188.179 327.674 188.958 326.037 189.737C324.401 190.494 323.185 191.056 322.411 191.381C321.637 191.705 320.708 192.246 319.669 192.96C318.63 193.695 317.502 194.604 316.308 195.686C315.645 196.421 315.07 196.789 314.583 196.789C314.097 196.789 313.588 196.421 313.08 195.686C312.858 195.534 312.704 195.21 312.637 194.712C312.571 194.193 312.571 193.544 312.704 192.744C312.836 191.943 312.925 191.251 313.035 190.667C313.146 190.083 313.323 189.326 313.588 188.374C313.853 187.422 314.008 186.838 314.097 186.622C314.384 186.038 314.605 184.826 314.716 183.009C314.826 181.192 315.003 179.57 315.269 178.142C315.534 176.715 316.043 175.979 316.772 175.893C317.148 175.828 317.568 175.979 318.055 176.39C318.541 176.801 318.939 177.277 319.227 177.861C319.669 178.964 319.492 180.998 318.674 183.983C317.922 186.968 317.701 188.569 318.011 188.785C319.271 188.266 323.119 186.557 329.509 183.658V183.615ZM346.934 199.341C347.531 198.909 348.083 198.433 348.614 197.914C349.653 196.897 350.56 196.27 351.29 196.053C352.042 195.837 352.661 196.053 353.191 196.659C353.7 197.286 354.12 197.979 354.43 198.736C354.717 199.493 354.983 200.509 355.204 201.742C355.358 202.846 355.204 203.884 354.695 204.901C354.209 205.917 353.612 206.566 352.904 206.804C352.196 207.064 351.511 206.891 350.847 206.307C350.405 205.939 350.25 205.506 350.405 204.987C350.693 204.122 350.847 203.451 350.847 203.019C350.847 202.586 350.781 202.305 350.626 202.197C350.472 202.089 350.228 202.11 349.897 202.262C349.565 202.413 349.255 202.564 349.012 202.759C348.747 202.932 348.393 203.213 347.951 203.581C347.73 203.798 347.553 203.949 347.442 204.014C347.332 204.079 347.199 204.187 347.044 204.295C346.889 204.403 346.779 204.49 346.712 204.576C346.115 204.728 345.717 205.16 345.54 205.896C345.364 206.631 345.253 207.518 345.209 208.578C345.165 209.638 345.12 210.374 345.032 210.828C344.877 211.931 344.921 212.537 345.142 212.688C345.364 212.753 345.939 212.688 346.867 212.407C347.796 212.147 348.68 211.801 349.499 211.369C350.626 210.785 351.599 210.633 352.462 210.936C353.324 211.217 353.634 211.801 353.413 212.688C353.125 213.791 352.263 214.549 350.847 214.981C349.499 215.414 348.083 216.063 346.602 216.885C345.12 217.728 344.258 218.356 344.037 218.788C343.661 219.74 343.418 220.908 343.307 222.336C343.197 223.764 343.307 224.91 343.595 225.775H345.717C348.548 225.624 351.533 225.364 354.717 224.953C357.879 224.542 361.285 224.348 364.933 224.348C369.179 224.283 372.893 224.023 376.1 223.591C379.306 223.158 382.955 222.855 387.045 222.725C390.915 222.509 393.104 222.552 393.635 222.833C394.143 223.115 394.409 223.655 394.409 224.413C394.409 225.17 394.188 225.775 393.745 226.208C393.215 226.727 392.618 227.03 391.91 227.138C391.203 227.246 389.876 227.225 387.952 227.073C384.149 227.008 380.478 227.246 376.896 227.787C373.314 228.328 369.267 228.674 364.712 228.825C346.911 229.41 333.467 230.859 324.401 233.195C322.322 233.779 320.885 233.714 320.111 233.022C319.337 232.33 319.448 231.183 320.509 229.583C321.018 228.999 321.748 228.588 322.632 228.328C323.517 228.068 325.617 227.809 328.89 227.506C333.954 226.987 337.005 226.597 338.044 226.295C338.332 225.862 338.442 225.473 338.376 225.148C338.31 224.824 338.133 224.369 337.867 223.785C337.602 223.201 337.469 222.725 337.469 222.358C337.403 221.709 337.293 221.319 337.182 221.211C337.071 221.103 336.673 221.016 336.01 220.93C334.285 220.714 333.71 219.74 334.219 217.988C334.374 217.339 334.617 216.885 334.949 216.625C335.28 216.366 335.944 216.171 336.895 216.019C338.376 215.738 339.415 215.197 339.968 214.44C340.521 213.683 340.764 212.429 340.698 210.676C340.698 209.292 340.565 208.383 340.3 207.951C340.035 207.518 339.504 207.302 338.686 207.302C337.425 207.302 336.629 206.761 336.342 205.658C335.9 205.139 336.032 204.338 336.74 203.192C337.447 202.067 338.31 200.877 339.371 199.644C340.41 198.411 341.007 197.632 341.162 197.351C341.317 197.135 341.538 196.832 341.826 196.421C342.113 196.01 342.401 195.664 342.666 195.383C342.931 195.102 343.108 194.799 343.219 194.517C343.329 194.236 343.285 194.042 343.108 193.977C342.931 193.912 342.533 193.933 341.936 194.085C341.339 194.236 340.455 194.496 339.261 194.842C337.403 195.491 336.032 195.707 335.192 195.491C334.33 195.275 334.064 194.388 334.352 192.873C334.573 192.441 335.347 191.943 336.651 191.403C337.956 190.862 339.194 190.516 340.388 190.364C340.897 190.364 341.671 190.191 342.688 189.867C343.705 189.542 344.545 189.196 345.253 188.828C345.961 188.461 346.934 187.963 348.15 187.357C349.366 186.752 350.14 186.362 350.449 186.211C352.086 185.843 353.081 186.103 353.457 186.968C353.678 187.703 353.567 188.439 353.125 189.218C352.683 189.996 351.644 191.208 350.007 192.873C348.592 194.323 347.11 196.032 345.54 197.957C343.97 199.882 343.197 201.007 343.197 201.288C343.197 201.937 344.457 201.288 347 199.32L346.934 199.341ZM347.044 137.604C350.405 137.388 351.909 136.652 351.621 135.419V134.316L355.314 134.208C357.769 134.208 359.383 134.1 360.113 133.884C361.373 133.3 362.28 133.321 362.788 133.948C363.297 134.576 363.451 135.355 363.23 136.306C363.009 137.258 362.589 137.95 361.992 138.383C361.705 138.448 360.754 138.556 359.206 138.707C357.481 138.859 354.938 139.529 351.555 140.719C348.172 141.931 346.314 142.839 346.027 143.51C345.275 144.829 344.435 146.971 343.462 149.956C343.307 150.475 343.86 150.497 345.142 150.064C347.907 149.264 349.233 148.853 349.167 148.853C349.919 148.636 350.538 148.723 351.069 149.134C351.577 149.545 351.776 150.064 351.621 150.713C351.4 151.578 350.892 152.357 350.118 153.006C349.344 153.655 348.526 153.958 347.708 153.871C347.11 153.806 345.74 154.282 343.573 155.299C341.494 156.316 338.796 157.376 335.524 158.457C332.251 159.561 330.04 160.101 328.934 160.101C328.05 160.101 327.585 159.561 327.585 158.457C327.585 156.64 330.106 155.169 335.17 154.088C335.767 153.936 336.231 153.677 336.563 153.266C336.895 152.855 337.89 151.492 339.526 149.177C340.034 148.377 340.477 147.512 340.808 146.56C341.14 145.608 341.273 145.024 341.206 144.808C341.052 144.591 340.455 144.635 339.415 144.916C338.376 145.197 337.27 145.521 336.121 145.846C334.971 146.17 334.285 146.3 334.064 146.235C333.18 146.387 330.349 147.101 325.573 148.42C323.494 149.004 322.256 149.177 321.88 148.961C321.283 148.68 320.907 147.988 320.753 146.949C320.598 145.889 320.797 145.11 321.305 144.591C321.814 144.224 322.831 144.007 324.313 143.942C325.794 143.877 326.878 143.683 327.541 143.402C336.541 141.498 341.472 140.157 342.29 139.356C342.511 139.14 342.644 138.837 342.688 138.426C342.732 138.015 342.688 137.02 342.511 135.419C342.135 131.85 341.958 129.709 341.958 128.973C341.958 128.238 342.179 127.697 342.622 127.329C343.506 126.377 344.457 126.269 345.408 127.005C346.005 127.524 346.447 129.99 346.757 134.424L346.978 137.583L347.044 137.604ZM336.275 160.166C337.271 160.577 337.823 161.421 337.89 162.74C337.956 163.173 338.044 163.498 338.111 163.714C338.177 163.93 338.288 164.017 338.442 163.995C338.597 163.952 338.73 163.887 338.885 163.779C339.039 163.671 339.283 163.498 339.614 163.281C339.946 163.065 340.256 162.87 340.565 162.74C340.853 162.675 341.405 162.373 342.179 161.875C342.953 161.378 343.661 160.923 344.302 160.556C344.943 160.188 345.717 159.798 346.646 159.409C347.575 158.998 348.327 158.825 348.879 158.868C349.432 158.912 350.007 159.106 350.604 159.474C351.113 159.907 351.268 160.685 351.046 161.832C350.825 162.978 350.295 164.082 349.476 165.163L348.813 166.137C349.786 166.786 350.383 167.348 350.604 167.781C350.671 168.732 350.516 169.468 350.096 170.03C349.676 170.571 348.857 171.22 347.641 171.934C346.425 172.648 345.607 173.167 345.231 173.47C341.361 176.174 338.708 177.407 337.293 177.19C336.85 177.126 336.474 176.931 336.165 176.65C335.877 176.368 335.568 176.001 335.28 175.546C334.993 175.114 334.728 174.789 334.506 174.573C333.976 173.989 333.732 173.145 333.732 172.064C333.887 168.494 333.777 166.31 333.401 165.509C332.737 163.909 332.848 162.459 333.732 161.14C334.396 160.123 335.236 159.82 336.253 160.209L336.275 160.166ZM342.246 165.79C341.715 166.007 341.007 166.634 340.079 167.651C339.15 168.668 338.641 169.403 338.575 169.836C338.42 170.485 338.509 170.809 338.796 170.809C339.017 170.809 339.858 170.03 341.317 168.451C342.776 166.872 343.484 165.985 343.484 165.769C343.484 165.488 343.064 165.488 342.246 165.769V165.79Z" fill="white"/>
<path d="M412.166 186.881C411.79 187.249 411.193 187.682 410.375 188.201C408.075 189.65 406.395 190.018 405.356 189.304C404.98 189.023 404.759 188.417 404.692 187.509C404.626 186.6 404.759 185.8 405.134 185.108C405.51 184.415 406.063 184.221 406.815 184.502C407.567 184.653 408.252 184.589 408.871 184.329C409.513 184.069 410.22 183.658 410.994 183.074C411.768 182.49 412.343 182.122 412.719 181.971C413.161 181.755 414.046 181.106 415.35 180.067C416.655 179.008 417.495 178.402 417.871 178.272C420.105 176.952 421.453 176.779 421.896 177.731C422.559 178.899 422.338 179.743 421.232 180.241C420.702 180.392 419.507 181.279 417.65 182.923C415.793 184.567 414.554 185.497 413.957 185.713C413.139 186.146 412.542 186.557 412.166 186.925V186.881ZM423.222 193.501C423.665 193.241 424.262 193.414 425.013 193.998C425.456 194.647 425.389 196.118 424.792 198.433C424.195 200.726 423.554 202.521 422.891 203.841C422.36 204.793 421.785 205.874 421.166 207.129C420.525 208.362 420.171 209.076 420.104 209.249C420.038 209.422 419.618 209.984 418.866 210.893C418.114 211.801 417.429 212.58 416.81 213.251C416.169 213.9 414.997 215.176 413.294 217.079C412.255 218.183 411.459 218.788 410.95 218.94C410.132 219.156 409.402 218.897 408.783 218.183C408.142 217.447 407.899 216.625 408.053 215.673C408.12 215.154 408.252 214.83 408.451 214.7C408.628 214.549 409.07 214.419 409.734 214.267C410.331 213.986 411.016 213.316 411.79 212.299C412.564 211.282 413.228 210.547 413.736 210.114C414.93 208.881 416.544 206.523 418.601 203.062C420.657 199.601 421.94 197.005 422.448 195.253C422.515 194.388 422.78 193.804 423.222 193.566V193.501ZM413.051 151.492C413.338 151.643 414.112 152.119 415.35 152.92C416.589 153.72 417.385 154.196 417.761 154.347C420.149 155.299 421.564 155.97 422.05 156.359C422.537 156.77 422.78 157.397 422.78 158.263C422.846 159.128 422.515 159.647 421.785 159.798C421.033 159.95 420.038 159.734 418.778 159.15C416.987 158.198 414.643 157.441 411.746 156.857C410.552 156.575 409.844 156.229 409.623 155.883C409.402 155.537 409.579 155.039 410.176 154.455C411.304 152.79 412.255 151.795 413.073 151.514L413.051 151.492ZM436.512 173.34C437.175 172.605 437.75 172.626 438.237 173.405C438.723 174.162 439.188 175.352 439.63 176.952C439.785 177.688 439.785 179.44 439.63 182.252C439.475 185.064 439.298 186.708 439.077 187.228C438.789 187.963 438.192 188.352 437.286 188.439C436.379 188.525 435.826 188.223 435.605 187.574C435.229 184.004 435.539 179.267 436.49 173.362L436.512 173.34ZM444.561 163.844C445.158 163.476 445.644 163.065 446.02 162.589C446.396 162.113 446.949 161.659 447.701 161.226C448.453 160.794 449.05 160.577 449.492 160.577C450.089 160.577 450.531 160.967 450.841 161.724C451.128 162.481 451.106 163.195 450.73 163.844C450.354 164.428 450.023 164.86 449.735 165.163C449.448 165.444 449.028 165.769 448.497 166.093C447.966 166.418 447.634 166.656 447.502 166.807C446.529 167.824 445.202 168.473 443.544 168.711C441.885 168.949 440.514 168.516 439.475 167.348C438.878 166.699 438.613 166.028 438.701 165.336C438.767 164.644 439.21 163.324 440.05 161.356C440.934 159.452 441.31 158.436 441.178 158.306C441.023 158.241 440.404 158.349 439.276 158.63C437.794 159.279 436.711 159.171 436.048 158.306C435.384 157.441 435.45 156.446 436.269 155.364C439.254 151.059 440.89 147.901 441.178 145.868C441.332 144.548 441.509 143.791 441.73 143.575C441.952 143.358 442.593 143.142 443.632 142.926C444.008 142.991 444.229 143.12 444.295 143.315C444.362 143.488 444.406 144.072 444.406 145.002C444.561 145.738 444.494 146.56 444.229 147.468C443.964 148.377 443.544 149.48 442.947 150.756C442.35 152.033 441.974 152.855 441.819 153.222C441.974 153.287 442.482 153.179 443.389 152.898C445.998 152.033 447.524 152.465 447.966 154.217C448.187 155.169 447.634 156.294 446.286 157.614C445.755 158.133 445.047 159.171 444.119 160.772C443.19 162.373 442.725 163.389 442.725 163.822C442.725 164.471 443.367 164.514 444.627 163.93L444.561 163.844ZM442.04 179.029C441.929 177.428 441.863 175.957 441.863 174.595C441.863 173.232 442.04 172.605 442.416 172.691C443.168 172.172 443.698 172.085 444.03 172.41C444.362 172.734 444.76 173.729 445.202 175.417C445.865 179.851 446.087 182.49 445.865 183.291C445.49 184.524 444.494 184.783 442.858 184.048C442.327 183.68 442.084 182.944 442.084 181.863C442.151 181.582 442.151 180.63 442.018 179.029H442.04ZM449.182 171.826C449.956 172.107 450.642 172.561 451.239 173.145C452.278 174.249 452.698 176.347 452.477 179.483C452.411 181.3 452.256 182.533 452.035 183.139C451.814 183.745 451.394 184.134 450.796 184.286C450.133 184.718 449.514 184.459 448.961 183.529C448.408 182.598 448.298 181.733 448.674 181.019C449.05 180.435 449.094 179.354 448.851 177.731C448.585 176.13 448.32 175.071 448.01 174.573C447.723 174.14 447.524 173.6 447.458 172.994C447.391 172.367 447.457 171.999 447.679 171.847C447.9 171.566 448.408 171.566 449.182 171.847V171.826ZM464.373 144.18C463.445 144.764 462.229 145.284 460.747 145.759C459.266 146.235 458.293 146.646 457.85 147.014C456.656 147.75 455.44 148.074 454.224 147.988C453.008 147.901 452.013 147.447 451.261 146.56C450.973 145.976 450.995 145.5 451.371 145.132C451.747 144.764 452.632 144.332 454.047 143.813C454.334 143.748 457.275 142.493 462.87 140.092C463.622 139.811 464.263 139.854 464.816 140.265C465.369 140.676 465.656 141.195 465.656 141.844C465.722 142.796 465.302 143.553 464.373 144.137V144.18ZM466.673 129.86C466.607 130.509 466.209 131.007 465.501 131.331C464.794 131.656 463.356 132.002 461.211 132.369C458.978 132.737 457.43 132.889 456.568 132.802C455.705 132.737 454.954 132.413 454.268 131.829C452.698 130.379 453.273 129.319 455.949 128.67C456.833 128.454 458.071 128.238 459.641 128.021C464.55 127.372 466.894 127.978 466.673 129.882V129.86ZM463.157 151.925C462.737 152.292 462.162 152.682 461.366 153.071C460.57 153.46 459.973 153.85 459.531 154.217C458.403 154.866 457.43 155.321 456.568 155.58C455.705 155.84 455.02 155.862 454.511 155.645C453.981 155.429 453.737 155.018 453.737 154.434C453.737 153.85 454.113 153.417 454.865 153.114C455.307 152.898 456.214 152.206 457.607 151.038C458.978 149.87 459.929 149.221 460.46 149.069C461.344 148.788 462.184 148.766 462.98 149.004C463.776 149.242 464.152 149.675 464.152 150.259C463.931 150.994 463.622 151.535 463.202 151.903L463.157 151.925ZM455.573 174.551C455.971 173.448 456.258 172.258 456.413 170.939C457.076 167.088 457.828 164.774 458.646 164.06C459.243 163.627 460.128 163.476 461.322 163.627L461.211 165.596C461.145 166.699 461.211 167.305 461.388 167.456C461.565 167.608 462.074 167.391 462.892 166.807C464.528 165.704 465.966 165.834 467.182 167.197C468.398 168.559 468.619 170.268 467.801 172.388C467.359 173.491 467.093 174.184 467.027 174.465C466.872 175.049 466.098 176.022 464.683 177.407C463.268 178.791 462.229 179.635 461.565 179.916C460.902 180.197 459.818 180.284 458.337 180.132C456.037 179.916 454.865 179.289 454.865 178.272C454.931 176.888 455.175 175.655 455.595 174.551H455.573ZM460.039 159.085C459.619 159.128 459.288 159.193 459.044 159.301C458.779 159.409 458.514 159.582 458.204 159.798C456.568 161.118 455.75 161.01 455.75 159.474C455.75 159.323 455.794 159.193 455.86 159.041C455.927 158.89 456.081 158.76 456.302 158.609C456.524 158.457 456.745 158.328 456.966 158.219L457.74 157.83C458.027 157.679 458.293 157.549 458.514 157.441C458.735 157.332 458.956 157.246 459.177 157.159C459.398 157.073 459.553 157.051 459.619 157.051C460.128 156.684 460.57 156.64 460.902 156.878C461.234 157.116 461.388 157.484 461.344 157.917C461.3 158.349 461.167 158.674 460.946 158.89C460.725 158.955 460.415 159.02 459.995 159.063L460.039 159.085ZM478.57 201.375C478.968 201.483 479.52 201.721 480.184 202.089C480.847 202.608 481.555 203.322 482.307 204.273C483.058 205.225 483.434 205.939 483.434 206.458C483.501 206.826 483.633 207.324 483.832 207.929C484.009 208.557 484.12 208.989 484.164 209.249C484.208 209.508 484.23 209.876 484.275 210.352C484.319 210.828 484.275 211.304 484.208 211.78C484.142 212.256 484.009 212.883 483.81 213.64C483.633 214.397 483.39 215.327 483.081 216.43C482.859 217.231 482.616 217.945 482.351 218.55C482.086 219.178 481.931 219.632 481.842 219.913C481.555 220.93 480.294 222.596 478.105 224.889C475.916 227.181 474.147 228.652 472.798 229.323C471.604 229.907 469.857 230.232 467.558 230.296C466.076 230.448 464.816 230.47 463.821 230.361C462.826 230.253 461.985 229.929 461.3 229.388C460.614 228.847 460.15 228.414 459.84 228.068C459.553 227.744 459.111 227.008 458.558 225.884C458.005 224.759 457.607 223.98 457.386 223.526C456.501 221.925 456.524 220.865 457.497 220.367C458.315 219.848 459.067 220.324 459.73 221.795C460.172 222.531 460.526 222.985 460.791 223.158C461.057 223.331 461.41 223.439 461.853 223.439C463.489 223.439 464.528 223.85 464.971 224.651C465.192 225.018 465.744 225.278 466.585 225.473C467.447 225.646 468.243 225.711 468.995 225.646C470.189 225.494 471.803 224.521 473.86 222.704C475.916 220.887 477.11 219.394 477.486 218.226C479.653 213.921 480.361 210.72 479.609 208.621C479.233 207.302 478.769 206.48 478.216 206.112C477.663 205.744 476.38 205.485 474.368 205.355C473.108 205.29 472.223 205.225 471.737 205.182C471.25 205.139 470.742 205.009 470.167 204.749C469.592 204.49 469.282 204.144 469.172 203.711C469.061 203.278 468.995 202.608 468.995 201.743C469.061 201.094 469.504 199.817 470.344 197.914C471.162 196.01 471.914 194.496 472.577 193.328C473.086 192.462 473.218 191.987 472.909 191.9C472.688 191.835 472.135 191.9 471.228 192.073C470.322 192.246 469.769 192.16 469.548 191.792C468.663 191.273 468.376 190.602 468.707 189.78C469.039 188.958 469.879 188.309 471.228 187.877C473.838 187.011 475.518 186.557 476.248 186.557C477.376 186.276 478.172 186.687 478.658 187.812C479.145 188.936 479.012 189.823 478.26 190.494C477.508 191.143 476.425 192.938 474.965 195.859C473.506 198.779 472.909 200.488 473.13 200.985C473.196 201.202 474.169 201.31 476.027 201.31C477.287 201.31 478.127 201.375 478.548 201.483L478.57 201.375ZM462.936 173.838C464.02 172.194 464.44 171.09 464.219 170.506C463.931 169.641 462.958 170.549 461.322 173.232C460.128 175.265 459.84 176.282 460.437 176.282C461.035 176.282 461.875 175.46 462.958 173.816L462.936 173.838ZM480.184 144.115C481.754 141.174 483.081 138.816 484.208 137.063C484.496 136.782 484.872 135.874 485.336 134.381C485.778 132.889 486.088 132.023 486.221 131.807C486.442 131.526 486.862 131.418 487.459 131.526C488.056 131.634 488.454 131.915 488.697 132.348C488.763 133.3 488.852 133.992 488.918 134.424C488.985 134.857 488.918 135.463 488.631 136.22C488.365 136.977 488.144 137.539 487.967 137.864C487.79 138.188 487.481 138.729 487.083 139.508C486.663 140.265 486.353 140.871 486.132 141.303C485.093 143.423 484.385 144.656 484.009 145.024C483.633 145.608 483.479 146.062 483.567 146.387C483.633 146.711 483.877 146.819 484.297 146.711C484.695 146.603 485.093 146.322 485.469 145.889C486.663 144.721 487.835 144.094 488.985 143.986C490.134 143.878 491.129 144.44 491.948 145.673C492.169 146.041 492.036 146.538 491.55 147.144C491.063 147.771 490.444 148.399 489.714 149.047C488.962 149.696 488.476 150.172 488.255 150.475C488.188 150.908 487.879 151.34 487.37 151.795C486.707 152.444 486.508 152.898 486.818 153.114C486.884 153.179 487.039 153.158 487.26 153.006C487.636 152.855 488.343 152.379 489.383 151.578C490.953 150.41 492.147 150.194 492.965 150.929C493.938 151.665 493.783 152.573 492.522 153.655C491.328 154.823 490.444 155.667 489.847 156.229C489.25 156.77 488.255 157.441 486.884 158.241C485.513 159.041 484.341 159.366 483.368 159.214C482.108 159.063 481.356 158.457 481.135 157.354C480.914 156.251 481.289 155.018 482.262 153.633C482.926 152.617 483.235 151.989 483.147 151.773C483.081 151.557 482.506 151.514 481.466 151.665C480.493 151.946 479.675 151.838 479.012 151.34C478.349 150.843 477.928 150.216 477.774 149.48C477.84 148.831 478.658 147.014 480.228 144.072L480.184 144.115ZM481.577 161.334C481.975 161.053 482.528 161.269 483.191 161.983C484.23 162.719 484.783 164.363 484.872 166.959C484.938 169.554 484.606 171.631 483.877 173.232C483.81 173.383 483.633 174.205 483.368 175.741C483.103 177.277 482.793 178.077 482.417 178.142C481.533 178.791 480.737 178.943 480.073 178.575C479.41 178.207 479.034 177.601 478.946 176.715C478.879 175.849 479.012 174.919 479.388 173.989C479.675 173.124 480.029 171.415 480.449 168.905C480.847 166.396 481.068 164.471 481.068 163.173C481.002 162.221 481.157 161.616 481.577 161.313V161.334ZM490.466 166.028C490.754 166.829 490.842 167.954 490.687 169.425C490.532 171.242 490.378 172.496 490.179 173.189C490.002 173.881 489.604 174.378 489.007 174.66C488.034 175.244 487.282 175.179 486.707 174.486C486.132 173.794 486.021 172.907 486.309 171.804C486.464 171.371 486.596 170.333 486.707 168.689C486.818 167.045 486.972 165.574 487.149 164.255C487.326 162.935 487.547 162.329 487.768 162.394C488.277 161.962 488.763 161.918 489.228 162.286C489.692 162.654 489.891 163.26 489.891 164.146C489.957 164.579 490.156 165.206 490.444 166.007L490.466 166.028ZM496.105 159.409C496.591 159.366 496.989 159.474 497.277 159.69C497.785 159.972 498.073 161.248 498.117 163.454C498.161 165.682 497.94 168.278 497.498 171.263C497.431 171.782 496.834 172.756 495.707 174.205C494.579 175.655 493.761 176.541 493.252 176.823C491.992 177.19 491.218 177.126 490.953 176.65C490.687 176.174 491.085 175.438 492.124 174.4C493.009 173.232 493.694 170.095 494.137 165.012C494.358 162.027 494.645 160.231 495.021 159.647C495.242 159.496 495.596 159.409 496.083 159.366L496.105 159.409Z" fill="white"/>
<path d="M531.838 205.463C531.285 206.047 530.71 206.264 530.113 206.112C529.826 206.264 529.163 206.004 528.168 205.355C527.173 204.706 526.31 203.906 525.603 202.997C524.895 202.089 524.718 201.44 525.094 201.094C525.315 199.925 525.934 199.19 526.929 198.909C527.924 198.628 529.03 198.909 530.224 199.774C530.887 200.293 531.484 200.942 532.015 201.743C532.524 202.543 532.789 203.192 532.789 203.711C532.723 204.295 532.391 204.879 531.838 205.463ZM527.084 182.62C526.642 181.82 526.399 180.803 526.354 179.57C526.31 178.337 526.354 177.147 526.531 176.022C526.686 174.897 526.863 173.751 527.084 172.583C527.969 165.964 528.698 161.421 529.251 158.976C529.804 156.532 530.423 155.104 531.086 154.65C532.502 153.785 533.718 154.001 534.779 155.299C535.818 156.619 536.194 158.111 535.907 159.777C535.686 160.88 535.509 162.135 535.398 163.606C535.288 165.077 535.111 166.396 534.89 167.586C534.669 168.776 534.293 170.16 533.762 171.674C532.634 175.027 531.971 177.58 531.75 179.332C531.374 182.382 530.489 183.918 529.074 183.918C528.19 183.853 527.504 183.399 527.062 182.598L527.084 182.62Z" fill="white"/>
</svg>
