<svg width="198" height="129" viewBox="0 0 198 129" fill="none" xmlns="http://www.w3.org/2000/svg">
<g clip-path="url(#clip0_98_579)">
<path d="M142.08 89.8991C142.08 89.8991 178.239 95.6264 192.47 76.5419C206.701 57.4574 189.434 54.3996 185.2 61.6219C181.39 68.116 166.067 81.2791 147.591 77.6097C142.419 76.5808 137.092 76.5516 131.929 77.6097" fill="#ED7343"/>
<path d="M24.2763 33.296L10.6541 22.3656C10.6541 22.3656 9.5713 17.2498 7.48302 16.7062C5.39474 16.1626 0.821793 18.7545 0.976481 22.9577C0.976481 22.9577 -1.99159 26.928 2.39767 31.1798C6.77726 35.4413 33.7799 65.1067 35.6651 68.4751L38.7879 45.4398L24.2763 33.296Z" fill="#ED7343"/>
<path d="M147.727 109.566C157.801 78.6192 121.604 60.6414 89.5447 53.6424C67.289 48.7791 64.5723 23.5402 64.2726 22.8121C67.1827 18.5797 67.5984 7.40667 62.8417 7.28047C59.5643 7.19311 56.5092 8.37739 54.6723 9.28988C53.0964 8.14442 44.4629 2.32976 35.4041 4.9216C33.0064 2.95103 28.1821 -0.572715 25.0787 0.310647C21.4822 1.32991 21.9366 8.80451 24.1215 12.6777C19.5969 17.5119 16.6482 22.6762 16.6482 22.6762C16.6482 22.6762 12.926 27.8211 16.7739 33.6551C17.963 35.4607 19.8966 37.1303 22.275 38.6156C29.1779 45.6436 32.204 51.0506 33.1224 56.1178C35.0657 66.8055 38.3721 83.6185 45.5941 94.3547C77.363 141.503 139.673 134.31 147.727 109.576V109.566Z" fill="white"/>
<path d="M139.838 107.634L175.551 92.4035C175.551 92.4035 188.99 92.8112 192.306 90.7241C195.622 88.6468 195.061 87.1518 195.061 87.1518C195.061 87.1518 197.41 85.2492 194.104 82.6185C194.104 82.6185 191.271 79.4054 186.553 79.6578C143.579 82.007 128.613 68.2227 128.613 68.2227" fill="white"/>
<path d="M65.4135 31.2478C65.8486 28.5783 65.5392 25.8602 64.2727 22.8122C67.1828 18.5798 67.5985 7.40672 62.8418 7.28052C59.5644 7.19316 56.5093 8.37744 54.6724 9.28993C53.6766 8.57159 49.8964 5.99916 44.9658 4.84399C39.9191 8.77544 31.5853 17.9391 43.825 29.4616C51.8204 36.9848 59.6031 35.2375 65.4135 31.2478Z" fill="#ED7343"/>
<path d="M113.647 127.641L164.762 112.857C164.762 112.857 176.779 118.914 180.656 118.439C184.533 117.953 184.658 116.371 184.658 116.371C184.658 116.371 187.588 115.643 185.693 111.847C185.693 111.847 184.813 105.965 180.095 105.965C175.377 105.965 138.561 99.0435 138.561 99.0435" fill="white"/>
<path d="M26.3162 19.4728C26.0552 20.3465 25.3687 20.9192 24.7887 20.7445C24.2086 20.5698 23.9379 19.7155 24.1989 18.8419C24.46 17.9682 25.1464 17.3955 25.7265 17.5702C26.3065 17.7449 26.5772 18.5992 26.3162 19.4728Z" fill="#181616"/>
<path d="M45.0721 22.0646C44.811 22.9383 44.1246 23.511 43.5445 23.3363C42.9645 23.1616 42.6937 22.3073 42.9548 21.4337C43.2158 20.56 43.8926 19.9873 44.4823 20.162C45.0624 20.3367 45.3331 21.191 45.0721 22.0646Z" fill="#181616"/>
<path d="M24.8274 25.3942C24.8274 25.3942 28.2015 29.2382 31.9914 25.1709C31.9914 25.1709 33.7219 29.9178 39.5227 27.9763" stroke="#060203" stroke-width="1.39" stroke-linecap="round" stroke-linejoin="round"/>
<path d="M34.4663 23.5206C34.2922 24.2778 33.0934 25.4136 31.9912 25.1612C30.8891 24.9088 30.2994 23.3556 30.4637 22.6082C30.6377 21.851 31.5369 22.0257 32.639 22.2781C33.7412 22.5305 34.6306 22.7732 34.4566 23.5303L34.4663 23.5206Z" fill="#E96E6E"/>
<path d="M81.2302 26.0639L81.1142 8.56172C81.1142 8.56172 84.3916 4.49438 83.4925 2.5238C82.5934 0.553222 77.7111 -1.38823 74.5593 1.38805C74.5593 1.38805 69.619 1.57249 69.0873 7.66866C68.5555 13.7648 62.5904 53.5064 61.1692 57.0981L80.8822 50.8952L81.2206 26.0639H81.2302Z" fill="white"/>
<path d="M65.0171 24.938C65.0171 24.938 66.5543 39.8969 54.2373 43.3915" stroke="#060203" stroke-width="1.39" stroke-linecap="round" stroke-linejoin="round"/>
<path d="M24.1216 12.6779C24.1216 12.6779 28.1821 7.3583 33.7122 6.40698" stroke="#060203" stroke-width="1.39" stroke-linecap="round" stroke-linejoin="round"/>
<path d="M0.97644 22.9675C0.97644 22.9675 5.10466 17.1917 8.39177 21.7832" stroke="#060203" stroke-width="1.39" stroke-linecap="round" stroke-linejoin="round"/>
<path d="M193.185 83.3079L188.255 84.1815" stroke="#060203" stroke-width="1.01" stroke-linecap="round" stroke-linejoin="round"/>
<path d="M193.572 87.9382L189.076 88.9284" stroke="#060203" stroke-width="1.01" stroke-linecap="round" stroke-linejoin="round"/>
<path d="M184.562 112.09L179.728 110.78" stroke="#060203" stroke-width="1.01" stroke-linecap="round" stroke-linejoin="round"/>
<path d="M182.976 116.439L178.48 115.439" stroke="#060203" stroke-width="1.01" stroke-linecap="round" stroke-linejoin="round"/>
<path d="M74.569 1.3785C74.569 1.3785 81.6363 0.970791 80.1571 6.41657" stroke="#060203" stroke-width="1.39" stroke-linecap="round" stroke-linejoin="round"/>
<path d="M127.182 67.6792C127.182 67.6792 141.955 75.2023 146.247 76.804C150.54 78.4057 157.81 78.9688 157.81 78.9688" stroke="#060203" stroke-width="1.39" stroke-linecap="round" stroke-linejoin="round"/>
<path d="M134.124 107.867L149.167 103.285" stroke="#060203" stroke-width="1.39" stroke-linecap="round" stroke-linejoin="round"/>
<path d="M103.805 76.9107C107.044 77.1631 109.992 75.94 112.99 74.8722C115.223 74.0762 117.475 73.2899 119.68 72.4066C122.503 71.2611 124.494 69.4944 125.993 66.9996C115.213 60.7967 102.065 56.3798 89.5447 53.6424C88.2105 53.3512 86.9634 52.9823 85.7645 52.5552C85.7645 55.4771 85.9579 58.399 86.4219 61.2626C86.8957 64.1748 87.8818 66.9511 89.6897 69.3002C91.5266 71.6979 94.137 73.2317 96.786 74.5324C98.9516 75.6003 101.359 76.7166 103.795 76.9107H103.805Z" fill="#ED7343"/>
</g>
<defs>
<clipPath id="clip0_98_579">
<rect width="198" height="129" fill="white"/>
</clipPath>
</defs>
</svg>
