<svg width="158" height="176" viewBox="0 0 158 176" fill="none" xmlns="http://www.w3.org/2000/svg">
<g clip-path="url(#clip0_98_469)">
<path d="M115.553 62.4199C115.553 62.4199 125.59 68.1226 127.315 69.1048C128.477 69.7597 142.108 48.5771 146.592 48.086C151.075 47.5948 154.451 57.2902 155.931 62.3017C157.51 67.6496 156.049 71.5332 153.262 71.0512C151.692 70.7783 148.253 67.0948 145.539 63.9297C141.6 74.8348 135.111 96.2902 131.798 96.081C127.923 95.8354 109.49 85.2669 109.49 85.2669C109.49 68.0134 115.544 62.429 115.544 62.429L115.553 62.4199Z" fill="#FEF6F3"/>
<path d="M115.489 175.291C115.489 175.291 157.392 177.055 158 172.344C158.281 170.188 152.963 167.514 151.701 165.359C147.209 157.71 154.778 139.319 145.076 132.034C135.374 124.74 118.883 140.538 118.883 140.538C111.55 146.832 107.575 163.139 109.517 175.291H115.489Z" fill="#FEF6F3"/>
<path d="M67.5328 160.247C67.5328 160.247 51.5322 176.828 43.5183 157.946C37.7098 144.267 52.113 116.254 39.9787 89.7327C27.8444 63.2112 13.6953 62.2108 8.64012 71.0694C3.58492 79.9281 25.8296 85.085 31.8922 104.54C37.9548 123.994 30.1043 159.274 38.9713 168.578C49.59 179.72 64.2473 170.097 64.2473 170.097L67.5328 160.238V160.247Z" fill="#FEF6F3"/>
<path d="M45.6783 134.526C48.628 104.176 65.4 93.0341 67.9593 87.6407C74.3396 69.8506 75.71 49.8959 75.71 49.8959C75.71 49.8959 78.4781 30.3959 79.6308 22.8015C80.5383 16.8351 79.2768 6.76677 82.535 5.57531C85.53 4.48389 88.6249 9.03146 92.5728 11.7509C92.5728 11.7509 103.99 4.19285 117.649 7.23062C117.649 7.23062 118.157 -0.15463 122.006 -0.0091078C125.409 0.109129 129.883 11.7691 131.689 14.9433C133.287 17.7446 139.113 24.8388 139.449 30.3868C140.057 40.2187 136.182 45.7667 127.451 49.8959C130.836 56.6718 136.545 67.013 137.144 85.5943C138.07 114.098 138.297 125.704 139.676 139.865C141.491 158.565 132.17 175.291 130.001 175.291H76.9171C61.6698 175.291 44.3351 148.378 45.6783 134.526Z" fill="#FEF6F3"/>
<mask id="mask0_98_469" style="mask-type:luminance" maskUnits="userSpaceOnUse" x="7" y="66" width="61" height="108">
<path d="M67.5328 160.247C67.5328 160.247 51.5322 176.828 43.5183 157.946C37.7098 144.267 52.113 116.254 39.9787 89.7327C27.8444 63.2112 13.6953 62.2108 8.64012 71.0694C3.58492 79.9281 25.8296 85.085 31.8922 104.54C37.9548 123.994 30.1043 159.274 38.9713 168.578C49.59 179.72 64.2473 170.097 64.2473 170.097L67.5328 160.238V160.247Z" fill="white"/>
</mask>
<g mask="url(#mask0_98_469)">
<path d="M28.1349 114.335C29.3419 112.207 30.8576 110.197 32.5275 108.414C33.1719 107.723 33.8617 107.068 34.5787 106.468C35.7131 105.513 36.9111 104.467 38.218 103.739C41.0406 102.166 44.3079 102.111 47.1486 103.676C47.793 104.03 48.4192 104.567 48.9637 105.049C49.0999 105.176 49.2269 105.304 49.354 105.44C49.9984 106.168 50.67 106.995 51.0965 107.896C51.6774 109.105 52.0767 110.297 52.3127 111.552C52.4398 111.425 52.5305 111.27 52.6667 111.152C54.146 109.851 55.7252 109.042 57.6765 108.778C60.1179 108.45 62.768 109.133 64.5378 110.952C65.7448 112.198 66.5163 113.698 66.843 115.363C66.9973 115.49 67.1697 115.581 67.3149 115.727C69.2571 117.3 70.9271 119.365 72.1251 121.547C74.1853 125.295 75.2562 129.688 73.0508 133.644C71.6622 136.127 69.1573 138.319 66.607 139.529C65.2184 140.183 63.7935 140.793 62.2779 141.029C60.6261 141.293 59.0288 141.302 57.377 141.466C58.0032 141.384 58.6385 141.293 59.2738 141.211C57.9578 141.393 56.8506 141.584 55.5437 141.411C54.3366 141.248 53.302 140.902 52.2129 140.32C51.1056 139.72 49.8895 138.564 49.0545 137.555C47.2212 135.345 45.8961 133.098 45.0521 130.324C44.8887 129.788 44.8161 129.224 44.807 128.669C44.3623 128.869 43.9176 129.051 43.4729 129.224C43.2369 129.315 43.01 129.387 42.765 129.433C40.614 129.87 38.5448 129.733 36.4301 129.124C34.5333 128.578 32.6364 127.787 31.2297 126.359C30.1043 125.222 29.5235 124.076 28.9698 122.63C28.2347 121.829 27.6538 120.902 27.4088 119.838C26.9822 117.955 27.1547 116.054 28.1258 114.344L28.1349 114.335Z" fill="#6D6D77"/>
<path d="M9.01223 61.3194C10.9726 62.0289 12.8604 62.9111 14.7209 63.8752C17.5616 61.5013 22.0178 61.474 25.1308 63.3113C27.4633 64.6846 29.233 67.0494 30.9393 69.0958C34.3245 73.1522 37.3558 77.5088 38.8896 82.593C40.5233 83.8663 42.048 85.2851 43.3731 86.9041C47.1304 91.4698 50.4522 97.8637 46.7493 103.548C43.8813 107.959 38.327 109.778 33.8163 111.998C30.4764 113.635 25.9658 113.016 24.078 109.442C23.8965 109.096 23.7513 108.714 23.6242 108.332C23.1613 108.178 22.6985 108.023 22.2356 107.777C19.0409 106.095 17.4436 102.73 15.9733 99.61C15.1656 97.891 14.3669 96.1356 13.6681 94.3439C11.617 92.443 9.67476 90.4148 7.94129 88.2047C3.3671 82.3656 0.081674 75.7716 -7.88335e-06 68.1954C-0.0453867 63.8388 4.62863 59.7369 9.01223 61.3194Z" fill="#181616"/>
</g>
<mask id="mask1_98_469" style="mask-type:luminance" maskUnits="userSpaceOnUse" x="45" y="-1" width="95" height="177">
<path d="M45.6783 134.526C48.628 104.176 65.4 93.0341 67.9593 87.6407C74.3396 69.8506 75.71 49.8959 75.71 49.8959C75.71 49.8959 78.4781 30.3959 79.6308 22.8015C80.5383 16.8351 79.2768 6.76677 82.535 5.57531C85.53 4.48389 88.6249 9.03146 92.5728 11.7509C92.5728 11.7509 103.99 4.19285 117.649 7.23062C117.649 7.23062 118.157 -0.15463 122.006 -0.0091078C125.409 0.109129 129.883 11.7691 131.689 14.9433C133.287 17.7446 139.113 24.8388 139.449 30.3868C140.057 40.2187 136.182 45.7667 127.451 49.8959C130.836 56.6718 136.545 67.013 137.144 85.5943C138.07 114.098 138.297 125.704 139.676 139.865C141.491 158.565 132.17 175.291 130.001 175.291H76.9171C61.6698 175.291 44.3351 148.378 45.6783 134.526Z" fill="white"/>
</mask>
<g mask="url(#mask1_98_469)">
<path d="M95.114 5.53896C101.013 0.691249 120.199 10.5049 114.772 17.0898C109.735 21.8738 89.5505 11.3417 95.114 5.53896Z" fill="#181616"/>
<path d="M48.1106 98.564C52.2945 92.6522 44.0084 80.8467 56.3242 79.3096C70.2282 62.2108 89.4235 109.078 66.4073 107.277C65.3546 126.195 41.7303 112.325 48.1106 98.564Z" fill="#181616"/>
<path d="M56.5239 110.479C57.2953 91.3243 88.7882 101.256 75.6011 118.091C69.3388 124.04 53.6468 122.184 56.5239 110.479Z" fill="#ED7343"/>
<path d="M60.5898 62.0471C68.6763 33.552 82.889 67.1131 77.7249 81.4197C65.8356 98.5459 58.4389 71.5697 60.5898 62.0471Z" fill="#ED7343"/>
<path d="M92.3096 5.85726C96.7658 -7.1215 109.581 7.02144 103.282 16.062C97.3194 24.1567 90.4037 13.6609 92.3096 5.85726Z" fill="#ED7343"/>
<path d="M106.196 14.5431C115.353 14.5431 115.371 28.8043 106.196 28.8043C97.0199 28.8043 97.0199 14.5431 106.196 14.5431Z" fill="#6D6D77"/>
<path d="M28.1349 114.335C40.3145 81.547 102.792 134.208 57.377 141.475C58.0032 141.393 58.6385 141.302 59.2738 141.22C51.7772 143.148 45.76 135.427 44.8161 128.678C36.3666 133.062 23.9872 123.448 28.1439 114.335H28.1349Z" fill="#6D6D77"/>
</g>
<path d="M98.7716 82.6566C101.358 67.8133 104.635 63.4204 108.991 63.5022C112.167 63.5568 114.827 65.7487 117.014 74.4437C118.275 79.4551 119.074 85.085 117.014 86.0491C114.954 87.0131 108.71 83.3842 106.468 78.6274" stroke="#141421" stroke-width="1.57" stroke-linecap="round" stroke-linejoin="round"/>
<path d="M109.762 82.9022C109.762 82.9022 113.529 103.239 102.701 103.175C88.761 103.084 82.5169 88.4684 80.8197 78.0181" stroke="#141421" stroke-width="1.57" stroke-linecap="round" stroke-linejoin="round"/>
<path d="M74.2761 130.115C74.2761 130.115 101.413 132.343 103.591 149.579C105.769 166.823 103.219 165.359 107.403 167.787C111.587 170.215 115.235 171.607 116.197 175.281" stroke="#141421" stroke-width="1.57" stroke-linecap="round" stroke-linejoin="round"/>
<path d="M114.436 52.0242C114.436 52.0242 102.211 54.4617 95.114 49.0501C88.4433 43.9659 87.8443 38.9727 87.8443 38.9727" stroke="#141421" stroke-width="1.57" stroke-linecap="round" stroke-linejoin="round"/>
<path d="M125.109 21.5555C125.327 22.5014 126.017 23.1471 126.652 22.9925C127.279 22.847 127.614 21.9648 127.397 21.0189C127.179 20.073 126.489 19.4272 125.854 19.5818C125.218 19.7274 124.892 20.6187 125.109 21.5555Z" fill="#181616"/>
<path d="M105.052 23.1198C105.27 24.0657 105.96 24.7115 106.595 24.5568C107.221 24.4113 107.557 23.5291 107.339 22.5832C107.121 21.6373 106.432 20.9915 105.796 21.1462C105.17 21.2917 104.834 22.1739 105.052 23.1198Z" fill="#181616"/>
<path d="M126.317 27.913C126.317 27.913 122.505 31.7693 118.738 27.2308C118.738 27.2308 116.605 32.1513 110.579 29.732" stroke="#060203" stroke-width="1.57" stroke-linecap="round" stroke-linejoin="round"/>
<path d="M116.215 25.33C116.351 26.1394 117.549 27.4219 118.738 27.2218C119.927 27.0217 120.653 25.4209 120.517 24.6115C120.381 23.802 119.41 23.9202 118.23 24.1203C117.041 24.3204 116.088 24.5114 116.224 25.33H116.215Z" fill="#E96E6E"/>
</g>
<defs>
<clipPath id="clip0_98_469">
<rect width="158" height="176" fill="white"/>
</clipPath>
</defs>
</svg>
