<svg width="41" height="40" viewBox="0 0 41 40" fill="none" xmlns="http://www.w3.org/2000/svg">
<g clip-path="url(#clip0_62_809)">
<path d="M26.745 0C29.2245 0 31.2343 3.77964 31.2343 6.9816C31.2343 10.1836 29.2245 12.78 26.745 12.78C24.2655 12.78 22.2556 10.184 22.2556 6.9816C22.2556 3.77916 24.2655 0 26.745 0Z" fill="#FA8334"/>
<path d="M13.989 0C16.4685 0 18.4784 3.77964 18.4784 6.9816C18.4784 10.1836 16.4685 12.78 13.989 12.78C11.5095 12.78 9.49963 10.184 9.49963 6.9816C9.49963 3.77916 11.5095 0 13.989 0Z" fill="#FA8334"/>
<path d="M0.543947 16.8886C-0.508906 14.247 -0.0478936 10.4472 2.05398 9.60588C4.15585 8.76457 7.10259 11.2001 8.15544 13.8417C9.20829 16.4833 8.35815 19.3068 6.25628 20.1481C4.15441 20.9894 1.5968 19.5301 0.543947 16.8886Z" fill="#FA8334"/>
<path d="M40.19 16.8886C39.1372 19.5301 36.5796 20.9894 34.4777 20.1481C32.3758 19.3068 31.5252 16.4833 32.5785 13.8417C33.6314 11.2001 36.5781 8.76457 38.68 9.60588C40.7819 10.4472 41.2429 14.247 40.19 16.8886Z" fill="#FA8334"/>
<path d="M36.4286 31.4798C35.947 29.3166 34.7992 27.3655 33.5298 25.5571C30.5552 21.3208 25.7908 17.0432 20.3669 17.0432C14.9656 17.0432 10.1796 21.3198 7.20413 25.5571C5.93419 27.3655 4.78645 29.3161 4.30531 31.4798C3.82369 33.6436 4.08726 36.0629 5.42477 37.8204C6.76229 39.5779 9.29594 40.4552 11.277 39.504C12.455 38.9383 13.4081 37.7978 14.7078 37.6878C15.9006 37.587 16.9549 38.3923 17.9502 39.0655C18.6695 39.552 19.5365 39.9947 20.3669 40.0005C21.1974 39.9947 22.0644 39.552 22.7837 39.0655C23.7785 38.3923 24.8328 37.5875 26.0261 37.6878C27.3257 37.7973 28.2789 38.9383 29.4568 39.504C31.4379 40.4552 33.9716 39.5779 35.3091 37.8204C36.6466 36.0629 36.9102 33.6436 36.4286 31.4798ZM25.0916 28.8738C24.4796 29.9941 23.514 30.9814 22.6984 31.7492C22.2599 32.1622 21.7993 32.5483 21.3196 32.9056C21.3187 32.906 21.3177 32.907 21.3168 32.9075C20.7532 33.3233 19.9807 33.3233 19.4171 32.9075C19.4162 32.9065 19.4152 32.906 19.4142 32.9056C18.9345 32.5488 18.474 32.1622 18.0355 31.7492C17.2199 30.9814 16.2543 29.9941 15.6423 28.8738C15.1367 27.9485 14.8727 26.9319 15.1343 25.8726C15.3849 24.8574 16.1848 23.9657 17.1653 23.8409C18.2991 23.6968 19.6189 24.4963 20.3669 25.4145C21.1145 24.4963 22.4348 23.6968 23.5686 23.8409C24.5491 23.9652 25.3489 24.8574 25.5996 25.8726C25.8612 26.9319 25.5972 27.9485 25.0916 28.8738Z" fill="#FA8334"/>
</g>
<defs>
<clipPath id="clip0_62_809">
<rect width="40.7339" height="40" fill="white"/>
</clipPath>
</defs>
</svg>
