<svg width="369" height="43" viewBox="0 0 369 43" fill="none" xmlns="http://www.w3.org/2000/svg">
<g clip-path="url(#clip0_178_637)">
<path d="M6.66018 22.923C9.18316 21.7548 10.8802 21.0658 11.7662 20.8636C12.029 20.7738 12.5171 20.5941 13.2379 20.317C13.9588 20.0399 14.6045 19.8302 15.1977 19.6804C15.7834 19.5381 16.5193 19.4183 17.3978 19.3285C18.0436 19.2386 18.7419 19.0963 19.4853 18.8866C20.2362 18.6844 21.1973 18.5197 22.3687 18.4074C22.6015 18.3774 22.8117 18.34 22.9844 18.295L23.3373 18.2052C23.3974 18.1902 23.495 18.1902 23.6452 18.2052C23.7954 18.2201 23.9981 18.2726 24.2609 18.3624C24.4937 18.5347 24.6739 18.6769 24.7866 18.7818C24.8992 18.8866 25.0118 19.0738 25.1169 19.3509C25.2221 19.628 25.2521 19.9425 25.2296 20.2945C25.2296 20.9086 25.0944 21.4627 24.8316 21.9645C24.5988 22.4063 24.2534 22.8781 23.7954 23.3873C23.3373 23.8966 22.9994 24.1961 22.7592 24.286C22.5264 24.4058 22.3011 24.5481 22.0984 24.7278C21.9257 24.8476 21.5728 24.9375 21.0622 25.0124C20.5516 25.0873 20.2512 25.0648 20.1611 24.945C20.0109 24.6829 20.2512 24.3758 20.8895 24.0239C21.5202 23.6719 22.1134 23.1552 22.6691 22.4662C23.2247 21.7773 23.5025 21.2306 23.5025 20.8187C23.5025 20.5267 23.4199 20.3319 23.2623 20.2271C23.1046 20.1223 22.7742 20.0848 22.2711 20.1148C20.8895 20.2346 19.2826 20.4667 17.4504 20.8187C15.6182 21.1707 14.2291 21.5526 13.2905 21.957C12.8475 22.1292 12.2393 22.3464 11.4658 22.5935C10.6849 22.8407 10.0091 23.0878 9.42344 23.3424C8.83775 23.5895 8.08687 23.949 7.17829 24.4208C6.56257 24.7428 5.93182 25.0573 5.28606 25.3643C4.6403 25.6714 4.16724 25.8885 3.85938 26.0233C3.55152 26.1581 3.19109 26.3678 2.77811 26.6599C2.36512 26.9519 1.92961 27.3189 1.45655 27.7532C1.19374 28.0453 0.968473 28.1951 0.773243 28.1951C0.578013 28.1951 0.382783 28.0528 0.180044 27.7532C0.0899375 27.6933 0.0298666 27.566 0.00734009 27.3563C-0.0226953 27.1541 -0.0151865 26.892 0.0298666 26.57C0.0749198 26.248 0.119973 25.9709 0.165026 25.7388C0.210079 25.5066 0.277659 25.1996 0.382783 24.8177C0.487907 24.4357 0.547977 24.2036 0.578013 24.1137C0.690646 23.8816 0.773243 23.3948 0.818296 22.6684C0.863349 21.9345 0.930929 21.283 1.03605 20.7139C1.14118 20.1447 1.33641 19.8452 1.62925 19.8152C1.77943 19.7853 1.94462 19.8527 2.13235 20.0099C2.32007 20.1747 2.47775 20.3694 2.59789 20.6015C2.7706 21.0434 2.70302 21.8596 2.38014 23.0578C2.08729 24.256 1.99719 24.9 2.11733 24.9899C2.61291 24.7877 4.12219 24.0988 6.65267 22.9305L6.66018 22.923ZM13.5233 29.2435C13.756 29.0712 13.9813 28.8765 14.1841 28.6743C14.597 28.2625 14.95 28.0153 15.2428 27.9255C15.5356 27.8356 15.7834 27.9255 15.9937 28.1651C16.1964 28.4122 16.3616 28.6893 16.4743 28.9964C16.5869 29.3034 16.692 29.7078 16.7821 30.202C16.8422 30.6439 16.7821 31.0632 16.5869 31.4751C16.3917 31.887 16.1589 32.1416 15.8811 32.2464C15.6032 32.3513 15.3329 32.2839 15.0701 32.0517C14.8974 31.9094 14.8373 31.7297 14.8974 31.5275C15.01 31.1756 15.0701 30.9135 15.0701 30.7412C15.0701 30.569 15.0401 30.4566 14.98 30.4117C14.9199 30.3668 14.8223 30.3743 14.6947 30.4342C14.5595 30.4941 14.4469 30.5615 14.3417 30.6289C14.2366 30.7038 14.1015 30.8086 13.9212 30.9584C13.8311 31.0483 13.7636 31.1082 13.726 31.1306C13.681 31.1606 13.6284 31.198 13.5683 31.243C13.5083 31.2879 13.4632 31.3253 13.4332 31.3553C13.2004 31.4152 13.0427 31.5874 12.9676 31.8795C12.8925 32.1716 12.8475 32.531 12.8325 32.9579C12.8174 33.3847 12.7949 33.6843 12.7649 33.8565C12.7048 34.2983 12.7198 34.5455 12.8099 34.6054C12.9 34.6353 13.1253 34.6054 13.4932 34.493C13.8612 34.3882 14.2066 34.2534 14.5295 34.0737C14.9725 33.8415 15.3554 33.7816 15.6933 33.9014C16.0312 34.0213 16.1589 34.2534 16.0688 34.6054C15.9486 35.0472 15.6107 35.3542 15.0551 35.5265C14.5295 35.6987 13.9663 35.9608 13.3806 36.2978C12.7949 36.6348 12.457 36.8894 12.3669 37.0691C12.2167 37.4511 12.1266 37.9229 12.0816 38.492C12.0365 39.0611 12.0816 39.5254 12.1942 39.8774H13.0277C14.139 39.8175 15.3179 39.7127 16.5719 39.5479C17.8183 39.3906 19.1624 39.3083 20.5966 39.3083C22.2711 39.2783 23.7353 39.1735 24.9968 39.0012C26.2583 38.829 27.6925 38.7092 29.3069 38.6493C30.8312 38.5594 31.6947 38.5744 31.9049 38.6942C32.1077 38.814 32.2128 39.0237 32.2128 39.3307C32.2128 39.6378 32.1227 39.8774 31.95 40.0571C31.7473 40.2593 31.4995 40.3866 31.2216 40.4316C30.9438 40.4765 30.4257 40.469 29.6598 40.4091C28.1655 40.3791 26.7088 40.4765 25.3047 40.6937C23.9005 40.9108 22.2936 41.0531 20.5065 41.113C13.4932 41.3452 8.1995 41.9293 4.62528 42.8654C3.80682 43.0975 3.23615 43.0751 2.92828 42.798C2.62042 42.5209 2.67298 42.0566 3.08597 41.4126C3.28871 41.1804 3.56654 41.0082 3.91945 40.9108C4.27237 40.8135 5.09083 40.7012 6.38236 40.5813C8.37971 40.3791 9.58113 40.2144 9.9866 40.1021C10.0992 39.9298 10.1443 39.7726 10.1218 39.6378C10.0917 39.503 10.0241 39.3232 9.92653 39.0911C9.82141 38.8589 9.76885 38.6642 9.76885 38.522C9.73881 38.2598 9.70127 38.1026 9.65621 38.0577C9.61116 38.0127 9.46098 37.9753 9.19067 37.9453C8.51487 37.8555 8.28209 37.466 8.48483 36.7621C8.5449 36.5 8.64252 36.3128 8.77017 36.2154C8.90533 36.1106 9.16063 36.0357 9.54358 35.9758C10.1293 35.856 10.5348 35.6463 10.7525 35.3393C10.9703 35.0322 11.0679 34.5305 11.0378 33.8265C11.0378 33.2724 10.9853 32.9054 10.8802 32.7332C10.775 32.561 10.5648 32.4711 10.2419 32.4711C9.73881 32.4711 9.43095 32.2539 9.31832 31.8121C9.14561 31.6099 9.19067 31.2804 9.476 30.8236C9.75383 30.3743 10.0992 29.895 10.5122 29.4007C10.9252 28.9065 11.158 28.5995 11.2181 28.4796C11.2781 28.3898 11.3682 28.2699 11.4809 28.1052C11.5935 27.9479 11.7061 27.8057 11.8113 27.6858C11.9164 27.566 11.984 27.4537 12.029 27.3339C12.0741 27.214 12.059 27.1466 11.984 27.1167C11.9089 27.0867 11.7587 27.1017 11.5184 27.1616C11.2856 27.2215 10.9327 27.3264 10.4597 27.4687C9.72379 27.7308 9.19067 27.8206 8.85277 27.7308C8.51487 27.6409 8.40224 27.2889 8.52238 26.6749C8.61248 26.5026 8.91284 26.3004 9.42344 26.0833C9.93404 25.8661 10.4296 25.7238 10.8952 25.6639C11.0979 25.6639 11.3983 25.5965 11.7962 25.4692C12.1942 25.3419 12.5246 25.1996 12.8099 25.0498C13.0878 24.9075 13.4707 24.7053 13.9513 24.4582C14.4318 24.2111 14.7322 24.0538 14.8523 23.9939C15.4981 23.8516 15.8886 23.949 16.0387 24.3009C16.1288 24.593 16.0838 24.8926 15.9036 25.1996C15.7234 25.5066 15.3179 25.9934 14.6721 26.6674C14.1165 27.2515 13.5308 27.933 12.9151 28.7043C12.2993 29.4831 11.9915 29.9249 11.9915 30.0448C11.9915 30.3069 12.4871 30.0448 13.4857 29.2585L13.5233 29.2435ZM13.5683 4.44846C14.8899 4.35859 15.4906 4.06653 15.3705 3.57228V3.13045L16.8197 3.08552C17.7883 3.08552 18.419 3.04058 18.7119 2.95072C19.2075 2.71857 19.5604 2.72606 19.7706 2.97319C19.9734 3.22031 20.0334 3.53484 19.9433 3.91676C19.8532 4.29868 19.6955 4.57576 19.4628 4.748C19.3426 4.77796 18.9822 4.82289 18.3665 4.8828C17.6907 4.94271 16.6845 5.2123 15.3554 5.69158C14.0189 6.17085 13.2905 6.54529 13.1779 6.80739C12.885 7.3316 12.5471 8.20028 12.1642 9.39847C12.1041 9.60067 12.3219 9.61565 12.825 9.44341C13.9062 9.12139 14.4394 8.96413 14.4093 8.96413C14.7022 8.87427 14.95 8.91171 15.1602 9.07646C15.3629 9.24121 15.438 9.45089 15.378 9.713C15.2879 10.065 15.0926 10.372 14.7848 10.6341C14.4769 10.8962 14.1615 11.016 13.8386 10.9861C13.6059 10.9561 13.0577 11.1508 12.2092 11.5552C11.3908 11.9671 10.332 12.3865 9.04049 12.8283C7.74897 13.2701 6.88545 13.4873 6.44243 13.4873C6.08951 13.4873 5.91681 13.2701 5.91681 12.8283C5.91681 12.0944 6.91548 11.5103 8.90533 11.0759C9.1381 11.016 9.32583 10.9112 9.45348 10.7464C9.58864 10.5892 9.97159 10.035 10.6173 9.09893C10.8201 8.77691 10.9928 8.42494 11.1204 8.04302C11.2556 7.6611 11.3007 7.42895 11.2781 7.33909C11.2181 7.24922 10.9853 7.2642 10.5723 7.38402C10.1593 7.50384 9.7313 7.62366 9.27326 7.75845C8.81522 7.89325 8.5449 7.93818 8.46231 7.91571C8.10939 7.97562 6.99057 8.26768 5.12087 8.79189C4.3024 9.02404 3.81433 9.09893 3.67166 9.00906C3.43889 8.88924 3.28871 8.61965 3.22864 8.20028C3.16857 7.77343 3.24366 7.45891 3.44639 7.25671C3.64913 7.11443 4.0471 7.02456 4.63279 6.99461C5.21848 6.96465 5.64649 6.88977 5.9093 6.77744C9.45348 6.01359 11.3908 5.47441 11.7136 5.15239C11.8037 5.06253 11.8488 4.94271 11.8713 4.77796C11.8863 4.6207 11.8713 4.21631 11.8037 3.57228C11.6536 2.14194 11.586 1.27326 11.586 0.981197C11.586 0.689138 11.6761 0.471966 11.8488 0.322193C12.2017 -0.0597298 12.5696 -0.104662 12.9451 0.187397C13.1779 0.389591 13.3581 1.38559 13.4707 3.16789L13.5608 4.44097L13.5683 4.44846ZM9.32583 13.5098C9.72379 13.6745 9.93404 14.0115 9.96408 14.5432C9.99411 14.7154 10.0241 14.8502 10.0542 14.9401C10.0842 15.03 10.1293 15.0674 10.1893 15.0524C10.2494 15.0375 10.302 15.0075 10.362 14.9626C10.4221 14.9176 10.5197 14.8502 10.6474 14.7679C10.775 14.6855 10.9027 14.6106 11.0228 14.5507C11.1355 14.5207 11.3532 14.4084 11.6611 14.1987C11.9689 13.9965 12.2468 13.8168 12.4946 13.6745C12.7424 13.5322 13.0502 13.375 13.4182 13.2102C13.7861 13.0529 14.0789 12.9781 14.2967 12.993C14.5144 13.008 14.7397 13.0904 14.98 13.2327C15.1827 13.4049 15.2428 13.7194 15.1527 14.1763C15.0626 14.6331 14.8598 15.0749 14.537 15.5167L14.2742 15.9136C14.6571 16.1757 14.8899 16.3929 14.98 16.5726C15.01 16.9546 14.9424 17.2541 14.7848 17.4713C14.6271 17.6884 14.3042 17.9505 13.8161 18.2426C13.3356 18.5347 13.0202 18.7369 12.87 18.8567C11.3457 19.9425 10.302 20.4368 9.74632 20.3469C9.57362 20.317 9.42344 20.2421 9.3033 20.1298C9.18316 20.0099 9.07052 19.8676 8.95038 19.6879C8.83024 19.5157 8.73263 19.3809 8.64252 19.291C8.43978 19.0589 8.33466 18.7219 8.33466 18.28C8.39473 16.8497 8.34967 15.966 8.1995 15.644C7.93669 15 7.98174 14.4159 8.33466 13.8917C8.59747 13.4798 8.92786 13.36 9.32583 13.5172V13.5098ZM11.6761 15.7713C11.4734 15.8612 11.188 16.1083 10.8201 16.5202C10.4522 16.9321 10.2569 17.2241 10.2269 17.3964C10.1668 17.6585 10.1969 17.7933 10.317 17.7933C10.4071 17.7933 10.7375 17.4788 11.3082 16.8497C11.8788 16.2207 12.1642 15.8612 12.1642 15.7713C12.1642 15.6515 12.0065 15.6515 11.6836 15.7713H11.6761Z" fill="#383838"/>
<path d="M39.2187 24.2335C39.0686 24.3833 38.8358 24.5556 38.5129 24.7578C37.6043 25.3419 36.9436 25.4916 36.5306 25.1996C36.3804 25.0798 36.2978 24.8401 36.2678 24.4732C36.2377 24.1062 36.2978 23.7842 36.4405 23.5071C36.5906 23.2301 36.8084 23.1477 37.1012 23.2675C37.3941 23.3274 37.6644 23.3049 37.9122 23.2001C38.16 23.0953 38.4378 22.9305 38.7457 22.6984C39.0535 22.4662 39.2788 22.3164 39.429 22.2565C39.6017 22.1667 39.9471 21.9121 40.4652 21.4852C40.9758 21.0583 41.3062 20.8187 41.4564 20.7588C42.3349 20.2346 42.868 20.1597 43.0407 20.5416C43.3035 21.0134 43.2134 21.3429 42.7779 21.5526C42.5752 21.6125 42.1021 21.972 41.3663 22.631C40.6304 23.29 40.1498 23.6644 39.9171 23.7468C39.5942 23.919 39.3614 24.0838 39.2112 24.2261L39.2187 24.2335ZM43.5739 26.8845C43.7466 26.7797 43.9869 26.8471 44.2797 27.0792C44.4524 27.3413 44.4299 27.9329 44.1896 28.8541C43.9568 29.7752 43.709 30.5016 43.4387 31.0258C43.236 31.4077 43.0032 31.842 42.7554 32.3438C42.5076 32.838 42.3649 33.1301 42.3349 33.1975C42.3049 33.2724 42.1472 33.4895 41.8543 33.8565C41.5615 34.2234 41.2912 34.538 41.0434 34.8001C40.7956 35.0622 40.33 35.5789 39.6542 36.3352C39.2413 36.7771 38.9334 37.0242 38.7307 37.0841C38.4078 37.174 38.1224 37.0691 37.8746 36.7771C37.6269 36.485 37.5292 36.148 37.5893 35.7661C37.6193 35.5639 37.6719 35.4291 37.747 35.3692C37.8221 35.3093 37.9873 35.2494 38.2501 35.197C38.4829 35.0772 38.7532 34.815 39.061 34.4107C39.3689 33.9988 39.6242 33.7067 39.8345 33.5345C40.3 33.0402 40.9383 32.0967 41.7492 30.7038C42.5527 29.3184 43.0633 28.2699 43.266 27.566C43.296 27.214 43.4012 26.9894 43.5739 26.8845ZM39.5716 10.0125C39.6918 10.0724 39.9921 10.2597 40.4727 10.5817C40.9533 10.9037 41.2686 11.0909 41.4188 11.1508C42.3574 11.5327 42.9206 11.8023 43.1158 11.9596C43.3035 12.1243 43.4012 12.379 43.4012 12.7309C43.4312 13.0829 43.296 13.2851 43.0032 13.345C42.7103 13.4049 42.3124 13.315 41.8168 13.0829C41.111 12.701 40.1874 12.3939 39.046 12.1618C38.5805 12.042 38.2951 11.9147 38.2125 11.7649C38.1224 11.6226 38.1975 11.4279 38.4303 11.1958C38.8733 10.5218 39.2488 10.1249 39.5716 10.0125ZM48.8075 18.7893C49.0703 18.4972 49.2956 18.5047 49.4908 18.8117C49.6786 19.1188 49.8663 19.5981 50.039 20.2346C50.0991 20.5266 50.0991 21.2381 50.039 22.3614C49.9789 23.4847 49.9038 24.1512 49.8212 24.3608C49.7011 24.6529 49.4683 24.8177 49.1154 24.8401C48.7625 24.8701 48.5447 24.7503 48.4546 24.4882C48.3044 23.0578 48.4246 21.1557 48.8075 18.7818V18.7893ZM51.9763 14.97C52.209 14.8278 52.4043 14.6555 52.5469 14.4683C52.6971 14.2811 52.9149 14.0939 53.2077 13.9216C53.5006 13.7494 53.7333 13.6595 53.9136 13.6595C54.1463 13.6595 54.3265 13.8168 54.4392 14.1238C54.5593 14.4309 54.5443 14.7154 54.3941 14.9775C54.2439 15.2097 54.1163 15.3894 53.9962 15.5017C53.876 15.6216 53.7183 15.7414 53.5156 15.8762C53.3128 16.011 53.1777 16.1008 53.1176 16.1607C52.7347 16.5726 52.2166 16.8272 51.5558 16.9321C50.895 17.0369 50.3619 16.8497 49.9489 16.3854C49.7161 16.1233 49.611 15.8537 49.641 15.5766C49.6711 15.2995 49.8438 14.7679 50.1666 13.9741C50.5196 13.2102 50.6622 12.8058 50.6097 12.7459C50.5496 12.716 50.3018 12.7609 49.8588 12.8807C49.2731 13.1428 48.8451 13.0979 48.5823 12.7459C48.3195 12.3939 48.3495 11.997 48.6724 11.5627C49.8438 9.8403 50.4895 8.56722 50.6097 7.74347C50.6697 7.21926 50.7448 6.91223 50.8274 6.82236C50.91 6.7325 51.1653 6.65012 51.5783 6.56026C51.7285 6.59021 51.8111 6.64263 51.8411 6.71752C51.8711 6.79241 51.8862 7.01707 51.8862 7.39899C51.9462 7.69105 51.9237 8.02055 51.8186 8.3875C51.7135 8.75444 51.5483 9.18878 51.3155 9.7055C51.0827 10.2147 50.9325 10.5442 50.8725 10.694C50.9325 10.724 51.1353 10.679 51.4882 10.5592C52.5169 10.2072 53.1176 10.387 53.2903 11.0834C53.3804 11.4653 53.1552 11.9147 52.6295 12.4464C52.4268 12.6486 52.1415 13.0754 51.7735 13.7194C51.4056 14.3635 51.2254 14.7753 51.2254 14.9476C51.2254 15.2097 51.4732 15.2247 51.9763 14.9925V14.97ZM50.9851 21.0658C50.94 20.4218 50.9175 19.8302 50.9175 19.291C50.9175 18.7518 50.9926 18.4972 51.1353 18.5197C51.4281 18.3175 51.6384 18.28 51.7735 18.4074C51.9087 18.5347 52.0589 18.939 52.2391 19.613C52.5019 21.3953 52.592 22.4512 52.5019 22.7733C52.3517 23.2675 51.9612 23.3723 51.3155 23.0803C51.1127 22.938 51.0076 22.6385 51.0076 22.2041C51.0377 22.0843 51.0302 21.7099 50.9851 21.0658ZM53.8009 18.1677C54.1088 18.2875 54.3791 18.4598 54.6119 18.6919C55.0249 19.1338 55.1826 19.98 55.0924 21.2381C55.0624 21.972 55.0023 22.4587 54.9197 22.7059C54.8296 22.953 54.6719 23.1102 54.4392 23.1702C54.1764 23.3424 53.9361 23.245 53.7108 22.8631C53.4931 22.4812 53.4555 22.1442 53.5982 21.8521C53.7484 21.62 53.7634 21.1782 53.6658 20.5341C53.5606 19.8901 53.4555 19.4633 53.3354 19.2611C53.2152 19.0888 53.1476 18.8716 53.1176 18.6245C53.0876 18.3774 53.1176 18.2201 53.2077 18.1602C53.2978 18.0404 53.4931 18.0404 53.8009 18.1602V18.1677ZM59.7855 7.06949C59.4175 7.30164 58.9445 7.51881 58.3588 7.70603C57.7731 7.89324 57.3902 8.06548 57.2174 8.20777C56.7519 8.49983 56.2713 8.63462 55.7908 8.60467C55.3102 8.57471 54.9197 8.3875 54.6269 8.03553C54.5068 7.80338 54.5218 7.60867 54.6719 7.46639C54.8221 7.3241 55.1675 7.14438 55.7307 6.94218C55.8508 6.91223 57.0072 6.41797 59.2073 5.45193C59.5001 5.33211 59.7554 5.35458 59.9807 5.51933C60.1985 5.68408 60.3111 5.89377 60.3111 6.15587C60.3411 6.53779 60.1684 6.84483 59.808 7.07698L59.7855 7.06949ZM60.6865 1.31818C60.6565 1.58029 60.5063 1.78248 60.221 1.90979C59.9432 2.04458 59.38 2.17938 58.524 2.32915C57.6455 2.47893 57.0372 2.53135 56.6993 2.50139C56.3614 2.47144 56.0611 2.34413 55.7983 2.10449C55.1825 1.52038 55.4003 1.09352 56.4591 0.831418C56.812 0.741554 57.2925 0.659178 57.9083 0.569314C59.8455 0.30721 60.7691 0.554337 60.679 1.31818H60.6865ZM59.2974 10.1848C59.1397 10.3346 58.8994 10.4843 58.5916 10.6491C58.2837 10.8138 58.0434 10.9636 57.8632 11.1134C57.4202 11.3755 57.0372 11.5627 56.6993 11.66C56.3614 11.7649 56.0911 11.7724 55.8884 11.6825C55.6856 11.5927 55.5805 11.4354 55.5805 11.2032C55.5805 10.9711 55.7307 10.7914 56.0235 10.679C56.1962 10.5892 56.5567 10.3121 57.1048 9.84779C57.6455 9.38349 58.0209 9.1139 58.2236 9.06148C58.5766 8.94166 58.9069 8.93417 59.2148 9.03901C59.5227 9.14385 59.6804 9.3086 59.6804 9.54075C59.5902 9.83281 59.4701 10.05 59.3049 10.1998L59.2974 10.1848ZM56.3089 19.2685C56.4666 18.8267 56.5792 18.3474 56.6393 17.8232C56.9021 16.2731 57.1949 15.352 57.5178 15.0599C57.7506 14.8877 58.1035 14.8278 58.5766 14.8877L58.5315 15.674C58.5015 16.1158 58.5315 16.3629 58.5991 16.4229C58.6742 16.4828 58.8694 16.3929 59.1923 16.1607C59.838 15.7189 60.4012 15.7713 60.8893 16.318C61.3698 16.8572 61.4524 17.5536 61.1296 18.3999C60.9569 18.8417 60.8517 19.1188 60.8217 19.2311C60.7616 19.4633 60.4538 19.8602 59.8981 20.4143C59.3425 20.9685 58.9295 21.3055 58.6667 21.4253C58.4038 21.5451 57.9758 21.5751 57.3902 21.5152C56.4816 21.4253 56.0235 21.1782 56.0235 20.7663C56.0536 20.2121 56.1512 19.7104 56.3089 19.276V19.2685ZM58.066 13.0604C57.9083 13.0754 57.7731 13.1054 57.668 13.1503C57.5629 13.1952 57.4577 13.2626 57.3376 13.345C56.6918 13.8692 56.3689 13.8243 56.3689 13.2102C56.3689 13.1503 56.384 13.0904 56.414 13.038C56.444 12.9781 56.5041 12.9181 56.5867 12.8657C56.6768 12.8058 56.7594 12.7534 56.8495 12.7085C56.9396 12.6635 57.0372 12.6111 57.1574 12.5512L57.4652 12.3939C57.5553 12.349 57.6379 12.3116 57.728 12.2816C57.8182 12.2517 57.8782 12.2367 57.9008 12.2367C58.1035 12.0944 58.2762 12.0719 58.4038 12.1693C58.539 12.2741 58.5916 12.4089 58.5766 12.5886C58.5615 12.7609 58.509 12.8957 58.4189 12.9855C58.3288 13.0155 58.2086 13.038 58.0434 13.0529L58.066 13.0604ZM65.3721 30.0448C65.5297 30.0897 65.7475 30.187 66.0103 30.3293C66.2731 30.5315 66.551 30.8236 66.8438 31.2055C67.1366 31.5874 67.2868 31.8795 67.2868 32.0817C67.3169 32.2315 67.3694 32.4262 67.4445 32.6733C67.5196 32.9204 67.5646 33.1001 67.5797 33.1975C67.5947 33.3023 67.6097 33.4446 67.6247 33.6393C67.6397 33.8265 67.6247 34.0212 67.6022 34.2085C67.5722 34.3957 67.5196 34.6503 67.4445 34.9573C67.3694 35.2644 67.2718 35.6388 67.1592 36.0731C67.0691 36.3952 66.979 36.6797 66.8738 36.9269C66.7687 37.174 66.7011 37.3612 66.6786 37.4735C66.5585 37.8854 66.0704 38.5519 65.2069 39.473C64.3433 40.3941 63.645 40.9857 63.1194 41.2478C62.6539 41.48 61.963 41.6148 61.0545 41.6447C60.4688 41.7046 59.9732 41.7121 59.5827 41.6672C59.1923 41.6223 58.8544 41.4949 58.5916 41.2703C58.3288 41.0456 58.1335 40.8734 58.0209 40.7461C57.9008 40.6113 57.7356 40.3192 57.5178 39.8699C57.3 39.4206 57.1424 39.0986 57.0523 38.9263C56.6993 38.2823 56.7144 37.8554 57.0973 37.6533C57.4202 37.4511 57.713 37.6383 57.9758 38.2224C58.1485 38.5145 58.2912 38.6942 58.3963 38.7691C58.5015 38.844 58.6366 38.8814 58.8168 38.8814C59.4626 38.8814 59.8756 39.0387 60.0483 39.3607C60.1384 39.5104 60.3486 39.6153 60.6865 39.6902C61.0244 39.7651 61.3398 39.7875 61.6327 39.7576C62.0982 39.6977 62.7365 39.3008 63.5474 38.5744C64.3509 37.8405 64.8314 37.2414 64.9741 36.7771C65.8226 35.0547 66.1004 33.7666 65.8076 32.9129C65.6574 32.3887 65.4772 32.0517 65.2594 31.9019C65.0417 31.7597 64.5311 31.6548 63.7426 31.5949C63.2395 31.565 62.9017 31.5425 62.7064 31.5275C62.5187 31.5125 62.3085 31.4526 62.0907 31.3553C61.8729 31.2504 61.7378 31.1156 61.6927 30.9359C61.6477 30.7562 61.6251 30.4941 61.6251 30.1496C61.6552 29.8875 61.8279 29.3783 62.1508 28.6144C62.4736 27.8506 62.7665 27.2365 63.0293 26.7722C63.232 26.4202 63.2771 26.233 63.1645 26.2031C63.0744 26.1731 62.8566 26.2031 62.5037 26.2705C62.1508 26.3454 61.933 26.3079 61.8429 26.1581C61.49 25.9559 61.3774 25.6863 61.5125 25.3494C61.6477 25.0124 61.9781 24.7577 62.5037 24.578C63.5324 24.2261 64.1932 24.0538 64.486 24.0538C64.929 23.934 65.2369 24.1062 65.4321 24.5556C65.6199 25.0124 65.5673 25.3643 65.2744 25.6339C64.9816 25.896 64.5461 26.6149 63.9754 27.7832C63.4047 28.9514 63.1645 29.6404 63.2471 29.8426C63.2771 29.9324 63.66 29.9774 64.3884 29.9774C64.884 29.9774 65.2144 29.9998 65.3796 30.0448H65.3721ZM59.2148 18.984C59.6428 18.325 59.808 17.8831 59.7179 17.6435C59.5978 17.2915 59.2148 17.6585 58.5766 18.7369C58.111 19.5531 57.9909 19.965 58.2236 19.965C58.4564 19.965 58.7868 19.6355 59.2148 18.9765V18.984ZM66.0103 7.04702C66.626 5.86381 67.1517 4.92024 67.5947 4.2163C67.7148 4.09648 67.8575 3.74451 68.0377 3.13793C68.2104 2.53884 68.3306 2.19436 68.3906 2.10449C68.4807 1.98467 68.6384 1.94723 68.8712 1.99216C69.104 2.0371 69.2692 2.14943 69.3518 2.32167C69.3818 2.70359 69.4118 2.98067 69.4419 3.15291C69.4719 3.32515 69.4419 3.57227 69.3292 3.87931C69.2241 4.18635 69.1415 4.40352 69.0664 4.53831C68.9913 4.67311 68.8787 4.89028 68.7135 5.19732C68.5558 5.50435 68.4282 5.74399 68.3381 5.92372C67.9251 6.76994 67.6472 7.27168 67.5046 7.41397C67.3544 7.64612 67.3018 7.83333 67.3319 7.96064C67.3619 8.09544 67.4595 8.13288 67.6172 8.09544C67.7749 8.05051 67.9326 7.93817 68.0828 7.76594C68.5483 7.30164 69.0139 7.03953 69.4719 6.9946C69.9299 6.94967 70.3129 7.17433 70.6358 7.67607C70.7259 7.82584 70.6733 8.02055 70.4781 8.26768C70.2904 8.5148 70.0426 8.76942 69.7497 9.03901C69.4569 9.30111 69.2692 9.49582 69.179 9.60815C69.149 9.78039 69.0289 9.96012 68.8261 10.1324C68.5633 10.3945 68.4882 10.5742 68.6084 10.6566C68.6384 10.6865 68.6985 10.6715 68.7811 10.6116C68.9313 10.5517 69.2091 10.3645 69.6146 10.0425C70.2303 9.5782 70.6958 9.48833 71.0262 9.78039C71.4092 10.0724 71.3491 10.4394 70.8535 10.8737C70.388 11.3455 70.0351 11.6825 69.7948 11.9072C69.562 12.1243 69.1715 12.3939 68.6309 12.716C68.0903 13.038 67.6247 13.1728 67.2418 13.1129C66.7387 13.0529 66.4533 12.8058 66.3632 12.364C66.2731 11.9222 66.4233 11.4279 66.8063 10.8737C67.0691 10.4619 67.1892 10.2147 67.1592 10.1249C67.1291 10.035 66.9114 10.02 66.4984 10.0799C66.1154 10.1998 65.7926 10.1548 65.5297 9.94514C65.2669 9.74295 65.1017 9.49582 65.0492 9.19627C65.0792 8.93417 65.4021 8.20777 66.0178 7.02456L66.0103 7.04702ZM66.5585 13.9591C66.7161 13.8393 66.9339 13.9291 67.1967 14.2212C67.6097 14.5132 67.8275 15.1797 67.8575 16.2207C67.8875 17.2616 67.7524 18.1003 67.4595 18.7443C67.4295 18.8043 67.3619 19.1412 67.2643 19.7553C67.1592 20.3694 67.039 20.6914 66.8889 20.7214C66.5359 20.9835 66.2281 21.0434 65.9653 20.8936C65.7025 20.7513 65.5523 20.4967 65.5222 20.1447C65.4922 19.7928 65.5523 19.4258 65.6949 19.0514C65.8151 18.6994 65.9502 18.0179 66.1154 17.0145C66.2731 16.0035 66.3557 15.2396 66.3557 14.7079C66.3257 14.326 66.3933 14.0789 66.551 13.9591H66.5585ZM70.0576 15.8462C70.1777 16.1682 70.2078 16.625 70.1477 17.2092C70.0876 17.9431 70.02 18.4448 69.9525 18.7219C69.8774 18.999 69.7272 19.2012 69.4869 19.3135C69.104 19.5456 68.8036 19.5232 68.5858 19.2461C68.3681 18.969 68.3155 18.6095 68.4282 18.1677C68.4882 17.9955 68.5408 17.5761 68.5858 16.9171C68.6309 16.2581 68.691 15.6665 68.7586 15.1423C68.8336 14.6181 68.9162 14.371 68.9988 14.3934C69.2016 14.2212 69.3968 14.2062 69.5695 14.3485C69.7422 14.4983 69.8323 14.7454 69.8323 15.0974C69.8624 15.2696 69.9374 15.5242 70.0501 15.8462H70.0576ZM72.2802 13.1952C72.4679 13.1803 72.6256 13.2177 72.7458 13.3076C72.9485 13.4274 73.0611 13.9291 73.0761 14.8203C73.0912 15.7114 73.0086 16.7598 72.8359 17.958C72.8058 18.1602 72.5731 18.5571 72.13 19.1412C71.687 19.7254 71.3641 20.0773 71.1614 20.1971C70.6583 20.3469 70.3654 20.3245 70.2603 20.1297C70.1552 19.9425 70.3129 19.643 70.7259 19.2311C71.0788 18.7668 71.3416 17.5087 71.5143 15.4568C71.6044 14.2586 71.717 13.5397 71.8672 13.3076C71.9573 13.2477 72.0925 13.2102 72.2877 13.1952H72.2802Z" fill="#383838"/>
<path d="M89.3178 18.5793C89.468 18.5493 89.6106 18.5493 89.7608 18.5793C89.911 18.6092 90.0236 18.6991 90.1137 18.8414C90.3465 19.0136 90.5117 19.2607 90.5943 19.5678C90.6769 19.8748 90.767 20.4814 90.8571 21.3875C91.0073 22.9077 91.165 23.6716 91.3377 23.6716C91.4578 23.6716 91.6756 23.1324 91.9984 22.0465C92.5841 20.9906 93.2599 20.4964 94.0258 20.5563C94.3187 20.4964 94.7692 20.736 95.3699 21.2827C95.9706 21.8219 96.301 22.2412 96.3611 22.5333C96.4212 22.7055 96.5263 22.9601 96.6915 23.2822C96.8492 23.6042 96.9768 23.9037 97.0669 24.1808C97.157 24.4579 97.2246 24.7574 97.2847 25.0794C97.4048 25.6636 97.5175 25.9781 97.6376 26.023C97.7577 26.0679 97.9755 25.8807 98.2984 25.4763C98.8841 24.6301 99.2971 24.383 99.5298 24.7275C99.68 24.8997 99.68 25.1993 99.5298 25.6037C99.4698 25.6935 99.252 26.053 98.869 26.682C98.4861 27.3111 98.2533 27.6705 98.1632 27.7604C97.7502 28.2546 97.5475 28.9885 97.5475 29.9546C97.5475 30.4488 97.4649 31.1078 97.3072 31.9316C97.1495 32.7479 96.9918 33.3245 96.8417 33.6465C96.669 33.9685 96.4137 34.1782 96.0908 34.283C95.7679 34.3879 95.4901 34.3355 95.2573 34.1258C95.1071 33.8637 95.0545 33.6615 95.0846 33.5342C95.1146 33.3994 95.2122 33.2196 95.3699 32.9875C95.5276 32.7553 95.6252 32.5756 95.6553 32.4633C95.7153 32.2311 95.7604 31.9391 95.7904 31.5871C95.8205 31.2351 95.8054 31.0479 95.7454 31.018C95.7153 30.988 95.3324 31.325 94.604 32.0289C93.5753 33.0249 92.9145 33.5192 92.6217 33.5192C92.5916 33.5192 92.464 33.4218 92.2462 33.2346C92.0285 33.0474 91.8858 32.965 91.8257 32.995C91.7356 33.0249 91.6756 33.2721 91.653 33.7438C91.6831 34.4777 91.3602 34.942 90.6844 35.1517C90.4216 35.1517 90.2489 35.0094 90.1813 34.7099C90.1062 34.4178 90.0687 33.6016 90.0687 32.2536C90.0386 29.5951 90.0011 27.8503 89.956 27.034C89.911 26.2177 89.7758 25.0869 89.5355 23.6566C89.3628 22.5183 89.2127 21.7545 89.0925 21.3725C88.9724 20.9906 88.8147 20.8034 88.612 20.8034C88.4618 20.8034 88.1464 21.0356 87.6658 21.5073C87.1853 21.9791 86.7948 22.4135 86.502 22.8254C85.9763 23.6716 85.6159 24.2108 85.4207 24.4279C85.233 24.6451 85.0302 24.7574 84.8275 24.7574C84.4445 24.7574 84.2568 24.5103 84.2568 24.0086C84.2568 23.8064 84.407 23.4244 84.6998 22.8703C84.9927 22.3161 85.3006 21.8593 85.6234 21.5073C85.7961 21.3651 86.1415 20.7285 86.6597 19.5977C87.1703 18.4744 87.6733 17.3736 88.1539 16.3102C88.6345 15.2393 88.9649 14.7076 89.1451 14.7076C89.2052 14.6777 89.3028 14.5953 89.4529 14.468C89.6031 14.3332 89.7082 14.2433 89.7833 14.1834C89.8584 14.1235 89.9861 14.0711 90.1813 14.0262C90.369 13.9812 90.5417 14.0336 90.6844 14.1834C90.8346 14.2733 90.8721 14.5204 90.8196 14.9323C90.8196 15.2243 90.6469 15.6587 90.3165 16.2278C89.9786 16.797 89.6482 17.3212 89.3253 17.8079C89.0024 18.2872 88.8597 18.5643 88.8823 18.6167C89.0325 18.6467 89.1751 18.6467 89.3253 18.6167L89.3178 18.5793ZM95.8955 27.5507C95.9106 27.2137 95.8129 27.019 95.6102 26.9591C95.3474 27.019 94.9344 27.2661 94.3788 27.708C93.8231 28.1498 93.5152 28.382 93.4552 28.4119C92.2237 29.4379 91.623 30.2391 91.653 30.8233C91.653 31.6695 91.7431 32.0963 91.9159 32.0963C92.0886 32.0963 92.7493 31.5572 93.8982 30.4713C95.0395 29.3929 95.6553 28.7189 95.7454 28.4494C95.8355 28.1798 95.8805 27.8877 95.9031 27.5507H95.8955ZM93.1924 23.05C93.0422 23.2223 92.9295 23.387 92.8394 23.5293C92.7493 23.6791 92.6667 23.8363 92.5766 24.0086C92.4865 24.1808 92.4189 24.3231 92.3814 24.4279C92.3363 24.5328 92.2838 24.6825 92.2237 24.8922C92.1636 25.0944 92.1186 25.2442 92.0886 25.3341C92.0585 25.4239 92.021 25.5887 91.9759 25.8358C91.9309 26.0829 91.9008 26.2477 91.8858 26.3151C91.8708 26.39 91.8408 26.5772 91.7957 26.8842C91.7507 27.1913 91.7131 27.386 91.6831 27.4758C91.9158 27.5058 92.3514 27.2736 92.9821 26.7719C93.6129 26.2776 94.0634 25.9856 94.3262 25.8957C94.972 25.5437 95.3549 25.3041 95.4675 25.1693C95.5877 25.0345 95.5877 24.8099 95.4675 24.4878C95.2047 23.6416 94.9269 23.0725 94.6341 22.7729C93.9883 22.3611 93.5077 22.4509 93.1848 23.035L93.1924 23.05ZM109.194 22.9152C109.547 23.1773 109.779 23.3121 109.9 23.3121C109.93 23.2522 110.275 23.3795 110.936 23.6865C111.597 23.9936 112.317 24.3381 113.091 24.72C113.864 25.1019 114.345 25.3191 114.517 25.379C114.9 25.4689 115.126 25.671 115.201 25.9931C115.276 26.3151 115.163 26.6371 114.87 26.9591C114.405 27.5133 113.857 27.4983 113.241 26.9142C112.888 26.5622 112.16 26.1353 111.063 25.6186C109.967 25.1094 109.314 24.8922 109.104 24.9821C109.074 24.9821 109.051 24.9971 109.036 25.027C109.021 25.057 109.006 25.1094 108.991 25.1843C108.976 25.2592 108.953 25.3415 108.923 25.4239C108.893 25.5138 108.863 25.6486 108.833 25.8433C108.803 26.0305 108.766 26.2252 108.721 26.4124C108.676 26.5996 108.608 26.8692 108.525 27.1987C108.435 27.5357 108.368 27.8802 108.308 28.2322C107.572 31.1902 106.798 32.9126 105.972 33.4069C105.68 33.639 105.372 33.7289 105.049 33.669C104.26 33.609 103.57 33.0549 102.984 31.999C102.481 31.2651 102.353 30.7409 102.586 30.4189C102.759 30.2167 103.014 30.344 103.337 30.8158C103.78 31.632 104.245 32.0215 104.748 31.9765C105.244 31.9316 105.627 31.4898 105.89 30.636C106.476 29.1758 106.919 27.4758 107.211 25.5437C107.332 24.8997 107.347 24.5178 107.256 24.4055C107.286 24.3456 106.994 24.2257 106.378 24.031C105.762 23.8438 104.974 23.6042 104.028 23.3271C103.074 23.05 102.526 22.8927 102.376 22.8628C102.225 22.8029 102.12 22.6606 102.045 22.421C101.97 22.1888 101.978 21.9791 102.068 21.8069C102.361 21.5148 102.766 21.38 103.277 21.41C103.787 21.4399 104.245 21.5298 104.643 21.6721C105.041 21.8219 105.499 21.9941 106.032 22.1963C106.558 22.3985 106.971 22.5183 107.264 22.5483C107.437 22.5483 107.549 22.5333 107.594 22.5033C107.639 22.4734 107.677 22.3685 107.707 22.1963C107.857 21.5523 107.962 20.4365 108.037 18.8414C108.112 17.2463 108.09 16.1904 107.97 15.6587C107.88 15.4565 107.745 15.3666 107.549 15.3966C107.362 15.4265 106.971 15.5988 106.385 15.9208C106.295 15.9507 106.093 16.0406 105.77 16.1829C105.447 16.3327 105.252 16.4225 105.176 16.4675C105.101 16.5124 104.936 16.5873 104.673 16.6846C104.411 16.7895 104.238 16.8494 104.17 16.8569C104.095 16.8719 103.953 16.9018 103.727 16.9467C103.502 16.9917 103.352 16.9992 103.262 16.9692C103.172 16.9392 103.044 16.9168 102.864 16.9018C102.691 16.8868 102.548 16.8344 102.443 16.7445C102.338 16.6547 102.218 16.5573 102.068 16.4375C101.918 16.3177 101.775 16.1754 101.625 15.9957C101.272 15.6138 101.054 14.9323 100.964 13.9588C100.874 12.9777 100.979 12.2438 101.272 11.7421C101.445 11.51 101.7 11.3901 102.023 11.3901C102.346 11.3901 102.623 11.5324 102.856 11.8095C103.089 12.0866 103.089 12.3712 102.856 12.6632C102.736 12.8954 102.699 13.2174 102.721 13.6293C102.751 14.0411 102.856 14.4305 103.029 14.8125C103.202 15.1944 103.367 15.3367 103.51 15.2543C104.035 15.2243 104.809 14.9323 105.822 14.3781C106.836 13.824 107.632 13.5469 108.218 13.5469C108.601 13.5768 108.863 13.6892 109.006 13.8764C109.156 14.0636 109.299 14.4979 109.449 15.1719C109.569 15.5239 109.637 15.9807 109.667 16.5573C109.697 17.1265 109.697 17.6282 109.667 18.0476C109.637 18.4744 109.584 19.066 109.509 19.8224C109.434 20.5862 109.396 21.0655 109.396 21.2677L109.179 22.8927L109.194 22.9152Z" fill="#383838"/>
<path d="M127.215 27.0417C126.997 27.2439 126.727 27.4761 126.404 27.7232C126.081 27.9703 125.803 28.2025 125.571 28.4047C125.045 28.8989 124.707 29.1685 124.557 29.191C124.407 29.2509 124.211 29.191 123.964 28.9963C123.716 28.8091 123.573 28.6368 123.543 28.4945C123.513 28.2923 123.926 27.7756 124.775 26.9594C124.865 26.8695 124.992 26.7272 125.173 26.5175C126.051 25.5814 126.644 24.8625 126.952 24.3683C127.26 23.874 127.425 23.215 127.455 22.3913C127.283 22.3014 127.02 22.249 126.682 22.219C126.344 22.1891 126.104 22.249 125.953 22.3913C125.751 22.5111 125.42 22.6683 124.962 22.8705C124.504 23.0727 124.189 23.2375 124.016 23.3498C123.866 23.4097 123.768 23.5221 123.708 23.6793C123.648 23.8441 123.588 24.3009 123.536 25.0647C123.303 27.0867 122.86 28.0901 122.214 28.0901C121.801 28.0901 121.553 27.9179 121.463 27.5659C121.373 27.214 121.448 26.5999 121.681 25.7237C121.831 25.2295 121.914 24.7951 121.944 24.4282C121.974 24.0612 121.974 23.2674 121.944 22.0393C121.944 21.0433 121.929 20.3543 121.899 19.9799C121.869 19.598 121.809 19.2236 121.726 18.8641C121.636 18.4972 121.568 18.0703 121.508 17.5686C121.478 16.9844 121.463 16.6325 121.463 16.5126C121.463 16.3928 121.538 16.2206 121.681 15.9884C121.831 15.7563 121.929 15.5616 121.989 15.4193C121.989 15.2471 122.116 15.1272 122.364 15.0673C122.612 15.0074 122.8 15.0524 122.912 15.2021C123.002 15.292 123.07 15.7338 123.108 16.5426C123.153 17.3439 123.205 17.8082 123.265 17.928C123.355 18.1003 123.423 18.1452 123.483 18.0628C123.513 18.0029 123.573 17.8007 123.656 17.4487C123.828 16.9245 124.046 16.5426 124.294 16.3105C124.542 16.0783 124.977 15.8836 125.593 15.7413C126.209 15.599 126.667 15.5391 126.96 15.5691C127.253 15.629 127.583 15.8312 127.951 16.1831C128.319 16.5351 128.604 16.932 128.807 17.3664L129.16 18.1527L129.205 20.3469C129.265 20.6389 129.272 20.9834 129.227 21.3803C129.182 21.7772 129.16 22.0693 129.16 22.2565C129.16 22.4437 129.115 22.7058 129.025 23.0278C128.934 23.3498 128.882 23.582 128.867 23.7317C128.852 23.8815 128.784 24.0987 128.672 24.3907C128.552 24.6828 128.469 24.885 128.409 25.0048C128.349 25.1246 128.251 25.3343 128.124 25.6414C127.996 25.9484 127.898 26.173 127.838 26.3228C127.635 26.6149 127.418 26.862 127.2 27.0717L127.215 27.0417ZM124.73 21.4477C125.173 21.2006 125.631 20.931 126.119 20.6389C126.599 20.3469 126.9 20.1896 127.02 20.1596C127.403 20.1596 127.62 19.9574 127.681 19.5456C127.741 19.1337 127.681 18.7218 127.485 18.295C127.298 17.8681 127.095 17.6285 126.892 17.5686C126.449 17.3064 126.059 17.3139 125.706 17.591C125.353 17.8681 124.992 18.3399 124.624 18.9989C124.256 19.6579 124.046 20.0323 123.986 20.1147C123.753 20.4367 123.633 20.7812 123.633 21.1481C123.633 21.5151 123.753 21.6948 123.986 21.6948C124.046 21.7847 124.294 21.7023 124.737 21.4552L124.73 21.4477ZM136.706 26.2779C136.924 26.1206 137.179 26.0383 137.48 26.0383C137.832 26.0383 138.17 25.9334 138.493 25.7312C138.816 25.529 139.8 24.7951 141.444 23.537C141.91 23.1551 142.195 22.8556 142.278 22.6384C142.36 22.4212 142.413 21.927 142.413 21.1706C142.413 20.9385 142.398 20.6614 142.368 20.3394C142.368 19.8152 142.315 19.5306 142.21 19.4857C142.105 19.4407 141.775 19.583 141.219 19.905L140.776 20.1222C140.483 20.272 140.138 20.4592 139.74 20.6913C139.342 20.9235 139.034 21.1107 138.816 21.238C138.598 21.3653 138.313 21.5151 137.96 21.6798C137.607 21.8446 137.239 22.0093 136.864 22.1816C136.714 22.2415 136.503 22.3014 136.226 22.3538C135.948 22.4137 135.722 22.4886 135.542 22.571C135.362 22.6534 135.249 22.8031 135.189 23.0128C135.189 23.5071 135.107 24.6528 134.949 26.4352C134.791 28.2175 134.709 29.5355 134.709 30.3817C134.679 32.1939 134.461 33.1151 134.048 33.145C133.402 33.2049 133.004 32.9129 132.862 32.2688C132.772 31.857 132.794 30.6063 132.929 28.517C133.064 26.4277 133.2 25.1022 133.35 24.548C133.44 24.0538 133.545 23.2674 133.68 22.204C133.815 21.1332 133.92 20.227 134.01 19.4857C134.101 18.7443 134.183 18.3399 134.273 18.28C134.363 18.0179 134.423 16.932 134.446 15.0299C134.476 13.622 134.506 12.7908 134.536 12.5287C134.566 12.2666 134.641 12.0794 134.754 11.9595C134.987 11.7573 135.325 11.7274 135.768 11.8697C136.211 12.0194 136.368 12.2666 136.248 12.6185C136.278 12.9106 136.323 13.0604 136.383 13.0604C136.443 13.0604 136.533 12.9705 136.646 12.7983C136.676 12.7384 136.699 12.6934 136.714 12.6635C136.729 12.6335 136.751 12.5961 136.781 12.5511C136.811 12.5062 136.856 12.4688 136.916 12.4388C137.382 11.7049 138.013 11.1208 138.809 10.6865C139.132 10.4543 139.364 10.3195 139.514 10.2896C139.665 10.2596 139.98 10.2596 140.483 10.2896C141.159 10.3195 141.609 10.3944 141.85 10.5067C142.203 10.679 142.541 11.0609 142.863 11.645C143.186 12.2291 143.389 12.8582 143.479 13.5322C143.509 13.7044 143.614 14.8876 143.787 17.0668C143.96 19.246 144.095 20.6838 144.185 21.3878L144.23 26.8695C144.2 29.5055 144.11 31.198 143.967 31.9618C143.907 32.2239 143.847 32.7331 143.795 33.4745C143.734 34.2234 143.637 34.8375 143.509 35.3167C143.382 35.796 143.164 36.0881 142.871 36.1704C142.518 36.3427 142.06 36.2453 141.504 35.8634C141.211 35.7211 140.956 35.5039 140.731 35.2269C140.513 34.9498 140.355 34.7251 140.265 34.5454C140.175 34.3657 140.033 34.0586 139.822 33.6018C139.62 33.1525 139.499 32.8604 139.469 32.7481C139.026 31.8719 138.944 31.2429 139.207 30.861C139.409 30.5689 139.687 30.861 140.04 31.7371C140.07 31.7671 140.085 31.812 140.085 31.8719C140.175 32.0442 140.303 32.3512 140.483 32.7706C140.656 33.1974 140.776 33.467 140.836 33.5794C141.069 34.2234 141.302 34.5454 141.519 34.5454C141.737 34.5454 141.91 34.2234 142.022 33.5794C142.518 31.0032 142.698 28.1351 142.548 24.9823C142.488 24.8625 142.293 24.9 141.955 25.0947C141.617 25.2819 141.272 25.574 140.919 25.9484C140.453 26.4202 139.867 26.877 139.184 27.3338C138.493 27.7906 138.005 28.0153 137.712 28.0153C137.419 28.0153 137.127 27.873 136.834 27.5959C136.541 27.3188 136.391 27.0492 136.391 26.7871C136.391 26.6149 136.503 26.4426 136.721 26.2854L136.706 26.2779ZM136.819 15.9435C136.586 16.3254 136.481 16.5726 136.511 16.6924C136.481 16.7822 136.368 17.0369 136.181 17.4637C135.993 17.8906 135.85 18.3923 135.76 18.9764C135.587 20.0848 135.602 20.6464 135.805 20.6464C135.835 20.6464 135.865 20.6314 135.895 20.6015C136.774 20.3394 137.863 19.8526 139.154 19.1562C140.446 18.4522 141.264 18.0329 141.617 17.8831C141.85 17.8531 142 17.7782 142.06 17.6659C142.09 17.576 142.06 16.9021 141.97 15.644C141.88 14.3859 141.812 13.637 141.752 13.4048C141.692 13.1128 141.519 12.8058 141.226 12.4837C140.934 12.1617 140.663 11.982 140.416 11.9371C140.168 11.8921 139.882 11.9895 139.56 12.2216C139.439 12.3115 139.282 12.4163 139.079 12.5511C138.876 12.6859 138.734 12.7758 138.658 12.8357C138.583 12.8956 138.486 12.9855 138.373 13.0978C138.253 13.2176 138.155 13.3599 138.065 13.5396C137.975 13.7194 137.863 13.9216 137.712 14.1537C137.389 14.8577 137.232 15.2471 137.232 15.3369C137.202 15.3669 137.074 15.5691 136.834 15.951L136.819 15.9435Z" fill="#383838"/>
<path d="M167.935 9.406C168.041 9.78792 167.913 10.1099 167.56 10.372C167.44 10.4919 167.305 10.6716 167.14 10.9187C166.982 11.1658 166.817 11.3531 166.659 11.4654C166.501 11.5852 166.238 11.7275 165.886 11.9072C165.097 12.2891 164.534 12.6261 164.211 12.9182C164.211 12.9481 164.226 12.9781 164.256 13.0081C164.722 13.4499 164.812 13.8692 164.519 14.2811C164.429 14.2811 164.346 14.5208 164.279 15.0075C164.204 15.4868 164.121 16.0559 164.038 16.7C163.948 17.344 163.888 17.7709 163.866 17.973C163.806 18.0929 163.806 18.2127 163.866 18.3475C163.926 18.4823 164.016 18.5422 164.128 18.5422C164.331 18.4823 164.677 18.2651 165.165 17.8832C165.645 17.5013 166.193 17.0444 166.794 16.4978C167.395 15.9586 167.8 15.5991 168.003 15.4194C168.266 15.2771 168.596 14.9701 168.994 14.4983C169.392 14.034 169.768 13.6521 170.136 13.36C170.504 13.068 170.864 12.9481 171.217 13.0081C171.45 13.038 171.645 13.1428 171.788 13.3151C171.938 13.4873 172.005 13.682 172.005 13.8842C171.803 14.2661 171.375 14.7529 170.729 15.352C170.083 15.9511 169.332 16.6026 168.484 17.3066C167.635 18.0105 167.087 18.4748 166.854 18.7144C165.765 19.7104 165.12 20.2047 164.917 20.2047C164.827 20.2047 164.699 20.287 164.519 20.4443C164.346 20.6091 164.256 20.7289 164.256 20.8187C164.346 20.8187 164.474 20.8412 164.654 20.8861C164.834 20.9311 164.977 20.9835 165.097 21.0434C165.217 21.1033 165.345 21.2156 165.495 21.3954C166.141 22.0094 167.117 22.7733 168.424 23.6794C169.73 24.5856 170.691 25.3045 171.307 25.8287C171.833 26.2406 172.456 26.6449 173.177 27.0568C173.898 27.4687 174.431 27.8431 174.784 28.1951C175.227 28.577 175.625 28.8841 175.992 29.1162C176.36 29.3484 176.736 29.5655 177.111 29.7527C177.494 29.94 177.817 30.1272 178.08 30.2994C178.606 30.7712 179.769 31.2655 181.557 31.7897C181.729 31.8795 181.849 31.9394 181.909 31.9619C181.97 31.9919 182.045 32.0593 182.15 32.1566C182.255 32.2614 182.3 32.3813 182.285 32.531C182.27 32.6808 182.217 32.8531 182.127 33.0552C181.924 33.6394 181.684 33.9913 181.421 34.1112C181.159 34.231 180.776 34.0962 180.28 33.7143C180.017 33.5121 179.514 33.2425 178.786 32.9055C178.05 32.5685 177.584 32.3288 177.374 32.1791C177.284 32.1192 177.014 31.9619 176.563 31.6998C176.105 31.4377 175.835 31.258 175.752 31.1756C171.502 28.3074 168.596 26.248 167.042 24.9899C166.719 24.6979 166.306 24.4133 165.81 24.1362C165.307 23.8591 164.962 23.6345 164.752 23.4548C164.286 23.0728 163.963 22.8482 163.806 22.7733C163.648 22.6984 163.46 22.661 163.257 22.661C163.055 22.6909 162.92 22.7358 162.859 22.7958C162.799 22.8557 162.724 23.0429 162.642 23.3649C162.522 23.597 162.379 23.9715 162.199 24.4807C162.026 24.9899 161.853 25.4542 161.696 25.8661C161.538 26.278 161.38 26.63 161.23 26.922C161.11 27.0718 160.922 27.3788 160.659 27.8431C160.397 28.3149 160.149 28.7193 159.909 29.0713C159.676 29.4232 159.443 29.7153 159.203 29.9474C159 30.1796 158.7 30.6963 158.324 31.4826C157.558 32.913 156.635 34.0962 155.553 35.0173C154.465 35.9384 153.706 36.178 153.263 35.7437C153 35.3618 152.91 34.9649 153 34.538C153.09 34.1111 153.248 33.7592 153.481 33.4596C153.631 33.3698 153.729 33.3174 153.789 33.3024C153.849 33.2874 153.962 33.3248 154.142 33.4147C154.322 33.5046 154.42 33.5495 154.45 33.5495L155.373 32.5835C155.756 32.2614 156.244 31.55 156.845 30.4567C157.446 29.3633 157.866 28.6819 158.099 28.4198C158.625 27.8356 159.218 26.8396 159.878 25.4393C160.539 24.0389 160.78 23.2451 160.607 23.0728C160.547 23.0129 160.352 23.0354 160.014 23.1402C159.676 23.2451 159.36 23.3799 159.068 23.5596C158.865 23.6794 158.422 23.8591 157.746 24.1063C157.07 24.3534 156.515 24.5107 156.071 24.5706C155.719 24.6604 155.441 24.5706 155.238 24.3085C155.035 24.0464 154.99 23.7094 155.103 23.2975C155.223 23.0054 155.388 22.7958 155.606 22.661C155.824 22.5262 156.169 22.4213 156.642 22.3315C158.842 21.7174 160.457 20.9685 161.485 20.0923C161.636 19.9501 161.733 19.7703 161.793 19.5681C161.853 19.3659 161.913 18.9091 161.966 18.2052C162.056 17.7634 162.116 17.2991 162.139 16.7973C162.169 16.3031 162.214 15.8837 162.274 15.5467C162.334 15.2097 162.431 14.7904 162.582 14.2961C162.754 13.8019 162.814 13.5248 162.754 13.4873C162.694 13.4424 162.356 13.4948 161.741 13.6446C161.005 13.8168 160.502 13.9067 160.224 13.9067C159.946 13.9067 159.383 13.8468 158.527 13.7345C158.377 13.7045 158.242 13.5697 158.106 13.3151C157.971 13.068 157.911 12.7984 157.911 12.5063C157.911 12.2742 158.039 12.1094 158.287 12.027C158.534 11.9372 159.015 11.8847 159.713 11.8548C161.065 11.8548 162.176 11.6826 163.055 11.3306C163.933 10.9786 164.902 10.3795 165.961 9.5333C166.456 9.12142 166.839 8.91923 167.102 8.91923C167.545 8.88928 167.815 9.069 167.913 9.44344L167.935 9.406Z" fill="#383838"/>
<path d="M195.763 19.9124C195.673 19.8376 195.606 19.8001 195.568 19.8001C195.531 19.8001 195.41 19.8376 195.238 19.9124C195.065 19.9873 194.93 20.0397 194.84 20.0697C194.517 20.3019 194.164 20.3019 193.781 20.0697C193.398 19.8376 193.173 19.523 193.098 19.1261C193.023 18.7292 193.15 18.3473 193.473 17.9654C193.736 17.6134 193.954 17.3962 194.134 17.3064C195.072 16.9544 195.921 17.1192 196.687 17.7857C197.453 18.4596 197.761 19.2085 197.61 20.0248C197.438 21.0208 196.98 22.0916 196.244 23.2524C195.508 24.4057 194.795 25.2369 194.089 25.7311C193.796 25.851 193.556 25.8734 193.36 25.7985C193.173 25.7237 193.083 25.5664 193.098 25.3193C193.113 25.0721 193.255 24.8175 193.518 24.5479C193.984 24.0537 194.464 23.3497 194.945 22.4436C195.425 21.5375 195.696 20.8635 195.756 20.4217C195.846 20.1596 195.846 19.9873 195.756 19.9199L195.763 19.9124Z" fill="#383838"/>
<path d="M257.689 15.1498C257.569 15.5168 257.486 16.041 257.426 16.7299C257.366 17.4189 257.238 18.0404 257.028 18.5946C256.878 19.2985 256.855 19.6879 256.938 19.7778C257.02 19.8677 257.291 19.6879 257.726 19.2536C258.192 18.7593 258.883 18.1902 259.791 17.5612C260.7 16.9321 261.27 16.6176 261.511 16.6176C261.954 16.6775 262.194 16.9246 262.239 17.3665C262.284 17.8083 262.096 18.0704 261.691 18.1528C261.601 18.1827 261.406 18.3774 261.098 18.7444C260.79 19.1113 260.595 19.306 260.505 19.336C259.273 19.8901 257.749 21.1782 255.932 23.2001C255.812 23.3724 255.556 24.5556 255.158 26.7348C254.76 28.914 254.362 30.2245 253.949 30.6589C253.596 31.3928 253.101 32.209 252.455 33.1151C251.336 35.0772 250.443 35.2644 249.774 33.6843C249.714 33.2724 249.827 32.8456 250.105 32.3887C250.383 31.9394 250.668 31.7522 250.961 31.8421C251.254 31.872 251.494 31.6773 251.689 31.2505C251.877 30.8236 251.99 30.599 252.02 30.569C252.403 30.1047 252.763 29.2884 253.101 28.1352C253.439 26.9819 253.574 26.0234 253.521 25.2595L253.476 24.5556L252.688 25.2146C251.569 26.1207 249.932 26.9969 247.762 27.8506C247.379 27.7083 247.146 27.5361 247.056 27.3489C246.966 27.1616 247.004 26.952 247.169 26.7348C247.327 26.5176 247.544 26.3079 247.807 26.1207C248.07 25.9335 248.378 25.7313 248.731 25.5291C250.901 24.4507 252.575 23.3349 253.747 22.1967C254.1 21.8447 254.377 21.3954 254.58 20.8337C254.783 20.2796 254.971 19.5756 255.128 18.7294C255.286 17.8832 255.429 17.2841 255.549 16.9321C255.549 16.6401 255.286 16.655 254.76 16.977C254.67 17.037 254.588 17.0969 254.497 17.1493C253.852 17.6211 253.153 17.9281 252.41 18.0704C251.659 18.2202 251.043 18.1078 250.563 17.7409C250.082 17.3739 249.94 16.7524 250.142 15.8762C250.172 15.4643 250.24 15.0599 250.338 14.6481C250.443 14.2362 250.578 13.7794 250.758 13.2627C250.931 12.7534 251.051 12.379 251.111 12.1468C251.081 12.027 251.171 11.8398 251.374 11.5777C251.577 11.3156 251.637 11.1359 251.547 11.0535C251.284 10.6117 251.396 10.3046 251.899 10.1324C252.425 9.96015 252.823 10.0575 253.086 10.4394C253.206 10.6117 253.236 10.8363 253.176 11.0984C253.086 11.7125 252.876 12.5213 252.538 13.5323C252.2 14.5432 252.005 15.1947 251.944 15.4868C251.914 15.7489 251.944 15.9436 252.012 16.0559C252.087 16.1758 252.207 16.2057 252.388 16.1458C252.56 16.0859 252.718 16.026 252.853 15.9736C252.988 15.9137 253.168 15.8163 253.401 15.6665C253.491 15.5767 253.844 15.367 254.482 15.03C255.113 14.693 255.489 14.4534 255.601 14.3036C255.894 14.0115 256.029 12.5363 255.999 9.87029C255.999 9.60818 256.014 9.27119 256.044 8.85931C256.044 8.01309 256.082 7.49638 256.157 7.32414C256.232 7.1519 256.457 7.03208 256.84 6.97217C256.96 7.03208 257.103 7.09199 257.283 7.14441C257.486 7.20432 257.606 7.29418 257.636 7.40651C257.666 7.52633 257.696 7.91574 257.726 8.58972C257.726 9.0016 257.741 9.32361 257.771 9.55576C257.801 11.368 257.861 12.3191 257.944 12.4089C258.064 12.4689 258.47 12.1693 259.176 11.5103C259.881 10.8513 260.377 10.6117 260.67 10.7839C260.873 11.046 260.985 11.2931 261 11.5328C261.015 11.7649 260.97 11.9821 260.865 12.1693C260.76 12.3565 260.602 12.5512 260.384 12.7385C260.167 12.9257 259.941 13.0979 259.724 13.2402C259.506 13.39 259.273 13.5472 259.04 13.7195C258.808 13.8917 258.612 14.0565 258.47 14.1987C258.087 14.4608 257.839 14.7754 257.719 15.1423L257.689 15.1498ZM272.691 32.9654C271.52 33.1002 270.544 33.1825 269.763 33.2275C268.982 33.2724 268.126 33.2275 267.187 33.0702C267.127 33.0103 266.549 32.9504 265.453 32.898C264.357 32.8381 263.17 32.7632 261.909 32.6808C260.647 32.5909 259.844 32.4786 259.491 32.3288C258.965 31.9769 258.567 31.4676 258.304 30.7937C258.184 30.7038 258.117 30.3593 258.087 29.7602C258.057 29.1611 258.057 28.5396 258.087 27.8955C258.117 27.2515 258.087 26.6824 257.997 26.1806C257.907 26.0084 257.876 25.604 257.907 24.975C257.937 24.3459 257.876 24.0014 257.734 23.9415C257.321 23.4473 257.426 23.0953 258.042 22.8856C258.687 22.6834 259.198 22.7658 259.581 23.1477C259.701 23.2975 259.754 23.4697 259.754 23.6719C260.047 25.604 260.152 27.2815 260.062 28.7193C260.062 29.5955 260.182 30.1421 260.414 30.3443C260.647 30.5465 261.353 30.6963 262.524 30.7862C262.967 30.7862 264.304 30.8985 266.549 31.1157C268.794 31.3328 270.416 31.3553 271.407 31.1831C271.528 31.0932 272.136 31.0183 273.232 30.9434C274.328 30.8685 274.944 30.8161 275.057 30.7862C275.259 30.7263 275.357 30.4417 275.342 29.9325C275.327 29.4232 275.395 29.0787 275.537 28.899C275.77 28.6669 276.025 28.6444 276.311 28.8316C276.589 29.0188 276.731 29.3109 276.731 29.6853C276.731 29.8875 276.821 30.1421 276.994 30.4342C277.167 30.7263 277.294 30.9584 277.369 31.1381C277.445 31.3104 277.369 31.58 277.174 31.9244C277.084 32.1266 277.024 32.2465 277.002 32.2764C276.971 32.3064 276.934 32.3813 276.889 32.4936C276.844 32.6134 276.799 32.6658 276.754 32.6658C276.709 32.6658 276.664 32.6883 276.619 32.7332C276.574 32.7782 276.491 32.7931 276.378 32.7782C276.258 32.7632 276.161 32.7632 276.07 32.7782C275.98 32.7931 275.83 32.7931 275.605 32.7782C275.387 32.7632 275.184 32.7557 275.012 32.7557C274.629 32.7557 273.855 32.8231 272.676 32.9504L272.691 32.9654Z" fill="#383838"/>
<path d="M290.12 9.6229C290.442 9.66783 290.66 9.83259 290.78 10.1246C290.9 10.4167 290.87 10.7537 290.69 11.1356C290.517 11.4876 290.585 11.6898 290.908 11.7497C291.171 11.8096 291.801 11.8545 292.8 11.8845C294.88 11.9444 295.999 12.1166 296.142 12.4087C296.292 12.7007 296.292 13.0527 296.142 13.4646C295.991 13.8765 295.759 14.1835 295.436 14.3857C294.7 14.8575 294.339 14.7377 294.339 14.0337C294.339 13.7716 294.212 13.6144 293.964 13.5694C293.716 13.5245 293.018 13.4871 291.877 13.4571C291.141 13.4571 290.675 13.4646 290.465 13.4796C290.262 13.4945 290.074 13.5769 289.917 13.7192C289.759 13.869 289.571 13.9963 289.369 14.1161C289.166 14.206 288.941 14.5055 288.708 15.0148C288.475 15.524 288.092 16.5275 287.567 18.0177C287.274 18.834 286.883 19.7476 286.403 20.7361C285.922 21.7321 285.517 22.7281 285.194 23.7166C284.961 24.4505 284.826 24.9073 284.796 25.102C284.766 25.2892 284.811 25.4315 284.931 25.5214C285.254 25.7535 285.119 26.4425 284.533 27.5808C283.534 29.5128 282.716 30.1419 282.07 29.4679C281.717 29.1159 281.762 28.3895 282.205 27.2737C282.881 25.7835 283.369 24.5029 283.677 23.432C283.985 22.3611 284.428 21.2004 285.021 19.9423C285.517 19.0062 286.185 17.3887 287.026 15.0971C287.859 12.7981 288.633 11.0982 289.339 9.98236C289.541 9.6903 289.804 9.56299 290.127 9.60792L290.12 9.6229ZM293.949 26.757C294.122 25.9932 294.324 25.424 294.542 25.0421C294.76 24.6602 295.03 24.5029 295.353 24.5628C295.616 24.5928 295.796 24.7425 295.879 25.0271C295.969 25.3042 295.954 25.6187 295.834 25.9707C295.421 27.5808 294.955 28.8688 294.422 29.8348C294.069 30.5088 294.024 30.8308 294.287 30.8009C294.317 30.7709 294.362 30.741 294.422 30.711C294.572 30.6212 294.978 30.2692 295.654 29.6551C296.329 29.041 296.795 28.6591 297.065 28.5168C297.185 28.4869 297.366 28.3072 297.613 27.9702C297.861 27.6332 298.034 27.4534 298.116 27.4235C298.267 27.3336 298.417 27.3336 298.582 27.4235C298.74 27.5134 298.852 27.6257 298.912 27.7755C298.972 28.0376 298.882 28.3446 298.65 28.6966C298.417 29.0485 297.959 29.5428 297.283 30.1868C296.757 30.711 296.299 31.1454 295.916 31.4824C295.533 31.8194 295.135 32.1414 294.73 32.4484C294.317 32.7554 294.032 32.9651 293.874 33.0849C293.716 33.2048 293.333 33.4369 292.733 33.7889C292.132 34.1408 291.696 34.388 291.434 34.5377C290.585 35.0919 290.037 35.4289 289.804 35.5487C288.866 35.9306 288.392 35.721 288.392 34.9346C288.392 34.7324 288.475 34.5452 288.633 34.388C288.79 34.2307 289.151 33.9386 289.714 33.5343C290.037 33.3021 290.21 33.0849 290.24 32.8977C290.27 32.7105 290.21 32.2612 290.067 31.5572C289.864 30.4489 289.451 29.7001 288.836 29.3181C288.543 29.1983 288.392 28.9662 288.392 28.6142C288.392 28.2622 288.498 28.0001 288.7 27.8279C289.143 27.3636 289.729 27.6107 290.457 28.5768C290.548 28.7265 290.623 28.8389 290.698 28.9287C290.773 29.0186 290.833 29.086 290.893 29.1234C290.953 29.1684 290.998 29.1908 291.028 29.1908C291.058 29.1908 291.088 29.1758 291.118 29.1459C291.178 29.0261 291.208 28.3296 291.208 27.0416C291.208 25.7535 291.178 25.0646 291.118 24.9822C291.028 24.8624 290.885 24.8474 290.675 24.9373C289.797 25.3491 289.121 25.5513 288.648 25.5513C288.528 25.5513 288.423 25.439 288.317 25.2218C288.212 25.0047 288.16 24.7575 288.16 24.4954C288.16 24.2932 288.235 24.0985 288.377 23.9263C288.528 23.754 288.7 23.6642 288.903 23.6642C289.076 23.6642 289.436 23.5668 289.984 23.3796C290.525 23.1924 290.84 23.0351 290.93 22.9153C291.021 22.9453 291.081 22.7805 291.103 22.436C291.133 22.0841 291.141 21.7171 291.126 21.3427C291.111 20.9608 291.088 20.7436 291.058 20.6837C291.028 20.6537 290.645 20.6987 289.917 20.8185C289.391 20.9083 289.061 20.9533 288.926 20.9533C288.79 20.9533 288.655 20.8934 288.505 20.781C288.002 20.4291 287.995 20.0097 288.46 19.508C288.663 19.2758 289.076 19.126 289.692 19.0661C290.69 19.0062 291.832 18.512 293.123 17.5759C293.889 17.0517 294.385 16.9319 294.617 17.2239C295.083 17.7481 294.805 18.3472 293.784 19.0212C293.431 19.2234 293.183 19.5604 293.033 20.0322C292.943 20.2943 292.883 20.5564 292.86 20.8185C292.83 21.0806 292.83 21.2978 292.86 21.455C292.89 21.6198 292.935 21.6947 292.995 21.6947C293.086 21.6947 293.453 21.4325 294.092 20.9083C294.737 20.3841 295.105 20.137 295.188 20.1595C295.361 20.1595 295.526 20.2493 295.669 20.4216C295.819 20.5938 295.886 20.7885 295.886 20.9907C295.886 21.1929 295.796 21.3951 295.624 21.5823C295.451 21.7695 295.098 22.0466 294.565 22.3911C293.919 22.8629 293.498 23.1999 293.311 23.4245C293.123 23.6417 292.995 23.9413 292.935 24.3232C292.875 24.5553 292.83 25.1095 292.8 25.9932C292.77 26.8693 292.755 27.7006 292.755 28.4719C292.755 29.2432 292.77 29.6327 292.8 29.6327C292.86 29.6327 293.01 29.378 293.266 28.8613C293.514 28.3521 293.641 28.0525 293.641 27.9627C293.641 27.9327 293.731 27.5358 293.904 26.7795L293.949 26.757ZM309.169 11.8396C309.019 12.0417 308.907 12.6259 308.817 13.5919C308.756 14.4381 308.756 14.9698 308.817 15.172C308.877 15.3742 309.064 15.4491 309.387 15.3892C310.153 15.3293 310.874 15.509 311.565 15.9134C312.256 16.3253 312.744 16.8495 313.037 17.4935C313.652 19.3956 313.93 21.3726 313.87 23.4171C313.9 26.9892 313.84 29.1534 313.697 29.9097C313.577 30.404 313.45 30.7709 313.299 31.0031C313.149 31.2352 312.886 31.4449 312.511 31.6172C312.278 31.707 312.105 31.752 312.008 31.752C311.91 31.752 311.722 31.707 311.46 31.6172C311.077 31.4749 310.641 31.1229 310.138 30.5613C309.635 30.0071 309.387 29.5802 309.387 29.2882C309.387 29.086 309.537 29.056 309.83 29.1983C309.98 29.2582 310.078 29.3481 310.138 29.4604C310.401 29.9022 310.754 30.1793 311.197 30.2917C311.64 30.4115 311.933 30.3066 312.075 29.9846C312.165 29.8124 312.211 28.9961 312.233 27.5508C312.248 26.1055 312.211 25.132 312.12 24.6302C312.09 24.3681 312.053 24.2034 312.008 24.1509C311.963 24.091 311.895 24.0611 311.813 24.0611C311.61 24.091 311.099 24.3756 310.296 24.9148C309.485 25.454 309.027 25.8134 308.907 25.9932C308.734 26.4874 308.629 27.9477 308.599 30.3591C308.569 32.7704 308.464 34.2008 308.291 34.6351C308.118 34.9871 307.863 35.1893 307.54 35.2492C307.217 35.3091 306.954 35.1893 306.752 34.8972C306.662 34.5752 306.631 34.2681 306.662 33.9761C306.692 33.684 306.744 33.2647 306.819 32.7255C306.894 32.1863 306.932 31.8268 306.932 31.6471C307.022 31.033 307.067 30.082 307.067 28.7939C307.037 27.8878 307.007 27.3561 306.977 27.1913C306.947 27.0341 306.872 26.9667 306.759 26.9966C306.294 27.0565 305.663 27.3336 304.867 27.8279C304.544 28.06 304.244 28.0675 303.966 27.8503C303.688 27.6332 303.665 27.3187 303.898 26.9068C304.131 26.2627 304.807 25.7535 305.926 25.3716C306.511 25.2817 306.872 25.0496 307.007 24.6677C307.142 24.2857 307.135 23.8514 306.984 23.3497C306.864 23.2598 306.354 23.4395 305.445 23.8739C304.537 24.3157 303.996 24.6377 303.816 24.8399C303.665 25.0421 303.568 25.439 303.508 26.0231C303.448 26.6971 303.335 27.5882 303.155 28.6966C302.982 29.8049 302.877 30.5088 302.847 30.8009C302.847 31.0929 302.749 31.4449 302.562 31.8568C302.374 32.2687 302.186 32.5458 302.014 32.688C301.601 32.9501 301.263 32.9052 301 32.5532C300.88 32.2013 300.865 31.752 300.955 31.1903C301.045 30.6361 301.165 29.9097 301.33 29.0186C301.488 28.1274 301.571 27.4909 301.571 27.109C301.661 26.757 301.758 25.1919 301.878 22.4136C301.999 19.6353 302.201 17.853 302.494 17.0592C302.464 16.9169 302.592 16.7072 302.87 16.4451C303.147 16.183 303.433 15.9958 303.726 15.876C304.018 15.7561 304.221 15.7711 304.341 15.9209C304.491 16.0107 304.529 16.183 304.476 16.4451C304.416 16.7072 304.326 17.0367 304.214 17.4336C304.093 17.8305 304.041 18.0701 304.041 18.16C304.041 18.3098 304.146 18.2798 304.349 18.0701C304.409 18.0402 304.454 18.0102 304.484 17.9803C304.687 17.808 305.055 17.5309 305.58 17.149C306.106 16.7671 306.474 16.49 306.677 16.3178L307.12 15.9209L307.21 14.6029V13.9439C307.21 13.7417 307.225 13.5769 307.255 13.4646C307.285 13.3448 307.285 13.2474 307.255 13.1576C307.225 13.0677 307.202 13.0153 307.187 12.9853C307.172 12.9554 307.097 12.9554 306.969 12.9853C306.834 13.0153 306.722 13.0527 306.616 13.0976C306.511 13.1426 306.316 13.2399 306.023 13.3822C305.438 13.6443 304.739 13.9139 303.936 14.191C303.125 14.4681 302.622 14.6104 302.419 14.6104C301.863 14.6104 301.586 14.2734 301.586 13.5994C301.586 13.1576 301.668 12.8805 301.826 12.7681C301.983 12.6483 302.374 12.5809 302.99 12.551C303.455 12.551 303.801 12.5135 304.026 12.4386C304.244 12.3638 304.679 12.184 305.325 11.892C306.234 11.4501 306.752 11.1431 306.887 10.9709C307.022 10.7986 307.044 10.4017 306.954 9.78765C306.924 9.61541 306.827 9.21102 306.669 8.58198C306.511 7.95293 306.436 7.43621 306.451 7.02433C306.466 6.61245 306.616 6.33537 306.917 6.19309C307.067 6.10322 307.172 6.06578 307.247 6.08076C307.322 6.09573 307.457 6.16313 307.668 6.27546C307.87 6.42524 308.021 6.61245 308.111 6.8446C308.201 7.07675 308.313 7.62342 308.464 8.46965C308.524 8.70179 308.569 8.94892 308.599 9.19605C308.629 9.44317 308.666 9.60792 308.711 9.67532C308.756 9.75021 308.892 9.81761 309.132 9.87003C309.395 9.92994 309.575 10.0048 309.658 10.0872C309.74 10.1696 309.793 10.3343 309.793 10.5665C309.793 10.8286 309.605 11.2405 309.222 11.7946L309.169 11.8396ZM306.969 20.9683C307.09 19.7701 307.09 18.9613 306.969 18.5569C306.879 18.4146 306.662 18.4446 306.309 18.6692C305.956 18.8939 305.58 19.1859 305.19 19.5679C304.792 19.9498 304.521 20.3018 304.379 20.6238C304.229 20.8859 304.093 21.2678 303.958 21.7621C303.823 22.2563 303.786 22.5484 303.846 22.6382C303.906 22.7281 304.109 22.7056 304.461 22.5708C304.814 22.436 305.603 22.0541 306.834 21.4101C306.894 21.4999 306.939 21.3502 306.969 20.9683ZM309.169 17.2389C308.967 17.2988 308.839 17.3962 308.794 17.5235C308.749 17.6508 308.696 18.0027 308.636 18.5569C308.546 19.493 308.621 19.9797 308.854 20.0022C308.974 20.0322 309.132 19.9573 309.335 19.785C309.507 19.6428 309.725 19.5679 309.973 19.5679C310.221 19.5679 310.378 19.6428 310.438 19.785C310.791 20.3991 310.514 21.0282 309.605 21.6722C309.252 21.8744 309.042 22.0616 308.967 22.2189C308.892 22.3836 308.824 22.6981 308.771 23.1624C308.711 23.6342 308.756 23.8664 308.907 23.8664C309.027 23.8664 309.372 23.6642 309.965 23.2523C310.168 23.11 310.378 22.9752 310.581 22.8554C310.784 22.7356 310.934 22.6532 311.024 22.5933C311.114 22.5334 311.212 22.451 311.332 22.3312C311.452 22.2114 311.58 22.0541 311.73 21.8519C311.963 21.4999 312.09 21.1854 312.105 20.9083C312.12 20.6313 312.038 20.1819 311.865 19.5679C311.572 18.4296 311.099 17.6957 310.453 17.3737C309.95 17.1415 309.53 17.0966 309.177 17.2389H309.169ZM312.383 5.96094C312.443 6.02085 312.774 6.30542 313.374 6.81465C313.975 7.32388 314.471 7.65338 314.846 7.80315C316.018 8.38727 316.663 8.81412 316.783 9.07623C317.016 9.60044 316.994 10.1546 316.716 10.7237C316.438 11.2929 316.003 11.4501 315.417 11.188C315.214 11.0982 315.094 11.0308 315.064 10.9709C315.034 10.911 315.034 10.7537 315.064 10.4916L315.154 10.0123L314.493 9.57048C314.291 9.45066 313.915 9.2934 313.374 9.09121C312.834 8.88901 312.391 8.67184 312.053 8.45467C311.715 8.2375 311.572 7.99037 311.632 7.72827C311.722 6.67236 311.97 6.08825 312.383 5.97591V5.96094Z" fill="#383838"/>
<path d="M326.545 28.6216C326.515 29.6625 326.47 30.3515 326.41 30.7034C326.35 31.1977 326.357 31.4972 326.432 31.6021C326.507 31.7069 326.688 31.6395 326.98 31.4074C327.041 31.3474 327.348 31.1378 327.904 30.7708C328.46 30.4039 328.783 30.1642 328.873 30.0444C328.933 29.9845 329.263 29.685 329.864 29.1458C330.465 28.6066 330.81 28.2471 330.9 28.0674C331.133 27.6855 331.313 27.4833 331.426 27.4533C331.546 27.3934 331.696 27.4159 331.891 27.5207C332.079 27.6256 332.192 27.7454 332.222 27.8952C332.484 28.2471 332.177 28.8912 331.298 29.8272C330.419 30.7633 329.624 31.4972 328.925 32.0214C328.572 32.2835 328.114 32.6055 327.559 32.9875C325.711 34.3953 324.42 35.2715 323.684 35.6235C322.948 35.9755 322.393 35.9755 322.01 35.6235C321.837 35.4812 321.739 35.2565 321.724 34.9645C321.709 34.6724 321.747 33.8562 321.837 32.5082C322.01 29.318 321.957 27.2437 321.664 26.2776L321.356 24.9596L321.574 24.5178C321.724 24.2257 321.972 23.9711 322.325 23.7464C322.678 23.5218 322.941 23.4768 323.113 23.5892C323.234 23.6491 323.301 23.9187 323.331 24.398C323.361 24.8772 323.376 25.4014 323.376 25.9556C323.376 26.5098 323.406 26.8617 323.466 27.0115C323.639 28.1498 323.654 29.3779 323.511 30.6959C323.309 32.4483 323.279 33.4143 323.421 33.5941C323.481 33.6839 323.549 33.7214 323.616 33.7064C323.692 33.6914 323.872 33.5641 324.165 33.3319L324.735 32.8527L324.69 31.9316C324.66 31.3774 324.713 30.621 324.848 29.67C324.983 28.7189 325.058 27.9551 325.088 27.3635C325.381 22.3011 325.531 19.4105 325.531 18.6766L324.916 18.7215C324.563 18.7515 324.277 18.6616 324.06 18.4594C323.842 18.2572 323.699 18.0476 323.639 17.8454C323.579 17.6432 323.526 17.2912 323.481 16.7895C323.436 16.2952 323.399 15.9432 323.369 15.7336C323.106 14.0336 322.911 13.0451 322.798 12.7531C322.648 12.3112 322.588 11.9892 322.603 11.787C322.618 11.5848 322.73 11.3227 322.933 11.0007C323.136 10.7386 323.316 10.5813 323.459 10.5364C323.609 10.4915 323.842 10.5139 324.165 10.6038C324.337 10.6637 324.442 10.6038 324.472 10.4316C324.675 9.98973 325.396 9.66772 326.628 9.46553C327.859 9.26333 328.888 9.27831 329.706 9.51046C330.089 9.60032 330.359 9.69019 330.517 9.79503C330.675 9.89987 330.848 10.0646 331.02 10.2968C331.486 11.0606 331.155 12.2888 330.007 13.9812C329.774 14.3631 329.639 14.6177 329.609 14.7525C329.579 14.8873 329.639 15.0221 329.781 15.1719C330.277 15.9582 329.931 16.6022 328.723 17.104C328.4 17.2538 328.152 17.3736 327.972 17.4784C327.799 17.5833 327.656 17.7255 327.551 17.9202C327.446 18.1075 327.378 18.2348 327.356 18.2947C327.326 18.3546 327.281 18.5493 327.221 18.8863C327.161 19.2233 327.116 19.4479 327.086 19.5678C327.026 19.8598 326.988 20.5188 326.973 21.5448C326.958 22.5707 326.973 23.1099 327.041 23.1698C327.131 23.2597 327.484 23.1698 328.099 22.9077C328.918 22.5258 329.744 21.9417 330.562 21.1554C331.178 20.6012 331.636 20.4814 331.929 20.8034C332.101 20.9532 332.177 21.2003 332.147 21.5523C332.117 21.8144 331.666 22.3161 330.78 23.0425C329.901 23.7764 329.06 24.3605 328.272 24.7949C327.566 25.2067 327.138 25.4988 326.973 25.671C326.815 25.8433 326.703 26.1503 326.643 26.5921C326.582 26.9141 326.537 27.5956 326.507 28.6291L326.545 28.6216ZM326.042 16.2278C326.2 16.108 326.477 15.8459 326.853 15.4415C328.527 13.7416 329.421 12.5284 329.533 11.802C329.594 11.5998 329.563 11.435 329.443 11.3227C329.323 11.2029 329.136 11.143 328.873 11.128C328.61 11.113 328.37 11.1055 328.144 11.1055C327.919 11.1055 327.656 11.1205 327.333 11.1505C327.01 11.1804 326.793 11.1954 326.673 11.1954C326.38 11.2553 326.027 11.4276 325.614 11.7196C325.201 12.0117 324.953 12.1914 324.863 12.2438C324.69 12.3037 324.593 12.3711 324.578 12.4385C324.563 12.5134 324.578 12.6782 324.6 12.9403C324.63 13.2024 324.72 13.764 324.863 14.6327C325.013 15.4939 325.081 15.9432 325.081 15.9732C325.111 16.1754 325.148 16.3027 325.193 16.3476C325.238 16.3926 325.351 16.415 325.524 16.415C325.696 16.415 325.869 16.3551 326.027 16.2428L326.042 16.2278ZM344.191 19.3431C343.988 19.403 343.778 19.5902 343.575 19.9122C342.636 21.2602 341.713 22.4434 340.804 23.4694C339.896 24.4953 339.22 25.1244 338.777 25.3565C338.251 25.7684 337.763 25.7384 337.328 25.2666C336.945 24.9147 336.99 24.6376 337.463 24.4354C337.553 24.3755 337.636 24.3455 337.726 24.3455C337.958 24.3156 338.236 24.1433 338.559 23.8213C338.882 23.4993 339.205 23.1249 339.528 22.7055C339.851 22.2787 340.068 22.0091 340.189 21.8967C340.714 21.3126 341.157 20.7585 341.51 20.2268C341.863 19.6951 341.991 19.3805 341.908 19.2607C341.848 19.1709 341.51 19.0585 340.894 18.9088C340.046 18.7365 339.505 18.5418 339.287 18.3396C339.07 18.1374 339.032 17.8004 339.175 17.3286C339.295 16.9767 339.49 16.7895 339.768 16.7595C340.046 16.7295 340.579 16.8643 341.375 17.1564C341.931 17.3586 342.434 17.4634 342.869 17.4634C343.305 17.4634 343.643 17.2163 343.883 16.7146C344.056 16.3926 344.206 16.1005 344.326 15.8384C344.446 15.5763 344.566 15.2618 344.701 14.8948C344.836 14.5279 344.972 14.1984 345.122 13.9063C345.445 13.1425 345.542 12.7306 345.407 12.6557C345.272 12.5808 344.799 12.798 343.98 13.2922C342.922 13.9363 342.148 14.3032 341.645 14.3856C340.879 14.5578 340.376 14.4605 340.128 14.0786C339.881 13.6966 339.903 13.0826 340.196 12.2363C340.812 10.3043 341.15 8.47702 341.21 6.75462C341.27 6.52248 341.307 6.38019 341.322 6.33526C341.337 6.29033 341.367 6.22293 341.412 6.14055C341.458 6.05818 341.495 5.98329 341.525 5.94585C341.555 5.90091 341.6 5.85598 341.66 5.81105C341.72 5.76612 341.788 5.74365 341.855 5.74365C341.923 5.74365 342.013 5.75863 342.096 5.78858C342.186 5.81854 342.268 5.87845 342.359 5.96082C342.742 6.13306 342.922 6.53745 342.907 7.1665C342.892 7.79555 342.681 8.89639 342.268 10.4765C342.238 10.6263 342.208 10.776 342.178 10.9408C342.148 11.1055 342.118 11.2329 342.088 11.3377C342.058 11.4425 342.013 11.5624 341.953 11.7121C341.833 12.124 341.795 12.3636 341.84 12.4385C341.886 12.5134 342.111 12.4385 342.524 12.1989C342.674 12.139 343.102 11.9218 343.823 11.5399C344.544 11.158 345.032 10.8509 345.295 10.6188C345.97 10.0347 346.526 9.84745 346.969 10.0496C347.232 10.1395 347.39 10.3043 347.435 10.5514C347.48 10.7985 347.457 11.2179 347.367 11.802C347.104 13.1799 346.631 14.5653 345.955 15.9732C345.542 16.8494 345.355 17.3436 345.385 17.441C345.415 17.5458 345.85 17.6507 346.706 17.7705C347.029 17.8304 347.848 17.9277 349.169 18.055C350.491 18.1824 351.534 18.3246 352.315 18.4744C353.089 18.6242 353.644 18.7964 353.967 18.9986C354.117 19.1484 354.17 19.3656 354.14 19.6576C354.05 20.1294 353.832 20.429 353.479 20.5563C353.126 20.6836 352.698 20.6237 352.203 20.3616C351.91 20.2193 351.369 20.0995 350.573 20.0096C347.607 19.5977 345.482 19.3805 344.191 19.3506V19.3431ZM350.919 33.8636C350.656 33.9835 350.273 34.0434 349.777 34.0583C349.274 34.0733 348.944 34.1108 348.764 34.1707C344.979 34.9345 342.854 35.1667 342.381 34.8746C342.028 34.6425 341.953 34.2006 342.163 33.5566C342.396 32.8826 342.591 31.0254 342.734 27.985C342.824 26.375 342.914 25.379 343.019 25.0045C343.124 24.6226 343.38 24.3306 343.793 24.1284C344.288 23.8962 344.611 23.8438 344.761 23.9711C344.912 24.1059 344.919 24.4878 344.806 25.1318C344.716 25.7759 344.656 26.1578 344.634 26.2701C344.574 26.4424 344.574 26.5322 344.634 26.5322C344.724 26.5622 344.837 26.4424 344.987 26.1803C345.017 26.1503 345.032 26.1204 345.032 26.0904C345.355 25.5063 345.828 25.1169 346.458 24.9297C347.089 24.7424 347.757 24.8922 348.463 25.3939C349.019 25.7459 349.402 26.3375 349.605 27.1688C349.807 28 349.777 28.9136 349.515 29.9096C349.364 30.4937 349.177 30.9955 348.944 31.3999C348.771 31.7219 348.719 31.9241 348.786 32.0139C348.861 32.1038 349.117 32.1338 349.56 32.1038C350.055 32.0439 350.468 32.1263 350.791 32.3434C351.114 32.5606 351.272 32.8452 351.272 33.1972C351.302 33.5192 351.181 33.7363 350.919 33.8562V33.8636ZM347.885 27.326C347.735 27.1238 347.517 26.9291 347.224 26.7569C346.759 26.6371 346.278 26.9516 345.798 27.7005C345.317 28.4493 344.912 29.4603 344.589 30.7484C344.326 31.8043 344.221 32.4483 344.281 32.6804C344.341 32.9126 344.619 33.0024 345.114 32.9425C345.7 32.8826 346.158 32.7179 346.481 32.4408C346.804 32.1637 347.157 31.647 347.54 30.8832C347.833 30.299 348.013 29.8347 348.088 29.4977C348.163 29.1608 348.17 28.7414 348.11 28.2471C348.11 27.8353 348.035 27.5282 347.893 27.326H347.885Z" fill="#383838"/>
<path d="M367.356 31.0181C367.138 31.2503 366.905 31.3401 366.672 31.2802C366.552 31.3401 366.297 31.2353 365.899 30.9732C365.501 30.7111 365.163 30.3966 364.885 30.0296C364.607 29.6627 364.54 29.4081 364.69 29.2583C364.78 28.794 365.02 28.4944 365.418 28.3821C365.816 28.2623 366.244 28.3821 366.717 28.7341C366.98 28.9363 367.213 29.2059 367.423 29.5204C367.626 29.8424 367.731 30.1045 367.731 30.3067C367.701 30.5389 367.573 30.7785 367.356 31.0106V31.0181ZM365.486 21.8445C365.313 21.5225 365.216 21.1106 365.2 20.6164C365.185 20.1221 365.201 19.6428 365.268 19.1935C365.328 18.7442 365.403 18.2799 365.486 17.8081C365.839 15.1496 366.124 13.3224 366.342 12.3488C366.56 11.3678 366.807 10.7912 367.07 10.619C367.626 10.267 368.114 10.3569 368.519 10.8811C368.932 11.4053 369.075 12.0044 368.962 12.6784C368.872 13.1202 368.805 13.6294 368.767 14.2135C368.722 14.7976 368.655 15.3293 368.572 15.8161C368.489 16.3029 368.339 16.8495 368.129 17.4636C367.686 18.8116 367.423 19.83 367.341 20.534C367.19 21.7621 366.837 22.3762 366.282 22.3762C365.929 22.3462 365.666 22.174 365.493 21.852L365.486 21.8445Z" fill="#383838"/>
<path d="M215.174 20.9011C215.992 20.7663 216.683 20.9984 217.239 21.5825C217.734 22.2266 217.982 22.9829 217.967 23.8441C217.952 24.7053 217.682 25.4916 217.156 26.1881C216.983 26.4202 216.803 26.7647 216.63 27.2215C216.458 27.6783 216.262 28.0153 216.06 28.255C215.97 28.3448 215.819 28.532 215.594 28.8241C215.376 29.1162 215.166 29.3708 214.978 29.5954C214.791 29.8126 214.618 29.9699 214.475 30.0597C214.273 30.1796 213.972 30.247 213.574 30.2769C213.176 30.3069 212.846 30.2619 212.583 30.1421C212.057 29.91 211.877 29.4532 212.057 28.7792C212.087 28.0453 212.118 27.5136 212.148 27.1766C212.178 26.8396 212.148 26.3079 212.057 25.574C211.967 24.8401 211.9 24.3084 211.84 23.9714C211.78 23.6344 211.682 23.1252 211.554 22.4363C211.419 21.7473 211.344 21.2755 211.314 21.0134C211.254 20.6315 211.284 20.3394 211.404 20.1372C211.524 19.935 211.757 19.8751 212.11 19.965C212.403 19.9949 212.621 20.0998 212.771 20.272C212.921 20.4443 213.034 20.7513 213.124 21.1931C213.214 21.6649 213.281 21.8971 213.341 21.8971C213.754 21.3729 214.37 21.0434 215.189 20.9086L215.174 20.9011ZM216.255 23.6869C216.27 23.5446 216.24 23.4023 216.165 23.2675C216.09 23.1327 216.037 23.0503 216.007 23.0054C215.977 22.9605 215.887 22.8781 215.744 22.7658C215.572 22.6235 215.354 22.631 215.106 22.8107C214.858 22.9829 214.641 23.2675 214.468 23.6419C214.295 24.0538 214.175 24.5406 214.115 25.1097C214.055 25.6789 214.07 26.1731 214.16 26.5775C214.25 26.9894 214.393 27.1616 214.603 27.1017C215.046 27.0418 215.542 26.0758 216.097 24.2036C216.187 24.0014 216.232 23.8217 216.255 23.6794V23.6869ZM224.094 11.6825C224.8 11.2407 225.296 11.0235 225.588 11.0235C225.679 11.0235 225.761 11.1134 225.851 11.2856C225.941 11.4579 225.986 11.6526 225.986 11.8548C225.986 12.1468 225.904 12.3715 225.746 12.5362C225.588 12.701 225.213 12.9107 224.627 13.1728L223.749 13.6146V14.3185C223.749 15.4868 223.997 16.2656 224.5 16.6475C224.672 16.7973 224.77 16.9021 224.785 16.977C224.8 17.0519 224.785 17.1717 224.717 17.3514C224.304 18.3774 223.809 18.5496 223.223 17.8757C222.81 17.4338 222.562 16.8946 222.472 16.2506C222.412 15.9586 222.352 15.659 222.3 15.352C222.239 15.0449 222.164 14.7903 222.082 14.5806C222.022 14.4908 221.932 14.4533 221.819 14.4683C221.699 14.4833 221.361 14.5806 220.805 14.7529C220.302 14.9026 219.641 15.0599 218.8 15.2321C217.959 15.4044 217.411 15.4943 217.148 15.4943C216.826 15.5242 216.66 15.2546 216.645 14.6855C216.63 14.1163 216.698 13.7419 216.841 13.5697C216.871 13.5098 217.194 13.4648 217.809 13.4349C218.425 13.4049 219.033 13.3824 219.634 13.3675C220.235 13.3525 220.535 13.3001 220.535 13.2102C220.918 13.038 221.158 12.8732 221.263 12.7309C221.368 12.5886 221.421 12.349 221.421 12.027C221.421 11.9671 221.436 11.8922 221.466 11.8098C221.466 11.5477 221.481 11.3455 221.511 11.2182C221.541 11.0834 221.571 10.9112 221.601 10.694C221.631 10.4768 221.676 10.3121 221.736 10.2147C221.796 10.1099 221.872 10.02 221.954 9.93016C222.037 9.8403 222.157 9.81034 222.307 9.8403C222.457 9.87025 222.6 9.93016 222.75 10.0125C222.9 10.1324 222.968 10.3795 222.968 10.7614C223.028 11.8997 223.411 12.2067 224.109 11.6825H224.094ZM231.948 35.0921C231.731 34.9349 231.483 34.7327 231.22 34.5005C230.957 34.2684 230.762 34.1186 230.649 34.0587C230.266 34.1785 229.756 34.3507 229.11 34.5829C228.464 34.815 227.766 35.0697 227.023 35.3542C226.272 35.6313 225.769 35.8185 225.506 35.9009C225.153 36.0731 224.8 36.0956 224.447 35.9683C224.094 35.841 223.876 35.6388 223.786 35.3767C223.696 35.1745 223.471 35.0023 223.103 34.875C222.735 34.7402 222.555 34.5155 222.555 34.1935C222.495 33.9913 222.45 33.8191 222.42 33.6917C222.39 33.557 222.367 33.3997 222.352 33.2125C222.337 33.0253 222.322 32.883 222.307 32.7931C222.292 32.7032 222.307 32.5235 222.33 32.2464C222.36 31.9694 222.382 31.7597 222.397 31.6099C222.412 31.4676 222.442 31.1606 222.487 30.6888C222.532 30.2245 222.57 29.8426 222.6 29.5505C222.6 29.2884 222.6 28.9289 222.622 28.4721C222.637 28.0228 222.645 27.7158 222.645 27.5735C222.645 27.4312 222.667 27.1541 222.713 26.7647C222.758 26.3753 222.825 25.9559 222.908 25.5141C222.99 25.0723 223.095 24.4732 223.216 23.7168C223.569 21.9645 223.936 20.9685 224.312 20.7363C224.545 20.594 224.8 20.609 225.085 20.8037C225.363 20.9909 225.528 21.268 225.588 21.6125C225.618 21.8746 225.663 22.0244 225.724 22.0543C225.784 22.0843 225.926 22.0394 226.167 21.9195C226.399 21.7997 226.632 21.7323 226.872 21.7024C227.255 21.6125 227.751 21.4852 228.367 21.3055C228.982 21.1257 229.448 21.0134 229.756 20.9535C230.064 20.8936 230.432 20.8412 230.852 20.7962C231.28 20.7513 231.663 20.7663 232.016 20.8412C232.369 20.9161 232.722 21.0509 233.075 21.2605C233.781 21.5825 234.254 22.0244 234.501 22.5785C234.749 23.1327 234.922 24.2335 235.005 25.8661C235.065 26.8621 235.095 27.4911 235.095 27.7532C235.095 28.0153 235.035 28.4572 234.922 29.0712C234.802 29.6853 234.719 30.1796 234.659 30.5615C234.629 31.0333 234.622 31.3403 234.637 31.4826C234.652 31.6324 234.719 31.8495 234.832 32.1416C235.065 32.3737 235.162 32.6209 235.117 32.868C235.072 33.1151 234.997 33.3173 234.899 33.4596C234.794 33.6094 234.652 33.7741 234.456 33.9613C234.269 34.1486 234.141 34.3058 234.081 34.4256C233.931 34.6578 233.698 34.86 233.375 35.0172C233.052 35.182 232.759 35.2569 232.497 35.2569C232.346 35.3168 232.166 35.2644 231.948 35.0996V35.0921ZM227.353 28.8391C227.263 28.869 227.038 28.9289 226.67 29.0113C226.302 29.1012 226.024 29.1761 225.836 29.2285C225.648 29.2884 225.423 29.3783 225.175 29.4906C224.928 29.6104 224.74 29.7227 224.627 29.8426C224.597 29.9923 224.522 30.6738 224.41 31.9019C224.349 32.9878 224.349 33.6094 224.41 33.7666C224.47 33.9314 224.747 33.9464 225.243 33.834C225.686 33.7142 225.994 33.527 226.167 33.2649C227.195 30.9509 227.586 29.4756 227.353 28.8316V28.8391ZM225.461 24.2785C225.228 24.6304 225.04 25.1921 224.913 25.9709C224.777 26.7497 224.8 27.2215 224.98 27.3938C225.13 27.566 225.551 27.5735 226.257 27.4162C226.963 27.259 227.383 27.0568 227.533 26.8246C227.593 26.7048 227.631 26.1357 227.646 25.1097C227.661 24.0838 227.646 23.5296 227.578 23.4397C227.135 23.0878 226.437 23.3649 225.468 24.271L225.461 24.2785ZM230.589 25.1097C231.16 24.6155 231.595 24.3608 231.888 24.3608C232.061 24.3608 232.219 24.4357 232.354 24.578C232.489 24.7278 232.549 24.8851 232.549 25.0573C232.549 25.2595 232.256 25.6489 231.671 26.218C231.085 26.7872 230.552 27.1616 230.086 27.3339C229.703 27.4836 229.418 27.7832 229.23 28.2325C229.042 28.6893 228.885 29.2659 228.765 29.9624C228.645 30.6663 228.532 31.1756 228.412 31.4976C228.292 31.7896 228.217 32.0068 228.171 32.1566C228.126 32.3063 228.096 32.4336 228.081 32.5535C228.066 32.6733 228.081 32.7332 228.104 32.7482C228.134 32.7631 228.209 32.7706 228.322 32.7706C228.434 32.7706 228.562 32.7482 228.697 32.7032C228.832 32.6583 229.027 32.6134 229.29 32.5684C229.553 32.5235 229.801 32.4711 230.041 32.4112C231.213 32.1191 231.948 31.9469 232.241 31.887C232.504 31.857 232.684 31.7821 232.767 31.6698C232.857 31.55 232.917 31.3178 232.94 30.9659C232.97 30.7337 233.03 30.3817 233.112 29.91C233.202 29.4457 233.27 29.0787 233.308 28.8166C233.345 28.5545 233.398 28.21 233.443 27.7832C233.488 27.3563 233.503 26.9444 233.488 26.5326C233.473 26.1207 233.45 25.7013 233.42 25.2595C233.3 24.2335 233.097 23.567 232.804 23.26C232.512 22.953 231.941 22.6684 231.085 22.4063C230.822 22.3763 230.507 22.4063 230.139 22.4737C229.771 22.5486 229.546 22.631 229.455 22.7133C229.365 22.7732 229.305 23.3124 229.283 24.3384C229.283 25.0124 229.283 25.4317 229.305 25.6115C229.32 25.7837 229.373 25.8736 229.463 25.8736C229.636 25.8436 230.011 25.5815 230.582 25.0873L230.589 25.1097ZM236.416 10.4544L237.475 10.3645C237.708 10.3645 238.106 10.3196 238.661 10.2297C239.217 10.1398 239.622 10.0949 239.87 10.0949C240.118 10.0949 240.433 10.1548 240.816 10.2672C241.139 10.5592 241.124 11.001 240.771 11.5852C240.358 12.2891 239.863 12.4613 239.277 12.1094C239.187 11.9671 238.684 11.9222 237.76 11.9746C236.837 12.0345 236.258 12.0794 236.026 12.1094C235.763 12.2292 235.523 12.7534 235.32 13.6895C235.29 14.0714 235.215 14.4309 235.102 14.7679C234.982 15.1048 234.892 15.352 234.817 15.5167C234.742 15.6815 234.607 15.9361 234.396 16.2881C234.194 16.64 234.058 16.8722 233.998 16.992C233.938 17.0819 233.766 17.2092 233.473 17.3889C233.18 17.5611 232.97 17.5911 232.857 17.4788C232.737 17.3589 232.699 17.2092 232.722 17.0145C232.752 16.8272 232.895 16.4528 233.165 15.8986C233.69 14.7604 233.953 13.6595 233.953 12.6111C233.953 12.4688 233.931 12.379 233.886 12.349C233.841 12.3191 233.675 12.3041 233.383 12.3041C232.827 12.3041 231.843 12.2292 230.432 12.0869C229.02 11.9446 228.322 11.8098 228.322 11.69C228.232 11.5702 228.217 11.4129 228.277 11.2107C228.337 11.0085 228.449 10.8438 228.63 10.7315C228.892 10.5592 229.275 10.4544 229.771 10.4244C230.266 10.3945 230.875 10.4244 231.595 10.4918C232.316 10.5667 232.834 10.5892 233.157 10.5592C233.863 10.5892 234.284 10.5592 234.434 10.4469C234.584 10.342 234.697 10.0275 234.787 9.50331C234.907 8.91919 235.02 8.52229 235.14 8.3201C235.26 8.1179 235.493 7.9232 235.845 7.75096C236.371 7.36903 236.724 7.31661 236.904 7.5937C237.077 7.87078 237.024 8.3201 236.732 8.93417C236.529 9.31609 236.424 9.66806 236.424 9.99007V10.4693L236.416 10.4544Z" fill="#383838"/>
</g>
<defs>
<clipPath id="clip0_178_637">
<rect width="369" height="43" fill="white"/>
</clipPath>
</defs>
</svg>
