<svg width="32" height="32" viewBox="0 0 32 32" fill="none" xmlns="http://www.w3.org/2000/svg">
<path d="M9.37347 0.1119C7.67107 0.19222 6.50851 0.4639 5.49219 0.86326C4.44035 1.27318 3.54883 1.82326 2.66179 2.7135C1.77475 3.60374 1.22851 4.4959 0.821466 5.54934C0.427546 6.5679 0.160666 7.73142 0.0854659 9.43478C0.010266 11.1381 -0.00637406 11.6857 0.00194594 16.0306C0.0102659 20.3756 0.0294659 20.9202 0.112026 22.6271C0.193306 24.3292 0.464026 25.4914 0.863386 26.5081C1.27395 27.5599 1.82339 28.4511 2.71395 29.3385C3.60451 30.2258 4.49603 30.7708 5.55203 31.1785C6.56963 31.5717 7.73347 31.8399 9.43651 31.9145C11.1395 31.989 11.6877 32.0063 16.0314 31.998C20.3751 31.9897 20.9219 31.9705 22.6285 31.8895C24.3351 31.8085 25.4912 31.5359 26.5082 31.1385C27.56 30.7269 28.4519 30.1785 29.3386 29.2876C30.2253 28.3967 30.7712 27.5039 31.1779 26.4498C31.5722 25.4322 31.84 24.2684 31.9139 22.5666C31.9885 20.8588 32.0061 20.3135 31.9978 15.9692C31.9895 11.6249 31.9699 11.0802 31.889 9.37398C31.808 7.66774 31.537 6.50902 31.1379 5.49174C30.7267 4.4399 30.1779 3.54934 29.2877 2.66134C28.3975 1.77334 27.504 1.22774 26.4503 0.82198C25.432 0.42806 24.2688 0.15958 22.5658 0.0859802C20.8627 0.0123802 20.3146 -0.00649982 15.9693 0.00182018C11.624 0.0101402 11.08 0.0287002 9.37347 0.1119ZM9.56035 29.0361C8.00035 28.9682 7.15331 28.709 6.58883 28.4921C5.84131 28.2041 5.30883 27.8559 4.74627 27.2988C4.18371 26.7417 3.83811 26.2073 3.54627 25.4613C3.32707 24.8969 3.06307 24.0508 2.99011 22.4908C2.91075 20.8047 2.89411 20.2985 2.88483 16.0268C2.87555 11.7551 2.89187 11.2495 2.96579 9.56278C3.03235 8.00406 3.29315 7.15606 3.50979 6.5919C3.79779 5.84342 4.14467 5.3119 4.70307 4.74966C5.26147 4.18742 5.79427 3.84118 6.54083 3.54934C7.10467 3.32918 7.95075 3.06742 9.51011 2.99318C11.1975 2.91318 11.7031 2.89718 15.9741 2.8879C20.2451 2.87862 20.752 2.89462 22.44 2.96886C23.9987 3.0367 24.8471 3.29494 25.4106 3.51286C26.1584 3.80086 26.6906 4.14678 27.2528 4.70614C27.8151 5.2655 28.1616 5.79638 28.4535 6.54454C28.6739 7.10678 28.9357 7.95254 29.0093 9.51286C29.0896 11.2002 29.1079 11.7061 29.1155 15.9769C29.1232 20.2476 29.1082 20.7548 29.0343 22.4409C28.9661 24.0009 28.7075 24.8482 28.4903 25.4133C28.2023 26.1605 27.8551 26.6933 27.2963 27.2553C26.7376 27.8172 26.2055 28.1634 25.4586 28.4553C24.8954 28.6751 24.0483 28.9375 22.4903 29.0117C20.8029 29.0911 20.2973 29.1077 16.0247 29.117C11.752 29.1263 11.248 29.109 9.56067 29.0361M22.6039 7.44854C22.6045 7.82831 22.7177 8.19936 22.9293 8.51476C23.1408 8.83016 23.4411 9.07575 23.7922 9.22047C24.1433 9.36518 24.5295 9.40253 24.9018 9.32777C25.2741 9.25301 25.6159 9.06952 25.884 8.80049C26.152 8.53146 26.3343 8.18899 26.4077 7.81638C26.4811 7.44377 26.4423 7.05777 26.2963 6.70719C26.1503 6.35661 25.9036 6.0572 25.5874 5.84683C25.2713 5.63646 24.8998 5.52458 24.52 5.52534C24.0109 5.52636 23.5231 5.72953 23.1637 6.09018C22.8044 6.45084 22.603 6.93944 22.6039 7.44854ZM7.78467 16.0159C7.79363 20.5535 11.4787 24.2236 16.0154 24.2149C20.552 24.2063 24.2247 20.5215 24.216 15.9839C24.2074 11.4463 20.5213 7.77526 15.984 7.78422C11.4467 7.79318 7.77603 11.4789 7.78467 16.0159ZM10.6666 16.0101C10.6645 14.9553 10.9753 13.9235 11.5596 13.0453C12.1439 12.167 12.9755 11.4818 13.9492 11.0762C14.923 10.6706 15.9952 10.5628 17.0302 10.7666C18.0651 10.9703 19.0165 11.4764 19.7638 12.2208C20.5112 12.9652 21.0211 13.9146 21.2289 14.9487C21.4367 15.9829 21.3332 17.0555 20.9315 18.0308C20.5298 19.0062 19.8478 19.8405 18.9719 20.4283C18.096 21.0161 17.0654 21.3309 16.0106 21.333C15.3102 21.3345 14.6163 21.198 13.9687 20.9313C13.321 20.6645 12.7322 20.2728 12.236 19.7786C11.7397 19.2843 11.3457 18.697 11.0764 18.0505C10.8072 17.4039 10.6679 16.7106 10.6666 16.0101Z" fill="#383838"/>
</svg>
