<svg width="32" height="32" viewBox="0 0 32 32" fill="none" xmlns="http://www.w3.org/2000/svg">
<path d="M32 16C32 7.16347 24.8366 3.62396e-05 16 3.62396e-05C7.16344 3.62396e-05 0 7.16347 0 16C0 23.9861 5.85097 30.6053 13.5 31.8057V20.625H9.4375V16H13.5V12.475C13.5 8.46504 15.8887 6.25004 19.5434 6.25004C21.294 6.25004 23.125 6.56254 23.125 6.56254V10.5H21.1074C19.1198 10.5 18.5 11.7334 18.5 12.9987V16H22.9375L22.2281 20.625H18.5V31.8057C26.149 30.6053 32 23.9861 32 16Z" fill="#383838"/>
</svg>
