<svg width="676" height="91" viewBox="0 0 676 91" fill="none" xmlns="http://www.w3.org/2000/svg">
<path d="M83.3281 84.6111C82.7824 85.3387 81.9822 86.0844 80.9454 86.8119C79.9087 87.5394 78.9266 87.7577 77.999 87.4485C77.326 87.3939 76.3985 87.0847 75.1981 86.5209C73.9976 85.9571 73.4156 85.5751 73.4156 85.3205C73.4156 85.1386 73.0519 84.502 72.3062 83.3926C70.9603 81.3191 70.5601 79.9914 71.1058 79.4458C71.3422 79.1366 71.6332 79.1002 71.9788 79.3548C72.3062 79.5913 72.7609 80.2097 73.3065 81.1918C73.9795 82.2285 74.5251 82.9742 74.9616 83.4471C75.3799 83.9018 75.8892 84.1928 76.4348 84.3201C76.8532 84.502 77.2715 84.5202 77.6716 84.3747C78.0717 84.2292 78.5264 83.9018 79.0539 83.4107C79.5632 82.9197 79.8724 82.6832 79.9269 82.6832C80.7272 81.8284 81.5275 80.4097 82.3095 78.4636C83.1098 76.4993 83.6918 74.3895 84.0556 72.116C84.3648 70.4609 84.4739 69.4606 84.383 69.1332C84.292 68.8058 83.8191 68.4057 82.9643 67.9874C82.1095 67.6236 81.5275 67.3144 81.2183 67.0598C80.9091 66.8233 80.7636 66.4778 80.7636 66.0413C80.7636 65.6047 80.9454 65.3137 81.3092 65.1137C81.673 64.9136 82.3277 64.8409 83.2371 64.8409C84.0374 64.8409 84.5648 64.7863 84.8377 64.659C85.1105 64.5317 85.2742 64.4043 85.3469 64.2407C85.4015 64.0952 85.4379 63.6586 85.4379 62.9493C85.4379 62.24 85.4924 61.5852 85.6197 60.9668C85.6743 59.3663 85.6925 58.366 85.6743 57.9294C85.6379 57.4929 85.4742 56.9473 85.165 56.2743C85.0377 55.7833 84.8195 55.3831 84.5285 55.0739C84.2193 54.7647 83.7646 54.5647 83.1462 54.4737C82.5278 54.3828 82.0185 54.3282 81.582 54.3282C81.1455 54.3282 80.4726 54.3828 79.5632 54.4737C78.6538 54.5647 77.999 54.6192 77.6352 54.6192C76.7077 54.7466 75.7437 55.0557 74.7434 55.5832C73.743 56.1106 71.1421 57.4929 66.9771 59.7664C66.2496 60.1302 64.9037 60.8759 62.9758 62.0217C61.0478 63.1676 59.5564 63.9315 58.5197 64.368C57.9741 64.6044 57.3193 64.368 56.5918 63.6405C55.8643 62.9129 55.646 62.2582 55.9552 61.7125C56.2644 60.985 57.2102 59.1662 58.8107 56.2925C60.4113 53.4188 61.5753 51.109 62.3028 49.3993C62.8484 48.2353 63.0667 47.5077 62.9394 47.2349C62.8121 46.9621 62.23 46.9075 61.1933 47.0894C59.3564 47.3986 57.9741 47.144 57.0647 46.3619C56.7009 46.1255 56.4827 45.9072 56.4281 45.7253C56.3735 45.5434 56.3735 45.1797 56.4281 44.6159C56.5554 43.1426 56.7737 41.8877 57.1192 40.851C57.4466 39.8143 58.2105 37.8499 59.3745 34.9763C59.5019 34.5397 59.52 34.2669 59.4291 34.1578C59.3382 34.0487 58.5015 34.1214 56.9555 34.4306C55.4096 34.7398 54.482 34.9763 54.2455 35.1581C53.5726 36.8678 52.6814 39.7961 51.5901 43.9247C50.4988 48.0534 49.6258 50.9816 49.0256 52.6913C47.4978 56.9109 44.9515 62.6401 41.4049 69.8789C37.8582 77.0995 35.3665 81.792 33.966 83.9382C33.7295 84.302 33.2021 85.2295 32.4018 86.7028C31.6016 88.176 31.0195 89.1581 30.6558 89.6492C30.0374 90.3767 29.5463 90.795 29.1462 90.886C28.746 90.9769 28.2732 90.7769 27.7275 90.2858C27.2364 89.8493 27 89.431 27 88.9944C27 88.5579 27.1819 87.9214 27.5456 87.0665C27.7275 86.5754 28.1458 85.4478 28.7824 83.6654C29.419 81.883 30.0192 80.3188 30.5648 78.9365C31.1105 77.5542 31.6016 76.5721 32.0381 75.9537C32.2199 75.7718 32.4382 75.9901 32.6746 76.5903C32.802 76.8995 32.8565 77.1723 32.8565 77.4087C32.8565 77.827 32.8929 78.0453 32.9475 78.0453C33.002 78.0453 33.093 77.9907 33.2203 77.8634C40.5136 64.3316 44.8606 54.7465 46.261 49.1083C46.4429 48.4353 46.7703 47.3622 47.2796 45.889C47.7706 44.4158 48.1708 43.1063 48.48 41.9422C48.7892 40.7782 49.1529 39.1231 49.5894 36.9769L49.8622 35.6856L49.0438 35.049C48.7346 34.8671 48.5345 34.6671 48.4436 34.4488C48.3526 34.2306 48.3708 34.0123 48.4981 33.8122C48.6255 33.594 48.7528 33.4121 48.9165 33.2666C49.062 33.1211 49.262 32.9392 49.5167 32.7573C49.7531 32.5754 49.9168 32.4118 49.9714 32.3026C50.4624 31.9934 50.8808 31.4842 51.2082 30.793C51.5355 30.0837 51.7174 29.4653 51.7174 28.9015C52.0266 27.5556 52.8269 24.8638 54.1546 20.826C55.4641 16.7883 56.3372 13.7145 56.7737 11.6411C57.3921 8.14904 59.1017 4.52964 61.9209 0.801109C62.5938 0.073591 63.2668 -0.162852 63.9397 0.109967C64.6127 0.382786 65.0492 0.855673 65.2311 1.52863C65.2311 1.78326 64.5581 2.87453 63.2122 4.83883C62.5392 5.32991 60.7568 10.7135 57.8831 21.0079C57.6467 21.6809 57.3375 22.5903 56.9555 23.7179C56.5736 24.8456 56.228 26.0824 55.8461 27.3919C55.4641 28.7014 55.2277 29.6108 55.1186 30.1019C54.7548 30.7748 54.9367 31.084 55.6642 31.0295C56.2098 30.9749 57.0465 30.7203 58.1378 30.302C59.1199 29.8654 60.1566 29.6654 61.2661 29.6654C62.3756 29.6654 63.0667 29.8473 63.3759 30.211C63.6123 30.6475 63.7033 31.2295 63.6487 31.9571C63.5941 32.6846 63.5032 33.2484 63.3759 33.6122C63.2486 33.9759 63.0485 34.5216 62.7757 35.2127C62.5029 35.9038 62.3028 36.4859 62.1755 36.9042C61.9936 37.5226 61.7208 38.1773 61.3934 38.8867C61.0478 39.596 60.7932 40.2144 60.6113 40.7782C60.4294 41.342 60.3749 41.9968 60.4294 42.7971C60.484 42.979 61.4116 43.0699 63.194 43.0699C65.1583 43.0699 66.3951 43.2518 66.9225 43.6155C67.4318 43.9793 67.5227 44.7432 67.159 45.9072C66.6133 47.5077 65.7767 49.5994 64.6854 52.2002C63.5941 54.8011 62.8121 56.6199 62.3937 57.6748C63.2486 57.4929 65.0128 56.6563 67.6682 55.2012C70.3237 53.7462 72.0879 52.8368 72.9427 52.5458C75.1435 51.6182 78.1809 50.9271 82.0367 50.436C83.6373 50.1268 85.0195 50.3996 86.2199 51.2545C87.4204 52.1093 88.2934 53.1824 88.839 54.4737C89.512 56.0743 89.7666 58.5478 89.5665 61.9126C89.512 63.5677 89.512 64.4771 89.6211 64.6772C89.7302 64.8772 90.3122 65.1319 91.4035 65.4956C92.3311 65.6775 94.5864 66.4414 98.2058 67.7873L101.516 68.9877L101.425 68.8968C101.916 68.7694 102.298 69.0059 102.571 69.5879C102.844 70.1699 102.971 70.8247 102.935 71.5704C102.898 72.2979 102.698 72.789 102.334 73.0436C101.898 73.3528 101.28 73.5165 100.443 73.5529C99.6063 73.5893 98.9515 73.4438 98.4604 73.1346C94.2954 70.6792 91.3489 69.406 89.6393 69.2787C89.3301 69.1514 89.0755 69.2787 88.8572 69.697C88.6389 70.0972 88.3843 70.9338 88.0751 72.2252C87.8932 73.08 87.7114 73.8985 87.5295 74.6623C87.3476 75.4262 87.2021 76.0264 87.1112 76.4448C87.0202 76.8631 86.8383 77.4633 86.5655 78.1908C86.2927 78.9183 86.1108 79.373 86.0563 79.5185C86.0017 79.664 85.7834 80.1733 85.4197 81.0281C85.0559 81.883 84.8377 82.374 84.7831 82.5013C84.4193 83.1743 83.9646 83.8836 83.4008 84.6111H83.3281ZM49.1893 17.534C49.8259 18.8254 50.6989 19.8257 51.8084 20.5714C52.9178 21.3717 53.2088 22.1719 52.7359 22.954C52.2449 23.7543 51.2627 23.6815 49.7895 22.7721C49.1711 22.463 48.3708 21.8446 47.4069 20.9352C46.4247 20.0076 45.7518 19.2801 45.388 18.7344C45.1516 18.3707 45.0061 17.6977 44.9697 16.7156C44.9333 15.7334 45.1152 15.1514 45.479 14.9695C46.0246 14.4784 46.6066 14.4239 47.225 14.7876C47.8979 15.3333 48.5527 16.2609 49.2075 17.5522L49.1893 17.534ZM52.3176 70.0426C53.3361 69.6425 54.1 69.788 54.6639 70.4609C55.1549 70.6974 55.3732 71.0611 55.3004 71.5158C55.2459 71.9705 55.064 72.407 54.7912 72.8072C54.5184 73.2073 54.2274 73.6256 53.9182 74.0985C53.609 74.5532 53.4635 74.917 53.4635 75.1534C53.2816 75.8809 52.8814 76.8085 52.2631 77.918C51.6447 79.0275 51.0627 79.8459 50.517 80.3915C49.0984 81.7375 48.0435 81.6829 47.2977 80.2097C46.8612 79.4094 47.0795 78.4091 47.9343 77.1723C48.48 76.4448 49.062 75.4262 49.6804 74.1349C50.2988 72.8436 50.608 72.0251 50.608 71.6613C50.7353 70.9884 51.2991 70.4427 52.2994 70.0608L52.3176 70.0426ZM59.8111 69.7152C60.2294 69.6607 60.7023 69.5879 61.1933 69.5333C61.6844 69.4788 61.9572 69.406 62.0118 69.3515C62.321 69.2241 62.7393 69.4606 63.3031 70.0426C63.867 70.6246 64.4126 71.2976 64.9582 72.0615C65.5039 72.8254 65.8858 73.2801 66.0677 73.3892C66.4315 73.7529 66.6497 73.9894 66.7043 74.0803C66.7588 74.1713 66.8498 74.3168 66.9771 74.4987C67.1044 74.6805 67.1772 74.8442 67.2135 75.0079C67.2499 75.1534 67.2499 75.3535 67.2135 75.5536C67.1772 75.7718 67.1044 75.9719 66.9771 76.1538C66.7952 76.8267 66.4315 77.336 65.8676 77.6634C65.322 77.9907 64.7036 78.0089 64.0307 77.7179C63.6669 77.5906 62.9394 76.6266 61.8663 74.826C60.7932 73.0254 60.0475 71.9705 59.611 71.6613C59.1745 71.3521 58.9017 71.0248 58.7925 70.6974C58.6652 70.3518 58.7562 70.0972 59.0653 69.9153C59.1199 69.8607 59.3745 69.788 59.7929 69.7334L59.8111 69.7152ZM72.1243 67.2417C72.8518 67.6782 73.6521 68.3148 74.5069 69.1696C75.3617 70.0244 75.8528 70.5519 75.9801 70.7338C76.3985 71.3521 76.253 72.0433 75.5254 72.8436C74.7979 73.6438 74.1068 73.8803 73.5066 73.5711C73.1428 73.3892 72.5244 72.8072 71.6696 71.825C70.8148 70.8429 70.2509 70.2609 70.0145 70.079C69.3415 69.5879 69.0141 69.0059 69.0505 68.3329C69.0869 67.66 69.3961 67.1689 70.0145 66.8597C70.6874 66.6778 71.3968 66.8052 72.1243 67.2235V67.2417Z" fill="white"/>
<path d="M195.002 77.0268C197.694 76.2083 199.785 75.7173 201.24 75.6081C202.277 75.6081 202.932 75.5172 203.168 75.3353C203.405 75.1534 203.568 74.626 203.623 73.7711C203.623 73.0982 203.787 72.498 204.132 71.9887C204.46 71.4613 204.66 71.0611 204.733 70.7519C204.733 70.3154 204.86 69.6425 205.096 68.7331C205.587 66.9507 205.587 66.0776 205.096 66.0776C204.787 66.1322 203.878 66.8961 202.332 68.3693C201.841 68.8058 201.531 69.0423 201.404 69.0968C201.04 69.2242 200.64 69.1696 200.204 68.9513C199.767 68.7331 199.494 68.4421 199.385 68.0783C199.203 67.5327 199.549 66.6415 200.44 65.4229C201.331 64.2043 202.077 63.4586 202.695 63.2221C204.896 61.8217 206.133 60.8941 206.369 60.4576C206.606 60.0938 206.842 59.2754 207.061 58.0204C207.279 56.7654 207.388 55.656 207.424 54.7102C207.461 53.7644 207.37 53.2006 207.188 53.0187C206.751 53.0187 205.897 53.5462 204.623 54.5829C202.914 55.9288 201.604 56.8745 200.713 57.4384C199.822 57.984 198.094 58.9116 195.529 60.2029C193.638 61.1305 192.074 61.2397 190.837 60.5667C190.473 60.3848 190.237 60.2211 190.146 60.0574C190.055 59.8937 190 59.6209 190 59.1844C190 58.2023 190.4 57.2565 191.201 56.3289C191.564 56.0925 192.165 54.983 192.983 53.0187C193.802 51.0544 194.365 49.8722 194.638 49.4902C194.911 49.1083 195.348 48.1807 195.93 46.7257C196.512 45.2888 196.948 44.3612 197.257 43.9247C197.676 43.3063 197.967 42.7061 198.076 42.0877C198.203 41.2875 198.603 40.7782 199.276 40.5236C199.949 40.2871 200.567 40.469 201.113 41.0692C201.531 41.6149 201.459 42.4879 200.877 43.6883C200.295 44.8887 200.004 45.6344 200.004 45.9436C199.949 46.3073 199.694 46.9257 199.276 47.7806C198.84 48.6354 198.64 49.2174 198.64 49.5266C198.64 49.8358 198.421 50.1996 198.003 50.6361C197.639 50.9453 197.275 51.5091 196.894 52.3276C196.512 53.146 196.293 53.8553 196.202 54.4374C196.111 55.0194 196.202 55.3649 196.439 55.4923C197.73 55.0558 199.604 54.0008 202.095 52.3276C204.587 50.6543 206.115 49.6539 206.733 49.3447C207.152 49.1629 207.461 48.9992 207.661 48.89C207.861 48.7809 207.988 48.599 208.079 48.3808C208.17 48.1625 208.225 47.9625 208.225 47.7806C208.225 47.5987 208.225 47.2531 208.279 46.762C208.316 46.271 208.352 45.7799 208.425 45.2888C208.552 43.8156 208.788 42.3242 209.152 40.7782C209.516 39.2322 209.825 38.3228 210.08 38.0136C210.316 37.7772 210.753 37.6317 211.371 37.5953C211.99 37.5589 212.444 37.6681 212.753 37.9227C213.063 38.1592 213.117 38.7412 212.935 39.6687C212.881 39.9779 212.826 40.3053 212.79 40.6873C212.753 41.051 212.717 41.3602 212.644 41.6149C212.59 41.8513 212.517 42.1605 212.462 42.5424C212.281 43.3973 212.171 44.0884 212.135 44.6159C212.099 45.1433 212.299 45.398 212.735 45.398C213.172 45.398 213.863 45.0524 214.845 44.3794C215.391 43.9429 216.082 43.47 216.918 42.9608C217.755 42.4515 218.501 41.9422 219.174 41.4512C220.029 40.7782 220.865 40.4145 221.647 40.3417C222.138 40.2144 222.52 40.2326 222.793 40.3963C223.066 40.56 223.248 40.7418 223.339 40.9965C223.43 41.2511 223.539 41.5421 223.666 41.9241C223.666 42.1605 223.466 42.4879 223.066 42.888C222.666 43.2882 222.338 43.4882 222.102 43.4882C221.866 43.4882 221.174 43.852 220.083 44.5977C218.992 45.3434 217.791 46.1437 216.5 47.0349C215.209 47.9261 214.354 48.4899 213.936 48.7263C213.008 49.2174 212.462 49.6721 212.281 50.1086C211.844 50.9089 211.517 52.2184 211.262 54.0554C211.026 55.8924 211.044 56.9109 211.353 57.0928C211.48 57.1474 212.481 56.8745 214.39 56.2743C215.918 55.7287 216.937 55.4195 217.428 55.3468C217.919 55.2922 218.446 55.3831 218.992 55.6196C219.719 55.9833 220.01 56.6017 219.81 57.4566C219.501 58.6206 219.065 59.4209 218.483 59.8392C217.901 60.2757 217.373 60.1848 216.882 59.5664C216.573 59.1299 216.209 58.9298 215.773 58.9662C215.336 59.0025 214.663 59.2208 213.754 59.6573C212.953 60.0211 212.171 60.5667 211.408 61.2578C210.644 61.9672 210.134 62.5856 209.898 63.1494C209.28 64.9318 208.916 67.5872 208.788 71.1339L208.607 73.8985L210.262 73.8075C211.371 73.5711 213.19 73.2073 215.736 72.7526C218.283 72.2979 219.974 71.9705 220.829 71.7887C221.011 71.6068 221.793 71.3885 223.175 71.1521C224.557 70.9156 226.14 70.6428 227.959 70.37C229.759 70.0972 231.542 69.8425 233.288 69.5879C235.034 69.3333 236.507 69.115 237.689 68.8968C238.871 68.6785 239.417 68.5512 239.29 68.4784C239.471 68.4784 239.781 68.4057 240.217 68.242C240.636 68.0965 241.017 67.9692 241.327 67.8782C241.636 67.7873 242 67.6964 242.436 67.6054C242.854 67.5145 243.236 67.4781 243.546 67.5145C243.855 67.5509 244.164 67.6236 244.473 67.7509C244.782 67.8783 245.001 68.0965 245.11 68.3875C245.237 68.6967 245.292 69.0968 245.292 69.5879C245.292 70.5701 244.964 71.2066 244.328 71.5158C243.691 71.825 242.764 71.9887 241.563 72.0251C240.363 72.0615 239.526 72.1888 239.035 72.4434C238.362 72.6253 237.216 72.8254 235.597 73.0436C233.979 73.2619 232.524 73.4438 231.232 73.5893C229.941 73.7348 229.213 73.8803 229.032 74.0076C217.464 76.463 207.388 78.4818 198.803 80.0642C198.003 80.246 196.384 80.7735 193.929 81.6283C191.474 82.4832 189.673 82.9742 188.509 83.1016C188.327 82.9742 188.091 82.5923 187.818 81.9557C187.545 81.3191 187.399 80.8099 187.399 80.4461C187.399 80.2097 187.654 79.8277 188.181 79.3367C188.709 78.8456 189.109 78.6091 189.418 78.6091C190.455 78.4273 192.328 77.918 195.02 77.0995L195.002 77.0268ZM197.294 31.2295C197.839 29.5744 198.112 26.7553 198.076 22.7721C198.039 18.789 197.694 16.1335 197.021 14.7876C196.839 14.5512 196.73 13.9692 196.693 13.0416C196.657 12.114 196.621 11.532 196.548 11.2956C196.239 9.89508 196.675 9.18575 197.839 9.18575C198.458 9.13119 198.949 9.18575 199.349 9.33126C199.749 9.47676 200.04 9.80414 200.222 10.2952C200.404 10.7863 200.531 11.1137 200.586 11.3137C200.64 11.4956 200.731 11.9867 200.858 12.787L201.131 13.5145C201.368 12.114 202.023 10.95 203.059 10.077C204.096 9.18576 205.333 8.67649 206.733 8.56736C207.77 8.5128 208.752 8.34911 209.68 8.11267C210.662 7.87622 211.844 7.87622 213.263 8.11267C214.663 8.34911 215.645 8.73106 216.209 9.22213C216.882 9.89508 217.373 10.95 217.682 12.3868C217.992 13.8237 218.01 15.1878 217.773 16.4791C217.591 17.5158 217.191 18.7526 216.573 20.2076C215.954 21.6445 215.463 22.5175 215.1 22.8267C214.79 23.3178 214.554 23.8634 214.372 24.4818C214.19 25.1002 213.936 25.6277 213.59 26.0824C213.244 26.5371 212.626 27.1009 211.699 27.7738C210.898 28.5741 209.88 29.4653 208.625 30.4293C207.37 31.4114 206.551 32.048 206.188 32.3572C203.423 34.7398 201.222 35.9402 199.567 35.9402C197.112 36.0675 196.348 34.5034 197.275 31.2477L197.294 31.2295ZM211.771 22.4084C212.099 21.8628 212.426 21.1534 212.735 20.2986C213.044 19.4438 213.317 18.7344 213.554 18.1888C213.554 17.5158 212.735 17.8432 211.08 19.2073C210.589 19.6984 209.771 20.2622 208.643 20.8988C207.515 21.5354 206.697 22.081 206.206 22.4993C205.715 22.9904 205.096 23.4633 204.314 23.918C203.55 24.3727 202.986 24.6091 202.623 24.6091C201.95 24.6091 201.55 25.7368 201.422 28.0103C201.368 29.4107 201.277 30.2838 201.15 30.5748C201.022 30.9385 201.15 31.1204 201.513 31.1204C201.932 31.0659 202.459 30.8476 203.077 30.4838C203.696 30.1201 204.151 29.5744 204.46 28.8833C204.769 28.174 205.478 27.6101 206.57 27.1918C207.788 26.5734 209.025 25.5913 210.243 24.2454C210.916 23.5724 211.426 22.954 211.753 22.4084H211.771ZM201.713 14.8786C201.659 15.0059 201.622 15.7698 201.622 17.1703V19.3346C201.622 19.5529 201.622 19.7711 201.677 20.0258C201.713 20.2622 201.75 20.4259 201.822 20.4805C201.877 20.535 201.968 20.6078 202.059 20.6623C202.15 20.7169 202.295 20.6987 202.514 20.5714C202.732 20.4441 202.95 20.3168 203.205 20.1531C203.441 20.0076 203.75 19.8075 204.132 19.5529C204.805 19.0072 205.86 18.3343 207.297 17.5704C208.734 16.8065 209.771 16.2063 210.371 15.788C211.408 15.115 212.353 14.8058 213.226 14.8604L214.518 14.9513C214.754 13.66 214.39 12.6233 213.408 11.823C212.426 11.0227 211.226 10.8954 209.825 11.4592C206.77 12.3868 204.987 13.1689 204.496 13.8419C204.314 14.1511 203.987 14.4784 203.532 14.8058C203.077 15.1332 202.714 15.3151 202.477 15.3151C201.986 14.9513 201.75 14.7876 201.75 14.8604L201.713 14.8786Z" fill="white"/>
<path d="M276.521 39.8688C276.302 40.3053 276.175 40.5782 276.102 40.6873C276.048 40.8146 275.957 40.9783 275.866 41.1965C275.775 41.4148 275.757 41.5603 275.811 41.6512C275.866 41.7422 275.92 41.8513 275.957 41.9786C275.993 42.1059 276.12 42.2151 276.375 42.3424C276.612 42.4697 276.83 42.597 277.012 42.7607C277.194 42.9244 277.503 43.1245 277.939 43.3973C278.358 43.6701 278.758 43.9247 279.14 44.1794C281.777 46.0163 286.706 48.6172 293.927 51.982C294.418 52.2184 295.491 52.7459 297.146 53.5462C298.801 54.3464 300.074 54.9466 300.965 55.3286C301.856 55.7287 303.02 56.2198 304.457 56.8018C305.894 57.3838 307.258 57.8567 308.55 58.2205C309.841 58.5842 311.114 58.857 312.405 59.0389C315.097 59.4027 317.189 59.9665 318.644 60.694C319.262 60.9305 319.571 61.367 319.571 61.9854C319.571 62.6038 319.317 63.0948 318.789 63.495C318.262 63.8951 317.644 64.0224 316.898 63.9133C315.425 64.0406 312.333 63.3858 307.622 61.9854C305.058 61.1851 302.566 60.2939 300.183 59.3299C297.801 58.366 294.836 57.0201 291.326 55.3286C287.797 53.6371 285.36 52.4913 284.014 51.8911C283.396 51.6546 281.795 50.7998 279.194 49.3629C276.593 47.9261 274.684 46.9985 273.447 46.562C273.21 46.5074 272.847 46.7075 272.392 47.1622C271.937 47.6169 271.41 48.2171 270.828 48.9446C270.246 49.6721 269.718 50.3815 269.227 51.0544C268.736 51.7274 268.209 52.4549 267.663 53.2188C267.117 53.9827 266.736 54.4919 266.554 54.7284C265.444 56.2562 262.916 59.4391 258.933 64.277C258.878 64.4044 258.733 64.5862 258.515 64.8227C258.296 65.0591 258.169 65.2592 258.096 65.3683C258.042 65.4956 257.914 65.6411 257.732 65.823C257.551 66.0049 257.405 66.1322 257.314 66.1868C257.223 66.2413 257.096 66.3323 256.95 66.4596C256.805 66.5869 256.659 66.6415 256.532 66.6415H256.077C255.895 66.6415 255.732 66.5869 255.568 66.4596C255.423 66.3323 255.241 66.2232 255.059 66.0958C254.331 65.4775 254.113 64.7317 254.422 63.8405C254.731 62.9493 255.15 62.1491 255.714 61.4033C256.277 60.6576 256.732 60.1848 257.096 59.9301C258.569 59.0025 259.951 57.8021 261.279 56.2925C262.589 54.7829 264.226 52.6549 266.19 49.854C268.154 47.0712 269.245 45.5253 269.5 45.2161C271.155 43.0699 272.738 40.2508 274.229 36.7587C275.739 33.2666 276.484 30.2656 276.484 27.7557C276.43 25.5549 276.903 24.3545 277.957 24.1726C278.758 24.0453 279.358 24.6637 279.794 26.0096C279.794 26.1915 279.831 26.3734 279.885 26.5552C280.304 29.8655 279.358 33.9396 277.03 38.7775C276.903 39.014 276.739 39.3596 276.521 39.7961V39.8688Z" fill="white"/>
<path d="M347.781 42.1241C347.599 41.9786 347.454 41.8877 347.363 41.8877C347.272 41.8877 347.035 41.9605 346.672 42.1241C346.308 42.2878 346.035 42.3788 345.853 42.4515C345.18 42.9426 344.434 42.9426 343.652 42.4515C342.852 41.9605 342.379 41.3057 342.234 40.469C342.088 39.6506 342.343 38.8321 343.016 38.0319C343.561 37.3043 344.034 36.8315 344.398 36.6496C346.362 35.9221 348.127 36.2494 349.727 37.6681C351.328 39.0686 351.964 40.6327 351.655 42.3606C351.291 44.434 350.345 46.6893 348.8 49.1083C347.272 51.5273 345.762 53.2552 344.289 54.2919C343.67 54.5283 343.179 54.5829 342.779 54.4374C342.379 54.2919 342.197 53.9463 342.234 53.4189C342.27 52.8914 342.561 52.364 343.107 51.8183C344.089 50.7816 345.089 49.3084 346.09 47.4168C347.09 45.5253 347.672 44.1066 347.781 43.1972C347.963 42.6516 347.963 42.2878 347.781 42.1423V42.1241Z" fill="white"/>
<path d="M373.826 34.9944C372.626 34.8671 372.134 34.2306 372.316 33.0665C372.371 32.3936 372.826 31.9025 373.644 31.5933C374.463 31.2841 375.481 31.0659 376.681 30.9022C377.882 30.7385 378.682 30.5748 379.119 30.3929C379.61 30.211 380.355 29.9746 381.374 29.7018C382.392 29.4289 383.156 29.2107 383.72 29.0652C384.284 28.9197 384.957 28.665 385.794 28.3377C386.63 28.0103 387.467 27.6101 388.322 27.1918C389.54 26.4643 390.468 26.2824 391.086 26.6826C391.705 27.0827 391.905 27.792 391.723 28.8469C391.596 29.3926 391.123 29.8654 390.304 30.2656C389.486 30.6657 388.449 31.0477 387.23 31.4114C386.012 31.7752 385.175 32.0844 384.757 32.339C383.338 32.8846 380.828 33.6304 377.227 34.5397C376.19 34.9763 375.063 35.1218 373.88 34.9944H373.826ZM382.229 65.5866C384.066 64.659 385.557 64.8772 386.685 66.2232C387.812 67.5691 388.049 69.3697 387.376 71.6432C387.012 72.8618 387.012 73.4983 387.376 73.5347C387.74 73.5711 388.485 73.0254 389.577 71.9342C391.05 70.5337 392.087 69.9153 392.705 70.0972C393.505 70.3336 393.523 71.2248 392.796 72.7526C392.068 74.3532 390.832 75.6263 389.122 76.6085C388.685 76.9177 387.758 77.4997 386.321 78.3545C384.884 79.2093 383.575 80.046 382.411 80.8281C381.247 81.6283 380.355 82.3922 379.755 83.1197C379.391 83.8473 378.864 84.211 378.191 84.1747C377.518 84.1383 377.045 83.8473 376.772 83.3016C376.5 82.756 376.518 82.1376 376.827 81.4646C376.954 80.5371 377.063 78.5364 377.154 75.4444C377.245 72.3525 377.354 69.497 377.482 66.8961C377.609 64.2952 377.791 62.7856 378.027 62.3491C378.337 60.7486 378.919 59.53 379.773 58.6752C380.392 58.0022 380.992 58.0568 381.61 58.857C382.101 59.5845 382.065 60.2939 381.519 60.9668C381.392 61.276 381.283 61.858 381.156 62.7129C381.028 63.5677 380.974 64.3134 380.974 64.9682C380.974 65.6229 381.01 65.9685 381.065 66.0231C381.247 66.0231 381.647 65.8776 382.265 65.5684L382.229 65.5866ZM381.956 42.2514C382.938 41.8877 384.048 41.2875 385.303 40.469C386.557 39.6506 387.34 39.1595 387.649 39.0504C388.267 38.6866 388.831 38.6502 389.34 38.9594C389.868 39.2686 390.031 39.7233 389.849 40.3417C389.722 40.9601 389.049 41.7604 387.831 42.7789C386.612 43.7974 385.594 44.3794 384.793 44.5613C384.248 44.7432 383.666 44.9978 383.047 45.2888C382.374 45.598 381.701 45.8526 381.028 46.0709C380.355 46.2892 379.719 46.4347 379.1 46.5256C378.482 46.6165 377.973 46.5256 377.536 46.2892C377.1 46.0527 376.863 45.6708 376.809 45.1797C376.681 44.2521 376.754 43.6337 377.045 43.2882C377.336 42.9426 377.882 42.7789 378.737 42.7789C379.901 42.7789 380.974 42.597 381.956 42.2332V42.2514ZM389.631 17.534C389.231 17.7705 388.576 17.8978 387.649 17.8978C386.303 17.9523 384.593 17.8068 382.556 17.4431C380.501 17.0793 379.228 16.7156 378.737 16.3336C377.209 14.0601 376.954 12.7506 378.009 12.3868C378.427 12.1504 378.809 12.0413 379.119 12.0595C379.428 12.0958 379.937 12.3141 380.683 12.7506C381.792 13.2962 383.029 13.7691 384.411 14.1329C385.794 14.4966 386.812 14.6603 387.485 14.5876C388.285 14.4603 388.94 14.5876 389.468 14.915C389.995 15.2605 390.25 15.7334 390.25 16.3336C390.25 16.8793 390.05 17.2794 389.649 17.534H389.631ZM387.849 50.9817C387.54 51.2908 387.085 51.6182 386.467 51.9456C385.848 52.2912 385.448 52.5094 385.266 52.6368C385.139 52.6913 384.793 52.9096 384.211 53.2733C383.629 53.6371 383.029 54.0008 382.429 54.3828C381.81 54.7466 381.192 55.0921 380.537 55.4013C379.883 55.7105 379.319 55.8378 378.791 55.7651C378.264 55.7105 377.918 55.4195 377.736 54.9466C377.118 53.3461 377.864 52.2184 379.937 51.5455C382.211 50.818 383.757 49.9813 384.63 49.0719C385.121 48.5263 385.885 48.3444 386.921 48.5627C387.958 48.7809 388.485 49.1992 388.485 49.7994C388.358 50.2905 388.14 50.6906 387.849 50.9998V50.9817ZM382.611 69.4424C381.938 69.9881 381.392 70.7338 380.956 71.6432C380.774 72.3161 380.683 73.2983 380.683 74.5896C380.683 75.8809 380.81 76.6085 381.047 76.7903C381.592 77.2814 382.338 76.5539 383.247 74.5896C383.556 73.9167 383.829 73.1891 384.066 72.3889C384.43 71.2794 384.52 70.4609 384.339 69.9153C383.847 69.0605 383.265 68.8968 382.593 69.4606L382.611 69.4424ZM408.474 23.7907C408.256 23.7907 407.837 24.0089 407.237 24.4273C405.528 25.4094 403.818 26.1915 402.145 26.7735C400.453 27.3555 399.344 27.501 398.798 27.1918C398.361 26.9554 398.089 26.7189 397.98 26.5007C397.852 26.2824 397.798 25.8459 397.798 25.173C397.798 24.3727 398.016 23.8271 398.434 23.5179C398.853 23.2087 399.598 23.0632 400.635 23.0632C402.472 23.0632 404.436 22.3538 406.51 20.9534C407.801 20.1531 408.565 19.4438 408.801 18.8436C409.038 18.2252 409.111 16.952 408.983 14.9877C408.801 13.1507 408.929 11.9867 409.402 11.4956C409.874 11.0045 410.584 11.0955 411.566 11.7684C411.802 11.8958 412.002 12.696 412.166 14.2056C412.312 15.7152 412.493 16.5155 412.675 16.6428C413.039 17.1885 412.985 18.9709 412.493 21.9719C412.257 24.0453 411.857 25.2457 411.293 25.5549C410.438 25.9914 409.784 25.7368 409.365 24.8274C409.001 24.1544 408.71 23.8089 408.492 23.8089L408.474 23.7907ZM422.533 28.3922C424.643 27.7193 426.098 27.1736 426.898 26.7371C428.062 25.8095 428.972 25.9369 429.663 27.1009C430.281 28.083 430.19 28.8469 429.39 29.3926C429.081 29.5744 428.754 29.7018 428.372 29.7563C426.844 29.9928 426.134 30.6839 426.262 31.7752C426.207 32.2663 426.444 32.6118 426.989 32.8301C427.535 33.0483 427.844 33.212 427.917 33.3393C428.099 33.6485 428.153 34.085 428.099 34.6671C428.044 35.2491 427.88 35.722 427.644 36.0857C427.208 36.6314 427.098 36.886 427.28 36.8132C427.335 36.8132 427.499 36.7587 427.735 36.6314C428.408 36.1403 428.99 36.1039 429.481 36.4859C429.972 36.886 430.118 37.5044 429.936 38.3774C429.881 38.8139 429.681 39.2141 429.336 39.6142C428.99 40.0143 427.935 41.0328 426.171 42.6879C425.007 43.7247 424.425 44.9614 424.425 46.3619C424.916 46.3073 426.044 45.7071 427.826 44.5795C429.608 43.4518 430.827 42.8516 431.5 42.7971C432.355 42.979 432.755 43.561 432.7 44.5431C432.646 45.5253 432.246 46.1437 431.5 46.3801C426.407 49.8722 423.043 51.5637 421.387 51.4363C420.533 51.6728 419.86 51.3272 419.369 50.3814C418.877 49.4357 419.005 48.69 419.732 48.1261C420.042 47.8169 420.351 47.3441 420.66 46.7075C420.969 46.0709 421.06 45.689 420.933 45.5616C420.805 45.5071 420.496 45.4525 420.005 45.4161C419.514 45.3798 419.059 45.3434 418.623 45.2706C418.186 45.2161 417.95 45.0888 417.895 44.9069C417.659 44.725 417.495 44.6341 417.441 44.6341C417.386 44.6341 417.313 44.7796 417.259 45.0888C416.822 46.9257 416.586 48.89 416.531 50.9635C416.531 52.1821 416.477 52.9641 416.386 53.3097C416.295 53.6553 416.058 54.0918 415.695 54.6374C414.967 56.0379 414.13 56.4198 413.221 55.7469C412.312 55.0739 412.093 54.0009 412.584 52.5276C413.439 50.1996 413.985 47.0531 414.24 43.0699C414.476 39.0867 414.367 35.6856 413.876 32.8665C413.694 31.9389 413.075 32.5209 412.039 34.6125L409.929 38.8321C409.311 40.0507 408.838 40.9965 408.51 41.633C408.165 42.2696 407.619 43.0699 406.855 44.0157C406.091 44.9614 405.364 45.5253 404.691 45.7071C403.709 45.7071 403.218 45.2161 403.218 44.2339C403.218 43.7974 403.545 42.9608 404.182 41.7058C404.818 40.4508 405.382 39.5414 405.873 38.9958C407.164 37.3953 408.438 35.2309 409.693 32.4663C410.948 29.7018 412.039 27.5374 412.948 25.9369C414.785 22.5721 416.349 20.4259 417.641 19.4983C419.241 18.3889 420.187 18.2979 420.496 19.2255C420.733 20.0258 420.278 20.9352 419.114 21.9901C417.768 23.5906 417.004 24.7001 416.822 25.3366C416.64 25.9732 416.913 26.4825 417.641 26.8462C418.059 27.0281 418.314 27.1918 418.368 27.3555C418.423 27.501 418.459 27.8284 418.459 28.3195C418.405 28.9924 418.496 29.338 418.732 29.338C419.15 29.338 420.423 28.9924 422.551 28.3195L422.533 28.3922ZM439.066 81.301C435.047 79.5913 432.064 78.0817 430.118 76.8085C429.754 76.5721 428.681 75.9719 426.898 75.0261C425.116 74.0803 424.079 73.5165 423.77 73.3346C422.788 72.6617 422.024 72.6617 421.478 73.3346C420.005 75.1171 418.987 76.2811 418.405 76.8267C417.823 77.3724 417.186 77.8452 416.513 78.209C415.294 78.8274 414.112 79.0456 412.985 78.9001C411.857 78.7365 411.293 78.2636 411.293 77.4815C411.293 76.754 411.911 76.372 413.13 76.372C413.748 76.372 414.512 76.0083 415.422 75.2626C416.331 74.5169 417.168 73.6438 417.895 72.6071C418.568 71.625 418.896 71.043 418.859 70.8611C418.823 70.6792 418.259 70.2427 417.168 69.5697C416.731 69.2605 416.277 69.0423 415.786 68.8786C415.294 68.7331 414.858 68.4966 414.494 68.1874C413.876 67.6418 413.621 66.9689 413.712 66.205C413.803 65.4411 414.221 64.8772 414.949 64.5135C415.44 64.277 415.676 63.8951 415.676 63.404C415.549 62.5492 415.822 61.8035 416.458 61.2033C417.095 60.6031 417.968 60.0211 419.023 59.5118C420.096 58.9843 420.805 58.5842 421.187 58.275C424.625 55.947 426.735 54.6556 427.535 54.4192C428.153 54.4737 428.644 54.7466 429.045 55.2013C429.445 55.656 429.608 56.2562 429.554 56.9837C429.554 58.0204 428.135 61.4215 425.334 67.1871C424.716 68.3511 424.534 69.0787 424.789 69.3879C428.644 71.9524 432.282 74.0803 435.683 75.7718C439.084 77.4633 443.195 79.2457 448.033 81.1373C448.651 81.4465 450.015 81.8466 452.125 82.3377C454.235 82.8287 455.563 83.2653 456.126 83.629C456.854 84.1201 457.218 84.793 457.181 85.6479C457.145 86.5027 456.818 87.1029 456.163 87.4303C455.508 87.7577 454.671 87.6304 453.635 87.012C453.089 86.7028 451.852 86.2481 449.961 85.6297C448.069 85.0113 446.96 84.7021 446.65 84.7021C445.614 84.1565 443.086 83.0106 439.066 81.301ZM419.732 39.7779C418.132 40.269 417.35 40.9783 417.35 41.8877C417.35 42.9244 417.659 43.0517 418.277 42.2514C418.586 41.8149 419.205 41.5239 420.114 41.3239C420.787 41.2693 421.351 41.051 421.806 40.6873C422.26 40.3235 422.497 39.9416 422.497 39.5414C422.497 39.1413 422.133 39.0685 421.387 39.305C421.26 39.3596 420.714 39.5232 419.732 39.7597V39.7779ZM424.698 60.6395C424.57 60.3303 424.116 60.5485 423.315 61.276C422.952 61.6398 422.097 62.2036 420.751 62.9311C419.405 63.6587 418.568 64.1861 418.277 64.4953L417.55 65.1319C418.223 65.7503 419.023 66.2595 419.932 66.696C420.66 67.1325 421.206 67.2235 421.533 67.0234C421.86 66.8052 422.315 66.114 422.861 64.95C423.534 63.5495 423.988 62.5856 424.243 62.0945C424.661 61.4215 424.825 60.9305 424.698 60.6213V60.6395ZM422.26 32.9938C421.86 32.5027 421.442 32.4481 421.024 32.8119C420.787 32.9938 420.223 33.1757 419.369 33.3575C418.641 33.4848 418.15 33.6667 417.95 33.9032C417.732 34.1396 417.659 34.5398 417.713 35.1036C417.713 35.4673 417.768 35.7038 417.895 35.7947C418.023 35.8857 418.314 35.9402 418.823 35.9402C419.55 35.9948 420.351 35.8493 421.206 35.4855C422.06 35.1218 422.551 34.758 422.679 34.3761C422.806 33.9395 422.679 33.4848 422.26 32.9938ZM433.337 5.93011C433.646 6.27568 433.792 6.65763 433.792 7.07595C433.919 7.3124 433.555 7.78528 432.737 8.45824C431.918 9.13119 430.845 9.93146 429.572 10.8409C428.299 11.7503 427.553 12.3141 427.371 12.496C425.843 13.6054 424.37 14.3329 422.97 14.6967C421.551 15.0605 420.587 14.915 420.023 14.242C419.787 14.0601 419.678 13.0052 419.75 11.0773C419.805 9.14938 419.714 8.00354 419.478 7.63978C419.041 6.23931 418.877 5.3481 418.968 4.98434C419.059 4.62058 419.478 4.18407 420.205 3.693C420.624 3.51112 421.024 3.40199 421.351 3.36561C421.678 3.32924 421.969 3.42018 422.169 3.63843C422.388 3.85669 422.57 4.07494 422.715 4.27501C422.861 4.49327 422.988 4.82065 423.079 5.29354C423.17 5.76642 423.224 6.13018 423.261 6.43938C423.297 6.74857 423.333 7.16689 423.406 7.73072C423.461 8.09448 423.497 8.3673 423.497 8.54918C423.497 9.53133 423.625 10.077 423.861 10.2043C424.407 10.2043 425.753 9.40401 427.862 7.82166C429.972 6.23931 431.464 5.43904 432.318 5.43904C432.682 5.43904 433.028 5.60273 433.337 5.9483V5.93011ZM427.771 19.9894C429.154 20.8806 429.936 21.499 430.118 21.8809C430.354 22.372 430.281 22.9358 429.881 23.5724C429.481 24.209 428.972 24.5364 428.372 24.5364C427.699 24.2999 427.262 24.1181 427.044 24.0271C426.826 23.9362 426.389 23.7543 425.716 23.4815C425.043 23.2087 424.607 22.954 424.388 22.6994C424.17 22.463 423.916 22.1356 423.606 21.7354C423.297 21.3353 423.206 20.917 423.334 20.4987C423.461 20.0621 423.734 19.6074 424.152 19.1164C424.388 18.8072 424.734 18.6617 425.17 18.6617C425.534 18.6617 426.407 19.0982 427.79 19.9894H427.771Z" fill="white"/>
<path d="M479.607 48.4171C484.881 45.9618 488.428 44.5249 490.265 44.1066C490.811 43.9247 491.847 43.5428 493.339 42.9607C494.848 42.3787 496.194 41.9422 497.431 41.633C498.65 41.3238 500.196 41.0874 502.033 40.9055C503.378 40.7236 504.833 40.4144 506.398 39.9779C507.962 39.5414 509.962 39.214 512.418 38.9594C512.909 38.9048 513.345 38.8139 513.709 38.723C514.073 38.632 514.328 38.5775 514.437 38.5411C514.564 38.5047 514.764 38.5047 515.073 38.5411C515.382 38.5775 515.801 38.6866 516.365 38.8685C516.856 39.2322 517.219 39.5232 517.474 39.7415C517.711 39.9597 517.947 40.3599 518.165 40.9419C518.384 41.5239 518.456 42.1787 518.402 42.9244C518.402 44.2157 518.129 45.3797 517.583 46.4165C517.092 47.344 516.365 48.3262 515.419 49.3993C514.473 50.4724 513.746 51.0908 513.254 51.2908C512.763 51.5273 512.309 51.8365 511.872 52.2184C511.508 52.4549 510.781 52.6549 509.708 52.8186C508.635 52.9641 508.016 52.9277 507.816 52.6731C507.507 52.1275 508.016 51.4727 509.326 50.7452C510.635 50.0177 511.89 48.9264 513.054 47.4895C514.218 46.0527 514.8 44.9069 514.8 44.052C514.8 43.4336 514.637 43.0335 514.291 42.8152C513.946 42.597 513.273 42.5242 512.218 42.5788C509.344 42.8152 505.979 43.3063 502.16 44.052C498.34 44.7795 495.43 45.5798 493.484 46.4346C492.557 46.7984 491.302 47.2531 489.665 47.7624C488.046 48.2898 486.609 48.7991 485.391 49.3265C484.172 49.854 482.608 50.5997 480.698 51.5818C479.407 52.2548 478.097 52.9096 476.751 53.5643C475.405 54.2009 474.405 54.6738 473.768 54.9466C473.132 55.2194 472.368 55.6741 471.513 56.2743C470.658 56.8927 469.731 57.6566 468.749 58.566C468.203 59.1844 467.73 59.4936 467.33 59.4936C466.93 59.4936 466.511 59.1844 466.093 58.566C465.911 58.4387 465.784 58.1659 465.729 57.7475C465.675 57.311 465.675 56.7654 465.784 56.0924C465.893 55.4195 465.966 54.8375 466.057 54.3464C466.148 53.8553 466.293 53.2187 466.512 52.4185C466.73 51.6182 466.857 51.1271 466.93 50.9453C467.166 50.4542 467.348 49.4357 467.439 47.9079C467.53 46.3801 467.676 45.016 467.894 43.8156C468.112 42.6152 468.53 41.9968 469.131 41.924C469.44 41.8695 469.785 41.9968 470.185 42.3424C470.586 42.6879 470.913 43.0881 471.149 43.5791C471.513 44.5067 471.368 46.2164 470.695 48.7263C470.076 51.2363 469.894 52.5822 470.149 52.764C471.186 52.3275 474.35 50.8907 479.607 48.4535V48.4171ZM493.939 61.6398C494.43 61.276 494.885 60.8759 495.321 60.4394C496.176 59.5845 496.922 59.0571 497.522 58.8752C498.14 58.6933 498.65 58.8752 499.086 59.3845C499.504 59.9119 499.85 60.4939 500.105 61.1305C500.341 61.7671 500.559 62.6219 500.741 63.6586C500.869 64.5862 500.741 65.4592 500.323 66.3141C499.923 67.1689 499.432 67.7145 498.85 67.9146C498.268 68.1329 497.704 67.9874 497.158 67.4963C496.794 67.1871 496.667 66.8233 496.794 66.3868C497.031 65.6593 497.158 65.0955 497.158 64.7317C497.158 64.368 497.104 64.1315 496.976 64.0406C496.849 63.9496 496.649 63.9678 496.376 64.0951C496.103 64.2224 495.849 64.3498 495.649 64.5135C495.43 64.659 495.139 64.8954 494.776 65.2046C494.594 65.3865 494.448 65.5138 494.357 65.5684C494.266 65.6229 494.157 65.7139 494.03 65.8048C493.903 65.8957 493.812 65.9685 493.757 66.0412C493.266 66.1686 492.939 66.5323 492.793 67.1507C492.648 67.7691 492.557 68.5148 492.52 69.406C492.484 70.2972 492.448 70.9156 492.375 71.2976C492.247 72.2251 492.284 72.7344 492.466 72.8617C492.648 72.9163 493.12 72.8617 493.884 72.6253C494.648 72.407 495.376 72.116 496.049 71.7523C496.976 71.2612 497.777 71.1339 498.486 71.3885C499.195 71.6249 499.45 72.116 499.268 72.8617C499.032 73.7893 498.322 74.4259 497.158 74.7896C496.049 75.1534 494.885 75.699 493.666 76.3902C492.448 77.0995 491.738 77.627 491.556 77.9907C491.247 78.791 491.047 79.7731 490.956 80.9735C490.865 82.1739 490.956 83.1379 491.193 83.8654H492.939C495.267 83.7381 497.722 83.5199 500.341 83.1743C502.942 82.8287 505.743 82.665 508.744 82.665C512.236 82.6105 515.292 82.3922 517.929 82.0284C520.566 81.6647 523.567 81.4101 526.932 81.3009C530.115 81.119 531.915 81.1554 532.352 81.3919C532.77 81.6283 532.988 82.083 532.988 82.7196C532.988 83.3562 532.807 83.8654 532.443 84.2292C532.006 84.6657 531.515 84.9203 530.933 85.0113C530.351 85.1022 529.26 85.084 527.678 84.9567C524.549 84.9021 521.53 85.1022 518.584 85.5569C515.637 86.0116 512.309 86.3026 508.562 86.4299C493.921 86.921 482.862 88.1396 475.405 90.1039C473.696 90.595 472.514 90.5404 471.877 89.9584C471.24 89.3764 471.331 88.4124 472.204 87.0665C472.623 86.5754 473.223 86.2299 473.95 86.0116C474.678 85.7933 476.406 85.5751 479.098 85.3205C483.263 84.884 485.773 84.5566 486.627 84.3019C486.864 83.9382 486.955 83.6108 486.9 83.338C486.846 83.0652 486.7 82.6832 486.482 82.1921C486.264 81.7011 486.154 81.3009 486.154 80.9917C486.1 80.4461 486.009 80.1187 485.918 80.0278C485.827 79.9368 485.5 79.8641 484.954 79.7913C483.535 79.6095 483.063 78.791 483.481 77.3178C483.608 76.7721 483.808 76.3902 484.081 76.1719C484.354 75.9537 484.9 75.79 485.682 75.6627C486.9 75.4262 487.755 74.9715 488.21 74.3349C488.664 73.6984 488.865 72.6435 488.81 71.1702C488.81 70.0062 488.701 69.2423 488.483 68.8786C488.264 68.5148 487.828 68.3329 487.155 68.3329C486.118 68.3329 485.463 67.8782 485.227 66.9506C484.863 66.5141 484.972 65.8412 485.554 64.8772C486.136 63.9314 486.846 62.9311 487.719 61.8944C488.573 60.8577 489.065 60.2029 489.192 59.9665C489.319 59.7846 489.501 59.53 489.737 59.1844C489.974 58.8388 490.21 58.5478 490.429 58.3114C490.647 58.0749 490.792 57.8203 490.883 57.5839C490.974 57.3474 490.938 57.1837 490.792 57.1292C490.647 57.0746 490.32 57.0928 489.828 57.2201C489.337 57.3474 488.61 57.5657 487.628 57.8567C486.1 58.4023 484.972 58.5842 484.281 58.4023C483.572 58.2204 483.354 57.4747 483.59 56.2016C483.772 55.8378 484.408 55.4195 485.482 54.9648C486.555 54.5101 487.573 54.2191 488.555 54.0918C488.974 54.0918 489.61 53.9463 490.447 53.6734C491.283 53.4006 491.975 53.1096 492.557 52.8004C493.139 52.4912 493.939 52.0729 494.939 51.5636C495.94 51.0544 496.576 50.727 496.831 50.5997C498.177 50.2905 498.995 50.5087 499.304 51.2363C499.486 51.8547 499.395 52.473 499.032 53.1278C498.668 53.7826 497.813 54.8011 496.467 56.2016C495.303 57.4202 494.084 58.857 492.793 60.4757C491.502 62.0945 490.865 63.0402 490.865 63.2767C490.865 63.8223 491.902 63.2767 493.993 61.6216L493.939 61.6398ZM494.03 9.73137C496.794 9.54949 498.031 8.9311 497.795 7.89439V6.9668L500.832 6.87586C502.851 6.87586 504.179 6.78492 504.779 6.60305C505.816 6.11197 506.561 6.13016 506.98 6.65761C507.398 7.18506 507.525 7.83983 507.343 8.64009C507.162 9.44036 506.816 10.0224 506.325 10.3861C506.088 10.4407 505.306 10.5316 504.033 10.659C502.615 10.7863 500.523 11.3501 497.74 12.3504C494.957 13.369 493.43 14.1329 493.193 14.6967C492.575 15.8061 491.884 17.6068 491.083 20.1167C490.956 20.5532 491.411 20.5714 492.466 20.2076C494.739 19.5347 495.83 19.1891 495.776 19.1891C496.394 19.0072 496.904 19.08 497.34 19.4255C497.758 19.7711 497.922 20.2076 497.795 20.7533C497.613 21.4808 497.195 22.1355 496.558 22.6812C495.921 23.2268 495.248 23.4815 494.575 23.4087C494.084 23.3541 492.957 23.7543 491.174 24.6091C489.465 25.4639 487.246 26.3552 484.554 27.2645C481.862 28.1921 480.043 28.6468 479.134 28.6468C478.406 28.6468 478.024 28.1921 478.024 27.2645C478.024 25.7368 480.098 24.5 484.263 23.5906C484.754 23.4633 485.136 23.245 485.409 22.8994C485.682 22.5539 486.5 21.408 487.846 19.4619C488.264 18.789 488.628 18.0614 488.901 17.2612C489.174 16.4609 489.283 15.9698 489.228 15.788C489.101 15.6061 488.61 15.6425 487.755 15.8789C486.9 16.1153 485.991 16.3882 485.045 16.661C484.099 16.9338 483.535 17.0429 483.354 16.9884C482.626 17.1157 480.298 17.7159 476.369 18.8253C474.66 19.3164 473.641 19.4619 473.332 19.28C472.841 19.0436 472.532 18.4616 472.404 17.5886C472.277 16.6974 472.441 16.0426 472.859 15.6061C473.277 15.2969 474.114 15.115 475.333 15.0604C476.551 15.0059 477.442 14.8422 477.988 14.6057C485.391 13.0052 489.446 11.8775 490.119 11.2046C490.301 11.0227 490.41 10.7681 490.447 10.4225C490.483 10.0769 490.447 9.2403 490.301 7.89439C489.992 4.89338 489.847 3.09277 489.847 2.47438C489.847 1.85599 490.029 1.40129 490.392 1.0921C491.12 0.291829 491.902 0.200889 492.684 0.819279C493.175 1.25579 493.539 3.32922 493.793 7.05774L493.975 9.71318L494.03 9.73137ZM485.172 28.7014C485.991 29.047 486.445 29.7563 486.5 30.8658C486.555 31.2295 486.627 31.5023 486.682 31.6842C486.736 31.8661 486.827 31.9389 486.955 31.9207C487.082 31.8843 487.191 31.8297 487.319 31.7388C487.446 31.6478 487.646 31.5023 487.919 31.3205C488.192 31.1386 488.446 30.9749 488.701 30.8658C488.937 30.8112 489.392 30.5566 490.029 30.1382C490.665 29.7199 491.247 29.338 491.775 29.0288C492.302 28.7196 492.939 28.3922 493.702 28.0648C494.466 27.7192 495.085 27.5737 495.539 27.6101C495.994 27.6465 496.467 27.8102 496.958 28.1194C497.376 28.4831 497.504 29.1379 497.322 30.1019C497.14 31.0658 496.703 31.9934 496.031 32.9028L495.485 33.7213C496.285 34.2669 496.776 34.7398 496.958 35.1036C497.013 35.9038 496.885 36.5222 496.54 36.9951C496.194 37.4498 495.521 37.9954 494.521 38.5956C493.521 39.1958 492.848 39.6324 492.538 39.887C489.356 42.1605 487.173 43.1972 486.009 43.0153C485.645 42.9607 485.336 42.7971 485.081 42.5606C484.845 42.3242 484.59 42.015 484.354 41.633C484.117 41.2693 483.899 40.9964 483.717 40.8146C483.281 40.3235 483.081 39.6142 483.081 38.7048C483.208 35.7038 483.117 33.8668 482.808 33.1938C482.262 31.8479 482.353 30.6293 483.081 29.5199C483.626 28.665 484.318 28.4104 485.154 28.7378L485.172 28.7014ZM490.083 33.4303C489.647 33.6121 489.065 34.1396 488.301 34.9944C487.537 35.8493 487.118 36.4677 487.064 36.8314C486.937 37.377 487.009 37.6499 487.246 37.6499C487.428 37.6499 488.119 36.9951 489.319 35.6674C490.52 34.3397 491.102 33.594 491.102 33.4121C491.102 33.1756 490.756 33.1756 490.083 33.4121V33.4303Z" fill="white"/>
<path d="M547.594 51.1635C547.284 51.4727 546.793 51.8365 546.12 52.273C544.229 53.4916 542.847 53.8008 541.992 53.2006C541.683 52.9641 541.501 52.4549 541.446 51.691C541.392 50.9271 541.501 50.2541 541.81 49.6721C542.119 49.0901 542.574 48.9264 543.192 49.1629C543.811 49.2902 544.374 49.2356 544.884 49.0174C545.411 48.7991 545.993 48.4535 546.63 47.9625C547.266 47.4714 547.739 47.1622 548.048 47.0349C548.412 46.853 549.14 46.3074 550.213 45.4343C551.286 44.5431 551.977 44.0339 552.286 43.9247C554.123 42.8153 555.233 42.6698 555.596 43.47C556.142 44.4522 555.96 45.1615 555.051 45.5798C554.614 45.7072 553.632 46.4529 552.104 47.8352C550.576 49.2174 549.558 49.9995 549.067 50.1814C548.394 50.5452 547.903 50.8907 547.594 51.1999V51.1635ZM556.688 56.7291C557.051 56.5108 557.542 56.6563 558.161 57.1474C558.525 57.693 558.47 58.9298 557.979 60.8759C557.488 62.8038 556.96 64.3134 556.415 65.4229C555.978 66.2232 555.505 67.1326 554.996 68.1875C554.469 69.2242 554.178 69.8244 554.123 69.9699C554.069 70.1154 553.723 70.5883 553.105 71.3522C552.486 72.1161 551.922 72.7708 551.413 73.3346C550.886 73.8803 549.922 74.9534 548.521 76.5539C547.666 77.4815 547.012 77.9908 546.593 78.1181C545.92 78.3 545.32 78.0817 544.811 77.4815C544.283 76.8631 544.083 76.172 544.211 75.3717C544.265 74.9352 544.374 74.6624 544.538 74.5532C544.684 74.4259 545.047 74.3168 545.593 74.1895C546.084 73.953 546.648 73.3892 547.284 72.5344C547.921 71.6795 548.467 71.0612 548.885 70.6974C549.867 69.6607 551.195 67.6782 552.886 64.7681C554.578 61.8581 555.633 59.6755 556.051 58.2023C556.106 57.4748 556.324 56.9837 556.688 56.7836V56.7291ZM548.321 21.4081C548.558 21.5354 549.194 21.9355 550.213 22.6085C551.231 23.2814 551.886 23.6816 552.195 23.8089C554.159 24.6091 555.324 25.173 555.724 25.5004C556.124 25.8459 556.324 26.3734 556.324 27.1009C556.378 27.8284 556.106 28.2649 555.505 28.3922C554.887 28.5196 554.069 28.3377 553.032 27.8466C551.559 27.0463 549.631 26.4098 547.248 25.9187C546.266 25.6822 545.684 25.3912 545.502 25.1002C545.32 24.8092 545.466 24.3909 545.957 23.8998C546.884 22.4993 547.666 21.6627 548.339 21.4263L548.321 21.4081ZM567.619 39.7779C568.164 39.1595 568.637 39.1777 569.037 39.8325C569.437 40.469 569.819 41.4694 570.183 42.8153C570.31 43.4337 570.31 44.9069 570.183 47.2713C570.056 49.6358 569.91 51.018 569.728 51.4546C569.492 52.0729 569.001 52.4003 568.255 52.4731C567.509 52.5458 567.055 52.2912 566.873 51.7456C566.564 48.7445 566.818 44.7614 567.6 39.7961L567.619 39.7779ZM574.239 31.7934C574.73 31.4842 575.13 31.1386 575.439 30.7385C575.749 30.3383 576.203 29.9564 576.822 29.5926C577.44 29.2289 577.931 29.047 578.295 29.047C578.786 29.047 579.15 29.3744 579.404 30.011C579.641 30.6475 579.623 31.2477 579.313 31.7934C579.004 32.2845 578.731 32.6482 578.495 32.9028C578.259 33.1393 577.913 33.4121 577.476 33.6849C577.04 33.9577 576.767 34.1578 576.658 34.2851C575.858 35.14 574.766 35.6856 573.402 35.8857C572.038 36.0857 570.911 35.722 570.056 34.7398C569.565 34.1942 569.346 33.6304 569.419 33.0484C569.474 32.4663 569.838 31.3569 570.529 29.7018C571.256 28.1012 571.565 27.2464 571.456 27.1373C571.329 27.0827 570.82 27.1736 569.892 27.4101C568.673 27.9557 567.782 27.8648 567.237 27.1373C566.691 26.4098 566.746 25.5731 567.418 24.6637C569.874 21.0443 571.22 18.3889 571.456 16.6792C571.584 15.5697 571.729 14.9332 571.911 14.7513C572.093 14.5694 572.62 14.3875 573.475 14.2056C573.784 14.2602 573.966 14.3693 574.021 14.533C574.075 14.6785 574.112 15.1696 574.112 15.9517C574.239 16.5701 574.184 17.2612 573.966 18.0251C573.748 18.789 573.402 19.7166 572.911 20.7897C572.42 21.8628 572.111 22.5539 571.984 22.8631C572.111 22.9177 572.529 22.8267 573.275 22.5903C575.421 21.8628 576.676 22.2265 577.04 23.6997C577.222 24.5 576.767 25.4458 575.658 26.5553C575.221 26.9918 574.639 27.8648 573.875 29.2107C573.111 30.5566 572.729 31.4114 572.729 31.7752C572.729 32.3208 573.257 32.3572 574.294 31.8661L574.239 31.7934ZM572.166 44.5613C572.075 43.2154 572.02 41.9786 572.02 40.8328C572.02 39.687 572.166 39.1595 572.475 39.2323C573.093 38.7957 573.53 38.723 573.802 38.9958C574.075 39.2686 574.403 40.1053 574.766 41.5239C575.312 45.2525 575.494 47.4714 575.312 48.1443C575.003 49.1811 574.184 49.3993 572.838 48.7809C572.402 48.4717 572.202 47.8533 572.202 46.9439C572.256 46.7075 572.256 45.9072 572.147 44.5613H572.166ZM578.04 38.5047C578.677 38.7412 579.241 39.1231 579.732 39.6142C580.587 40.5418 580.932 42.306 580.75 44.9433C580.696 46.4711 580.568 47.5078 580.386 48.017C580.205 48.5263 579.859 48.8537 579.368 48.981C578.822 49.3447 578.313 49.1265 577.858 48.3444C577.404 47.5623 577.313 46.8348 577.622 46.2346C577.931 45.7435 577.967 44.8341 577.767 43.47C577.549 42.1241 577.331 41.2329 577.076 40.8146C576.84 40.4508 576.676 39.9961 576.622 39.4869C576.567 38.9594 576.622 38.6502 576.803 38.5229C576.985 38.2865 577.404 38.2865 578.04 38.5229V38.5047ZM590.535 15.2605C589.771 15.7516 588.771 16.1881 587.553 16.5883C586.334 16.9884 585.534 17.334 585.17 17.6432C584.188 18.2616 583.187 18.5344 582.187 18.4616C581.187 18.3889 580.368 18.0069 579.75 17.2612C579.514 16.7701 579.532 16.37 579.841 16.0608C580.15 15.7516 580.878 15.3879 582.042 14.9513C582.278 14.8968 584.697 13.8419 589.299 11.823C589.917 11.5866 590.444 11.623 590.899 11.9685C591.354 12.3141 591.59 12.7506 591.59 13.2962C591.645 14.0965 591.299 14.7331 590.535 15.2242V15.2605ZM592.427 3.22012C592.372 3.76576 592.045 4.18409 591.463 4.4569C590.881 4.72972 589.699 5.02073 587.935 5.32993C586.098 5.63912 584.824 5.76644 584.115 5.69368C583.406 5.63912 582.787 5.3663 582.223 4.87523C580.932 3.65664 581.405 2.76543 583.606 2.21979C584.333 2.03791 585.352 1.85603 586.643 1.67415C590.681 1.12851 592.609 1.63777 592.427 3.23831V3.22012ZM589.535 21.7718C589.189 22.081 588.717 22.4084 588.062 22.7358C587.407 23.0632 586.916 23.3906 586.552 23.6997C585.625 24.2454 584.824 24.6273 584.115 24.8456C583.406 25.0638 582.842 25.082 582.424 24.9002C581.987 24.7183 581.787 24.3727 581.787 23.8816C581.787 23.3906 582.096 23.0268 582.715 22.7722C583.078 22.5903 583.824 22.0083 584.97 21.0261C586.098 20.044 586.88 19.4983 587.316 19.371C588.044 19.1346 588.735 19.1164 589.39 19.3165C590.044 19.5165 590.353 19.8803 590.353 20.3714C590.172 20.9897 589.917 21.4444 589.571 21.7536L589.535 21.7718ZM583.297 40.7964C583.624 39.8688 583.86 38.8685 583.988 37.759C584.533 34.5216 585.152 32.5755 585.825 31.9753C586.316 31.6115 587.043 31.4842 588.025 31.6115L587.935 33.2666C587.88 34.1942 587.935 34.7035 588.08 34.8308C588.226 34.9581 588.644 34.7762 589.317 34.2851C590.663 33.3575 591.845 33.4667 592.845 34.6125C593.846 35.7584 594.027 37.1952 593.354 38.9776C592.991 39.9052 592.772 40.4872 592.718 40.7237C592.591 41.2147 591.954 42.0332 590.79 43.1972C589.626 44.3613 588.771 45.0706 588.225 45.307C587.68 45.5435 586.789 45.6162 585.57 45.4889C583.679 45.307 582.715 44.7796 582.715 43.9247C582.769 42.7607 582.969 41.724 583.315 40.7964H583.297ZM586.971 27.792C586.625 27.8284 586.352 27.883 586.152 27.9739C585.934 28.0649 585.716 28.2104 585.461 28.3922C584.115 29.5017 583.442 29.4108 583.442 28.1194C583.442 27.9921 583.478 27.883 583.533 27.7557C583.588 27.6283 583.715 27.5192 583.897 27.3919C584.079 27.2646 584.261 27.1555 584.442 27.0645L585.079 26.7371C585.315 26.6098 585.534 26.5007 585.716 26.4098C585.897 26.3188 586.079 26.2461 586.261 26.1733C586.443 26.1006 586.57 26.0824 586.625 26.0824C587.043 25.7732 587.407 25.7368 587.68 25.9369C587.953 26.1369 588.08 26.4461 588.044 26.8099C588.007 27.1736 587.898 27.4465 587.716 27.6283C587.534 27.6829 587.28 27.7375 586.934 27.7738L586.971 27.792ZM602.212 63.3495C602.539 63.4404 602.994 63.6405 603.54 63.9497C604.085 64.3862 604.667 64.9864 605.286 65.7867C605.904 66.5869 606.213 67.1871 606.213 67.6236C606.268 67.9328 606.377 68.3511 606.541 68.8604C606.686 69.3879 606.777 69.7516 606.814 69.9699C606.85 70.1881 606.868 70.4973 606.905 70.8975C606.941 71.2976 606.905 71.6977 606.85 72.0979C606.795 72.498 606.686 73.0255 606.523 73.662C606.377 74.2986 606.177 75.0807 605.922 76.0083C605.74 76.6812 605.54 77.2814 605.322 77.7907C605.104 78.3181 604.977 78.7001 604.904 78.9365C604.667 79.7914 603.631 81.1918 601.83 83.1198C600.029 85.0477 598.574 86.2845 597.465 86.8483C596.483 87.3394 595.046 87.6122 593.154 87.6667C591.936 87.7941 590.899 87.8123 590.081 87.7213C589.262 87.6304 588.571 87.3576 588.007 86.9029C587.443 86.4482 587.061 86.0844 586.807 85.7934C586.57 85.5206 586.207 84.9022 585.752 83.9564C585.297 83.0106 584.97 82.3559 584.788 81.9739C584.06 80.628 584.079 79.7368 584.879 79.3185C585.552 78.882 586.17 79.2821 586.716 80.5189C587.08 81.1373 587.371 81.5192 587.589 81.6647C587.807 81.8102 588.098 81.9012 588.462 81.9012C589.808 81.9012 590.663 82.2467 591.026 82.9197C591.208 83.2289 591.663 83.4471 592.354 83.6108C593.064 83.7563 593.718 83.8109 594.337 83.7563C595.319 83.629 596.646 82.8106 598.338 81.2828C600.029 79.755 601.012 78.5 601.321 77.5179C603.103 73.8985 603.685 71.2067 603.067 69.4424C602.758 68.333 602.376 67.6418 601.921 67.3326C601.466 67.0234 600.411 66.8052 598.756 66.696C597.72 66.6415 596.992 66.5869 596.592 66.5505C596.192 66.5142 595.774 66.405 595.301 66.1868C594.828 65.9685 594.573 65.6775 594.482 65.3138C594.391 64.95 594.337 64.3862 594.337 63.6587C594.391 63.113 594.755 62.0399 595.446 60.4394C596.119 58.8389 596.737 57.5657 597.283 56.5836C597.701 55.856 597.811 55.4559 597.556 55.3831C597.374 55.3286 596.919 55.3831 596.174 55.5287C595.428 55.6742 594.973 55.6014 594.791 55.2922C594.064 54.8557 593.827 54.2919 594.1 53.6007C594.373 52.9096 595.064 52.3639 596.174 52.0002C598.32 51.2727 599.702 50.8907 600.302 50.8907C601.23 50.6543 601.885 50.9999 602.285 51.9456C602.685 52.8914 602.576 53.6371 601.957 54.2009C601.339 54.7466 600.448 56.2562 599.247 58.7115C598.047 61.1669 597.556 62.6038 597.738 63.0221C597.792 63.204 598.593 63.2949 600.12 63.2949C601.157 63.2949 601.848 63.3495 602.194 63.4404L602.212 63.3495ZM589.353 40.1962C590.244 38.8139 590.59 37.8863 590.408 37.3953C590.172 36.6678 589.371 37.4316 588.025 39.687C587.043 41.3966 586.807 42.2515 587.298 42.2515C587.789 42.2515 588.48 41.5603 589.371 40.178L589.353 40.1962ZM603.54 15.206C604.831 12.7324 605.922 10.7499 606.85 9.27671C607.086 9.04027 607.396 8.27637 607.778 7.0214C608.141 5.76644 608.396 5.03892 608.505 4.85704C608.687 4.6206 609.033 4.52966 609.524 4.6206C610.015 4.71154 610.342 4.94798 610.542 5.31174C610.597 6.11201 610.669 6.69402 610.724 7.05778C610.779 7.42154 610.724 7.9308 610.488 8.56738C610.269 9.20396 610.087 9.67684 609.942 9.94966C609.796 10.2225 609.542 10.6772 609.214 11.3319C608.869 11.9685 608.614 12.4778 608.432 12.8415C607.577 14.624 606.995 15.6607 606.686 15.9699C606.377 16.4609 606.25 16.8429 606.323 17.1157C606.377 17.3885 606.577 17.4795 606.923 17.3885C607.25 17.2976 607.577 17.0611 607.887 16.6974C608.869 15.7152 609.833 15.1878 610.779 15.0969C611.724 15.0059 612.543 15.4788 613.216 16.5155C613.398 16.8247 613.288 17.243 612.888 17.7523C612.488 18.2797 611.979 18.8072 611.379 19.3528C610.76 19.8985 610.36 20.2986 610.178 20.5532C610.124 20.917 609.869 21.2808 609.451 21.6627C608.905 22.2083 608.742 22.5903 608.996 22.7722C609.051 22.8267 609.178 22.8085 609.36 22.6812C609.669 22.5539 610.251 22.1538 611.106 21.4808C612.397 20.4987 613.379 20.3168 614.052 20.9352C614.853 21.5536 614.725 22.3175 613.689 23.2269C612.706 24.209 611.979 24.9183 611.488 25.3912C610.997 25.8459 610.178 26.4098 609.051 27.0827C607.923 27.7557 606.959 28.0285 606.159 27.9012C605.122 27.7738 604.504 27.2646 604.322 26.337C604.14 25.4094 604.449 24.3727 605.249 23.2087C605.795 22.3538 606.05 21.8264 605.977 21.6445C605.922 21.4626 605.449 21.4263 604.595 21.5536C603.794 21.79 603.121 21.6991 602.576 21.2808C602.03 20.8624 601.685 20.335 601.557 19.7166C601.612 19.171 602.285 17.6432 603.576 15.1696L603.54 15.206ZM604.686 29.6836C605.013 29.4471 605.468 29.629 606.013 30.2292C606.868 30.8476 607.323 32.2299 607.396 34.4124C607.45 36.595 607.177 38.341 606.577 39.687C606.523 39.8143 606.377 40.5054 606.159 41.7968C605.941 43.0881 605.686 43.7611 605.377 43.8156C604.649 44.3613 603.994 44.4886 603.449 44.1794C602.903 43.8702 602.594 43.3609 602.521 42.6152C602.467 41.8877 602.576 41.1056 602.885 40.3235C603.121 39.596 603.412 38.1592 603.758 36.0494C604.085 33.9396 604.267 32.3208 604.267 31.2296C604.213 30.4293 604.34 29.92 604.686 29.6654V29.6836ZM611.997 33.6304C612.234 34.3033 612.306 35.2491 612.179 36.4859C612.052 38.0137 611.924 39.0686 611.761 39.6506C611.615 40.2326 611.288 40.6509 610.797 40.8874C609.996 41.3784 609.378 41.3239 608.905 40.7419C608.432 40.1598 608.341 39.4141 608.578 38.4865C608.705 38.1228 608.814 37.2498 608.905 35.8675C608.996 34.4852 609.123 33.2484 609.269 32.139C609.414 31.0295 609.596 30.5202 609.778 30.5748C610.197 30.211 610.597 30.1747 610.979 30.4839C611.361 30.793 611.524 31.3023 611.524 32.048C611.579 32.4118 611.742 32.9392 611.979 33.6122L611.997 33.6304ZM616.635 28.0649C617.035 28.0285 617.363 28.1194 617.599 28.3013C618.017 28.5377 618.254 29.6108 618.29 31.466C618.327 33.3394 618.145 35.5219 617.781 38.0318C617.726 38.4684 617.235 39.2868 616.308 40.5054C615.38 41.724 614.707 42.4697 614.289 42.7061C613.252 43.0153 612.616 42.9608 612.397 42.5606C612.179 42.1605 612.506 41.5421 613.361 40.6691C614.089 39.687 614.653 37.0497 615.016 32.7755C615.198 30.2656 615.435 28.756 615.744 28.2649C615.926 28.1376 616.217 28.0649 616.617 28.0285L616.635 28.0649Z" fill="white"/>
<path d="M646.027 66.787C645.572 67.278 645.099 67.4599 644.608 67.3326C644.372 67.4599 643.826 67.2417 643.008 66.696C642.189 66.1504 641.48 65.4774 640.898 64.7135C640.316 63.9497 640.17 63.404 640.479 63.113C640.661 62.1309 641.171 61.5125 641.989 61.276C642.807 61.0396 643.717 61.276 644.699 62.0035C645.245 62.4401 645.736 62.9857 646.172 63.6586C646.591 64.3316 646.809 64.8772 646.809 65.3138C646.754 65.8048 646.481 66.2959 646.027 66.787ZM642.116 47.5805C641.753 46.9075 641.553 46.0527 641.516 45.016C641.48 43.9793 641.516 42.979 641.662 42.0332C641.789 41.0874 641.934 40.1234 642.116 39.1413C642.844 33.5758 643.444 29.7563 643.899 27.7011C644.353 25.6458 644.863 24.4454 645.408 24.0635C646.572 23.336 647.573 23.5179 648.446 24.6091C649.301 25.7186 649.61 26.9736 649.373 28.374C649.192 29.3016 649.046 30.3565 648.955 31.5933C648.864 32.8301 648.719 33.9395 648.537 34.9399C648.355 35.9402 648.046 37.1042 647.609 38.3774C646.682 41.1965 646.136 43.3427 645.954 44.8159C645.645 47.3804 644.917 48.6718 643.753 48.6718C643.026 48.6172 642.462 48.2353 642.098 47.5623L642.116 47.5805Z" fill="white"/>
<path d="M118.467 44.3612C120.322 44.0702 121.886 44.5795 123.16 45.9072C124.287 47.3804 124.833 49.0901 124.815 51.0544C124.778 53.0187 124.16 54.8011 122.978 56.4016C122.578 56.9291 122.177 57.7112 121.777 58.7479C121.377 59.7846 120.941 60.5667 120.486 61.0941C120.286 61.2942 119.94 61.7307 119.431 62.3855C118.94 63.0584 118.467 63.6404 118.031 64.1315C117.594 64.6226 117.212 64.9863 116.885 65.1864C116.412 65.4592 115.739 65.6229 114.848 65.6775C113.956 65.7502 113.193 65.6411 112.611 65.3865C111.41 64.859 111.01 63.8223 111.41 62.2945C111.483 60.6394 111.537 59.4208 111.61 58.6569C111.683 57.893 111.61 56.6744 111.41 55.0193C111.21 53.3642 111.046 52.1456 110.919 51.3818C110.792 50.6179 110.574 49.4538 110.264 47.8897C109.973 46.3255 109.773 45.2524 109.719 44.6522C109.591 43.7792 109.646 43.1244 109.919 42.6515C110.192 42.1787 110.719 42.0513 111.519 42.2514C112.174 42.3242 112.683 42.5424 113.011 42.9426C113.338 43.3427 113.611 44.0338 113.811 45.0342C114.011 46.1073 114.175 46.6347 114.302 46.6347C115.23 45.4343 116.63 44.6886 118.485 44.3976L118.467 44.3612ZM120.904 50.6906C120.941 50.3632 120.868 50.0358 120.704 49.7448C120.541 49.4538 120.413 49.2538 120.359 49.1446C120.286 49.0537 120.086 48.8718 119.758 48.599C119.358 48.2716 118.867 48.308 118.303 48.6899C117.74 49.0901 117.248 49.7267 116.848 50.5815C116.448 51.5091 116.175 52.6185 116.048 53.9281C115.921 55.2194 115.957 56.3471 116.139 57.2746C116.339 58.2022 116.666 58.6024 117.139 58.4751C118.14 58.3477 119.267 56.147 120.541 51.891C120.741 51.4181 120.85 51.018 120.886 50.6906H120.904ZM138.674 23.3905C140.274 22.3902 141.402 21.8991 142.075 21.8991C142.275 21.8991 142.475 22.0992 142.675 22.4993C142.875 22.8994 142.966 23.3359 142.966 23.7906C142.966 24.4636 142.784 24.9729 142.421 25.3366C142.057 25.7004 141.202 26.1915 139.874 26.7917L137.874 27.792V29.3925C137.874 32.048 138.437 33.8122 139.565 34.6852C139.965 35.0126 140.183 35.2672 140.22 35.4309C140.256 35.5946 140.22 35.8856 140.074 36.2858C139.147 38.6138 138.019 39.014 136.673 37.4862C135.746 36.4858 135.182 35.2672 134.982 33.794C134.854 33.1211 134.709 32.4481 134.582 31.757C134.454 31.0658 134.291 30.4838 134.091 30.0109C133.963 29.8109 133.763 29.7381 133.49 29.7563C133.218 29.7927 132.454 30.0109 131.199 30.4111C130.071 30.7384 128.561 31.1022 126.652 31.5023C124.742 31.9025 123.505 32.1025 122.905 32.1025C122.177 32.1753 121.795 31.5569 121.759 30.2655C121.723 28.9742 121.868 28.1194 122.214 27.7192C122.287 27.5919 123.014 27.4828 124.415 27.4282C125.815 27.3555 127.197 27.3191 128.561 27.2827C129.925 27.2464 130.598 27.1372 130.598 26.9372C131.453 26.537 132.017 26.1733 132.254 25.8459C132.49 25.5185 132.599 24.9729 132.599 24.2453C132.599 24.118 132.635 23.9543 132.69 23.7543C132.69 23.1541 132.726 22.6994 132.781 22.4084C132.854 22.1174 132.908 21.7172 132.981 21.208C133.054 20.7169 133.145 20.3349 133.272 20.1167C133.399 19.8802 133.563 19.662 133.763 19.4619C133.963 19.2618 134.236 19.1891 134.563 19.2618C134.891 19.3346 135.218 19.4619 135.564 19.662C135.891 19.9348 136.055 20.4986 136.055 21.3535C136.182 23.9543 137.055 24.6455 138.656 23.4451L138.674 23.3905ZM156.48 76.6266C155.989 76.2629 155.425 75.8082 154.825 75.2807C154.225 74.7533 153.788 74.4077 153.533 74.2804C152.66 74.5532 151.496 74.9533 150.041 75.4808C148.586 76.0082 147.004 76.5902 145.294 77.2268C143.603 77.8634 142.457 78.2817 141.857 78.4818C141.057 78.8819 140.256 78.9365 139.456 78.6273C138.656 78.3181 138.165 77.8816 137.965 77.2814C137.764 76.8085 137.255 76.4265 136.419 76.1355C135.582 75.8445 135.164 75.3171 135.164 74.5896C135.036 74.1167 134.927 73.7347 134.873 73.4437C134.8 73.1527 134.763 72.7708 134.727 72.3525C134.691 71.9159 134.654 71.6067 134.636 71.4067C134.6 71.2066 134.636 70.7883 134.691 70.1517C134.763 69.5151 134.8 69.0422 134.836 68.6967C134.873 68.3693 134.927 67.66 135.036 66.6051C135.127 65.5502 135.218 64.6771 135.291 64.0042C135.291 63.404 135.291 62.5855 135.346 61.567C135.382 60.5303 135.4 59.8573 135.4 59.53C135.4 59.2026 135.455 58.5842 135.546 57.693C135.637 56.8018 135.8 55.856 136 54.8557C136.2 53.8553 136.437 52.4912 136.691 50.7634C137.492 46.7802 138.328 44.5067 139.183 43.9793C139.711 43.6519 140.293 43.7064 140.929 44.1248C141.566 44.5613 141.948 45.1797 142.075 45.9617C142.148 46.562 142.239 46.8893 142.366 46.9621C142.493 47.0348 142.839 46.9257 143.366 46.6711C143.894 46.3983 144.421 46.2346 144.967 46.18C145.822 45.9799 146.968 45.6889 148.368 45.2888C149.769 44.8887 150.805 44.6158 151.515 44.4885C152.206 44.3612 153.042 44.2339 154.006 44.143C154.97 44.052 155.843 44.0702 156.644 44.2339C157.444 44.3976 158.244 44.725 159.044 45.1797C160.645 45.9072 161.718 46.9075 162.282 48.1807C162.846 49.4538 163.228 51.9456 163.428 55.6559C163.555 57.9112 163.628 59.3481 163.628 59.9483C163.628 60.5485 163.5 61.5488 163.228 62.9493C162.955 64.3498 162.755 65.4774 162.627 66.3504C162.555 67.4235 162.536 68.1147 162.573 68.442C162.609 68.7694 162.755 69.2787 163.028 69.9335C163.555 70.4609 163.773 71.0065 163.682 71.5886C163.591 72.1524 163.409 72.6071 163.191 72.9345C162.955 73.2618 162.627 73.6438 162.191 74.0803C161.754 74.5168 161.482 74.8624 161.336 75.1352C161.009 75.6627 160.463 76.1174 159.736 76.4811C159.008 76.8449 158.335 77.0268 157.735 77.0268C157.407 77.1541 156.989 77.0268 156.48 76.6812V76.6266ZM146.058 62.4036C145.858 62.4764 145.349 62.6037 144.512 62.8038C143.676 63.0039 143.057 63.1675 142.621 63.2949C142.184 63.4222 141.693 63.6222 141.129 63.8951C140.565 64.1679 140.147 64.4225 139.874 64.6953C139.802 65.0227 139.638 66.5869 139.383 69.3878C139.256 71.8432 139.256 73.2619 139.383 73.6256C139.511 73.9894 140.147 74.0439 141.275 73.7711C142.275 73.4983 142.966 73.08 143.366 72.4798C145.694 67.2235 146.586 63.8587 146.058 62.4036ZM141.766 52.0183C141.238 52.8186 140.82 54.0918 140.511 55.856C140.22 57.6202 140.256 58.6933 140.656 59.0934C140.984 59.4936 141.948 59.5118 143.548 59.148C145.149 58.7842 146.113 58.3296 146.44 57.8021C146.567 57.5293 146.658 56.2379 146.695 53.9099C146.731 51.5818 146.695 50.3087 146.549 50.1268C145.549 49.3265 143.948 49.9631 141.766 52.0183ZM153.388 53.9099C154.679 52.7822 155.661 52.2184 156.334 52.2184C156.735 52.2184 157.08 52.3821 157.389 52.7095C157.68 53.0369 157.844 53.4006 157.844 53.8008C157.844 54.2736 157.171 55.1467 155.843 56.438C154.516 57.7293 153.315 58.5842 152.242 58.9843C151.369 59.3117 150.732 60.0028 150.296 61.0214C149.859 62.0581 149.514 63.3676 149.241 64.9681C148.968 66.5687 148.714 67.7327 148.441 68.4602C148.168 69.1332 147.986 69.6243 147.895 69.9516C147.804 70.279 147.731 70.5882 147.695 70.8429C147.659 71.1157 147.695 71.2612 147.75 71.2976C147.822 71.3339 147.986 71.3521 148.241 71.3521C148.495 71.3521 148.786 71.2976 149.096 71.2066C149.405 71.1157 149.841 71.0065 150.441 70.9156C151.042 70.8247 151.606 70.6974 152.133 70.57C154.788 69.8971 156.462 69.5151 157.116 69.3696C157.717 69.2969 158.117 69.1332 158.317 68.8786C158.517 68.6057 158.644 68.0783 158.717 67.278C158.79 66.7506 158.917 65.9503 159.117 64.8772C159.317 63.8223 159.463 62.9857 159.572 62.3855C159.681 61.7853 159.772 61.0032 159.863 60.0392C159.954 59.0753 159.99 58.1295 159.954 57.2019C159.917 56.2743 159.863 55.3104 159.808 54.31C159.535 51.982 159.081 50.4724 158.408 49.763C157.735 49.0719 156.444 48.4171 154.516 47.8169C153.915 47.7442 153.206 47.8169 152.369 47.9624C151.533 48.1261 151.024 48.308 150.823 48.5081C150.623 48.6354 150.496 49.8722 150.423 52.2002C150.423 53.728 150.423 54.692 150.478 55.0921C150.514 55.4922 150.623 55.6923 150.823 55.6923C151.224 55.6195 152.078 55.0193 153.37 53.8917L153.388 53.9099ZM166.611 20.5896L169.011 20.3895C169.539 20.3895 170.448 20.2986 171.703 20.0985C172.958 19.8984 173.886 19.8075 174.45 19.8075C175.013 19.8075 175.723 19.9348 176.596 20.2076C177.323 20.8806 177.287 21.8627 176.505 23.2086C175.577 24.8092 174.45 25.2093 173.104 24.409C172.904 24.0817 171.758 23.9725 169.666 24.118C167.575 24.2453 166.265 24.3545 165.719 24.409C165.119 24.6819 164.592 25.8823 164.119 28.0102C164.046 28.8833 163.882 29.6835 163.628 30.4474C163.355 31.2113 163.137 31.7752 162.973 32.1389C162.809 32.5027 162.482 33.0847 162.027 33.885C161.554 34.6852 161.263 35.2127 161.136 35.4855C161.009 35.6856 160.609 35.9766 159.936 36.3767C159.263 36.7768 158.808 36.8496 158.535 36.5768C158.262 36.3039 158.171 35.9584 158.244 35.5219C158.317 35.0854 158.644 34.2487 159.244 32.9756C160.445 30.3747 161.045 27.8829 161.045 25.5003C161.045 25.1729 160.99 24.9729 160.9 24.9001C160.809 24.8274 160.408 24.8092 159.754 24.8092C158.499 24.8092 156.262 24.6455 153.061 24.3181C149.859 23.9907 148.277 23.6815 148.277 23.4269C148.077 23.1541 148.041 22.7903 148.186 22.3356C148.314 21.8627 148.586 21.499 148.986 21.2443C149.587 20.8442 150.441 20.6078 151.587 20.5532C152.715 20.4804 154.097 20.5532 155.734 20.6987C157.371 20.8624 158.535 20.9169 159.281 20.8442C160.881 20.9169 161.845 20.8442 162.173 20.5896C162.5 20.3531 162.773 19.6438 162.973 18.4434C163.246 17.1157 163.5 16.2245 163.773 15.7516C164.046 15.2787 164.574 14.8604 165.374 14.4602C166.574 13.5872 167.374 13.4781 167.775 14.1147C168.175 14.7512 168.047 15.7698 167.374 17.152C166.902 18.0251 166.683 18.8071 166.683 19.5529V20.6441L166.611 20.5896Z" fill="white"/>
</svg>
