<svg width="794" height="92" viewBox="0 0 794 92" fill="none" xmlns="http://www.w3.org/2000/svg">
<path d="M35.3144 48.8159C36.3511 47.761 37.115 47.3245 37.6061 47.5064C38.2245 47.5064 39.2612 47.0335 40.6981 46.1059C42.1349 45.1601 43.3171 44.178 44.2629 43.1049C45.2087 42.05 45.9544 41.3225 46.5182 40.9405C47.7004 40.0675 48.6826 39.9765 49.4283 40.6677C49.9193 41.1769 49.8648 41.8317 49.2464 42.632C48.5553 43.505 47.9732 45.1965 47.5185 47.6882C47.0457 50.1982 46.5728 54.345 46.0635 60.1652C45.8816 61.984 45.4997 64.4211 44.9359 67.4767C44.372 70.5505 43.9901 72.9149 43.8082 74.6064C43.5536 77.1163 43.1898 79.0079 42.6805 80.3356C42.4987 80.5902 42.1713 80.8085 41.6984 80.9903C41.2255 81.1722 40.7708 81.1541 40.3343 80.8994C39.6432 80.5902 39.2976 79.9718 39.2976 79.0624C39.2976 78.153 39.5704 76.4797 40.1342 74.0426C40.5707 72.5512 40.9345 71.1143 41.2073 69.732C41.4801 68.3497 41.7166 66.9129 41.9167 65.4215C42.1167 63.9301 42.244 62.7115 42.335 61.8021C42.4259 60.8927 42.5532 59.4922 42.7169 57.5825C42.8624 55.6727 42.9897 54.3087 43.0443 53.5084C43.0989 52.9446 43.1716 52.4353 43.2262 51.9624C43.2807 51.4895 43.3353 51.0894 43.3717 50.7438C43.4081 50.3982 43.4263 50.1072 43.4626 49.8526C43.499 49.598 43.499 49.3979 43.4626 49.2342C43.4263 49.0705 43.4081 48.9614 43.3717 48.9068C43.3353 48.8523 43.2989 48.8159 43.2262 48.8159C42.8442 48.9432 41.7166 49.5798 39.8069 50.7438C37.8971 51.9078 36.4239 52.5808 35.3508 52.7627C34.4778 52.7627 34.0413 52.2352 34.0413 51.1621C33.8594 50.6711 34.2777 49.889 35.3144 48.8159ZM49.3737 25.99C50.083 26.2628 50.2285 26.954 49.792 28.0089C48.7917 28.7546 47.0638 29.6458 44.6267 30.6825C42.1895 31.7192 40.3707 32.2649 39.1885 32.3194C38.752 32.3194 38.4064 32.0102 38.1517 31.3736C37.7698 30.5006 37.8789 29.8459 38.4246 29.4094C38.9884 28.9729 40.3889 28.409 42.6442 27.7179C44.5721 27.0995 45.8998 26.6266 46.591 26.3174C47.7186 25.8263 48.6462 25.699 49.3555 25.99H49.3737ZM75.4007 53.0355C76.0918 53.4174 76.3464 53.763 76.1464 54.1086C75.9645 54.4541 75.1097 55.309 73.6182 56.6913C72.7998 57.437 72.1814 58.3464 71.7449 59.4195C71.0537 60.9109 70.9082 61.7111 71.272 61.7657C71.3993 61.7657 71.5448 61.7293 71.7449 61.6748C73.2363 61.3656 76.3101 62.1477 80.9298 64.021C82.4212 64.6394 85.0948 65.4215 88.9507 66.3673C92.8065 67.313 95.0073 67.9678 95.5529 68.3316C96.917 68.7135 98.2265 69.0772 99.4451 69.4592C100.664 69.8411 102.101 70.314 103.756 70.9142C105.411 71.5144 106.775 71.9873 107.83 72.3693C111.322 73.5515 113.886 74.0607 115.523 73.8607C116.887 73.8607 117.96 74.0789 118.706 74.5154C119.452 74.952 119.543 75.8068 118.979 77.0436C118.67 77.9166 118.361 78.3895 118.033 78.444C117.16 78.5714 115.414 78.3713 112.777 77.8257C110.158 77.2982 108.121 76.7162 106.684 76.0978C106.247 75.8432 105.465 75.5885 104.338 75.2975C103.21 75.0065 102.428 74.7519 101.991 74.4973C101.118 74.1881 99.2996 73.5879 96.5532 72.7149C93.8069 71.8418 91.1696 71.0052 88.6233 70.2231C86.0952 69.441 83.9854 68.8408 82.2939 68.3861C81.7846 68.2042 80.4205 67.6768 78.1652 66.7856C75.9099 65.9125 74.3458 65.3851 73.4727 65.185C72.8543 65.1305 72.1814 64.9122 71.4539 64.5303C70.7264 64.1483 70.1807 63.9846 69.817 64.021C69.435 64.0574 68.9985 64.4757 68.5074 65.2942C68.3801 65.5488 67.9618 66.2218 67.2343 67.313C66.5068 68.4043 65.852 69.441 65.27 70.405C64.6698 71.3689 64.2514 72.0783 63.9968 72.5148C62.1235 76.6434 60.5229 78.0439 59.2134 76.7344C58.7041 76.2979 58.5404 75.734 58.7041 75.0429C58.8496 74.3518 59.0861 73.7697 59.4135 73.2605C59.7226 72.7694 60.1228 72.1692 60.5775 71.4781C61.0504 70.7869 61.3414 70.2959 61.4687 69.9867C62.0325 68.8044 63.0692 67.1675 64.5606 65.0577C66.0521 62.9661 67.2161 61.0382 68.0345 59.2921C69.1622 56.9823 70.017 55.3817 70.6172 54.5087C71.2174 53.6357 71.7631 53.0719 72.2541 52.8172C73.3818 52.3807 74.4185 52.4353 75.3461 52.9991L75.4007 53.0355ZM76.0554 27.245C78.3107 24.9897 79.4384 24.3349 79.4384 25.2807C79.4384 26.281 78.2744 28.0816 75.9645 30.6643C73.6546 33.2652 71.7449 34.9385 70.2353 35.6842C69.726 35.9934 69.1986 36.1571 68.6347 36.1571C68.0709 36.1571 67.689 36.1025 67.5071 36.0116C67.3252 35.9206 66.9069 35.6842 66.2885 35.3022C65.852 34.6111 65.6155 33.9927 65.5792 33.4289C65.5428 32.8651 65.6701 32.0466 65.9611 30.9371C66.2339 29.8459 66.4158 29.0456 66.4704 28.5545C66.7796 27.1722 67.0342 26.281 67.2161 25.8263C67.398 25.3898 67.7799 24.7714 68.3437 23.953C68.7802 23.5165 69.1076 23.3164 69.3259 23.3346C69.5441 23.3709 69.8715 23.6983 70.308 24.3167C70.5627 24.5714 70.69 25.0079 70.69 25.6263C70.69 26.2447 70.6354 26.8449 70.5445 27.4087C70.4535 27.9725 70.308 28.6091 70.1262 29.3366C69.9443 30.0641 69.8533 30.5734 69.8533 30.8826C69.7988 31.3918 69.7806 31.701 69.7988 31.8283C69.8351 31.9557 69.9625 32.0102 70.2171 32.0102C70.9082 32.0102 72.8362 30.4097 76.0372 27.2268L76.0554 27.245ZM94.5707 49.2342C93.6068 50.6347 92.8975 51.6532 92.4609 52.2898C92.0244 52.9082 91.406 53.763 90.624 54.8179C89.8419 55.891 89.0416 56.8004 88.2413 57.5825C87.4229 58.3646 86.5499 59.1285 85.6223 59.8742C83.7489 60.6199 82.5849 60.6199 82.1484 59.8742C81.8392 59.565 81.6391 59.274 81.5846 59.0375C81.53 58.7829 81.53 58.3282 81.5846 57.637C81.5846 56.1456 81.9665 53.5084 82.7486 49.7616C83.5307 46.0149 83.9854 43.4504 84.1127 42.0682C84.2946 40.0129 84.7129 38.1941 85.3313 36.63C85.8223 35.9388 86.5499 35.8115 87.4956 36.248C88.4414 36.6845 88.7142 37.3211 88.3323 38.1214C88.1504 39.8129 87.823 41.9772 87.3865 44.6327C86.95 47.2881 86.5681 49.0887 86.2589 50.0163C86.0042 50.5801 85.8405 51.4168 85.786 52.5444C85.7314 53.6721 85.7496 54.2723 85.8769 54.3268C86.2589 54.5815 87.8776 52.8354 90.7513 49.1251C93.625 45.4147 95.1528 43.1049 95.3528 42.2318C95.662 40.4858 96.3895 39.831 97.5172 40.2675C97.9537 40.5222 98.2265 40.7768 98.3175 41.0678C98.4084 41.3588 98.372 41.759 98.172 42.2864C97.9901 42.8139 97.8628 43.2504 97.79 43.5596C97.6081 44.8691 97.1898 45.7785 96.5714 46.2878C96.1895 46.8516 95.5165 47.8337 94.5526 49.2342H94.5707ZM96.2077 18.8058C96.5169 19.115 96.6806 19.4969 96.6806 19.9334C96.626 20.4973 96.3895 20.9883 95.9712 21.3885C95.5529 21.7886 94.8799 22.316 93.916 22.9344C92.952 23.5528 92.4246 23.8984 92.37 23.9712C89.0598 25.9718 86.4589 26.1537 84.5856 24.535C83.7125 23.7893 83.2942 22.8253 83.3124 21.6795C83.3488 20.5155 83.8581 18.2601 84.8584 14.8772C85.2403 13.5677 85.5132 12.7128 85.695 12.3491C85.8769 11.9853 86.2589 11.6397 86.8227 11.3123C87.7685 10.7485 88.5142 10.7485 89.078 11.3123C89.5691 11.8762 89.2599 13.7859 88.1322 17.0416C87.5684 18.733 87.2774 19.8243 87.241 20.3154C87.2046 20.8247 87.3865 21.1884 87.7503 21.443C88.3687 21.8795 89.8783 21.3521 92.2427 19.8425C93.8069 18.8421 94.7344 18.3511 95.0618 18.3511C95.4983 18.3511 95.8803 18.5148 96.1895 18.824L96.2077 18.8058Z" fill="white"/>
<path d="M303.095 28.3726C303.877 27.0631 304.296 26.2446 304.369 25.9354C304.86 25.4444 305.278 25.4989 305.587 26.1173C305.769 26.4265 305.751 27.3723 305.496 28.9364C304.987 31.3736 304.623 34.3565 304.369 37.8849C304.114 41.4134 303.968 44.1234 303.896 45.9967C303.841 47.8701 303.805 51.5077 303.805 56.8731V66.149C303.859 67.7677 303.641 68.9681 303.15 69.7138C302.641 70.4595 301.986 70.6596 301.186 70.2776C300.185 69.8411 299.803 68.8954 300.058 67.4585C300.494 46.3969 301.022 34.4474 301.659 31.6283C301.84 30.7552 302.331 29.664 303.114 28.3544L303.095 28.3726ZM311.716 54.436C311.316 54.7451 310.88 54.9998 310.443 55.1817C310.007 55.3635 309.57 55.4363 309.134 55.3635C307.642 55.3635 306.878 54.9816 306.878 54.2359C306.878 53.4902 307.37 53.1082 308.37 53.1082C308.625 53.1082 309.207 52.799 310.152 52.1625C311.098 51.5441 312.189 50.7802 313.426 49.8708C314.681 48.9614 315.481 48.3794 315.863 48.1429L316.7 47.67L316.791 45.7057C316.791 44.3235 316.7 43.5414 316.518 43.3595C316.336 43.1776 315.791 43.3231 314.918 43.8324C314.481 44.087 313.608 44.669 312.298 45.5602C310.989 46.4696 310.08 47.0153 309.57 47.1972C309.388 47.1972 308.934 47.379 308.206 47.761C307.479 48.1429 306.915 48.3794 306.478 48.5067C306.042 48.634 305.642 48.4703 305.26 48.0338C304.696 47.2881 305.314 46.4696 307.133 45.5966C307.624 45.342 309.061 44.4508 311.444 42.923C313.826 41.3952 315.354 40.5949 316.045 40.5404C316.536 40.5404 316.736 40.2675 316.609 39.7037C316.554 39.4491 316.518 37.8849 316.518 35.0112L316.609 30.5188C316.609 30.5188 316.391 30.3915 316.136 30.1369C315.881 29.8822 315.718 29.7367 315.627 29.664C315.536 29.6094 315.354 29.5003 315.063 29.3911C314.79 29.2638 314.554 29.2638 314.354 29.3911C312.608 29.6458 311.389 30.1369 310.698 30.8826C310.261 31.3918 309.716 31.8829 309.061 32.374C308.406 32.8832 308.006 33.0651 307.897 32.9378C307.952 32.8105 308.152 32.4103 308.461 31.7192C308.77 31.0281 309.006 30.5552 309.17 30.3187C309.334 30.0641 309.57 29.664 309.916 29.1001C310.261 28.5363 310.571 28.1362 310.862 27.8815C311.134 27.6269 311.498 27.3359 311.935 26.9904C312.371 26.6448 312.862 26.4083 313.39 26.281C313.917 26.1537 314.499 26.0991 315.118 26.0991C316.245 26.0991 317.118 26.3538 317.737 26.8448C318.482 27.536 318.955 28.2817 319.137 29.1001C319.319 29.9186 319.483 31.701 319.61 34.4474C319.792 37.3938 320.21 46.0695 320.829 60.5107C320.883 61.5111 320.901 62.6387 320.883 63.8937C320.847 65.1486 320.756 66.3127 320.61 67.404C320.447 68.4952 320.101 69.4046 319.537 70.1322C318.973 70.8597 318.264 71.2052 317.373 71.2052C316.3 71.3326 315.481 71.0779 314.881 70.4595C314.281 69.8411 313.681 68.5498 313.044 66.6219C312.608 65.1305 312.262 64.7485 312.007 65.4942C311.753 66.1126 311.025 66.8037 309.807 67.5494C308.588 68.2952 307.697 68.5134 307.133 68.2042C306.951 68.0769 306.86 67.7859 306.86 67.313C306.86 66.8401 306.988 66.5127 307.242 66.3309C307.551 66.0762 308.843 64.6576 311.134 62.0567C313.408 59.4558 314.936 57.6916 315.681 56.764C316.373 55.891 316.809 55.1635 316.991 54.5996C317.173 54.0358 317.246 53.2537 317.173 52.2534C317.046 51.1258 316.845 50.5437 316.554 50.5255C316.282 50.4892 315.609 51.0166 314.536 52.0715C313.353 53.2537 312.699 53.8539 312.571 53.8539C312.389 53.9267 312.08 54.1086 311.68 54.4178L311.716 54.436ZM317.391 66.9129C317.955 64.4211 317.955 62.1294 317.391 60.0742C317.337 59.765 317.227 59.5104 317.118 59.3285C316.991 59.3285 316.573 59.8196 315.845 60.7836C315.118 61.7475 314.608 62.5114 314.299 63.0752C313.99 63.6936 313.844 64.2211 313.881 64.6212C313.917 65.0213 314.172 65.6397 314.681 66.4582C315.936 69.2773 316.845 69.4228 317.409 66.9311L317.391 66.9129ZM351.439 51.344C350.62 52.1625 349.911 52.8354 349.275 53.3629C348.656 53.8903 348.201 54.2541 347.965 54.436C347.783 54.7451 347.692 54.9634 347.692 55.0907C347.692 55.218 347.82 55.3999 348.074 55.6545C349.329 56.473 350.257 57.055 350.893 57.3824C351.512 57.728 352.003 57.9462 352.348 58.0372C352.694 58.1281 353.367 58.4009 354.367 58.8374C355.368 59.2739 356.622 59.8741 358.114 60.6198C359.169 61.1291 361.606 62.184 365.389 63.8027C369.172 65.4215 371.973 66.7492 373.774 67.7495C374.338 68.1315 375.211 68.568 376.393 69.059C378.012 69.8048 379.048 70.3686 379.485 70.7505C379.921 71.1325 380.139 71.7145 380.139 72.533C380.012 73.406 379.794 74.0244 379.485 74.4063C379.176 74.7883 378.739 74.8974 378.175 74.7337C377.611 74.57 377.102 74.3518 376.684 74.0789C376.247 73.8061 375.665 73.3878 374.956 72.8604C374.228 72.3329 373.719 71.9328 373.41 71.6963C371.973 70.8779 370.172 69.9867 368.026 68.9681C365.862 67.9678 363.516 66.9129 360.951 65.7852C358.387 64.6576 356.568 63.8573 355.513 63.348C355.258 63.2207 354.44 62.8206 353.021 62.1294C351.621 61.4383 350.493 60.9108 349.638 60.5289C348.783 60.147 347.838 59.765 346.783 59.3649C345.71 58.9647 344.946 58.6919 344.437 58.5646C344 58.5646 343.673 58.6556 343.454 58.8374C343.236 59.0193 342.963 59.4013 342.654 59.9651C342.036 61.4019 341.254 62.7478 340.308 64.0028C339.362 65.2578 338.653 66.2945 338.144 67.0947C337.271 68.3497 336.434 69.2227 335.652 69.7138C334.87 70.2231 334.015 70.2413 333.069 69.8048C332.814 69.5501 332.596 69.1136 332.414 68.4952C332.232 67.8768 332.16 67.3676 332.232 67.0038C332.36 66.6219 332.414 62.6023 332.414 54.9088C332.414 48.2157 332.505 43.7778 332.687 41.5953C332.869 39.4127 333.306 37.1574 333.997 34.8475C334.251 34.3565 334.451 33.4107 334.615 32.0284C334.779 30.6461 335.07 29.7731 335.506 29.4094C335.943 28.8455 336.507 28.7909 337.198 29.2275C337.889 29.664 338.162 30.1914 338.034 30.828C337.907 31.2645 337.816 31.7556 337.762 32.283C337.707 32.8105 337.671 33.247 337.671 33.5926C337.671 33.9381 337.707 34.1018 337.762 34.1018C337.889 34.0473 338.544 33.7199 339.726 33.1561C343.727 31.2281 345.782 30.0277 345.91 29.5912C346.037 29.4093 345.91 29.1001 345.528 28.6454C345.219 28.2635 344.6 27.8815 343.691 27.4814C342.781 27.0813 342.072 26.863 341.581 26.863C340.89 26.863 340.835 26.5175 341.399 25.8263C341.708 25.3898 342.108 25.0806 342.618 24.8805C343.745 24.4986 344.891 24.6077 346.092 25.1534C347.147 25.5899 347.983 26.4993 348.583 27.8815C349.184 29.2638 349.42 30.828 349.293 32.574C349.165 34.0654 348.984 35.2477 348.729 36.0843C348.474 36.921 348.22 37.503 347.983 37.8122C347.729 38.1214 347.165 38.7579 346.292 39.6855C346.164 39.8128 345.619 40.3767 344.655 41.377C343.691 42.3773 342.927 43.123 342.4 43.6323C341.872 44.1416 341.181 44.669 340.344 45.2329C339.508 45.7967 338.762 46.1059 338.144 46.1786C337.762 46.0513 337.361 46.0877 336.925 46.2696C336.488 46.4514 336.197 46.7061 336.088 47.0153C335.961 47.4518 335.87 50.4164 335.815 55.9274C335.815 59.6741 335.815 62.0021 335.87 62.9115C335.906 63.8209 336.016 64.2756 336.197 64.2756C336.452 64.3484 336.816 64.0028 337.325 63.2935C337.816 62.5841 338.362 61.7475 338.926 60.8017C339.489 59.856 339.926 59.2376 340.235 58.9284C340.672 58.6192 340.944 58.219 341.035 57.7644C341.126 57.3097 341.145 56.8913 341.09 56.5458C341.035 56.2002 341.09 55.8364 341.272 55.4727C341.454 55.1089 341.872 54.7815 342.49 54.5269C343.436 54.145 344.855 53.0537 346.765 51.2531C348.674 49.4343 349.875 48.4339 350.384 48.252C350.639 48.1975 350.948 47.8701 351.33 47.3063C351.712 46.7425 352.021 46.3605 352.276 46.1423C352.53 45.924 352.894 45.9422 353.403 46.1968C353.658 46.4514 353.803 46.9425 353.876 47.6882L354.058 48.8159L351.53 51.344H351.439ZM335.779 44.96C336.725 44.6508 337.38 44.378 337.743 44.1597C338.125 43.9415 338.525 43.5414 338.962 42.9412C339.399 42.341 339.835 41.8317 340.272 41.3952C340.963 40.7768 341.763 39.7946 342.709 38.4851C343.654 37.1756 344.327 36.3208 344.764 35.957L345.237 35.4841C345.364 35.3568 345.437 35.1749 345.473 34.9203C345.51 34.6657 345.528 34.5201 345.564 34.4474C345.601 34.3928 345.619 34.1746 345.619 33.7926V33.1379C345.673 32.7013 345.364 32.7377 344.673 33.2288C344.491 33.3561 344.327 33.4834 344.2 33.6108C344.073 33.8654 343.491 34.1928 342.472 34.5929C341.436 34.993 340.508 35.2841 339.653 35.4296C338.816 35.5932 338.289 35.5023 338.107 35.1931C337.798 34.8839 337.543 34.8111 337.361 35.0112C337.107 35.2658 336.834 36.1571 336.525 37.6848C336.216 39.2126 336.016 40.6677 335.961 42.05L335.779 44.96Z" fill="white"/>
<path d="M409.095 11.4942C409.658 11.8034 410.04 12.3672 410.259 13.1857C410.477 14.0041 410.641 14.7862 410.768 15.5319C410.895 16.2776 410.986 17.2052 411.041 18.2965C411.095 19.3878 411.204 20.2244 411.314 20.7882C411.441 21.2975 411.441 22.5343 411.314 24.5349C411.259 26.3537 411.314 27.3904 411.495 27.6815C411.677 27.9725 412.277 27.9179 413.278 27.5359C418.971 25.7899 422.554 25.608 424.063 26.9721C424.936 27.6633 425.373 28.8455 425.373 30.537C425.373 32.2285 425.118 33.8108 424.627 35.2658C424.118 36.739 423.627 37.7576 423.136 38.3214C419.516 43.8869 415.515 48.2702 411.132 51.4531C410.877 51.7623 410.713 52.2352 410.622 52.8536C410.531 53.472 410.477 54.2359 410.477 55.1089C410.477 55.9819 410.441 56.6367 410.386 57.0732C410.077 58.9465 410.004 63.5299 410.204 70.8051C410.386 78.0984 410.459 82.1907 410.386 83.1365C410.386 84.5188 409.877 85.5191 408.895 86.1375C407.894 86.7559 406.857 86.5376 405.803 85.4827C404.366 84.2278 404.184 83.2092 405.239 82.3908C405.548 82.1362 405.748 81.8452 405.857 81.4996C405.966 81.154 406.057 80.2264 406.185 78.735C406.312 76.989 406.385 72.8239 406.421 66.2581C406.457 59.6922 406.421 56.1092 406.275 55.4726C406.221 55.0361 406.003 54.7815 405.657 54.7269C405.312 54.6724 405.021 54.7269 404.766 54.9088C404.584 55.0907 403.893 55.3453 402.711 55.6545C399.892 56.473 397.964 56.4366 396.891 55.5636C396.381 55.1271 396.363 54.6178 396.8 54.0722C397.054 53.6357 398.637 52.9081 401.583 51.8714C404.529 50.8347 406.021 50.1618 406.075 49.8526C406.385 49.5979 406.566 48.1611 406.639 45.542C406.694 42.923 406.821 41.3952 407.021 40.9405C407.276 39.6309 407.33 38.2487 407.203 36.8118C407.203 36.0661 407.13 35.5205 406.967 35.1749C406.803 34.8293 406.585 34.7202 406.312 34.8475C406.039 34.9748 405.73 35.1385 405.421 35.3568C405.111 35.575 404.766 35.8478 404.384 36.157C404.002 36.4662 403.729 36.6663 403.547 36.7209C402.547 37.412 400.619 38.5942 397.782 40.2857C394.944 41.9772 393.016 43.2322 392.016 44.0324C392.071 44.7781 392.18 45.4875 392.344 46.1422C392.507 46.797 392.744 47.5427 393.089 48.343C393.435 49.1614 393.708 49.7434 393.889 50.0708C394.071 50.4164 394.435 51.1075 394.963 52.1261C395.49 53.1628 395.799 53.763 395.854 53.9631C396.163 54.4723 396.127 54.8724 395.763 55.1816C395.381 55.4908 394.926 55.6545 394.399 55.6545C393.871 55.6545 393.453 55.5272 393.126 55.2726C391.634 52.3989 390.052 50.0344 388.397 48.1974C386.742 46.3605 384.595 44.7054 381.976 43.2685C381.413 43.0139 381.085 42.7411 380.994 42.4319C380.903 42.1227 380.958 41.6862 381.176 41.1223C381.394 40.5585 381.503 40.122 381.503 39.8128C381.885 37.8121 383.977 38.7761 387.778 42.7229C389.033 44.0324 389.706 44.6872 389.834 44.6872C390.325 44.9964 390.616 44.9964 390.67 44.6872C390.67 44.5053 390.543 44.1961 390.288 43.7414C389.852 43.1776 389.652 42.7411 389.67 42.4319C389.706 42.1227 389.943 41.6498 390.379 41.0314C390.816 40.213 392.653 38.9216 395.872 37.1392C399.091 35.3568 400.892 34.3201 401.256 33.9927C401.437 33.8108 402.092 33.4289 403.184 32.865C404.275 32.3012 405.148 31.7919 405.803 31.319C406.457 30.8462 406.839 30.3915 406.967 29.9549C407.221 29.5184 407.349 27.6087 407.349 24.2258V21.6067C407.349 20.9155 407.349 20.279 407.294 19.6788C407.258 19.0786 407.239 18.6421 407.203 18.3147C407.167 18.0055 407.094 17.6599 406.967 17.2779C406.839 16.896 406.748 16.6414 406.694 16.4777C406.639 16.314 406.494 16.0048 406.275 15.5319C406.057 15.059 405.894 14.7135 405.766 14.4588C405.021 13.022 405.421 11.9307 406.985 11.185C407.803 11.0577 408.476 11.1486 409.04 11.4578L409.095 11.4942ZM422.044 31.5555C422.044 31.2463 421.99 30.9735 421.899 30.7552C421.808 30.537 421.699 30.3551 421.572 30.1914C421.444 30.0277 421.281 29.9186 421.062 29.864C420.844 29.8095 420.644 29.7367 420.444 29.6821C420.262 29.6276 419.989 29.6094 419.644 29.6276C419.298 29.664 419.025 29.7003 418.807 29.7185C418.589 29.7549 418.28 29.8094 417.861 29.9004C417.461 29.9913 417.134 30.0823 416.915 30.1368C416.697 30.2096 416.406 30.2642 416.024 30.3187C415.842 30.3915 415.715 30.446 415.642 30.5006C414.078 30.7552 413.023 31.0462 412.459 31.3918C411.896 31.7374 411.586 32.2466 411.514 32.9378C410.641 41.8862 410.35 46.506 410.677 46.8152C410.932 47.0698 411.732 46.4696 413.114 45.0328C414.988 43.1048 416.152 42.0681 416.588 41.9408C417.152 41.6862 418.098 40.3766 419.444 37.994C420.789 35.6114 421.59 33.8108 421.844 32.5558C421.972 32.1739 422.026 31.8465 422.026 31.5191L422.044 31.5555Z" fill="white"/>
<path d="M454.019 42.5774C453.837 42.4137 453.692 42.3409 453.601 42.3409C453.51 42.3409 453.273 42.4137 452.891 42.5774C452.51 42.7411 452.237 42.8502 452.055 42.9048C451.364 43.414 450.618 43.414 449.8 42.9048C448.981 42.4137 448.508 41.7407 448.344 40.8859C448.181 40.0493 448.454 39.2126 449.145 38.3941C449.709 37.6484 450.181 37.1756 450.545 36.9937C452.546 36.248 454.365 36.5935 455.983 38.0304C457.602 39.4672 458.257 41.0678 457.948 42.8138C457.566 44.9418 456.602 47.2335 455.038 49.707C453.474 52.1806 451.946 53.9448 450.436 54.9997C449.818 55.2544 449.29 55.2908 448.89 55.1452C448.49 54.9816 448.29 54.6542 448.326 54.1085C448.363 53.5811 448.654 53.0354 449.218 52.4716C450.218 51.4167 451.236 49.9071 452.273 47.9792C453.31 46.0513 453.874 44.5962 454.001 43.6687C454.183 43.1048 454.183 42.7411 454.001 42.5956L454.019 42.5774Z" fill="white"/>
<path d="M508.038 22.5524C508.22 22.9344 508.474 23.1163 508.783 23.1163C509.22 23.1163 509.602 23.2981 509.911 23.6801C510.22 24.062 510.384 24.4622 510.384 24.8987C510.511 25.4625 510.202 25.9718 509.493 26.4447C508.765 26.9176 507.91 27.3904 506.91 27.8451C505.91 28.318 505.291 28.7 505.037 29.0092C504.418 29.6276 503.582 31.028 502.545 33.1742C501.508 35.3204 501.054 36.5935 501.181 36.9755C501.308 37.2301 501.654 37.2301 502.218 36.9755C504.036 36.4117 506.255 35.5568 508.929 34.3928C511.584 33.2288 513.694 32.4103 515.258 31.9011C517.75 30.9553 518.478 30.2096 517.423 29.6457C517.168 29.5184 516.859 29.4275 516.477 29.3729C515.913 29.3184 515.658 28.9364 515.731 28.2453V27.9724H518.732C520.424 27.9724 521.551 28.0816 522.152 28.2998C522.752 28.5181 523.043 28.9364 523.043 29.573C523.043 30.3187 522.734 30.9735 522.097 31.5373C521.479 32.1011 520.224 32.8468 518.35 33.7926C514.094 35.7933 509.529 37.7394 504.655 39.6127C502.09 40.5585 500.326 41.3406 499.362 41.9954C498.398 42.6501 497.525 43.6686 496.779 45.0509C496.034 46.3059 495.015 48.3612 493.724 51.2348C492.451 54.1085 491.396 56.3275 490.577 57.8916C487.14 64.7121 485.321 68.9317 485.139 70.5504C484.885 72.6057 483.975 74.1516 482.411 75.152C481.229 75.9704 480.374 75.8795 479.883 74.8792C479.501 74.6245 479.683 73.6606 480.392 71.9691C481.101 70.2776 481.974 68.477 482.975 66.5854C483.975 64.6757 484.503 63.5662 484.575 63.2571C485.521 61.0745 486.703 58.5464 488.14 55.7091C489.577 52.8717 490.741 50.3436 491.614 48.1611C492.669 45.8512 492.924 44.669 492.36 44.5962C492.232 44.5417 492.105 44.5417 491.978 44.5962C490.668 44.7235 488.358 45.3237 485.03 46.3786C483.284 46.9425 482.156 47.2517 481.647 47.3244C481.138 47.3972 480.683 47.2335 480.247 46.8515C479.501 45.9058 479.41 45.1055 480.01 44.4144C480.61 43.7232 481.593 43.3594 482.957 43.2867C483.775 43.1594 484.921 42.8502 486.431 42.3409C487.922 41.8498 489.159 41.5225 490.086 41.3952C492.833 40.704 494.67 40.0311 495.579 39.3763C496.488 38.7215 497.307 37.3392 498.071 35.2112C498.325 34.5929 498.653 33.8654 499.053 33.0469C499.453 32.2284 499.689 31.6464 499.762 31.2645C499.635 31.2099 498.853 31.3009 497.416 31.5373C495.797 31.7919 494.615 31.7737 493.906 31.4827C493.178 31.2099 492.833 30.5915 492.833 29.6457C493.015 28.7727 493.451 28.0452 494.106 27.4814C494.761 26.9175 495.434 26.9175 496.125 27.4814C496.561 27.7906 497.289 27.8633 498.289 27.6633C499.417 27.6087 500.362 27.2995 501.145 26.772C501.927 26.2446 502.472 25.6626 502.781 25.0442C503.091 24.4258 503.545 23.7528 504.146 23.0253C504.746 22.316 505.419 21.7522 506.164 21.3884C507.165 21.3884 507.783 21.7704 508.038 22.5161V22.5524ZM509.347 15.3864C508.838 15.732 507.965 16.023 506.728 16.2776C502.29 17.4053 498.671 18.0237 495.852 18.151C493.851 18.151 492.851 17.769 492.851 17.0233C492.851 16.7141 493.015 16.2412 493.324 15.6228C493.633 15.0045 493.888 14.6771 494.069 14.6771C499.198 14.5498 503.327 13.9314 506.455 12.8037C507.583 12.4218 508.474 12.349 509.129 12.5673C509.784 12.7855 510.111 13.2402 510.111 13.9314C510.111 14.5497 509.857 15.0408 509.365 15.3864H509.347ZM504.473 50.6528C504.655 50.7438 505.164 50.3618 505.964 49.4888C506.965 48.6158 508.111 48.2156 509.384 48.2702C510.657 48.343 511.712 48.7431 512.53 49.4888C512.658 49.6707 512.967 49.998 513.476 50.4709C513.967 50.9438 514.385 51.4167 514.695 51.8714C515.004 52.3443 515.131 52.8354 515.077 53.3264C515.077 54.0722 515.167 54.8179 515.349 55.5818C515.659 57.0732 515.749 59.4558 515.622 62.7114C515.495 65.9671 515.131 69.3136 514.549 72.7875C513.949 76.2614 513.094 78.153 511.966 78.4622C510.839 78.7168 509.966 78.4985 509.347 77.8074L508.602 76.9708L505.128 78.0075C502.563 78.8259 500.944 79.2806 500.253 79.408C499.562 79.5353 499.035 79.5353 498.653 79.408C497.398 78.7896 497.034 77.9165 497.525 76.7889C497.652 76.2251 497.798 74.9155 497.998 72.8421C498.198 70.7687 498.38 68.8771 498.562 67.1129C498.744 65.3669 498.962 64.3665 499.217 64.1119C499.962 57.2368 500.399 52.6353 500.526 50.3254C500.581 49.9435 500.653 49.4888 500.708 48.925C500.763 48.3611 500.799 47.961 500.799 47.7064C500.799 47.4517 500.835 47.1425 500.89 46.7606C500.945 46.3787 500.999 46.1422 501.035 46.0149C501.072 45.8876 501.126 45.7239 501.217 45.5056C501.308 45.2874 501.399 45.1419 501.49 45.0873C501.581 45.0327 501.727 44.9418 501.908 44.8509C502.09 44.7599 502.29 44.6872 502.472 44.669C502.654 44.6326 502.909 44.5962 503.218 44.5235C503.782 44.7054 504.109 44.9782 504.2 45.3238C504.291 45.6693 504.309 46.5242 504.255 47.9064C504.2 49.6525 504.255 50.5801 504.437 50.671L504.473 50.6528ZM510.566 64.8576C510.566 64.8576 510.093 65.2032 508.965 65.6943C507.838 66.2035 506.583 66.7855 505.164 67.4767C503.764 68.1678 502.781 68.7316 502.218 69.1681C501.963 69.5501 501.836 70.605 501.836 72.351C501.836 73.9152 501.908 74.77 502.072 74.9337C502.236 75.0974 503.018 74.9883 504.455 74.6063C505.073 74.6063 505.819 74.279 506.655 73.6242C507.492 72.9694 508.238 72.6784 508.856 72.733C509.42 72.8603 509.966 72.8057 510.493 72.5875C511.021 72.3692 511.33 72.0782 511.384 71.6963C512.003 68.6407 512.33 66.4763 512.33 65.2214C512.385 64.1665 511.803 64.0392 510.548 64.8394L510.566 64.8576ZM512.348 58.7101C512.348 57.7461 512.221 57.0368 511.966 56.6003C511.839 56.1638 511.457 55.9819 510.839 56.091C510.22 56.182 509.62 56.3638 509.056 56.6548C508.492 56.9459 507.892 57.2551 507.274 57.6006C506.655 57.9462 506.201 58.1099 505.964 58.1099C504.964 58.4918 504.291 58.892 503.945 59.3285C503.6 59.765 503.327 60.5834 503.145 61.7657C502.891 63.0206 502.891 63.7663 503.145 64.021C503.4 64.2756 504.146 64.1846 505.401 63.7481C506.965 63.1843 509.093 62.093 511.784 60.4743C512.166 60.2924 512.348 59.7104 512.348 58.7464V58.7101ZM507.947 52.1079C507.256 52.4171 506.783 52.799 506.546 53.2355C506.164 53.7448 506.201 53.9812 506.637 53.9812C507.638 53.9267 508.638 53.4901 509.638 52.6717C509.893 52.4898 509.947 52.3989 509.82 52.3989C509.82 51.7077 509.202 51.6168 507.947 52.126V52.1079Z" fill="white"/>
<path d="M559.236 19.6424C560.728 19.3332 561.928 19.2605 562.801 19.4605C563.619 19.6424 564.547 20.0425 565.62 20.6245C566.675 21.2248 567.348 21.734 567.584 22.1705C568.839 23.9893 569.603 28.3362 569.876 35.2113C570.149 42.0863 569.803 47.2153 568.803 50.5983C568.239 52.7808 567.021 54.8179 565.147 56.6912L563.747 58.0008V66.1671L564.965 67.2948C565.711 68.0405 566.875 68.6953 568.439 69.2591C569.567 70.0775 573.605 70.6232 580.589 70.896C587.555 71.1688 591.356 70.9506 591.974 70.1867C592.156 69.9321 592.193 68.9863 592.065 67.3312C591.938 65.6761 591.774 64.5302 591.556 63.9118C591.338 63.2934 591.247 62.7478 591.283 62.3113C591.32 61.8748 591.447 61.5838 591.665 61.4201C591.883 61.2564 592.211 61.2746 592.647 61.4747C594.139 62.1658 595.048 64.8576 595.376 69.5319C595.557 72.2237 595.157 73.7515 594.157 74.1335C593.775 74.3154 591.101 74.4245 586.136 74.4608C581.171 74.4972 577.642 74.4063 575.587 74.2244C568.967 73.7333 564.238 72.1328 561.419 69.441C560.546 68.6225 560.055 67.9496 559.964 67.3857C559.873 66.8219 559.909 65.1668 560.109 62.4204C560.164 61.3655 560.109 60.3652 559.873 59.4194C559.654 58.4737 559.418 58.019 559.163 58.019C558.781 58.019 557.781 59.1102 556.162 61.2928C554.78 63.348 552.488 66.1672 549.269 69.732C546.05 73.2968 544.213 75.3884 543.776 76.0068C542.649 77.6983 541.685 78.535 540.866 78.535C540.302 78.535 539.884 78.1166 539.593 77.2618C539.302 76.407 539.393 75.8068 539.83 75.4248C540.011 75.1702 540.448 74.4791 541.139 73.3696C541.83 72.2419 542.412 71.3871 542.922 70.7869C543.413 70.1867 543.976 69.7684 544.613 69.5137C545.486 68.9499 546.541 67.986 547.76 66.6037C548.978 65.2214 549.906 64.0392 550.524 63.0388C550.779 62.5477 551.324 61.8202 552.161 60.8744C552.998 59.9287 553.489 59.1648 553.616 58.5282C553.562 58.5282 552.616 58.9647 550.797 59.8378C546.614 61.9657 543.958 62.4568 542.831 61.3291C541.83 60.3288 542.012 59.3649 543.394 58.4191L544.522 57.5824L544.613 54.5814C544.74 52.3261 545.195 48.7795 545.977 43.9415C546.759 39.1035 547.141 34.5201 547.141 30.2096C547.196 25.1533 547.414 21.7158 547.796 19.897C547.741 19.024 547.96 18.2965 548.505 17.6963C549.033 17.0961 549.615 17.0779 550.233 17.6417C550.542 17.9509 550.724 18.5875 550.797 19.5151C550.852 20.4609 550.961 21.0065 551.07 21.152C551.197 21.3157 551.543 21.2611 552.106 21.0065C555.289 20.4427 557.672 19.9698 559.236 19.606V19.6424ZM563.729 53.5447C564.165 53.0718 564.529 52.3807 564.802 51.4895C565.074 50.5801 565.329 49.7798 565.547 49.1068C565.766 48.4157 565.947 47.4336 566.111 46.1604C566.275 44.8873 566.384 44.0142 566.439 43.5777C566.493 43.1412 566.602 42.3228 566.711 41.1405C566.766 40.3948 566.748 39.9219 566.62 39.7401C566.493 39.5582 566.348 39.54 566.202 39.6855C566.038 39.8492 565.784 40.1038 565.402 40.4858C565.275 40.6677 565.184 40.8132 565.129 40.9041C565.074 40.995 564.965 41.086 564.856 41.1769C564.729 41.2678 564.638 41.3588 564.583 41.4134C564.529 41.4861 564.456 41.5043 564.402 41.5043C564.274 41.5771 563.892 41.7953 563.238 42.2136C562.583 42.6138 562.11 42.9048 561.837 43.0503C561.564 43.214 561.091 43.4686 560.437 43.8505C559.782 44.2325 559.273 44.5053 558.891 44.6872C558.509 44.8691 558.018 45.1237 557.399 45.4329C556.781 45.7421 556.235 45.9785 555.799 46.1422C555.362 46.3059 554.889 46.4332 554.398 46.5605C553.889 46.6879 553.452 46.7424 553.089 46.7424C552.397 46.8152 551.943 46.8515 551.725 46.8879C551.506 46.9243 551.252 46.9607 550.979 46.9789C550.706 47.0152 550.542 47.1244 550.506 47.3063C550.47 47.4881 550.415 47.6518 550.324 47.7791C550.233 47.9065 550.142 48.2157 550.051 48.7249C549.96 49.2342 549.869 49.6343 549.815 49.9435C548.996 53.3265 548.342 55.509 547.85 56.5094C547.596 57.0186 547.596 57.2551 547.85 57.2551C548.723 57.0732 550.488 56.1638 553.143 54.5269C555.799 52.9081 557.181 52.0897 557.308 52.0897C557.999 51.7077 558.654 51.3076 559.272 50.8711C560.218 50.1799 560.982 50.0708 561.564 50.5437C562.164 51.0166 562.292 51.8169 561.983 52.9263C561.801 53.6175 561.71 54.054 561.746 54.2359C561.782 54.4177 561.946 54.5087 562.255 54.5087C562.819 54.3268 563.31 53.9994 563.747 53.5265L563.729 53.5447ZM565.365 30.1914C565.202 31.1008 564.729 31.8101 563.91 32.3012C563.729 32.4831 561.71 33.1924 557.854 34.411C553.998 35.6296 551.87 36.4844 551.433 36.9937C551.252 37.3756 551.124 38.2486 551.052 39.6127L550.961 41.668C551.779 42.1045 552.579 42.541 553.398 42.9775L555.362 42.3228C556.544 41.9408 557.89 41.286 559.4 40.3585C560.909 39.4309 561.928 38.576 562.492 37.8303C563.492 36.5208 564.529 36.0843 565.584 36.5208C566.075 36.7027 566.402 36.7027 566.53 36.4662C566.657 36.248 566.657 35.7569 566.53 35.0112C566.348 34.2655 566.202 33.2106 566.111 31.8647C566.02 30.5188 565.911 29.3729 565.784 28.4453C565.656 27.4996 565.438 26.5538 565.129 25.5898C564.82 24.6259 564.256 23.9347 563.438 23.5346C562.619 23.1345 561.601 22.989 560.346 23.1163C560.291 23.1163 559.673 23.2618 558.509 23.5346C557.345 23.8074 556.253 24.0984 555.235 24.3713C554.216 24.6441 553.689 24.8623 553.689 24.9896C553.434 25.2443 553.143 25.9536 552.798 27.0995C552.452 28.2635 552.216 29.282 552.088 30.155C551.961 31.028 552.034 31.5373 552.27 31.6464C552.707 31.9011 554.016 31.7556 556.217 31.2281C558.399 30.7007 559.836 30.1914 560.527 29.6821C561.655 28.8637 562.783 28.4635 563.91 28.4635C565.038 28.7182 565.511 29.3002 565.365 30.1914Z" fill="white"/>
<path d="M619.439 48.9977C624.822 46.506 628.442 45.0328 630.315 44.5963C630.879 44.4144 631.916 44.0142 633.462 43.4322C634.989 42.832 636.39 42.3955 637.627 42.0681C638.882 41.7589 640.446 41.5043 642.319 41.3224C643.701 41.1405 645.175 40.8314 646.775 40.3767C648.376 39.9402 650.413 39.5946 652.923 39.3399C653.414 39.2854 653.868 39.1944 654.232 39.1035C654.596 39.0126 654.851 38.9398 654.978 38.9216C655.105 38.8853 655.323 38.8853 655.633 38.9216C655.942 38.958 656.378 39.0671 656.942 39.249C657.433 39.6309 657.815 39.922 658.07 40.1402C658.324 40.3585 658.561 40.7586 658.779 41.3588C658.997 41.959 659.07 42.632 659.016 43.3777C659.016 44.6872 658.743 45.8876 658.179 46.9425C657.67 47.8883 656.942 48.9068 655.978 49.9981C655.014 51.0894 654.269 51.7259 653.777 51.926C653.268 52.1806 652.813 52.4898 652.377 52.8718C651.995 53.1264 651.268 53.3265 650.176 53.4902C649.085 53.6539 648.448 53.5993 648.248 53.3447C647.939 52.7808 648.448 52.1261 649.794 51.3804C651.14 50.6347 652.413 49.5252 653.596 48.052C654.778 46.5788 655.378 45.4147 655.378 44.5417C655.378 43.9233 655.196 43.505 654.869 43.2686C654.523 43.0503 653.814 42.9775 652.759 43.0321C649.813 43.2867 646.393 43.7778 642.483 44.5235C638.572 45.2692 635.626 46.0877 633.625 46.9607C632.679 47.3426 631.388 47.7973 629.733 48.3248C628.078 48.8522 626.623 49.3979 625.368 49.9253C624.113 50.4528 622.531 51.2167 620.584 52.217C619.275 52.9082 617.929 53.5811 616.547 54.2359C615.164 54.8906 614.164 55.3635 613.491 55.6364C612.818 55.9092 612.073 56.3639 611.2 57.0005C610.326 57.6188 609.381 58.4009 608.38 59.3467C607.817 59.9651 607.325 60.2925 606.925 60.2925C606.525 60.2925 606.089 59.9833 605.652 59.3467C605.47 59.2194 605.343 58.9466 605.27 58.5101C605.216 58.0735 605.216 57.5097 605.325 56.8186C605.416 56.1274 605.507 55.5454 605.598 55.0362C605.689 54.5451 605.852 53.8721 606.07 53.0719C606.289 52.2534 606.434 51.7623 606.489 51.5804C606.743 51.0894 606.907 50.0526 606.998 48.4885C607.089 46.9243 607.253 45.542 607.471 44.3235C607.689 43.1049 608.108 42.4683 608.744 42.3955C609.053 42.341 609.417 42.4683 609.817 42.8139C610.217 43.1594 610.545 43.5777 610.799 44.087C611.181 45.0328 611.018 46.7788 610.326 49.3433C609.708 51.9078 609.508 53.2901 609.763 53.472C610.818 53.0355 614.037 51.5623 619.42 49.0705L619.439 48.9977ZM634.062 62.4932C634.553 62.1112 635.026 61.7111 635.462 61.2746C636.335 60.4016 637.081 59.8742 637.718 59.6741C638.336 59.4922 638.882 59.6741 639.318 60.1833C639.755 60.7108 640.1 61.311 640.355 61.9658C640.609 62.6205 640.828 63.4754 641.01 64.5484C641.137 65.4942 641.01 66.3854 640.591 67.2766C640.191 68.1497 639.682 68.6953 639.1 68.9135C638.5 69.1318 637.936 68.9863 637.372 68.4952C636.99 68.186 636.863 67.8041 636.99 67.3676C637.245 66.6219 637.372 66.058 637.372 65.6761C637.372 65.2941 637.317 65.0577 637.19 64.9668C637.063 64.8758 636.863 64.894 636.572 65.0213C636.299 65.1486 636.044 65.2942 635.826 65.4397C635.608 65.6034 635.317 65.8398 634.935 66.149C634.753 66.3309 634.607 66.4582 634.516 66.5309C634.426 66.6037 634.316 66.6764 634.189 66.7674C634.062 66.8583 633.971 66.9493 633.916 67.0038C633.407 67.1311 633.08 67.5131 632.934 68.1315C632.77 68.7499 632.679 69.5319 632.661 70.4231C632.625 71.3325 632.589 71.9691 632.516 72.3511C632.388 73.2968 632.425 73.8243 632.607 73.9516C632.789 74.0244 633.28 73.9516 634.062 73.7152C634.844 73.4969 635.571 73.2059 636.262 72.824C637.208 72.3329 638.027 72.2056 638.754 72.442C639.464 72.6966 639.736 73.1877 639.555 73.9334C639.3 74.8792 638.591 75.534 637.39 75.8977C636.262 76.2797 635.08 76.8253 633.825 77.5346C632.57 78.2621 631.861 78.8078 631.661 79.1715C631.352 79.99 631.152 81.0085 631.043 82.2271C630.933 83.4457 631.043 84.4279 631.279 85.1736H633.061C635.444 85.0462 637.954 84.8098 640.609 84.4642C643.265 84.1187 646.12 83.955 649.194 83.955C652.759 83.9004 655.887 83.6822 658.579 83.3002C661.271 82.9183 664.327 82.6818 667.764 82.5545C671.02 82.3726 672.857 82.3908 673.293 82.6454C673.73 82.9001 673.948 83.3548 673.948 84.0095C673.948 84.6643 673.766 85.1736 673.384 85.5555C672.948 85.992 672.438 86.2649 671.838 86.3558C671.238 86.4467 670.128 86.4285 668.51 86.3012C665.327 86.2467 662.235 86.4467 659.234 86.9196C656.233 87.3925 652.832 87.6835 649.012 87.8108C634.062 88.3019 622.785 89.5569 615.164 91.5575C613.418 92.0486 612.218 92.0122 611.545 91.412C610.872 90.8118 610.999 89.8297 611.872 88.4656C612.309 87.9745 612.909 87.6107 613.655 87.3925C614.401 87.1742 616.147 86.9378 618.911 86.6832C623.167 86.2467 625.732 85.9011 626.605 85.6465C626.859 85.2645 626.95 84.9371 626.878 84.6643C626.823 84.3915 626.677 83.9913 626.459 83.5003C626.241 83.0092 626.132 82.5909 626.132 82.2817C626.077 81.7179 625.986 81.3905 625.895 81.2995C625.804 81.2086 625.477 81.1358 624.913 81.0631C623.476 80.8812 622.967 80.0264 623.422 78.535C623.549 77.9711 623.749 77.5892 624.04 77.3709C624.313 77.1527 624.877 76.989 625.677 76.8617C626.932 76.6071 627.787 76.1524 628.26 75.4976C628.733 74.8428 628.933 73.7697 628.878 72.2601C628.878 71.0779 628.769 70.2958 628.551 69.9139C628.333 69.5319 627.878 69.3501 627.187 69.3501C626.114 69.3501 625.459 68.8772 625.222 67.9496C624.84 67.5131 624.95 66.8038 625.55 65.8398C626.15 64.8758 626.878 63.8573 627.751 62.7842C628.624 61.7293 629.133 61.0745 629.242 60.8199C629.369 60.638 629.551 60.3652 629.806 60.0196C630.06 59.6741 630.297 59.3831 630.515 59.1284C630.733 58.8738 630.897 58.6374 630.988 58.3827C631.079 58.1281 631.043 57.9826 630.897 57.9099C630.733 57.8553 630.406 57.8735 629.915 58.0008C629.406 58.1281 628.66 58.3463 627.66 58.6555C626.095 59.2194 624.95 59.4013 624.24 59.2194C623.513 59.0375 623.294 58.2736 623.531 56.9641C623.713 56.5821 624.368 56.1638 625.459 55.6909C626.55 55.218 627.605 54.927 628.605 54.7997C629.042 54.7997 629.678 54.6542 630.533 54.3814C631.388 54.1086 632.097 53.7994 632.698 53.4902C633.298 53.181 634.098 52.7627 635.135 52.217C636.172 51.6896 636.808 51.3622 637.063 51.2349C638.445 50.9257 639.282 51.1439 639.591 51.8896C639.773 52.508 639.682 53.1628 639.318 53.8176C638.954 54.4723 638.063 55.5272 636.699 56.9641C635.517 58.219 634.262 59.6741 632.952 61.3292C631.643 62.9843 630.988 63.9482 630.988 64.1847C630.988 64.7485 632.043 64.1847 634.171 62.4932H634.062ZM634.153 9.51173C636.972 9.32985 638.245 8.69328 637.99 7.63837V6.69259L641.082 6.60165C643.138 6.60165 644.483 6.51072 645.12 6.32884C646.175 5.83777 646.939 5.83776 647.375 6.3834C647.812 6.91085 647.939 7.58381 647.757 8.40227C647.575 9.22072 647.23 9.80273 646.721 10.1847C646.466 10.2574 645.684 10.3484 644.374 10.4575C642.937 10.5848 640.791 11.1668 637.954 12.1854C635.117 13.2221 633.552 14.0223 633.316 14.568C632.698 15.6956 631.97 17.5326 631.152 20.0971C631.024 20.5336 631.497 20.57 632.552 20.188C634.862 19.4969 635.99 19.1513 635.935 19.1513C636.554 18.9694 637.099 19.0422 637.536 19.3878C637.972 19.7333 638.136 20.188 638.009 20.7519C637.827 21.4976 637.39 22.1523 636.735 22.7162C636.081 23.28 635.408 23.5346 634.717 23.4619C634.207 23.4073 633.061 23.8074 631.243 24.6805C629.497 25.5535 627.241 26.4629 624.495 27.4087C621.749 28.3544 619.893 28.8091 618.966 28.8091C618.22 28.8091 617.838 28.3362 617.838 27.4087C617.838 25.8445 619.966 24.5895 624.222 23.6619C624.713 23.5346 625.113 23.2982 625.386 22.9526C625.659 22.607 626.496 21.443 627.878 19.4423C628.314 18.7512 628.678 18.0055 628.951 17.187C629.224 16.3686 629.333 15.8775 629.278 15.6956C629.151 15.5137 628.66 15.5319 627.787 15.7866C626.914 16.0412 625.986 16.2958 625.022 16.5868C624.058 16.8597 623.476 16.987 623.294 16.9142C622.549 17.0415 620.166 17.6599 616.165 18.7876C614.419 19.2968 613.382 19.4423 613.073 19.2605C612.564 19.0058 612.254 18.442 612.127 17.5326C612 16.6232 612.163 15.9502 612.6 15.5137C613.036 15.2045 613.873 15.0227 615.128 14.9499C616.383 14.8953 617.292 14.7317 617.856 14.477C625.422 12.8583 629.551 11.6943 630.242 11.0031C630.424 10.8212 630.533 10.5484 630.57 10.2029C630.606 9.85728 630.57 9.00245 630.424 7.62017C630.115 4.56459 629.951 2.70944 629.951 2.09105C629.951 1.47266 630.133 0.999762 630.515 0.690567C631.261 -0.127891 632.043 -0.218819 632.861 0.417759C633.352 0.854269 633.734 2.98225 633.989 6.80172L634.171 9.52991L634.153 9.51173ZM625.095 28.8819C625.932 29.2274 626.386 29.955 626.459 31.0826C626.514 31.4646 626.586 31.7374 626.641 31.9193C626.696 32.1011 626.805 32.1921 626.914 32.1557C627.041 32.1193 627.169 32.0648 627.296 31.9738C627.423 31.8829 627.623 31.7374 627.914 31.5555C628.205 31.3736 628.46 31.2099 628.715 31.0826C628.969 31.0281 629.424 30.7734 630.079 30.3369C630.733 29.9004 631.334 29.5185 631.861 29.2093C632.388 28.9001 633.043 28.5727 633.825 28.2271C634.607 27.8815 635.226 27.736 635.699 27.7542C636.172 27.7906 636.644 27.9543 637.154 28.2635C637.59 28.6454 637.717 29.3184 637.536 30.2824C637.354 31.2463 636.917 32.2103 636.226 33.1379L635.662 33.9745C636.481 34.5383 636.972 35.0112 637.154 35.375C637.208 36.1934 637.081 36.83 636.735 37.3029C636.39 37.7758 635.699 38.3214 634.68 38.9398C633.643 39.5582 632.97 40.0129 632.661 40.2493C629.406 42.5592 627.187 43.6323 626.004 43.4322C625.623 43.3777 625.313 43.214 625.059 42.9594C624.804 42.7047 624.549 42.3955 624.313 42.0136C624.058 41.6316 623.84 41.3588 623.658 41.1769C623.222 40.6858 623.003 39.9584 623.003 39.0126C623.131 35.957 623.04 34.0836 622.731 33.3925C622.167 32.0102 622.258 30.7734 623.003 29.6458C623.567 28.7727 624.277 28.4999 625.113 28.8455L625.095 28.8819ZM630.115 33.7199C629.678 33.9018 629.06 34.4474 628.278 35.3204C627.496 36.1934 627.078 36.8118 627.005 37.1938C626.878 37.7576 626.95 38.0304 627.187 38.0304C627.369 38.0304 628.078 37.3575 629.296 36.0116C630.515 34.6656 631.133 33.9018 631.133 33.7199C631.133 33.4652 630.788 33.4652 630.097 33.7199H630.115Z" fill="white"/>
<path d="M688.844 51.8169C688.535 52.1261 688.025 52.508 687.353 52.9445C685.406 54.1995 684.006 54.5087 683.133 53.8903C682.824 53.6357 682.624 53.1264 682.569 52.3443C682.514 51.5622 682.624 50.8711 682.951 50.2891C683.26 49.6889 683.733 49.5252 684.352 49.7798C684.97 49.9072 685.552 49.8526 686.079 49.6343C686.607 49.4161 687.207 49.0523 687.862 48.5613C688.517 48.0702 689.008 47.7428 689.317 47.6155C689.699 47.4336 690.426 46.8879 691.518 45.9785C692.609 45.0692 693.318 44.5599 693.627 44.4326C695.501 43.3049 696.628 43.1594 697.01 43.9597C697.574 44.96 697.392 45.6875 696.446 46.1241C696.01 46.2514 695.01 47.0153 693.445 48.4158C691.881 49.8162 690.845 50.6165 690.354 50.7984C689.662 51.1803 689.171 51.5259 688.862 51.8351L688.844 51.8169ZM698.12 57.4915C698.502 57.2733 698.993 57.4188 699.611 57.9099C699.993 58.4737 699.92 59.7468 699.429 61.7111C698.92 63.6754 698.393 65.2214 697.829 66.3491C697.392 67.1675 696.901 68.0951 696.374 69.1682C695.846 70.2413 695.537 70.8415 695.483 71.0052C695.428 71.1689 695.082 71.6236 694.446 72.4057C693.827 73.1877 693.245 73.8607 692.718 74.4245C692.191 74.9883 691.208 76.0796 689.771 77.6983C688.898 78.6441 688.244 79.1716 687.807 79.2989C687.116 79.4808 686.516 79.2625 685.97 78.6441C685.443 78.0257 685.243 77.2982 685.352 76.4797C685.406 76.0432 685.515 75.7704 685.679 75.6431C685.843 75.5158 686.188 75.3885 686.752 75.2612C687.243 75.0065 687.825 74.4427 688.48 73.5697C689.135 72.6967 689.681 72.0783 690.117 71.6963C691.117 70.6414 692.482 68.6226 694.191 65.6397C695.919 62.6751 696.992 60.438 697.429 58.9284C697.483 58.1827 697.701 57.6916 698.083 57.4733L698.12 57.4915ZM689.59 21.443C689.844 21.5703 690.481 21.9705 691.518 22.6616C692.554 23.3528 693.227 23.7529 693.536 23.8802C695.537 24.6987 696.737 25.2807 697.156 25.6081C697.556 25.9536 697.774 26.4993 697.774 27.245C697.829 27.9907 697.556 28.4272 696.938 28.5545C696.319 28.6818 695.464 28.4999 694.409 27.9907C692.918 27.1722 690.936 26.5175 688.498 26.0264C687.498 25.7718 686.898 25.4989 686.716 25.1897C686.534 24.8805 686.68 24.4804 687.189 23.9711C688.135 22.5343 688.935 21.6977 689.626 21.443H689.59ZM709.287 40.1948C709.851 39.5764 710.324 39.5764 710.742 40.2494C711.142 40.9041 711.542 41.9227 711.906 43.3049C712.034 43.9233 712.034 45.4511 711.906 47.8519C711.779 50.2527 711.633 51.6896 711.433 52.1261C711.179 52.7445 710.688 53.0901 709.942 53.1628C709.196 53.2356 708.723 52.9809 708.541 52.4171C708.232 49.3615 708.487 45.2874 709.287 40.2312V40.1948ZM716.035 32.0284C716.526 31.7192 716.944 31.3555 717.253 30.9553C717.563 30.5552 718.036 30.155 718.654 29.7913C719.272 29.4093 719.782 29.2275 720.145 29.2275C720.636 29.2275 721.018 29.5548 721.273 30.2096C721.528 30.8644 721.491 31.4828 721.182 32.0466C720.873 32.5559 720.582 32.9196 720.345 33.1742C720.091 33.4289 719.745 33.6835 719.309 33.9745C718.872 34.2473 718.581 34.4656 718.472 34.5929C717.654 35.4659 716.544 36.0116 715.144 36.2298C713.743 36.4481 712.597 36.0661 711.724 35.0658C711.215 34.502 710.997 33.9199 711.07 33.3379C711.124 32.7377 711.506 31.6101 712.197 29.9186C712.943 28.2999 713.252 27.4269 713.143 27.2995C713.016 27.245 712.488 27.3359 711.542 27.5724C710.287 28.1362 709.378 28.0453 708.814 27.2995C708.25 26.5538 708.305 25.699 708.996 24.7714C711.488 21.0793 712.87 18.3693 713.125 16.605C713.252 15.4774 713.398 14.8226 713.598 14.6407C713.798 14.4588 714.307 14.2588 715.198 14.0769C715.507 14.1497 715.689 14.2588 715.762 14.4043C715.817 14.568 715.853 15.0409 715.853 15.8593C715.98 16.4777 715.926 17.187 715.708 17.9691C715.489 18.7512 715.125 19.697 714.634 20.7883C714.125 21.8795 713.816 22.5889 713.689 22.8981C713.816 22.9708 714.252 22.8617 714.998 22.6252C717.181 21.8795 718.472 22.2433 718.836 23.7529C719.018 24.5714 718.563 25.5353 717.435 26.663C716.999 27.0995 716.38 28.0089 715.598 29.3911C714.816 30.7734 714.434 31.6465 714.434 32.0102C714.434 32.574 714.962 32.6104 716.035 32.1012V32.0284ZM713.925 45.0692C713.834 43.6869 713.78 42.4319 713.78 41.2679C713.78 40.1038 713.943 39.5582 714.252 39.631C714.871 39.1945 715.326 39.1217 715.617 39.3945C715.908 39.6673 716.235 40.5404 716.599 41.9772C717.163 45.7967 717.344 48.052 717.163 48.7249C716.853 49.798 715.999 50.0163 714.634 49.3797C714.198 49.0705 713.98 48.4339 713.98 47.5064C714.034 47.2517 714.034 46.4514 713.925 45.0692ZM719.927 38.8853C720.582 39.1399 721.164 39.5036 721.655 40.0129C722.528 40.9587 722.874 42.7593 722.692 45.4511C722.637 47.0153 722.51 48.0702 722.31 48.5976C722.128 49.1251 721.782 49.4525 721.273 49.5798C720.709 49.9617 720.2 49.7435 719.727 48.925C719.254 48.1066 719.181 47.3972 719.491 46.7606C719.8 46.2696 719.854 45.3238 719.636 43.9415C719.418 42.5592 719.181 41.668 718.927 41.2133C718.672 40.8314 718.527 40.3949 718.454 39.8492C718.399 39.3218 718.454 38.9944 718.636 38.8671C718.818 38.6125 719.254 38.6125 719.909 38.8671L719.927 38.8853ZM732.677 15.1682C731.895 15.6775 730.876 16.1322 729.621 16.5323C728.366 16.9324 727.566 17.2962 727.184 17.6054C726.184 18.2238 725.165 18.5148 724.129 18.442C723.092 18.3874 722.273 17.9691 721.637 17.2234C721.382 16.7323 721.419 16.314 721.728 16.0048C722.037 15.6956 722.783 15.3137 723.983 14.8772C724.238 14.8226 726.711 13.7495 731.385 11.6943C732.004 11.4397 732.55 11.4942 733.022 11.8398C733.495 12.1854 733.732 12.6401 733.732 13.2039C733.786 14.0223 733.441 14.6771 732.659 15.1682H732.677ZM734.605 2.89133C734.55 3.45515 734.223 3.87347 733.623 4.16448C733.022 4.4373 731.822 4.74648 730.003 5.05567C728.13 5.36487 726.82 5.49219 726.111 5.43763C725.383 5.38307 724.747 5.09205 724.183 4.60097C722.874 3.346 723.346 2.43661 725.584 1.87278C726.329 1.6909 727.366 1.49084 728.676 1.30896C732.804 0.745132 734.768 1.27259 734.587 2.90951L734.605 2.89133ZM731.658 21.825C731.313 22.1342 730.822 22.4616 730.167 22.8071C729.512 23.1527 729.003 23.4801 728.621 23.7893C727.675 24.3531 726.857 24.7532 726.129 24.9533C725.402 25.1715 724.838 25.1897 724.401 25.0078C723.965 24.826 723.747 24.4804 723.747 23.9711C723.747 23.4619 724.056 23.0981 724.692 22.8435C725.074 22.6616 725.838 22.0614 726.984 21.0611C728.148 20.0607 728.93 19.4969 729.367 19.3696C730.112 19.115 730.822 19.0968 731.476 19.315C732.131 19.5333 732.459 19.897 732.459 20.3881C732.277 21.0065 732.004 21.4794 731.658 21.7886V21.825ZM725.274 41.2315C725.62 40.2857 725.856 39.2672 725.984 38.1395C726.548 34.8293 727.166 32.865 727.857 32.2285C728.348 31.8465 729.112 31.7374 730.112 31.8465L730.021 33.538C729.967 34.4838 730.021 35.0112 730.167 35.1385C730.331 35.2659 730.749 35.084 731.44 34.5747C732.822 33.629 734.023 33.7563 735.059 34.9021C736.096 36.0661 736.26 37.5393 735.569 39.3581C735.187 40.3039 734.969 40.8859 734.914 41.1406C734.787 41.6498 734.132 42.4865 732.95 43.6687C731.767 44.8509 730.894 45.5784 730.331 45.8331C729.767 46.0877 728.857 46.1422 727.602 46.0149C725.656 45.8331 724.692 45.3056 724.692 44.4144C724.747 43.2322 724.965 42.1591 725.311 41.2315H725.274ZM729.021 27.9543C728.676 27.9907 728.403 28.0452 728.184 28.1362C727.966 28.2271 727.73 28.3726 727.475 28.5545C726.093 29.6822 725.42 29.5912 725.42 28.2817C725.42 28.1544 725.456 28.0271 725.511 27.8998C725.565 27.7724 725.693 27.6451 725.893 27.5178C726.075 27.3905 726.275 27.2814 726.457 27.1904C726.638 27.0995 726.857 26.9903 727.111 26.863C727.366 26.7357 727.584 26.6266 727.766 26.5357C727.948 26.4447 728.148 26.372 728.33 26.2992C728.512 26.2446 728.639 26.2083 728.712 26.2083C729.148 25.8991 729.512 25.8445 729.785 26.0628C730.058 26.281 730.185 26.572 730.167 26.954C730.131 27.3359 730.021 27.6087 729.84 27.7906C729.658 27.8634 729.385 27.8997 729.039 27.9361L729.021 27.9543ZM744.59 64.2393C744.936 64.3302 745.39 64.5303 745.954 64.8576C746.518 65.2942 747.118 65.9307 747.736 66.731C748.355 67.5495 748.682 68.1678 748.682 68.6044C748.737 68.9136 748.846 69.3319 749.01 69.8775C749.173 70.405 749.264 70.7869 749.282 71.0052C749.319 71.2234 749.337 71.5326 749.373 71.951C749.41 72.3511 749.373 72.7694 749.319 73.1695C749.264 73.5697 749.137 74.1153 748.991 74.7701C748.828 75.4248 748.628 76.2251 748.373 77.1527C748.191 77.8439 747.991 78.444 747.755 78.9897C747.536 79.5171 747.391 79.9173 747.336 80.1537C747.082 81.0267 746.045 82.4454 744.19 84.4279C742.353 86.3922 740.861 87.6653 739.734 88.2292C738.733 88.7202 737.26 89.0112 735.332 89.0658C734.077 89.1931 733.041 89.2113 732.186 89.1204C731.331 89.0294 730.64 88.7384 730.076 88.2837C729.512 87.829 729.112 87.4471 728.857 87.1561C728.603 86.8833 728.239 86.2467 727.784 85.2827C727.33 84.3187 726.984 83.6458 726.802 83.2638C726.056 81.8816 726.075 80.9903 726.893 80.5356C727.584 80.0991 728.203 80.4993 728.766 81.7543C729.148 82.3727 729.439 82.7728 729.658 82.9183C729.876 83.082 730.167 83.1547 730.549 83.1547C731.931 83.1547 732.804 83.5003 733.168 84.1914C733.35 84.5006 733.805 84.7371 734.532 84.9008C735.241 85.0645 735.914 85.1008 736.551 85.0463C737.551 84.919 738.915 84.0823 740.625 82.5182C742.353 80.954 743.353 79.6808 743.681 78.6805C745.499 74.9883 746.081 72.2419 745.463 70.4232C745.154 69.2955 744.754 68.5862 744.299 68.2588C743.826 67.9496 742.753 67.7314 741.061 67.604C739.988 67.5495 739.261 67.4949 738.861 67.4585C738.461 67.4222 738.024 67.2948 737.551 67.0766C737.078 66.8583 736.805 66.5673 736.715 66.1854C736.624 65.8034 736.569 65.2396 736.569 64.4939C736.624 63.9301 737.006 62.8388 737.697 61.2201C738.388 59.6013 739.006 58.2918 739.57 57.2733C740.007 56.5276 740.098 56.1092 739.843 56.0547C739.661 56.0001 739.188 56.0547 738.442 56.2002C737.697 56.3639 737.224 56.2729 737.042 55.9637C736.296 55.5272 736.06 54.9452 736.333 54.2359C736.605 53.5266 737.315 52.9627 738.442 52.599C740.625 51.8533 742.044 51.4713 742.662 51.4713C743.608 51.2167 744.263 51.5804 744.681 52.5444C745.081 53.5084 744.972 54.2723 744.354 54.8361C743.735 55.3999 742.808 56.9277 741.589 59.4376C740.37 61.9476 739.861 63.4026 740.043 63.8391C740.098 64.021 740.916 64.1119 742.48 64.1119C743.535 64.1119 744.244 64.1665 744.59 64.2574V64.2393ZM731.458 40.6131C732.368 39.2126 732.731 38.2487 732.531 37.7576C732.277 37.0119 731.458 37.794 730.094 40.1038C729.094 41.8499 728.839 42.7229 729.348 42.7229C729.858 42.7229 730.549 42.0136 731.458 40.6131ZM745.954 15.1136C747.264 12.5855 748.391 10.5666 749.337 9.05704C749.592 8.80241 749.901 8.0385 750.283 6.76534C750.665 5.49219 750.901 4.7465 751.029 4.56462C751.21 4.30998 751.556 4.23722 752.065 4.32816C752.556 4.4191 752.902 4.65555 753.102 5.03749C753.156 5.85595 753.229 6.43796 753.284 6.8199C753.338 7.20185 753.284 7.71112 753.047 8.36589C752.829 9.02066 752.647 9.49355 752.484 9.76637C752.32 10.0392 752.083 10.5121 751.738 11.1668C751.392 11.8216 751.119 12.3309 750.938 12.7128C750.065 14.5316 749.464 15.5865 749.155 15.8957C748.846 16.405 748.719 16.7869 748.773 17.0597C748.828 17.3325 749.046 17.4417 749.392 17.3325C749.737 17.2416 750.065 17.0052 750.374 16.6232C751.374 15.6229 752.356 15.0772 753.32 14.9863C754.284 14.8954 755.121 15.3864 755.812 16.4413C755.994 16.7505 755.885 17.1689 755.485 17.7145C755.084 18.2419 754.557 18.7876 753.939 19.3514C753.32 19.9152 752.902 20.3154 752.72 20.57C752.665 20.952 752.411 21.3157 751.974 21.6977C751.41 22.2615 751.247 22.6434 751.501 22.8253C751.556 22.8981 751.683 22.8617 751.883 22.7344C752.193 22.607 752.793 22.2069 753.666 21.5158C754.975 20.5154 755.976 20.3336 756.667 20.9519C757.485 21.5703 757.358 22.3524 756.285 23.2982C755.284 24.2985 754.539 25.026 754.03 25.4989C753.52 25.9718 752.702 26.5538 751.538 27.2268C750.374 27.9179 749.392 28.1908 748.591 28.0634C747.518 27.9361 746.9 27.4087 746.718 26.4629C746.536 25.5171 746.845 24.4622 747.664 23.28C748.228 22.407 748.482 21.8795 748.409 21.6795C748.355 21.4976 747.882 21.4612 747.009 21.5885C746.19 21.8432 745.518 21.7522 744.954 21.3157C744.39 20.8792 744.044 20.3518 743.917 19.7152C743.972 19.1514 744.663 17.6054 745.972 15.0772L745.954 15.1136ZM747.118 29.8822C747.464 29.6276 747.918 29.8277 748.482 30.4461C749.355 31.0644 749.828 32.5013 749.883 34.7202C749.937 36.9392 749.664 38.7398 749.046 40.1038C748.991 40.2312 748.846 40.9405 748.628 42.2682C748.409 43.5778 748.137 44.2689 747.827 44.3235C747.082 44.8873 746.427 45.0146 745.863 44.7054C745.299 44.3962 744.99 43.8688 744.917 43.1049C744.863 42.3592 744.972 41.5771 745.299 40.7586C745.554 40.0129 745.845 38.5579 746.191 36.3935C746.536 34.2292 746.7 32.5922 746.7 31.4646C746.645 30.6461 746.772 30.1187 747.118 29.8641V29.8822ZM754.575 33.92C754.83 34.6111 754.884 35.575 754.757 36.83C754.63 38.3942 754.484 39.4673 754.339 40.0675C754.175 40.6677 753.848 41.086 753.357 41.3406C752.538 41.8499 751.902 41.7953 751.429 41.1951C750.956 40.5949 750.847 39.831 751.101 38.9034C751.229 38.5215 751.338 37.6303 751.429 36.2298C751.52 34.8294 751.647 33.5562 751.811 32.4285C751.974 31.3009 752.138 30.7735 752.32 30.828C752.756 30.4461 753.156 30.4279 753.538 30.7371C753.92 31.0463 754.102 31.5737 754.102 32.3376C754.157 32.7195 754.32 33.247 754.575 33.9381V33.92ZM759.304 28.2453C759.704 28.2089 760.032 28.2999 760.286 28.4818C760.723 28.7364 760.959 29.8095 760.995 31.7192C761.032 33.6289 760.85 35.8661 760.486 38.4306C760.432 38.8671 759.922 39.7219 758.995 40.9587C758.049 42.2137 757.376 42.9594 756.94 43.214C755.867 43.5232 755.23 43.4868 755.012 43.0685C754.793 42.6684 755.121 42.0318 755.994 41.1406C756.739 40.1402 757.303 37.4484 757.685 33.0833C757.867 30.5188 758.122 28.991 758.431 28.4818C758.613 28.3544 758.922 28.2817 759.322 28.2453H759.304Z" fill="white"/>
<path d="M138.113 44.1961C139.968 43.9051 141.532 44.4144 142.805 45.7421C143.933 47.2154 144.478 48.925 144.46 50.8893C144.424 52.8536 143.805 54.636 142.623 56.2366C142.223 56.764 141.823 57.5461 141.423 58.5828C141.023 59.6195 140.586 60.4016 140.131 60.929C139.931 61.1291 139.586 61.5656 139.077 62.2204C138.585 62.8934 138.113 63.4754 137.676 63.9665C137.24 64.4575 136.858 64.8213 136.53 65.0213C136.057 65.2942 135.384 65.4579 134.493 65.5124C133.602 65.5852 132.838 65.476 132.256 65.2214C131.056 64.694 130.656 63.6572 131.056 62.1295C131.128 60.4744 131.183 59.2558 131.256 58.4919C131.328 57.728 131.256 56.5094 131.056 54.8543C130.856 53.1992 130.692 51.9806 130.565 51.2167C130.437 50.4528 130.219 49.2888 129.91 47.7246C129.619 46.1604 129.419 45.0874 129.364 44.4872C129.237 43.6141 129.291 42.9594 129.564 42.4865C129.837 42.0136 130.365 41.8863 131.165 42.0863C131.82 42.1591 132.329 42.3774 132.656 42.7775C132.984 43.1776 133.256 43.8688 133.456 44.8691C133.657 45.9422 133.82 46.4696 133.948 46.4696C134.875 45.2692 136.276 44.5235 138.131 44.2325L138.113 44.1961ZM140.55 50.5255C140.586 50.1982 140.513 49.8708 140.35 49.5798C140.186 49.2888 140.059 49.0887 140.004 48.9796C139.931 48.8886 139.731 48.7068 139.404 48.4339C139.004 48.1066 138.513 48.1429 137.949 48.5249C137.385 48.925 136.894 49.5616 136.494 50.4164C136.094 51.344 135.821 52.4535 135.694 53.763C135.566 55.0544 135.603 56.182 135.785 57.1096C135.985 58.0372 136.312 58.4373 136.785 58.31C137.785 58.1827 138.913 55.9819 140.186 51.726C140.386 51.2531 140.495 50.8529 140.532 50.5255H140.55ZM158.319 23.2254C159.92 22.2251 161.048 21.7341 161.721 21.7341C161.921 21.7341 162.121 21.9341 162.321 22.3342C162.521 22.7344 162.612 23.1709 162.612 23.6256C162.612 24.2985 162.43 24.8078 162.066 25.1716C161.702 25.5353 160.848 26.0264 159.52 26.6266L157.519 27.6269V29.2275C157.519 31.8829 158.083 33.6472 159.211 34.5202C159.611 34.8476 159.829 35.1022 159.865 35.2659C159.902 35.4295 159.865 35.7206 159.72 36.1207C158.792 38.4488 157.665 38.8489 156.319 37.3211C155.391 36.3208 154.827 35.1022 154.627 33.629C154.5 32.956 154.354 32.2831 154.227 31.5919C154.1 30.9008 153.936 30.3187 153.736 29.8459C153.609 29.6458 153.409 29.573 153.136 29.5912C152.863 29.6276 152.099 29.8459 150.844 30.246C149.716 30.5734 148.207 30.9371 146.297 31.3373C144.387 31.7374 143.151 31.9375 142.55 31.9375C141.823 32.0102 141.441 31.3918 141.405 30.1005C141.368 28.8091 141.514 27.9543 141.859 27.5542C141.932 27.4269 142.66 27.3177 144.06 27.2632C145.461 27.1904 146.843 27.154 148.207 27.1177C149.571 27.0813 150.244 26.9722 150.244 26.7721C151.099 26.372 151.663 26.0082 151.899 25.6808C152.135 25.3534 152.245 24.8078 152.245 24.0803C152.245 23.953 152.281 23.7893 152.336 23.5892C152.336 22.989 152.372 22.5343 152.426 22.2433C152.499 21.9523 152.554 21.5522 152.627 21.0429C152.699 20.5518 152.79 20.1699 152.918 19.9516C153.045 19.7152 153.209 19.4969 153.409 19.2968C153.609 19.0968 153.882 19.024 154.209 19.0968C154.536 19.1695 154.864 19.2968 155.209 19.4969C155.537 19.7697 155.7 20.3336 155.7 21.1884C155.828 23.7893 156.701 24.4804 158.301 23.28L158.319 23.2254ZM176.125 76.4616C175.634 76.0978 175.07 75.6431 174.47 75.1157C173.87 74.5882 173.434 74.2426 173.179 74.1153C172.306 74.3881 171.142 74.7883 169.687 75.3157C168.232 75.8432 166.649 76.4252 164.94 77.0618C163.248 77.6984 162.102 78.1167 161.502 78.3167C160.702 78.7169 159.902 78.7714 159.101 78.4622C158.301 78.153 157.81 77.7165 157.61 77.1163C157.41 76.6434 156.901 76.2615 156.064 75.9705C155.227 75.6795 154.809 75.152 154.809 74.4245C154.682 73.9516 154.573 73.5697 154.518 73.2787C154.445 72.9877 154.409 72.6057 154.373 72.1874C154.336 71.7509 154.3 71.4417 154.282 71.2416C154.245 71.0416 154.282 70.6232 154.336 69.9867C154.409 69.3501 154.445 68.8772 154.482 68.5316C154.518 68.2042 154.573 67.4949 154.682 66.44C154.773 65.3851 154.864 64.5121 154.936 63.8391C154.936 63.2389 154.936 62.4205 154.991 61.4019C155.027 60.3652 155.046 59.6923 155.046 59.3649C155.046 59.0375 155.1 58.4191 155.191 57.5279C155.282 56.6367 155.446 55.6909 155.646 54.6906C155.846 53.6903 156.082 52.3262 156.337 50.5983C157.137 46.6151 157.974 44.3417 158.829 43.8142C159.356 43.4868 159.938 43.5414 160.575 43.9597C161.211 44.3962 161.593 45.0146 161.721 45.7967C161.793 46.3969 161.884 46.7243 162.012 46.797C162.139 46.8698 162.484 46.7607 163.012 46.506C163.539 46.2332 164.067 46.0695 164.612 46.0149C165.467 45.8149 166.613 45.5239 168.014 45.1237C169.414 44.7236 170.451 44.4508 171.16 44.3235C171.851 44.1962 172.688 44.0688 173.652 43.9779C174.616 43.887 175.489 43.9052 176.289 44.0688C177.089 44.2325 177.89 44.5599 178.69 45.0146C180.29 45.7421 181.364 46.7425 181.927 48.0156C182.491 49.2888 182.873 51.7805 183.073 55.4909C183.2 57.7462 183.273 59.183 183.273 59.7832C183.273 60.3834 183.146 61.3838 182.873 62.7842C182.6 64.1847 182.4 65.3123 182.273 66.1854C182.2 67.2584 182.182 67.9496 182.218 68.277C182.255 68.6044 182.4 69.1136 182.673 69.7684C183.2 70.2958 183.419 70.8415 183.328 71.4235C183.237 71.9873 183.055 72.442 182.837 72.7694C182.6 73.0968 182.273 73.4787 181.836 73.9152C181.4 74.3518 181.127 74.6973 180.982 74.9701C180.654 75.4976 180.109 75.9523 179.381 76.3161C178.654 76.6798 177.981 76.8617 177.38 76.8617C177.053 76.989 176.635 76.8617 176.125 76.5161V76.4616ZM165.704 62.2386C165.504 62.3113 164.994 62.4386 164.158 62.6387C163.321 62.8388 162.703 63.0025 162.266 63.1298C161.83 63.2571 161.339 63.4572 160.775 63.73C160.211 64.0028 159.793 64.2575 159.52 64.5303C159.447 64.8577 159.283 66.4218 159.029 69.2228C158.901 71.6781 158.901 73.0968 159.029 73.4605C159.156 73.8243 159.793 73.8789 160.92 73.606C161.921 73.3332 162.612 72.9149 163.012 72.3147C165.34 67.0584 166.231 63.6936 165.704 62.2386ZM161.411 51.8533C160.884 52.6535 160.466 53.9267 160.156 55.6909C159.865 57.4552 159.902 58.5283 160.302 58.9284C160.629 59.3285 161.593 59.3467 163.194 58.983C164.794 58.6192 165.758 58.1645 166.086 57.637C166.213 57.3642 166.304 56.0729 166.34 53.7448C166.377 51.4168 166.34 50.1436 166.195 49.9617C165.194 49.1614 163.594 49.798 161.411 51.8533ZM173.033 53.7448C174.325 52.6172 175.307 52.0533 175.98 52.0533C176.38 52.0533 176.726 52.217 177.035 52.5444C177.326 52.8718 177.489 53.2356 177.489 53.6357C177.489 54.1086 176.817 54.9816 175.489 56.2729C174.161 57.5643 172.961 58.4191 171.888 58.8193C171.015 59.1466 170.378 59.8378 169.941 60.8563C169.505 61.893 169.159 63.2025 168.887 64.8031C168.614 66.4036 168.359 67.5677 168.086 68.2952C167.814 68.9681 167.632 69.4592 167.541 69.7866C167.45 70.114 167.377 70.4232 167.341 70.6778C167.304 70.9506 167.341 71.0961 167.395 71.1325C167.468 71.1689 167.632 71.187 167.886 71.187C168.141 71.187 168.432 71.1325 168.741 71.0416C169.05 70.9506 169.487 70.8415 170.087 70.7506C170.687 70.6596 171.251 70.5323 171.778 70.405C174.434 69.732 176.107 69.3501 176.762 69.2046C177.362 69.1318 177.762 68.9681 177.962 68.7135C178.162 68.4407 178.29 67.9132 178.363 67.113C178.435 66.5855 178.563 65.7852 178.763 64.7121C178.963 63.6572 179.108 62.8206 179.217 62.2204C179.326 61.6202 179.417 60.8381 179.508 59.8742C179.599 58.9102 179.636 57.9644 179.599 57.0368C179.563 56.1092 179.508 55.1453 179.454 54.145C179.181 51.8169 178.726 50.3073 178.053 49.598C177.38 48.9068 176.089 48.2521 174.161 47.6519C173.561 47.5791 172.852 47.6518 172.015 47.7973C171.178 47.961 170.669 48.1429 170.469 48.343C170.269 48.4703 170.142 49.7071 170.069 52.0351C170.069 53.5629 170.069 54.5269 170.123 54.927C170.16 55.3272 170.269 55.5272 170.469 55.5272C170.869 55.4545 171.724 54.8543 173.015 53.7266L173.033 53.7448ZM186.256 20.4245L188.657 20.2244C189.184 20.2244 190.094 20.1335 191.349 19.9334C192.604 19.7334 193.531 19.6424 194.095 19.6424C194.659 19.6424 195.368 19.7697 196.241 20.0426C196.969 20.7155 196.932 21.6977 196.15 23.0436C195.223 24.6441 194.095 25.0442 192.749 24.244C192.549 23.9166 191.403 23.8075 189.312 23.953C187.22 24.0803 185.911 24.1894 185.365 24.244C184.765 24.5168 184.237 25.7172 183.764 27.8452C183.692 28.7182 183.528 29.5185 183.273 30.2824C183 31.0463 182.782 31.6101 182.618 31.9738C182.455 32.3376 182.127 32.9196 181.673 33.7199C181.2 34.5202 180.909 35.0476 180.781 35.3204C180.654 35.5205 180.254 35.8115 179.581 36.2116C178.908 36.6118 178.453 36.6845 178.181 36.4117C177.908 36.1389 177.817 35.7933 177.89 35.3568C177.962 34.9203 178.29 34.0837 178.89 32.8105C180.09 30.2096 180.691 27.7179 180.691 25.3353C180.691 25.0079 180.636 24.8078 180.545 24.735C180.454 24.6623 180.054 24.6441 179.399 24.6441C178.144 24.6441 175.907 24.4804 172.706 24.153C169.505 23.8256 167.923 23.5165 167.923 23.2618C167.723 22.989 167.686 22.6252 167.832 22.1705C167.959 21.6977 168.232 21.3339 168.632 21.0793C169.232 20.6791 170.087 20.4427 171.233 20.3881C172.36 20.3154 173.743 20.3881 175.38 20.5336C177.017 20.6973 178.181 20.7519 178.926 20.6791C180.527 20.7519 181.491 20.6791 181.818 20.4245C182.146 20.1881 182.418 19.4787 182.618 18.2783C182.891 16.9506 183.146 16.0594 183.419 15.5865C183.692 15.1136 184.219 14.6953 185.019 14.2952C186.22 13.4221 187.02 13.313 187.42 13.9496C187.82 14.5862 187.693 15.6047 187.02 16.987C186.547 17.86 186.329 18.6421 186.329 19.3878V20.4791L186.256 20.4245Z" fill="white"/>
<path d="M217.74 38.1759C218.103 38.1032 218.449 38.1032 218.813 38.1759C219.176 38.2487 219.449 38.4669 219.668 38.8125C220.231 39.2308 220.632 39.831 220.832 40.5767C221.032 41.3224 221.25 42.7957 221.468 44.9964C221.832 48.6886 222.214 50.5437 222.632 50.5437C222.923 50.5437 223.451 49.2342 224.233 46.5969C225.651 44.0324 227.288 42.832 229.143 42.9775C229.853 42.832 230.944 43.4141 232.399 44.7418C233.854 46.0513 234.654 47.0698 234.8 47.7792C234.945 48.1975 235.2 48.8159 235.6 49.5979C235.982 50.38 236.291 51.1075 236.51 51.7805C236.728 52.4534 236.892 53.181 237.037 53.9631C237.328 55.3817 237.601 56.1456 237.892 56.2547C238.183 56.3639 238.71 55.9092 239.492 54.927C240.911 52.8718 241.911 52.2716 242.475 53.1082C242.839 53.5266 242.839 54.2541 242.475 55.2362C242.33 55.4545 241.802 56.3275 240.875 57.8553C239.947 59.3831 239.383 60.2561 239.165 60.4743C238.165 61.6747 237.674 63.4572 237.674 65.8034C237.674 67.0038 237.474 68.6044 237.092 70.605C236.71 72.5875 236.328 73.988 235.964 74.7701C235.546 75.5521 234.927 76.0614 234.145 76.316C233.363 76.5707 232.69 76.4433 232.126 75.9341C231.763 75.2975 231.635 74.8064 231.708 74.4972C231.781 74.1699 232.017 73.7334 232.399 73.1695C232.781 72.6057 233.018 72.1692 233.09 71.8964C233.236 71.3325 233.345 70.6232 233.418 69.7684C233.49 68.9135 233.454 68.4588 233.309 68.3861C233.236 68.3133 232.308 69.1318 230.544 70.8415C228.052 73.2605 226.452 74.4609 225.742 74.4609C225.67 74.4609 225.36 74.2244 224.833 73.7697C224.305 73.315 223.96 73.115 223.814 73.1877C223.596 73.2605 223.451 73.8607 223.396 75.0065C223.469 76.7889 222.687 77.9166 221.05 78.4258C220.413 78.4258 219.995 78.0803 219.831 77.3527C219.649 76.6434 219.558 74.6609 219.558 71.3871C219.486 64.9304 219.395 60.6926 219.286 58.7101C219.176 56.7276 218.849 53.9812 218.267 50.5073C217.849 47.7428 217.485 45.8876 217.194 44.96C216.903 44.0324 216.521 43.5777 216.03 43.5777C215.666 43.5777 214.902 44.1416 213.738 45.2874C212.574 46.4333 211.628 47.4881 210.919 48.4885C209.646 50.5437 208.773 51.8533 208.3 52.3807C207.845 52.9082 207.354 53.181 206.863 53.181C205.936 53.181 205.481 52.5808 205.481 51.3622C205.481 50.8711 205.845 49.9435 206.554 48.5976C207.263 47.2517 208.009 46.1422 208.791 45.2874C209.209 44.9418 210.046 43.3959 211.301 40.6495C212.538 37.9213 213.756 35.2477 214.921 32.665C216.085 30.0641 216.885 28.7728 217.321 28.7728C217.467 28.7 217.703 28.4999 218.067 28.1907C218.431 27.8633 218.685 27.6451 218.867 27.4996C219.049 27.3541 219.358 27.2268 219.831 27.1176C220.286 27.0085 220.704 27.1358 221.05 27.4996C221.414 27.7179 221.505 28.3181 221.377 29.3184C221.377 30.0277 220.959 31.0826 220.159 32.4649C219.34 33.8472 218.54 35.1203 217.758 36.3026C216.976 37.4666 216.63 38.1396 216.685 38.2669C217.048 38.3396 217.394 38.3396 217.758 38.2669L217.74 38.1759ZM233.672 59.9651C233.709 59.1466 233.472 58.6737 232.981 58.5282C232.345 58.6737 231.344 59.2739 229.998 60.347C228.652 61.4201 227.907 61.9839 227.761 62.0567C224.778 64.5484 223.323 66.4946 223.396 67.9132C223.396 69.9685 223.614 71.0052 224.033 71.0052C224.451 71.0052 226.052 69.6956 228.834 67.0584C231.599 64.4393 233.09 62.8024 233.309 62.1476C233.527 61.4929 233.636 60.7835 233.69 59.9651H233.672ZM227.125 49.0341C226.761 49.4524 226.488 49.8526 226.27 50.1982C226.052 50.5619 225.851 50.9439 225.633 51.3622C225.415 51.7805 225.251 52.1261 225.16 52.3807C225.051 52.6353 224.924 52.9991 224.778 53.5084C224.633 53.9994 224.524 54.3632 224.451 54.5815C224.378 54.7997 224.287 55.1998 224.178 55.8C224.069 56.4002 223.996 56.8004 223.96 56.9641C223.924 57.146 223.851 57.6006 223.742 58.3463C223.633 59.0921 223.542 59.565 223.469 59.7832C224.033 59.856 225.088 59.2921 226.615 58.0735C228.143 56.8731 229.234 56.1638 229.871 55.9456C231.435 55.0907 232.363 54.5087 232.636 54.1813C232.927 53.8539 232.927 53.3083 232.636 52.5262C231.999 50.471 231.326 49.0887 230.617 48.3612C229.053 47.3608 227.889 47.5791 227.106 48.9977L227.125 49.0341ZM265.883 48.7067C266.738 49.3433 267.302 49.6707 267.593 49.6707C267.666 49.5252 268.502 49.8344 270.103 50.5801C271.703 51.3258 273.449 52.1624 275.323 53.09C277.196 54.0176 278.36 54.5451 278.778 54.6906C279.706 54.9088 280.252 55.3999 280.433 56.182C280.615 56.9641 280.343 57.7462 279.633 58.5282C278.506 59.8741 277.178 59.8378 275.686 58.4191C274.832 57.5643 273.067 56.5275 270.412 55.2726C267.756 54.0358 266.174 53.5084 265.665 53.7266C265.592 53.7266 265.538 53.763 265.501 53.8357C265.465 53.9085 265.428 54.0358 265.392 54.2177C265.356 54.3996 265.301 54.5996 265.228 54.7997C265.156 55.018 265.083 55.3453 265.01 55.8182C264.937 56.2729 264.846 56.7458 264.737 57.2005C264.628 57.6552 264.464 58.31 264.264 59.1102C264.046 59.9287 263.882 60.7653 263.737 61.6202C261.955 68.8044 260.081 72.9877 258.08 74.1881C257.371 74.7519 256.625 74.9701 255.843 74.8246C253.934 74.6791 252.26 73.3332 250.842 70.7687C249.623 68.9863 249.314 67.7131 249.878 66.9311C250.296 66.44 250.914 66.7492 251.697 67.895C252.77 69.8775 253.897 70.8233 255.116 70.7142C256.316 70.605 257.244 69.5319 257.88 67.4585C259.299 63.9119 260.372 59.7832 261.082 55.0907C261.373 53.5266 261.409 52.599 261.191 52.3261C261.263 52.1806 260.554 51.8896 259.063 51.4167C257.571 50.962 255.662 50.38 253.37 49.7071C251.06 49.0341 249.732 48.6522 249.368 48.5794C249.005 48.4339 248.75 48.0884 248.568 47.5063C248.386 46.9425 248.405 46.4332 248.623 46.0149C249.332 45.3056 250.314 44.9782 251.551 45.051C252.788 45.1237 253.897 45.342 254.861 45.6876C255.825 46.0513 256.935 46.4696 258.226 46.9607C259.499 47.4518 260.499 47.7428 261.209 47.8155C261.627 47.8155 261.9 47.7792 262.009 47.7064C262.118 47.6337 262.209 47.379 262.282 46.9607C262.646 45.3965 262.9 42.6865 263.082 38.8125C263.264 34.9385 263.209 32.374 262.918 31.0826C262.7 30.5916 262.373 30.3733 261.9 30.446C261.445 30.5188 260.499 30.9371 259.081 31.7192C258.863 31.7919 258.372 32.0102 257.589 32.3558C256.807 32.7195 256.334 32.9378 256.153 33.0469C255.971 33.1561 255.571 33.3379 254.934 33.5744C254.297 33.829 253.879 33.9745 253.715 33.9927C253.534 34.0291 253.188 34.1018 252.642 34.211C252.097 34.3201 251.733 34.3383 251.515 34.2655C251.296 34.1928 250.987 34.1382 250.551 34.1018C250.132 34.0654 249.787 33.9381 249.532 33.7199C249.278 33.5016 248.987 33.2652 248.623 32.9742C248.259 32.6832 247.913 32.3376 247.55 31.9011C246.695 30.9735 246.167 29.3184 245.949 26.954C245.731 24.5713 245.986 22.7889 246.695 21.5703C247.113 21.0065 247.732 20.7155 248.514 20.7155C249.296 20.7155 249.969 21.0611 250.533 21.734C251.096 22.407 251.096 23.0981 250.533 23.8075C250.241 24.3713 250.151 25.1534 250.205 26.1537C250.278 27.154 250.532 28.0998 250.951 29.0274C251.369 29.955 251.769 30.3005 252.115 30.1005C253.388 30.0277 255.261 29.3184 257.717 27.9725C260.172 26.6266 262.1 25.9536 263.519 25.9536C264.446 26.0264 265.083 26.2992 265.428 26.7539C265.792 27.2086 266.138 28.2635 266.502 29.9004C266.793 30.7552 266.956 31.8647 267.029 33.2652C267.102 34.6475 267.102 35.866 267.029 36.8846C266.956 37.9213 266.829 39.3581 266.647 41.1951C266.465 43.0503 266.374 44.2143 266.374 44.7054L265.847 48.6522L265.883 48.7067Z" fill="white"/>
</svg>
