<svg width="676" height="188" viewBox="0 0 676 188" fill="none" xmlns="http://www.w3.org/2000/svg">
<rect width="665" height="173" transform="translate(11 12)" fill="#FA8334"/>
<rect width="665" height="173" fill="white"/>
<path d="M59.792 36.136L63.2 33.784C65.936 36.136 69.2 39.448 70.688 41.704L66.992 44.296C65.648 41.992 62.48 38.584 59.792 36.136ZM28.544 46.456H71.504V50.776H28.544V46.456ZM27.728 60.328C33.44 59.368 42.56 57.592 50.96 55.912L51.296 59.992C43.472 61.768 35.072 63.592 28.928 64.888L27.728 60.328ZM38.288 37.816H42.848V71.512C42.848 74.2 42.272 75.496 40.544 76.216C38.864 76.936 36.176 77.08 32.192 77.08C32 75.832 31.232 73.768 30.56 72.472C33.488 72.616 36.32 72.568 37.184 72.52C38 72.52 38.288 72.28 38.288 71.464V37.816ZM47.744 32.968L50.864 36.808C45.008 38.728 36.848 40.12 29.936 40.984C29.696 39.928 29.12 38.248 28.592 37.192C35.312 36.232 42.992 34.648 47.744 32.968ZM52.496 32.872H57.248C57.056 53.752 61.568 72.616 66.8 72.616C67.952 72.616 68.528 70.216 68.816 64.216C69.776 65.272 71.36 66.328 72.608 66.808C71.84 74.968 70.304 77.224 66.368 77.224C56.72 77.224 52.688 55.192 52.496 32.872ZM65.552 52.696L69.536 54.424C64.736 63.256 56.864 70.744 48.08 75.352C47.408 74.248 46.112 72.76 44.96 71.752C53.408 67.768 61.232 60.76 65.552 52.696ZM101.12 34.984L104.48 33.304C107.888 35.56 112.256 38.968 114.464 41.416L110.864 43.288C108.848 40.984 104.624 37.384 101.12 34.984ZM87.248 46.264L90.512 45.256C91.808 47.128 93.2 49.672 93.728 51.304L90.368 52.456C89.888 50.776 88.544 48.184 87.248 46.264ZM111.152 45.784L114.32 44.44C116.336 46.6 118.544 49.624 119.456 51.736L116.048 53.272C115.232 51.208 113.12 48.088 111.152 45.784ZM99.104 54.328L102.416 56.008C98.384 59.032 92.096 61.672 86.912 63.208C86.336 62.392 85.328 61.192 84.416 60.424C89.408 59.176 95.696 56.824 99.104 54.328ZM104.288 58.888L107.744 60.616C102.656 64.888 94.304 67.96 86.528 69.736C86.048 68.776 85.088 67.384 84.224 66.472C91.568 65.128 99.92 62.392 104.288 58.888ZM109.76 63.688L113.504 65.464C107.36 71.992 96.32 75.4 84.032 77.08C83.648 75.976 82.784 74.44 81.968 73.384C93.632 72.136 104.432 69.208 109.76 63.688ZM96.656 44.44L100.832 45.64C96.224 53.752 87.728 59.128 78.176 62.296C77.744 61.384 76.448 59.56 75.632 58.696C84.848 56.152 92.816 51.4 96.656 44.44ZM99.584 46.6C103.952 51.784 112.592 56.344 120.992 58.408C120.032 59.224 118.736 60.856 118.112 61.912C109.568 59.416 100.88 54.328 95.792 48.184L99.584 46.6ZM82.88 42.568C82.64 41.752 82.016 39.832 81.536 38.728C82.496 38.584 83.504 38.2 84.656 37.576C85.952 37 90.032 34.744 92.96 32.2L96.944 34.168C93.392 36.808 89.264 39.16 85.52 40.648V40.696C85.52 40.696 82.88 41.752 82.88 42.568ZM82.88 42.568L82.832 39.784L85.424 38.536L109.472 37.768C109.952 38.824 110.768 40.216 111.248 40.984C87.296 41.992 84.704 41.944 82.88 42.568ZM79.328 52.504C79.04 51.688 78.368 49.864 77.888 48.856C78.464 48.712 79.136 48.28 79.712 47.656C80.336 47.032 82.304 44.824 83.456 42.424L87.488 44.104C85.856 46.456 83.648 48.952 81.68 50.488V50.584C81.68 50.584 79.328 51.736 79.328 52.504ZM79.328 52.504L79.28 49.72L81.152 48.568L89.6 48.232C90.08 49.24 90.896 50.584 91.328 51.4C81.776 51.976 80.24 52.168 79.328 52.504ZM103.184 52.264C102.896 51.496 102.224 49.672 101.792 48.664C102.272 48.52 102.848 48.136 103.376 47.56C103.856 46.984 105.392 44.824 106.208 42.616L110.288 44.2C108.992 46.408 107.12 48.808 105.536 50.248V50.344C105.536 50.344 103.184 51.544 103.184 52.264ZM103.184 52.264L103.136 49.48L105.008 48.328L113.984 47.896C114.464 48.904 115.28 50.2 115.712 51.064C105.68 51.736 104.144 51.928 103.184 52.264ZM138.224 52.744H165.968V56.152H138.224V52.744ZM136.304 59.992H167.6V63.4H136.304V59.992ZM144.512 49.72H148.736V61.864H144.512V49.72ZM155.216 49.72H159.44V61.864H155.216V49.72ZM154.208 65.368L157.184 63.352C160.592 64.984 164.48 67.144 166.736 68.824L162.704 70.792C160.832 69.112 157.424 66.952 154.208 65.368ZM146.144 63.448L150.176 64.84C147.68 67.192 143.792 69.496 140.528 70.936C139.712 70.168 138.128 68.824 137.12 68.2C140.432 67.048 143.984 65.272 146.144 63.448ZM139.52 34.264H150.848V42.856H139.52V39.928H147.008V37.192H139.52V34.264ZM154.784 34.312H166.4V42.904H154.784V39.976H162.512V37.24H154.784V34.312ZM153.056 34.312H156.704V43.96C156.704 45.304 156.896 45.736 157.952 45.736C158.864 45.736 162.896 45.736 163.808 45.736C164.72 45.736 166.208 45.688 167.024 45.496C167.12 46.456 167.216 47.8 167.36 48.664C166.592 48.856 165.248 48.952 163.904 48.952C162.896 48.952 158.576 48.952 157.76 48.952C153.968 48.952 153.056 47.56 153.056 43.864V34.312ZM137.936 50.248L137.792 47.416L139.52 46.264L151.136 44.536C150.896 45.448 150.656 46.936 150.608 47.704C140.336 49.48 138.8 49.768 137.936 50.248ZM137.936 50.248C137.696 49.288 136.976 47.608 136.4 46.744C137.072 46.408 137.792 45.688 137.792 43.864V34.264H141.392V47.08C141.392 47.08 137.936 48.952 137.936 50.248ZM124.88 34.744L128.24 32.68C130.496 35.032 133.184 38.056 134.576 39.976L131.072 42.472C129.776 40.456 127.04 37.144 124.88 34.744ZM124.16 43.72H132.944V47.416H124.16V43.72ZM133.04 65.128C135.824 71.512 141.872 72.328 151.088 72.376C156.224 72.376 163.664 72.088 168.848 71.608C168.176 72.568 167.6 74.68 167.36 75.928C162.608 76.216 156.512 76.312 151.04 76.312C139.76 76.312 133.568 74.968 130.016 66.472L133.04 65.128ZM132.128 55.48H133.232L133.952 55.384L136.16 56.152C134.72 66.424 131.12 73.384 126.176 77.128C125.552 76.216 124.064 74.68 123.2 74.056C127.856 70.792 130.976 64.696 132.128 56.2V55.48ZM125.072 59.752V56.44L126.896 55.48H133.328V59.08H127.856C126.752 59.08 125.456 59.416 125.072 59.752ZM125.072 59.752C124.832 58.792 123.968 56.776 123.536 55.96C124.256 55.72 124.976 55.432 125.744 54.472C126.944 53.128 130.688 46.6 131.984 44.056V43.912L133.184 43.432L136.064 44.536C134.192 47.8 130.544 54.088 128.24 57.112C128.24 57.112 125.072 58.696 125.072 59.752ZM172.784 53.368H215.264V57.4H172.784V53.368ZM194.192 62.008H212.144V65.944H194.192V62.008ZM192.128 55.336H196.736V73.336H192.128V55.336ZM183.584 63.064C186.368 70.552 192.608 71.896 201.584 71.944C203.792 71.944 213.488 71.944 216.416 71.848C215.744 72.856 215.024 74.872 214.784 76.216H201.392C190.208 76.216 183.68 74.2 179.84 64.36L183.584 63.064ZM180.608 58.744L185.12 59.368C183.584 67.336 180.128 73.336 174.848 77.128C174.176 76.312 172.4 74.632 171.392 73.96C176.384 70.792 179.408 65.512 180.608 58.744ZM181.952 44.008V47.272H205.664V44.008H181.952ZM181.952 37.672V40.888H205.664V37.672H181.952ZM177.584 34.312H210.272V50.584H177.584V34.312ZM227.792 57.976H260.432V61.912H227.792V57.976ZM221.456 40.552H253.04V44.68H221.456V40.552ZM235.28 49.288H257.168V53.224H235.28V49.288ZM258.608 57.976H263.12C263.12 57.976 263.072 59.224 262.976 59.8C262.112 69.784 261.248 73.864 259.712 75.448C258.704 76.504 257.696 76.888 256.16 77.032C254.912 77.128 252.56 77.128 250.064 77.032C250.016 75.784 249.488 74.008 248.768 72.856C251.072 73.096 253.232 73.144 254.192 73.096C255.008 73.096 255.488 73.048 255.968 72.616C257.024 71.56 257.888 67.864 258.608 58.648V57.976ZM248.144 64.12L251.264 62.968C252.704 64.936 254.144 67.624 254.672 69.352L251.36 70.648C250.832 68.92 249.44 66.136 248.144 64.12ZM227.168 34.168L231.2 32.584C232.976 34.456 235.04 37.144 236 38.968L231.728 40.792C230.912 38.968 228.944 36.184 227.168 34.168ZM233.792 65.32L237.488 64.888C238.4 67.96 238.88 71.944 238.88 74.584L234.944 75.112C235.088 72.52 234.608 68.488 233.792 65.32ZM240.944 64.936L244.448 64.12C245.648 66.76 246.8 70.216 247.184 72.52L243.44 73.48C243.152 71.176 242.048 67.624 240.944 64.936ZM227.504 64.024L231.344 65.272C230.288 69.352 228.704 73.864 225.824 76.84L222.32 74.344C224.864 71.848 226.64 67.768 227.504 64.024ZM241.808 32.44L246.464 33.592C242.144 47.176 234.656 59.944 221.552 67.384C221.024 66.28 219.872 64.504 219.104 63.496C231.152 57.016 238.352 44.776 241.808 32.44ZM252.08 40.552H256.304C255.632 44.008 254.768 48.088 254 50.776L250.016 50.152C250.736 47.608 251.552 43.672 252.08 40.552ZM255.488 49.288H259.712C259.04 52.696 258.224 56.776 257.456 59.416L253.424 58.936C254.192 56.296 255.008 52.408 255.488 49.288ZM287.792 49.336H292.544V71.56C292.544 74.344 291.872 75.64 289.76 76.36C287.648 77.032 284.336 77.128 279.584 77.08C279.344 75.784 278.48 73.768 277.76 72.52C281.504 72.664 285.296 72.616 286.4 72.568C287.456 72.568 287.792 72.28 287.792 71.464V49.336ZM270.56 36.088H304.736V40.552H270.56V36.088ZM303.392 36.088H304.64L305.648 35.8L309.248 38.488C304.544 43.624 297.296 49.24 290.816 52.552C290.144 51.592 288.704 50.104 287.792 49.336C293.6 46.36 300.368 40.984 303.392 37.192V36.088ZM339.008 50.488H358.448V54.568H339.008V50.488ZM339.056 59.848H358.496V63.928H339.056V59.848ZM338.72 69.544H360.032V73.768H338.72V69.544ZM347.36 42.568H351.44V71.8H347.36V42.568ZM340.928 41.128H359.36V45.256H340.928V77.128H336.8V43.864L339.296 41.128H340.928ZM340.592 32.728L344.912 33.976C342.512 40.888 338.72 48.712 334.208 53.992C333.776 52.84 332.768 50.824 332.144 49.768C335.84 45.4 339.008 38.248 340.592 32.728ZM345.872 34.312L349.664 32.728C350.912 34.84 352.304 37.624 352.976 39.4L348.992 41.272C348.368 39.4 346.976 36.52 345.872 34.312ZM327.68 51.736L330.752 50.632C332.288 53.752 333.776 57.736 334.256 60.232L330.896 61.528C330.464 58.984 329.12 54.856 327.68 51.736ZM322.976 64.216L326.192 63.496C326.816 66.712 327.344 70.84 327.536 73.624L324.128 74.44C324.032 71.656 323.504 67.432 322.976 64.216ZM317.696 63.736L321.248 64.312C320.816 68.536 319.952 73.048 318.992 76.024C318.176 75.592 316.496 75.064 315.584 74.824C316.688 71.944 317.312 67.624 317.696 63.736ZM317.024 50.968C316.832 50.152 316.16 48.232 315.728 47.176C316.592 46.984 317.408 46.024 318.368 44.584C319.376 43.192 322.592 37.72 324.368 32.584L328.208 34.168C325.856 39.448 322.64 44.968 319.52 48.808V48.856C319.52 48.856 317.024 50.152 317.024 50.968ZM317.024 50.968L316.928 47.944L318.8 46.744L327.2 46.072C327.008 47.128 326.816 48.616 326.816 49.48C319.232 50.248 317.888 50.536 317.024 50.968ZM317.36 61.912C317.168 61.096 316.544 59.176 316.064 58.12C317.168 57.88 318.176 56.68 319.664 54.856C321.248 53.08 326.192 46.12 329.216 39.448L332.72 41.608C329.168 48.184 324.464 54.952 319.904 59.8V59.896C319.904 59.896 317.36 61.096 317.36 61.912ZM317.36 61.912L317.216 58.84L319.136 57.592L331.952 55.864C331.808 56.872 331.76 58.36 331.808 59.176C320.048 60.952 318.368 61.384 317.36 61.912ZM328.256 63.16L331.28 62.2C332.432 65.128 333.584 68.92 334.112 71.368L330.944 72.52C330.512 69.976 329.312 66.088 328.256 63.16ZM365.744 47.08H379.52V50.584H365.744V47.08ZM365.744 53.464H379.52V56.968H365.744V53.464ZM363.728 40.552H381.152V44.248H363.728V40.552ZM367.616 59.992H379.616V74.248H367.616V70.552H375.776V63.688H367.616V59.992ZM365.696 59.992H369.488V76.408H365.696V59.992ZM368.96 34.024L372.368 32.296C373.712 34.264 375.2 36.856 375.968 38.584L372.368 40.648C371.744 38.872 370.208 36.04 368.96 34.024ZM382.064 62.776H402.704V65.896H382.064V62.776ZM401.888 62.776H402.704L403.424 62.584L406.064 63.88C401.792 71.704 392.048 75.448 381.92 77.128C381.536 76.072 380.672 74.44 379.952 73.528C389.312 72.376 398.48 69.16 401.888 63.304V62.776ZM389.456 65.272C393.056 69.64 400.496 72.472 408.848 73.48C407.936 74.344 406.832 75.976 406.304 77.032C397.52 75.64 389.984 72.088 385.76 66.472L389.456 65.272ZM381.296 35.176H391.28V38.68H381.296V35.176ZM386.432 49.048H405.536V51.496H386.432V49.048ZM386.432 53.512H405.536V55.96H386.432V53.512ZM388.592 32.536H392.624V41.128H388.592V32.536ZM394.064 45.592H397.904V59.512H394.064V45.592ZM396.992 32.536H401.024V41.128H396.992V32.536ZM385.904 40.216L389.552 41.272C387.92 45.784 385.136 50.44 382.16 53.368C381.728 52.6 380.48 50.824 379.76 50.008C382.352 47.608 384.656 43.96 385.904 40.216ZM398.144 35.176H407.936V38.632H398.144V35.176ZM388.112 44.104H406.832V46.936H388.112V61.816H384.32V46.024L386.192 44.104H388.112ZM392.912 41.32L396.896 40.312C397.52 41.848 398.288 43.864 398.624 45.16L394.4 46.408C394.16 45.064 393.488 42.952 392.912 41.32ZM386.384 58.168H407.84V60.952H386.384V58.168ZM433.136 59.944H452.768V63.736H433.136V59.944ZM433.088 70.12H452.864V74.104H433.088V70.12ZM434.912 32.92H439.136V48.088H434.912V32.92ZM446.624 32.92H450.896V48.088H446.624V32.92ZM440.816 51.976H444.752V72.28H440.816V51.976ZM431.36 49.912H454.256V76.6H449.936V53.896H435.488V76.984H431.36V49.912ZM419.888 49.096L422.864 47.272C430.256 55.192 430.112 70.792 426.704 74.44C425.408 76.072 423.968 76.6 421.952 76.648C421.04 76.648 419.648 76.648 418.448 76.552C418.352 75.4 418.064 73.72 417.488 72.568C418.832 72.712 420.224 72.808 421.04 72.808C422.096 72.808 422.816 72.616 423.536 71.656C425.744 69.304 426.272 56.056 419.888 49.096ZM423.392 52.696L426.08 54.52C423.2 57.496 417.968 61.144 414.032 63.16C413.552 62.2 412.64 60.76 411.872 59.944C415.712 58.408 420.848 55.336 423.392 52.696ZM425.504 58.6L428.24 60.52C424.832 64.792 418.592 69.688 413.456 72.328C412.976 71.32 412.064 69.832 411.248 69.016C416.24 66.952 422.432 62.536 425.504 58.6ZM413.312 43.72L416.288 42.184C417.68 44.104 419.312 46.744 419.936 48.424L416.768 50.248C416.192 48.472 414.656 45.736 413.312 43.72ZM420.176 40.984L423.104 39.4C424.208 41.032 425.552 43.192 426.08 44.632L423.008 46.408C422.48 44.968 421.28 42.664 420.176 40.984ZM428.048 41.176L430.688 43.72C426.704 48.136 420.416 51.976 414.272 54.664C413.792 53.8 412.832 52.408 412.064 51.688C418.16 49.144 424.496 45.16 428.048 41.176ZM426.032 32.728L428.48 35.464C424.928 38.056 419.12 40.168 413.84 41.512C413.36 40.552 412.544 39.064 411.728 38.248C416.864 37.096 422.72 34.888 426.032 32.728ZM430.016 38.296H442.016V42.52H430.016V38.296ZM443.696 38.344H456.32V42.52H443.696V38.344ZM463.952 36.232H475.424V67.576H463.952V63.352H471.2V40.36H463.952V36.232ZM461.552 36.232H465.776V72.184H461.552V36.232ZM487.76 32.536H492.128V77.032H487.76V32.536ZM477.008 50.344H504.032V54.568H477.008V50.344ZM482.768 57.304L486.272 58.264C484.592 65.32 481.52 72.424 477.728 76.36C477.008 75.304 475.616 73.816 474.656 73C478.16 69.784 481.232 63.4 482.768 57.304ZM498.416 35.464L503.12 37.048C501.248 41.128 499.088 45.88 497.36 48.904L493.952 47.512C495.488 44.296 497.456 39.16 498.416 35.464ZM477.2 37.336L480.8 35.704C482.816 39.304 484.784 43.96 485.456 46.936L481.52 48.808C480.896 45.784 479.072 40.984 477.2 37.336ZM493.808 58.984L497.36 57.208C500.24 62.632 503.456 69.688 504.704 74.008L500.864 76.168C499.712 71.704 496.64 64.456 493.808 58.984ZM523.184 36.04H532.736V39.448H523.184V36.04ZM541.52 36.04H552.272V39.448H541.52V36.04ZM531.248 32.488H535.184V41.608H531.248V32.488ZM539.6 32.488H543.584V41.512H539.6V32.488ZM541.952 45.448V49.096H546.656V45.448H541.952ZM538.544 42.52H550.16V52.024H538.544V42.52ZM528.176 45.448V49.096H532.784V45.448H528.176ZM524.864 42.52H536.288V52.024H524.864V42.52ZM528.416 61.048H549.056V64.12H528.416V61.048ZM528.416 66.568H549.056V69.592H528.416V66.568ZM528.176 72.088H551.936V75.4H528.176V72.088ZM536.48 57.448H540.464V74.44H536.48V57.448ZM530.192 55.672H550.976V58.648H530.192V77.08H526.112V57.64L527.984 55.672H530.192ZM528.992 51.4L532.64 52.648C530.48 57.256 527.072 61.96 523.664 64.888C523.28 64.072 522.08 62.104 521.408 61.24C524.384 58.792 527.264 55.192 528.992 51.4ZM535.568 53.32L539.456 52.216C540.176 53.896 540.944 56.056 541.28 57.448L537.296 58.744C536.96 57.304 536.192 54.952 535.568 53.32ZM508.448 41.656H523.664V45.832H508.448V41.656ZM514.784 32.488H518.768V77.032H514.784V32.488ZM514.448 44.584L516.896 45.64C515.504 53.128 512.576 62.488 509.456 67.432C508.976 66.088 507.968 64.072 507.296 62.92C510.272 58.792 513.2 50.776 514.448 44.584ZM518.576 47.992C519.584 49.144 523.184 54.328 524 55.576L521.456 58.744C520.496 56.488 517.76 51.448 516.56 49.624L518.576 47.992ZM556.064 71.56H599.888V75.592H556.064V71.56ZM556.88 41.752H599.072V45.784H556.88V41.752ZM562.016 56.968H594.176V73.144H589.904V60.856H584.672V73.144H580.496V60.856H575.408V73.144H571.232V60.856H566.096V73.144H562.016V56.968ZM564.272 34.264L568.16 32.536C570.128 34.984 572.24 38.248 573.2 40.408L569.168 42.472C568.256 40.264 566.144 36.76 564.272 34.264ZM587.6 32.488L592.16 33.928C590.384 36.856 588.32 40.024 586.592 42.136L582.8 40.84C584.432 38.584 586.496 35.032 587.6 32.488ZM582.08 50.44L584.432 47.224C589.136 48.856 595.808 51.592 599.264 53.416L596.768 57.016C593.504 55.144 586.928 52.264 582.08 50.44ZM570.464 47.176L573.632 49.432C570.176 52.216 563.984 55.768 559.568 57.832C558.944 56.776 557.792 55.096 556.88 54.184C561.248 52.696 567.392 49.624 570.464 47.176ZM622.016 64.552L620.72 61.432C624.704 59.992 626.864 57.592 626.864 54.328L626.192 50.008L628.832 53.944C628.112 54.712 627.152 55 626.144 55C623.984 55 622.112 53.656 622.112 51.208C622.112 48.76 624.032 47.368 626.24 47.368C629.216 47.368 630.8 49.72 630.8 53.368C630.8 58.648 627.44 62.824 622.016 64.552ZM48.464 115.144H68.288V119.464H48.464V115.144ZM66.416 115.144H70.736C70.736 115.144 70.736 116.728 70.736 117.304C70.256 137.368 69.824 144.328 68.24 146.488C67.232 147.928 66.128 148.408 64.544 148.6C63.008 148.792 60.464 148.744 57.968 148.648C57.872 147.4 57.344 145.48 56.576 144.328C59.168 144.472 61.52 144.52 62.528 144.52C63.344 144.52 63.872 144.376 64.304 143.752C65.552 142.264 65.984 135.256 66.416 116.104V115.144ZM55.76 104.536H60.176C60.128 123.64 60.08 140.296 46.928 149.128C46.256 148.024 44.768 146.488 43.664 145.72C56.096 137.8 55.712 122.536 55.76 104.536ZM30.848 106.696H46.976V137.992H42.752V110.824H34.88V141.016H30.848V106.696ZM27.44 139.72C32.864 138.712 41.36 136.936 49.376 135.16L49.808 139.24C42.176 141.064 34.064 142.984 28.208 144.328L27.44 139.72ZM32.96 116.872H44.816V120.904H32.96V116.872ZM32.96 127H44.816V131.032H32.96V127ZM77.792 114.76H114.848V119.416H77.792V114.76ZM113.024 114.76H117.728C117.728 114.76 117.68 116.392 117.632 117.064C116.576 136.648 115.616 143.848 113.456 146.296C112.208 147.928 110.96 148.36 108.992 148.552C107.264 148.792 104.24 148.696 101.264 148.552C101.216 147.208 100.592 145.192 99.728 143.896C102.896 144.136 105.872 144.184 107.12 144.184C108.128 144.184 108.704 144.04 109.328 143.416C111.104 141.736 112.112 134.2 113.024 115.72V114.76ZM93.056 104.584H97.856V113.608C97.856 124.504 96.416 139.528 79.856 149.272C79.136 148.168 77.456 146.44 76.352 145.624C91.856 136.744 93.056 123.256 93.056 113.608V104.584ZM132.464 142.072H159.248V146.488H132.464V142.072ZM130.208 128.392H161.744V148.936H156.896V132.712H134.816V149.032H130.208V128.392ZM150.368 111.88L153.92 109.48C158.48 113.608 164.192 119.56 166.688 123.592L162.848 126.376C160.496 122.344 155.024 116.2 150.368 111.88ZM128.048 124.696C127.856 123.784 127.088 121.48 126.56 120.28C127.76 120.04 128.96 119.032 130.544 117.496C132.272 115.912 137.744 109.912 141.296 104.056L145.856 106.024C141.344 112.312 135.92 118.216 130.88 122.344V122.488C130.88 122.488 128.048 123.832 128.048 124.696ZM128.048 124.696L128 121.144L131.216 119.512L161.408 118.264C161.456 119.512 161.648 121.384 161.84 122.344C133.472 123.832 130.304 123.928 128.048 124.696ZM194 113.32H203.024V115.624H194V113.32ZM194 116.968H203.024V119.272H194V116.968ZM186.944 139.096H211.28V141.976H186.944V139.096ZM192.56 109.288H204.128V111.832H192.56V109.288ZM196.688 123.064V125.752H200.144V123.064H196.688ZM193.904 120.808H203.024V128.008H193.904V120.808ZM187.76 134.344H207.728V132.232H184.832V129.496H211.952V137.032H187.76V134.344ZM186.464 134.344H190.64C190.016 136.984 189.248 139.912 188.576 141.976H184.352C185.12 139.816 185.888 136.84 186.464 134.344ZM209.888 139.096H214.16C214.16 139.096 214.064 140.248 213.872 140.776C213.056 144.808 212.144 146.92 210.8 147.976C209.744 148.792 208.592 148.984 206.816 149.032C205.328 149.032 202.4 149.032 199.376 148.888C199.28 147.88 198.8 146.44 198.128 145.48C201.104 145.768 204.272 145.816 205.52 145.816C206.528 145.816 207.056 145.768 207.584 145.432C208.448 144.808 209.168 143.032 209.84 139.576L209.888 139.096ZM172.496 108.136L175.088 105.112C177.536 106.456 180.512 108.52 182 110.104L179.216 113.512C177.872 111.88 174.896 109.624 172.496 108.136ZM171.44 120.952L173.984 117.832C176.432 119.032 179.552 121 181.04 122.488L178.4 125.944C177.008 124.456 173.888 122.296 171.44 120.952ZM172.448 146.152C174.224 142.408 176.672 136.264 178.496 130.744L182.048 133.096C180.464 138.136 178.4 143.944 176.48 148.504L172.448 146.152ZM189.008 115.672L191.072 114.952C191.984 116.488 192.992 118.552 193.28 119.8L191.216 120.76C190.832 119.416 189.92 117.256 189.008 115.672ZM189.392 121.912L191.36 121.24C192.128 122.824 192.848 124.936 192.992 126.328L190.928 127.192C190.736 125.8 190.112 123.592 189.392 121.912ZM182.528 122.104L184.928 122.68C184.496 125.032 183.776 127.576 182.864 129.256C182.432 128.824 181.376 128.152 180.8 127.816C181.712 126.232 182.192 124.12 182.528 122.104ZM182.288 114.184C182.144 113.752 181.664 112.696 181.328 112.168C181.952 112.072 182.336 111.592 182.816 110.872C183.344 110.248 185.072 107.416 185.792 104.872L188.48 105.784C187.328 108.424 185.6 111.16 183.92 113.032V113.08C183.92 113.08 182.288 113.752 182.288 114.184ZM182.288 114.184L182.192 112.168L183.824 111.352L189.296 111.064C189.104 111.784 188.912 112.792 188.912 113.368C184.064 113.752 182.912 113.944 182.288 114.184ZM182.384 120.712C182.288 120.28 181.808 119.176 181.472 118.648C182.24 118.504 182.864 117.88 183.728 116.968C184.688 116.056 187.616 112.408 189.296 108.952L191.84 110.104C189.776 113.464 187.04 117.016 184.256 119.464V119.56C184.256 119.56 182.384 120.232 182.384 120.712ZM182.384 120.712L182.24 118.6L183.728 117.784L191.168 116.968C191.264 117.592 191.456 118.6 191.696 119.128C184.448 120.088 183.152 120.376 182.384 120.712ZM185.744 122.584L187.904 122.056C188.48 123.88 188.912 126.184 188.96 127.624L186.704 128.392C186.656 126.856 186.272 124.456 185.744 122.584ZM195.728 105.64L198.752 104.968C199.472 106.072 200.288 107.752 200.672 108.712L197.504 109.576C197.216 108.472 196.4 106.84 195.728 105.64ZM211.568 115.624L213.584 114.904C214.592 116.488 215.6 118.648 215.984 119.992L213.872 120.856C213.488 119.464 212.528 117.304 211.568 115.624ZM211.904 121.864L213.872 121.144C214.784 123.064 215.6 125.56 215.84 127.144L213.728 128.056C213.536 126.424 212.768 123.832 211.904 121.864ZM205.088 121.912L207.488 122.488C207.056 124.84 206.336 127.384 205.424 129.112C204.992 128.632 203.984 127.96 203.36 127.624C204.272 126.04 204.752 123.928 205.088 121.912ZM204.848 114.136C204.704 113.704 204.224 112.648 203.936 112.072C204.464 112.024 204.896 111.544 205.376 110.824C205.904 110.152 207.584 107.368 208.352 104.776L210.992 105.784C209.936 108.328 208.16 111.064 206.48 112.936V112.984C206.48 112.984 204.848 113.704 204.848 114.136ZM204.848 114.136L204.752 112.12L206.384 111.304L211.808 111.016C211.616 111.736 211.472 112.744 211.472 113.32C206.624 113.704 205.472 113.896 204.848 114.136ZM204.992 120.664C204.848 120.184 204.368 119.128 204.032 118.552C204.8 118.456 205.472 117.832 206.288 116.872C207.248 116.008 210.128 112.36 211.808 108.904L214.4 110.008C212.336 113.416 209.6 116.92 206.816 119.416V119.464C206.816 119.464 204.992 120.184 204.992 120.664ZM204.992 120.664L204.8 118.552L206.288 117.736L213.728 116.872C213.824 117.544 214.064 118.504 214.256 119.032C207.008 120.04 205.712 120.328 204.992 120.664ZM208.208 122.584L210.32 122.008C210.992 124.024 211.472 126.568 211.52 128.104L209.216 128.872C209.216 127.24 208.784 124.6 208.208 122.584ZM224.528 112.264H239.168V144.04H224.528V140.008H235.04V116.248H224.528V112.264ZM221.84 112.264H226.016V147.736H221.84V112.264ZM224.288 125.368H237.104V129.352H224.288V125.368ZM228.992 104.44L233.888 105.208C232.88 108.328 231.68 111.688 230.72 113.896L227.072 113.032C227.84 110.632 228.656 106.984 228.992 104.44ZM245.792 112.024H260.24V116.2H245.792V112.024ZM258.656 112.024H262.88C262.88 112.024 262.88 113.608 262.832 114.184C262.16 136.024 261.536 143.56 259.568 146.008C258.416 147.592 257.216 148.072 255.392 148.312C253.664 148.504 250.784 148.408 248.048 148.312C247.952 147.016 247.376 145.096 246.56 143.896C249.68 144.136 252.56 144.184 253.712 144.184C254.672 144.184 255.248 144.04 255.776 143.368C257.36 141.688 258.08 133.576 258.656 112.936V112.024ZM246.416 104.392L250.784 105.4C248.96 112.552 245.984 119.704 242.72 124.264C241.904 123.544 240.032 122.248 238.976 121.672C242.24 117.496 244.88 110.92 246.416 104.392ZM244.16 125.08L247.712 123.064C250.256 126.424 253.52 131.08 255.056 133.912L251.168 136.264C249.776 133.336 246.656 128.584 244.16 125.08ZM268.784 123.928H311.36V128.44H268.784V123.928ZM272.288 112.072H308V116.584H272.288V112.072ZM287.504 104.536H292.304V149.032H287.504V104.536ZM286.544 126.424L290.48 128.056C285.92 135.688 278.144 142.792 270.656 146.632C269.888 145.48 268.4 143.704 267.296 142.744C274.688 139.528 282.512 132.952 286.544 126.424ZM293.312 126.424C297.344 132.952 305.216 139.528 312.56 142.744C311.504 143.656 310.016 145.48 309.248 146.68C301.808 142.84 294.128 135.592 289.52 128.056L293.312 126.424ZM317.36 110.92H358.928V115.336H317.36V110.92ZM335.456 104.536H340.208V149.032H335.456V104.536ZM335.984 125.992L339.776 127.48C335.072 135.784 327.056 143.176 318.752 147.064C318.032 145.912 316.544 144.088 315.536 143.176C323.696 139.912 331.808 133.096 335.984 125.992ZM340.016 126.232C344.144 133.24 352.208 139.864 360.464 142.984C359.312 143.944 357.872 145.816 357.104 147.112C348.8 143.32 340.88 135.976 336.224 127.72L340.016 126.232ZM323.504 123.832L326.432 121C328.64 122.872 331.712 125.56 333.2 127.24L330.176 130.408C328.736 128.68 325.76 125.848 323.504 123.832ZM325.472 116.104L329.888 116.92C328.16 123.928 324.8 129.784 320.336 133.48C319.568 132.664 317.84 131.176 316.784 130.504C321.104 127.336 324.08 122.152 325.472 116.104ZM346.544 123.976L349.52 121.288C352.64 123.64 357.104 127.144 359.264 129.304L356.096 132.424C354.08 130.216 349.712 126.568 346.544 123.976ZM348.176 116.104L352.592 116.872C351.296 122.776 348.704 127.864 345.344 131.128C344.48 130.408 342.56 129.208 341.504 128.68C344.864 125.848 347.168 121.24 348.176 116.104ZM386.144 119.32C390.272 119.32 393.632 122.68 393.632 126.808C393.632 130.984 390.272 134.344 386.144 134.344C382.016 134.344 378.608 130.984 378.608 126.808C378.608 122.68 382.016 119.32 386.144 119.32ZM386.144 131.464C388.688 131.464 390.752 129.4 390.752 126.808C390.752 124.264 388.688 122.2 386.144 122.2C383.6 122.2 381.488 124.264 381.488 126.808C381.488 129.4 383.6 131.464 386.144 131.464Z" fill="#383838"/>
</svg>
