<svg width="790" height="190" viewBox="0 0 790 190" fill="none" xmlns="http://www.w3.org/2000/svg">
<g filter="url(#filter0_d_169_1032)">
<path d="M11.5289 11.8225L31.2206 157.601L722.617 140.919L722.024 117.604L790 65L721.235 86.6141L726.087 30.4611L11.5289 11.8225Z" fill="white"/>
</g>
<path d="M73.624 59.144H88.76V61.48H73.624V59.144ZM72.888 64.232H89.496V66.664H72.888V64.232ZM60.408 66.984H73.08V69.448H60.408V66.984ZM61.208 62.792H72.376V65.096H61.208V62.792ZM76.6 72.328H85.944V74.344H76.6V72.328ZM76.6 76.52H85.912V78.76H76.6V76.52ZM76.6 56.712H79.384V65.736H76.6V56.712ZM65.592 56.712H68.344V79.688H65.592V56.712ZM82.936 56.712H85.816V65.736H82.936V56.712ZM74.904 68.008H87.832V79.624H84.952V70.248H77.656V79.656H74.904V68.008ZM65.496 68.04L67.384 68.712C66.136 72.104 63.832 75.848 61.624 77.832C61.176 77.192 60.28 76.232 59.672 75.72C61.88 74.12 64.248 70.92 65.496 68.04ZM67.864 69.512C68.856 70.216 72.248 73.096 73.048 73.832L71.32 76.008C70.296 74.696 67.576 71.88 66.36 70.76L67.864 69.512ZM71.448 58.088L73.176 60.072C69.944 60.904 65.176 61.32 61.272 61.416C61.144 60.84 60.856 59.976 60.568 59.368C64.376 59.208 68.888 58.76 71.448 58.088ZM60.632 52.104H74.04V54.632H60.632V52.104ZM67.096 49.992H70.072V56.296H67.096V49.992ZM80.184 49.992H83.128V56.296H80.184V49.992ZM75.672 52.072H89.208V54.632H75.672V52.072ZM95.928 65.48H117.944V68.456H95.928V65.48ZM95.928 74.856H117.88V77.832H95.928V74.856ZM94.456 56.168H119.608V79.624H116.44V59.208H97.464V79.72H94.456V56.168ZM105.304 50.024H108.408V76.424H105.304V50.024ZM123.864 66.696C126.456 66.056 130.296 64.936 134.008 63.848L134.424 66.6C131.032 67.656 127.384 68.776 124.6 69.64L123.864 66.696ZM124.184 56.168H134.392V58.984H124.184V56.168ZM128.056 50.024H131V76.136C131 77.704 130.68 78.536 129.784 79.016C128.888 79.528 127.576 79.624 125.496 79.624C125.432 78.824 125.048 77.544 124.664 76.68C125.944 76.712 127.128 76.712 127.512 76.68C127.896 76.68 128.056 76.584 128.056 76.136V50.024ZM137.688 62.024H152.568V64.712H137.688V62.024ZM137.752 68.36H152.536V71.048H137.752V68.36ZM137.848 74.824H153.688V77.608H137.848V74.824ZM139.064 50.184L141.912 50.952C140.152 56.168 137.4 61.384 134.456 64.744C133.976 64.2 132.888 63.048 132.248 62.536C135.096 59.592 137.592 54.92 139.064 50.184ZM139.704 55.656H153.016V58.408H139.704V79.72H136.792V58.024L139.128 55.656H139.704ZM144.472 57.096H147.32V76.296H144.472V57.096ZM143.512 51.272L146.136 50.248C147.064 51.688 147.992 53.576 148.408 54.824L145.688 56.008C145.304 54.728 144.376 52.744 143.512 51.272ZM157.048 70.824H171.8V73.032H157.048V70.824ZM156.248 55.464H172.248V57.736H156.248V55.464ZM162.936 52.84H165.688V76.136H162.936V52.84ZM156.152 76.008C160.088 75.688 166.136 75.176 171.864 74.6L171.896 76.936C166.456 77.576 160.664 78.184 156.536 78.6L156.152 76.008ZM159.608 65.224V67.176H169.144V65.224H159.608ZM159.608 61.416V63.336H169.144V61.416H159.608ZM157.144 59.432H171.672V69.16H157.144V59.432ZM170.36 50.248L171.768 52.552C167.864 53.384 161.976 53.896 157.176 54.024C157.048 53.384 156.76 52.424 156.472 51.816C161.24 51.592 166.936 51.016 170.36 50.248ZM172.088 57.384H183.448V60.168H172.088V57.384ZM182.232 57.384H185.144C185.144 57.384 185.144 58.44 185.144 58.792C184.792 72.168 184.504 76.744 183.448 78.12C182.84 79.08 182.136 79.368 181.144 79.528C180.184 79.656 178.68 79.656 177.176 79.592C177.112 78.76 176.792 77.512 176.312 76.68C177.784 76.808 179.128 76.84 179.736 76.84C180.248 76.84 180.568 76.744 180.856 76.328C181.624 75.336 181.944 70.76 182.232 58.056V57.384ZM175.608 50.472H178.52C178.488 63.592 178.456 74.152 170.936 79.912C170.488 79.208 169.464 78.184 168.76 77.672C175.832 72.488 175.576 62.856 175.608 50.472ZM188.984 51.592H216.984V54.312H188.984V51.592ZM201.624 52.744H204.792V65.384C204.792 71.688 202.68 77.16 190.2 79.72C189.848 79.048 189.016 77.768 188.376 77.064C200.44 74.984 201.624 70.568 201.624 65.352V52.744ZM194.744 64.2V66.952H211.992V64.2H194.744ZM194.744 59.144V61.864H211.992V59.144H194.744ZM191.864 56.648H215V69.416H191.864V56.648ZM195.256 69.512C199.512 75.56 206.872 76.392 218.168 76.52C217.624 77.224 217.048 78.504 216.888 79.496C205.336 79.144 197.176 77.832 192.632 70.568L195.256 69.512ZM226.392 59.368H243.448V62.152H226.392V59.368ZM220.728 65.288H249.24V68.136H220.728V65.288ZM229.112 67.24H232.184C231.832 74.28 230.456 77.96 221.848 79.72C221.624 78.984 220.824 77.8 220.248 77.192C227.928 75.816 228.792 73.096 229.112 67.24ZM237.208 66.952H240.248V75.336C240.248 76.296 240.44 76.456 241.688 76.456C242.264 76.456 244.824 76.456 245.56 76.456C246.68 76.456 246.872 75.912 247 72.36C247.64 72.84 248.92 73.32 249.752 73.544C249.4 78.056 248.6 79.24 245.848 79.24C245.144 79.24 241.976 79.24 241.304 79.24C238.008 79.24 237.208 78.312 237.208 75.336V66.952ZM221.432 53.512H248.44V61H245.304V56.424H224.472V61H221.432V53.512ZM232.216 50.568L235.288 49.672C236.152 51.08 237.048 53 237.432 54.248L234.168 55.24C233.848 54.024 233.016 52.04 232.216 50.568ZM258.36 76.296H275.64V78.664H258.36V76.296ZM256.952 70.856H277.176V79.592H274.072V73.192H259.928V79.688H256.952V70.856ZM254.424 53.48H279.576V55.752H254.424V53.48ZM253.56 61.48H280.568V63.752H253.56V61.48ZM256.44 57.48H277.56V59.688H256.44V57.48ZM252.568 66.888H281.464V69.256H252.568V66.888ZM265.336 54.536H268.472V62.888H265.336V54.536ZM258.712 50.728L261.4 49.896C262.2 50.728 262.968 51.944 263.288 52.808L260.472 53.832C260.152 52.936 259.416 51.656 258.712 50.728ZM257.24 64.328L260.024 63.656C260.728 64.52 261.4 65.672 261.72 66.504L258.776 67.272C258.552 66.472 257.88 65.192 257.24 64.328ZM272.216 49.928L275.384 50.536C274.552 52.072 273.624 53.512 272.888 54.504L270.2 53.928C270.904 52.808 271.768 51.112 272.216 49.928ZM273.784 63.688L276.856 64.232C276.152 65.64 275.416 66.952 274.776 67.912L271.992 67.432C272.6 66.376 273.4 64.776 273.784 63.688ZM287.352 55.176H297.112V76.36H287.352V73.672H294.36V57.832H287.352V55.176ZM285.56 55.176H288.344V78.824H285.56V55.176ZM287.192 63.912H295.736V66.568H287.192V63.912ZM290.328 49.96L293.592 50.472C292.92 52.552 292.12 54.792 291.48 56.264L289.048 55.688C289.56 54.088 290.104 51.656 290.328 49.96ZM301.528 55.016H311.16V57.8H301.528V55.016ZM310.104 55.016H312.92C312.92 55.016 312.92 56.072 312.888 56.456C312.44 71.016 312.024 76.04 310.712 77.672C309.944 78.728 309.144 79.048 307.928 79.208C306.776 79.336 304.856 79.272 303.032 79.208C302.968 78.344 302.584 77.064 302.04 76.264C304.12 76.424 306.04 76.456 306.808 76.456C307.448 76.456 307.832 76.36 308.184 75.912C309.24 74.792 309.72 69.384 310.104 55.624V55.016ZM301.944 49.928L304.856 50.6C303.64 55.368 301.656 60.136 299.48 63.176C298.936 62.696 297.688 61.832 296.984 61.448C299.16 58.664 300.92 54.28 301.944 49.928ZM300.44 63.72L302.808 62.376C304.504 64.616 306.68 67.72 307.704 69.608L305.112 71.176C304.184 69.224 302.104 66.056 300.44 63.72ZM330.424 68.296H343.512V70.824H330.424V68.296ZM330.392 75.08H343.576V77.736H330.392V75.08ZM331.608 50.28H334.424V60.392H331.608V50.28ZM339.416 50.28H342.264V60.392H339.416V50.28ZM335.544 62.984H338.168V76.52H335.544V62.984ZM329.24 61.608H344.504V79.4H341.624V64.264H331.992V79.656H329.24V61.608ZM321.592 61.064L323.576 59.848C328.504 65.128 328.408 75.528 326.136 77.96C325.272 79.048 324.312 79.4 322.968 79.432C322.36 79.432 321.432 79.432 320.632 79.368C320.568 78.6 320.376 77.48 319.992 76.712C320.888 76.808 321.816 76.872 322.36 76.872C323.064 76.872 323.544 76.744 324.024 76.104C325.496 74.536 325.848 65.704 321.592 61.064ZM323.928 63.464L325.72 64.68C323.8 66.664 320.312 69.096 317.688 70.44C317.368 69.8 316.76 68.84 316.248 68.296C318.808 67.272 322.232 65.224 323.928 63.464ZM325.336 67.4L327.16 68.68C324.888 71.528 320.728 74.792 317.304 76.552C316.984 75.88 316.376 74.888 315.832 74.344C319.16 72.968 323.288 70.024 325.336 67.4ZM317.208 57.48L319.192 56.456C320.12 57.736 321.208 59.496 321.624 60.616L319.512 61.832C319.128 60.648 318.104 58.824 317.208 57.48ZM321.784 55.656L323.736 54.6C324.472 55.688 325.368 57.128 325.72 58.088L323.672 59.272C323.32 58.312 322.52 56.776 321.784 55.656ZM327.032 55.784L328.792 57.48C326.136 60.424 321.944 62.984 317.848 64.776C317.528 64.2 316.888 63.272 316.376 62.792C320.44 61.096 324.664 58.44 327.032 55.784ZM325.688 50.152L327.32 51.976C324.952 53.704 321.08 55.112 317.56 56.008C317.24 55.368 316.696 54.376 316.152 53.832C319.576 53.064 323.48 51.592 325.688 50.152ZM328.344 53.864H336.344V56.68H328.344V53.864ZM337.464 53.896H345.88V56.68H337.464V53.896ZM350.968 52.488H358.616V73.384H350.968V70.568H355.8V55.24H350.968V52.488ZM349.368 52.488H352.184V76.456H349.368V52.488ZM366.84 50.024H369.752V79.688H366.84V50.024ZM359.672 61.896H377.688V64.712H359.672V61.896ZM363.512 66.536L365.848 67.176C364.728 71.88 362.68 76.616 360.152 79.24C359.672 78.536 358.744 77.544 358.104 77C360.44 74.856 362.488 70.6 363.512 66.536ZM373.944 51.976L377.08 53.032C375.832 55.752 374.392 58.92 373.24 60.936L370.968 60.008C371.992 57.864 373.304 54.44 373.944 51.976ZM359.8 53.224L362.2 52.136C363.544 54.536 364.856 57.64 365.304 59.624L362.68 60.872C362.264 58.856 361.048 55.656 359.8 53.224ZM370.872 67.656L373.24 66.472C375.16 70.088 377.304 74.792 378.136 77.672L375.576 79.112C374.808 76.136 372.76 71.304 370.872 67.656ZM382.936 51.208L385.336 50.184C386.264 51.624 387.384 53.512 387.864 54.728L385.432 55.944C384.92 54.696 383.832 52.68 382.936 51.208ZM399.096 66.792H401.816V77.544H399.096V66.792ZM396.504 58.216V61.192H404.792V58.216H396.504ZM393.816 55.848H407.608V63.56H393.816V55.848ZM392.152 65.352H409.048V79.624H406.136V67.816H394.968V79.688H392.152V65.352ZM393.784 70.6H407.576V72.936H393.784V70.6ZM393.816 75.816H407.608V78.28H393.816V75.816ZM392.024 51.464H409.208V54.024H392.024V51.464ZM380.664 55.976H390.296V58.728H380.664V55.976ZM388.056 63.336C388.952 63.944 391.832 66.536 392.504 67.208L390.744 69.672C389.784 68.392 387.416 65.864 386.36 64.808L388.056 63.336ZM389.208 55.976H389.816L390.328 55.848L392.024 56.936C389.816 62.92 385.304 68.424 380.984 71.432C380.696 70.632 379.96 69.16 379.48 68.616C383.48 66.12 387.512 61.32 389.208 56.552V55.976ZM384.824 66.152L387.768 62.6V79.688H384.824V66.152ZM412.504 59.592H427.768V62.408H412.504V59.592ZM429.656 53.832H432.6V71.656H429.656V53.832ZM418.936 52.904H421.912V79.656H418.936V52.904ZM437.4 50.6H440.408V75.848C440.408 77.768 439.96 78.632 438.808 79.144C437.624 79.624 435.704 79.72 432.76 79.72C432.6 78.856 432.12 77.48 431.672 76.616C433.88 76.68 435.896 76.68 436.536 76.68C437.144 76.648 437.4 76.456 437.4 75.848V50.6ZM425.336 50.152L427.544 52.488C423.672 54.024 417.976 55.08 413.112 55.72C412.984 55.016 412.568 53.992 412.184 53.352C416.888 52.68 422.296 51.528 425.336 50.152ZM418.872 60.904L420.984 61.8C419.352 66.632 416.376 72.36 413.368 75.464C413.048 74.568 412.28 73.32 411.768 72.52C414.552 69.864 417.528 64.936 418.872 60.904ZM421.496 64.168C422.712 65 426.776 68.488 427.768 69.352L426.008 71.944C424.664 70.344 421.4 67.112 419.896 65.768L421.496 64.168ZM460.856 72.712H470.648V75.624H460.856V72.712ZM459.768 53H472.088V77.992H468.984V55.88H462.712V78.216H459.768V53ZM450.552 52.904H453.56V79.656H450.552V52.904ZM444.504 59.496H458.776V62.312H444.504V59.496ZM450.36 60.52L452.44 61.256C451 66.312 448.248 72.296 445.336 75.432C445.016 74.568 444.28 73.384 443.768 72.616C446.456 69.832 449.176 64.808 450.36 60.52ZM456.696 50.28L458.712 52.648C455.128 53.96 449.944 54.888 445.56 55.4C445.432 54.728 445.048 53.672 444.728 53C448.952 52.424 453.848 51.432 456.696 50.28ZM453.336 62.728C454.328 63.72 457.944 67.912 458.744 68.936L456.952 71.432C455.896 69.64 453.048 65.736 451.832 64.2L453.336 62.728ZM491.48 59.432H503.288V62.184H491.48V59.432ZM491.512 67.112H503.32V69.864H491.512V67.112ZM491.48 74.792H503.32V77.544H491.48V74.792ZM490.008 51.816H504.76V79.336H501.72V54.696H492.92V79.464H490.008V51.816ZM476.536 56.744H488.728V59.624H476.536V56.744ZM481.496 49.992H484.408V79.688H481.496V49.992ZM481.336 58.632L483.224 59.272C482.136 64.488 479.832 70.664 477.272 73.928C476.984 73.096 476.248 71.88 475.768 71.144C478.136 68.296 480.376 63.016 481.336 58.632ZM484.152 61.832C485.08 62.728 488.312 66.568 489.048 67.464L487.256 69.928C486.328 68.232 483.832 64.68 482.712 63.24L484.152 61.832ZM519.704 66.856L521.24 66.408C521.816 67.56 522.52 69.064 522.808 69.928L521.208 70.536C520.92 69.576 520.28 68.008 519.704 66.856ZM523.8 70.408H525.976V79.272H523.8V70.408ZM515.352 70.888H517.304V73.8H521.016V75.592H515.352V70.888ZM519.864 70.408H521.976V73.384C521.976 75.848 521.4 78.12 517.336 79.528C517.08 79.016 516.44 78.216 515.96 77.8C519.416 76.776 519.864 75.048 519.864 73.32V70.408ZM511.192 55.432H519.768V57.352H511.192V55.432ZM525.912 55.432H534.648V57.352H525.912V55.432ZM533.592 51.304H536.504V76.072C536.504 77.64 536.248 78.536 535.288 79.048C534.328 79.528 532.92 79.592 530.872 79.592C530.744 78.792 530.392 77.416 529.976 76.616C531.288 76.68 532.6 76.68 533.048 76.648C533.464 76.648 533.592 76.488 533.592 76.072V51.304ZM511.448 51.304H521.688V61.416H511.448V59.304H518.84V53.416H511.448V51.304ZM535.064 51.304V53.416H527.096V59.304H535.064V61.416H524.216V51.304H535.064ZM509.656 51.304H512.536V79.72H509.656V51.304ZM515 66.536C514.872 66.12 514.584 65.128 514.328 64.648C514.68 64.584 515.032 64.392 515.384 64.072C515.736 63.752 516.984 62.44 517.688 61.064L519.512 62.024C518.52 63.368 517.304 64.648 516.248 65.448V65.48C516.248 65.48 515 66.088 515 66.536ZM515 66.568L514.968 65.256L515.896 64.744L520.12 64.584C519.96 65.032 519.768 65.672 519.704 66.024C516.088 66.248 515.352 66.376 515 66.568ZM514.84 70.344C514.744 69.928 514.456 69 514.232 68.52C514.744 68.456 515.288 68.136 515.96 67.624C516.632 67.112 518.968 65.096 520.536 63.048L522.136 64.136C520.248 66.152 518.136 68.04 516.056 69.32V69.384C516.056 69.384 514.84 69.896 514.84 70.344ZM514.84 70.344L514.808 69L515.704 68.424L521.304 67.944C521.336 68.392 521.464 69.032 521.528 69.384C516.152 69.96 515.288 70.152 514.84 70.344ZM528.376 66.888L529.848 66.408C530.488 67.528 531.224 69.032 531.576 69.896L530.008 70.568C529.656 69.608 528.952 68.04 528.376 66.888ZM523.672 66.568C523.544 66.152 523.256 65.192 523 64.68C523.384 64.616 523.736 64.424 524.056 64.104C524.408 63.784 525.656 62.472 526.36 61.096L528.184 62.056C527.224 63.4 526.008 64.68 524.92 65.48V65.512C524.92 65.512 523.672 66.12 523.672 66.568ZM523.672 66.568L523.64 65.288L524.568 64.776L528.792 64.584C528.632 65.032 528.44 65.672 528.376 66.024C524.792 66.248 524.056 66.408 523.672 66.568ZM523.544 70.376C523.448 69.96 523.16 69.032 522.968 68.552C523.448 68.488 524.024 68.168 524.664 67.624C525.368 67.144 527.704 65.096 529.24 63.016L530.84 64.104C528.984 66.152 526.84 68.04 524.76 69.352V69.416C524.76 69.416 523.544 69.928 523.544 70.376ZM523.544 70.376L523.512 69.032L524.408 68.456L530.04 67.976C530.072 68.424 530.168 69.064 530.264 69.416C524.856 69.992 524.024 70.152 523.544 70.376ZM525.4 73.8H529.656V75.592H525.4V73.8ZM528.568 70.92H530.584V76.52H528.568V70.92ZM540.504 52.104H555.224V55.016H540.504V52.104ZM548.504 61.416H554.168V64.296H548.504V61.416ZM547.16 53.672H550.104V73.832H547.16V53.672ZM541.688 59.432H544.44V74.6H541.688V59.432ZM539.864 73.8C543.672 73.128 549.624 71.848 555.192 70.632L555.48 73.416C550.168 74.664 544.472 75.944 540.44 76.84L539.864 73.8ZM557.464 55.912H569.816V58.728H557.464V55.912ZM558.424 49.992L561.432 50.472C560.28 56.552 558.296 62.248 555.512 65.928C555.032 65.352 553.816 64.328 553.112 63.848C555.8 60.616 557.496 55.432 558.424 49.992ZM564.824 57.512L567.832 57.8C566.296 68.808 562.936 75.656 554.936 79.784C554.648 79.08 553.752 77.768 553.176 77.128C560.632 73.672 563.608 67.368 564.824 57.512ZM558.872 58.28C560.376 66.92 563.64 74.12 570.104 77.128C569.432 77.736 568.504 78.888 568.024 79.688C561.176 76.072 557.944 68.52 556.184 58.76L558.872 58.28ZM573.08 59.208H600.824V61.832H573.08V59.208ZM585.624 57.288H588.856V79.688H585.624V57.288ZM575.288 63.912H597.56V66.504H578.488V72.456H575.288V63.912ZM595.992 63.912H599.096V69.672C599.096 70.984 598.84 71.624 597.848 72.008C596.888 72.424 595.512 72.424 593.688 72.424C593.496 71.656 593.016 70.696 592.696 70.056C593.88 70.12 595.128 70.12 595.512 70.088C595.864 70.088 595.992 69.992 595.992 69.672V63.912ZM585.912 68.68L588.216 69.576C585.176 73.896 579.8 77.192 574.2 78.76C573.784 77.992 572.952 76.84 572.28 76.2C577.816 75.016 583.224 72.168 585.912 68.68ZM588.088 68.616C590.424 71.528 595.832 74.664 602.072 75.912C601.464 76.584 600.568 77.8 600.152 78.568C594.008 77 588.92 73.288 586.488 70.184L588.088 68.616ZM576.536 52.104H586.712V54.504H576.536V52.104ZM589.816 52.136H601.656V54.504H589.816V52.136ZM577.016 49.736L579.704 50.504C578.456 53.576 576.376 56.68 574.36 58.696C573.912 58.152 572.888 57.128 572.28 56.648C574.2 54.92 575.992 52.36 577.016 49.736ZM590.232 49.736L593.016 50.44C592.024 53.16 590.296 55.848 588.504 57.544C587.992 57.064 586.872 56.136 586.2 55.752C587.96 54.28 589.432 52.04 590.232 49.736ZM578.808 55.496L580.632 53.928C581.752 54.856 583.16 56.168 583.864 57.064L581.912 58.792C581.272 57.864 579.896 56.488 578.808 55.496ZM592.76 55.624L594.712 54.024C595.864 54.888 597.336 56.136 598.104 56.968L596.056 58.76C595.352 57.864 593.912 56.552 592.76 55.624ZM616.344 71.368L615.48 69.288C618.136 68.328 619.576 66.728 619.576 64.552L619.128 61.672L620.888 64.296C620.408 64.808 619.768 65 619.096 65C617.656 65 616.408 64.104 616.408 62.472C616.408 60.84 617.688 59.912 619.16 59.912C621.144 59.912 622.2 61.48 622.2 63.912C622.2 67.432 619.96 70.216 616.344 71.368ZM60.984 99.592H88.984V102.312H60.984V99.592ZM73.624 100.744H76.792V113.384C76.792 119.688 74.68 125.16 62.2 127.72C61.848 127.048 61.016 125.768 60.376 125.064C72.44 122.984 73.624 118.568 73.624 113.352V100.744ZM66.744 112.2V114.952H83.992V112.2H66.744ZM66.744 107.144V109.864H83.992V107.144H66.744ZM63.864 104.648H87V117.416H63.864V104.648ZM67.256 117.512C71.512 123.56 78.872 124.392 90.168 124.52C89.624 125.224 89.048 126.504 88.888 127.496C77.336 127.144 69.176 125.832 64.632 118.568L67.256 117.512ZM92.856 111.912H121.176V114.6H92.856V111.912ZM107.128 117.672H119.096V120.296H107.128V117.672ZM105.752 113.224H108.824V125.224H105.752V113.224ZM100.056 118.376C101.912 123.368 106.072 124.264 112.056 124.296C113.528 124.296 119.992 124.296 121.944 124.232C121.496 124.904 121.016 126.248 120.856 127.144H111.928C104.472 127.144 100.12 125.8 97.56 119.24L100.056 118.376ZM98.072 115.496L101.08 115.912C100.056 121.224 97.752 125.224 94.232 127.752C93.784 127.208 92.6 126.088 91.928 125.64C95.256 123.528 97.272 120.008 98.072 115.496ZM98.968 105.672V107.848H114.776V105.672H98.968ZM98.968 101.448V103.592H114.776V101.448H98.968ZM96.056 99.208H117.848V110.056H96.056V99.208ZM134.328 117.576H143.608V119.816H134.328V117.576ZM134.168 112.776H145.016V124.712H134.168V122.44H142.168V115.08H134.168V112.776ZM132.888 112.776H135.64V126.344H132.888V112.776ZM127.224 103.816H135.736V105.928H127.224V103.816ZM142.008 103.816H150.648V105.928H142.008V103.816ZM149.4 99.304H152.44V123.944C152.44 125.704 152.088 126.632 150.936 127.144C149.784 127.656 148.024 127.688 145.304 127.688C145.176 126.856 144.728 125.448 144.28 124.616C146.104 124.712 148.056 124.68 148.632 124.648C149.208 124.648 149.4 124.456 149.4 123.912V99.304ZM127.448 99.304H137.656V110.568H127.448V108.328H134.808V101.576H127.448V99.304ZM150.968 99.304V101.576H143.096V108.392H150.968V110.632H140.216V99.304H150.968ZM125.72 99.304H128.728V127.72H125.72V99.304ZM155.768 114.664C158.264 114.024 162.008 112.968 165.624 111.848L166.04 114.6C162.744 115.656 159.224 116.744 156.504 117.608L155.768 114.664ZM156.248 104.296H166.072V107.08H156.248V104.296ZM160.024 98.024H162.84V124.232C162.84 125.736 162.52 126.536 161.656 127.016C160.824 127.464 159.512 127.592 157.496 127.56C157.4 126.824 157.08 125.576 156.696 124.744C157.944 124.808 159.128 124.808 159.512 124.776C159.896 124.776 160.024 124.648 160.024 124.232V98.024ZM167.48 101.128H184.824V103.72H167.48V101.128ZM166.712 108.584H185.464V111.176H166.712V108.584ZM169.816 104.712L172.344 103.784C173.24 104.968 174.168 106.568 174.52 107.592L171.896 108.648C171.544 107.624 170.648 105.928 169.816 104.712ZM179.672 103.848L182.52 104.68C181.592 106.408 180.6 108.296 179.768 109.544L177.336 108.744C178.136 107.432 179.16 105.32 179.672 103.848ZM166.328 114.408H185.88V117H166.328V114.408ZM180.536 112.52L183.448 113C181.912 122.024 177.688 125.896 167.384 127.656C167.16 126.824 166.584 125.736 166.072 125.096C175.512 123.848 179.192 120.456 180.536 112.52ZM173.72 98.408L177.048 97.832C177.816 99.112 178.584 100.776 178.936 101.928L175.48 102.664C175.192 101.512 174.424 99.72 173.72 98.408ZM167.96 120.616C169.88 118.184 172.216 114.408 173.496 111.304L176.344 111.88C174.968 115.048 172.664 118.728 171 120.968L167.96 120.616ZM167.96 120.616L169.848 118.696C174.872 120.328 181.688 123.176 185.336 125.416L183.256 127.624C179.992 125.416 173.208 122.376 167.96 120.616ZM188.536 105.576H198.328V108.456H188.536V105.576ZM192.216 98.408H195.064V119.368H192.216V98.408ZM187.896 119.432C190.488 118.504 194.456 116.84 198.264 115.24L198.936 117.928C195.576 119.528 191.96 121.192 189.112 122.472L187.896 119.432ZM207.064 97.992H209.912V120.424H207.064V97.992ZM197.272 111.048L214.232 103.88L215.32 106.472L198.392 113.736L197.272 111.048ZM200.6 101.032H203.48V122.152C203.48 123.976 203.832 124.296 205.88 124.296C206.904 124.296 211.8 124.296 212.952 124.296C214.776 124.296 215.096 123.496 215.352 119.976C216.024 120.456 217.208 120.936 218.04 121.096C217.624 125.576 216.664 127.016 213.144 127.016C212.216 127.016 206.616 127.016 205.72 127.016C201.72 127.016 200.6 126.024 200.6 122.12V101.032ZM213.464 104.712H213.112L214.232 103.88L216.504 104.616L216.376 105.096C216.12 109.608 215.64 115.496 214.808 119.24L212.344 118.536C212.92 115.112 213.304 109.16 213.464 104.712ZM219.96 114.632C222.616 114.024 226.456 113 230.168 112.008L230.584 114.76C227.192 115.752 223.608 116.776 220.792 117.544L219.96 114.632ZM220.344 104.296H231.192V107.112H220.344V104.296ZM224.504 97.992H227.448V124.104C227.448 125.672 227.128 126.472 226.168 126.92C225.24 127.4 223.8 127.464 221.56 127.464C221.464 126.696 221.08 125.448 220.696 124.68C222.104 124.744 223.48 124.712 223.864 124.712C224.312 124.712 224.504 124.552 224.504 124.104V97.992ZM234.68 99.112H243.192V101.928H234.68V99.112ZM231.032 112.04H245.688V114.856H231.032V112.04ZM244.664 112.04H245.24L245.784 111.912L247.768 112.744C244.984 121.416 238.168 125.768 230.072 127.752C229.816 126.92 229.144 125.64 228.568 124.968C236.024 123.528 242.424 119.528 244.664 112.488V112.04ZM234.456 114.216C237.016 119.688 242.456 123.528 249.848 124.968C249.176 125.64 248.344 126.92 247.928 127.752C240.248 125.96 234.904 121.64 231.832 115.144L234.456 114.216ZM234.008 99.112H236.824V102.696C236.824 105.704 235.928 109.224 231.8 111.4C231.416 110.824 230.36 109.64 229.784 109.192C233.496 107.336 234.008 104.84 234.008 102.6V99.112ZM241.784 99.112H244.664V106.344C244.664 107.272 244.76 107.592 245.24 107.592C245.656 107.592 247 107.592 247.416 107.592C247.896 107.592 248.664 107.528 249.08 107.432C249.144 108.168 249.208 109.288 249.336 109.96C248.888 110.152 248.152 110.184 247.448 110.184C246.968 110.184 245.464 110.184 245.016 110.184C242.36 110.184 241.784 109.064 241.784 106.28V99.112ZM259.576 115.016V116.84H274.744V115.016H259.576ZM259.576 118.664V120.552H274.744V118.664H259.576ZM259.576 111.368V113.192H274.744V111.368H259.576ZM256.632 109.48H277.784V122.44H256.632V109.48ZM269.816 123.976L271.832 122.344C275.224 123.464 278.968 124.904 281.208 125.96L278.488 127.624C276.536 126.6 273.144 125.128 269.816 123.976ZM261.944 122.44L264.696 123.688C262.104 125.288 258.008 126.824 254.776 127.72C254.264 127.144 253.208 125.992 252.536 125.48C255.864 124.808 259.704 123.688 261.944 122.44ZM265.624 100.072H278.712V102.344H265.624V100.072ZM266.04 97.864L268.696 98.472C267.832 101.128 266.264 103.72 264.568 105.352C264.056 104.904 262.936 104.168 262.296 103.816C263.96 102.344 265.304 100.136 266.04 97.864ZM269.592 101.672H272.376V102.856C272.376 105.224 271.224 108.104 262.2 109.32C261.912 108.648 261.144 107.592 260.6 107.016C268.728 106.152 269.592 104.232 269.592 102.728V101.672ZM272.056 103.304C273.688 105.288 277.304 106.472 281.816 106.792C281.208 107.368 280.472 108.456 280.12 109.224C275.352 108.584 271.768 106.792 269.912 103.752L272.056 103.304ZM253.112 99.752H261.048V102.056H253.112V99.752ZM252.408 104.744H261.848V107.112H252.408V104.744ZM277.688 100.072H278.168L278.616 99.944L280.664 100.584C279.864 102.312 278.808 104.232 277.848 105.448L275.512 104.584C276.248 103.496 277.144 101.832 277.688 100.456V100.072ZM284.6 103.144H297.784V105.96H284.6V103.144ZM289.56 109.992H295V112.744H289.56V109.992ZM287.512 104.648H290.456C290.36 114.536 290.008 122.696 286.072 127.624C285.592 126.888 284.6 125.864 283.832 125.384C287.32 121.064 287.416 113.704 287.512 104.648ZM293.912 109.992H296.76C296.76 109.992 296.76 110.888 296.728 111.24C296.44 121.192 296.152 124.712 295.288 125.864C294.744 126.664 294.168 126.92 293.304 127.048C292.6 127.144 291.448 127.176 290.232 127.112C290.2 126.28 289.88 125.096 289.496 124.36C290.488 124.456 291.384 124.456 291.832 124.456C292.248 124.488 292.504 124.36 292.76 124.04C293.336 123.24 293.624 119.976 293.912 110.568V109.992ZM301.752 112.328L303.704 110.344C305.624 111.592 308.12 113.416 309.368 114.664L307.288 116.872C306.136 115.624 303.672 113.672 301.752 112.328ZM299.736 121.32L301.656 119.048C304.6 120.52 308.664 122.92 310.648 124.584L308.568 127.208C306.712 125.448 302.744 122.952 299.736 121.32ZM288.312 98.888L291 97.864C292.056 99.208 293.176 101.032 293.624 102.248L290.808 103.432C290.424 102.184 289.336 100.296 288.312 98.888ZM306.456 100.136C308.024 103.56 311.192 107.272 314.264 109C313.56 109.576 312.6 110.664 312.088 111.432C308.92 109.288 305.816 105.064 304.088 100.968L306.456 100.136ZM304.536 97.832L307.32 98.664C305.656 104.232 302.744 108.744 298.584 111.688C298.136 110.888 297.24 109.896 296.504 109.288C300.216 106.952 303.096 102.824 304.536 97.832ZM321.976 123.048H339.832V125.992H321.976V123.048ZM320.472 113.928H341.496V127.624H338.264V116.808H323.544V127.688H320.472V113.928ZM333.912 102.92L336.28 101.32C339.32 104.072 343.128 108.04 344.792 110.728L342.232 112.584C340.664 109.896 337.016 105.8 333.912 102.92ZM319.032 111.464C318.904 110.856 318.392 109.32 318.04 108.52C318.84 108.36 319.64 107.688 320.696 106.664C321.848 105.608 325.496 101.608 327.864 97.704L330.904 99.016C327.896 103.208 324.28 107.144 320.92 109.896V109.992C320.92 109.992 319.032 110.888 319.032 111.464ZM319.032 111.464L319 109.096L321.144 108.008L341.272 107.176C341.304 108.008 341.432 109.256 341.56 109.896C322.648 110.888 320.536 110.952 319.032 111.464ZM363 103.88H369.016V105.416H363V103.88ZM363 106.312H369.016V107.848H363V106.312ZM358.296 121.064H374.52V122.984H358.296V121.064ZM362.04 101.192H369.752V102.888H362.04V101.192ZM364.792 110.376V112.168H367.096V110.376H364.792ZM362.936 108.872H369.016V113.672H362.936V108.872ZM358.84 117.896H372.152V116.488H356.888V114.664H374.968V119.688H358.84V117.896ZM357.976 117.896H360.76C360.344 119.656 359.832 121.608 359.384 122.984H356.568C357.08 121.544 357.592 119.56 357.976 117.896ZM373.592 121.064H376.44C376.44 121.064 376.376 121.832 376.248 122.184C375.704 124.872 375.096 126.28 374.2 126.984C373.496 127.528 372.728 127.656 371.544 127.688C370.552 127.688 368.6 127.688 366.584 127.592C366.52 126.92 366.2 125.96 365.752 125.32C367.736 125.512 369.848 125.544 370.68 125.544C371.352 125.544 371.704 125.512 372.056 125.288C372.632 124.872 373.112 123.688 373.56 121.384L373.592 121.064ZM348.664 100.424L350.392 98.408C352.024 99.304 354.008 100.68 355 101.736L353.144 104.008C352.248 102.92 350.264 101.416 348.664 100.424ZM347.96 108.968L349.656 106.888C351.288 107.688 353.368 109 354.36 109.992L352.6 112.296C351.672 111.304 349.592 109.864 347.96 108.968ZM348.632 125.768C349.816 123.272 351.448 119.176 352.664 115.496L355.032 117.064C353.976 120.424 352.6 124.296 351.32 127.336L348.632 125.768ZM359.672 105.448L361.048 104.968C361.656 105.992 362.328 107.368 362.52 108.2L361.144 108.84C360.888 107.944 360.28 106.504 359.672 105.448ZM359.928 109.608L361.24 109.16C361.752 110.216 362.232 111.624 362.328 112.552L360.952 113.128C360.824 112.2 360.408 110.728 359.928 109.608ZM355.352 109.736L356.952 110.12C356.664 111.688 356.184 113.384 355.576 114.504C355.288 114.216 354.584 113.768 354.2 113.544C354.808 112.488 355.128 111.08 355.352 109.736ZM355.192 104.456C355.096 104.168 354.776 103.464 354.552 103.112C354.968 103.048 355.224 102.728 355.544 102.248C355.896 101.832 357.048 99.944 357.528 98.248L359.32 98.856C358.552 100.616 357.4 102.44 356.28 103.688V103.72C356.28 103.72 355.192 104.168 355.192 104.456ZM355.192 104.456L355.128 103.112L356.216 102.568L359.864 102.376C359.736 102.856 359.608 103.528 359.608 103.912C356.376 104.168 355.608 104.296 355.192 104.456ZM355.256 108.808C355.192 108.52 354.872 107.784 354.648 107.432C355.16 107.336 355.576 106.92 356.152 106.312C356.792 105.704 358.744 103.272 359.864 100.968L361.56 101.736C360.184 103.976 358.36 106.344 356.504 107.976V108.04C356.504 108.04 355.256 108.488 355.256 108.808ZM355.256 108.808L355.16 107.4L356.152 106.856L361.112 106.312C361.176 106.728 361.304 107.4 361.464 107.752C356.632 108.392 355.768 108.584 355.256 108.808ZM357.496 110.056L358.936 109.704C359.32 110.92 359.608 112.456 359.64 113.416L358.136 113.928C358.104 112.904 357.848 111.304 357.496 110.056ZM364.152 98.76L366.168 98.312C366.648 99.048 367.192 100.168 367.448 100.808L365.336 101.384C365.144 100.648 364.6 99.56 364.152 98.76ZM374.712 105.416L376.056 104.936C376.728 105.992 377.4 107.432 377.656 108.328L376.248 108.904C375.992 107.976 375.352 106.536 374.712 105.416ZM374.936 109.576L376.248 109.096C376.856 110.376 377.4 112.04 377.56 113.096L376.152 113.704C376.024 112.616 375.512 110.888 374.936 109.576ZM370.392 109.608L371.992 109.992C371.704 111.56 371.224 113.256 370.616 114.408C370.328 114.088 369.656 113.64 369.24 113.416C369.848 112.36 370.168 110.952 370.392 109.608ZM370.232 104.424C370.136 104.136 369.816 103.432 369.624 103.048C369.976 103.016 370.264 102.696 370.584 102.216C370.936 101.768 372.056 99.912 372.568 98.184L374.328 98.856C373.624 100.552 372.44 102.376 371.32 103.624V103.656C371.32 103.656 370.232 104.136 370.232 104.424ZM370.232 104.424L370.168 103.08L371.256 102.536L374.872 102.344C374.744 102.824 374.648 103.496 374.648 103.88C371.416 104.136 370.648 104.264 370.232 104.424ZM370.328 108.776C370.232 108.456 369.912 107.752 369.688 107.368C370.2 107.304 370.648 106.888 371.192 106.248C371.832 105.672 373.752 103.24 374.872 100.936L376.6 101.672C375.224 103.944 373.4 106.28 371.544 107.944V107.976C371.544 107.976 370.328 108.456 370.328 108.776ZM370.328 108.776L370.2 107.368L371.192 106.824L376.152 106.248C376.216 106.696 376.376 107.336 376.504 107.688C371.672 108.36 370.808 108.552 370.328 108.776ZM372.472 110.056L373.88 109.672C374.328 111.016 374.648 112.712 374.68 113.736L373.144 114.248C373.144 113.16 372.856 111.4 372.472 110.056ZM383.352 103.176H393.112V124.36H383.352V121.672H390.36V105.832H383.352V103.176ZM381.56 103.176H384.344V126.824H381.56V103.176ZM383.192 111.912H391.736V114.568H383.192V111.912ZM386.328 97.96L389.592 98.472C388.92 100.552 388.12 102.792 387.48 104.264L385.048 103.688C385.56 102.088 386.104 99.656 386.328 97.96ZM397.528 103.016H407.16V105.8H397.528V103.016ZM406.104 103.016H408.92C408.92 103.016 408.92 104.072 408.888 104.456C408.44 119.016 408.024 124.04 406.712 125.672C405.944 126.728 405.144 127.048 403.928 127.208C402.776 127.336 400.856 127.272 399.032 127.208C398.968 126.344 398.584 125.064 398.04 124.264C400.12 124.424 402.04 124.456 402.808 124.456C403.448 124.456 403.832 124.36 404.184 123.912C405.24 122.792 405.72 117.384 406.104 103.624V103.016ZM397.944 97.928L400.856 98.6C399.64 103.368 397.656 108.136 395.48 111.176C394.936 110.696 393.688 109.832 392.984 109.448C395.16 106.664 396.92 102.28 397.944 97.928ZM396.44 111.72L398.808 110.376C400.504 112.616 402.68 115.72 403.704 117.608L401.112 119.176C400.184 117.224 398.104 114.056 396.44 111.72ZM412.856 110.952H441.24V113.96H412.856V110.952ZM415.192 103.048H439V106.056H415.192V103.048ZM425.336 98.024H428.536V127.688H425.336V98.024ZM424.696 112.616L427.32 113.704C424.28 118.792 419.096 123.528 414.104 126.088C413.592 125.32 412.6 124.136 411.864 123.496C416.792 121.352 422.008 116.968 424.696 112.616ZM429.208 112.616C431.896 116.968 437.144 121.352 442.04 123.496C441.336 124.104 440.344 125.32 439.832 126.12C434.872 123.56 429.752 118.728 426.68 113.704L429.208 112.616ZM445.24 102.28H472.952V105.224H445.24V102.28ZM457.304 98.024H460.472V127.688H457.304V98.024ZM457.656 112.328L460.184 113.32C457.048 118.856 451.704 123.784 446.168 126.376C445.688 125.608 444.696 124.392 444.024 123.784C449.464 121.608 454.872 117.064 457.656 112.328ZM460.344 112.488C463.096 117.16 468.472 121.576 473.976 123.656C473.208 124.296 472.248 125.544 471.736 126.408C466.2 123.88 460.92 118.984 457.816 113.48L460.344 112.488ZM449.336 110.888L451.288 109C452.76 110.248 454.808 112.04 455.8 113.16L453.784 115.272C452.824 114.12 450.84 112.232 449.336 110.888ZM450.648 105.736L453.592 106.28C452.44 110.952 450.2 114.856 447.224 117.32C446.712 116.776 445.56 115.784 444.856 115.336C447.736 113.224 449.72 109.768 450.648 105.736ZM464.696 110.984L466.68 109.192C468.76 110.76 471.736 113.096 473.176 114.536L471.064 116.616C469.72 115.144 466.808 112.712 464.696 110.984ZM465.784 105.736L468.728 106.248C467.864 110.184 466.136 113.576 463.896 115.752C463.32 115.272 462.04 114.472 461.336 114.12C463.576 112.232 465.112 109.16 465.784 105.736ZM491.096 107.88C493.848 107.88 496.088 110.12 496.088 112.872C496.088 115.656 493.848 117.896 491.096 117.896C488.344 117.896 486.072 115.656 486.072 112.872C486.072 110.12 488.344 107.88 491.096 107.88ZM491.096 115.976C492.792 115.976 494.168 114.6 494.168 112.872C494.168 111.176 492.792 109.8 491.096 109.8C489.4 109.8 487.992 111.176 487.992 112.872C487.992 114.6 489.4 115.976 491.096 115.976Z" fill="#383838"/>
<defs>
<filter id="filter0_d_169_1032" x="4.52887" y="11.8225" width="785.471" height="156.778" filterUnits="userSpaceOnUse" color-interpolation-filters="sRGB">
<feFlood flood-opacity="0" result="BackgroundImageFix"/>
<feColorMatrix in="SourceAlpha" type="matrix" values="0 0 0 0 0 0 0 0 0 0 0 0 0 0 0 0 0 0 127 0" result="hardAlpha"/>
<feOffset dx="-7" dy="11"/>
<feComposite in2="hardAlpha" operator="out"/>
<feColorMatrix type="matrix" values="0 0 0 0 0.337255 0 0 0 0 0.356863 0 0 0 0 0.74902 0 0 0 1 0"/>
<feBlend mode="normal" in2="BackgroundImageFix" result="effect1_dropShadow_169_1032"/>
<feBlend mode="normal" in="SourceGraphic" in2="effect1_dropShadow_169_1032" result="shape"/>
</filter>
</defs>
</svg>
