<svg width="64" height="64" viewBox="0 0 64 64" fill="none" xmlns="http://www.w3.org/2000/svg">
<g clip-path="url(#clip0_50_524)">
<path d="M61.1189 39.8016C56.8306 55.8056 40.3805 65.3031 24.3765 61.0148C8.37253 56.7266 -1.12494 40.2765 3.16331 24.2725C7.45157 8.2685 23.9017 -1.22898 39.9057 3.05928C55.9096 7.34753 65.4071 23.7976 61.1189 39.8016Z" stroke="#FA8334" stroke-width="4"/>
<path d="M49.5566 40.7004C50.5325 44.1665 48.4298 47.7677 44.8845 48.5948C44.1553 48.765 43.4209 48.798 42.7099 48.7129C40.8594 48.4891 38.9848 48.5867 37.1893 49.0914L36.706 49.2272C34.8581 49.7475 33.1366 50.634 31.6324 51.826C30.9205 52.39 30.0741 52.8105 29.1236 53.0305C25.9558 53.7675 22.7032 51.943 21.6793 48.8567C21.0049 46.8217 21.4126 44.7109 22.5717 43.1185C24.236 40.8316 25.0628 38.04 25.0307 35.2108C24.9917 31.9268 26.0298 28.1605 30.5785 26.8818C35.0801 25.6158 37.9347 28.2997 39.6286 31.1245C41.0955 33.5724 43.3224 35.4654 45.9459 36.5876C47.6481 37.3158 49.0165 38.779 49.5566 40.7004Z" fill="#FA8334"/>
<path d="M18.5769 41.0343C21.1509 40.3098 22.5244 37.1888 21.6447 34.0632C20.7649 30.9377 17.9651 28.9913 15.3911 29.7158C12.8171 30.4403 11.4436 33.5613 12.3233 36.6869C13.2031 39.8124 16.0029 41.7588 18.5769 41.0343Z" fill="#FA8334"/>
<path d="M23.8752 26.2506C26.4492 25.5261 27.8227 22.4051 26.943 19.2795C26.0633 16.154 23.2635 14.2076 20.6895 14.9321C18.1155 15.6566 16.742 18.7776 17.6217 21.9032C18.5014 25.0287 21.3012 26.9751 23.8752 26.2506Z" fill="#FA8334"/>
<path d="M35.9712 22.8478C38.5452 22.1233 39.9187 19.0022 39.039 15.8767C38.1592 12.7512 35.3594 10.8048 32.7854 11.5293C30.2114 12.2537 28.8379 15.3748 29.7176 18.5003C30.5974 21.6259 33.3972 23.5723 35.9712 22.8478Z" fill="#FA8334"/>
<path d="M48.204 32.6954C50.778 31.971 52.1515 28.8499 51.2717 25.7244C50.392 22.5988 47.5922 20.6524 45.0182 21.3769C42.4442 22.1014 41.0707 25.2225 41.9504 28.348C42.8301 31.4735 45.63 33.4199 48.204 32.6954Z" fill="#FA8334"/>
</g>
<defs>
<clipPath id="clip0_50_524">
<rect width="64" height="64" fill="white"/>
</clipPath>
</defs>
</svg>
