<svg width="27" height="26" viewBox="0 0 27 26" fill="none" xmlns="http://www.w3.org/2000/svg">
<g clip-path="url(#clip0_178_442)">
<path d="M18.0307 21.7545C17.4236 23.4913 15.4793 24.3792 13.7424 23.6825C13.3851 23.5392 13.0659 23.337 12.7913 23.0923C12.0773 22.4544 11.2587 21.9439 10.3538 21.627L10.1102 21.5416C9.17863 21.2158 8.19274 21.0803 7.20863 21.1365C6.74294 21.163 6.26274 21.09 5.79756 20.9025C4.24612 20.2791 3.4116 18.5593 3.88704 16.9672C4.20081 15.9177 4.9928 15.1547 5.94916 14.8295C7.32247 14.3624 8.49114 13.4379 9.30892 12.2451C10.2574 10.86 11.8015 9.58989 14.094 10.3928C16.363 11.1872 16.7772 13.1494 16.661 14.8292C16.5598 16.2845 16.942 17.7313 17.7177 18.9723C18.2211 19.7775 18.3678 20.792 18.0307 21.7545Z" fill="white"/>
<path d="M4.87716 12.7831C6.17469 13.2371 7.67054 12.3356 8.21823 10.7695C8.76591 9.20341 8.15804 7.56581 6.8605 7.11182C5.56297 6.65783 4.06712 7.55936 3.51944 9.12544C2.97175 10.6915 3.57962 12.3291 4.87716 12.7831Z" fill="white"/>
<path d="M11.4545 8.15786C12.752 8.61186 14.2479 7.71033 14.7956 6.14425C15.3432 4.57817 14.7354 2.94057 13.4378 2.48658C12.1403 2.03258 10.6445 2.93411 10.0968 4.50019C9.54908 6.06628 10.157 7.70387 11.4545 8.15786Z" fill="white"/>
<path d="M19.8126 18.0089C21.1102 18.4629 22.606 17.5614 23.1537 15.9953C23.7014 14.4292 23.0935 12.7916 21.796 12.3377C20.4985 11.8837 19.0026 12.7852 18.4549 14.3513C17.9072 15.9173 18.5151 17.5549 19.8126 18.0089Z" fill="white"/>
<path d="M17.5518 10.2912C18.8493 10.7452 20.3452 9.84363 20.8928 8.27755C21.4405 6.71147 20.8327 5.07387 19.5351 4.61988C18.2376 4.16589 16.7417 5.06741 16.1941 6.63349C15.6464 8.19958 16.2542 9.83717 17.5518 10.2912Z" fill="white"/>
</g>
<defs>
<clipPath id="clip0_178_442">
<rect width="20.8" height="20" fill="white" transform="translate(6.84039) rotate(20)"/>
</clipPath>
</defs>
</svg>
