<svg width="258" height="120" viewBox="0 0 258 120" fill="none" xmlns="http://www.w3.org/2000/svg">
<g clip-path="url(#clip0_62_1334)">
<path d="M72.1985 120C72.1985 120 67.0451 72.4442 65.0819 48.8601C64.8623 46.1994 64.7849 43.4742 65.4823 40.8911C66.6835 36.461 70.2611 32.9092 71.1652 28.4145C72.0564 24.0102 69.9511 19.1539 66.1281 16.7903C62.305 14.4268 57.0225 14.7109 53.4836 17.4878C53.574 13.8068 53.0315 10.0483 51.3138 6.79357C49.583 3.55172 46.5608 0.878166 42.9444 0.167802C37.9072 -0.813793 32.418 2.62179 31.0877 7.58143C28.2075 2.41514 20.1094 1.85976 15.7697 5.86364C11.43 9.86751 10.8488 16.9324 13.419 22.2537C9.57014 21.75 5.5146 23.274 2.94437 26.193C0.37414 29.099 -0.620371 33.3225 0.387056 37.068C1.87236 42.6605 7.15489 46.419 9.59597 51.6757C11.3008 55.3438 11.5204 59.4897 11.7012 63.5323C12.5795 82.3764 10.6421 120 10.6421 120H72.1985Z" fill="#FF9F52"/>
<path d="M71.1652 28.4145C72.0564 24.0102 69.9511 19.1539 66.1281 16.7903C62.305 14.4268 57.0225 14.7109 53.4836 17.4878C53.574 13.8068 53.0315 10.0483 51.3138 6.79357C49.583 3.55172 46.5608 0.878166 42.9444 0.167802C37.9072 -0.813793 32.4181 2.62179 31.0877 7.58143C28.2075 2.41514 20.1094 1.85976 15.7697 5.86364C11.43 9.86751 10.8488 16.9324 13.419 22.2537C9.57014 21.75 5.5146 23.274 2.94437 26.193C0.37414 29.099 -0.620371 33.3225 0.387056 37.068C1.87236 42.6605 7.1549 46.419 9.59597 51.6757C11.3008 55.3438 11.5204 59.4897 11.7012 63.5323C11.9595 69.1378 11.9725 76.3964 11.8691 83.8359H14.1165C15.1368 83.8359 17.3583 77.6621 17.7587 76.8097C19.1536 73.8133 21.1168 70.0548 21.0651 66.7225C21.1039 69.5382 21.5818 72.3409 22.46 75.0144C22.7958 76.0348 24.1262 80.6069 25.5598 80.7361C25.7794 80.7619 25.9989 80.7748 26.2185 80.8007C27.4455 76.3447 29.0083 72.4829 30.9327 68.2853C30.9844 68.1691 31.1781 68.2207 31.1652 68.3499C30.6873 73.0254 29.8995 78.4888 32.573 82.6605C35.337 86.9873 38.708 78.8762 39.1988 76.7193C40.0512 72.9737 39.9479 69.0732 41.1362 65.4051C41.2782 64.9789 41.5366 64.4881 41.9757 64.5139C42.3244 64.5398 42.544 64.9014 42.6861 65.2243C43.2931 66.5934 43.6547 68.0528 44.0551 69.4994C45.0109 72.8704 46.2508 76.151 47.749 79.3154C49.441 75.4019 49.7251 71.6176 49.9834 67.4329C52.2049 72.5475 52.4633 78.3467 52.1533 83.8359H52.6957C52.967 83.2934 53.2124 82.7509 53.4061 82.2343C53.8711 80.9686 57.2421 73.0383 56.1184 71.9405C57.1904 72.9867 58.1333 74.1749 58.9082 75.4536C57.72 71.9146 57.0096 68.6341 57.1388 64.9014C57.1388 64.5398 57.6295 64.3977 57.8233 64.7206C61.0651 70.1839 64.3845 75.1952 68.0267 80.297C66.8772 68.944 65.7664 57.3586 65.0561 48.873C64.8365 46.2124 64.759 43.4871 65.4565 40.904C66.6576 36.4739 70.2353 32.9221 71.1394 28.4274L71.1652 28.4145Z" fill="#B85C52"/>
<path d="M46.0056 8.8732C43.5646 4.85641 38.3724 5.17931 36.6676 9.6094C35.1177 13.652 35.4922 21.2981 40.8135 22.6155C42.8929 23.1322 45.1532 22.0731 46.4318 20.3553C47.6976 18.6375 48.0592 16.3643 47.8009 14.2461C47.5943 12.58 47.0131 10.5135 46.0056 8.8732Z" fill="#FFD18E"/>
<path d="M29.4347 13.4454C28.9439 12.6318 28.3627 11.9085 27.704 11.3531C26.8257 10.604 25.7925 10.0228 24.6688 9.81613C23.5452 9.60948 22.3052 9.81613 21.4011 10.5265C20.8458 10.9527 20.4325 11.5468 20.0837 12.1539C17.436 16.8035 18.0301 24.695 23.9197 26.5291C26.2445 27.2524 29.0989 26.387 30.2355 24.2301C31.8112 21.2336 31.3204 16.5969 29.4347 13.4454Z" fill="#FFD18E"/>
<path d="M63.5064 24.527C63.1705 23.4421 62.5893 22.5122 61.7369 21.8535C60.4195 20.8461 58.4692 21.1173 57.1002 22.0343C54.8787 23.5325 52.6184 26.4515 52.1793 29.1121C51.456 33.426 55.7569 37.1586 59.877 35.2083C60.4324 34.9371 60.949 34.5755 61.4011 34.1493C63.4676 32.2119 64.5267 27.7431 63.5064 24.527Z" fill="#FFD18E"/>
<path d="M20.962 39.7676C21.1815 39.251 21.3365 38.7085 21.414 38.1661C22.034 33.4906 18.0301 29.0346 13.3159 29.3446C12.9801 29.3705 12.6313 29.4092 12.3343 29.5771C11.9597 29.7708 11.7014 30.1196 11.4689 30.4683C8.91161 34.3947 10.2678 44.2494 16.661 43.3194C18.5984 43.0353 20.2 41.5758 20.9749 39.7676H20.962Z" fill="#FFD18E"/>
<path d="M55.6019 47.052C55.6019 45.0113 54.8916 42.9577 53.3029 41.2529C51.7143 39.5609 49.6607 38.2952 48.3175 36.4095C47.4263 35.1567 46.8838 33.6843 45.9539 32.4831C43.6032 29.435 38.734 28.7505 35.6213 31.0236C33.1802 32.8189 32.0566 35.867 30.1967 38.2693C29.073 39.7159 27.6652 40.93 26.5932 42.4024C23.2868 46.9229 23.1318 55.5635 29.1247 57.9142C32.1082 59.0895 36.2671 57.8237 38.8632 56.2351C39.4314 55.8864 40.0126 55.5118 40.6843 55.3827C41.8596 55.176 42.9962 55.8218 44.1328 56.1964C50.3969 58.2629 55.6407 52.6833 55.6148 47.0391L55.6019 47.052Z" fill="#FFD18E"/>
</g>
<g clip-path="url(#clip1_62_1334)">
<path d="M170.467 37.0745C170.06 29.9107 170.319 24.1009 167.66 17.4417C165.925 13.109 161.42 8.56695 157.284 10.7087C156.693 6.43751 152.582 1.21851 148.397 0.172248C146.341 -0.332419 139.411 0.110704 139.411 2.7202C139.411 0.123012 132.481 -0.32011 130.426 0.184557C126.241 1.21851 121.391 6.44981 120.8 10.721C116.664 8.57926 112.159 13.1213 110.424 17.454C107.753 24.1009 108.762 29.923 108.356 37.0745C106.805 64.6958 107.334 92.3417 107.199 120H171.624C171.488 92.3417 172.018 64.6958 170.467 37.0868V37.0745Z" fill="#FFD1A7"/>
<path d="M147.769 78.3589C145.467 70.4935 146.87 63.8343 155.29 60.9786C161.456 58.8861 168.202 60.6832 171.427 66.0007C171.488 70.0257 171.538 74.0384 171.562 78.0635C168.83 82.0762 164.669 85.3257 159.819 84.9442C157.973 84.7965 156.644 86.5443 156.558 88.206C156.188 95.0867 147.609 99.1979 143.067 92.9696C140.322 89.2154 142.636 84.341 146.181 82.2731C147.498 81.4977 148.2 79.8483 147.769 78.3712V78.3589ZM118.597 120C129.662 90.7663 107.519 84.858 107.223 84.8088C107.199 96.5392 107.248 108.27 107.199 120H118.597ZM133.281 19.3621C132.801 26.5136 133.22 34.7606 137.589 40.755C143.375 48.6943 155.228 50.9838 164.46 49.3713C166.663 48.9897 168.817 48.5097 170.971 47.9927C170.836 44.3615 170.664 40.7181 170.467 37.0869C170.06 29.9231 170.319 24.1133 167.66 17.4542C165.925 13.1214 161.42 8.57941 157.284 10.7212C156.693 6.44996 152.582 1.23096 148.397 0.184699C146.341 -0.319968 139.411 0.123155 139.411 2.73265C139.411 2.15413 133.958 9.28102 133.281 19.3621Z" fill="#FFEFD6"/>
<path d="M148.311 59.1939C147.19 58.9477 145.036 58.5538 142.932 57.9753C139.879 57.1383 136.9 57.3106 133.884 58.1353C132.223 58.5907 130.524 59.0092 128.813 59.1569C126.142 59.3908 124.099 58.1476 122.905 55.7597C121.095 52.1654 120.923 48.5097 122.88 44.8662C123.902 42.946 125.428 41.6044 127.582 41.2228C129.49 40.8781 130.549 39.6226 131.558 38.1579C132.432 36.89 133.392 35.6714 134.377 34.4775C136.925 31.3879 141.836 31.5479 144.519 34.6375C145.923 36.25 147.03 38.1086 148.372 39.7703C148.852 40.3612 149.603 41.0012 150.305 41.0997C155.684 41.9121 157.825 45.5678 157.567 50.6514C157.518 51.5623 157.37 52.4732 157.148 53.3471C156.151 57.3352 153.48 59.3416 148.335 59.2062L148.311 59.1939Z" fill="#9D424F"/>
<path d="M155.868 17.8358C155.905 22.1193 152.976 26.0705 149.061 27.0306C146.193 27.7322 143.572 26.6859 141.959 24.1995C139.153 19.8545 140.113 13.0599 144.015 9.67495C146.957 7.127 150.859 7.45934 153.32 10.475C154.884 12.3952 155.844 15.1771 155.868 17.8358Z" fill="#9D424F"/>
<path d="M122.979 17.9834C122.917 14.6477 123.656 12.5675 124.997 10.7088C127.164 7.71772 130.943 7.1392 133.958 9.28096C138.648 12.6044 139.756 20.5067 136.162 24.9749C133.761 27.966 129.995 28.3845 126.942 25.935C124.099 23.6455 123.126 20.4944 122.979 17.9957V17.9834Z" fill="#9D424F"/>
<path d="M151.745 32.9512C152.077 29.3693 153.271 26.132 156.767 24.2365C159.635 22.6855 162.687 23.5349 164.349 26.329C166.171 29.4185 166.023 32.6312 164.509 35.7576C163.931 36.9516 163.044 38.0963 162.035 38.958C157.604 42.7368 153.013 39.6104 152.089 35.4253C151.917 34.6745 151.88 33.8867 151.769 32.9635L151.745 32.9512Z" fill="#9D424F"/>
<path d="M127.114 32.7665C127.114 36.7423 124.443 40.1026 120.96 40.5334C118.683 40.8165 116.91 39.8687 115.618 38.1209C113.439 35.1421 112.528 31.8556 113.587 28.1875C114.621 24.5933 117.735 22.9562 121.268 24.1502C124.702 25.3195 127.127 28.8891 127.114 32.7665Z" fill="#9D424F"/>
</g>
<g clip-path="url(#clip2_62_1334)">
<path d="M208.671 37.5175C209.377 40.1881 210.271 42.8234 210.73 45.5528C211.212 48.4469 211.188 51.3881 211.165 54.3175C210.977 76.2116 210.435 98.1057 209.553 119.988H255.73C256.341 96.6822 256.953 73.3881 257.565 50.0822C257.883 37.8587 259.553 21.3528 253.165 10.2939C251.177 6.85865 247.247 4.31747 243.33 4.941C240.741 0.141004 233.671 -1.54135 229.188 1.59983C228.212 2.28218 226.777 4.16453 226.777 4.16453C226.777 4.16453 224.094 3.43512 221.518 4.09395C217.812 5.04689 215.471 8.58806 214.2 12.1998C213.941 12.9175 213.847 14.2587 213.847 14.2587C213.847 14.2587 211.577 14.741 210.8 14.9881C207.247 16.141 206.471 20.7763 206.647 24.4939C206.859 28.8939 207.541 33.2704 208.671 37.5175Z" fill="#984B4A"/>
<path d="M211.542 73.5531C211.342 73.5531 211.106 73.5178 210.894 73.4825C210.8 78.9178 210.683 84.3413 210.542 89.7766C214.942 90.1178 219.577 89.0001 223.589 87.4001C226.106 86.4001 228.53 85.1178 230.671 83.4589C232.683 81.906 234.424 79.706 236.024 77.7295C237.189 76.2942 238.306 74.7178 238.589 72.8942C236.189 74.0354 233.836 75.2472 231.506 76.5295C233.083 75.3883 234.271 73.7413 234.883 71.8942C235.189 70.9648 235.294 69.8707 234.93 69.0119C234.8 68.706 234.612 68.4354 234.342 68.2236C233.53 67.5531 232.353 67.6119 231.318 67.8236C232.247 67.0589 233.283 66.0001 232.953 64.8354C232.742 64.0942 232 63.6001 231.236 63.4589C230.471 63.3178 229.694 63.4589 228.93 63.6119C227.859 63.8119 226.777 64.0236 225.706 64.2236C225.812 63.7295 225.906 63.2472 226.012 62.7531C226.094 62.3413 223.412 63.3295 223.2 63.506C222.342 64.2119 221.424 64.9178 220.565 65.6589C217.271 68.4942 216.389 73.6707 211.553 73.5295L211.542 73.5531Z" fill="#540000"/>
<path d="M255.859 115.047C254.859 114.824 253.859 114.577 252.977 114.177C251.283 113.424 249.577 112.624 247.859 111.894C248.294 111.188 248.436 110.306 248.236 109.506C248.118 109.024 247.859 108.53 247.4 108.33C247.083 108.188 246.706 108.212 246.353 108.235C244.212 108.388 242.083 108.541 239.941 108.694C241.706 108.388 243.353 107.435 244.518 106.071C244.753 105.788 244.989 105.435 244.883 105.083C244.73 104.541 244.012 104.483 243.447 104.53C239.647 104.835 235.859 105.224 232.083 105.718C230.33 105.941 228.436 106.447 226.694 106.341C225.083 106.247 223.424 105.988 221.8 105.871C217.906 105.588 213.93 105.812 210.094 105.235C209.93 110.165 209.753 115.083 209.553 120H255.73C255.777 118.353 255.812 116.706 255.859 115.059V115.047Z" fill="#540000"/>
<path d="M247.4 83.9296C244.824 85.3413 242.577 87.2825 239.941 88.6119C235.53 90.8472 231.153 92.9296 226.412 94.4708C226.259 94.7178 226.636 94.9413 226.918 94.9884C227.706 95.1296 228.494 95.259 229.283 95.4002C228.553 95.6237 227.906 96.0943 227.459 96.7178C228.459 97.0472 229.494 97.2472 230.553 97.3061C230.106 97.4943 229.636 97.7061 229.341 98.0825C229.047 98.4708 229 99.0943 229.377 99.4002C229.53 99.5296 229.73 99.5766 229.918 99.6237C234.471 100.753 239.612 99.0472 243.883 97.4943C248.141 95.9413 252.236 94.0119 256.471 92.4237C256.636 85.9178 256.812 79.4119 256.988 72.8943C252.13 77.6708 247.294 82.1061 241.165 85.3061C243.236 86.059 245.483 84.9766 247.424 83.9178L247.4 83.9296Z" fill="#540000"/>
<path d="M246.883 47.4234C245.965 47.4587 244.236 47.5763 242.494 47.5528C239.977 47.5175 237.718 48.2352 235.553 49.4705C234.365 50.141 233.13 50.8116 231.847 51.2587C229.836 51.9646 228.012 51.4116 226.624 49.8116C224.518 47.3999 223.659 44.6116 224.436 41.4234C225.106 38.6587 227.659 37.9057 229 35.5881C229.871 34.094 230.247 32.3293 231.071 30.8352C231.753 29.6116 232.941 28.2116 234.071 27.3999C235.883 26.1057 238.988 25.494 240.977 26.6705C241.624 27.0587 242.165 27.5999 242.694 28.141C243.624 29.0822 244.153 30.2234 244.941 31.2705C246.224 32.9881 248.212 33.2587 249.8 34.5057C251.212 35.6116 251.941 37.2705 252.294 38.9881C252.436 39.694 252.506 40.4352 252.506 41.1528C252.53 44.4234 250.871 46.494 246.883 47.4116V47.4234Z" fill="#FF9275"/>
<path d="M246.212 13.4588C246.236 13.8941 246.236 14.3294 246.212 14.7647C246.047 17.1294 244.824 20.5411 242.506 21.5411C240.353 22.4705 238.153 21.9999 236.565 20.2588C233.788 17.2235 233.647 11.7647 236.259 8.58818C238.224 6.19995 241.341 5.94112 243.659 7.98818C245.259 9.38818 246.071 11.3647 246.212 13.4588Z" fill="#FF9275"/>
<path d="M220.177 17.8823C219.694 15.2706 219.989 13.5411 220.8 11.9059C222.106 9.27056 224.989 8.31762 227.636 9.59997C231.753 11.5882 233.659 17.647 231.424 21.6235C229.93 24.2823 227.036 25.1176 224.318 23.5882C221.789 22.1647 220.6 19.8235 220.165 17.8823H220.177Z" fill="#FF9275"/>
<path d="M245.965 22.8471C246.259 21.3883 246.565 19.9295 246.859 18.4824C247.083 17.3648 247.341 16.1883 248.118 15.353C250.047 13.2471 253.306 14.6354 254.047 17.0589C254.977 20.0942 254.153 23.6001 251.989 25.9177C250.341 27.6707 246.106 28.153 245.753 24.9295C245.683 24.2824 245.812 23.6354 245.941 22.9883C245.941 22.9412 245.965 22.8942 245.965 22.8471Z" fill="#FF9275"/>
<path d="M225.224 28.3059C225.259 28.4823 225.294 28.6588 225.318 28.8353C225.483 29.8353 225.636 30.8706 225.471 31.8706C225.306 32.8706 224.812 33.8823 223.93 34.4C223.094 34.8941 222.047 34.8941 221.094 34.6941C218.436 34.1647 214.541 31.4235 214.141 28.5294C213.659 25 215.777 21.6471 219.636 22.2706C222.859 22.8 224.588 25.3529 225.212 28.2941L225.224 28.3059Z" fill="#FF9275"/>
</g>
<defs>
<clipPath id="clip0_62_1334">
<rect width="72.1989" height="120" fill="white" transform="translate(-0.000244141)"/>
</clipPath>
<clipPath id="clip1_62_1334">
<rect width="64.4251" height="120" fill="white" transform="translate(107.199)"/>
</clipPath>
<clipPath id="clip2_62_1334">
<rect width="51.3765" height="120" fill="white" transform="translate(206.624)"/>
</clipPath>
</defs>
</svg>
