<svg width="72" height="120" viewBox="0 0 72 120" fill="none" xmlns="http://www.w3.org/2000/svg">
<g clip-path="url(#clip0_62_1171)">
<path d="M15.0205 52.389C17.7951 55.3527 17.5302 60.5613 17.5302 64.3322C17.5428 82.9092 16.824 101.486 15.3736 120H67.1445C67.1445 119.924 67.1445 119.861 67.1445 119.786C66.3626 104.992 65.7194 90.1987 65.2149 75.4052C64.9627 67.8635 64.7357 60.3091 64.5465 52.7673C64.3826 46.3101 66.6779 42.5519 69.2633 36.7883C71.3694 32.0842 72.0631 26.7621 71.2433 21.6796C70.9659 19.977 70.0452 18.0222 68.6579 16.9754C61.9107 11.8551 56.2859 18.5519 54.6842 19.6869C56.6768 11.3758 55.0499 -0.113403 44.8723 0.000102097C41.4546 0.0379371 37.3432 2.40893 35.6028 5.44834C34.3164 7.70583 33.484 10.2408 33.1939 12.8262C30.8103 9.2949 27.7205 6.00325 23.6973 4.60336C19.6742 3.20346 14.6043 4.17456 12.2333 7.73105C10.5055 10.3291 10.5055 13.7847 11.4892 16.7484C12.473 19.7121 14.3269 22.2975 16.1556 24.8325C11.5775 24.4793 7.03733 23.1803 3.49345 26.7621C0.845002 29.4483 -0.214378 33.5976 0.819779 37.2171C1.72782 40.4079 4.06098 42.9933 6.38152 45.3643C8.96692 48.0127 12.6369 49.8414 15.0205 52.3763V52.389Z" fill="#FFBD59"/>
<path d="M66.3752 103.807C65.9338 94.3353 65.5302 84.8765 65.2149 75.3926C65.1014 72.0379 65.0257 68.6958 64.9249 65.3411C53.1077 68.8976 43.3337 82.4173 51.9979 93.6921C55.7057 98.5224 61.154 101.032 66.3878 103.794L66.3752 103.807Z" fill="#FFE8CA"/>
<path d="M37.2423 114.791C33.5849 106.442 30.9112 96.6683 26.0683 88.9625C23.773 85.3178 20.7462 83.0981 17.3032 81.6226C17.0005 94.436 16.3699 107.224 15.3736 120H39.8403C38.8818 118.335 38.0242 116.582 37.2296 114.791H37.2423Z" fill="#FFE8CA"/>
<path d="M51.1908 9.08034C50.2827 6.91113 48.391 5.22117 45.8686 5.1455C40.2817 4.98155 38.289 12.3846 38.5539 16.7987C38.68 18.8418 39.0836 20.9353 40.2564 22.6127C41.4293 24.29 43.5229 25.4377 45.5281 25.0215C46.9028 24.744 48.0504 23.7855 48.9585 22.7136C51.9853 19.1571 53.0068 13.4314 51.1908 9.08034Z" fill="#E07743"/>
<path d="M32.6012 19.2706C32.2354 15.8781 29.6374 12.309 26.8755 10.4046C24.0378 8.44983 20.2039 8.8408 18.7283 12.2207C17.5681 14.8818 18.4004 18.1987 19.3968 20.7714C20.8345 24.454 24.0505 27.3799 28.1997 26.1188C30.2428 25.5008 31.8823 23.7478 32.4372 21.6795C32.6516 20.8849 32.6895 20.0778 32.6012 19.258V19.2706Z" fill="#E07743"/>
<path d="M66.0221 30.4444C66.7409 28.0987 67.0815 24.6935 65.6185 22.5495C63.4745 19.4092 58.8082 22.1712 56.8534 24.2395C55.1382 26.043 54.1167 28.5022 54.041 30.9867C53.9401 34.1523 56.6012 36.8259 59.8045 36.271C62.4908 35.8044 64.887 33.5091 65.8455 31.012C65.9086 30.8354 65.9716 30.6462 66.0347 30.4444H66.0221Z" fill="#E07743"/>
<path d="M22.9532 40.559C23.6847 38.7681 23.5964 36.5106 22.865 34.581C21.3011 30.4696 15.6259 27.9978 11.7415 30.8102C9.83711 32.1848 9.06779 34.7702 9.52181 37.0151C9.92539 38.9825 11.1109 41.4039 12.8513 42.4886C13.8224 43.0939 14.9574 43.4218 16.0799 43.6236C16.9753 43.7876 17.896 43.8758 18.7914 43.7497C20.9354 43.447 22.2722 42.1859 22.9406 40.559H22.9532Z" fill="#E07743"/>
<path d="M52.5906 40.9375C51.0142 40.0295 49.2612 39.3106 48.6054 37.5071C48.454 37.0783 48.3783 36.6243 48.2775 36.1829C47.2811 32.0967 42.8671 29.4357 38.7809 30.2176C33.3326 31.2644 33.7362 36.8009 31.4913 40.6601C29.5491 43.9895 25.7278 45.6543 27.1403 50.1693C27.9096 52.6411 30.1293 54.5455 32.639 55.2013C35.1487 55.8445 37.8854 55.3148 40.1303 54.0158C40.5591 53.7636 41.0005 53.4735 41.4924 53.4357C42.2239 53.3726 42.8923 53.8266 43.5355 54.1924C46.5875 55.9076 50.7367 55.4031 53.2843 53.0069C55.958 50.4972 57.0804 45.0868 54.3184 42.2239C53.8266 41.7194 53.2212 41.3285 52.5906 40.9627V40.9375Z" fill="#E07743"/>
</g>
<defs>
<clipPath id="clip0_62_1171">
<rect width="71.1424" height="120" fill="white" transform="translate(0.428802)"/>
</clipPath>
</defs>
</svg>
