<svg width="156" height="120" viewBox="0 0 156 120" fill="none" xmlns="http://www.w3.org/2000/svg">
<g clip-path="url(#clip0_62_1292)">
<path d="M72.5281 120C72.5281 120 67.3747 72.4442 65.4115 48.8601C65.1919 46.1994 65.1144 43.4742 65.8119 40.8911C67.0131 36.461 70.5907 32.9092 71.4948 28.4145C72.386 24.0102 70.2807 19.1539 66.4577 16.7903C62.6346 14.4268 57.3521 14.7109 53.8132 17.4878C53.9036 13.8068 53.3611 10.0483 51.6433 6.79357C49.9126 3.55172 46.8904 0.878166 43.274 0.167802C38.2368 -0.813793 32.7476 2.62179 31.4173 7.58143C28.5371 2.41514 20.439 1.85976 16.0993 5.86364C11.7596 9.86751 11.1784 16.9324 13.7486 22.2537C9.89973 21.75 5.84419 23.274 3.27396 26.193C0.70373 29.099 -0.290781 33.3225 0.716646 37.068C2.20195 42.6605 7.48448 46.419 9.92556 51.6757C11.6304 55.3438 11.85 59.4897 12.0308 63.5323C12.9091 82.3764 10.9717 120 10.9717 120H72.5281Z" fill="#FF9F52"/>
<path d="M71.4948 28.4145C72.386 24.0102 70.2807 19.1539 66.4577 16.7903C62.6346 14.4268 57.3521 14.7109 53.8132 17.4878C53.9036 13.8068 53.3611 10.0483 51.6433 6.79357C49.9126 3.55172 46.8904 0.878166 43.274 0.167802C38.2368 -0.813793 32.7476 2.62179 31.4173 7.58143C28.5371 2.41514 20.439 1.85976 16.0993 5.86364C11.7596 9.86751 11.1784 16.9324 13.7486 22.2537C9.89973 21.75 5.84419 23.274 3.27396 26.193C0.70373 29.099 -0.290781 33.3225 0.716646 37.068C2.20195 42.6605 7.48449 46.419 9.92556 51.6757C11.6304 55.3438 11.85 59.4897 12.0308 63.5323C12.2116 67.4329 12.2762 72.1471 12.2633 77.1584C12.2633 77.1584 15.0531 77.1584 15.221 77.1584C16.7967 77.1584 18.14 77.3393 19.4186 78.3596C19.5349 77.5201 19.664 76.6676 20.0515 75.9185C20.439 75.1694 21.1106 74.5107 21.9501 74.3816C22.9575 74.2266 23.9262 74.8336 24.6753 75.5181C25.5148 76.2931 26.2252 77.223 26.7547 78.2434C26.1477 76.6806 26.0702 74.924 26.5093 73.2966C26.5868 73.0254 26.6772 72.7413 26.8839 72.5346C27.4909 71.9146 28.5242 72.3667 29.2475 72.8317C30.6165 73.7229 33.1868 76.2543 34.995 75.544C35.5633 75.3115 35.6795 74.7432 36.1057 74.3557C36.6999 73.8262 37.6944 73.4129 38.3918 73.0254C40.2388 72.018 42.3311 71.2947 44.4493 71.5918C47.3812 72.0051 49.6802 74.2266 52.0437 76.0089C53.1157 76.8226 54.4202 77.5976 55.7376 77.3134C57.0163 77.0422 57.8687 75.8669 58.8374 74.9886C61.3172 72.7671 63.5775 75.2469 65.2953 77.1713H68.0463C67.0131 66.8388 66.0315 56.5708 65.3857 48.873C65.1661 46.2124 65.0886 43.4871 65.7861 40.904C66.9872 36.4739 70.5649 32.9221 71.469 28.4274L71.4948 28.4145Z" fill="#E87552"/>
<path d="M46.3352 8.8732C43.8941 4.85641 38.702 5.17931 36.9971 9.6094C35.4472 13.652 35.8218 21.2981 41.143 22.6155C43.2225 23.1322 45.4827 22.0731 46.7614 20.3553C48.0271 18.6375 48.3888 16.3643 48.1304 14.2461C47.9238 12.58 47.3426 10.5135 46.3352 8.8732Z" fill="#FFCFB8"/>
<path d="M29.7643 13.4454C29.2735 12.6318 28.6923 11.9085 28.0336 11.3531C27.1553 10.604 26.1221 10.0228 24.9984 9.81613C23.8747 9.60948 22.6348 9.81613 21.7307 10.5265C21.1754 10.9527 20.7621 11.5468 20.4133 12.1539C17.7656 16.8035 18.3597 24.695 24.2493 26.5291C26.5741 27.2524 29.4285 26.387 30.5651 24.2301C32.1408 21.2336 31.65 16.5969 29.7643 13.4454Z" fill="#FFCFB8"/>
<path d="M63.8359 24.527C63.5001 23.4421 62.9189 22.5122 62.0665 21.8535C60.7491 20.8461 58.7988 21.1173 57.4297 22.0343C55.2082 23.5325 52.948 26.4515 52.5089 29.1121C51.7856 33.426 56.0865 37.1586 60.2066 35.2083C60.762 34.9371 61.2786 34.5755 61.7307 34.1493C63.7972 32.2119 64.8563 27.7431 63.8359 24.527Z" fill="#FFCFB8"/>
<path d="M21.2916 39.7676C21.5111 39.251 21.6661 38.7085 21.7436 38.1661C22.3636 33.4906 18.3597 29.0346 13.6455 29.3446C13.3097 29.3705 12.9609 29.4092 12.6639 29.5771C12.2893 29.7708 12.031 30.1196 11.7985 30.4683C9.2412 34.3947 10.5974 44.2494 16.9906 43.3194C18.928 43.0353 20.5295 41.5758 21.3045 39.7676H21.2916Z" fill="#FFCFB8"/>
<path d="M55.9315 47.052C55.9315 45.0113 55.2212 42.9577 53.6325 41.2529C52.0439 39.5609 49.9903 38.2952 48.647 36.4095C47.7559 35.1567 47.2134 33.6843 46.2835 32.4831C43.9328 29.435 39.0636 28.7505 35.9509 31.0236C33.5098 32.8189 32.3862 35.867 30.5263 38.2693C29.4026 39.7159 27.9948 40.93 26.9228 42.4024C23.6164 46.9229 23.4614 55.5635 29.4543 57.9142C32.4378 59.0895 36.5967 57.8237 39.1927 56.2351C39.761 55.8864 40.3422 55.4989 41.0139 55.3827C42.1892 55.176 43.3258 55.8218 44.4624 56.1964C50.7265 58.2629 55.9703 52.6833 55.9444 47.0391L55.9315 47.052Z" fill="#FFCFB8"/>
</g>
<g clip-path="url(#clip1_62_1292)">
<path d="M99.12 52.389C101.895 55.3527 101.63 60.5613 101.63 64.3322C101.642 82.9092 100.923 101.486 99.4731 120H151.244C151.244 119.924 151.244 119.861 151.244 119.786C150.462 104.992 149.819 90.1987 149.314 75.4053C149.062 67.8635 148.835 60.3091 148.646 52.7673C148.482 46.3101 150.777 42.5519 153.363 36.7883C155.469 32.0842 156.163 26.7621 155.343 21.6796C155.065 19.977 154.145 18.0222 152.757 16.9754C146.01 11.8551 140.385 18.5519 138.784 19.6869C140.776 11.3758 139.149 -0.113403 128.972 0.000102097C125.554 0.0379371 121.443 2.40893 119.702 5.44834C118.416 7.70583 117.583 10.2408 117.293 12.8262C114.91 9.2949 111.82 6.00325 107.797 4.60336C103.774 3.20347 98.7038 4.17456 96.3328 7.73105C94.605 10.3291 94.605 13.7847 95.5887 16.7484C96.5724 19.7121 98.4263 22.2975 100.255 24.8325C95.677 24.4793 91.1368 23.1803 87.5929 26.7621C84.9445 29.4483 83.8851 33.5976 84.9192 37.2171C85.8273 40.4079 88.1604 42.9933 90.481 45.3643C93.0664 48.0127 96.7364 49.8414 99.12 52.3763V52.389Z" fill="#CC8B68"/>
<path d="M150.273 99.6069C149.92 91.5354 149.592 83.464 149.314 75.3925C149.176 71.1676 149.062 66.9553 148.949 62.7304C148.066 63.0835 147.057 63.2601 146.161 63.4492C144.9 63.7141 143.79 64.1933 142.706 64.887C142.239 65.1897 141.634 64.6978 141.785 64.1807C141.886 63.815 142.05 63.4492 142.239 63.0835C142.189 62.8943 142.214 62.6925 142.34 62.4908C142.151 62.579 141.962 62.6547 141.785 62.7556C140.448 63.4366 139.566 64.2059 138.784 65.4419C138.128 67.0814 135.24 66.804 135.126 64.66C135.101 64.2312 135.164 63.815 135.252 63.4114C134.37 64.3068 133.499 65.2023 132.654 66.1229C132.011 66.8166 130.939 66.5643 130.46 65.8455C129.678 64.66 129.464 63.588 129.615 62.5917C126.525 64.1933 123.561 67.6868 120.333 64.6221C116.537 61.0152 112.387 64.7861 108.289 63.4871C107.091 63.1087 106.573 62.2511 106.51 61.3557H101.617C101.63 62.4025 101.617 63.4114 101.617 64.3321C101.617 76.0987 101.302 87.8654 100.722 99.6069H101.478C101.642 99.1277 101.831 98.661 102.033 98.2196C102.613 96.9332 103.408 95.2811 104.921 94.9532C107.242 94.4487 107.999 96.8071 107.935 98.6484C108.251 98.598 108.553 98.5349 108.869 98.434C110.887 97.8034 112.728 96.8071 114.38 95.4955C115.389 94.701 116.625 95.8991 115.793 96.908C115.326 97.4755 114.721 98.207 114.027 98.9763C116.234 98.7998 118.479 98.888 120.623 98.2322C123.107 97.4755 125.352 94.8145 128.013 94.8018C131.292 94.8018 133.222 96.8323 132.617 99.4556C133.007 99.3547 133.398 99.2411 133.752 99.0772C135.353 98.3331 136.804 97.4755 138.292 96.5423C139.137 96.0126 140.12 97.2611 139.364 97.9295C138.809 98.4214 138.342 99.0141 137.901 99.6195H138.292C138.784 99.3673 139.275 99.052 139.767 98.6484C140.738 97.8665 142.176 96.4288 143.45 96.1765C146.262 95.6342 148.192 96.6558 149.768 98.9889C149.907 99.2033 149.907 99.4303 149.819 99.6195H150.248L150.273 99.6069Z" fill="#B6684F"/>
<path d="M135.29 9.08034C134.382 6.91113 132.49 5.22117 129.968 5.1455C124.381 4.98155 122.389 12.3846 122.653 16.7987C122.779 18.8418 123.183 20.9353 124.356 22.6127C125.529 24.29 127.622 25.4377 129.628 25.0215C131.002 24.744 132.15 23.7855 133.058 22.7136C136.085 19.1571 137.106 13.4314 135.29 9.08034Z" fill="#EDC7A4"/>
<path d="M116.701 19.2706C116.335 15.8781 113.737 12.309 110.975 10.4046C108.137 8.44983 104.303 8.8408 102.828 12.2207C101.667 14.8818 102.5 18.1987 103.496 20.7714C104.934 24.454 108.15 27.3799 112.299 26.1188C114.342 25.5008 115.982 23.7478 116.537 21.6795C116.751 20.8849 116.789 20.0778 116.701 19.258V19.2706Z" fill="#EDC7A4"/>
<path d="M150.122 30.4444C150.84 28.0987 151.181 24.6935 149.718 22.5495C147.574 19.4092 142.908 22.1712 140.953 24.2395C139.238 26.043 138.216 28.5022 138.14 30.9867C138.04 34.1523 140.701 36.8259 143.904 36.271C146.59 35.8044 148.987 33.5091 149.945 31.012C150.008 30.8354 150.071 30.6462 150.134 30.4444H150.122Z" fill="#EDC7A4"/>
<path d="M107.053 40.559C107.784 38.7681 107.696 36.5106 106.964 34.581C105.401 30.4696 99.7253 27.9978 95.8409 30.8102C93.9366 32.1848 93.1673 34.7702 93.6213 37.0151C94.0248 38.9825 95.2103 41.4039 96.9508 42.4886C97.9218 43.0939 99.0569 43.4218 100.179 43.6236C101.075 43.7876 101.995 43.8758 102.891 43.7497C105.035 43.447 106.372 42.1859 107.04 40.559H107.053Z" fill="#EDC7A4"/>
<path d="M136.69 40.9375C135.114 40.0295 133.361 39.3106 132.705 37.5071C132.553 37.0783 132.478 36.6243 132.377 36.1829C131.381 32.0967 126.967 29.4357 122.88 30.2176C117.432 31.2644 117.836 36.8009 115.591 40.6601C113.649 43.9895 109.827 45.6543 111.24 50.1693C112.009 52.6411 114.229 54.5455 116.738 55.2013C119.248 55.8445 121.985 55.3148 124.23 54.0158C124.659 53.7636 125.1 53.4735 125.592 53.4357C126.323 53.3726 126.992 53.8266 127.635 54.1924C130.687 55.9076 134.836 55.4031 137.384 53.0069C140.057 50.4972 141.18 45.0868 138.418 42.2239C137.926 41.7194 137.321 41.3285 136.69 40.9627V40.9375Z" fill="#EDC7A4"/>
</g>
<defs>
<clipPath id="clip0_62_1292">
<rect width="72.1989" height="120" fill="white" transform="translate(0.329346)"/>
</clipPath>
<clipPath id="clip1_62_1292">
<rect width="71.1424" height="120" fill="white" transform="translate(84.5283)"/>
</clipPath>
</defs>
</svg>
