<svg width="145" height="419" viewBox="0 0 145 419" fill="none" xmlns="http://www.w3.org/2000/svg">
<path d="M130.36 418.08C133.37 413.41 130.31 411.66 132.3 408.88C129.05 405.37 131.16 400.41 131.86 399.68C128.29 397.8 129.81 393.26 130.23 392.23C127.47 389.7 128.18 386.68 128.61 385.08C126.82 383.23 126.28 380.12 127.45 378.36C126.09 375.6 126.86 373.1 127.74 371.35C123.52 366.38 126.71 362.44 126.71 362.44C124.58 359.94 125.56 355.13 125.56 355.13C123.73 350.91 126.44 347.68 126.44 347.68C123.97 343.88 123.71 341.26 124.93 340.96C122.52 337.71 122.87 335.41 124.22 333.36C121.98 331.78 123.38 326.21 124.55 325.03C122.08 323.42 122.37 318.9 122.8 317.29C120.66 316.82 121.19 311.44 122.51 310.14C121.49 308.39 119.33 269.31 121.36 267.85C118.44 263.76 118.44 260.11 121.35 260.98C118.48 255.01 120.04 253.1 121.49 254.11C117.79 246.34 118.88 243.73 121.35 242.71C114.95 237.16 122.37 233.8 123.1 233.8C116.49 228.24 116.18 222.84 118.77 223.42C118.3 219.18 113.5 180.92 119.61 181.51C116.55 178.44 114.8 174.06 120.04 172.31C117.42 166.46 116.69 163.84 118.59 160.04C115.82 155.37 112.62 112.08 117.57 109.59C114.48 104.62 119.75 100.39 120.63 100.53C120.2 93.6602 123.69 93.2202 125.73 93.2202C121.51 89.2802 123.98 81.8202 127.77 82.4102C125.54 78.5702 130.24 76.4202 133.15 76.1302C131.4 73.2102 130.68 67.2202 136.79 67.2202C133.65 63.1002 136.77 55.8202 141.73 55.9702C138.28 52.1302 142.03 45.7402 144.51 45.4502C141.9 41.5102 143.35 38.0002 144.51 36.1002C138.25 34.7802 136.36 32.4502 135.19 26.4502C132.13 28.6402 129.51 27.1802 129.08 25.1302C126.02 27.9102 122.53 26.0002 121.51 24.4002C120.85 26.5902 115.37 26.0802 115.09 22.9702C110.57 23.8102 110.16 17.6702 111.18 16.5002C107.69 16.3602 104.92 11.5302 106.37 7.15024C101.18 8.27024 100.26 4.96023 100.26 4.23023C97.35 5.25023 96.62 2.10023 95.79 -0.00976562C91.64 2.33023 90.51 2.62023 88.33 0.720234C86.73 5.88023 82.8 4.23023 81.64 2.91023C81.48 4.54023 79.28 7.80024 76.02 6.88024C75.28 9.26024 72.28 10.4402 70.88 8.10023C66.62 11.4502 63.21 8.74023 63.21 7.78023C59.66 8.88023 58.45 6.66023 58.45 5.23023C54.3 6.26023 52.62 4.08024 52.53 3.79024C49.42 4.86024 48.16 3.20024 48.16 3.20024C45.25 5.54024 42.82 3.49024 42.82 3.49024C41.26 6.89024 38.55 6.70023 38.17 6.41023C37.58 10.1102 34.58 10.4002 34.58 10.4002C34.59 13.8502 31.95 15.5602 31.95 15.5602C32.63 19.3202 30.79 20.0402 30.79 20.0402C29.74 26.2702 24.84 24.3302 24.84 23.9302C22.12 26.5602 18.47 23.9302 18.47 23.9302C15.63 26.9102 12.55 23.4402 12.55 23.8302C11.19 27.2402 9.68003 27.4402 7.17003 26.5602C8.09003 29.2402 5.52003 30.4502 4.06003 30.0702C4.44003 32.9902 3.87003 33.8702 2.31003 34.0602C3.23003 35.9002 2.26003 37.8602 0.860029 38.3002C2.85003 39.2702 1.20003 42.6402 0.0300293 42.5902C0.860029 44.9702 2.07003 46.5302 0.370029 47.6602C2.50003 48.0502 2.57003 50.8202 1.73003 51.7502C3.75003 53.2802 1.34003 53.4502 3.43003 56.0402C5.52003 58.6202 6.25003 58.8202 5.71003 59.9302C6.78003 61.5802 8.43003 62.8702 7.75003 64.0002C9.36003 66.1602 10.27 67.4802 9.69003 69.2702C11.34 71.6102 13.57 70.8802 12.46 73.3102C14.4 75.7902 16.2 75.2102 14.74 77.7402C17.31 78.1802 18.23 80.0802 17.89 80.7602C20.46 81.4902 22.4 83.0202 21.09 85.0002C24.08 86.0202 24.81 88.0702 23.34 89.8202C26.98 91.2102 27.06 92.8902 26.11 94.5702C30.4 95.3702 30.92 97.8502 29.9 99.1002C32.39 101.45 34.78 101.29 31.94 103.34C32.23 105.39 34.34 105.68 32.08 108.01C34.05 112.76 33.24 115.24 31.49 116.12C33.38 117.87 30.78 117.27 32.16 120.35C33.53 123.43 32.81 162.26 31.06 163.06C32.51 165.84 31.49 168.32 30.4 168.46C33.67 170.8 30.76 173.79 29.67 174.01C32.3 176.35 30.98 181.89 29.81 182.12C32.94 184.46 31.34 199.83 30.25 200.33C33.01 204.33 30.25 224.98 28.35 225.86C30.68 227.54 31.84 228.64 29.73 230.25C30.39 233.1 29.14 236.31 27.69 236.76C30.53 239.17 29.44 241.51 27.55 241.8C29.73 244.87 28.57 246.55 27.33 246.99C29.3 248.01 29.82 251.17 27.93 251.6C29.01 254.08 28.14 256.64 26.17 256.78C28.21 258.53 26.97 262.11 25.67 262.18C27.11 263.57 27.56 268.17 25.53 268.61C27.05 272.04 27.5 312.21 24.58 313.01C25.92 316.29 27.93 319.36 24.72 321.05C25.67 324.63 27.34 327.48 24.58 328.79C25.53 331.71 24.58 337.26 21.52 337.85C25.38 341.36 25.89 347.5 22.39 348.59C25.02 350.78 24.43 355.24 21.66 355.74C25.01 358.74 23.91 367.14 19.48 367.51C23.12 371.38 22.1 376.78 19.7 377.37C20.72 380.51 21.31 383.88 18.61 384.97C23.05 386.29 20.72 393.66 17.95 394.24C20.65 395.85 16.71 397.89 17.95 402.2C19.19 406.51 20.35 408.48 17.36 409.14C19.9 410.46 17.43 417.25 16.34 418.34C22.67 418.34 130.4 418.05 130.4 418.05L130.37 418.09L130.36 418.08Z" fill="#C9B495"/>
<path d="M30.4699 398.72C26.5899 398.25 31.25 406.87 24.25 406.46C18.97 406.15 23.84 418.3 18.45 418.36C26.97 418.34 56.29 418.27 82.78 418.2C87.36 414.38 78.14 411.63 79.86 405.1C82.59 396.52 74.4099 404.41 75.6999 395.08C76.6899 387.98 66.6299 392.61 66.6299 382.46C66.6299 372.31 59.71 385.83 55.09 377.65C49.65 374.4 49.8799 389.77 45.8499 386.25C41.8199 382.73 44.07 397.29 38.5 393.78C30.12 388.5 34.7799 399.24 30.4599 398.73L30.4699 398.72Z" fill="#F2E7E1"/>
<path d="M73.7201 54.4905C53.7201 54.4905 48.2801 75.2305 55.5601 80.7905C62.8401 86.3405 65.1701 76.9905 73.3201 76.9905C81.4701 76.9905 84.0901 86.3405 91.3701 79.9105C98.6501 73.4905 91.9601 54.4805 73.7201 54.4805H73.7101L73.7201 54.4905Z" fill="#573524"/>
<path d="M119.85 46.6903C125.28 51.5403 113.05 61.3603 108.97 58.4503C104.89 55.5303 113.92 41.4003 119.85 46.6903Z" fill="#573524"/>
<path d="M92.35 25.2201C98.97 27.9401 93.73 42.15 87.45 40.63C80.28 38.91 85.79 22.5301 92.35 25.2201Z" fill="#573524"/>
<path d="M51.1499 26.1002C57.3699 24.3802 61.7499 38.9102 56.2399 40.6102C50.7299 42.3102 43.8699 28.1102 51.1499 26.1002Z" fill="#573524"/>
<path d="M26.3099 51.0903C30.8399 47.5003 39.8999 58.6703 35.4299 62.1803C30.9699 65.6903 20.8699 55.4003 26.3099 51.0903Z" fill="#573524"/>
<path d="M120.97 267.28C121.09 267.46 121.21 267.65 121.34 267.83C119.31 269.29 121.47 308.36 122.49 310.12C121.18 311.44 120.64 316.81 122.78 317.27C122.35 318.88 122.05 323.41 124.53 325.01C123.37 326.18 121.97 331.75 124.2 333.34C122.86 335.39 122.49 337.68 124.91 340.94C123.69 341.23 123.94 343.86 126.42 347.66C126.42 347.66 123.71 350.89 125.54 355.11C125.54 355.11 124.56 359.91 126.69 362.42C126.69 362.42 125.75 363.59 125.57 365.45C122.8 365.94 119.81 366.34 116.91 365.1C111.48 362.76 112.64 365.48 111.86 359.25C111.08 353.02 107.21 358.86 106.43 348.73C105.65 338.6 98.67 344.84 102.94 340.55C107.21 336.26 98.28 333.54 101 332.76C103.72 331.98 90.52 320.68 95.57 319.12C100.62 317.56 93.63 312.49 97.9 313.67C102.17 314.84 102.95 269 106.05 269C109.15 269 110.7 263.15 114.59 266.66C117.8 269.56 117.3 265.81 120.97 267.28Z" fill="#F2E7E1"/>
<path d="M27.66 236.78C28.14 236.64 28.61 236.17 28.98 235.52C35.59 229.69 42.53 230.45 38.9 242.13C35.02 254.58 53.65 251.46 45.11 257.31C36.57 263.16 46.67 262.76 42.78 267.44C38.9 272.11 51.19 310.94 47.37 312.89C43.55 314.84 44.33 316.78 44.33 316.78C44.33 316.78 45.49 316.78 45.11 321.07C44.73 325.36 45.89 328.08 44.33 331.59C42.77 335.1 40.06 334.32 40.06 336.26C40.06 338.2 36.18 335.48 35.79 338.99C35.41 342.5 28.08 340.55 27.66 342.5C27.25 344.44 28.46 353.02 27.66 352.63C27.02 352.32 27.63 356.45 23.59 354.21C24.42 352.58 24.1 350.09 22.35 348.61C25.84 347.52 25.34 341.37 21.48 337.87C24.54 337.28 25.48 331.73 24.54 328.81C27.31 327.49 25.63 324.65 24.68 321.07C27.88 319.39 25.87 316.32 24.54 313.03C27.45 312.23 27.01 272.06 25.49 268.63C27.53 268.19 27.08 263.59 25.63 262.2C26.94 262.13 28.17 258.55 26.13 256.8C28.1 256.66 28.97 254.09 27.89 251.62C29.8 251.18 29.26 248.03 27.29 247.01C28.53 246.58 29.69 244.89 27.51 241.82C29.4 241.53 30.5 239.19 27.65 236.78H27.66Z" fill="#F2E7E1"/>
<path d="M119.98 100.72C118.37 101.62 114.9 105.32 117.55 109.58C112.6 112.06 115.8 155.35 118.57 160.02C116.68 163.82 117.41 166.45 120.02 172.29C114.78 174.04 116.53 178.42 119.59 181.49C115.4 184.58 116.65 198.95 117.03 205.7C112.71 205.87 112.1 199.15 109.93 200.08C107.21 201.24 114.2 179.11 109.93 179.49C105.66 179.87 106.05 172.86 101 173.64C95.9501 174.42 101 165.46 94.4101 166.63C87.8101 167.79 98.6801 163.51 96.3501 158.45C94.0201 153.38 111.1 121.54 109.16 114.93C107.22 108.3 110.32 110.64 112.27 104.41C113.2 101.44 116.49 100.51 119.99 100.72H119.97H119.98Z" fill="#F2E7E1"/>
</svg>
