<svg width="171" height="448" viewBox="0 0 171 448" fill="none" xmlns="http://www.w3.org/2000/svg">
<path d="M9.64008 52.6699C5.82008 50.2499 2.77007 43.8499 0.320068 37.9199C6.24007 40.1899 12.82 42.6199 15.48 46.8799C14.78 48.5199 9.64008 52.6599 9.64008 52.6599V52.6699Z" fill="#D9CFCA"/>
<path d="M54.7901 18.2001C52.4101 14.3601 52.4101 7.0001 52.8401 0.850098C56.5401 4.0201 62.0302 10.0301 62.5602 15.0401C61.2202 16.2101 54.7801 18.1901 54.7801 18.1901L54.7901 18.2001Z" fill="#D9CFCA"/>
<path d="M112.07 16.2401C112 11.7201 115.77 5.5501 119.29 0.350098C120.67 6.4601 122.22 13.4001 120.11 17.9601C118.36 18.2801 112.08 16.2301 112.08 16.2301L112.07 16.2401Z" fill="#D9CFCA"/>
<path d="M155.41 42.4102C157.12 38.4002 163.06 35.1002 169.75 32.4902C167.63 38.9802 165.56 45.1902 161.41 48.0302C159.75 47.4002 155.4 42.4102 155.4 42.4102H155.41Z" fill="#D9CFCA"/>
<path d="M18 447.02C14.49 441.58 18.06 439.53 15.74 436.3C19.54 432.21 17.07 426.43 16.26 425.58C20.43 423.38 18.65 418.09 18.16 416.9C21.38 413.96 20.55 410.43 20.05 408.56C22.14 406.4 22.77 402.77 21.41 400.72C23.01 397.51 22.09 394.59 21.07 392.54C26 386.75 22.27 382.16 22.27 382.16C24.77 379.24 23.62 364.57 23.62 364.57C25.75 359.65 22.59 355.89 22.59 355.89C25.48 351.46 25.77 348.4 24.35 348.05C27.17 344.25 26.75 341.58 25.18 339.2C27.79 337.35 26.16 321.1 24.8 319.74C27.69 317.87 27.35 297.05 26.84 295.17C29.35 294.62 28.72 288.36 27.18 286.83C28.37 284.79 30.89 280.87 28.52 279.17C31.94 274.4 31.94 270.14 28.53 271.17C31.88 264.21 30.06 249.55 28.36 250.74C32.67 241.68 31.41 238.65 28.53 237.46C36 230.99 27.34 204.33 26.49 204.33C34.22 197.85 34.57 191.56 31.55 192.24C32.1 187.3 37.7099 177.09 30.5699 177.77C34.1399 174.2 36.1801 169.09 30.0601 167.05C35.6901 159.27 33.97 157.18 31.76 152.75C34.99 147.31 38.73 138.96 32.95 136.07C36.56 130.26 30.4 125.35 29.38 125.51C29.89 117.51 25.81 117 23.43 117C28.36 112.4 25.47 103.72 21.05 104.4C23.65 99.9303 18.16 97.4103 14.77 97.0803C16.81 93.6703 17.66 86.7003 10.53 86.7003C14.19 81.8903 10.55 73.4203 4.77002 73.5903C8.80002 69.1203 4.42003 61.6803 1.53003 61.3303C4.58003 56.7303 2.89003 52.6503 1.53003 50.4303C8.84003 48.9003 11.04 46.1803 12.41 39.1903C15.98 41.7503 19.03 40.0403 19.55 37.6603C23.12 40.9003 27.2 38.6803 28.39 36.8103C29.92 41.9103 35.7 43.1103 37.23 40.2203C40.63 43.6303 45.22 41.5903 40.63 36.8103C44.72 32.3803 42.85 30.3403 40.46 27.6203C44.54 27.4403 47.29 23.3603 45.59 18.2403C51.64 19.5503 51.33 13.9403 51.33 13.0903C55.75 15.0103 57.45 12.6103 58.3 9.05029C63.23 13.6303 64.6 11.4403 67.15 9.24029C69.02 15.2603 73.61 13.3303 74.97 11.8003C75.48 17.0803 80.0699 19.1203 82.4399 17.9303C82.2699 22.0203 83.86 26.9603 86.46 25.4203C87.53 30.1903 92.13 25.7603 90.42 22.0103C96.03 22.6903 96.48 19.9703 96.48 17.4703C100.63 18.7503 102.03 16.1603 102.03 14.4903C106.88 15.6903 108.83 13.1603 108.94 12.8203C112.57 14.0703 113.56 11.4403 113.56 11.4403C116.96 14.1603 120.28 12.4803 120.28 12.4803C122.09 16.4503 125.27 16.2303 125.71 15.8903C126.4 20.2003 129.91 20.5403 129.91 20.5403C129.9 24.5603 132.97 26.5603 132.97 26.5603C132.18 30.9403 134.33 31.7803 134.33 31.7803C132.66 34.8303 133.42 38.1303 134.9 37.5703C132.58 40.5003 133.09 44.1603 134.11 42.4503C134.34 45.5303 137.51 42.3303 137.51 39.8303C141.39 41.7703 142.94 38.2403 142.94 37.7903C146.11 40.8503 148.72 36.3203 148.72 36.3203C152.03 39.7903 155.63 35.7503 155.63 36.2003C157.22 40.1703 158.98 40.4103 161.92 39.3803C160.85 42.5003 163.84 43.9203 165.55 43.4703C165.09 46.8803 165.77 47.9003 167.59 48.1203C166.52 50.2703 167.65 52.5503 169.29 53.0603C166.97 54.1903 168.89 58.1103 170.26 58.0603C169.29 60.8403 167.88 62.6603 169.86 63.9603C167.37 64.4203 167.29 67.6503 168.26 68.7303C165.9 70.5203 168.73 70.7203 166.29 73.7303C163.85 76.7403 163 76.9703 163.63 78.2703C162.38 80.2003 160.46 81.6903 161.25 83.0203C159.38 85.5303 158.3 87.0603 158.99 89.1603C157.07 91.8803 154.45 91.0303 155.76 93.8703C153.5 96.7703 151.4 96.0903 153.1 99.0303C150.09 99.5403 149.02 101.75 149.42 102.55C146.41 103.4 144.15 105.19 145.68 107.49C142.19 108.68 141.34 111.06 143.05 113.11C138.81 114.72 138.71 116.68 139.82 118.65C134.81 119.58 134.21 122.48 135.4 123.93C132.49 126.67 129.71 126.49 133.02 128.87C132.68 131.25 130.21 131.59 132.84 134.31C130.54 139.85 131.48 142.74 133.52 143.76C131.3 145.81 134.35 145.09 132.74 148.69C131.13 152.28 131.98 155.43 134.02 156.36C132.32 159.6 133.51 162.49 134.79 162.66C130.97 165.38 134.37 168.87 135.64 169.13C132.59 171.85 134.11 178.32 135.47 178.58C131.82 181.3 133.67 184.3 134.96 184.89C131.74 189.56 134.96 194.15 137.17 195.18C134.45 197.14 133.09 198.42 135.56 200.28C134.79 203.6 136.24 207.35 137.94 207.86C134.63 210.68 135.9 236.14 138.11 236.48C135.56 240.05 136.92 242.02 138.37 242.52C136.07 243.71 135.45 247.39 137.68 247.89C136.42 250.78 137.44 253.75 139.73 253.93C137.35 255.97 138.8 272.57 140.33 272.65C138.65 274.26 138.13 279.64 140.5 280.14C138.72 284.15 138.2 289.33 141.61 290.27C140.05 294.1 137.7 297.68 141.44 299.64C140.33 303.81 138.38 322.66 141.61 324.21C140.5 327.62 141.61 343.84 145.18 344.53C140.68 348.62 140.08 355.77 144.17 357.04C141.11 359.6 141.79 373.86 145.02 374.45C141.11 377.94 142.39 387.73 147.57 388.15C143.33 392.66 144.51 398.97 147.31 399.64C146.12 403.3 145.44 407.22 148.58 408.49C143.39 410.02 146.12 418.62 149.35 419.31C146.2 421.18 150.8 423.56 149.35 428.58C147.9 433.6 146.54 435.9 150.03 436.66C147.06 438.19 149.95 446.11 151.22 447.38C143.83 447.38 18.05 447.04 18.05 447.04H17.98L18 447.02Z" fill="white"/>
<path d="M32.73 163.78C32.7 163.5 32.65 163.27 32.59 163.06C32 164.21 31.1799 165.51 30.0699 167.04C36.1899 169.08 34.15 174.19 30.58 177.76C37.72 177.08 32.1101 187.29 31.5601 192.23C34.5801 191.55 34.23 197.83 26.5 204.32C27.35 204.32 36.01 230.98 28.54 237.45C31.43 238.64 32.68 241.67 28.37 250.73C30.07 249.54 31.89 264.2 28.54 271.16C31.94 270.14 31.94 274.4 28.53 279.16C30.9 280.87 28.38 284.78 27.19 286.82C28.72 288.35 29.35 294.62 26.85 295.16C27.36 297.03 27.7 317.85 24.81 319.73C26.17 321.1 27.81 337.35 25.19 339.19C26.76 341.57 27.18 344.25 24.36 348.04C25.78 348.38 25.49 351.45 22.6 355.88C22.6 355.88 25.76 359.65 23.63 364.56C23.63 364.56 24.77 379.23 22.28 382.15C22.28 382.15 26 386.75 21.08 392.54C22.09 394.58 23.02 397.5 21.42 400.72C22.78 402.76 22.14 406.4 20.06 408.56C20.57 410.43 21.4 413.96 18.17 416.9C18.66 418.09 20.44 423.39 16.27 425.58C17.07 426.43 19.55 432.23 15.75 436.3C18.07 439.54 14.5 441.58 18.01 447.02C18.01 447.02 143.78 447.36 151.18 447.36C149.91 446.09 147.02 438.17 149.99 436.64C146.5 435.87 147.87 433.58 149.31 428.56C150.75 423.54 146.16 421.15 149.31 419.29C146.08 418.61 143.36 410.02 148.54 408.47C145.39 407.2 146.08 403.27 147.27 399.62C144.46 398.94 143.27 392.63 147.53 388.13C142.34 387.71 141.07 377.91 144.98 374.43C141.75 373.83 141.07 359.56 144.13 357.02C140.05 355.75 140.64 348.59 145.14 344.51C141.57 343.83 140.46 327.61 141.57 324.19C138.34 322.66 140.3 303.8 141.39 299.62C137.65 297.66 139.99 294.08 141.57 290.25C138.18 289.32 138.68 284.12 140.46 280.12C138.08 279.61 138.61 274.24 140.28 272.63C138.75 272.55 137.31 255.95 139.68 253.91C137.38 253.73 136.37 250.76 137.63 247.87C135.4 247.37 136.03 243.69 138.32 242.5C136.87 241.99 135.51 240.04 138.06 236.46C135.84 236.12 134.57 210.65 137.88 207.84C136.18 207.33 134.73 203.59 135.5 200.26C133.04 198.39 134.39 197.11 137.11 195.16C134.91 194.14 131.68 189.54 134.9 184.87C133.62 184.29 131.76 181.28 135.41 178.56C134.05 178.3 132.52 171.83 135.59 169.11C134.94 168.98 133.71 167.99 133.21 166.69C132.52 168.52 130.47 168.86 125.48 165.65C125.48 165.65 119.97 171.35 117.96 165.59C117.96 165.59 114.45 171.85 108.43 168.36C103.92 171.9 96.9 164.32 93.39 165.32C91.38 168.84 87.37 165.32 80.86 164.78C78.35 171.27 75.3499 168.83 68.1899 164.43C66.5499 167.57 64.32 169.84 56.3 164.43C50.78 162.55 45.77 168.82 41.76 164.43C37.75 160.03 33.74 171.34 32.74 163.8L32.73 163.78Z" fill="#B3BAC8"/>
<path d="M83.5002 141.34C79.1602 141.34 74.8502 140.7 71.0202 139.43C69.9502 139.07 69.3802 137.91 69.7302 136.85C70.0902 135.78 71.2502 135.2 72.3102 135.55C79.0602 137.8 87.9001 137.8 94.8201 135.55C95.8901 135.2 97.0402 135.78 97.3902 136.86C97.7402 137.94 97.1601 139.09 96.0801 139.43C92.1701 140.7 87.8102 141.33 83.4902 141.33H83.5002V141.34Z" fill="#B4BED6"/>
<path d="M85.47 81.1899C108.82 81.1899 115.17 105.37 106.67 111.84C98.1701 118.31 95.45 107.41 85.94 107.41C76.43 107.41 73.36 118.31 64.86 110.82C56.36 103.33 64.18 81.1999 85.47 81.1999V81.1899Z" fill="#573524"/>
<path d="M36.4202 70.9C29.8002 76.24 43.8902 86.56 48.6602 83.17C53.4202 79.76 42.7702 65.8 36.4202 70.9Z" fill="#573524"/>
<path d="M66.3101 48.4202C61.1701 50.1402 65.39 66.1802 70.96 65.4002C80.59 64.0802 74.2101 45.7802 66.3101 48.4202Z" fill="#573524"/>
<path d="M108.82 48.76C101.65 46.44 96.47 62.9401 102.82 65.2201C109.16 67.4901 117.21 51.49 108.82 48.76Z" fill="#573524"/>
<path d="M138.4 70.35C133.11 66.17 122.54 79.18 127.75 83.27C132.96 87.36 144.75 75.36 138.4 70.35Z" fill="#573524"/>
</svg>
