<svg width="181" height="441" viewBox="0 0 181 441" fill="none" xmlns="http://www.w3.org/2000/svg">
<path d="M137.91 18.1399C139.8 16.3299 143.07 5.15988 142.58 0.879883C133.9 4.24988 128.93 12.2699 128.93 12.2699C133.33 17.0699 137.92 18.1299 137.92 18.1299H137.91V18.1399Z" fill="#D8CAC4"/>
<path d="M56.7299 13.1099C55.7399 10.6899 46.5699 3.54994 42.4299 2.43994C42.3699 11.7799 47.9999 19.3599 47.9999 19.3599C54.0599 17.0099 56.7299 13.1199 56.7299 13.1199V13.1099Z" fill="#D8CAC4"/>
<path d="M18.1 67.61C15.89 66.22 4.29003 65.73 0.280029 67.25C5.65003 74.89 14.61 77.78 14.61 77.78C18.19 72.34 18.11 67.61 18.11 67.61H18.1Z" fill="#D8CAC4"/>
<path d="M169.2 75.5297C174.26 72.1197 180.69 61.6597 180.69 61.6597C169.94 62.2997 162.4 67.1397 162.4 67.1397C166.38 76.3097 169.2 75.5297 169.2 75.5297Z" fill="#D8CAC4"/>
<path d="M30.79 107.25C20.33 102.79 13 92.3996 13 80.2896C13 64.7497 25.07 52.0396 40.33 51.0696C38.83 47.5396 38.01 43.6397 38.01 39.5597C38.01 23.2297 51.21 10.0096 67.47 10.0096C77.64 10.0096 86.61 15.1896 91.91 23.0496C97.61 14.7996 107.1 9.38965 117.85 9.38965C135.27 9.38965 149.38 23.5496 149.38 41.0096C149.38 45.8396 148.3 50.4196 146.37 54.5096C160.22 55.9596 171.02 67.6996 171.02 81.9697C171.02 93.7497 163.67 103.79 153.32 107.76C144.79 114.62 146.34 118.37 150.04 145.53C156.26 191.2 168.83 376.25 171.01 440.36H30.29C35.2 315.13 52.65 124.06 51.59 115.84C50.78 109.72 42.31 113.05 30.79 107.27V107.25Z" fill="#C9B495"/>
<path d="M30.79 107.25C20.33 102.79 13 92.3996 13 80.2896C13 64.7497 25.07 52.0396 40.33 51.0696C38.83 47.5396 38.01 43.6397 38.01 39.5597C38.01 23.2297 51.21 10.0096 67.47 10.0096C77.64 10.0096 86.61 15.1896 91.91 23.0496C97.61 14.7996 107.1 9.38965 117.85 9.38965C135.27 9.38965 149.38 23.5496 149.38 41.0096C149.38 45.8396 148.3 50.4196 146.37 54.5096C160.22 55.9596 171.02 67.6996 171.02 81.9697C171.02 93.7497 163.67 103.79 153.32 107.76C144.79 114.62 146.34 118.37 150.04 145.53C151.75 158.09 153.32 175.57 155.07 195.26C115.04 214.17 70.63 205.05 45.93 198.33C49.27 150.83 52.14 120.06 51.59 115.84C50.78 109.72 42.31 113.05 30.79 107.27V107.25Z" fill="#F2E7E1"/>
<path d="M97.3699 64.8701C80.3299 64.8701 65.6899 91.3901 72.4599 97.7401C82.5299 107.19 86.4399 97.0801 96.0599 97.0801C105.68 97.0801 112.58 106.44 121.19 99.4901C130.15 92.2601 113.54 64.8701 97.3799 64.8701H97.3699Z" fill="#DD9C9D"/>
<path d="M139.77 79.5599C139.77 82.7099 142.32 85.2599 145.45 85.2599C148.58 85.2599 151.13 82.7099 151.13 79.5599C151.13 76.4099 148.58 73.8599 145.45 73.8599C142.32 73.8599 139.77 76.4099 139.77 79.5599Z" fill="#DD9C9D"/>
<path d="M109.97 44.5799C109.97 47.7299 112.52 50.2799 115.65 50.2799C118.78 50.2799 121.33 47.7299 121.33 44.5799C121.33 41.4299 118.78 38.8799 115.65 38.8799C112.52 38.8799 109.97 41.4299 109.97 44.5799Z" fill="#DD9C9D"/>
<path d="M62.7 45.6399C62.7 48.7899 65.2499 51.3399 68.3799 51.3399C71.5099 51.3399 74.0599 48.7899 74.0599 45.6399C74.0599 42.4899 71.5099 39.9399 68.3799 39.9399C65.2499 39.9399 62.7 42.4899 62.7 45.6399Z" fill="#DD9C9D"/>
<path d="M37.3501 83.47C37.3501 86.62 39.9002 89.17 43.0302 89.17C46.1602 89.17 48.7101 86.62 48.7101 83.47C48.7101 80.32 46.1602 77.77 43.0302 77.77C39.9002 77.77 37.3501 80.32 37.3501 83.47Z" fill="#DD9C9D"/>
<path d="M98.4399 131.01C103.53 131.01 108.59 130.26 113.07 128.76C114.1 128.42 114.66 127.3 114.31 126.26C113.97 125.22 112.85 124.66 111.82 125.02C103.74 127.72 93.1499 127.72 84.8599 125.02C83.8299 124.69 82.7199 125.25 82.3799 126.29C82.0399 127.33 82.6099 128.43 83.6399 128.78C88.2299 130.27 93.3399 131.03 98.4199 131.03H98.4399V131.01Z" fill="#E1DABA"/>
</svg>
