<svg width="270" height="86" viewBox="0 0 270 86" fill="none" xmlns="http://www.w3.org/2000/svg">
<path d="M59.0473 34.1089C70.9801 32.331 82.9776 30.5484 95.0397 30.746C106.949 30.9408 119.833 33.633 127.552 42.704C129.701 45.2284 131.358 48.9954 129.488 51.7336C128.699 52.8884 127.415 53.6094 126.108 54.1064C120.857 56.1036 113.734 54.1588 112.016 48.8089C111.042 45.775 111.972 42.4663 113.218 39.5335C116.699 31.3381 122.714 24.241 130.228 19.4651C137.952 14.5562 146.975 12.1644 155.898 10.1325C164.468 8.18067 173.099 6.49527 181.775 5.07931C189.732 3.78085 197.748 2.70735 205.809 2.56685C226.681 2.20277 247.311 8.08778 268.177 7.46294" stroke="#CF5A8F" stroke-width="4.37838" stroke-miterlimit="10"/>
<g clip-path="url(#clip0_83_2061)">
<path d="M80.2054 53.4436C80.1642 53.6582 80.1143 53.8875 80.0565 54.1216C80.1074 53.8943 80.1642 53.6719 80.2054 53.4436Z" fill="#CF5A8F"/>
<path d="M14.542 17.2469C14.0668 16.6982 13.6043 16.176 13.1595 15.6841C12.3923 16.3856 11.6526 17.1097 10.9452 17.872C11.244 18.26 11.5546 18.6745 11.8593 19.0821C12.8215 18.2796 13.7425 17.6212 14.541 17.2469H14.542Z" fill="#CF5A8F"/>
<path d="M19.2538 11.0632C17.9958 11.8442 16.7818 12.678 15.6217 13.5892C16.6711 14.7385 17.8037 16.0417 19.003 17.5007C19.1333 15.2814 19.2156 13.1385 19.2548 11.0632H19.2538Z" fill="#CF5A8F"/>
<path d="M9.44024 21.2955C9.21195 20.9898 8.98366 20.69 8.75831 20.3931C8.04209 21.2945 7.3533 22.2234 6.71545 23.1856C6.84675 23.361 6.9849 23.5471 7.12011 23.7264C7.83731 22.9396 8.62506 22.1117 9.44122 21.2945L9.44024 21.2955Z" fill="#CF5A8F"/>
<path d="M80.9001 47.401C80.9324 46.7661 81.002 46.1409 81 45.4972C81 42.5881 80.6777 39.7545 80.0937 37.0198C79.3951 40.3688 78.5456 43.8923 77.4943 47.5979C78.6123 47.5235 79.7586 47.4647 80.9001 47.402V47.401Z" fill="#CF5A8F"/>
<path d="M74.0318 47.879C75.8738 41.4856 77.1563 35.6038 78.0224 30.2961C77.173 28.1992 76.1373 26.2092 74.9635 24.3054C74.2297 31.1211 72.8139 39.1566 70.2508 48.2454C71.4912 48.1141 72.7522 47.9917 74.0327 47.878L74.0318 47.879Z" fill="#CF5A8F"/>
<path d="M29.9511 33.2062C32.1057 22.6075 32.9287 13.3668 33.0453 5.71338C31.9793 5.91032 30.9348 6.169 29.9002 6.44923C29.7405 13.0052 29.0556 20.6478 27.5016 29.2399C28.311 30.5058 29.1271 31.8247 29.9511 33.2062Z" fill="#CF5A8F"/>
<path d="M24.8602 25.2754C25.8831 18.7185 26.3955 12.7739 26.5699 7.50928C25.1923 8.01585 23.849 8.58904 22.5439 9.23768C22.5116 13.0139 22.3382 17.0312 21.9806 21.2875C22.9212 22.5339 23.8804 23.8596 24.8602 25.2744V25.2754Z" fill="#CF5A8F"/>
<path d="M4.88033 26.2063C4.85878 26.2504 4.84604 26.2925 4.81763 26.3366C4.84996 26.3004 4.8725 26.2729 4.90091 26.2386C4.89503 26.2269 4.88915 26.2181 4.87935 26.2063H4.88033Z" fill="#CF5A8F"/>
<path d="M0.116595 43.2151C0.0754436 43.9764 0.00391915 44.7279 0 45.4961C0.00293936 45.7136 0.032333 45.9233 0.0333128 46.135C0.0440904 45.2051 0.0774032 44.2606 0.152847 43.2749C0.142069 43.2562 0.127372 43.2347 0.115615 43.2141L0.116595 43.2151Z" fill="#CF5A8F"/>
<path d="M14.3843 76.2675C14.154 76.0814 13.9247 75.8854 13.6955 75.6943C13.716 75.7453 13.7366 75.8002 13.7552 75.8531C14.6008 76.6007 15.4826 77.3091 16.3899 77.9822C16.3732 77.9313 16.3526 77.8784 16.334 77.8274C15.6854 77.3336 15.0329 76.8123 14.3852 76.2675H14.3843Z" fill="#CF5A8F"/>
<path d="M66.7216 76.0459C66.6393 76.2125 66.5619 76.3791 66.4864 76.5476C67.9385 75.3287 69.2808 73.9873 70.5506 72.5842C70.4732 72.593 70.3938 72.597 70.3203 72.6058C69.2318 73.7816 68.0413 74.9348 66.7225 76.0459H66.7216Z" fill="#CF5A8F"/>
<path d="M56.7895 82.2297C56.716 82.3776 56.6425 82.5226 56.568 82.6725C57.4851 82.2688 58.3777 81.8368 59.2615 81.3723C58.9058 81.4419 58.5482 81.5017 58.2023 81.5742C57.7399 81.7985 57.2656 82.0161 56.7895 82.2306V82.2297Z" fill="#CF5A8F"/>
<path d="M20.6235 80.6846C20.6343 80.7169 20.6451 80.7483 20.6529 80.7826C21.4152 81.2107 22.2039 81.5958 22.9956 81.977C22.9956 81.977 23.0005 81.973 23.0064 81.9721C22.2157 81.5801 21.4201 81.15 20.6235 80.6856V80.6846Z" fill="#CF5A8F"/>
<path d="M34.2886 41.0546C37.9952 26.9011 39.3522 14.7395 39.5658 5.04614C38.4792 5.07162 37.3877 5.09905 36.3217 5.21271C36.2325 13.9851 35.2263 24.8072 32.3496 37.4165C32.9963 38.5914 33.643 39.8044 34.2886 41.0546Z" fill="#CF5A8F"/>
<path d="M77.1534 62.4629C77.1847 62.4599 77.2131 62.458 77.2406 62.4589C77.7716 61.3145 78.2419 60.1475 78.6612 58.9521C78.6456 58.9521 78.6309 58.9521 78.6152 58.9521C78.2076 60.0672 77.7285 61.24 77.1534 62.4629Z" fill="#CF5A8F"/>
<path d="M2.03893 33.1769C2.01737 33.1406 1.98994 33.1005 1.96348 33.0623C1.43734 34.6986 1.02093 36.3809 0.708374 38.1005C0.749525 38.1613 0.792636 38.221 0.836726 38.2877C1.13654 36.6455 1.53238 34.9416 2.03893 33.1769Z" fill="#CF5A8F"/>
<path d="M73.2068 69.103C73.2646 69.0971 73.3204 69.0903 73.3782 69.0864C74.1395 68.0282 74.844 66.9337 75.5034 65.801C75.4593 65.8069 75.4162 65.8108 75.375 65.8138C74.7333 66.9023 74.0063 68.0027 73.2058 69.103H73.2068Z" fill="#CF5A8F"/>
<path d="M63.7293 49.0421C64.7218 48.904 65.7212 48.7707 66.7353 48.6404C69.9539 37.4695 71.4549 27.827 72.0536 20.1452C71.0885 18.943 70.0725 17.7966 68.978 16.7148C68.7027 24.8934 67.4172 35.8645 63.7303 49.0421H63.7293Z" fill="#CF5A8F"/>
<path d="M39.0955 51.235C46.0539 31.7365 47.8215 15.9918 47.9871 5.71832C46.3067 5.40281 44.5862 5.21469 42.8363 5.11475C42.6061 15.8085 40.9992 29.3948 36.4363 45.3717C37.3319 47.251 38.2205 49.2038 39.0955 51.235Z" fill="#CF5A8F"/>
<path d="M52.2413 51.0341C58.1043 34.4046 60.2109 20.5117 60.7762 10.4734C59.7132 9.86298 58.6256 9.29566 57.5047 8.78027C57.2049 18.9743 55.3335 33.6883 49.0717 51.7083C50.1054 51.4741 51.1714 51.2546 52.2403 51.0351L52.2413 51.0341Z" fill="#CF5A8F"/>
<path d="M45.3504 52.5998C52.2354 33.3531 54.0686 17.7641 54.2822 7.45246C53.2779 7.08601 52.2589 6.76463 51.2252 6.47754C51.0195 17.2654 49.0726 33.4746 41.6694 53.5757C42.8696 53.2416 44.0934 52.9153 45.3504 52.5998Z" fill="#CF5A8F"/>
<path d="M60.1942 49.5782C64.5072 34.5487 65.6908 22.3176 65.7917 13.897C65.1882 13.411 64.5631 12.9554 63.9272 12.5037C63.2551 22.2235 61.1583 35.069 55.9096 50.317C57.3097 50.0583 58.7402 49.8124 60.1942 49.5782Z" fill="#CF5A8F"/>
<path d="M63.7293 49.0422C67.4172 35.8646 68.7017 24.8935 68.977 16.7149C67.9679 15.7185 66.9009 14.7837 65.7908 13.897C65.6898 22.3176 64.5063 34.5487 60.1932 49.5782C61.3572 49.395 62.531 49.2167 63.7283 49.0422H63.7293Z" fill="#91235A"/>
<path d="M49.0726 51.7083C55.3345 33.6894 57.2059 18.9754 57.5057 8.78029C56.4524 8.29332 55.3786 7.8524 54.2822 7.45361C54.0686 17.7643 52.2354 33.3543 45.3504 52.6009C46.5654 52.2952 47.8028 51.9993 49.0726 51.7083Z" fill="#91235A"/>
<path d="M40.2575 53.9716C40.7248 53.8374 41.1922 53.7022 41.6694 53.5758C49.0726 33.4747 51.0195 17.2655 51.2252 6.47763C50.1543 6.1876 49.0824 5.92305 47.987 5.71729C47.8214 15.9907 46.0539 31.7355 39.0955 51.234C39.4854 52.1374 39.8744 53.0398 40.2575 53.9706V53.9716Z" fill="#91235A"/>
<path d="M55.9086 50.3169C61.1573 35.0689 63.2541 22.2234 63.9262 12.5036C62.9112 11.7766 61.8638 11.1034 60.7762 10.4744C60.2099 20.5126 58.1033 34.4056 52.2413 51.0351C53.4386 50.7843 54.6653 50.5481 55.9086 50.3179V50.3169Z" fill="#91235A"/>
<path d="M32.3496 37.4165C35.2253 24.8062 36.2325 13.985 36.3217 5.21265C35.2135 5.32337 34.127 5.51247 33.0453 5.71334C32.9297 13.3667 32.1057 22.6074 29.9511 33.2062C30.7496 34.5495 31.5472 35.9575 32.3496 37.4165Z" fill="#91235A"/>
<path d="M27.5007 29.2389C29.0546 20.6469 29.7395 13.0042 29.8992 6.44824C28.7685 6.75493 27.6613 7.10962 26.5699 7.50841C26.3955 12.772 25.883 18.7166 24.8601 25.2746C25.7272 26.5258 26.61 27.8476 27.5007 29.2389Z" fill="#91235A"/>
<path d="M21.9805 21.2877C22.3372 17.0313 22.5116 13.014 22.5439 9.23779C21.4152 9.79825 20.3208 10.4077 19.2538 11.0622C19.2156 13.1375 19.1323 15.2804 19.002 17.4997C19.9602 18.6588 20.9537 19.9218 21.9805 21.2877Z" fill="#91235A"/>
<path d="M36.4363 45.3728C40.9992 29.3948 42.6061 15.8086 42.8363 5.1148C42.0574 5.07266 41.2863 4.99624 40.4975 5.00016C40.185 4.99722 39.8793 5.03641 39.5658 5.04621C39.3522 14.7396 37.9952 26.9012 34.2886 41.0547C35.0088 42.449 35.723 43.8805 36.4363 45.3718V45.3728Z" fill="#91235A"/>
<path d="M65.4508 77.0612C65.6203 77.0358 65.7839 77.0044 65.9563 76.9799C66.1327 76.8329 66.3091 76.6958 66.4854 76.5478C66.5609 76.3793 66.6383 76.2127 66.7206 76.0461C66.3091 76.391 65.878 76.7281 65.4498 77.0612H65.4508Z" fill="#CF5A8F"/>
<path d="M77.4943 47.5969C78.5446 43.8912 79.3951 40.3687 80.0937 37.0187C79.5999 34.6975 78.8993 32.4537 78.0224 30.2961C77.1563 35.6029 75.8737 41.4857 74.0317 47.8791C75.1742 47.7791 76.3195 47.6831 77.4943 47.5969Z" fill="#91235A"/>
<path d="M52.8448 83.8063C52.8791 83.8856 52.9075 83.9513 52.9389 84.0307C54.1773 83.6348 55.3864 83.1792 56.568 82.6716C56.6425 82.5217 56.716 82.3777 56.7894 82.2288C55.5402 82.7922 54.2263 83.3193 52.8448 83.8053V83.8063Z" fill="#CF5A8F"/>
<path d="M70.2498 48.2466C72.8129 39.1577 74.2287 31.1212 74.9625 24.3066C74.0729 22.8613 73.1107 21.4621 72.0526 20.1453C71.4539 27.8271 69.9529 37.4695 66.7343 48.6405C67.8895 48.5013 69.0632 48.371 70.2488 48.2466H70.2498Z" fill="#91235A"/>
<path d="M2.03893 33.1768C1.53336 34.9424 1.13753 36.6453 0.836731 38.2875C5.33689 45.0032 10.1496 53.5404 14.588 64.1C15.561 63.5885 16.5897 63.0682 17.6665 62.543C12.6618 50.1728 7.09267 40.4843 2.03795 33.1758L2.03893 33.1768Z" fill="#CF5A8F"/>
<path d="M16.333 77.8275C16.3272 77.801 16.3193 77.7804 16.3105 77.7579C15.6697 77.2856 15.0299 76.7869 14.3842 76.2676C15.0329 76.8133 15.6844 77.3346 16.333 77.8275Z" fill="#CF5A8F"/>
<path d="M1.31879 55.5757C2.51413 60.2318 4.47958 64.5734 7.13088 68.428C7.20045 68.3859 7.27491 68.3398 7.34448 68.2938C5.38686 63.67 3.36066 59.4313 1.31879 55.5757Z" fill="#CF5A8F"/>
<path d="M11.733 65.658C7.99801 56.8033 3.99656 49.3733 0.153836 43.2759C0.0774124 44.2616 0.0450794 45.2051 0.0343018 46.136C0.0401805 46.3192 0.0578167 46.4936 0.0617358 46.6768C3.4371 52.2795 6.88203 58.8933 10.133 66.58C10.6415 66.2772 11.1823 65.9705 11.7339 65.659L11.733 65.658Z" fill="#CF5A8F"/>
<path d="M20.6236 80.6845C21.4201 81.1499 22.2157 81.579 23.0064 81.971C23.027 81.9592 23.0534 81.9484 23.0769 81.9367C22.2608 81.5251 21.4329 81.0627 20.5902 80.5718C20.601 80.609 20.6147 80.6472 20.6236 80.6845Z" fill="#CF5A8F"/>
<path d="M9.44026 21.2954C8.62409 22.1116 7.83732 22.9405 7.11914 23.7273C13.135 31.6365 20.2267 43.072 26.4327 58.6727C27.2763 58.3376 28.1385 58.0064 29.0213 57.6743C22.8251 41.4092 15.5649 29.4985 9.44026 21.2954Z" fill="#CF5A8F"/>
<path d="M20.5883 61.1665C21.5073 60.7462 22.4626 60.3249 23.4492 59.9035C17.4804 45.02 10.6806 33.9666 4.90186 26.2388C4.87345 26.2731 4.84993 26.3005 4.81858 26.3368C4.2895 27.3234 3.80744 28.3415 3.36066 29.3732C8.86216 37.0041 15.0603 47.448 20.5892 61.1665H20.5883Z" fill="#CF5A8F"/>
<path d="M14.542 17.2468C13.7435 17.6211 12.8225 18.2796 11.8603 19.082C18.1878 27.4762 25.6704 39.7161 32.04 56.5828C33.6792 56.0086 35.3674 55.4442 37.1457 54.8955C29.5523 36.6591 20.7872 24.4622 14.542 17.2468Z" fill="#CF5A8F"/>
<path d="M49.9202 84.7399C49.929 84.7723 49.9378 84.8115 49.9447 84.8448C50.9578 84.6047 51.9571 84.347 52.9389 84.0315C52.9085 83.9521 52.8801 83.8865 52.8448 83.8071C51.9033 84.1373 50.9284 84.4479 49.9202 84.7399Z" fill="#CF5A8F"/>
<path d="M47.9194 85.2916C48.6023 85.1613 49.2755 85.0055 49.9447 84.8448C49.9378 84.8115 49.93 84.7713 49.9202 84.74C49.2617 84.9271 48.6072 85.1192 47.9194 85.2926V85.2916Z" fill="#E59D95"/>
<path d="M37.1457 54.8945C38.1549 54.58 39.2023 54.2792 40.2575 53.9715C39.8744 53.0407 39.4854 52.1383 39.0955 51.2349C38.2205 49.2037 37.3319 47.2509 36.4363 45.3716C35.723 43.8803 35.0088 42.4488 34.2886 41.0545C33.6429 39.8043 32.9963 38.5903 32.3496 37.4164C31.5472 35.9575 30.7496 34.5495 29.9511 33.2061C29.1261 31.8246 28.3109 30.5048 27.5016 29.2398C26.611 27.8485 25.7282 26.5267 24.8611 25.2755C23.8813 23.8606 22.9211 22.5339 21.9815 21.2886C20.9557 19.9227 19.9612 18.6597 19.003 17.5006C17.8047 16.0406 16.6711 14.7384 15.6217 13.5891C14.7693 14.2515 13.9531 14.953 13.1595 15.685C13.6043 16.1768 14.0668 16.6991 14.542 17.2478C20.7881 24.4632 29.5523 36.66 37.1457 54.8955V54.8945Z" fill="#BA4C83"/>
<path d="M23.4492 59.9034C24.4124 59.4919 25.4059 59.0804 26.4327 58.6728C20.2267 43.072 13.135 31.6365 7.11912 23.7274C6.98391 23.5481 6.84576 23.3629 6.71447 23.1865C6.06585 24.1673 5.44565 25.1667 4.88031 26.2063C4.89011 26.2181 4.89501 26.2269 4.90187 26.2387C10.6816 33.9665 17.4804 45.0199 23.4502 59.9034H23.4492Z" fill="#BA4C83"/>
<path d="M17.6675 62.544C18.6032 62.0874 19.5752 61.6239 20.5883 61.1663C15.0593 47.4478 8.8612 37.0039 3.3597 29.373C2.83453 30.5753 2.37207 31.8059 1.9635 33.0631C1.98898 33.1013 2.01641 33.1414 2.03894 33.1777C7.09367 40.4862 12.6638 50.1747 17.6675 62.5449V62.544Z" fill="#BA4C83"/>
<path d="M16.5476 77.9244C16.4732 77.8695 16.3918 77.8186 16.3105 77.7578C16.3193 77.7803 16.3282 77.8009 16.3331 77.8274C16.3517 77.8783 16.3722 77.9312 16.3889 77.9822C16.3918 77.9861 16.3967 77.99 16.4075 77.9959C16.4496 77.9734 16.5045 77.945 16.5476 77.9244Z" fill="#E59D95"/>
<path d="M11.7329 65.6579C12.6285 65.1493 13.5828 64.63 14.589 64.1009C10.1496 53.5414 5.33688 45.0042 0.836721 38.2885C0.79263 38.2218 0.74952 38.163 0.708369 38.1013C0.397776 39.7709 0.212596 41.4788 0.116577 43.215C0.128335 43.2356 0.143031 43.2571 0.153809 43.2758C3.99654 49.3732 7.99897 56.8032 11.7339 65.6579H11.7329Z" fill="#BA4C83"/>
<path d="M20.5902 80.5718C20.2924 80.3955 19.9965 80.224 19.6967 80.0417C19.6506 80.0643 19.6036 80.0888 19.5536 80.1133C19.9201 80.3347 20.2806 80.5699 20.6529 80.7825C20.6461 80.7492 20.6343 80.7168 20.6235 80.6845C20.6147 80.6473 20.601 80.6091 20.5902 80.5718Z" fill="#E59D95"/>
<path d="M13.5916 75.6091C13.57 75.6229 13.5485 75.6317 13.5211 75.6434C13.6043 75.715 13.6778 75.7845 13.7552 75.8521C13.7366 75.7992 13.716 75.7443 13.6955 75.6934C13.6612 75.662 13.6288 75.6375 13.5916 75.6082V75.6091Z" fill="#E59D95"/>
<path d="M10.133 66.5799C6.88204 58.8932 3.4371 52.2794 0.0617371 46.6758C0.150898 49.7456 0.581024 52.7174 1.3188 55.5755C3.36166 59.4311 5.38688 63.6698 7.3445 68.2936C8.19789 67.7498 9.11399 67.1805 10.133 66.5799Z" fill="#BA4C83"/>
<path d="M29.0223 57.6744C29.9991 57.308 31.0102 56.9435 32.04 56.5829C25.6704 39.7153 18.1878 27.4753 11.8603 19.0812C11.5556 18.6745 11.245 18.2591 10.9462 17.8711C10.1868 18.6804 9.45297 19.5162 8.7583 20.3932C8.98463 20.6891 9.21194 20.9899 9.44023 21.2956C15.5649 29.4987 22.8251 41.4084 29.0213 57.6735L29.0223 57.6744Z" fill="#BA4C83"/>
<path d="M14.3843 76.2676C15.0299 76.7869 15.6697 77.2856 16.3105 77.7579C16.3909 77.8186 16.4732 77.8696 16.5476 77.9245C29.0242 71.6634 48.9884 64.4774 77.1534 62.4629C77.7275 61.24 78.2076 60.0672 78.6152 58.9521C48.037 60.997 26.5454 68.9934 13.5916 75.6091C13.6288 75.6385 13.6612 75.664 13.6955 75.6944C13.9257 75.8845 14.155 76.0804 14.3843 76.2676Z" fill="#CF5A8F"/>
<path d="M9.0748 71.0294C9.69598 71.7897 10.3613 72.5118 11.0373 73.2281C24.284 66.2331 46.825 57.6362 79.6508 55.703C79.787 55.1758 79.9399 54.6555 80.0565 54.1206C80.1143 53.8864 80.1652 53.6571 80.2054 53.4425C80.3915 52.5146 80.5189 51.5642 80.6424 50.6128C43.0372 52.8282 19.5624 64.4352 9.0748 71.0294Z" fill="#CF5A8F"/>
<path d="M23.0779 81.9357C34.6267 76.7339 51.2076 71.3674 73.2077 69.103C74.0092 68.0026 74.7352 66.9023 75.377 65.8137C50.123 67.9409 31.6873 74.3058 19.6976 80.0417C19.9974 80.223 20.2933 80.3955 20.5912 80.5718C21.4338 81.0627 22.2617 81.5252 23.0779 81.9367V81.9357Z" fill="#CF5A8F"/>
<path d="M50.3895 84.7371C51.3938 84.448 51.9023 84.1365 52.8448 83.8063C54.2263 83.3203 55.5402 82.7921 56.7895 82.2297C57.2656 82.0151 57.7399 81.7976 58.2023 81.5732C51.8376 82.8333 46.0784 84.3442 40.9042 85.9766C43.3007 85.954 45.6375 85.711 47.9194 85.2917C48.6073 85.1182 49.7301 84.9242 50.3905 84.7371H50.3895Z" fill="#CF5A8F"/>
<path d="M65.4508 77.0612C65.8789 76.7281 66.31 76.391 66.7215 76.0461C68.0403 74.934 69.2318 73.7808 70.3193 72.606C52.0355 74.8282 37.712 79.255 27.1695 83.7064C29.0409 84.358 30.9623 84.8949 32.9453 85.2653C41.6968 82.026 52.496 79.014 65.4508 77.0612Z" fill="#CF5A8F"/>
<path d="M74.0317 47.879C72.7512 47.9927 71.4902 48.1152 70.2498 48.2465C69.0642 48.3709 67.8895 48.5012 66.7353 48.6404C65.7212 48.7707 64.7218 48.9039 63.7293 49.0421C62.531 49.2165 61.3572 49.3948 60.1942 49.578C58.7392 49.8122 57.3087 50.0582 55.9096 50.3168C54.6662 50.5471 53.4396 50.7832 52.2423 51.0341C51.1733 51.2535 50.1063 51.473 49.0736 51.7072C47.8038 51.9982 46.5663 52.2941 45.3514 52.5998C44.0943 52.9153 42.8716 53.2416 41.6703 53.5757C41.1932 53.7021 40.7249 53.8373 40.2585 53.9716C39.2042 54.2792 38.1558 54.58 37.1467 54.8946C35.3684 55.4433 33.6792 56.0076 32.041 56.5818C31.0112 56.9424 30.0001 57.3069 29.0233 57.6733C28.1405 58.0055 27.2782 58.3367 26.4347 58.6718C25.4078 59.0794 24.4143 59.4909 23.4512 59.9024C22.4646 60.3238 21.5093 60.7451 20.5902 61.1654C19.5771 61.623 18.6052 62.0865 17.6695 62.5431C16.5927 63.0673 15.5639 63.5885 14.591 64.1C13.5857 64.6291 12.6304 65.1484 11.7349 65.6569C11.1833 65.9685 10.6424 66.2762 10.1339 66.578C9.11496 67.1786 8.19885 67.7479 7.34546 68.2917C7.2759 68.3377 7.20045 68.3828 7.13187 68.4259C7.74815 69.3185 8.39383 70.1876 9.07674 71.0283C19.5644 64.4341 43.0391 52.8281 80.6443 50.6118C80.7776 49.5536 80.856 48.4806 80.902 47.3999C79.7615 47.4626 78.6142 47.5214 77.4963 47.5959C76.3225 47.6821 75.1761 47.7781 74.0337 47.8781L74.0317 47.879Z" fill="#BA4C83"/>
<path d="M16.5476 77.9243C16.5045 77.9448 16.4497 77.9733 16.4075 77.9958C17.4216 78.7473 18.468 79.4518 19.5536 80.1132C19.6036 80.0887 19.6506 80.0642 19.6967 80.0417C31.6863 74.3058 50.122 67.9409 75.376 65.8137C75.4172 65.8117 75.4603 65.8068 75.5044 65.8009C76.1334 64.7153 76.7134 63.6002 77.2406 62.4578C77.2131 62.4578 77.1837 62.4597 77.1534 62.4617C48.9884 64.4762 29.0243 71.6622 16.5476 77.9233V77.9243Z" fill="#BA4C83"/>
<path d="M23.0779 81.9358C23.0544 81.9476 23.0279 81.9584 23.0074 81.9701C23.0005 81.9721 22.9966 81.975 22.9966 81.975C24.3487 82.6246 25.739 83.2057 27.1705 83.7054C37.713 79.2531 52.0365 74.8262 70.3203 72.605C70.3938 72.5961 70.4732 72.5913 70.5506 72.5834C71.5558 71.4664 72.5023 70.3043 73.3792 69.0864C73.3214 69.0903 73.2655 69.0972 73.2077 69.1031C51.2086 71.3675 34.6267 76.7339 23.0779 81.9358Z" fill="#BA4C83"/>
<path d="M32.9453 85.2651C35.3948 85.7296 37.9119 85.997 40.4985 86C40.6367 85.9961 40.7729 85.9814 40.9042 85.9765C46.0784 84.3431 51.8376 82.8332 58.2023 81.5731C58.5482 81.5016 58.9058 81.4409 59.2615 81.3713C61.6374 80.125 63.8831 78.6582 65.9563 76.9797C65.7839 77.0033 65.6193 77.0346 65.4508 77.0611C52.496 79.0139 41.6968 82.0258 32.9453 85.2651Z" fill="#BA4C83"/>
<path d="M11.0373 73.228C11.8309 74.0706 12.6637 74.8721 13.5201 75.6442C13.5485 75.6325 13.5691 75.6237 13.5906 75.6099C26.5444 68.9932 48.037 60.9969 78.6142 58.9529C78.6299 58.9529 78.6446 58.9529 78.6603 58.9529C79.0365 57.8908 79.3637 56.8071 79.6489 55.7048C46.823 57.638 24.2821 66.235 11.0353 73.2299L11.0373 73.228Z" fill="#BA4C83"/>
</g>
<defs>
<clipPath id="clip0_83_2061">
<rect width="81" height="81" fill="white" transform="translate(0 5)"/>
</clipPath>
</defs>
</svg>
