<svg width="191" height="102" viewBox="0 0 191 102" fill="none" xmlns="http://www.w3.org/2000/svg">
<g clip-path="url(#clip0_98_374)">
<path d="M46.6132 52.4775C46.6132 52.4775 14.3246 62.2518 10.1271 83.7787C5.9297 105.306 21.4785 100.898 22.1115 93.2191C22.6778 86.3162 30.1399 69.255 46.938 64.8728C51.6434 63.6458 56.0741 61.534 59.9384 58.5875" fill="#6D6D77"/>
<path d="M166.956 52.0436L182.622 55.6328C182.622 55.6328 185.562 59.439 187.51 59.0467C189.459 58.6544 192.224 54.6729 190.409 51.259C190.409 51.259 191.283 46.785 185.953 45.0155C180.615 43.2459 146.377 29.5151 143.462 27.4868L150.067 47.82L166.956 52.052L166.956 52.0436Z" fill="#6D6D77"/>
<path d="M34.0792 38.4543C38.0684 68.1362 75.279 68.4867 104.678 61.4169C125.082 56.5088 137.408 76.3245 137.949 76.8087C137.225 81.4913 141.339 90.9067 145.336 89.1038C148.093 87.8601 150.15 85.6565 151.316 84.1624C153.081 84.4795 162.567 85.8234 169.055 80.0389C171.82 80.7067 177.242 81.6833 179.457 79.7051C182.039 77.4097 178.683 71.4082 175.318 69.0794C177.142 63.2615 177.533 57.7943 177.533 57.7943C177.533 57.7943 178.574 52.0432 173.044 48.7461C171.337 47.7278 169.063 47.1185 166.498 46.8514C157.962 43.8047 153.298 40.5411 150.508 36.7098C144.628 28.6299 135.176 16.0344 124.899 10.0496C79.718 -16.2434 30.8895 14.7322 34.0709 38.4543L34.0792 38.4543Z" fill="#9292A0"/>
<path d="M41.3997 36.8853L17.8391 63.846C17.8391 63.846 6.52102 68.9126 4.60553 71.9592C2.69003 75.0142 3.74772 76.0242 3.74772 76.0242C3.74772 76.0242 2.55678 78.545 6.35446 79.3964C6.35446 79.3964 9.9939 80.9239 13.7999 78.8204C48.5287 59.6141 66.4428 65.0229 66.4428 65.0229" fill="#9292A0"/>
<path d="M133.635 70.2731C134.335 72.6604 135.684 74.7889 137.949 76.8005C137.225 81.4831 141.339 90.8985 145.336 89.0956C148.093 87.8519 150.15 85.6483 151.316 84.1542C152.424 84.3545 156.596 84.9555 161.143 83.9455C163.767 78.6618 167.023 67.7273 152.265 63.0947C142.63 60.0731 136.866 64.6473 133.635 70.2815L133.635 70.2731Z" fill="#6D6D77"/>
<path d="M55.1497 9.79102L18.6303 42.5696C18.6303 42.5696 6.23786 42.3776 3.21471 44.3308C0.191555 46.284 0.724562 47.6529 0.724562 47.6529C0.724562 47.6529 -1.4158 49.4308 1.66565 51.8097C1.66565 51.8097 4.73878 56.3254 8.65305 54.4306C12.5673 52.5359 45.8803 43.4877 45.8803 43.4877" fill="#9292A0"/>
<path d="M170.779 64.3217C170.646 63.4954 170.987 62.7442 171.537 62.6523C172.095 62.5605 172.653 63.1615 172.786 63.9879C172.919 64.8142 172.578 65.5654 172.028 65.6572C171.47 65.7491 170.912 65.1481 170.779 64.3217Z" fill="#181616"/>
<path d="M154.181 69.7055C154.048 68.8792 154.389 68.1279 154.939 68.0361C155.497 67.9443 156.055 68.5453 156.188 69.3716C156.321 70.198 155.98 70.9492 155.43 71.041C154.872 71.1328 154.314 70.5319 154.181 69.7055Z" fill="#181616"/>
<path d="M169.655 58.8213C169.655 58.8213 165.324 56.9933 163.8 61.8846C163.8 61.8846 160.469 58.646 156.438 62.5857" stroke="#060203" stroke-width="1.24" stroke-linecap="round" stroke-linejoin="round"/>
<path d="M162.409 64.2384C162.251 63.5456 162.792 62.1182 163.808 61.8845C164.824 61.6508 165.932 62.6942 166.099 63.387C166.257 64.0798 165.441 64.3051 164.425 64.5389C163.408 64.7726 162.576 64.9312 162.417 64.2384L162.409 64.2384Z" fill="#E96E6E"/>
<path d="M122.583 80.9153L129.662 95.3723C129.662 95.3723 128.563 100.055 130.096 101.332C131.628 102.601 136.45 102.25 137.957 98.686C137.957 98.686 141.98 96.5492 139.989 91.2823C137.999 86.0153 127.089 50.7076 126.831 47.1602L112.948 60.2148L122.575 80.9237L122.583 80.9153Z" fill="#9292A0"/>
<path d="M136.483 75.3317C136.483 75.3317 129.238 63.5541 138.066 55.7163" stroke="#060203" stroke-width="1.24" stroke-linecap="round" stroke-linejoin="round"/>
<path d="M175.318 69.0713C175.318 69.0713 174.069 75.1061 169.863 78.1194" stroke="#060203" stroke-width="1.24" stroke-linecap="round" stroke-linejoin="round"/>
<path d="M190.417 51.2588C190.417 51.2588 189.293 57.7027 184.737 55.2153" stroke="#060203" stroke-width="1.24" stroke-linecap="round" stroke-linejoin="round"/>
<path d="M6.83749 78.4534L10.5852 75.7573" stroke="#060203" stroke-width="0.91" stroke-linecap="round" stroke-linejoin="round"/>
<path d="M4.67215 74.7806L8.00345 72.1597" stroke="#060203" stroke-width="0.91" stroke-linecap="round" stroke-linejoin="round"/>
<path d="M2.50681 51.1586L7.03737 50.2988" stroke="#060203" stroke-width="0.91" stroke-linecap="round" stroke-linejoin="round"/>
<path d="M2.09039 46.9101L6.21287 45.9419" stroke="#060203" stroke-width="0.91" stroke-linecap="round" stroke-linejoin="round"/>
<path d="M137.966 98.6782C137.966 98.6782 132.261 101.858 131.32 96.7417" stroke="#060203" stroke-width="1.24" stroke-linecap="round" stroke-linejoin="round"/>
<path d="M67.8419 64.8894C67.8419 64.8894 52.5846 64.5889 48.3788 64.9896C44.173 65.3902 37.9185 67.8443 37.9185 67.8443" stroke="#060203" stroke-width="1.24" stroke-linecap="round" stroke-linejoin="round"/>
<path d="M46.0385 34.3979L35.3867 44.239" stroke="#060203" stroke-width="1.24" stroke-linecap="round" stroke-linejoin="round"/>
<path d="M83.5573 47.8701C80.7673 48.9635 78.8102 51.1588 76.7448 53.2455C75.2041 54.8064 73.6467 56.3589 72.1809 57.9783C70.2904 60.0566 69.3493 62.327 69.0995 64.9897C80.5258 65.7994 93.1931 64.1801 104.678 61.4172C105.902 61.1251 107.085 60.9331 108.251 60.7995C107.085 58.3789 105.752 56.0334 104.228 53.8548C102.671 51.6345 100.738 49.7314 98.3066 48.5044C95.8248 47.2524 93.0515 47.0354 90.3282 47.0187C88.1045 47.002 85.656 47.0437 83.5656 47.8617L83.5573 47.8701Z" fill="#6D6D77"/>
</g>
<defs>
<clipPath id="clip0_98_374">
<rect width="191" height="102" fill="white"/>
</clipPath>
</defs>
</svg>
