<svg width="133" height="205" viewBox="0 0 133 205" fill="none" xmlns="http://www.w3.org/2000/svg">
<g clip-path="url(#clip0_98_879)">
<path d="M93.12 144.07C101.78 172.48 90.47 191.05 100.07 202.04C102.39 204.69 113.6 204.85 114.17 202.14C114.61 200.07 110.65 199.39 110.19 198.04C101.76 173.22 126.53 139.32 126.53 139.32C126.53 139.32 119.63 135.98 108.11 137.92C96.59 139.86 93.12 144.07 93.12 144.07Z" fill="#ED7343"/>
<path d="M47.2999 136.58C49.1599 143.92 46.1199 147.99 45.3999 151.98C44.4499 157.23 47.2899 177.77 53.9199 182.86C56.8099 185.08 65.2299 185.19 65.7499 183.85C67.4799 179.37 61.3999 179.45 60.4399 177.25C57.5999 170.7 59.6199 156.92 65.3699 149.11C67.4099 146.34 70.8399 143.04 73.4599 138.98C78.7099 131.04 67.6199 110.98 50.9799 109.41C34.3399 107.83 44.6299 126.11 47.2899 136.59L47.2999 136.58Z" fill="#ED7343"/>
<path d="M19.47 88.87C19.47 88.87 20.09 81.38 29.12 69.25C38.16 57.11 46.36 44.17 37.54 31.23C28.71 18.29 22.34 23.84 19.47 16.44C16.59 9.04997 33.27 4.52997 43.73 21.57C54.18 38.62 50.67 50.12 42.88 59.36C35.08 68.6 25.22 80.48 25.64 88.61L19.48 88.86L19.47 88.87Z" fill="#ED7343"/>
<path d="M0.19996 149.03C1.22996 143.75 3.73996 141.02 2.09996 133.63C0.45996 126.24 -2.42004 111.04 5.38996 98.93C13.2 86.82 27.41 80.13 46.34 83.48C64.36 86.67 75.74 93.1 75.74 93.07C76.08 90.06 79.8 76.38 83.08 75.66C86.38 74.93 87.24 79.19 87.24 79.19C98.33 74.87 112.04 75.11 112.04 75.11C113.65 70.94 115.82 67.95 118.02 68.41C121.92 69.22 127.29 79.57 131.46 101.96C133.89 115.02 133.77 133.93 122.68 149.33C115.52 159.27 103.6 163.3 92.67 162.93C89.68 172.33 79.77 186.23 84.94 197.94C85.52 199.25 88.98 199.88 87.9 202.16C87.01 204.05 76.12 204.71 73.8 202.06C65.85 192.96 75.13 178.93 69.45 153.93C62.46 148.94 22.23 143.41 20.19 146.17C14.44 153.98 12.42 167.75 15.26 174.31C16.21 176.51 22.15 179.07 21.03 181.83C20.49 183.16 11.03 183.26 8.14996 181.04C1.50996 175.92 -0.72004 153.73 0.19996 149.03Z" fill="#ED7343"/>
<mask id="mask0_98_879" style="mask-type:luminance" maskUnits="userSpaceOnUse" x="0" y="68" width="133" height="136">
<path d="M0.19996 149.03C1.22996 143.75 3.73996 141.02 2.09996 133.63C0.45996 126.24 -2.42004 111.04 5.38996 98.93C13.2 86.82 27.41 80.13 46.34 83.48C64.36 86.67 75.74 93.1 75.74 93.07C76.08 90.06 79.8 76.38 83.08 75.66C86.38 74.93 87.24 79.19 87.24 79.19C98.33 74.87 112.04 75.11 112.04 75.11C113.65 70.94 115.82 67.95 118.02 68.41C121.92 69.22 127.29 79.57 131.46 101.96C133.89 115.02 133.77 133.93 122.68 149.33C115.52 159.27 103.6 163.3 92.67 162.93C89.68 172.33 79.77 186.23 84.94 197.94C85.52 199.25 88.98 199.88 87.9 202.16C87.01 204.05 76.12 204.71 73.8 202.06C65.85 192.96 75.13 178.93 69.45 153.93C62.46 148.94 22.23 143.41 20.19 146.17C14.44 153.98 12.42 167.75 15.26 174.31C16.21 176.51 22.15 179.07 21.03 181.83C20.49 183.16 11.03 183.26 8.14996 181.04C1.50996 175.92 -0.72004 153.73 0.19996 149.03Z" fill="white"/>
</mask>
<g mask="url(#mask0_98_879)">
<path d="M48.94 81.5698C40.06 88.5398 33.09 97.9298 29.01 108.45C28.73 109.18 28.46 109.93 28.49 110.71C28.52 111.49 28.93 112.3 29.66 112.58C30.12 112.76 30.64 112.7 31.13 112.62C38.3 111.44 43.81 105.79 48.4 100.15C52.98 94.5198 57.48 88.3498 64.09 85.3398" fill="#ED7343"/>
<path d="M65.4 87.0698C60.93 91.3998 58.41 97.2998 56 103.04C55.12 105.14 54.22 107.32 54.29 109.6C54.3 109.97 54.35 110.37 54.6 110.65C55.03 111.13 55.8 111.02 56.42 110.82C61.02 109.34 64.49 105.5 67.01 101.37C69.53 97.2498 71.34 92.7098 73.97 88.6498" fill="#ED7343"/>
<path d="M92.57 72.9598C91.49 77.3398 88.36 86.7198 92.87 86.7198C95.18 86.7198 95.16 78.1298 95.31 75.8498C95.43 73.9598 95.36 72.5098 96.02 70.7498C98.18 71.9698 98.92 74.7198 99.02 77.1998C99.11 79.6798 98.72 86.0098 100.84 85.8598C103.41 85.6698 103.27 81.8298 103.32 80.3698C103.48 75.1298 103.32 72.0398 103.21 67.5098" fill="#ED7343"/>
</g>
<path d="M87.3 116.68C78.05 114.23 76.16 110.86 75.28 107.19C74.14 102.42 75.18 98.4 75.64 94.21" stroke="#141421" stroke-width="1.54" stroke-linecap="round" stroke-linejoin="round"/>
<path d="M21.33 145.02C28.97 140.86 33.31 139.05 34.69 133.07" stroke="#141421" stroke-width="1.54" stroke-linecap="round" stroke-linejoin="round"/>
<path d="M87.24 94.9399C87.21 95.9599 86.63 96.7599 85.95 96.7399C85.27 96.7199 84.74 95.8799 84.77 94.8599C84.8 93.8399 85.38 93.0399 86.06 93.0599C86.74 93.0799 87.27 93.9199 87.24 94.9399Z" fill="#181616"/>
<path d="M108.25 92.3999C108.22 93.4199 107.64 94.2199 106.96 94.1999C106.28 94.1799 105.75 93.3399 105.78 92.3199C105.81 91.2999 106.39 90.4999 107.07 90.5199C107.75 90.5399 108.28 91.3799 108.25 92.3999Z" fill="#181616"/>
<path d="M87.3 101.74C87.3 101.74 92.03 104.92 94.98 99.46C94.98 99.46 98.2 104.08 103.91 100.34" stroke="#060203" stroke-width="1.54" stroke-linecap="round" stroke-linejoin="round"/>
<path d="M97.19 96.9898C97.22 97.8498 96.24 99.4198 94.98 99.4598C93.71 99.4998 92.64 97.9998 92.61 97.1398C92.58 96.2798 93.61 96.1999 94.87 96.1599C96.14 96.1199 97.16 96.1198 97.19 96.9898Z" fill="#F6BED7"/>
<mask id="mask1_98_879" style="mask-type:luminance" maskUnits="userSpaceOnUse" x="0" y="68" width="133" height="136">
<path d="M0.19996 149.03C1.22996 143.75 3.73996 141.02 2.09996 133.63C0.45996 126.24 -2.42004 111.04 5.38996 98.93C13.2 86.82 27.41 80.13 46.34 83.48C64.36 86.67 75.74 93.1 75.74 93.07C76.08 90.06 79.8 76.38 83.08 75.66C86.38 74.93 87.24 79.19 87.24 79.19C98.33 74.87 112.04 75.11 112.04 75.11C113.65 70.94 115.82 67.95 118.02 68.41C121.92 69.22 127.29 79.57 131.46 101.96C133.89 115.02 133.77 133.93 122.68 149.33C115.52 159.27 103.6 163.3 92.67 162.93C89.68 172.33 79.77 186.23 84.94 197.94C85.52 199.25 88.98 199.88 87.9 202.16C87.01 204.05 76.12 204.71 73.8 202.06C65.85 192.96 75.13 178.93 69.45 153.93C62.46 148.94 22.23 143.41 20.19 146.17C14.44 153.98 12.42 167.75 15.26 174.31C16.21 176.51 22.15 179.07 21.03 181.83C20.49 183.16 11.03 183.26 8.14996 181.04C1.50996 175.92 -0.72004 153.73 0.19996 149.03Z" fill="white"/>
</mask>
<g mask="url(#mask1_98_879)">
<path d="M48.94 81.5698C40.06 88.5398 33.09 97.9298 29.01 108.45C28.73 109.18 28.46 109.93 28.49 110.71C28.52 111.49 28.93 112.3 29.66 112.58C30.12 112.76 30.64 112.7 31.13 112.62C38.3 111.44 43.81 105.79 48.4 100.15C52.98 94.5198 57.48 88.3498 64.09 85.3398" fill="#C84F21"/>
<path d="M65.4 87.0698C60.93 91.3998 58.41 97.2998 56 103.04C55.12 105.14 54.22 107.32 54.29 109.6C54.3 109.97 54.35 110.37 54.6 110.65C55.03 111.13 55.8 111.02 56.42 110.82C61.02 109.34 64.49 105.5 67.01 101.37C69.53 97.2498 71.34 92.7098 73.97 88.6498" fill="#C84F21"/>
<path d="M92.5699 72.9598C91.4899 77.3398 88.3599 86.7198 92.8699 86.7198C95.1799 86.7198 95.1599 78.1298 95.3099 75.8498C95.4299 73.9598 95.3599 72.5098 96.0199 70.7498C98.1799 71.9698 98.9199 74.7198 99.0199 77.1998C99.1099 79.6798 98.7199 86.0098 100.84 85.8598C103.41 85.6698 103.27 81.8298 103.32 80.3698C103.48 75.1298 103.32 72.0398 103.21 67.5098" fill="#C84F21"/>
<path d="M91.95 173.63C81.5 172.4 71.06 171.17 60.61 169.95C60.06 172.24 61.81 174.57 63.95 175.52C66.1 176.47 68.54 176.4 70.9 176.35C78.78 176.17 86.67 176.44 94.52 177.14" fill="#C84F21"/>
<path d="M90.7 172.26C80.25 171.03 69.81 169.8 59.36 168.58C59.01 168.54 57.7 168.41 57.59 169.01C57.02 172.03 59.36 174.46 61.84 175.78C65.41 177.68 69.37 177.8 73.31 177.72C80.81 177.57 88.31 177.83 95.78 178.49C96.49 178.55 98.13 178.48 97.3 177.41C96.47 176.34 94.49 175.87 93.28 175.76C87.01 175.2 80.71 174.91 74.42 174.89C71.61 174.89 68.69 175.2 65.89 174.91C65.46 174.87 64.84 174.54 65.42 174.92C65.06 174.68 64.75 174.41 64.47 174.07C63.72 173.15 63.42 172.02 63.64 170.86L61.87 171.29C72.32 172.52 82.76 173.75 93.21 174.97C93.93 175.05 95.55 174.95 94.73 173.89C93.91 172.83 91.94 172.38 90.71 172.24L90.7 172.26Z" fill="#C7502A"/>
<path d="M91.1599 191.31C90.6199 190.22 89.2799 188.53 87.9399 188.38C83.2899 187.85 78.6199 187.65 73.9499 187.71C73.5099 187.37 73.0999 187.13 72.8099 187.11C71.1299 187.03 69.8499 185.6 68.0899 185.63C66.4399 185.65 64.8999 186.96 63.7699 188.05C62.7199 189.07 60.9399 190.88 61.0299 192.47C61.1099 193.95 62.4899 195.58 63.6299 196.35C64.5599 196.98 65.4199 197.07 66.5299 197.07C74.6699 197.05 83.0099 196.88 90.6199 193.65C90.7999 193.58 90.9099 193.47 91.0099 193.36C91.7399 193.11 91.5199 192.01 91.1699 191.31H91.1599Z" fill="#C7502A"/>
<path d="M22.88 152C21.8 150.74 20.52 149.52 18.89 149.04C17.52 148.64 15.95 148.81 14.55 148.9C11.99 149.06 9.14996 149.55 7.11996 151.24C6.01996 152.15 5.08996 153.46 5.29996 154.95C5.51996 156.5 6.75996 158.13 8.11996 158.86C8.78996 159.22 9.54996 159.45 10.27 159.67C13.07 160.55 16.03 160.91 18.96 160.84C19.46 160.83 19.72 160.29 19.77 159.87C19.81 159.54 19.74 159.17 19.63 158.81C20.47 158.8 21.3 158.83 22.14 158.79C22.72 158.76 23.2 158.21 23.38 157.71C23.53 157.29 23.5 156.78 23.42 156.3C23.76 156.31 24.07 156.19 24.27 155.81C24.9 154.59 23.63 152.85 22.91 152H22.88Z" fill="#C7502A"/>
<path d="M21.2599 163.21C19.3699 162.83 17.2599 162.95 15.3599 163.1C12.7299 163.31 10.2399 163.8 7.80993 164.89C7.08993 165.21 6.37993 165.59 5.72993 166.04C5.24993 166.36 4.60993 166.8 4.39993 167.37C4.18993 167.95 4.48993 168.21 4.93993 168.32C4.81993 168.47 4.65993 168.58 4.54993 168.74C3.40993 170.39 6.58993 171.03 7.64993 171.14C9.80993 171.36 12.0499 170.71 14.0499 169.99C16.3099 169.17 18.4999 168.07 20.3899 166.57C21.0299 166.06 22.0799 165.36 22.3399 164.54C22.5699 163.78 21.9399 163.34 21.2699 163.21H21.2599Z" fill="#C7502A"/>
</g>
<path d="M45.2999 147.49C45.2999 147.49 63.1499 149.96 67.6999 152.95" stroke="#141421" stroke-width="1.54" stroke-linecap="round" stroke-linejoin="round"/>
<path d="M98.5699 162.68C98.5699 162.68 108.04 161.37 112.62 158.25" stroke="#141421" stroke-width="1.54" stroke-linecap="round" stroke-linejoin="round"/>
<mask id="mask2_98_879" style="mask-type:luminance" maskUnits="userSpaceOnUse" x="19" y="9" width="32" height="80">
<path d="M19.47 88.87C19.47 88.87 20.09 81.38 29.12 69.25C38.16 57.11 46.36 44.17 37.54 31.23C28.71 18.29 22.34 23.84 19.47 16.44C16.59 9.04997 33.27 4.52997 43.73 21.57C54.18 38.62 50.67 50.12 42.88 59.36C35.08 68.6 25.22 80.48 25.64 88.61L19.48 88.86L19.47 88.87Z" fill="white"/>
</mask>
<g mask="url(#mask2_98_879)">
<path d="M51.1701 65.75C50.0901 65.54 49.0101 65.32 47.9301 65.11C45.3001 64.59 42.6201 64.05 40.2701 62.75C37.9201 61.45 35.9201 59.24 35.5601 56.58C35.5101 56.22 35.4901 55.84 35.6201 55.49C36.0801 54.24 37.8701 54.34 39.1701 54.62C43.8801 55.65 48.7501 55.99 53.5601 55.61C54.9301 55.5 56.4101 55.28 57.3601 54.3C58.4701 53.14 58.4801 51.34 58.4201 49.73C58.4001 49.13 58.3601 48.5 58.0501 47.99C57.7501 47.52 57.2501 47.21 56.7501 46.97C53.8701 45.6 50.5301 45.74 47.3401 45.75C40.1301 45.77 32.9301 44.95 25.9101 43.32C25.3701 43.2 24.8001 43.04 24.4501 42.61C24.1801 42.28 24.1001 41.84 24.0601 41.41C23.7101 37.76 25.8801 34 29.2101 32.47C31.9001 31.24 34.9901 31.41 37.9501 31.35C43.2001 31.23 48.4101 30.25 53.4601 28.82C55.7101 28.18 57.9401 27.46 60.1401 26.65C61.8001 26.04 63.7101 25 63.7301 23.23C63.7401 21.95 62.6301 20.88 61.4101 20.49C60.1901 20.1 58.8701 20.23 57.5901 20.32C51.2901 20.78 44.9501 20.27 38.6301 20.35C32.3101 20.44 25.8501 21.18 20.1801 23.96C18.8901 22 19.1301 19.32 20.2501 17.25C21.3601 15.18 23.2101 13.62 25.1001 12.23C29.1401 9.24998 33.5601 6.82998 37.9601 4.41998C41.4101 2.52998 44.9401 0.60998 48.8201 -0.0200195" fill="#C84F21"/>
</g>
<mask id="mask3_98_879" style="mask-type:luminance" maskUnits="userSpaceOnUse" x="93" y="137" width="34" height="68">
<path d="M93.12 144.07C101.78 172.48 90.47 191.05 100.07 202.04C102.39 204.69 113.6 204.85 114.17 202.14C114.61 200.07 110.65 199.39 110.19 198.04C101.76 173.22 126.53 139.32 126.53 139.32C126.53 139.32 119.63 135.98 108.11 137.92C96.59 139.86 93.12 144.07 93.12 144.07Z" fill="white"/>
</mask>
<g mask="url(#mask3_98_879)">
<path d="M117.14 171.87C116.58 171.4 115.81 170.87 115.02 170.64C114.15 169.73 112.9 168.88 111.67 168.86C108.42 168.8 105.03 168.46 101.79 168.72C100.52 168.82 99.16 169.26 98.64 170.53C98.45 170.99 98.43 171.45 98.51 171.9C98.23 171.77 97.98 171.61 97.68 171.53C96.1 171.09 94.42 170.86 92.77 170.98C91.67 171.06 89.48 171.08 89.16 172.47C88.73 174.32 91.31 176.11 92.71 176.67C93.13 176.84 93.58 176.95 94.04 177.03C94.21 177.26 94.38 177.47 94.49 177.58C95.25 178.41 96.3 179.17 97.42 179.43C100.33 180.12 103.31 180.24 106.29 179.97C107.73 179.84 109.16 179.63 110.58 179.39C111.24 179.28 111.9 179.12 112.56 179.04C112.73 179.02 112.89 179.01 113.06 179C113.89 179.55 114.91 179.99 115.6 179.64C116.78 179.04 115.32 177.47 114.85 176.96C114.78 176.88 114.69 176.82 114.61 176.75C115.9 176.35 117.1 175.71 118.18 174.82C118.28 174.74 118.39 174.69 118.49 174.6C119.28 173.9 117.5 172.21 117.11 171.88L117.14 171.87Z" fill="#C7502A"/>
<path d="M110.18 185.83C109.98 185.9 109.78 185.95 109.58 186.01C109.34 185.93 109.1 185.84 108.85 185.84C105.55 185.84 102.25 185.84 98.95 185.84C97.4 185.84 95.29 185.47 94.3 186.96C93.51 188.16 93.09 189.74 92.55 191.06C92.14 192.06 92.61 193.17 93.2 193.98C93.78 194.78 94.89 195.8 95.98 195.74C102.05 195.4 107.97 193.89 113.38 191.12C116.06 189.75 112.57 185 110.18 185.82V185.83Z" fill="#C7502A"/>
</g>
<mask id="mask4_98_879" style="mask-type:luminance" maskUnits="userSpaceOnUse" x="41" y="109" width="34" height="76">
<path d="M47.2999 136.58C49.1599 143.92 46.1199 147.99 45.3999 151.98C44.4499 157.23 47.2899 177.77 53.9199 182.86C56.8099 185.08 65.2299 185.19 65.7499 183.85C67.4799 179.37 61.3999 179.45 60.4399 177.25C57.5999 170.7 59.6199 156.92 65.3699 149.11C67.4099 146.34 70.8399 143.04 73.4599 138.98C78.7099 131.04 67.6199 110.98 50.9799 109.41C34.3399 107.83 44.6299 126.11 47.2899 136.59L47.2999 136.58Z" fill="white"/>
</mask>
<g mask="url(#mask4_98_879)">
<path d="M63.1899 159.52C62.7299 159.01 62.1399 158.48 61.4799 158.08C61.0199 157.52 60.4399 157 60.1999 156.81C56.0299 153.48 50.4199 151.77 45.1499 152.9C44.0699 153.13 42.9299 153.43 42.0599 154.14C40.6099 155.32 41.5399 156.97 42.6899 158.01C43.5599 158.79 44.6799 159.47 45.8299 159.72C46.6799 159.9 47.5599 159.97 48.4199 160.09C49.8999 160.29 51.3699 160.47 52.8499 160.63C56.2599 161.01 59.6799 161.32 63.1099 161.55C64.5199 161.64 63.6499 160.04 63.1799 159.51L63.1899 159.52Z" fill="#C7502A"/>
<path d="M55.8 168.68C55.35 167.88 54.84 167.06 54.24 166.37C53.91 166 53.63 165.73 53.13 165.69C51.36 165.55 49.5599 165.55 47.76 165.62C47.7099 165.59 47.66 165.55 47.61 165.53C46.39 165.17 45.09 165.08 43.84 165.33C42.81 165.53 41.04 166.04 40.58 167.11C40.18 168.03 40.96 169.29 41.36 170.06C42.03 171.37 42.86 172.71 43.94 173.72C44.82 174.55 45.87 174.97 47.05 175.12C48.31 175.28 49.57 175.16 50.81 174.96C52.12 174.75 53.5 174.49 54.72 173.92C55.66 173.48 56.51 172.8 56.77 171.75C57.03 170.71 56.27 169.53 55.79 168.68H55.8Z" fill="#C7502A"/>
</g>
</g>
<defs>
<clipPath id="clip0_98_879">
<rect width="132.73" height="204.11" fill="white"/>
</clipPath>
</defs>
</svg>
