<svg width="27" height="26" viewBox="0 0 27 26" fill="none" xmlns="http://www.w3.org/2000/svg">
<g clip-path="url(#clip0_178_443)">
<path d="M18.0307 21.7545C17.4235 23.4913 15.4793 24.3792 13.7423 23.6825C13.385 23.5392 13.0658 23.337 12.7912 23.0923C12.0772 22.4544 11.2586 21.9439 10.3537 21.627L10.1102 21.5416C9.17857 21.2158 8.19268 21.0803 7.20857 21.1365C6.74288 21.163 6.26268 21.09 5.7975 20.9025C4.24605 20.2791 3.41154 18.5593 3.88698 16.9672C4.20075 15.9177 4.99274 15.1547 5.9491 14.8295C7.32241 14.3624 8.49108 13.4379 9.30886 12.2451C10.2574 10.86 11.8015 9.58989 14.0939 10.3928C16.3629 11.1872 16.7771 13.1494 16.6609 14.8292C16.5598 16.2845 16.9419 17.7313 17.7177 18.9723C18.221 19.7775 18.3677 20.792 18.0307 21.7545Z" fill="#383838"/>
<path d="M4.87704 12.7831C6.17457 13.2371 7.67042 12.3356 8.2181 10.7695C8.76579 9.20341 8.15792 7.56581 6.86038 7.11182C5.56285 6.65783 4.067 7.55936 3.51931 9.12544C2.97163 10.6915 3.5795 12.3291 4.87704 12.7831Z" fill="#383838"/>
<path d="M11.4544 8.15786C12.752 8.61186 14.2478 7.71033 14.7955 6.14425C15.3432 4.57817 14.7353 2.94057 13.4378 2.48658C12.1402 2.03258 10.6444 2.93411 10.0967 4.50019C9.54902 6.06628 10.1569 7.70387 11.4544 8.15786Z" fill="#383838"/>
<path d="M19.8126 18.0089C21.1101 18.4629 22.606 17.5614 23.1537 15.9953C23.7013 14.4292 23.0935 12.7916 21.7959 12.3377C20.4984 11.8837 19.0025 12.7852 18.4549 14.3513C17.9072 15.9173 18.515 17.5549 19.8126 18.0089Z" fill="#383838"/>
<path d="M17.5518 10.2912C18.8494 10.7452 20.3452 9.84363 20.8929 8.27755C21.4406 6.71147 20.8327 5.07387 19.5352 4.61988C18.2377 4.16589 16.7418 5.06741 16.1941 6.63349C15.6464 8.19958 16.2543 9.83717 17.5518 10.2912Z" fill="#383838"/>
</g>
<defs>
<clipPath id="clip0_178_443">
<rect width="20.8" height="20" fill="white" transform="translate(6.84033) rotate(20)"/>
</clipPath>
</defs>
</svg>
