<svg width="2439" height="120" viewBox="0 0 2439 120" fill="none" xmlns="http://www.w3.org/2000/svg">
<g clip-path="url(#clip0_178_471)">
<path d="M2438.37 0H0V120H2438.37V0Z" fill="white"/>
<path d="M49.989 34.9038H59.7212C63.9486 34.9038 67.1724 35.6134 69.3926 37.0226C71.2174 38.158 72.6468 39.7699 73.6808 41.838C74.7149 43.9771 75.2319 46.2175 75.2319 48.5897C75.2319 52.0264 74.2688 55.0576 72.3427 57.6731C69.4838 61.5457 64.9725 63.4921 58.819 63.4921H53.5676L51.1751 82.9261H44.0585L49.9992 34.9139L49.989 34.9038ZM56.2744 41.5237L54.3482 57.1662H58.9812C61.9008 57.1662 64.1514 56.416 65.7126 54.9156C67.2738 53.4153 68.0645 51.2458 68.0645 48.3971C68.0645 43.8149 65.1449 41.5237 59.2954 41.5237H56.2744Z" fill="#231815"/>
<path d="M110.024 53.6285L106.415 82.9264H99.5421L99.9476 79.7533C97.0077 82.3283 93.9562 83.6057 90.8034 83.6057C86.9308 83.6057 83.7678 82.2878 81.3145 79.652C78.8713 77.0162 77.6447 73.6099 77.6447 69.423C77.6447 64.5975 79.0437 60.6336 81.8417 57.5416C84.6802 54.4496 88.3197 52.9087 92.76 52.9087C94.8585 52.9087 96.6326 53.2534 98.1127 53.9326C99.6029 54.6118 101.134 55.7979 102.685 57.4808L103.151 53.6285H110.024ZM101.661 67.436C101.661 64.8408 100.911 62.7423 99.4205 61.1202C97.9302 59.4779 96.0041 58.6669 93.6318 58.6669C91.0569 58.6669 88.9077 59.6705 87.164 61.6879C85.4203 63.7155 84.5484 66.2094 84.5484 69.1493C84.5484 71.7243 85.2784 73.8228 86.7281 75.4651C88.1777 77.1074 90.0431 77.9184 92.3241 77.9184C94.8484 77.9184 97.0381 76.8945 98.8832 74.8365C100.728 72.738 101.651 70.2746 101.651 67.436H101.661Z" fill="#231815"/>
<path d="M161.94 53.6284L143.094 85.9981L137.183 67.0913L126.701 85.9981L116.067 53.6284H123.315L128.475 71.5113L138.927 52.8174L144.523 71.5113L154.134 53.6284H161.94Z" fill="#231815"/>
<path d="M194.684 60.0049L191.886 82.9263H185.013L187.842 60.0049H183.361L184.141 53.6283H188.622L190.244 40.5405C190.66 37.0532 191.603 34.4985 193.073 32.8562C194.543 31.2138 196.651 30.4028 199.388 30.4028C201.051 30.4028 202.987 30.93 205.207 31.9843L204.457 38.0162C203.17 36.9822 201.994 36.4652 200.909 36.4652C199.662 36.4652 198.74 36.891 198.141 37.7425C197.584 38.5941 197.158 40.1553 196.864 42.4363L195.495 53.6283H201.71L200.929 60.0049H194.674H194.684Z" fill="#231815"/>
<path d="M237.709 67.9936C237.709 72.4745 236.158 76.2356 233.046 79.2769C229.954 82.3283 226.142 83.849 221.6 83.849C217.058 83.849 212.973 82.4094 209.972 79.5303C206.941 76.6309 205.43 72.9611 205.43 68.5208C205.43 64.0805 206.992 60.2079 210.124 57.197C213.277 54.1658 217.21 52.6553 221.945 52.6553C226.679 52.6553 230.369 54.0847 233.299 56.9435C236.239 59.7618 237.719 63.4418 237.719 67.9835L237.709 67.9936ZM230.775 67.6489C230.775 64.8307 229.954 62.6004 228.321 60.9581C226.679 59.2549 224.54 58.4034 221.884 58.4034C219.228 58.4034 216.845 59.3462 215.041 61.2318C213.236 63.1377 212.334 65.5302 212.334 68.4194C212.334 71.3086 213.186 73.6505 214.889 75.4144C216.592 77.2189 218.782 78.1212 221.478 78.1212C224.175 78.1212 226.395 77.1378 228.129 75.1711C229.893 73.2247 230.775 70.7105 230.775 67.6489Z" fill="#231815"/>
<path d="M254.791 53.6283L254.477 56.1424C256.798 53.9425 259.14 52.8477 261.502 52.8477C263.57 52.8477 265.466 53.608 267.159 55.1185L262.769 60.7753C261.502 59.7007 260.235 59.1533 258.978 59.1533C258.106 59.1533 257.335 59.3256 256.677 59.6703C256.018 60.015 255.44 60.5523 254.953 61.2924C254.466 62.0324 254.061 62.9752 253.737 64.1411C253.412 65.3069 253.159 66.6958 252.976 68.3077L251.172 82.9262H244.298L247.907 53.6283H254.781H254.791Z" fill="#231815"/>
<path d="M296.426 34.9038H305.317C308.115 34.9038 310.386 35.2079 312.13 35.8061C313.833 36.4042 315.272 37.4281 316.448 38.8575C318.334 41.1182 319.277 43.8453 319.277 47.0386C319.277 51.8946 316.945 55.5949 312.282 58.1394C317.939 59.5486 320.767 63.0968 320.767 68.7739C320.767 71.1157 320.27 73.3257 319.277 75.3938C318.324 77.4416 316.976 79.1042 315.232 80.3714C313.843 81.3852 312.322 82.0644 310.66 82.3888C309.788 82.551 308.744 82.6828 307.517 82.774C306.29 82.8653 304.841 82.916 303.168 82.916H290.516L296.426 34.9038ZM300.248 61.5862L298.444 76.2961H303.229C306.797 76.2961 309.241 75.85 310.569 74.9579C312.596 73.6096 313.62 71.3691 313.62 68.2366C313.62 67.0505 313.448 66.0468 313.103 65.2054C312.758 64.364 312.231 63.6746 311.501 63.1373C310.771 62.6 309.839 62.2046 308.683 61.9512C307.527 61.6978 306.149 61.5761 304.526 61.5761H300.238L300.248 61.5862ZM302.702 41.5237L300.958 55.8889H302.975C309.068 55.8889 312.12 53.0503 312.12 47.3732C312.12 43.4803 309.798 41.5237 305.155 41.5237H302.702Z" fill="#231815"/>
<path d="M334.352 70.7305C334.352 72.8899 335.102 74.664 336.592 76.0528C338.103 77.4417 340.029 78.1412 342.381 78.1412C345.594 78.1412 348.058 76.9348 349.781 74.5322L354.911 77.3606C353.127 79.7632 351.292 81.4461 349.406 82.399C347.5 83.3723 345.118 83.8589 342.249 83.8589C337.707 83.8589 334.088 82.5207 331.391 79.8443C328.695 77.168 327.346 73.5894 327.346 69.1186C327.346 64.6479 328.827 60.5117 331.797 57.3691C334.737 54.2365 338.457 52.6753 342.958 52.6753C347.46 52.6753 350.744 54.0844 353.248 56.9027C355.803 59.7413 357.07 63.5429 357.07 68.3178C357.07 68.8145 357.04 69.6255 356.979 70.7407H334.341L334.352 70.7305ZM350.116 65.1954C349.386 60.6739 346.892 58.4132 342.624 58.4132C338.579 58.4132 335.943 60.6739 334.727 65.1954H350.116Z" fill="#231815"/>
<path d="M373.98 60.0051L371.151 82.9264H364.278L367.107 60.0051H363.224L364.004 53.6285H367.887L369.57 40.0439H376.443L374.761 53.6285H381.107L380.326 60.0051H373.98Z" fill="#231815"/>
<path d="M393.312 60.0051L390.484 82.9264H383.611L386.439 60.0051H382.556L383.337 53.6285H387.22L388.903 40.0439H395.776L394.093 53.6285H400.439L399.659 60.0051H393.312Z" fill="#231815"/>
<path d="M410.648 70.7305C410.648 72.8899 411.398 74.664 412.888 76.0528C414.399 77.4417 416.325 78.1412 418.677 78.1412C421.891 78.1412 424.354 76.9348 426.078 74.5322L431.207 77.3606C429.423 79.7632 427.588 81.4461 425.702 82.399C423.797 83.3723 421.414 83.8589 418.545 83.8589C414.004 83.8589 410.384 82.5207 407.688 79.8443C404.991 77.168 403.643 73.5894 403.643 69.1186C403.643 64.6479 405.123 60.5117 408.093 57.3691C411.033 54.2365 414.754 52.6753 419.255 52.6753C423.756 52.6753 427.041 54.0844 429.545 56.9027C432.099 59.7413 433.367 63.5429 433.367 68.3178C433.367 68.8145 433.336 69.6255 433.275 70.7407H410.638L410.648 70.7305ZM426.412 65.1954C425.682 60.6739 423.188 58.4132 418.92 58.4132C414.875 58.4132 412.24 60.6739 411.023 65.1954H426.412Z" fill="#231815"/>
<path d="M450.469 53.6283L450.155 56.1424C452.476 53.9425 454.818 52.8477 457.18 52.8477C459.248 52.8477 461.144 53.608 462.837 55.1185L458.447 60.7753C457.18 59.7007 455.913 59.1533 454.656 59.1533C453.784 59.1533 453.013 59.3256 452.354 59.6703C451.695 60.015 451.118 60.5523 450.631 61.2924C450.144 62.0324 449.739 62.9752 449.415 64.1411C449.09 65.3069 448.837 66.6958 448.654 68.3077L446.85 82.9262H439.976L443.585 53.6283H450.459H450.469Z" fill="#231815"/>
<path d="M471.008 79.53C471.008 80.6248 470.582 81.5778 469.731 82.3888C468.879 83.1998 467.896 83.6053 466.78 83.6053C465.665 83.6053 464.662 83.1897 463.861 82.3584C463.05 81.5271 462.644 80.5133 462.644 79.3069C462.644 78.1006 463.019 77.1679 463.759 76.3873C464.55 75.5965 465.493 75.2012 466.588 75.2012C467.814 75.2012 468.849 75.627 469.7 76.4785C470.572 77.3301 471.008 78.3439 471.008 79.53Z" fill="#231815"/>
<path d="M2339.92 66.7969C2339.92 66.7969 2334.69 74.1062 2332.75 74.7043C2330.81 75.3025 2312.92 74.8057 2311 75.0389C2309.09 75.2822 2302.86 77.1982 2301.3 76.7116C2299.74 76.2351 2305.49 68.8042 2309.44 67.7296C2313.39 66.655 2323.91 64.5159 2325.94 62.8432C2326.5 62.3769 2329.47 58.2306 2330.6 54.7026C2330.6 54.7026 2338.5 55.5441 2339.91 66.7969H2339.92Z" fill="#181616"/>
<path d="M2334.67 33.2616C2328.35 20.2245 2324.71 20.0826 2322.73 20.4881C2320.61 20.924 2320.85 33.6569 2320.85 33.6569L2334.66 33.2616H2334.67Z" fill="#181616"/>
<path d="M2407.54 57.9771C2406.36 70.4262 2403.01 82.561 2390.39 88.6335C2377.78 94.6958 2366.92 97.4127 2362.93 104.6C2358.93 111.788 2350.79 104.925 2358.29 97.2607C2365.8 89.5966 2376.09 85.9267 2386.26 81.456C2396.17 77.1069 2401.57 72.038 2407.54 57.9872" fill="#181616"/>
<path d="M2316.83 44.8999C2311.52 39.3647 2315.05 34.4986 2318.38 32.1771C2319.26 31.5688 2319.62 26.8345 2326.37 23.9554C2330.56 22.1711 2337.97 23.9554 2337.97 23.9554C2337.97 23.9554 2339.94 19.9814 2342.5 20.539C2344.65 21.0053 2348.43 27.5847 2349.1 33.353C2349.71 38.6044 2361.14 35.6036 2370.74 31.2849C2389.13 23.0227 2403.04 34.3567 2407.54 46.7652C2412.34 60.0253 2404.44 73.7011 2394.98 75.8604C2385.52 78.0198 2352.37 81.8518 2350.57 82.9264C2348.76 84.001 2345.34 90.2357 2343.39 90.8338C2341.45 91.4319 2324.69 91.5536 2322.77 91.7868C2320.85 92.0301 2314.63 93.9461 2313.07 93.4595C2311.51 92.983 2317.26 85.5521 2321.21 84.4775C2325.16 83.4029 2331.86 81.9633 2333.9 80.2906C2334.46 79.8243 2335.06 78.77 2335.64 77.4926C2331.43 72.8191 2328.02 53.4358 2327.91 50.5973C2327.91 50.5973 2320.83 49.0969 2316.81 44.91L2316.83 44.8999Z" fill="#181616"/>
<path d="M2338.49 69.1489C2338.49 69.1489 2337.17 74.1164 2335.66 77.4821" stroke="#6D6D77" stroke-width="0.81" stroke-linecap="round" stroke-linejoin="round"/>
<path d="M2399.44 46.2379C2399.44 46.2379 2394.13 41.8382 2386.6 43.5413C2373.2 46.5826 2372.56 65.2765 2371.22 66.8884C2370.02 68.3381 2361.32 68.2266 2363.48 79.0537" stroke="#6D6D77" stroke-width="0.81" stroke-linecap="round" stroke-linejoin="round"/>
<path d="M2325.61 24.2998C2325.61 24.2998 2322.95 25.4454 2321.62 27.1079" stroke="#6D6D77" stroke-width="0.81" stroke-linecap="round" stroke-linejoin="round"/>
<path d="M2349.36 35.8062C2349.36 35.8062 2352 45.1633 2343.03 47.8802" stroke="#6D6D77" stroke-width="0.81" stroke-linecap="round" stroke-linejoin="round"/>
<path d="M2322.36 31.8726C2322.18 32.491 2321.71 32.9067 2321.29 32.785C2320.88 32.6735 2320.67 32.0754 2320.84 31.457C2321.02 30.8386 2321.49 30.423 2321.91 30.5446C2322.32 30.6561 2322.53 31.2542 2322.36 31.8726Z" fill="#6D6D77"/>
<path d="M2335.67 33.4337C2335.49 34.0521 2335.02 34.4677 2334.6 34.3461C2334.19 34.2244 2333.98 33.6364 2334.16 33.018C2334.33 32.3996 2334.8 31.984 2335.22 32.1056C2335.64 32.2172 2335.84 32.8153 2335.67 33.4337Z" fill="#6D6D77"/>
<path d="M2321.39 36.0698C2321.39 36.0698 2323.84 38.7259 2326.45 35.8164C2326.45 35.8164 2327.74 39.1416 2331.81 37.6919" stroke="#6D6D77" stroke-width="0.81" stroke-linecap="round" stroke-linejoin="round"/>
<path d="M2328.18 34.6098C2328.07 35.1471 2327.24 35.9683 2326.45 35.8061C2325.66 35.6438 2325.22 34.5591 2325.34 34.0218C2325.45 33.4845 2326.09 33.596 2326.88 33.7582C2327.66 33.9204 2328.3 34.0725 2328.18 34.6098Z" fill="#E96E6E"/>
<path d="M1745.86 58.6869C1742.29 67.5269 1742.44 89.4244 1735.32 95.9936C1733.93 97.2811 1728.03 97.1797 1727.75 95.9936C1727.44 94.6858 1730.84 92.3744 1730.84 92.3744C1731.8 85.4504 1732.23 71.1664 1732.23 71.1664C1732.54 63.5935 1731.9 52.7259 1731.9 52.7259C1731.9 52.7259 1739.37 50.0597 1745.86 58.697V58.6869Z" fill="#FBDACF"/>
<path d="M1764.91 90.398C1764.91 90.398 1771.96 90.7427 1778.17 83.555C1784.39 76.3674 1782.54 66.3716 1782.55 58.9914C1782.55 51.6111 1782.88 47.1201 1787.81 42.8826C1792.75 38.645 1787.97 34.3568 1784.86 35.2996C1781.76 36.2525 1776.74 41.0983 1777.68 52.2093C1778.6 63.3202 1780.67 71.5824 1776.81 78.7498C1772.96 85.9171 1765.93 87.2553 1765.93 87.2553L1764.92 90.4081L1764.91 90.398Z" fill="#FBDACF"/>
<path d="M1752.45 47.1706C1746.16 45.1228 1743.26 41.1894 1743.26 41.1894C1743.26 41.1894 1745.13 39.0706 1745.54 36.3435C1746.09 32.7345 1744.3 30.636 1744.09 29.0343C1743.88 27.4325 1743.11 25.5266 1742.1 23.641C1741.72 22.9212 1739.26 16.2101 1737.31 15.7944C1735.62 15.4295 1733.08 20.4375 1733.08 20.4375C1728.6 20.549 1719.98 22.6678 1719.98 22.6678C1717.75 19.5859 1714.73 18.927 1713.41 19.7988C1712.05 20.7112 1712.98 26.7735 1712.98 26.7735C1712.76 30.6157 1711.59 38.9084 1714.67 43.0141C1716.22 45.0721 1714.7 50.7391 1716.18 58.9506C1717.66 67.1622 1718.2 70.9232 1718.2 70.9232C1718.2 70.9232 1717.77 85.2073 1716.81 92.1313C1716.81 92.1313 1713.14 94.0879 1713.72 95.7505C1714.11 96.9062 1719.32 96.4905 1720.77 95.274C1724.23 92.3848 1723.48 87.5288 1727.06 78.6887C1729.96 80.919 1732.86 83.2406 1734.84 85.6432C1734.29 89.3637 1734.4 92.3341 1734.4 92.3341C1734.4 92.3341 1729.72 96.0343 1730.54 96.0343H1754.44C1754.44 96.0343 1764.33 93.7533 1767.5 89.1812C1772.11 82.5309 1777.39 55.2605 1752.46 47.1605L1752.45 47.1706Z" fill="#FBDACF"/>
<path d="M1740.99 28.8211C1740.61 27.8175 1740.11 26.8544 1739.49 26.1042C1738.41 24.8167 1736.74 24.1477 1735.01 23.8334C1733.15 23.4887 1731.33 23.661 1729.48 24.0057C1726.48 24.5633 1723.69 25.8812 1721.98 28.1926C1719.88 31.0312 1720.68 35.4613 1723.66 37.6004C1725.27 38.7561 1727.41 39.1819 1729.49 39.192C1732.69 39.2021 1736.12 38.6648 1739.02 37.4483C1741.68 36.3332 1742.19 33.8089 1741.73 31.4164C1741.58 30.6155 1741.33 29.7133 1741 28.8313L1740.99 28.8211Z" fill="#76463A"/>
<path d="M1737.18 27.8991C1737.39 28.5276 1737.91 28.923 1738.32 28.781C1738.74 28.6391 1738.91 28.0106 1738.7 27.382C1738.48 26.7535 1737.97 26.3581 1737.55 26.5001C1737.13 26.642 1736.96 27.2705 1737.18 27.8991Z" fill="#181616"/>
<path d="M1723.59 30.3117C1723.8 30.9402 1724.32 31.3356 1724.74 31.1936C1725.15 31.0517 1725.33 30.4232 1725.11 29.7946C1724.9 29.1661 1724.38 28.7707 1723.97 28.9127C1723.55 29.0546 1723.38 29.6831 1723.59 30.3117Z" fill="#181616"/>
<path d="M1738.42 32.1567C1738.42 32.1567 1736.07 35.0358 1733.2 32.1973C1733.2 32.1973 1732.08 35.6847 1727.8 34.4377" stroke="#060203" stroke-width="0.59" stroke-linecap="round" stroke-linejoin="round"/>
<path d="M1731.36 31.0722C1731.5 31.6197 1732.41 32.4104 1733.2 32.1975C1734 31.9846 1734.39 30.8492 1734.25 30.3018C1734.1 29.7543 1733.45 29.9064 1732.66 30.1193C1731.85 30.3322 1731.22 30.5349 1731.37 31.0722H1731.36Z" fill="#E96E6E"/>
<path d="M1754.38 96.0848C1754.38 96.0848 1743.04 98.7409 1742.06 96.5106C1741.09 94.2702 1745.93 92.8104 1745.93 92.8104C1745.93 92.8104 1745.81 89.84 1746.37 86.1195C1747.14 80.9797 1749.19 74.4003 1754.56 72.241C1763.84 68.5103 1765.97 81.3041 1765.97 81.3041L1754.38 96.0848Z" fill="#FBDACF"/>
<mask id="mask0_178_471" style="mask-type:luminance" maskUnits="userSpaceOnUse" x="1712" y="15" width="60" height="82">
<path d="M1752.45 47.1706C1746.16 45.1228 1743.26 41.1894 1743.26 41.1894C1743.26 41.1894 1745.13 39.0706 1745.54 36.3435C1746.09 32.7345 1744.3 30.636 1744.09 29.0343C1743.88 27.4325 1743.11 25.5266 1742.1 23.641C1741.72 22.9212 1739.26 16.2101 1737.31 15.7944C1735.62 15.4295 1733.08 20.4375 1733.08 20.4375C1728.6 20.549 1719.98 22.6678 1719.98 22.6678C1717.75 19.5859 1714.73 18.927 1713.41 19.7988C1712.05 20.7112 1712.98 26.7735 1712.98 26.7735C1712.76 30.6157 1711.59 38.9084 1714.67 43.0141C1716.22 45.0721 1714.7 50.7391 1716.18 58.9506C1717.66 67.1622 1718.2 70.9232 1718.2 70.9232C1718.2 70.9232 1717.77 85.2073 1716.81 92.1313C1716.81 92.1313 1713.14 94.0879 1713.72 95.7505C1714.11 96.9062 1719.32 96.4905 1720.77 95.274C1724.23 92.3848 1723.48 87.5288 1727.06 78.6887C1729.96 80.919 1732.86 83.2406 1734.84 85.6432C1734.29 89.3637 1734.4 92.3341 1734.4 92.3341C1734.4 92.3341 1729.72 96.0343 1730.54 96.0343H1754.44C1754.44 96.0343 1764.33 93.7533 1767.5 89.1812C1772.11 82.5309 1777.39 55.2605 1752.46 47.1605L1752.45 47.1706Z" fill="white"/>
</mask>
<g mask="url(#mask0_178_471)">
<path d="M1718.54 22.9823C1719.13 22.8708 1719.94 22.7593 1720.46 22.4856C1721.51 21.928 1722.04 20.6405 1721.99 19.4442C1721.95 18.5318 1721.65 17.5789 1720.96 16.9402C1720.29 16.332 1719.38 15.8352 1718.45 15.9062C1716.43 16.0481 1714.55 16.6057 1712.8 17.6195C1711.3 18.4913 1709.91 19.6571 1708.77 20.975C1708.15 21.6948 1707.74 22.5058 1707.74 23.479C1707.74 24.3509 1708.12 25.3849 1708.77 25.9831C1709.45 26.6015 1710.33 27.0678 1711.27 27.0171C1711.93 26.9867 1712.35 27.1894 1712.9 26.8042C1713.68 26.2568 1714.56 25.0808 1715.31 24.4827C1716.1 23.8541 1717 23.3473 1718 23.0938C1718.18 23.0533 1718.35 23.0127 1718.53 22.9722L1718.54 22.9823Z" fill="#76463A"/>
<path d="M1746.2 17.1123C1744.53 16.0986 1742.84 15.0848 1741.03 14.3346C1739.91 13.8784 1738.77 13.4323 1737.59 13.1688C1737.09 13.0572 1736.58 12.9964 1736.07 12.9457C1735.82 12.7024 1735.54 12.4794 1735.22 12.3273C1733.27 11.3845 1730.95 12.0029 1729.89 13.9291C1728.76 15.9566 1728.9 18.2477 1730.74 19.5657C1732.17 20.5896 1734.6 20.5794 1736.23 20.9951C1738.09 21.4715 1740.72 22.9415 1742.36 23.9046C1743.01 24.2898 1742.66 24.1884 1743.38 24.3912C1745.05 24.8575 1747.04 24.0465 1747.8 22.465C1748.77 20.4578 1748.08 18.2782 1746.2 17.1326V17.1123Z" fill="#76463A"/>
</g>
<path d="M1741.94 95.4158C1742.14 94.0675 1744.24 92.1515 1746.42 92.1515C1748 92.1515 1742.48 73.7212 1753.04 68.0238C1758.67 64.9926 1763.14 68.0643 1763.14 68.0643" stroke="#141421" stroke-width="0.59" stroke-linecap="round" stroke-linejoin="round"/>
<path d="M1732.41 68.4297L1731.69 82.0142" stroke="#141421" stroke-width="0.59" stroke-linecap="round" stroke-linejoin="round"/>
<path d="M1743.04 69.4028C1743.04 69.4028 1740.33 82.7947 1739.06 87.9346C1738.41 90.5501 1736.52 94.5139 1735.73 95.5987" stroke="#141421" stroke-width="0.59" stroke-linecap="round" stroke-linejoin="round"/>
<path d="M1736.8 21.1675C1736.8 21.1675 1739.46 21.2182 1741.41 23.6411" stroke="#141421" stroke-width="0.59" stroke-linecap="round" stroke-linejoin="round"/>
<path d="M1715.98 44.0889C1715.98 44.0889 1718.64 46.5523 1722.04 46.5118" stroke="#141421" stroke-width="0.59" stroke-linecap="round" stroke-linejoin="round"/>
<path d="M1718.58 69.4028C1718.58 69.4028 1723.02 75.3739 1726.28 78.3646" stroke="#141421" stroke-width="0.59" stroke-linecap="round" stroke-linejoin="round"/>
<path d="M574.453 61.1304C573.53 73.4375 571.331 89.962 571.513 93.642C571.695 97.3118 567.843 98.5993 565.451 97.8694C564.234 97.4943 564.782 96.7441 565.613 96.0852C566.86 95.1018 567.367 93.419 566.738 91.949C566.191 90.6818 565.248 89.0699 563.616 87.2045C559.571 82.6122 559.936 70.0313 559.936 70.0313" fill="#ED7343"/>
<path d="M520.206 43.0651C520.206 43.0651 531.388 37.611 556.823 38.3105C579.431 38.9289 587.683 48.6408 586.77 60.948C585.848 73.2552 583.648 89.7796 583.83 93.4596C584.013 97.1295 580.16 98.4169 577.768 97.687C576.551 97.3119 577.099 96.5617 577.93 95.9028C579.187 94.9194 579.684 93.2366 579.055 91.7666C578.508 90.4994 577.565 88.8875 575.933 87.0222C571.888 82.4298 573.125 72.0792 573.125 72.0792C573.125 72.0792 561.598 80.2299 552.231 78.7599C551.025 82.5109 550.051 86.3227 549.088 90.1446C548.622 91.9998 548.764 93.9766 548.044 95.7811C547.243 97.7681 544.972 98.2953 543.036 98.1736C542.296 98.1331 540.917 98.1838 540.968 97.2612C541.009 96.5415 542.256 95.9737 542.57 95.3553C543.584 93.3785 542.367 89.7289 542.063 87.6406C541.688 85.0859 541.303 82.521 540.704 79.9967C540.035 77.219 538.809 72.3124 535.159 72.3124C531.54 72.3124 531.53 77.9996 531.297 80.4631C530.871 84.9743 530.05 89.516 528.61 93.8347C528.124 95.2945 527.313 96.7341 525.964 97.4843C524.748 98.1635 521.99 98.498 520.754 97.687C519.334 96.7544 521.524 95.9738 522.132 95.5074C524.433 93.7232 522.629 89.9824 522.153 87.7825C521.514 84.8324 520.865 81.8823 520.267 78.9221C518.99 72.5354 517.895 66.0675 517.662 59.549C517.459 54.0138 517.803 48.1238 520.206 43.0448V43.0651Z" fill="#ED7343"/>
<path d="M518.99 29.0551C518.99 29.0551 517.743 25.8313 515.928 26.9262C514.113 28.0211 513.556 37.5201 513.556 37.5201C513.556 37.5201 507.706 55.0076 529.604 49.9793C543.077 47.5361 544.8 41.6157 538.981 33.6779C538.525 29.7749 536.741 24.6756 535.271 24.5134C534.085 24.3816 532.929 27.1087 532.929 27.1087C532.929 27.1087 527.221 24.6553 518.979 29.045L518.99 29.0551Z" fill="#ED7343"/>
<path d="M575.7 50.8915C575.7 50.8915 581.022 49.7561 587.845 43.7951C594.211 38.2396 597.192 27.9397 588.037 19.3024C578.873 10.6651 592.427 3.17331 598.631 16.4841C604.836 29.7949 602.291 47.0189 577.555 52.1181" fill="#ED7343"/>
<path d="M518.371 50.334C525.934 52.2804 535.646 50.2732 540.775 45.0522" stroke="#141421" stroke-width="0.72" stroke-linecap="round" stroke-linejoin="round"/>
<path d="M561.801 77.5132C561.801 77.5132 566.333 77.0672 572.577 73.2148" stroke="#141421" stroke-width="0.72" stroke-linecap="round" stroke-linejoin="round"/>
<path d="M522.68 61.1304C522.68 61.1304 526.573 67.9936 534.358 71.3695" stroke="#141421" stroke-width="0.72" stroke-linecap="round" stroke-linejoin="round"/>
<path d="M534.622 36.6378C534.835 37.1852 535.301 37.5096 535.666 37.3677C536.031 37.2258 536.153 36.6682 535.94 36.1309C535.727 35.5835 535.261 35.2591 534.896 35.401C534.531 35.5429 534.409 36.1005 534.622 36.6378Z" fill="#181616"/>
<path d="M522.781 39.2735C522.994 39.821 523.46 40.1454 523.825 40.0034C524.19 39.8615 524.312 39.3039 524.099 38.7666C523.886 38.2192 523.42 37.8948 523.055 38.0367C522.69 38.1787 522.568 38.7362 522.781 39.2735Z" fill="#181616"/>
<path d="M535.879 40.3179C535.879 40.3179 533.933 42.9435 531.297 40.551C531.297 40.551 530.445 43.6633 526.633 42.7306" stroke="#060203" stroke-width="0.72" stroke-linecap="round" stroke-linejoin="round"/>
<path d="M529.634 39.6488C529.786 40.1252 530.607 40.7842 531.297 40.5612C531.986 40.3381 532.29 39.3244 532.138 38.858C531.986 38.3816 531.418 38.5438 530.729 38.7567C530.04 38.9797 529.482 39.1723 529.634 39.6488Z" fill="#E96E6E"/>
<mask id="mask1_178_471" style="mask-type:luminance" maskUnits="userSpaceOnUse" x="517" y="38" width="70" height="61">
<path d="M520.206 43.0651C520.206 43.0651 531.388 37.611 556.823 38.3105C579.431 38.9289 587.683 48.6408 586.77 60.948C585.848 73.2552 583.648 89.7796 583.83 93.4596C584.013 97.1295 580.16 98.4169 577.768 97.687C576.551 97.3119 577.099 96.5617 577.93 95.9028C579.187 94.9194 579.684 93.2366 579.055 91.7666C578.508 90.4994 577.565 88.8875 575.933 87.0222C571.888 82.4298 573.125 72.0792 573.125 72.0792C573.125 72.0792 561.598 80.2299 552.231 78.7599C551.025 82.5109 550.051 86.3227 549.088 90.1446C548.622 91.9998 548.764 93.9766 548.044 95.7811C547.243 97.7681 544.972 98.2953 543.036 98.1736C542.296 98.1331 540.917 98.1838 540.968 97.2612C541.009 96.5415 542.256 95.9737 542.57 95.3553C543.584 93.3785 542.367 89.7289 542.063 87.6406C541.688 85.0859 541.303 82.521 540.704 79.9967C540.035 77.219 538.809 72.3124 535.159 72.3124C531.54 72.3124 531.53 77.9996 531.297 80.4631C530.871 84.9743 530.05 89.516 528.61 93.8347C528.124 95.2945 527.313 96.7341 525.964 97.4843C524.748 98.1635 521.99 98.498 520.754 97.687C519.334 96.7544 521.524 95.9738 522.132 95.5074C524.433 93.7232 522.629 89.9824 522.153 87.7825C521.514 84.8324 520.865 81.8823 520.267 78.9221C518.99 72.5354 517.895 66.0675 517.662 59.549C517.459 54.0138 517.803 48.1238 520.206 43.0448V43.0651Z" fill="white"/>
</mask>
<g mask="url(#mask1_178_471)">
<path d="M557.716 44.1601C557.29 40.693 555.962 37.5301 555.11 34.1643C554.644 32.299 552.454 30.9912 550.589 31.5995C549.119 32.076 548.105 33.2925 547.933 34.7321C547.578 34.7321 547.233 34.7422 546.929 34.8436C545.236 35.391 543.563 37.4692 544.364 39.365C544.962 40.8045 545.459 42.2745 545.824 43.7952C546.007 44.5555 546.138 45.3158 546.27 46.0863C546.27 46.0863 546.27 46.0863 546.27 46.0964C546.29 46.2485 546.301 46.4006 546.321 46.5526C546.361 46.9378 546.392 47.3231 546.412 47.7185C546.513 49.3912 546.442 51.0943 547.406 52.5643C548.946 54.8858 551.988 55.342 554.309 53.9126C557.543 51.9155 558.121 47.6171 557.705 44.1601H557.716Z" fill="#C94F2A"/>
<path d="M569.293 36.8611C568.897 36.0704 567.934 35.4013 567.093 35.1681C566.211 34.9248 565.045 35.0363 564.265 35.5432C564.123 35.6345 563.981 35.746 563.849 35.8575C563.707 35.675 563.575 35.5027 563.433 35.3202C562.866 34.6308 561.69 34.2456 560.838 34.2456C559.936 34.2456 558.861 34.641 558.243 35.3202C557.604 36.0197 557.128 36.9422 557.168 37.9155C557.209 38.2399 557.259 38.5643 557.3 38.8887C557.452 39.4361 557.736 39.9024 558.101 40.3282C558.841 41.3116 559.439 42.3862 559.956 43.5013C560.392 44.6368 560.716 45.7823 561.031 46.9583C561.517 48.8135 563.109 50.2835 565.096 50.253C566.616 50.2328 567.874 49.29 568.796 48.1647C570.134 46.5325 571.026 44.5962 571.026 42.447C571.026 40.4296 570.205 38.615 569.323 36.851L569.293 36.8611Z" fill="#C94F2A"/>
<path d="M525.366 79.1149C525.123 78.7398 524.727 78.3343 524.271 78.2734C523.916 78.2227 523.572 78.1619 523.227 78.0605C523.034 78.0098 522.852 77.949 522.67 77.8781C522.659 77.8781 522.649 77.8781 522.629 77.8679C522.629 77.8679 522.599 77.8679 522.538 77.8375C522.507 77.8274 522.477 77.8071 522.446 77.797C522.467 77.797 522.477 77.797 522.487 77.8071C522.173 77.6652 521.858 77.4928 521.564 77.3103C521.412 77.2191 521.26 77.1177 521.118 77.0164C521.058 76.9758 520.997 76.9251 520.936 76.8846C520.936 76.8846 520.936 76.8846 520.926 76.8744C520.368 76.398 519.851 75.8911 519.385 75.3234C519.375 75.3132 519.284 75.2017 519.253 75.1612C519.243 75.1409 519.223 75.1206 519.223 75.1206C519.111 74.9685 519.01 74.8266 518.908 74.6745C518.696 74.3603 518.493 74.0257 518.29 73.6912C517.803 72.8599 516.607 72.4949 515.776 73.0322C514.945 73.5695 514.6 74.6543 515.117 75.5464C516.871 78.5573 519.679 81.335 523.278 81.8115C523.795 81.8824 524.231 81.9027 524.697 81.629C525.082 81.406 525.437 80.9701 525.539 80.5341C525.65 80.0678 525.62 79.5406 525.356 79.1149H525.366Z" fill="#C94F2A"/>
<path d="M522.538 77.8273C522.538 77.8273 522.599 77.8476 522.629 77.8577C522.629 77.8577 522.578 77.8273 522.487 77.7969C522.487 77.7969 522.487 77.7969 522.497 77.7969C522.517 77.7969 522.517 77.7969 522.538 77.8172V77.8273Z" fill="#C94F2A"/>
<path d="M525.782 85.5726C525.691 85.4509 525.589 85.3293 525.498 85.1975C525.265 84.9745 525.001 84.8123 524.687 84.721C523.531 84.2851 522.376 83.8492 521.21 83.4133C520.784 83.2511 520.166 83.3828 519.79 83.5957C519.405 83.8188 519.05 84.2547 518.949 84.6906C518.838 85.1569 518.868 85.6841 519.132 86.1099C519.223 86.2315 519.324 86.3532 519.415 86.485C519.649 86.708 519.912 86.8702 520.226 86.9614C521.382 87.3974 522.538 87.8333 523.704 88.2692C524.129 88.4314 524.748 88.2996 525.123 88.0867C525.508 87.8637 525.863 87.4278 525.964 86.9919C526.076 86.5255 526.045 85.9984 525.782 85.5726Z" fill="#C94F2A"/>
<path d="M535.362 77.3001C534.987 76.9554 534.571 76.8034 534.064 76.7628C532.929 76.6716 531.804 76.5398 530.668 76.3979C530.83 76.4181 530.993 76.4384 531.155 76.4587C530.851 76.4181 530.526 76.3776 530.222 76.3066C530.03 76.1444 529.806 76.0126 529.563 75.9518C529.127 75.8301 528.539 75.8808 528.144 76.1343C527.333 76.6513 526.927 77.7766 527.485 78.6484C527.89 79.2871 528.519 79.7332 529.269 79.865C529.877 79.9765 530.496 80.0373 531.104 80.1184C532.087 80.24 533.071 80.3516 534.064 80.4327C534.51 80.4732 535.058 80.1995 535.362 79.8954C535.676 79.5811 535.919 79.0539 535.899 78.5977C535.879 78.1213 535.717 77.6347 535.362 77.3001Z" fill="#C94F2A"/>
<path d="M545.986 81.4062C544.891 81.4569 543.807 81.4671 542.712 81.4062C542.185 81.3758 541.668 81.3454 541.14 81.2947C540.877 81.2744 540.623 81.244 540.36 81.2136C540.309 81.2136 540.258 81.2035 540.208 81.1933C540.076 81.1731 539.944 81.1528 539.812 81.1325C539.305 81.0514 538.859 81.0514 538.393 81.315C538.008 81.538 537.653 81.9739 537.552 82.4099C537.44 82.8762 537.471 83.4034 537.734 83.8291C537.977 84.2042 538.373 84.5996 538.829 84.6706C541.201 85.0355 543.584 85.1977 545.986 85.0761C546.949 85.0254 547.872 84.2651 547.821 83.2412C547.781 82.2882 547.01 81.3555 545.986 81.4062Z" fill="#C94F2A"/>
<path d="M553.285 87.5597C552.748 86.7284 551.653 86.3736 550.771 86.9008C550.416 87.1137 550.062 87.3063 549.697 87.4786C549.616 87.5192 549.524 87.5597 549.433 87.6003C549.251 87.6712 549.078 87.7422 548.896 87.803C548.206 88.0463 547.497 88.2085 546.787 88.3201C546.311 88.3707 545.824 88.4113 545.337 88.4214C544.374 88.4214 543.452 89.2629 543.503 90.2564C543.543 91.2499 544.314 92.1014 545.337 92.0913C547.892 92.0913 550.437 91.3816 552.626 90.0739C553.448 89.5771 553.823 88.4012 553.285 87.5597Z" fill="#C94F2A"/>
<path d="M582.867 78.9834C582.3 78.0913 581.276 77.8682 580.353 78.3244C579.268 78.8516 578.173 79.3585 577.068 79.8349C577.018 79.8552 576.967 79.8755 576.906 79.9059C576.785 79.9566 576.673 80.0073 576.551 80.058C576.278 80.1695 575.994 80.2911 575.71 80.4026C575.152 80.6257 574.585 80.8386 574.017 81.0515C573.561 81.2238 573.176 81.457 572.922 81.8929C572.689 82.2883 572.598 82.8661 572.74 83.3122C573.024 84.1942 574.037 84.9545 575 84.5997C577.454 83.6873 579.856 82.6634 582.208 81.5178C583.07 81.092 583.374 79.7944 582.867 79.0036V78.9834Z" fill="#C94F2A"/>
<path d="M582.695 85.6538C582.34 85.3294 581.884 85.0962 581.397 85.1165C581.235 85.1367 581.073 85.157 580.911 85.1773C580.627 85.2584 580.394 85.4003 580.181 85.5929C578.903 86.5763 577.535 87.4481 576.105 88.1983C575.254 88.6444 574.929 89.9015 575.446 90.7125C576.004 91.5843 577.048 91.8479 577.961 91.3714C579.643 90.4894 581.205 89.425 582.695 88.249C583.04 87.9753 583.232 87.367 583.232 86.9514C583.232 86.5053 583.029 85.9579 582.695 85.6538Z" fill="#C94F2A"/>
</g>
<mask id="mask2_178_471" style="mask-type:luminance" maskUnits="userSpaceOnUse" x="512" y="24" width="31" height="27">
<path d="M518.99 29.0551C518.99 29.0551 517.743 25.8313 515.928 26.9262C514.113 28.0211 513.556 37.5201 513.556 37.5201C513.556 37.5201 507.706 55.0076 529.604 49.9793C543.077 47.5361 544.8 41.6157 538.981 33.6779C538.525 29.7749 536.741 24.6756 535.271 24.5134C534.085 24.3816 532.929 27.1087 532.929 27.1087C532.929 27.1087 527.221 24.6553 518.979 29.045L518.99 29.0551Z" fill="white"/>
</mask>
<g mask="url(#mask2_178_471)">
<path d="M526.147 30.1096C525.062 28.1227 523.714 26.2675 522.173 24.5947C521.524 23.8851 520.226 23.8851 519.578 24.5947C518.878 25.3551 518.878 26.4398 519.578 27.19C520.024 27.6766 520.449 28.1835 520.855 28.7005C521.636 29.7345 522.345 30.8193 522.974 31.9547C523.43 32.7961 524.667 33.1408 525.488 32.6137C526.339 32.0662 526.644 31.0018 526.147 30.0995V30.1096Z" fill="#C94F2A"/>
<path d="M530.8 29.5823C529.938 27.9906 529.097 26.3889 528.276 24.7669C528.073 24.3715 527.597 24.0369 527.181 23.9254C526.745 23.8038 526.157 23.8545 525.762 24.1079C524.88 24.6756 524.636 25.6995 525.103 26.6221C525.924 28.234 526.765 29.8458 527.627 31.4375C528.083 32.2789 529.32 32.6236 530.141 32.0964C531.003 31.5388 531.297 30.4845 530.8 29.5823Z" fill="#C94F2A"/>
<path d="M520.845 41.0176C520.561 40.1559 519.537 39.355 518.584 39.7301C518.016 39.9531 517.439 40.1255 516.84 40.237C516.709 40.2674 516.587 40.2877 516.455 40.308C516.415 40.308 516.374 40.3181 516.323 40.3282C516.313 40.3282 516.303 40.3282 516.293 40.3282C516.009 40.3587 515.725 40.3789 515.441 40.3992C514.235 40.4702 513.029 40.4195 511.822 40.3587C510.859 40.3181 509.947 41.2305 509.987 42.1936C510.038 43.2276 510.798 43.988 511.822 44.0285C514.397 44.1502 517.104 44.2211 519.547 43.258C520.003 43.0756 520.389 42.8525 520.642 42.4166C520.875 42.0212 520.966 41.4434 520.825 40.9973L520.845 41.0176Z" fill="#C94F2A"/>
<path d="M518.858 46.7253C518.513 46.4111 518.047 46.1576 517.56 46.188C516.283 46.259 514.995 46.2793 513.708 46.2286C513.252 46.2083 512.735 46.4415 512.41 46.7659C512.096 47.0801 511.853 47.6073 511.873 48.0635C511.924 49.0874 512.684 49.868 513.708 49.8984C514.995 49.939 516.273 49.9288 517.56 49.8579C518.047 49.8275 518.503 49.6754 518.858 49.3206C519.172 49.0063 519.415 48.4791 519.395 48.0229C519.375 47.5465 519.223 47.0599 518.858 46.7253Z" fill="#C94F2A"/>
</g>
<mask id="mask3_178_471" style="mask-type:luminance" maskUnits="userSpaceOnUse" x="575" y="9" width="27" height="44">
<path d="M575.7 50.8915C575.7 50.8915 581.022 49.7561 587.845 43.7951C594.211 38.2396 597.192 27.9397 588.037 19.3024C578.873 10.6651 592.427 3.17331 598.631 16.4841C604.836 29.7949 602.291 47.0189 577.555 52.1181" fill="white"/>
</mask>
<g mask="url(#mask3_178_471)">
<path d="M591.16 37.3373C591.322 37.5704 591.505 37.7732 591.697 37.9861C592.569 38.8275 593.441 39.6588 594.222 40.5915C594.607 41.0477 594.962 41.514 595.306 42.0006C595.468 42.2236 595.62 42.4568 595.762 42.69C596.188 43.3996 596.411 43.7443 596.543 44.5756C596.604 44.971 596.614 45.3765 596.563 45.782C596.442 46.7248 595.904 47.6777 595.144 48.2556C594.445 48.7929 593.36 49.1274 592.468 48.9754C591.515 48.8132 590.562 48.3671 589.994 47.5561C589.771 47.2317 589.609 46.887 589.477 46.5322C588.889 45.6603 588.21 44.829 587.49 44.0788C586.72 43.3591 585.898 42.6697 585.31 41.808C584.773 41.0173 584.469 40.0947 584.591 39.1316C584.702 38.2294 585.25 37.1852 586.01 36.658C586.78 36.1207 587.733 35.7761 588.686 35.9383C589.629 36.1005 590.602 36.5465 591.16 37.3575V37.3373Z" fill="#C94F2A"/>
<path d="M599.098 27.8379C600.659 28.8416 602.058 30.0682 603.508 31.2138C605.008 32.41 605.454 34.8431 604.156 36.3739C602.879 37.8743 600.608 38.3 598.996 37.0227C597.506 35.8366 596.056 34.5896 594.445 33.5657C593.765 33.2008 593.066 32.8966 592.326 32.6635C592.143 32.6331 591.971 32.5824 591.788 32.552C589.893 32.2782 588.25 30.4433 588.585 28.4563C588.909 26.5302 590.643 24.9588 592.681 25.2528C595.033 25.5975 597.101 26.5606 599.088 27.8278L599.098 27.8379Z" fill="#C94F2A"/>
<path d="M600.03 11.9321C601.014 12.7837 601.592 13.9596 601.419 15.2877C601.409 15.3789 601.369 15.4702 601.348 15.5614C601.693 15.6831 602.028 15.7946 602.362 15.9264C604.146 16.636 605.191 18.9373 604.359 20.7215C603.508 22.5463 601.48 23.4789 599.564 22.7186C598.976 22.4854 598.388 22.2726 597.79 22.0698C597.466 21.9684 597.141 21.867 596.817 21.7657L596.533 21.6846C596.127 21.5731 596.158 21.5832 596.644 21.715C596.269 21.4413 595.408 21.4311 594.941 21.3399C594.323 21.2182 593.704 21.127 593.076 21.0459C591.93 20.904 590.612 20.6708 589.457 20.8026C590.339 20.7012 589.406 20.8026 589.244 20.8026C588.95 20.8026 588.666 20.8229 588.372 20.8431C587.693 20.8837 587.024 20.9547 586.355 21.0358C584.53 21.2689 582.817 20.1132 582.33 18.3493C581.904 16.7982 582.533 15.2877 583.78 14.3854C583.212 13.8177 582.806 13.0979 582.735 12.3173C582.543 10.2391 583.851 8.56638 585.868 8.17101C590.795 7.19779 596.198 8.63735 600 11.9017L600.03 11.9321Z" fill="#C94F2A"/>
</g>
<path d="M649.279 34.9038H659.012C663.239 34.9038 666.463 35.6134 668.683 37.0226C670.508 38.158 671.937 39.7699 672.971 41.838C674.005 43.9771 674.522 46.2175 674.522 48.5897C674.522 52.0264 673.559 55.0576 671.633 57.6731C668.774 61.5457 664.263 63.4921 658.109 63.4921H652.858L650.465 82.9261H643.349L649.289 34.9139L649.279 34.9038ZM655.565 41.5237L653.639 57.1662H658.271C661.191 57.1662 663.442 56.416 665.003 54.9156C666.564 53.4153 667.355 51.2458 667.355 48.3971C667.355 43.8149 664.435 41.5237 658.586 41.5237H655.565Z" fill="#231815"/>
<path d="M709.305 53.6285L705.696 82.9264H698.822L699.228 79.7533C696.288 82.3283 693.236 83.6057 690.084 83.6057C686.211 83.6057 683.048 82.2878 680.595 79.652C678.152 77.0162 676.925 73.6099 676.925 69.423C676.925 64.5975 678.324 60.6336 681.122 57.5416C683.96 54.4496 687.6 52.9087 692.04 52.9087C694.139 52.9087 695.913 53.2534 697.393 53.9326C698.883 54.6118 700.414 55.7979 701.965 57.4808L702.431 53.6285H709.305ZM700.941 67.436C700.941 64.8408 700.191 62.7423 698.701 61.1202C697.21 59.4779 695.284 58.6669 692.912 58.6669C690.337 58.6669 688.188 59.6705 686.444 61.6879C684.7 63.7155 683.829 66.2094 683.829 69.1493C683.829 71.7243 684.559 73.8228 686.008 75.4651C687.458 77.1074 689.323 77.9184 691.604 77.9184C694.129 77.9184 696.318 76.8945 698.163 74.8365C700.008 72.738 700.931 70.2746 700.931 67.436H700.941Z" fill="#231815"/>
<path d="M761.22 53.6284L742.374 85.9981L736.464 67.0913L725.981 85.9981L715.347 53.6284H722.595L727.755 71.5113L738.207 52.8174L743.803 71.5113L753.414 53.6284H761.22Z" fill="#231815"/>
<path d="M793.965 60.0049L791.167 82.9263H784.293L787.122 60.0049H782.641L783.421 53.6283H787.902L789.524 40.5405C789.94 37.0532 790.883 34.4985 792.353 32.8562C793.823 31.2138 795.931 30.4028 798.669 30.4028C800.331 30.4028 802.267 30.93 804.488 31.9843L803.737 38.0162C802.45 36.9822 801.274 36.4652 800.189 36.4652C798.942 36.4652 798.02 36.891 797.422 37.7425C796.864 38.5941 796.438 40.1553 796.144 42.4363L794.776 53.6283H800.99L800.21 60.0049H793.955H793.965Z" fill="#231815"/>
<path d="M836.989 67.9936C836.989 72.4745 835.438 76.2356 832.326 79.2769C829.234 82.3283 825.422 83.849 820.88 83.849C816.339 83.849 812.253 82.4094 809.252 79.5303C806.221 76.6309 804.711 72.9611 804.711 68.5208C804.711 64.0805 806.272 60.2079 809.404 57.197C812.557 54.1658 816.491 52.6553 821.225 52.6553C825.959 52.6553 829.649 54.0847 832.579 56.9435C835.519 59.7618 836.999 63.4418 836.999 67.9835L836.989 67.9936ZM830.055 67.6489C830.055 64.8307 829.234 62.6004 827.602 60.9581C825.959 59.2549 823.82 58.4034 821.164 58.4034C818.508 58.4034 816.126 59.3462 814.321 61.2318C812.517 63.1377 811.614 65.5302 811.614 68.4194C811.614 71.3086 812.466 73.6505 814.169 75.4144C815.872 77.2189 818.062 78.1212 820.759 78.1212C823.455 78.1212 825.675 77.1378 827.409 75.1711C829.173 73.2247 830.055 70.7105 830.055 67.6489Z" fill="#231815"/>
<path d="M854.071 53.6283L853.757 56.1424C856.078 53.9425 858.42 52.8477 860.782 52.8477C862.85 52.8477 864.746 53.608 866.439 55.1185L862.06 60.7753C860.792 59.7007 859.525 59.1533 858.268 59.1533C857.396 59.1533 856.626 59.3256 855.967 59.6703C855.308 60.015 854.73 60.5523 854.243 61.2924C853.757 62.0324 853.351 62.9752 853.027 64.1411C852.703 65.3069 852.449 66.6958 852.267 68.3077L850.462 82.9262H843.589L847.198 53.6283H854.071Z" fill="#231815"/>
<path d="M895.717 34.9038H904.608C907.406 34.9038 909.676 35.2079 911.42 35.8061C913.123 36.4042 914.563 37.4281 915.739 38.8575C917.624 41.1182 918.567 43.8453 918.567 47.0386C918.567 51.8946 916.235 55.5949 911.572 58.1394C917.229 59.5486 920.057 63.0968 920.057 68.7739C920.057 71.1157 919.561 73.3257 918.567 75.3938C917.614 77.4416 916.266 79.1042 914.522 80.3714C913.133 81.3852 911.613 82.0644 909.95 82.3888C909.078 82.551 908.034 82.6828 906.807 82.774C905.581 82.8653 904.131 82.916 902.458 82.916H889.806L895.717 34.9038ZM899.539 61.5862L897.734 76.2961H902.519C906.088 76.2961 908.531 75.85 909.859 74.9579C911.886 73.6096 912.91 71.3691 912.91 68.2366C912.91 67.0505 912.738 66.0468 912.393 65.2054C912.049 64.364 911.521 63.6746 910.792 63.1373C910.062 62.6 909.129 62.2046 907.973 61.9512C906.818 61.6978 905.439 61.5761 903.827 61.5761H899.539V61.5862ZM901.992 41.5237L900.248 55.8889H902.266C908.358 55.8889 911.41 53.0503 911.41 47.3732C911.41 43.4803 909.088 41.5237 904.445 41.5237H901.992Z" fill="#231815"/>
<path d="M933.632 70.7305C933.632 72.8899 934.382 74.664 935.872 76.0528C937.383 77.4417 939.309 78.1412 941.661 78.1412C944.874 78.1412 947.338 76.9348 949.061 74.5322L954.191 77.3606C952.407 79.7632 950.572 81.4461 948.686 82.399C946.78 83.3723 944.398 83.8589 941.529 83.8589C936.987 83.8589 933.368 82.5207 930.672 79.8443C927.975 77.168 926.627 73.5894 926.627 69.1186C926.627 64.6479 928.107 60.5117 931.077 57.3691C934.017 54.2365 937.738 52.6753 942.239 52.6753C946.74 52.6753 950.024 54.0844 952.528 56.9027C955.083 59.7413 956.35 63.5429 956.35 68.3178C956.35 68.8145 956.32 69.6255 956.259 70.7407H933.622L933.632 70.7305ZM949.396 65.1954C948.666 60.6739 946.172 58.4132 941.904 58.4132C937.859 58.4132 935.223 60.6739 934.007 65.1954H949.396Z" fill="#231815"/>
<path d="M973.27 60.0051L970.442 82.9264H963.568L966.397 60.0051H962.514L963.295 53.6285H967.177L968.86 40.0439H975.734L974.051 53.6285H980.397L979.616 60.0051H973.27Z" fill="#231815"/>
<path d="M992.593 60.0051L989.764 82.9264H982.891L985.719 60.0051H981.837L982.617 53.6285H986.5L988.183 40.0439H995.056L993.373 53.6285H999.719L998.939 60.0051H992.593Z" fill="#231815"/>
<path d="M1009.93 70.7305C1009.93 72.8899 1010.68 74.664 1012.17 76.0528C1013.68 77.4417 1015.61 78.1412 1017.96 78.1412C1021.17 78.1412 1023.63 76.9348 1025.36 74.5322L1030.49 77.3606C1028.7 79.7632 1026.87 81.4461 1024.98 82.399C1023.08 83.3723 1020.69 83.8589 1017.83 83.8589C1013.28 83.8589 1009.66 82.5207 1006.97 79.8443C1004.27 77.168 1002.92 73.5894 1002.92 69.1186C1002.92 64.6479 1004.4 60.5117 1007.37 57.3691C1010.31 54.2365 1014.03 52.6753 1018.54 52.6753C1023.04 52.6753 1026.32 54.0844 1028.82 56.9027C1031.38 59.7413 1032.65 63.5429 1032.65 68.3178C1032.65 68.8145 1032.62 69.6255 1032.56 70.7407H1009.92L1009.93 70.7305ZM1025.69 65.1954C1024.96 60.6739 1022.47 58.4132 1018.2 58.4132C1014.16 58.4132 1011.53 60.6739 1010.3 65.1954H1025.69Z" fill="#231815"/>
<path d="M1049.75 53.6283L1049.43 56.1424C1051.76 53.9425 1054.1 52.8477 1056.46 52.8477C1058.53 52.8477 1060.42 53.608 1062.12 55.1185L1057.73 60.7753C1056.46 59.7007 1055.19 59.1533 1053.94 59.1533C1053.06 59.1533 1052.29 59.3256 1051.63 59.6703C1050.98 60.015 1050.4 60.5523 1049.91 61.2924C1049.42 62.0324 1049.02 62.9752 1048.69 64.1411C1048.37 65.3069 1048.12 66.6958 1047.93 68.3077L1046.13 82.9262H1039.26L1042.87 53.6283H1049.74H1049.75Z" fill="#231815"/>
<path d="M1070.29 79.53C1070.29 80.6248 1069.86 81.5778 1069.01 82.3888C1068.16 83.1998 1067.18 83.6053 1066.06 83.6053C1064.95 83.6053 1063.94 83.1897 1063.14 82.3584C1062.33 81.5271 1061.92 80.5133 1061.92 79.3069C1061.92 78.1006 1062.3 77.1679 1063.04 76.3873C1063.83 75.5965 1064.77 75.2012 1065.87 75.2012C1067.09 75.2012 1068.13 75.627 1068.98 76.4785C1069.85 77.3301 1070.29 78.3439 1070.29 79.53Z" fill="#231815"/>
<path d="M1248.56 34.9038H1258.29C1262.52 34.9038 1265.74 35.6134 1267.96 37.0226C1269.79 38.158 1271.22 39.7699 1272.25 41.838C1273.29 43.9771 1273.8 46.2175 1273.8 48.5897C1273.8 52.0264 1272.84 55.0576 1270.91 57.6731C1268.05 61.5457 1263.54 63.4921 1257.39 63.4921H1252.14L1249.75 82.9261H1242.63L1248.57 34.9139L1248.56 34.9038ZM1254.85 41.5237L1252.92 57.1662H1257.55C1260.47 57.1662 1262.72 56.416 1264.28 54.9156C1265.84 53.4153 1266.64 51.2458 1266.64 48.3971C1266.64 43.8149 1263.72 41.5237 1257.87 41.5237H1254.85Z" fill="#231815"/>
<path d="M1308.59 53.6285L1304.99 82.9264H1298.11L1298.52 79.7533C1295.58 82.3283 1292.53 83.6057 1289.37 83.6057C1285.5 83.6057 1282.34 82.2878 1279.89 79.652C1277.44 77.0162 1276.22 73.6099 1276.22 69.423C1276.22 64.5975 1277.61 60.6336 1280.41 57.5416C1283.25 54.4496 1286.89 52.9087 1291.33 52.9087C1293.43 52.9087 1295.2 53.2534 1296.68 53.9326C1298.17 54.6118 1299.7 55.7979 1301.26 57.4808L1301.72 53.6285H1308.59ZM1300.23 67.436C1300.23 64.8408 1299.48 62.7423 1297.99 61.1202C1296.5 59.4779 1294.57 58.6669 1292.2 58.6669C1289.63 58.6669 1287.48 59.6705 1285.73 61.6879C1283.99 63.7155 1283.12 66.2094 1283.12 69.1493C1283.12 71.7243 1283.85 73.8228 1285.3 75.4651C1286.75 77.1074 1288.61 77.9184 1290.89 77.9184C1293.42 77.9184 1295.61 76.8945 1297.45 74.8365C1299.3 72.738 1300.22 70.2746 1300.22 67.436H1300.23Z" fill="#231815"/>
<path d="M1360.51 53.6284L1341.66 85.9981L1335.75 67.0913L1325.27 85.9981L1314.64 53.6284H1321.89L1327.05 71.5113L1337.5 52.8174L1343.09 71.5113L1352.7 53.6284H1360.51Z" fill="#231815"/>
<path d="M1393.25 60.0049L1390.46 82.9263H1383.58L1386.41 60.0049H1381.93L1382.71 53.6283H1387.19L1388.81 40.5405C1389.23 37.0532 1390.17 34.4985 1391.64 32.8562C1393.11 31.2138 1395.22 30.4028 1397.96 30.4028C1399.62 30.4028 1401.56 30.93 1403.78 31.9843L1403.03 38.0162C1401.74 36.9822 1400.56 36.4652 1399.48 36.4652C1398.23 36.4652 1397.31 36.891 1396.71 37.7425C1396.15 38.5941 1395.73 40.1553 1395.43 42.4363L1394.07 53.6283H1400.28L1399.5 60.0049H1393.24H1393.25Z" fill="#231815"/>
<path d="M1436.27 67.9936C1436.27 72.4745 1434.72 76.2356 1431.61 79.2769C1428.51 82.3283 1424.7 83.849 1420.16 83.849C1415.62 83.849 1411.53 82.4094 1408.53 79.5303C1405.5 76.6309 1403.99 72.9611 1403.99 68.5208C1403.99 64.0805 1405.55 60.2079 1408.68 57.197C1411.84 54.1658 1415.77 52.6553 1420.51 52.6553C1425.24 52.6553 1428.93 54.0847 1431.86 56.9435C1434.8 59.7618 1436.28 63.4418 1436.28 67.9835L1436.27 67.9936ZM1429.34 67.6489C1429.34 64.8307 1428.51 62.6004 1426.88 60.9581C1425.24 59.2549 1423.1 58.4034 1420.44 58.4034C1417.79 58.4034 1415.41 59.3462 1413.6 61.2318C1411.8 63.1377 1410.89 65.5302 1410.89 68.4194C1410.89 71.3086 1411.75 73.6505 1413.45 75.4144C1415.15 77.2189 1417.34 78.1212 1420.04 78.1212C1422.74 78.1212 1424.96 77.1378 1426.69 75.1711C1428.45 73.2247 1429.34 70.7105 1429.34 67.6489Z" fill="#231815"/>
<path d="M1453.36 53.6283L1453.05 56.1424C1455.37 53.9425 1457.71 52.8477 1460.07 52.8477C1462.14 52.8477 1464.04 53.608 1465.73 55.1185L1461.34 60.7753C1460.07 59.7007 1458.81 59.1533 1457.55 59.1533C1456.68 59.1533 1455.91 59.3256 1455.25 59.6703C1454.59 60.015 1454.01 60.5523 1453.52 61.2924C1453.04 62.0324 1452.63 62.9752 1452.31 64.1411C1451.98 65.3069 1451.73 66.6958 1451.55 68.3077L1449.74 82.9262H1442.87L1446.48 53.6283H1453.35H1453.36Z" fill="#231815"/>
<path d="M1495 34.9038H1503.89C1506.69 34.9038 1508.96 35.2079 1510.7 35.8061C1512.4 36.4042 1513.84 37.4281 1515.02 38.8575C1516.9 41.1182 1517.85 43.8453 1517.85 47.0386C1517.85 51.8946 1515.52 55.5949 1510.85 58.1394C1516.51 59.5486 1519.34 63.0968 1519.34 68.7739C1519.34 71.1157 1518.84 73.3257 1517.85 75.3938C1516.89 77.4416 1515.55 79.1042 1513.8 80.3714C1512.41 81.3852 1510.89 82.0644 1509.23 82.3888C1508.36 82.551 1507.31 82.6828 1506.09 82.774C1504.86 82.8653 1503.41 82.916 1501.74 82.916H1489.09L1495 34.9038ZM1498.82 61.5862L1497.01 76.2961H1501.8C1505.37 76.2961 1507.81 75.85 1509.14 74.9579C1511.17 73.6096 1512.19 71.3691 1512.19 68.2366C1512.19 67.0505 1512.02 66.0468 1511.67 65.2054C1511.33 64.364 1510.8 63.6746 1510.07 63.1373C1509.34 62.6 1508.41 62.2046 1507.25 61.9512C1506.1 61.6978 1504.72 61.5761 1503.1 61.5761H1498.81L1498.82 61.5862ZM1501.27 41.5237L1499.53 55.8889H1501.55C1507.64 55.8889 1510.69 53.0503 1510.69 47.3732C1510.69 43.4803 1508.37 41.5237 1503.73 41.5237H1501.27Z" fill="#231815"/>
<path d="M1532.92 70.7305C1532.92 72.8899 1533.67 74.664 1535.16 76.0528C1536.67 77.4417 1538.6 78.1412 1540.95 78.1412C1544.16 78.1412 1546.63 76.9348 1548.35 74.5322L1553.48 77.3606C1551.7 79.7632 1549.86 81.4461 1547.98 82.399C1546.07 83.3723 1543.69 83.8589 1540.82 83.8589C1536.28 83.8589 1532.66 82.5207 1529.96 79.8443C1527.27 77.168 1525.92 73.5894 1525.92 69.1186C1525.92 64.6479 1527.4 60.5117 1530.37 57.3691C1533.31 54.2365 1537.03 52.6753 1541.53 52.6753C1546.03 52.6753 1549.31 54.0844 1551.82 56.9027C1554.37 59.7413 1555.64 63.5429 1555.64 68.3178C1555.64 68.8145 1555.61 69.6255 1555.55 70.7407H1532.91L1532.92 70.7305ZM1548.69 65.1954C1547.96 60.6739 1545.46 58.4132 1541.19 58.4132C1537.15 58.4132 1534.52 60.6739 1533.3 65.1954H1548.69Z" fill="#231815"/>
<path d="M1572.55 60.0051L1569.72 82.9264H1562.85L1565.68 60.0051H1561.79L1562.57 53.6285H1566.46L1568.14 40.0439H1575.01L1573.33 53.6285H1579.68L1578.9 60.0051H1572.55Z" fill="#231815"/>
<path d="M1591.88 60.0051L1589.05 82.9264H1582.18L1585.01 60.0051H1581.13L1581.91 53.6285H1585.79L1587.47 40.0439H1594.35L1592.66 53.6285H1599.01L1598.23 60.0051H1591.88Z" fill="#231815"/>
<path d="M1609.22 70.7305C1609.22 72.8899 1609.97 74.664 1611.46 76.0528C1612.97 77.4417 1614.9 78.1412 1617.25 78.1412C1620.46 78.1412 1622.92 76.9348 1624.65 74.5322L1629.78 77.3606C1627.99 79.7632 1626.16 81.4461 1624.27 82.399C1622.37 83.3723 1619.98 83.8589 1617.12 83.8589C1612.57 83.8589 1608.95 82.5207 1606.26 79.8443C1603.56 77.168 1602.21 73.5894 1602.21 69.1186C1602.21 64.6479 1603.69 60.5117 1606.66 57.3691C1609.6 54.2365 1613.32 52.6753 1617.83 52.6753C1622.33 52.6753 1625.61 54.0844 1628.12 56.9027C1630.67 59.7413 1631.94 63.5429 1631.94 68.3178C1631.94 68.8145 1631.91 69.6255 1631.85 70.7407H1609.21L1609.22 70.7305ZM1624.98 65.1954C1624.25 60.6739 1621.76 58.4132 1617.49 58.4132C1613.45 58.4132 1610.81 60.6739 1609.59 65.1954H1624.98Z" fill="#231815"/>
<path d="M1649.03 53.6283L1648.71 56.1424C1651.04 53.9425 1653.38 52.8477 1655.74 52.8477C1657.81 52.8477 1659.7 53.608 1661.4 55.1185L1657.02 60.7753C1655.75 59.7007 1654.48 59.1533 1653.23 59.1533C1652.35 59.1533 1651.58 59.3256 1650.92 59.6703C1650.27 60.015 1649.69 60.5523 1649.2 61.2924C1648.72 62.0324 1648.31 62.9752 1647.99 64.1411C1647.66 65.3069 1647.41 66.6958 1647.22 68.3077L1645.42 82.9262H1638.55L1642.16 53.6283H1649.03Z" fill="#231815"/>
<path d="M1669.57 79.53C1669.57 80.6248 1669.14 81.5778 1668.29 82.3888C1667.44 83.1998 1666.46 83.6053 1665.34 83.6053C1664.23 83.6053 1663.22 83.1897 1662.42 82.3584C1661.62 81.5271 1661.2 80.5133 1661.2 79.3069C1661.2 78.1006 1661.58 77.1679 1662.32 76.3873C1663.11 75.5965 1664.05 75.2012 1665.15 75.2012C1666.37 75.2012 1667.41 75.627 1668.26 76.4785C1669.13 77.3301 1669.57 78.3439 1669.57 79.53Z" fill="#231815"/>
<path d="M1847.84 34.9038H1857.57C1861.8 34.9038 1865.02 35.6134 1867.24 37.0226C1869.07 38.158 1870.5 39.7699 1871.53 41.838C1872.57 43.9771 1873.08 46.2175 1873.08 48.5897C1873.08 52.0264 1872.12 55.0576 1870.19 57.6731C1867.33 61.5457 1862.82 63.4921 1856.67 63.4921H1851.42L1849.03 82.9261H1841.91L1847.85 34.9139L1847.84 34.9038ZM1854.13 41.5237L1852.2 57.1662H1856.83C1859.75 57.1662 1862 56.416 1863.56 54.9156C1865.12 53.4153 1865.92 51.2458 1865.92 48.3971C1865.92 43.8149 1863 41.5237 1857.15 41.5237H1854.13Z" fill="#231815"/>
<path d="M1907.88 53.6285L1904.27 82.9264H1897.39L1897.8 79.7533C1894.86 82.3283 1891.81 83.6057 1888.65 83.6057C1884.78 83.6057 1881.62 82.2878 1879.17 79.652C1876.72 77.0162 1875.5 73.6099 1875.5 69.423C1875.5 64.5975 1876.89 60.6336 1879.69 57.5416C1882.53 54.4496 1886.17 52.9087 1890.61 52.9087C1892.71 52.9087 1894.48 53.2534 1895.96 53.9326C1897.45 54.6118 1898.98 55.7979 1900.54 57.4808L1901 53.6285H1907.88ZM1899.51 67.436C1899.51 64.8408 1898.76 62.7423 1897.27 61.1202C1895.78 59.4779 1893.85 58.6669 1891.48 58.6669C1888.91 58.6669 1886.76 59.6705 1885.01 61.6879C1883.27 63.7155 1882.4 66.2094 1882.4 69.1493C1882.4 71.7243 1883.13 73.8228 1884.58 75.4651C1886.03 77.1074 1887.89 77.9184 1890.17 77.9184C1892.7 77.9184 1894.89 76.8945 1896.73 74.8365C1898.58 72.738 1899.5 70.2746 1899.5 67.436H1899.51Z" fill="#231815"/>
<path d="M1959.79 53.6284L1940.94 85.9981L1935.03 67.0913L1924.55 85.9981L1913.92 53.6284H1921.17L1926.33 71.5113L1936.78 52.8174L1942.37 71.5113L1951.98 53.6284H1959.79Z" fill="#231815"/>
<path d="M1992.54 60.0049L1989.74 82.9263H1982.86L1985.69 60.0049H1981.21L1981.99 53.6283H1986.47L1988.09 40.5405C1988.51 37.0532 1989.45 34.4985 1990.92 32.8562C1992.39 31.2138 1994.5 30.4028 1997.24 30.4028C1998.9 30.4028 2000.84 30.93 2003.06 31.9843L2002.31 38.0162C2001.02 36.9822 1999.84 36.4652 1998.76 36.4652C1997.51 36.4652 1996.59 36.891 1995.99 37.7425C1995.43 38.5941 1995.01 40.1553 1994.71 42.4363L1993.35 53.6283H1999.57L1998.79 60.0049H1992.54Z" fill="#231815"/>
<path d="M2035.56 67.9936C2035.56 72.4745 2034.01 76.2356 2030.9 79.2769C2027.8 82.3283 2023.99 83.849 2019.45 83.849C2014.91 83.849 2010.82 82.4094 2007.82 79.5303C2004.79 76.6309 2003.28 72.9611 2003.28 68.5208C2003.28 64.0805 2004.84 60.2079 2007.97 57.197C2011.13 54.1658 2015.06 52.6553 2019.8 52.6553C2024.53 52.6553 2028.22 54.0847 2031.15 56.9435C2034.09 59.7618 2035.57 63.4418 2035.57 67.9835L2035.56 67.9936ZM2028.63 67.6489C2028.63 64.8307 2027.8 62.6004 2026.17 60.9581C2024.53 59.2549 2022.39 58.4034 2019.73 58.4034C2017.08 58.4034 2014.7 59.3462 2012.89 61.2318C2011.09 63.1377 2010.18 65.5302 2010.18 68.4194C2010.18 71.3086 2011.04 73.6505 2012.74 75.4144C2014.44 77.2189 2016.63 78.1212 2019.33 78.1212C2022.03 78.1212 2024.25 77.1378 2025.98 75.1711C2027.74 73.2247 2028.63 70.7105 2028.63 67.6489Z" fill="#231815"/>
<path d="M2052.64 53.6283L2052.33 56.1424C2054.65 53.9425 2056.99 52.8477 2059.35 52.8477C2061.42 52.8477 2063.32 53.608 2065.01 55.1185L2060.63 60.7753C2059.36 59.7007 2058.1 59.1533 2056.84 59.1533C2055.97 59.1533 2055.2 59.3256 2054.54 59.6703C2053.88 60.015 2053.3 60.5523 2052.81 61.2924C2052.33 62.0324 2051.92 62.9752 2051.6 64.1411C2051.27 65.3069 2051.02 66.6958 2050.84 68.3077L2049.03 82.9262H2042.16L2045.77 53.6283H2052.64Z" fill="#231815"/>
<path d="M2094.28 34.9038H2103.17C2105.97 34.9038 2108.24 35.2079 2109.98 35.8061C2111.68 36.4042 2113.12 37.4281 2114.3 38.8575C2116.18 41.1182 2117.13 43.8453 2117.13 47.0386C2117.13 51.8946 2114.8 55.5949 2110.13 58.1394C2115.79 59.5486 2118.62 63.0968 2118.62 68.7739C2118.62 71.1157 2118.12 73.3257 2117.13 75.3938C2116.17 77.4416 2114.83 79.1042 2113.08 80.3714C2111.69 81.3852 2110.17 82.0644 2108.51 82.3888C2107.64 82.551 2106.59 82.6828 2105.37 82.774C2104.14 82.8653 2102.69 82.916 2101.02 82.916H2088.37L2094.28 34.9038ZM2098.1 61.5862L2096.29 76.2961H2101.08C2104.65 76.2961 2107.09 75.85 2108.42 74.9579C2110.45 73.6096 2111.47 71.3691 2111.47 68.2366C2111.47 67.0505 2111.3 66.0468 2110.95 65.2054C2110.61 64.364 2110.08 63.6746 2109.35 63.1373C2108.62 62.6 2107.69 62.2046 2106.53 61.9512C2105.38 61.6978 2104 61.5761 2102.38 61.5761H2098.09L2098.1 61.5862ZM2100.55 41.5237L2098.81 55.8889H2100.83C2106.92 55.8889 2109.97 53.0503 2109.97 47.3732C2109.97 43.4803 2107.65 41.5237 2103.01 41.5237H2100.55Z" fill="#231815"/>
<path d="M2132.2 70.7305C2132.2 72.8899 2132.95 74.664 2134.44 76.0528C2135.95 77.4417 2137.88 78.1412 2140.23 78.1412C2143.45 78.1412 2145.91 76.9348 2147.63 74.5322L2152.76 77.3606C2150.98 79.7632 2149.14 81.4461 2147.26 82.399C2145.35 83.3723 2142.97 83.8589 2140.11 83.8589C2135.57 83.8589 2131.95 82.5207 2129.25 79.8443C2126.56 77.168 2125.21 73.5894 2125.21 69.1186C2125.21 64.6479 2126.69 60.5117 2129.66 57.3691C2132.6 54.2365 2136.32 52.6753 2140.82 52.6753C2145.32 52.6753 2148.61 54.0844 2151.11 56.9027C2153.66 59.7413 2154.93 63.5429 2154.93 68.3178C2154.93 68.8145 2154.9 69.6255 2154.84 70.7407H2132.2V70.7305ZM2147.97 65.1954C2147.24 60.6739 2144.74 58.4132 2140.47 58.4132C2136.43 58.4132 2133.8 60.6739 2132.58 65.1954H2147.97Z" fill="#231815"/>
<path d="M2171.84 60.0051L2169.01 82.9264H2162.14L2164.97 60.0051H2161.08L2161.87 53.6285H2165.75L2167.43 40.0439H2174.3L2172.62 53.6285H2178.97L2178.19 60.0051H2171.84Z" fill="#231815"/>
<path d="M2191.16 60.0051L2188.33 82.9264H2181.46L2184.29 60.0051H2180.41L2181.19 53.6285H2185.07L2186.75 40.0439H2193.63L2191.94 53.6285H2198.29L2197.51 60.0051H2191.16Z" fill="#231815"/>
<path d="M2208.5 70.7305C2208.5 72.8899 2209.25 74.664 2210.74 76.0528C2212.25 77.4417 2214.18 78.1412 2216.53 78.1412C2219.74 78.1412 2222.2 76.9348 2223.93 74.5322L2229.06 77.3606C2227.27 79.7632 2225.44 81.4461 2223.55 82.399C2221.65 83.3723 2219.26 83.8589 2216.4 83.8589C2211.85 83.8589 2208.24 82.5207 2205.54 79.8443C2202.84 77.168 2201.49 73.5894 2201.49 69.1186C2201.49 64.6479 2202.97 60.5117 2205.94 57.3691C2208.88 54.2365 2212.6 52.6753 2217.11 52.6753C2221.61 52.6753 2224.89 54.0844 2227.4 56.9027C2229.95 59.7413 2231.22 63.5429 2231.22 68.3178C2231.22 68.8145 2231.19 69.6255 2231.13 70.7407H2208.49L2208.5 70.7305ZM2224.26 65.1954C2223.53 60.6739 2221.04 58.4132 2216.77 58.4132C2212.73 58.4132 2210.09 60.6739 2208.87 65.1954H2224.26Z" fill="#231815"/>
<path d="M2248.32 53.6283L2248.01 56.1424C2250.33 53.9425 2252.67 52.8477 2255.03 52.8477C2257.1 52.8477 2258.99 53.608 2260.69 55.1185L2256.31 60.7753C2255.04 59.7007 2253.77 59.1533 2252.52 59.1533C2251.64 59.1533 2250.87 59.3256 2250.22 59.6703C2249.56 60.015 2248.98 60.5523 2248.49 61.2924C2248.01 62.0324 2247.6 62.9752 2247.28 64.1411C2246.95 65.3069 2246.7 66.6958 2246.52 68.3077L2244.71 82.9262H2237.84L2241.45 53.6283H2248.32Z" fill="#231815"/>
<path d="M2268.86 79.53C2268.86 80.6248 2268.43 81.5778 2267.58 82.3888C2266.73 83.1998 2265.75 83.6053 2264.63 83.6053C2263.52 83.6053 2262.51 83.1897 2261.71 82.3584C2260.91 81.5271 2260.5 80.5133 2260.5 79.3069C2260.5 78.1006 2260.87 77.1679 2261.61 76.3873C2262.4 75.5965 2263.34 75.2012 2264.44 75.2012C2265.67 75.2012 2266.7 75.627 2267.55 76.4785C2268.42 77.3301 2268.86 78.3439 2268.86 79.53Z" fill="#231815"/>
<path d="M1184.53 69.342C1182.9 56.7003 1178.23 51.2259 1164.58 44.2918C1152.22 38.0165 1153.86 31.0316 1144.68 26.5204C1142.42 25.4154 1139.85 25.0504 1137.38 25.4762C1128.44 27.0171 1130.45 32.9375 1128.13 37.5198C1120.15 53.3346 1128.47 62.8133 1133.15 70.5585C1137.85 78.3037 1137.43 87.0729 1134.99 89.5161C1132.54 91.9592 1134.99 93.5914 1138.25 91.5537C1138.38 91.4726 1141.4 88.9686 1141.47 89.1207C1142.99 92.4864 1146.71 88.482 1150.65 90.2054C1153.79 91.5841 1158.29 92.5776 1164.75 92.4763C1184.11 92.162 1186.15 81.9736 1184.53 69.3319V69.342Z" fill="#6D6D77"/>
<path d="M1127.12 59.2852C1127.12 59.2852 1129.64 74.8364 1127.12 80.5439C1126.11 82.835 1125.31 84.1225 1124.79 84.9741C1124.09 86.1095 1125.14 87.5389 1126.43 87.1841C1128.18 86.6975 1129.58 85.2782 1130.72 84.2138C1136.38 78.9118 1135 69.5344 1135 69.5344L1127.12 59.2852Z" fill="#6D6D77"/>
<path d="M1128.57 16.8084C1128.57 16.8084 1126.04 13.7164 1124.36 14.5375C1122.24 15.5614 1122.54 26.2162 1122.54 26.2162C1122.54 26.2162 1114.54 41.0476 1134.55 41.5444C1144.21 42.2946 1160.07 34.8028 1150.76 21.9482C1149.69 14.8518 1147.06 11.3441 1145.62 10.9691C1143.29 10.3608 1140.87 14.4057 1140.87 14.4057C1140.87 14.4057 1131.74 14.9734 1128.57 16.8084Z" fill="#6D6D77"/>
<path d="M1184.98 75.7085C1181.64 85.0352 1168.11 92.6182 1153.61 88.0866C1139.11 83.5551 1137.04 101.083 1155.52 100.171C1173.99 99.2584 1186.25 90.6717 1184.98 75.7085Z" fill="#6D6D77"/>
<path d="M1127.59 27.1997C1132.09 25.1621 1127.59 18.5016 1131.18 17.5284C1136.67 16.028 1131.57 25.9021 1137.28 26.8449C1140.41 27.3619 1142.16 30.7378 1139.65 33.6169C1133.33 40.8248 1117.56 31.7516 1127.6 27.1997H1127.59Z" fill="white"/>
<path d="M1127.59 25.7197C1127.55 26.3685 1127.15 26.8754 1126.71 26.8449C1126.28 26.8145 1125.96 26.2671 1126 25.6183C1126.05 24.9695 1126.44 24.4626 1126.88 24.493C1127.31 24.5234 1127.63 25.0708 1127.59 25.7197Z" fill="#181616"/>
<path d="M1141.09 24.6044C1141.05 25.2532 1140.65 25.7601 1140.22 25.7297C1139.78 25.6993 1139.47 25.1519 1139.51 24.5031C1139.55 23.8542 1139.94 23.3474 1140.38 23.3778C1140.82 23.4082 1141.13 23.9556 1141.09 24.6044Z" fill="#181616"/>
<path d="M1127.46 30.0689C1127.46 30.0689 1130.41 32.218 1132.43 28.7915C1132.43 28.7915 1134.38 31.8227 1138.13 29.5721" stroke="#060203" stroke-width="0.72" stroke-linecap="round" stroke-linejoin="round"/>
<path d="M1133.9 27.2706C1133.9 27.8282 1133.24 28.8014 1132.43 28.8014C1131.62 28.8014 1130.96 27.818 1130.97 27.2605C1130.97 26.7029 1131.63 26.6826 1132.44 26.6826C1133.25 26.6826 1133.91 26.713 1133.91 27.2706H1133.9Z" fill="#E96E6E"/>
<path d="M1128.53 61.1304C1128.53 61.1304 1133.02 66.8075 1134.71 73.0016" stroke="#141421" stroke-width="0.72" stroke-linecap="round" stroke-linejoin="round"/>
<path d="M1141.47 87.9547C1141.47 87.9547 1146.89 78.8713 1145.08 64.1919" stroke="#141421" stroke-width="0.72" stroke-linecap="round" stroke-linejoin="round"/>
<path d="M1168.2 64.2022C1168.2 64.2022 1146.48 59.3361 1150.31 87.2452" stroke="#141421" stroke-width="0.72" stroke-linecap="round" stroke-linejoin="round"/>
<path d="M1144.18 88.857C1144.18 88.857 1147.24 85.9981 1155.31 88.563C1163.37 91.1379 1175.41 92.101 1182.66 79.9561" stroke="#141421" stroke-width="0.72" stroke-linecap="round" stroke-linejoin="round"/>
<path d="M1126.97 40.0542C1126.97 40.0542 1135.13 42.5582 1140.87 40.0542" stroke="#141421" stroke-width="0.72" stroke-linecap="round" stroke-linejoin="round"/>
</g>
<defs>
<clipPath id="clip0_178_471">
<rect width="2438.37" height="120" fill="white"/>
</clipPath>
</defs>
</svg>
