<svg width="440" height="198" viewBox="0 0 440 198" fill="none" xmlns="http://www.w3.org/2000/svg">
<path d="M18.6298 61.1701C23.9891 58.1489 27.6104 56.3311 29.5282 55.7309C30.0919 55.4867 31.1366 55.0047 32.6776 54.267C34.2185 53.5294 35.6056 52.9539 36.887 52.5201C38.1533 52.1043 39.7543 51.7123 41.6748 51.3621C43.0823 51.052 44.5968 50.6167 46.1989 50.0244C47.8189 49.4475 49.9086 48.9172 52.4705 48.4669C52.9783 48.3605 53.4352 48.2414 53.8081 48.1122L54.5703 47.8525C54.7001 47.809 54.9152 47.7922 55.2487 47.7995C55.5822 47.8068 56.038 47.888 56.6325 48.0418C57.175 48.3832 57.5964 48.6673 57.8626 48.88C58.1288 49.0928 58.4091 49.4881 58.6882 50.0836C58.9674 50.6791 59.0875 51.3704 59.0982 52.1538C59.2034 53.5136 59.0006 54.7641 58.5075 55.9205C58.0703 56.939 57.39 58.0432 56.468 59.2497C55.546 60.4562 54.8528 61.1777 54.3387 61.4181C53.8463 61.7235 53.3743 62.0773 52.9583 62.5102C52.5983 62.8053 51.836 63.065 50.7237 63.3187C49.6114 63.5724 48.9457 63.5744 48.7266 63.3245C48.3508 62.7699 48.8276 62.0487 50.1737 61.1594C51.5033 60.2714 52.7218 59.025 53.8282 57.4037C54.9345 55.7824 55.453 54.5239 55.3824 53.6118C55.3323 52.965 55.1169 52.5481 54.7515 52.343C54.386 52.138 53.6516 52.1119 52.5481 52.2648C49.5241 52.7679 46.023 53.5585 42.0461 54.6533C38.0691 55.748 35.0735 56.8328 33.0745 57.8898C32.1278 58.3475 30.8248 58.9331 29.1629 59.6135C27.4845 60.2951 26.0377 60.9587 24.7907 61.6233C23.5424 62.2714 21.9494 63.1966 20.0282 64.3977C18.7266 65.2168 17.3906 66.0218 16.0203 66.8129C14.6499 67.604 13.6448 68.1663 12.9895 68.5178C12.3342 68.8693 11.5759 69.3957 10.7159 70.1135C9.85594 70.8313 8.95916 71.7189 7.9912 72.7622C7.46215 73.4542 6.99144 73.8246 6.56123 73.8582C6.13103 73.8918 5.67643 73.6103 5.17833 72.9818C4.96951 72.8646 4.81531 72.5931 4.72973 72.1326C4.62888 71.69 4.6005 71.1083 4.64457 70.3874C4.68865 69.6665 4.74043 69.0452 4.79991 68.5233C4.85939 68.0015 4.95567 67.3099 5.12185 66.446C5.28803 65.5822 5.3806 65.0577 5.43138 64.8536C5.63978 64.3201 5.73834 63.2279 5.7131 61.6115C5.68657 59.9785 5.7238 58.5241 5.85788 57.2456C5.99196 55.9672 6.37081 55.2702 7.01098 55.1535C7.33678 55.0613 7.71235 55.1821 8.15296 55.4981C8.59486 55.8306 8.97571 56.2347 9.28025 56.7281C9.73656 57.6769 9.72757 59.4961 9.22148 62.2051C8.78158 64.9089 8.69343 66.3507 8.97357 66.529C10.031 65.9959 13.2387 64.2105 18.6145 61.188L18.6298 61.1701ZM34.8366 73.9859C35.32 73.5644 35.783 73.0945 36.1951 72.6118C37.0345 71.6287 37.7698 71.0207 38.3997 70.7713C39.0296 70.5219 39.5911 70.6782 40.0954 71.1727C40.5846 71.6851 40.9961 72.2703 41.2969 72.9309C41.5977 73.5914 41.8987 74.4689 42.182 75.5479C42.3901 76.516 42.3296 77.455 41.97 78.4007C41.6104 79.3465 41.1411 79.9504 40.5469 80.2304C39.9527 80.5103 39.3454 80.4076 38.7265 79.9387C38.3216 79.6533 38.1584 79.2657 38.2561 78.8076C38.444 78.0087 38.5314 77.418 38.5019 77.0365C38.4723 76.6551 38.3869 76.4115 38.2468 76.3223C38.1068 76.2332 37.8929 76.2666 37.6219 76.4212C37.3344 76.5771 37.0977 76.7458 36.8776 76.9131C36.6588 77.097 36.3789 77.3525 36.0075 77.7152C35.8244 77.9297 35.6857 78.074 35.6068 78.1302C35.5127 78.2043 35.4033 78.2962 35.2786 78.4061C35.1539 78.5159 35.0611 78.6066 35 78.6781C34.4974 78.8508 34.1794 79.2594 34.064 79.9191C33.9486 80.5788 33.911 81.3825 33.9511 82.3304C33.9911 83.2783 33.9929 83.9455 33.9562 84.3321C33.8996 85.3209 33.975 85.8656 34.1838 85.9828C34.3875 86.0336 34.8788 85.9285 35.6703 85.6164C36.4631 85.3209 37.2011 84.963 37.8818 84.5094C38.8182 83.9191 39.6518 83.7205 40.417 83.9277C41.1821 84.1349 41.5032 84.627 41.3649 85.422C41.1759 86.4211 40.484 87.1592 39.2891 87.6362C38.1604 88.1081 36.9643 88.7855 35.7315 89.6325C34.4987 90.4796 33.7977 91.1016 33.63 91.5151C33.3645 92.3867 33.2468 93.447 33.2451 94.7151C33.2434 95.9833 33.4223 97.0037 33.7308 97.7638L35.5675 97.6204C38.006 97.2964 40.5858 96.8614 43.3208 96.2808C46.0406 95.718 48.9882 95.3043 52.1486 95.0575C55.8333 94.7031 59.0418 94.2189 61.7921 93.6204C64.5423 93.0219 67.6821 92.5098 71.2293 92.0993C74.5728 91.638 76.4782 91.5226 76.962 91.7517C77.4293 91.9822 77.6969 92.4284 77.7495 93.1084C77.8022 93.7883 77.6447 94.3345 77.2949 94.7622C76.8829 95.2449 76.3587 95.5695 75.7541 95.7168C75.1496 95.8641 74.0067 95.9367 72.3087 95.9358C69.0108 96.1266 65.8175 96.5928 62.7606 97.3154C59.7037 98.038 56.1871 98.6296 52.2594 99.0698C36.8449 100.791 25.2799 102.995 17.5644 105.683C15.8006 106.338 14.5392 106.387 13.8133 105.826C13.0875 105.265 13.1237 104.228 13.9233 102.731C14.3303 102.182 14.913 101.753 15.674 101.476C16.4349 101.2 18.2192 100.81 21.0447 100.323C25.4113 99.5313 28.0305 98.9597 28.9047 98.6412C29.1234 98.2404 29.1957 97.8843 29.123 97.5897C29.0337 97.2964 28.8539 96.91 28.599 96.4127C28.3276 95.9167 28.1784 95.4945 28.154 95.1794C28.0429 94.6042 27.9332 94.2624 27.8262 94.1706C27.7192 94.0789 27.3819 94.0218 26.7811 94.002C25.2765 93.9193 24.6968 93.0969 25.0229 91.5032C25.1103 90.9124 25.2933 90.481 25.5579 90.2434C25.8378 89.988 26.3875 89.7782 27.2211 89.5797C28.4912 89.2136 29.3488 88.6794 29.776 87.962C30.2032 87.2446 30.3323 86.1167 30.1454 84.563C30.0504 83.3358 29.8717 82.5322 29.6105 82.1688C29.3493 81.8055 28.8706 81.6427 28.1591 81.6982C27.0505 81.7848 26.3349 81.3569 26.011 80.3978C25.5958 79.9797 25.6385 79.2423 26.189 78.1816C26.7242 77.1387 27.4031 76.0179 28.2285 74.8523C29.0538 73.6867 29.5141 72.9667 29.6259 72.691C29.7429 72.4817 29.9209 72.2009 30.1409 71.8166C30.3621 71.449 30.5859 71.1145 30.797 70.8311C31.0081 70.5476 31.1378 70.2873 31.2165 70.0142C31.2952 69.7411 31.2506 69.5944 31.08 69.541C30.9094 69.4876 30.581 69.5466 30.0618 69.7206C29.5592 69.8933 28.7995 70.1862 27.7814 70.5827C26.2048 71.2898 25.0454 71.5805 24.2855 71.4397C23.5255 71.2988 23.2169 70.5387 23.3764 69.1582C23.5454 68.7613 24.1726 68.2618 25.2606 67.693C26.3485 67.1242 27.4161 66.7238 28.4317 66.5111C28.8785 66.4762 29.5288 66.2752 30.3839 65.9248C31.239 65.5744 31.9427 65.2025 32.5458 64.8217C33.1336 64.4588 33.9428 63.9451 34.9594 63.3152C35.976 62.6852 36.6109 62.2853 36.8654 62.1319C38.2639 61.7057 39.141 61.8541 39.5323 62.6077C39.7809 63.239 39.733 63.9101 39.3885 64.621C39.044 65.332 38.234 66.4797 36.9265 68.0834C35.8023 69.4725 34.6285 71.0825 33.4039 72.8966C32.1806 74.7272 31.578 75.7587 31.5985 76.024C31.6434 76.6044 32.6905 75.9387 34.7564 74.0256L34.8366 73.9859ZM30.6853 19.0689C33.5821 18.6424 34.8557 17.8923 34.5062 16.8184L34.4305 15.84L37.6162 15.4911C39.7507 15.3244 41.1329 15.1164 41.7628 14.867C42.8151 14.2676 43.594 14.2235 44.0997 14.7346C44.5888 15.2469 44.7751 15.9331 44.642 16.7944C44.5089 17.6557 44.2089 18.2964 43.7255 18.7179C43.4659 18.8049 42.6794 18.9664 41.3329 19.2051C39.854 19.454 37.683 20.2242 34.8365 21.5143C31.9734 22.8056 30.4326 23.7602 30.2293 24.36C29.6739 25.5713 29.0782 27.5531 28.4397 30.2725C28.342 30.7306 28.8244 30.7262 29.9035 30.2582C32.231 29.3591 33.3788 28.9191 33.3126 28.9242C33.9425 28.6748 34.495 28.7151 34.9865 29.0438C35.4615 29.3737 35.6629 29.8252 35.5755 30.416C35.4373 31.2109 35.0597 31.9244 34.4262 32.5578C33.7928 33.1913 33.1183 33.5109 32.4017 33.5001C31.8836 33.4738 30.7091 33.9993 28.9087 35.0409C27.1758 36.0938 24.9147 37.2047 22.1444 38.4054C19.3742 39.6061 17.5086 40.2356 16.5324 40.3119C15.7547 40.3726 15.3369 39.9214 15.2612 38.9429C15.1354 37.3177 17.2359 35.8523 21.5462 34.548C22.0489 34.3753 22.4446 34.1108 22.6976 33.724C22.9685 33.3525 23.7173 32.0594 24.9798 29.8753C25.3714 29.1273 25.6916 28.3181 25.9074 27.4504C26.1398 26.5813 26.1993 26.0595 26.1342 25.8643C25.9865 25.6757 25.4761 25.7489 24.5866 26.0853C23.6971 26.4217 22.7745 26.7607 21.7883 27.138C20.8021 27.5154 20.2141 27.6614 20.0282 27.6258C19.2608 27.8192 16.8455 28.6585 12.8153 30.1412C11.0516 30.7961 9.9889 31.0459 9.65912 30.8715C9.12564 30.6462 8.7485 30.075 8.54424 29.1566C8.33869 28.2217 8.45024 27.5122 8.86233 27.0296C9.28469 26.6796 10.1462 26.4121 11.4317 26.245C12.7172 26.0779 13.6475 25.8384 14.2074 25.5444C21.8863 23.243 26.0628 21.7156 26.7191 20.9469C26.9022 20.7324 26.981 20.4593 27.0024 20.0906C27.0085 19.7397 26.9061 18.8468 26.6468 17.4322C26.0706 14.2905 25.7728 12.3784 25.7227 11.7316C25.6727 11.0849 25.834 10.5884 26.1889 10.227C26.9011 9.32052 27.7041 9.1577 28.5815 9.73987C29.1291 10.1476 29.697 12.3222 30.2507 16.2498L30.6675 19.0536L30.6853 19.0689ZM22.89 39.8654C23.7952 40.1618 24.3163 40.8719 24.4736 42.0442C24.5693 42.4204 24.6586 42.7138 24.7402 42.9076C24.8218 43.1015 24.9275 43.1766 25.0573 43.1331C25.1871 43.0896 25.2978 43.0142 25.4225 42.9044C25.5471 42.7946 25.7507 42.6285 26.0178 42.4241C26.285 42.2197 26.5535 42.0319 26.8079 41.8786C27.051 41.7929 27.5116 41.5066 28.154 40.9893C28.7978 40.4886 29.3792 40.0427 29.9008 39.685C30.4224 39.3273 31.0739 38.926 31.8564 38.4979C32.6402 38.0863 33.2727 37.8701 33.7551 37.8658C34.2375 37.8615 34.748 38.0051 35.3019 38.2789C35.7782 38.6254 35.9644 39.3116 35.8442 40.3387C35.724 41.3658 35.3529 42.3792 34.7172 43.4132L34.2061 44.3374C35.0949 44.8519 35.6451 45.2928 35.8744 45.6753C36.0061 46.5159 35.9085 47.1909 35.5983 47.699C35.288 48.207 34.6215 48.843 33.596 49.5738C32.5871 50.3032 31.9269 50.8053 31.6165 51.0965C28.4437 53.7634 26.2285 55.0376 24.9887 54.9342C24.603 54.8976 24.2592 54.7576 23.9752 54.5295C23.6899 54.2848 23.4174 53.9891 23.1218 53.6118C22.8275 53.251 22.5893 52.9693 22.3754 52.7858C21.8888 52.3066 21.5994 51.5784 21.5237 50.5999C21.4108 47.4221 21.1601 45.4729 20.7739 44.7857C20.0844 43.4047 20.0836 42.1034 20.7714 40.8818C21.2799 39.9244 21.9874 39.6022 22.8913 39.882L22.89 39.8654ZM28.4567 44.4693C28.0254 44.7032 27.439 45.2996 26.6988 46.275C25.9586 47.2505 25.5785 47.9308 25.5418 48.3174C25.4544 48.9082 25.5437 49.2015 25.8084 49.1809C26.007 49.1654 26.6811 48.412 27.8308 46.9207C28.9805 45.4295 29.5476 44.5844 29.5322 44.3854C29.5117 44.12 29.1642 44.1471 28.4733 44.468L28.4567 44.4693Z" fill="white"/>
<path d="M90.6098 58.4842C90.3046 58.8417 89.8212 59.2631 89.1445 59.7662C87.2427 61.2158 85.8123 61.6609 84.8521 61.085C84.5006 60.8455 84.2774 60.329 84.1482 59.5215C84.0189 58.7141 84.096 57.9907 84.3628 57.3526C84.6461 56.7132 85.1118 56.4934 85.7777 56.7085C86.4333 56.7909 87.0251 56.6947 87.5531 56.42C88.0811 56.1453 88.6651 55.7327 89.3036 55.1658C89.9421 54.5988 90.4128 54.2285 90.7334 54.07C91.0985 53.8414 91.8159 53.2182 92.8843 52.184C93.9361 51.1511 94.623 50.5637 94.9436 50.4052C96.7895 49.0935 97.9514 48.8361 98.3976 49.6523C99.0578 50.6519 98.9159 51.3971 97.9922 51.9362C97.5557 52.1037 96.5751 52.9809 95.0667 54.5666C93.5584 56.1523 92.5638 57.064 92.065 57.2864C91.3831 57.7232 90.8984 58.128 90.5919 58.4689L90.6098 58.4842ZM100.662 63.6071C101.025 63.3453 101.566 63.4533 102.251 63.9171C102.677 64.4679 102.729 65.7818 102.357 67.8629C102.003 69.9426 101.582 71.5938 101.076 72.8011C100.695 73.6817 100.256 74.6835 99.7966 75.8371C99.3355 76.9742 99.0713 77.6454 99.0167 77.7999C98.9634 77.9709 98.6532 78.4788 98.071 79.3417C97.4887 80.2046 96.9471 80.9475 96.4461 81.5705C95.9451 82.1935 95.008 83.4177 93.6487 85.2087C92.8146 86.258 92.1786 86.8581 91.7422 87.0256C91.0461 87.28 90.3993 87.0969 89.8031 86.4926C89.2069 85.8884 88.9339 85.1589 89.0006 84.3028C89.0321 83.8499 89.1248 83.5424 89.2799 83.3968C89.4351 83.2513 89.7888 83.0902 90.3589 82.929C90.8513 82.6237 91.4019 81.9969 92.0109 81.0485C92.6185 80.0835 93.1309 79.3929 93.5646 78.9754C94.5056 77.801 95.7499 75.6018 97.2976 72.378C98.8301 69.1721 99.7751 66.7627 100.101 65.1691C100.107 64.3845 100.3 63.8689 100.662 63.6071ZM88.9441 26.9312C89.2191 27.0433 89.9132 27.4063 91.0275 28.0369C92.1418 28.6675 92.8689 29.0279 93.2101 29.1348C95.344 29.8194 96.6313 30.3197 97.0886 30.6345C97.5305 30.9671 97.7894 31.5142 97.8499 32.2936C97.9765 33.0679 97.7134 33.5388 97.0784 33.7218C96.4434 33.9047 95.551 33.7741 94.419 33.3451C92.798 32.6205 90.7101 32.0991 88.1551 31.781C87.1086 31.5956 86.458 31.3626 86.2502 31.0451C86.0272 30.7455 86.1593 30.3014 86.6323 29.7474C87.4928 28.1788 88.2519 27.2354 88.9441 26.9312ZM110.804 44.7816C111.333 44.0897 111.831 44.0676 112.314 44.714C112.78 45.3617 113.276 46.3908 113.766 47.7708C113.949 48.4073 114.071 49.9827 114.132 52.4806C114.192 54.9784 114.141 56.4673 113.995 56.9458C113.781 57.6132 113.296 58.018 112.522 58.1283C111.75 58.2553 111.249 58.0273 111.006 57.4623C110.429 54.3206 110.367 50.0878 110.803 44.765L110.804 44.7816ZM117.131 35.7799C117.619 35.4248 118.02 35.0099 118.302 34.5708C118.601 34.1304 119.048 33.6784 119.664 33.2467C120.28 32.815 120.777 32.576 121.175 32.5451C121.688 32.5051 122.112 32.8225 122.413 33.4831C122.73 34.1424 122.746 34.7751 122.46 35.3813C122.169 35.9212 121.919 36.3411 121.673 36.6105C121.429 36.8965 121.102 37.1889 120.678 37.5222C120.255 37.8555 119.972 38.0777 119.85 38.2207C119.077 39.1986 117.979 39.8514 116.541 40.197C115.103 40.5426 113.896 40.2195 112.906 39.2623C112.348 38.7218 112.07 38.1428 112.089 37.5241C112.108 36.9053 112.397 35.6982 112.972 33.8849C113.618 32.1328 113.863 31.2128 113.737 31.0891C113.6 31.0331 113.061 31.1752 112.106 31.5166C110.86 32.1976 109.909 32.1715 109.27 31.4372C108.63 30.7029 108.628 29.8188 109.265 28.8015C111.55 24.7862 112.754 21.8561 112.878 20.0112C112.92 18.8401 113.033 18.1473 113.199 17.9341C113.366 17.7209 113.914 17.4946 114.809 17.2247C115.145 17.2653 115.336 17.3672 115.415 17.5279C115.494 17.6885 115.566 18.1835 115.631 19.0292C115.814 19.6657 115.821 20.3992 115.652 21.2299C115.484 22.0605 115.194 23.0507 114.77 24.235C114.345 25.4026 114.07 26.1581 113.964 26.5001C114.101 26.5561 114.54 26.4218 115.297 26.0959C117.504 25.1398 118.858 25.4347 119.359 26.9473C119.623 27.7776 119.204 28.8113 118.137 30.079C117.725 30.5616 117.169 31.5558 116.469 33.0452C115.769 34.5346 115.443 35.4776 115.472 35.859C115.517 36.4395 116.066 36.4301 117.135 35.8296L117.131 35.7799ZM115.994 49.4491C115.784 48.0307 115.633 46.7244 115.54 45.5304C115.447 44.3364 115.569 43.7597 115.887 43.7849C116.498 43.2869 116.955 43.1679 117.275 43.4266C117.594 43.6853 117.995 44.555 118.508 46.0166C119.393 49.9184 119.773 52.2412 119.63 52.9698C119.384 54.0901 118.541 54.3893 117.068 53.8534C116.597 53.5732 116.314 52.9279 116.239 51.966C116.285 51.6955 116.204 50.8676 115.994 49.4491ZM121.701 42.5478C122.4 42.7603 123.025 43.0953 123.578 43.5694C124.564 44.477 125.057 46.3239 125.074 49.1254C125.134 50.7557 125.086 51.844 124.946 52.4054C124.79 52.9682 124.47 53.3435 123.967 53.5161C123.417 53.9427 122.871 53.7683 122.309 52.9613C121.764 52.1529 121.623 51.4131 121.887 50.7418C122.178 50.2019 122.135 49.2209 121.81 47.8115C121.467 46.4033 121.162 45.4761 120.863 45.049C120.569 44.6882 120.382 44.2188 120.274 43.6767C120.165 43.1346 120.204 42.7812 120.392 42.6331C120.57 42.3523 121.001 42.3188 121.7 42.5312L121.701 42.5478ZM132.982 16.9433C132.211 17.5206 131.206 18.0827 129.947 18.5979C128.689 19.113 127.874 19.5602 127.518 19.9049C126.543 20.6316 125.507 21.0127 124.443 21.0288C123.379 21.045 122.486 20.6974 121.78 19.9683C121.476 19.4748 121.475 19.0411 121.782 18.7002C122.088 18.3593 122.818 17.902 124.025 17.3576C124.284 17.2706 126.748 15.9775 131.43 13.4605C132.054 13.1449 132.621 13.1508 133.146 13.477C133.654 13.8044 133.938 14.2494 133.983 14.8299C134.115 15.6705 133.787 16.3801 133.033 16.956L132.982 16.9433ZM133.979 4.05235C133.958 4.63794 133.662 5.11148 133.055 5.44239C132.466 5.7886 131.248 6.1838 129.387 6.66244C127.477 7.14495 126.146 7.36546 125.396 7.35714C124.646 7.34881 123.963 7.11846 123.342 6.6329C121.885 5.44509 122.292 4.46243 124.58 3.70023C125.342 3.44063 126.387 3.1757 127.728 2.87099C131.952 1.95795 134.03 2.34664 133.963 4.05364L133.979 4.05235ZM132.441 23.9259C132.12 24.2847 131.616 24.6576 130.966 25.0753C130.316 25.493 129.812 25.8659 129.441 26.2285C128.509 26.885 127.698 27.3654 126.97 27.639C126.243 27.9292 125.649 27.9922 125.187 27.828C124.724 27.6638 124.466 27.3336 124.426 26.8195C124.386 26.3054 124.686 25.8816 125.312 25.5825C125.677 25.3539 126.424 24.6784 127.552 23.5561C128.664 22.4351 129.445 21.7736 129.882 21.6227C130.639 21.2968 131.366 21.2235 132.063 21.4028C132.759 21.5821 133.135 21.9199 133.175 22.434C133.026 23.0962 132.799 23.5978 132.461 23.9578L132.441 23.9259ZM127.417 44.555C127.688 43.5495 127.854 42.4688 127.896 41.2977C128.209 37.8197 128.696 35.7296 129.357 35.0274C129.841 34.6061 130.608 34.4128 131.661 34.4642L131.697 36.2133C131.707 37.1969 131.815 37.739 131.974 37.86C132.15 37.9798 132.565 37.7473 133.237 37.1778C134.584 36.0884 135.834 36.1078 137.003 37.2347C138.155 38.3462 138.456 39.8743 137.89 41.8037C137.586 42.8117 137.402 43.4434 137.355 43.6973C137.262 44.2217 136.652 45.1535 135.523 46.4761C134.393 47.7987 133.541 48.6159 132.983 48.9263C132.424 49.2368 131.486 49.3766 130.185 49.3445C128.168 49.3015 127.116 48.8329 127.045 47.9208C127.016 46.6884 127.145 45.5605 127.418 44.5716L127.417 44.555ZM130.222 30.5055C129.877 30.5657 129.584 30.6553 129.36 30.7728C129.136 30.8904 128.916 31.0577 128.666 31.2607C127.333 32.5324 126.614 32.4884 126.508 31.1285C126.498 30.9959 126.521 30.8606 126.578 30.7394C126.634 30.6015 126.756 30.4586 126.929 30.3283C127.117 30.1801 127.29 30.0499 127.481 29.9349C127.672 29.8199 127.878 29.6871 128.132 29.5338L128.784 29.1327C128.974 29.0177 129.15 28.9206 129.343 28.8388C129.537 28.757 129.667 28.7135 129.716 28.7096C130.139 28.3597 130.515 28.2803 130.813 28.474C131.129 28.683 131.268 28.9725 131.266 29.3731C131.262 29.7571 131.17 30.0646 130.987 30.2791C130.793 30.3609 130.532 30.4312 130.171 30.4928L130.222 30.5055ZM149.24 66.8629C149.595 66.9353 150.092 67.1135 150.695 67.3835C151.309 67.7861 151.971 68.3852 152.682 69.1807C153.393 69.9762 153.774 70.5971 153.809 71.0449C153.901 71.3714 154.05 71.7936 154.258 72.3279C154.466 72.8623 154.596 73.2526 154.646 73.4656C154.697 73.6952 154.755 74.0077 154.821 74.4363C154.887 74.8483 154.887 75.2821 154.869 75.7005C154.835 76.1203 154.763 76.6931 154.651 77.386C154.538 78.0788 154.387 78.9247 154.214 79.9059C154.07 80.6345 153.921 81.2801 153.732 81.8454C153.542 82.4108 153.426 82.837 153.395 83.0896C153.201 84.0223 152.24 85.582 150.496 87.7701C148.751 89.9581 147.314 91.3882 146.201 92.0588C145.215 92.6529 143.716 93.07 141.719 93.2923C140.438 93.5255 139.347 93.6272 138.479 93.5947C137.611 93.5623 136.845 93.3383 136.227 92.886C135.609 92.4336 135.149 92.0857 134.879 91.8231C134.591 91.5452 134.177 90.9268 133.62 89.9692C133.063 89.0115 132.66 88.3255 132.432 87.9596C131.544 86.5939 131.504 85.6461 132.313 85.1326C132.99 84.6294 133.667 84.9937 134.346 86.2421C134.777 86.8592 135.122 87.2327 135.367 87.3805C135.612 87.5283 135.916 87.588 136.313 87.5571C137.736 87.4462 138.673 87.7236 139.109 88.407C139.333 88.7232 139.815 88.9193 140.572 89.0271C141.329 89.1349 142.028 89.1305 142.668 89.0139C143.684 88.8013 145.022 87.8128 146.684 86.065C148.329 84.3018 149.285 82.8926 149.52 81.8399C151.093 77.88 151.484 74.9799 150.692 73.1397C150.271 72.0046 149.816 71.2893 149.311 70.995C148.806 70.7173 147.663 70.5728 145.916 70.5755C144.802 70.5955 144.053 70.6038 143.621 70.6041C143.204 70.6032 142.731 70.5066 142.234 70.3284C141.736 70.1336 141.415 69.8583 141.285 69.468C141.155 69.0778 141.06 68.5012 141.001 67.7384C141.022 67.1528 141.315 65.9954 141.896 64.2485C142.476 62.5015 143.016 61.0914 143.515 60.018C143.901 59.2038 143.968 58.7815 143.715 58.7345C143.511 58.6836 143.037 58.7873 142.271 58.9972C141.506 59.2236 141.019 59.1781 140.795 58.8619C139.983 58.4747 139.688 57.897 139.928 57.1276C140.168 56.3581 140.852 55.7375 141.98 55.2493C144.186 54.2932 145.613 53.7983 146.258 53.7481C147.214 53.4067 147.922 53.7352 148.429 54.6967C148.921 55.6761 148.866 56.4646 148.267 57.1119C147.667 57.7426 146.83 59.4094 145.774 62.0944C144.717 64.7794 144.306 66.3464 144.522 66.78C144.604 66.9738 145.456 67.0076 147.061 66.8825C148.153 66.7974 148.885 66.7905 149.256 66.8616L149.24 66.8629ZM133.771 43.4259C134.601 41.8931 134.889 40.8863 134.65 40.3711C134.324 39.6123 133.543 40.4906 132.322 42.9883C131.437 44.8758 131.243 45.8085 131.756 45.7686C132.269 45.7286 132.94 44.9422 133.77 43.4093L133.771 43.4259ZM146.695 15.8248C147.848 13.0989 148.845 10.9191 149.7 9.28418C149.944 8.99822 150.198 8.19429 150.491 6.82007C150.768 5.46372 150.974 4.68025 151.091 4.47093C151.269 4.19012 151.61 4.08013 152.131 4.13967C152.651 4.1992 153.035 4.4196 153.246 4.78684C153.378 5.62745 153.492 6.23589 153.588 6.61216C153.683 6.98843 153.66 7.54084 153.464 8.24011C153.285 8.93809 153.141 9.4332 152.998 9.7446C152.856 10.056 152.645 10.5563 152.334 11.2646C152.039 11.9716 151.799 12.5242 151.631 12.9376C150.867 14.8825 150.341 16.0413 150.051 16.3809C149.76 16.9208 149.676 17.3444 149.764 17.6211C149.853 17.9145 150.075 17.9806 150.416 17.8707C150.756 17.7441 151.084 17.4683 151.385 17.061C152.331 15.9529 153.312 15.2926 154.314 15.1144C155.315 14.9363 156.198 15.368 156.996 16.4237C157.22 16.7399 157.138 17.1801 156.75 17.7609C156.379 18.3404 155.876 18.9468 155.277 19.5941C154.677 20.2248 154.297 20.6882 154.118 20.9524C154.081 21.339 153.847 21.7576 153.43 22.1739C152.896 22.7994 152.761 23.2103 153.04 23.3721C153.112 23.4333 153.241 23.3898 153.413 23.2429C153.734 23.0845 154.314 22.6222 155.152 21.8395C156.429 20.7056 157.439 20.4267 158.218 21.0167C159.112 21.5977 159.042 22.4206 158.025 23.4676C157.08 24.5923 156.36 25.3991 155.869 25.9379C155.394 26.4588 154.58 27.1228 153.444 27.9287C152.308 28.7347 151.305 29.1131 150.451 29.0462C149.332 28.9999 148.661 28.5016 148.386 27.5387C148.112 26.5757 148.358 25.4554 149.106 24.1624C149.615 23.2052 149.837 22.6373 149.755 22.4435C149.674 22.2496 149.191 22.2538 148.292 22.4574C147.468 22.7885 146.749 22.7444 146.134 22.3252C145.52 21.9226 145.113 21.4037 144.946 20.7494C144.967 20.1638 145.554 18.4997 146.708 15.7738L146.695 15.8248ZM149.09 31.0375C149.417 30.745 149.913 30.9067 150.542 31.5083C151.502 32.0842 152.096 33.5227 152.342 35.8227C152.587 38.1227 152.433 40.0032 151.898 41.4797C151.842 41.6176 151.751 42.3754 151.642 43.752C151.515 45.1299 151.306 45.8637 150.98 45.9558C150.248 46.5968 149.58 46.7823 148.975 46.4958C148.371 46.2258 147.996 45.6878 147.87 44.9135C147.743 44.1392 147.812 43.3163 148.062 42.4626C148.267 41.6626 148.447 40.1302 148.639 37.8797C148.813 35.6138 148.864 33.9081 148.772 32.7306C148.64 31.89 148.747 31.3312 149.074 31.0387L149.09 31.0375ZM157.125 34.6158C157.445 35.3082 157.59 36.3147 157.558 37.6185C157.552 39.2541 157.489 40.3768 157.388 41.002C157.27 41.6284 156.974 42.102 156.463 42.392C155.66 42.9718 154.994 42.9737 154.466 42.3975C153.939 41.8212 153.761 41.0342 153.934 40.0365C154.036 39.6447 154.08 38.707 154.066 37.2399C154.052 35.7728 154.083 34.4524 154.142 33.2799C154.217 32.1062 154.357 31.5448 154.543 31.5803C154.96 31.1641 155.387 31.0974 155.792 31.3828C156.199 31.6849 156.44 32.2167 156.5 32.9961C156.596 33.3724 156.805 33.9233 157.109 34.6171L157.125 34.6158ZM161.568 28.3636C161.979 28.2982 162.333 28.354 162.613 28.5324C163.08 28.7629 163.415 29.8547 163.601 31.8256C163.787 33.7964 163.785 36.1323 163.61 38.8154C163.579 39.2683 163.134 40.1872 162.258 41.5568C161.382 42.9264 160.731 43.7612 160.305 44.0614C159.222 44.4794 158.573 44.48 158.308 44.0668C158.044 43.6703 158.34 42.9799 159.18 41.9969C159.877 40.9081 160.24 38.0769 160.268 33.5033C160.261 30.8345 160.386 29.2231 160.677 28.6832C160.865 28.5351 161.157 28.429 161.584 28.3623L161.568 28.3636Z" fill="white"/>
<path d="M200.037 37.362C200.363 37.2699 200.677 37.2454 201.013 37.286C201.349 37.3265 201.613 37.5062 201.836 37.8058C202.378 38.1473 202.785 38.6662 203.02 39.3319C203.254 39.9977 203.557 41.3255 203.911 43.3166C204.503 46.6573 204.982 48.3218 205.363 48.2921C205.627 48.2715 206.015 47.0401 206.54 44.58C207.649 42.1412 209.053 40.9306 210.751 40.9318C211.386 40.7489 212.42 41.2022 213.838 42.3097C215.254 43.4005 216.054 44.2725 216.237 44.909C216.399 45.2801 216.674 45.8259 217.094 46.5106C217.496 47.1966 217.829 47.8381 218.075 48.4362C218.321 49.0343 218.522 49.6861 218.709 50.3888C219.075 51.6617 219.377 52.3389 219.649 52.4178C219.922 52.4967 220.369 52.0447 221.011 51.0937C222.157 49.1192 223.024 48.5011 223.596 49.2239C223.957 49.5796 224.008 50.2429 223.747 51.1642C223.63 51.3735 223.212 52.207 222.476 53.6657C221.74 55.1245 221.289 55.9605 221.106 56.175C220.281 57.3404 219.96 59.0004 220.126 61.1397C220.211 62.2342 220.142 63.7078 219.936 65.559C219.729 67.3937 219.481 68.6977 219.205 69.4366C218.88 70.1794 218.353 70.6876 217.66 70.9752C216.966 71.2628 216.345 71.1944 215.796 70.77C215.42 70.2154 215.27 69.7766 215.314 69.4895C215.357 69.1859 215.541 68.7711 215.849 68.2299C216.156 67.6888 216.341 67.274 216.388 67.0201C216.48 66.4957 216.529 65.8412 216.535 65.0566C216.541 64.272 216.475 63.86 216.338 63.804C216.266 63.7428 215.48 64.5548 213.996 66.2387C211.901 68.621 210.529 69.829 209.884 69.8792C209.818 69.8844 209.52 69.6907 209.008 69.3135C208.496 68.9363 208.167 68.7784 208.04 68.855C207.847 68.9368 207.757 69.4944 207.788 70.5431C207.981 72.1631 207.349 73.2467 205.896 73.8271C205.317 73.8722 204.912 73.5868 204.711 72.935C204.495 72.3012 204.272 70.5 204.041 67.5149C203.518 61.6329 203.135 57.7753 202.896 55.9754C202.656 54.1755 202.164 51.6946 201.389 48.5684C200.813 46.0773 200.351 44.4116 200.02 43.5864C199.69 42.7613 199.31 42.3738 198.864 42.4086C198.533 42.4344 197.878 43.0026 196.9 44.1299C195.922 45.2572 195.136 46.286 194.561 47.2484C193.549 49.2126 192.847 50.4685 192.454 50.983C192.078 51.4961 191.65 51.7797 191.203 51.8145C190.36 51.8803 189.903 51.3652 189.817 50.2541C189.783 49.8064 190.048 48.9348 190.598 47.6573C191.148 46.3799 191.748 45.3154 192.399 44.4805C192.755 44.1358 193.407 42.6669 194.354 40.0738C195.286 37.4986 196.206 34.9744 197.082 32.537C197.957 30.083 198.594 28.8489 198.991 28.8179C199.118 28.7413 199.319 28.5421 199.628 28.2344C199.936 27.9101 200.152 27.6931 200.307 27.5475C200.463 27.4019 200.735 27.2639 201.157 27.1309C201.563 26.9992 201.953 27.0856 202.293 27.3928C202.639 27.566 202.765 28.1068 202.719 29.028C202.77 29.6747 202.464 30.6662 201.833 31.9833C201.187 33.3017 200.549 34.5193 199.921 35.6526C199.292 36.7694 199.025 37.4075 199.084 37.5197C199.42 37.5603 199.734 37.5358 200.06 37.4437L200.037 37.362ZM216.073 56.1C216.048 55.3511 215.8 54.9367 215.343 54.8388C214.774 55.0166 213.906 55.6348 212.758 56.7086C211.609 57.7825 210.971 58.3494 210.843 58.4261C208.306 60.9095 207.12 62.787 207.286 64.0754C207.432 65.9494 207.704 66.8792 208.084 66.8495C208.465 66.8199 209.828 65.5124 212.173 62.9105C214.503 60.3265 215.744 58.7283 215.896 58.1158C216.049 57.5033 216.098 56.8488 216.09 56.0987L216.073 56.1ZM209.343 46.5973C209.042 47.0045 208.822 47.3887 208.648 47.7192C208.475 48.0664 208.32 48.4288 208.151 48.8257C207.982 49.2226 207.857 49.5493 207.793 49.7879C207.711 50.0278 207.621 50.3685 207.525 50.8432C207.427 51.3012 207.354 51.6406 207.303 51.8448C207.252 52.049 207.198 52.4203 207.141 52.9753C207.084 53.5302 207.046 53.9002 207.025 54.0521C207.005 54.2205 206.971 54.6402 206.924 55.3279C206.878 56.0156 206.828 56.4532 206.778 56.6574C207.296 56.6837 208.215 56.0949 209.519 54.8755C210.824 53.6726 211.767 52.9485 212.33 52.7044C213.693 51.8141 214.496 51.2177 214.721 50.8998C214.962 50.5807 214.924 50.0832 214.604 49.3907C213.879 47.5619 213.169 46.3492 212.472 45.7362C210.978 44.9349 209.935 45.2164 209.324 46.5654L209.343 46.5973ZM244.58 43.5515C245.403 44.0713 245.939 44.3299 246.204 44.3092C246.26 44.1714 247.043 44.394 248.552 44.9605C250.061 45.527 251.708 46.1661 253.478 46.8791C255.248 47.5921 256.344 47.9905 256.735 48.0935C257.595 48.2267 258.126 48.6358 258.346 49.336C258.567 50.0362 258.374 50.7687 257.784 51.5321C256.854 52.8392 255.643 52.9001 254.186 51.7123C253.348 50.9935 251.67 50.1732 249.165 49.2172C246.662 48.2777 245.185 47.909 244.737 48.1441C244.671 48.1492 244.624 48.1863 244.596 48.2552C244.568 48.3241 244.544 48.4427 244.524 48.6112C244.503 48.7796 244.468 48.9659 244.416 49.1534C244.365 49.3576 244.322 49.6613 244.289 50.0976C244.255 50.5173 244.206 50.955 244.139 51.3773C244.072 51.7996 243.969 52.4082 243.844 53.1521C243.703 53.9138 243.613 54.6883 243.541 55.478C242.428 62.1549 241.02 66.102 239.285 67.3383C238.679 67.9027 238.016 68.1545 237.294 68.0773C235.547 68.08 233.929 66.9714 232.457 64.7337C231.222 63.1948 230.851 62.0559 231.309 61.3028C231.655 60.8254 232.239 61.0635 233.032 62.0529C234.148 63.7844 235.241 64.5668 236.342 64.381C237.426 64.1964 238.194 63.1522 238.627 61.2165C239.666 57.8821 240.35 54.0416 240.664 49.7127C240.818 48.2659 240.785 47.4175 240.567 47.1843C240.623 47.0464 239.957 46.8314 238.567 46.5059C237.178 46.197 235.4 45.8017 233.267 45.3506C231.118 44.9007 229.883 44.6466 229.547 44.606C229.206 44.4991 228.95 44.2021 228.743 43.6843C228.538 43.1831 228.518 42.7175 228.687 42.3206C229.282 41.6235 230.153 41.2554 231.283 41.2341C232.413 41.2127 233.438 41.3331 234.34 41.5799C235.242 41.8432 236.281 42.146 237.491 42.5022C238.684 42.8597 239.614 43.0542 240.265 43.0702C240.646 43.0406 240.891 42.9881 240.985 42.914C241.079 42.8399 241.144 42.6013 241.181 42.2147C241.401 40.7627 241.441 38.2737 241.332 34.7285C241.224 31.1833 240.993 28.8489 240.637 27.6921C240.403 27.2598 240.09 27.084 239.665 27.1838C239.256 27.2824 238.426 27.7308 237.19 28.5445C236.997 28.6263 236.566 28.8601 235.879 29.2306C235.193 29.6178 234.778 29.8503 234.62 29.9627C234.462 30.0751 234.111 30.2693 233.549 30.53C232.988 30.8073 232.618 30.9696 232.47 30.9978C232.307 31.0438 231.998 31.1347 231.509 31.2728C231.02 31.411 230.691 31.4534 230.487 31.4025C230.283 31.3517 229.998 31.3238 229.599 31.3216C229.215 31.3181 228.892 31.2265 228.645 31.0455C228.398 30.8646 228.116 30.6696 227.765 30.4301C227.413 30.1905 227.074 29.8999 226.713 29.5277C225.869 28.7425 225.272 27.2708 224.907 25.1304C224.539 22.9734 224.645 21.3301 225.204 20.1687C225.545 19.625 226.087 19.3158 226.798 19.2604C227.51 19.205 228.146 19.4724 228.707 20.046C229.268 20.6196 229.316 21.2498 228.854 21.9365C228.629 22.4712 228.601 23.1908 228.722 24.099C228.859 25.006 229.157 25.8503 229.604 26.6664C230.05 27.4825 230.438 27.7692 230.738 27.5623C231.892 27.4057 233.546 26.6262 235.684 25.225C237.823 23.8237 239.529 23.0735 240.82 22.9729C241.669 22.9735 242.267 23.1771 242.614 23.5672C242.977 23.956 243.366 24.8934 243.813 26.3601C244.138 27.1189 244.365 28.1189 244.53 29.3907C244.694 30.6459 244.781 31.757 244.787 32.6909C244.794 33.6413 244.78 34.9604 244.744 36.6483C244.71 38.3527 244.709 39.4205 244.744 39.8683L244.543 43.5043L244.58 43.5515Z" fill="white"/>
<path d="M285.001 49.5951C284.556 50.0802 284 50.6407 283.331 51.2434C282.662 51.8461 282.09 52.4079 281.611 52.8956C280.538 54.0804 279.84 54.7354 279.513 54.8109C279.192 54.9694 278.752 54.8702 278.172 54.4816C277.594 54.1096 277.25 53.7526 277.159 53.4427C277.058 53.0001 277.88 51.7849 279.609 49.8316C279.792 49.6171 280.049 49.2801 280.41 48.7849C282.185 46.5611 283.369 44.8672 283.963 43.7198C284.556 42.5724 284.807 41.0847 284.731 39.2553C284.335 39.086 283.747 39.015 282.998 39.0067C282.248 38.9984 281.729 39.1723 281.422 39.5132C280.996 39.8133 280.295 40.2183 279.32 40.7447C278.346 41.2711 277.679 41.6901 277.318 41.9685C276.997 42.1269 276.801 42.3925 276.696 42.751C276.592 43.1262 276.538 44.1481 276.554 45.8487C276.388 50.3662 275.584 52.6645 274.161 52.7754C273.251 52.8463 272.675 52.5074 272.416 51.7434C272.157 50.9795 272.217 49.6067 272.58 47.6265C272.826 46.5061 272.933 45.5301 272.936 44.7124C272.939 43.8946 272.803 42.1367 272.526 39.4222C272.355 37.2165 272.203 35.6934 272.073 34.8694C271.941 34.0288 271.744 33.2099 271.5 32.4281C271.239 31.6309 271.017 30.6973 270.798 29.5965C270.631 28.3081 270.538 27.5313 270.517 27.2659C270.497 27.0006 270.633 26.6063 270.907 26.0677C271.198 25.5278 271.38 25.0799 271.488 24.7545C271.458 24.373 271.719 24.0858 272.255 23.9106C272.79 23.7354 273.212 23.8026 273.486 24.115C273.7 24.2985 273.924 25.2653 274.146 27.0499C274.383 28.8166 274.579 29.8358 274.732 30.0908C274.96 30.4568 275.116 30.5447 275.235 30.3519C275.291 30.2141 275.388 29.756 275.51 28.9624C275.8 27.7719 276.214 26.8888 276.721 26.3321C277.227 25.7755 278.153 25.2695 279.485 24.8487C280.818 24.4279 281.817 24.2166 282.467 24.2327C283.123 24.3151 283.886 24.7061 284.757 25.4224C285.628 26.1386 286.325 26.9686 286.846 27.8956L287.759 29.5763L288.236 34.4276C288.418 35.0641 288.494 35.8256 288.463 36.7123C288.432 37.599 288.432 38.2496 288.464 38.6642C288.497 39.0788 288.442 39.6669 288.299 40.3955C288.156 41.1241 288.08 41.6472 288.073 41.9814C288.065 42.3157 287.954 42.8082 287.756 43.4743C287.541 44.1417 287.394 44.6037 287.282 44.8793C287.17 45.155 286.991 45.6361 286.763 46.3379C286.534 47.0398 286.357 47.554 286.251 47.896C285.854 48.5776 285.417 49.1622 284.973 49.664L285.001 49.5951ZM278.563 37.6338C279.497 37.0104 280.46 36.3348 281.485 35.6042C282.494 34.875 283.129 34.4751 283.388 34.3882C284.232 34.3224 284.677 33.8373 284.739 32.9149C284.801 31.9924 284.597 31.0907 284.094 30.1789C283.607 29.2659 283.119 28.77 282.662 28.6721C281.641 28.1678 280.781 28.2514 280.051 28.9256C279.321 29.5998 278.608 30.7064 277.911 32.2289C277.213 33.7515 276.814 34.6168 276.696 34.8095C276.238 35.5626 276.033 36.346 276.096 37.1586C276.159 37.9712 276.454 38.3486 276.967 38.3087C277.115 38.4973 277.647 38.2724 278.581 37.6491L278.563 37.6338ZM305.785 46.274C306.237 45.8883 306.786 45.6621 307.448 45.6105C308.225 45.5499 308.952 45.2597 309.629 44.7565C310.305 44.2533 312.347 42.4593 315.755 39.3909C316.715 38.4652 317.292 37.7528 317.437 37.2577C317.581 36.7626 317.612 35.6591 317.482 33.9841C317.443 33.47 317.362 32.859 317.24 32.1511C317.15 30.9902 316.986 30.3691 316.746 30.2876C316.507 30.2061 315.803 30.578 314.634 31.3865L313.695 31.9434C313.076 32.3254 312.347 32.7993 311.51 33.3817C310.672 33.9641 310.026 34.4316 309.568 34.7509C309.11 35.0702 308.507 35.4509 307.758 35.8763C307.008 36.3017 306.226 36.7297 305.428 37.1756C305.108 37.3341 304.655 37.5029 304.051 37.6666C303.449 37.847 302.966 38.0515 302.583 38.2649C302.2 38.4782 301.978 38.8293 301.881 39.3039C301.966 40.3984 301.981 42.9499 301.94 46.9239C301.898 50.8979 301.943 53.8308 302.088 55.7048C302.333 59.7232 302.012 61.8003 301.107 61.9376C299.694 62.1811 298.767 61.6027 298.342 60.201C298.073 59.3044 297.908 56.531 297.846 51.881C297.785 47.2309 297.855 44.2724 298.091 43.0194C298.205 41.9094 298.301 40.1501 298.416 37.772C298.53 35.3773 298.606 33.3527 298.677 31.6954C298.749 30.0381 298.861 29.1284 299.049 28.9803C299.203 28.3844 299.149 25.9695 298.872 21.7533C298.696 18.6304 298.619 16.7845 298.64 16.1989C298.661 15.6133 298.795 15.1858 299.022 14.9012C299.501 14.4134 300.24 14.2891 301.241 14.5281C302.243 14.7837 302.633 15.3039 302.428 16.104C302.545 16.7456 302.67 17.0695 302.802 17.0592C302.935 17.0489 303.118 16.8344 303.336 16.4337C303.392 16.2958 303.434 16.1925 303.462 16.1236C303.49 16.0546 303.533 15.9679 303.592 15.8632C303.65 15.7585 303.743 15.6679 303.87 15.5912C304.77 13.8861 306.059 12.4843 307.739 11.3858C308.41 10.8163 308.9 10.4778 309.226 10.3857C309.552 10.2935 310.247 10.2394 311.36 10.2194C312.855 10.1697 313.86 10.2581 314.409 10.4656C315.217 10.7865 316.027 11.5742 316.839 12.8123C317.65 14.0504 318.205 15.4086 318.52 16.8857C318.615 17.262 319.05 19.8641 319.805 24.6603C320.56 29.4565 321.105 32.6174 321.425 34.1608L322.466 46.2923C322.853 52.1349 322.945 55.8983 322.762 57.6143C322.674 58.2051 322.629 59.3431 322.641 60.9939C322.637 62.6626 322.528 64.0392 322.329 65.1225C322.13 66.2057 321.7 66.8899 321.069 67.1226C320.321 67.5646 319.295 67.4277 318.005 66.6773C317.335 66.4125 316.735 65.9754 316.191 65.4005C315.664 64.8243 315.278 64.3538 315.048 63.9713C314.819 63.5887 314.452 62.9333 313.91 61.9578C313.386 60.9976 313.071 60.3714 312.985 60.1279C311.859 58.2636 311.569 56.8848 312.082 55.9939C312.479 55.3123 313.141 55.9114 314.069 57.7911C314.141 57.8523 314.181 57.9492 314.192 58.0819C314.42 58.4478 314.754 59.1058 315.223 60.0036C315.677 60.9192 315.988 61.4956 316.14 61.734C316.763 63.1202 317.332 63.7934 317.811 63.756C318.291 63.7186 318.616 62.9758 318.754 61.5303C319.403 55.7404 319.308 49.358 318.435 42.402C318.282 42.147 317.858 42.2634 317.147 42.7526C316.435 43.2252 315.724 43.9313 315.011 44.8211C314.066 45.9458 312.854 47.0579 311.426 48.1868C309.983 49.3171 308.946 49.8984 308.3 49.9486C307.655 49.9989 306.985 49.7341 306.292 49.1708C305.599 48.6075 305.222 48.0362 305.177 47.4558C305.148 47.0744 305.366 46.6736 305.819 46.288L305.785 46.274ZM304.257 23.3692C303.81 24.2549 303.621 24.8202 303.707 25.0804C303.657 25.2845 303.452 25.8677 303.112 26.8452C302.772 27.8227 302.543 28.9583 302.445 30.2673C302.255 32.7514 302.385 33.9926 302.831 33.9577C302.898 33.9526 302.961 33.9143 303.022 33.8428C304.913 33.1115 307.229 31.8466 309.955 30.0826C312.68 28.302 314.412 27.2328 315.164 26.8405C315.671 26.7342 315.99 26.5426 316.103 26.2835C316.153 26.0794 315.971 24.592 315.557 21.8214C315.142 19.0508 314.864 17.4041 314.692 16.9003C314.51 16.2638 314.076 15.6136 313.376 14.9507C312.675 14.2879 312.048 13.9363 311.495 13.8794C310.941 13.8224 310.329 14.087 309.657 14.6565C309.408 14.8761 309.078 15.1354 308.655 15.4687C308.231 15.802 307.932 16.0255 307.777 16.1711C307.622 16.3166 307.422 16.5324 307.193 16.8005C306.949 17.0865 306.759 17.4183 306.591 17.8318C306.423 18.2453 306.21 18.7124 305.919 19.2522C305.328 20.8665 305.048 21.756 305.063 21.955C305.002 22.0265 304.755 22.4961 304.292 23.3832L304.257 23.3692Z" fill="white"/>
<path d="M371.703 3.54918C372 4.3769 371.774 5.11192 371.041 5.75294C370.797 6.0389 370.53 6.46012 370.209 7.03574C369.904 7.61008 369.572 8.05303 369.244 8.32886C368.917 8.62127 368.362 8.98148 367.615 9.44008C365.944 10.4212 364.76 11.2642 364.099 11.9664C364.104 12.0327 364.143 12.0965 364.214 12.1576C365.316 13.0561 365.586 13.9694 365.012 14.9317C364.813 14.9472 364.672 15.4921 364.607 16.5816C364.524 17.6559 364.44 18.9304 364.368 20.3708C364.28 21.8124 364.221 22.768 364.206 23.2197C364.095 23.4953 364.115 23.7606 364.271 24.0488C364.426 24.337 364.635 24.4542 364.883 24.4349C365.32 24.2674 366.044 23.7272 367.054 22.7976C368.047 21.8693 369.176 20.7636 370.406 19.4499C371.637 18.1527 372.469 17.2871 372.885 16.8543C373.44 16.4941 374.115 15.7574 374.911 14.6443C375.708 13.5478 376.47 12.6376 377.23 11.9276C377.991 11.2177 378.765 10.8905 379.552 10.9626C380.071 10.9889 380.519 11.1876 380.863 11.5445C381.223 11.9001 381.406 12.3197 381.44 12.7675C381.059 13.6481 380.2 14.7995 378.88 16.237C377.56 17.6746 376.017 19.2463 374.268 20.9509C372.519 22.6554 371.391 23.7777 370.919 24.3483C368.691 26.7409 367.353 27.9463 366.906 27.9811C366.708 27.9966 366.441 28.2009 366.071 28.5801C365.718 28.9746 365.54 29.2554 365.556 29.4544C365.754 29.4389 366.04 29.4668 366.444 29.5353C366.849 29.6039 367.173 29.6955 367.448 29.8075C367.723 29.9196 368.023 30.1464 368.385 30.5186C369.914 31.7676 372.196 33.2916 375.231 35.0739C378.265 36.8562 380.507 38.2832 381.954 39.3383C383.183 40.1602 384.626 40.9487 386.285 41.7371C387.944 42.5254 389.183 43.2631 390.021 43.9819C391.063 44.7516 391.993 45.3632 392.844 45.8141C393.694 46.265 394.559 46.6815 395.418 47.0316C396.295 47.3805 397.038 47.7396 397.647 48.0759C398.886 49.0305 401.536 49.9252 405.564 50.7792C405.96 50.9486 406.235 51.0606 406.371 51.1C406.509 51.1561 406.686 51.2924 406.934 51.49C407.184 51.7041 407.304 51.9617 407.296 52.2959C407.289 52.6302 407.203 53.0206 407.039 53.4839C406.693 54.8122 406.224 55.6329 405.665 55.9433C405.107 56.2538 404.239 56.0211 403.082 55.2604C402.468 54.8577 401.313 54.3471 399.65 53.7259C397.971 53.106 396.904 52.6552 396.415 52.3596C396.206 52.2424 395.583 51.9406 394.545 51.4375C393.491 50.9357 392.864 50.5841 392.668 50.4159C382.81 44.794 376.053 40.7324 372.411 38.2132C371.65 37.6219 370.691 37.0626 369.551 36.5341C368.395 36.0069 367.595 35.5687 367.101 35.2068C366.009 34.4409 365.259 33.9989 364.899 33.8601C364.539 33.7213 364.118 33.6707 363.672 33.7055C363.23 33.8066 362.94 33.9293 362.818 34.0723C362.696 34.2153 362.563 34.6428 362.436 35.37C362.211 35.9048 361.961 36.7584 361.651 37.9171C361.358 39.0744 361.057 40.1323 360.781 41.0714C360.504 42.0106 360.217 42.8171 359.936 43.4897C359.697 43.842 359.336 44.5541 358.837 45.6274C358.339 46.7173 357.862 47.6554 357.393 48.4761C356.941 49.2955 356.478 49.9822 355.988 50.5375C355.582 51.0864 355.009 52.2823 354.316 54.088C352.874 57.387 351.042 60.1658 348.818 62.3912C346.577 64.618 344.947 65.2788 343.896 64.3931C343.251 63.5924 342.985 62.7289 343.11 61.7682C343.235 60.8075 343.522 60.001 343.983 59.2977C344.299 59.0729 344.505 58.94 344.635 58.8965C344.765 58.8531 345.019 58.9166 345.432 59.0847C345.844 59.2528 346.067 59.3355 346.133 59.3303L348.003 57.0325C348.791 56.2536 349.745 54.5944 350.88 52.07C352.016 49.5457 352.826 47.9644 353.294 47.344C354.352 45.9602 355.488 43.6527 356.703 40.4381C357.919 37.2235 358.312 35.4244 357.902 35.0726C357.759 34.9503 357.333 35.0336 356.606 35.3237C355.879 35.6139 355.208 35.9666 354.593 36.4149C354.167 36.715 353.222 37.1891 351.775 37.8524C350.328 38.5157 349.131 38.9593 348.165 39.1681C347.403 39.4277 346.775 39.2763 346.283 38.7307C345.791 38.1851 345.634 37.4466 345.812 36.5151C346.026 35.8477 346.354 35.355 346.811 35.0191C347.267 34.6833 348.011 34.3918 349.038 34.1116C353.78 32.374 357.209 30.4384 359.325 28.3215C359.632 27.9806 359.816 27.5659 359.914 27.1078C360.011 26.6497 360.065 25.6278 360.06 24.0599C360.183 23.066 360.235 22.0275 360.199 20.9125C360.18 19.8129 360.207 18.8764 360.282 18.1199C360.356 17.3633 360.499 16.4178 360.745 15.2975C361.041 14.1733 361.126 13.5494 360.987 13.4768C360.847 13.3876 360.111 13.5617 358.78 13.9991C357.188 14.5069 356.095 14.7923 355.483 14.84C354.871 14.8877 353.619 14.8517 351.714 14.7499C351.378 14.7094 351.057 14.4341 350.715 13.8934C350.375 13.3694 350.196 12.7827 350.146 12.1359C350.106 11.6218 350.359 11.235 350.891 11.0101C351.421 10.7685 352.471 10.5699 354.005 10.3837C356.983 10.1517 359.403 9.57943 361.278 8.64916C363.154 7.7189 365.185 6.22589 367.373 4.17016C368.394 3.17297 369.203 2.65947 369.782 2.61434C370.754 2.47195 371.38 2.82354 371.66 3.63597L371.703 3.54918Z" fill="white"/>
<path d="M434.829 22.0384C434.618 21.888 434.463 21.8167 434.38 21.8231C434.297 21.8296 434.039 21.9331 433.671 22.1286C433.303 22.3241 433.015 22.4634 432.821 22.5452C432.15 23.1147 431.372 23.1753 430.488 22.727C429.604 22.2786 429.054 21.6208 428.82 20.7547C428.587 19.8887 428.802 19.021 429.448 18.1198C429.967 17.2952 430.409 16.7769 430.791 16.547C432.799 15.6064 434.697 15.8256 436.499 17.17C438.303 18.5311 439.11 20.1366 438.919 21.97C438.71 24.2052 437.884 26.6554 436.462 29.3522C435.039 32.0324 433.61 33.9957 432.139 35.2114C431.515 35.527 430.989 35.618 430.546 35.4857C430.119 35.3521 429.894 35.0193 429.884 34.4694C429.875 33.9196 430.146 33.3313 430.678 32.6891C431.619 31.5147 432.557 29.8733 433.461 27.7842C434.364 25.695 434.844 24.1561 434.9 23.1673C435.054 22.5714 435.024 22.19 434.814 22.0562L434.829 22.0384Z" fill="white"/>
<path d="M183.739 141.07C183.56 141.908 183.501 143.085 183.528 144.621C183.556 146.157 183.42 147.56 183.087 148.832C182.92 150.422 182.961 151.288 183.163 151.467C183.366 151.646 183.918 151.187 184.775 150.126C185.683 148.926 187.069 147.509 188.921 145.909C190.772 144.308 191.953 143.481 192.481 143.426C193.469 143.455 194.054 143.945 194.256 144.911C194.458 145.876 194.106 146.499 193.234 146.775C193.043 146.862 192.659 147.337 192.067 148.219C191.476 149.101 191.092 149.577 190.901 149.664C188.322 151.174 185.271 154.372 181.746 159.26C181.522 159.669 181.235 162.341 180.866 167.248C180.497 172.154 179.927 175.141 179.12 176.196C178.514 177.899 177.614 179.817 176.405 181.969C174.401 186.562 172.481 187.183 170.645 183.848C170.417 182.952 170.566 181.983 171.071 180.909C171.577 179.852 172.161 179.372 172.825 179.503C173.476 179.501 173.959 179.015 174.289 178.027C174.603 177.041 174.798 176.518 174.857 176.445C175.591 175.331 176.194 173.444 176.669 170.818C177.144 168.192 177.218 166.044 176.926 164.368L176.663 162.824L175.083 164.463C172.834 166.724 169.439 169.039 164.868 171.428C163.993 171.202 163.441 170.876 163.2 170.483C162.958 170.091 162.992 169.619 163.305 169.101C163.601 168.584 164.031 168.071 164.565 167.596C165.099 167.122 165.729 166.604 166.458 166.075C170.978 163.19 174.399 160.337 176.71 157.55C177.404 156.691 177.91 155.634 178.226 154.346C178.543 153.075 178.792 151.477 178.942 149.571C179.092 147.665 179.267 146.309 179.449 145.503C179.381 144.858 178.807 144.952 177.726 145.785C177.542 145.939 177.375 146.09 177.189 146.227C175.879 147.419 174.415 148.259 172.814 148.746C171.198 149.251 169.819 149.145 168.677 148.446C167.536 147.747 167.078 146.407 167.32 144.425C167.291 143.508 167.345 142.599 167.464 141.667C167.6 140.732 167.791 139.692 168.067 138.509C168.328 137.344 168.506 136.489 168.584 135.962C168.49 135.704 168.645 135.27 169.029 134.644C169.414 134.018 169.504 133.607 169.287 133.446C168.607 132.531 168.783 131.826 169.849 131.329C170.965 130.827 171.862 130.95 172.528 131.732C172.832 132.085 172.951 132.574 172.879 133.167C172.824 134.545 172.549 136.38 172.041 138.691C171.533 141.003 171.255 142.487 171.191 143.147C171.186 143.732 171.297 144.156 171.472 144.388C171.665 144.635 171.936 144.674 172.318 144.5C172.684 144.327 173.016 144.158 173.301 144.011C173.584 143.847 173.958 143.591 174.435 143.206C174.612 142.986 175.339 142.441 176.664 141.549C177.972 140.658 178.742 140.042 178.955 139.685C179.53 138.972 179.485 135.681 178.8 129.799C178.739 129.22 178.694 128.472 178.665 127.556C178.468 125.686 178.431 124.536 178.556 124.138C178.681 123.741 179.148 123.424 179.976 123.202C180.254 123.307 180.582 123.406 180.99 123.48C181.449 123.565 181.734 123.736 181.826 123.977C181.92 124.235 182.077 125.088 182.299 126.57C182.395 127.48 182.503 128.188 182.622 128.694C183.109 132.69 183.462 134.777 183.664 134.956C183.942 135.061 184.764 134.305 186.163 132.685C187.561 131.066 188.595 130.422 189.279 130.734C189.785 131.266 190.09 131.786 190.179 132.312C190.266 132.821 190.217 133.311 190.029 133.749C189.842 134.187 189.54 134.654 189.105 135.118C188.67 135.582 188.215 136.015 187.769 136.38C187.325 136.761 186.85 137.162 186.378 137.597C185.907 138.031 185.516 138.44 185.235 138.788C184.454 139.456 183.983 140.208 183.804 141.046L183.739 141.07ZM220.852 176.944C218.309 177.513 216.182 177.922 214.476 178.202C212.77 178.483 210.878 178.582 208.778 178.452C208.632 178.334 207.347 178.336 204.925 178.474C202.502 178.596 199.877 178.706 197.085 178.816C194.291 178.911 192.499 178.849 191.688 178.6C190.451 177.944 189.458 176.912 188.724 175.484C188.439 175.313 188.211 174.568 188.005 173.251C187.8 171.935 187.656 170.562 187.573 169.132C187.489 167.703 187.291 166.453 186.977 165.365C186.739 165.006 186.579 164.119 186.499 162.723C186.419 161.326 186.207 160.579 185.879 160.48C184.857 159.484 185.006 158.682 186.311 158.076C187.683 157.48 188.825 157.543 189.755 158.298C190.054 158.601 190.21 158.969 190.256 159.416C191.349 163.616 191.969 167.297 192.105 170.494C192.308 172.429 192.699 173.609 193.258 174.002C193.816 174.394 195.403 174.562 197.998 174.488C198.972 174.386 201.936 174.324 206.922 174.283C211.907 174.242 215.477 173.915 217.616 173.305C217.859 173.078 219.179 172.772 221.571 172.352C223.964 171.932 225.305 171.674 225.545 171.582C225.977 171.402 226.126 170.751 225.974 169.63C225.823 168.508 225.892 167.732 226.164 167.301C226.622 166.735 227.177 166.626 227.848 166.973C228.502 167.322 228.884 167.934 228.971 168.761C229.017 169.208 229.275 169.75 229.722 170.355C230.169 170.96 230.504 171.443 230.711 171.823C230.916 172.186 230.813 172.799 230.464 173.605C230.313 174.072 230.209 174.351 230.166 174.422C230.107 174.496 230.042 174.67 229.969 174.928C229.898 175.203 229.811 175.33 229.712 175.34C229.613 175.351 229.519 175.411 229.43 175.52C229.342 175.63 229.164 175.682 228.913 175.675C228.645 175.67 228.431 175.693 228.236 175.747C228.041 175.801 227.711 175.835 227.213 175.855C226.731 175.872 226.283 175.903 225.904 175.943C225.062 176.031 223.377 176.36 220.816 176.914L220.852 176.944Z" fill="white"/>
<path d="M253.743 121.339C254.463 121.364 254.98 121.677 255.312 122.294C255.643 122.912 255.656 123.663 255.348 124.548C255.05 125.366 255.246 125.797 255.969 125.854C256.561 125.926 257.958 125.879 260.16 125.713C264.746 125.363 267.245 125.484 267.626 126.096C268.024 126.707 268.106 127.484 267.872 128.429C267.637 129.373 267.197 130.106 266.534 130.627C265.026 131.84 264.206 131.659 264.042 130.104C263.982 129.525 263.664 129.207 263.109 129.165C262.554 129.124 261.011 129.203 258.495 129.401C256.877 129.572 255.856 129.697 255.397 129.778C254.955 129.859 254.561 130.084 254.248 130.435C253.936 130.802 253.553 131.127 253.135 131.439C252.71 131.684 252.285 132.398 251.891 133.577C251.498 134.756 250.889 137.062 250.079 140.475C249.625 142.346 248.979 144.455 248.152 146.75C247.327 149.062 246.667 151.356 246.187 153.614C245.845 155.29 245.654 156.33 245.633 156.767C245.611 157.188 245.743 157.491 246.028 157.662C246.791 158.1 246.654 159.653 245.631 162.303C243.884 166.803 242.231 168.382 240.655 167.043C239.798 166.348 239.728 164.733 240.443 162.165C241.583 158.716 242.358 155.775 242.787 153.338C243.215 150.901 243.919 148.234 244.931 145.317C245.803 143.134 246.896 139.406 248.213 134.149C249.512 128.877 250.817 124.943 252.11 122.314C252.487 121.622 253.036 121.28 253.756 121.304L253.743 121.339ZM266.137 158.3C266.34 156.572 266.653 155.268 267.043 154.374C267.433 153.48 267.991 153.07 268.715 153.127C269.299 153.132 269.73 153.421 269.978 154.031C270.24 154.622 270.28 155.32 270.098 156.126C269.564 159.778 268.839 162.731 267.892 164.989C267.272 166.56 267.248 167.281 267.819 167.154C267.878 167.081 267.97 167.004 268.095 166.924C268.404 166.691 269.214 165.819 270.557 164.306C271.9 162.793 272.834 161.841 273.396 161.464C273.653 161.37 274.007 160.932 274.474 160.13C274.94 159.328 275.278 158.891 275.453 158.805C275.762 158.572 276.092 158.537 276.476 158.697C276.843 158.859 277.117 159.081 277.284 159.398C277.477 159.963 277.35 160.662 276.92 161.494C276.49 162.325 275.598 163.523 274.262 165.103C273.228 166.383 272.322 167.448 271.559 168.282C270.795 169.115 269.995 169.918 269.175 170.691C268.339 171.465 267.76 171.994 267.441 172.295C267.122 172.597 266.335 173.198 265.096 174.115C263.857 175.032 262.957 175.679 262.414 176.071C260.678 177.492 259.551 178.363 259.067 178.682C257.093 179.743 256.004 179.39 255.822 177.653C255.775 177.206 255.913 176.773 256.223 176.389C256.533 176.005 257.258 175.277 258.402 174.253C259.057 173.665 259.387 173.145 259.409 172.725C259.432 172.304 259.195 171.326 258.718 169.804C258.016 167.403 256.934 165.844 255.492 165.143C254.82 164.947 254.436 164.469 254.355 163.691C254.273 162.914 254.443 162.31 254.849 161.883C255.715 160.754 257.06 161.164 258.885 163.129C259.118 163.439 259.309 163.67 259.495 163.851C259.681 164.032 259.828 164.167 259.969 164.236C260.112 164.321 260.216 164.36 260.282 164.354C260.348 164.347 260.41 164.306 260.469 164.233C260.574 163.955 260.478 162.409 260.179 159.564C259.88 156.719 259.654 155.204 259.503 155.036C259.277 154.792 258.96 154.792 258.519 155.039C256.683 156.153 255.245 156.756 254.205 156.866C253.941 156.894 253.684 156.67 253.402 156.215C253.121 155.76 252.948 155.226 252.887 154.647C252.84 154.2 252.96 153.753 253.233 153.339C253.524 152.924 253.882 152.685 254.328 152.638C254.708 152.598 255.477 152.3 256.639 151.759C257.784 151.22 258.44 150.799 258.611 150.514C258.816 150.559 258.909 150.181 258.879 149.415C258.863 148.631 258.795 147.818 258.675 146.995C258.553 146.154 258.453 145.68 258.373 145.555C258.3 145.495 257.469 145.683 255.896 146.117C254.761 146.437 254.045 146.613 253.748 146.645C253.451 146.676 253.14 146.575 252.784 146.362C251.596 145.701 251.483 144.776 252.389 143.56C252.781 143 253.654 142.574 254.994 142.298C257.175 141.934 259.569 140.578 262.191 138.211C263.753 136.875 264.814 136.495 265.394 137.086C266.539 138.136 266.067 139.524 263.979 141.25C263.25 141.778 262.783 142.58 262.563 143.657C262.426 144.257 262.354 144.85 262.366 145.434C262.361 146.02 262.411 146.5 262.513 146.84C262.618 147.197 262.734 147.352 262.866 147.338C263.064 147.317 263.812 146.653 265.093 145.347C266.391 144.039 267.143 143.408 267.329 143.439C267.709 143.399 268.093 143.559 268.447 143.906C268.817 144.252 269.01 144.666 269.057 145.113C269.104 145.56 268.953 146.027 268.617 146.481C268.281 146.934 267.569 147.628 266.477 148.513C265.168 149.705 264.321 150.547 263.961 151.087C263.599 151.61 263.388 152.301 263.344 153.159C263.266 153.685 263.296 154.92 263.435 156.879C263.572 158.821 263.732 160.661 263.911 162.365C264.09 164.069 264.214 164.925 264.28 164.918C264.412 164.905 264.683 164.307 265.124 163.107C265.55 161.924 265.761 161.233 265.741 161.034C265.734 160.968 265.84 160.071 266.044 158.36L266.137 158.3ZM296.131 121.817C295.848 122.299 295.736 123.615 295.762 125.77C295.826 127.653 295.95 128.828 296.129 129.26C296.308 129.693 296.738 129.815 297.433 129.608C299.103 129.298 300.729 129.528 302.342 130.261C303.956 131.01 305.15 132.055 305.943 133.41C307.738 137.469 308.808 141.771 309.15 146.301C310.046 154.185 310.416 158.98 310.278 160.683C310.129 161.803 309.933 162.643 309.657 163.191C309.381 163.739 308.852 164.263 308.066 164.73C307.576 164.983 307.206 165.122 306.992 165.145C306.777 165.167 306.354 165.112 305.756 164.974C304.881 164.749 303.842 164.072 302.606 162.948C301.371 161.841 300.727 160.955 300.66 160.31C300.613 159.864 300.936 159.763 301.613 160.009C301.957 160.106 302.192 160.282 302.35 160.517C303.03 161.432 303.87 161.962 304.87 162.107C305.872 162.269 306.491 161.97 306.73 161.225C306.888 160.824 306.798 159.01 306.512 155.812C306.209 152.616 305.901 150.474 305.586 149.387C305.46 148.815 305.339 148.46 305.228 148.354C305.115 148.232 304.959 148.182 304.778 148.201C304.339 148.314 303.283 149.061 301.642 150.439C299.984 151.818 299.061 152.718 298.839 153.143C298.574 154.275 298.682 157.525 299.175 162.859C299.669 168.192 299.77 171.376 299.491 172.376C299.193 173.193 298.679 173.699 297.983 173.906C297.287 174.114 296.682 173.91 296.168 173.312C295.895 172.621 295.758 171.95 295.756 171.298C295.755 170.646 295.773 169.707 295.813 168.499C295.853 167.29 295.852 166.488 295.81 166.091C295.866 164.713 295.744 162.602 295.445 159.757C295.168 157.762 294.979 156.594 294.875 156.237C294.772 155.897 294.592 155.766 294.351 155.858C293.342 156.098 292.019 156.857 290.385 158.133C289.729 158.721 289.07 158.807 288.409 158.392C287.748 157.976 287.626 157.287 288.042 156.323C288.404 154.846 289.771 153.565 292.142 152.462C293.408 152.127 294.147 151.531 294.355 150.656C294.563 149.781 294.446 148.823 294 147.75C293.715 147.579 292.634 148.094 290.738 149.265C288.843 150.451 287.729 151.288 287.38 151.776C287.097 152.258 286.975 153.157 286.978 154.461C287.003 155.964 286.962 157.959 286.823 160.449C286.701 162.937 286.633 164.517 286.635 165.169C286.703 165.814 286.57 166.614 286.253 167.567C285.936 168.521 285.587 169.176 285.241 169.531C284.394 170.205 283.641 170.185 282.981 169.468C282.635 168.718 282.498 167.729 282.566 166.468C282.635 165.223 282.731 163.59 282.887 161.583C283.027 159.578 283.061 158.153 282.972 157.309C283.088 156.511 282.94 153.031 282.559 146.866C282.178 140.701 282.21 136.717 282.669 134.896C282.57 134.588 282.802 134.095 283.352 133.452C283.902 132.809 284.486 132.329 285.102 131.996C285.717 131.664 286.167 131.65 286.465 131.953C286.816 132.116 286.939 132.488 286.884 133.079C286.813 133.672 286.691 134.421 286.536 135.324C286.364 136.228 286.304 136.77 286.325 136.968C286.36 137.299 286.584 137.209 286.981 136.699C287.106 136.618 287.198 136.542 287.257 136.469C287.663 136.041 288.407 135.344 289.474 134.378C290.541 133.413 291.285 132.715 291.691 132.288L292.572 131.308L292.464 128.376L292.311 126.92C292.265 126.474 292.259 126.106 292.299 125.851C292.337 125.579 292.315 125.364 292.228 125.173C292.141 124.981 292.079 124.871 292.039 124.808C292 124.745 291.834 124.763 291.561 124.859C291.271 124.956 291.032 125.065 290.811 125.188C290.59 125.312 290.184 125.572 289.573 125.955C288.347 126.67 286.874 127.427 285.173 128.225C283.454 129.026 282.382 129.457 281.936 129.504C280.714 129.633 280.026 128.953 279.869 127.464C279.767 126.488 279.884 125.857 280.204 125.572C280.523 125.271 281.366 125.031 282.712 124.822C283.736 124.714 284.486 124.551 284.964 124.334C285.425 124.118 286.341 123.62 287.692 122.825C289.587 121.638 290.655 120.84 290.912 120.428C291.169 120.016 291.126 119.134 290.786 117.798C290.68 117.425 290.371 116.554 289.879 115.201C289.386 113.848 289.101 112.724 289.038 111.811C288.976 110.898 289.241 110.251 289.869 109.867C290.178 109.634 290.4 109.526 290.569 109.542C290.737 109.558 291.05 109.675 291.538 109.875C292.019 110.158 292.392 110.537 292.644 111.029C292.896 111.521 293.271 112.702 293.797 114.537C293.983 115.036 294.14 115.571 294.263 116.11C294.386 116.649 294.507 117.004 294.622 117.143C294.738 117.298 295.051 117.415 295.591 117.475C296.183 117.547 296.596 117.67 296.797 117.833C296.998 117.996 297.151 118.348 297.205 118.86C297.266 119.439 296.949 120.393 296.236 121.706L296.131 121.817ZM293.414 142.493C293.4 139.818 293.212 138.031 292.854 137.166C292.623 136.873 292.151 136.989 291.428 137.567C290.704 138.145 289.947 138.878 289.177 139.812C288.391 140.748 287.878 141.588 287.64 142.332C287.37 142.946 287.162 143.821 286.979 144.944C286.797 146.068 286.782 146.721 286.935 146.906C287.088 147.091 287.529 146.994 288.273 146.614C289.017 146.235 290.662 145.208 293.219 143.5C293.372 143.684 293.436 143.343 293.414 142.493ZM297.384 133.744C296.952 133.924 296.694 134.168 296.625 134.46C296.555 134.752 296.522 135.541 296.518 136.779C296.537 138.868 296.816 139.926 297.332 139.921C297.603 139.96 297.933 139.758 298.338 139.33C298.685 138.976 299.146 138.76 299.691 138.702C300.235 138.645 300.599 138.774 300.765 139.074C301.683 140.349 301.218 141.803 299.371 143.436C298.642 143.965 298.223 144.427 298.094 144.792C297.968 145.173 297.892 145.884 297.884 146.921C297.862 147.978 298.015 148.48 298.345 148.445C298.609 148.417 299.321 147.89 300.53 146.843C300.942 146.482 301.373 146.135 301.791 145.823C302.209 145.512 302.52 145.295 302.704 145.142C302.888 144.988 303.083 144.784 303.32 144.491C303.556 144.199 303.8 143.822 304.083 143.34C304.513 142.509 304.721 141.784 304.689 141.169C304.658 140.553 304.372 139.58 303.85 138.264C302.942 135.817 301.732 134.306 300.238 133.744C299.078 133.348 298.143 133.346 297.401 133.742L297.384 133.744ZM301.831 108.086C301.977 108.205 302.769 108.756 304.207 109.742C305.646 110.728 306.812 111.34 307.672 111.584C310.382 112.603 311.901 113.396 312.226 113.947C312.859 115.051 312.938 116.28 312.46 117.602C311.981 118.924 311.06 119.372 309.712 118.929C309.245 118.778 308.966 118.656 308.886 118.531C308.806 118.406 308.769 118.058 308.775 117.472L308.861 116.393L307.306 115.57C306.833 115.352 305.971 115.092 304.736 114.771C303.501 114.45 302.476 114.073 301.683 113.671C300.89 113.27 300.519 112.757 300.59 112.164C300.543 109.811 300.952 108.463 301.834 108.119L301.831 108.086Z" fill="white"/>
<path d="M338.219 154.858C338.395 157.165 338.456 158.697 338.406 159.488C338.388 160.594 338.474 161.254 338.664 161.468C338.853 161.682 339.233 161.492 339.823 160.911C339.941 160.765 340.569 160.23 341.706 159.291C342.842 158.351 343.496 157.747 343.666 157.461C343.784 157.315 344.441 156.577 345.636 155.246C346.832 153.916 347.507 153.042 347.664 152.624C348.087 151.726 348.436 151.238 348.677 151.146C348.927 150.985 349.262 151 349.716 151.186C350.153 151.374 350.428 151.613 350.529 151.937C351.188 152.653 350.661 154.148 348.947 156.419C347.233 158.691 345.654 160.496 344.241 161.816C343.526 162.477 342.594 163.295 341.461 164.267C337.727 167.806 335.092 170.041 333.556 170.989C332.02 171.937 330.799 172.066 329.875 171.377C329.463 171.103 329.196 170.629 329.095 169.988C328.994 169.346 328.888 167.534 328.773 164.536C328.412 157.449 327.815 152.879 326.947 150.813L325.964 147.973L326.34 146.946C326.603 146.266 327.088 145.646 327.812 145.068C328.535 144.49 329.103 144.33 329.508 144.538C329.786 144.642 329.997 145.222 330.175 146.274C330.352 147.326 330.507 148.48 330.635 149.704C330.764 150.928 330.912 151.699 331.078 152.016C331.722 154.49 332.04 157.2 332.033 160.144C331.994 164.062 332.152 166.203 332.507 166.567C332.66 166.751 332.818 166.818 332.963 166.77C333.124 166.719 333.491 166.396 334.081 165.815L335.224 164.624L334.911 162.6C334.716 161.383 334.656 159.7 334.733 157.568C334.809 155.436 334.797 153.731 334.725 152.417C334.194 141.167 333.853 134.746 333.683 133.125L332.34 133.367C331.571 133.515 330.923 133.383 330.397 132.987C329.872 132.591 329.509 132.161 329.331 131.728C329.152 131.295 328.954 130.53 328.739 129.432C328.525 128.351 328.361 127.582 328.246 127.126C327.274 123.432 326.615 121.293 326.3 120.674C325.867 119.733 325.66 119.036 325.647 118.586C325.633 118.135 325.819 117.53 326.19 116.772C326.575 116.146 326.935 115.757 327.238 115.624C327.557 115.49 328.074 115.486 328.805 115.61C329.198 115.702 329.416 115.545 329.442 115.158C329.785 114.135 331.295 113.256 333.954 112.524C336.614 111.792 338.879 111.586 340.732 111.909C341.595 112.019 342.21 112.155 342.581 112.35C342.952 112.545 343.369 112.869 343.803 113.341C345.004 114.921 344.562 117.71 342.43 121.715C342.007 122.613 341.769 123.207 341.734 123.511C341.699 123.816 341.863 124.1 342.211 124.398C343.483 126.02 342.873 127.522 340.332 128.911C339.657 129.317 339.141 129.639 338.769 129.912C338.414 130.184 338.133 130.531 337.947 130.986C337.759 131.424 337.64 131.721 337.605 131.858C337.553 131.998 337.499 132.438 337.445 133.197C337.391 133.955 337.344 134.462 337.306 134.733C337.242 135.392 337.312 136.857 337.518 139.127C337.723 141.396 337.881 142.584 338.043 142.7C338.262 142.878 339.017 142.598 340.31 141.876C342.02 140.842 343.7 139.361 345.317 137.434C346.541 136.067 347.52 135.696 348.239 136.339C348.653 136.63 348.876 137.159 348.891 137.943C348.886 138.529 348.012 139.742 346.233 141.552C344.473 143.377 342.76 144.862 341.127 146.005C339.671 147.078 338.798 147.822 338.475 148.241C338.169 148.658 337.992 149.363 337.963 150.353C337.906 151.078 337.965 152.594 338.139 154.883L338.219 154.858ZM334.237 127.597C334.555 127.296 335.105 126.653 335.837 125.672C339.123 121.529 340.805 118.642 340.884 117.011C340.969 116.551 340.865 116.194 340.575 115.973C340.283 115.736 339.857 115.648 339.275 115.676C338.694 115.703 338.164 115.743 337.669 115.795C337.174 115.847 336.6 115.941 335.897 116.082C335.194 116.223 334.719 116.307 334.455 116.335C333.825 116.535 333.089 116.997 332.25 117.738C331.41 118.479 330.907 118.934 330.721 119.07C330.355 119.243 330.156 119.414 330.139 119.567C330.123 119.736 330.194 120.096 330.305 120.67C330.431 121.242 330.76 122.462 331.275 124.347C331.805 126.215 332.058 127.192 332.065 127.258C332.178 127.698 332.29 127.97 332.399 128.059C332.509 128.148 332.762 128.171 333.141 128.131C333.521 128.091 333.887 127.919 334.207 127.634L334.237 127.597ZM374.853 130.269C374.421 130.449 374.002 130.911 373.632 131.669C371.881 134.865 370.126 137.693 368.367 140.17C366.608 142.647 365.268 144.193 364.348 144.809C363.289 145.84 362.209 145.887 361.142 144.946C360.219 144.258 360.253 143.635 361.246 143.079C361.43 142.925 361.605 142.84 361.803 142.819C362.308 142.699 362.878 142.254 363.513 141.468C364.148 140.682 364.771 139.78 365.384 138.778C365.994 137.761 366.41 137.115 366.648 136.839C367.668 135.426 368.513 134.1 369.166 132.843C369.818 131.587 370.026 130.862 369.816 130.617C369.663 130.432 368.894 130.263 367.506 130.075C365.601 129.891 364.368 129.586 363.842 129.19C363.317 128.794 363.156 128.058 363.36 126.983C363.542 126.178 363.928 125.719 364.532 125.588C365.135 125.458 366.339 125.632 368.156 126.092C369.424 126.41 370.554 126.525 371.512 126.424C372.469 126.323 373.154 125.699 373.566 124.535C373.871 123.783 374.133 123.103 374.336 122.496C374.54 121.889 374.731 121.167 374.943 120.325C375.155 119.483 375.375 118.724 375.638 118.044C376.17 116.282 376.289 115.349 375.974 115.215C375.66 115.081 374.671 115.67 372.986 116.952C370.809 118.62 369.194 119.61 368.107 119.909C366.463 120.467 365.335 120.369 364.702 119.582C364.068 118.796 363.975 117.435 364.423 115.497C365.327 111.087 365.646 106.972 365.378 103.153C365.457 102.627 365.506 102.304 365.529 102.201C365.551 102.098 365.602 101.942 365.681 101.75C365.761 101.557 365.826 101.383 365.884 101.294C365.939 101.187 366.028 101.078 366.15 100.965C366.271 100.851 366.415 100.786 366.563 100.77C366.712 100.755 366.913 100.767 367.102 100.814C367.307 100.859 367.502 100.972 367.719 101.133C368.601 101.425 369.091 102.277 369.204 103.67C369.317 105.063 369.111 107.543 368.569 111.129C368.538 111.467 368.507 111.805 368.479 112.176C368.451 112.547 368.415 112.835 368.373 113.073C368.332 113.312 368.26 113.587 368.163 113.932C367.995 114.87 367.968 115.408 368.084 115.563C368.201 115.718 368.678 115.5 369.53 114.875C369.847 114.708 370.737 114.129 372.233 113.118C373.729 112.107 374.73 111.315 375.254 110.742C376.604 109.295 377.782 108.752 378.803 109.096C379.401 109.234 379.786 109.561 379.942 110.096C380.099 110.632 380.147 111.563 380.084 112.875C379.826 115.979 379.108 119.149 377.949 122.416C377.245 124.447 376.947 125.583 377.036 125.791C377.126 126.015 378.108 126.146 380.017 126.212C380.741 126.27 382.562 126.295 385.497 126.269C388.431 126.244 390.759 126.316 392.51 126.466C394.245 126.618 395.506 126.869 396.263 127.241C396.628 127.537 396.794 128.004 396.795 128.657C396.707 129.72 396.298 130.432 395.551 130.795C394.805 131.158 393.851 131.125 392.7 130.661C392.024 130.414 390.807 130.275 389.037 130.261C382.422 130.039 377.7 130.053 374.855 130.286L374.853 130.269ZM393.012 160.784C392.462 161.11 391.634 161.331 390.548 161.479C389.446 161.629 388.729 161.788 388.346 161.962C380.205 164.528 375.588 165.533 374.48 164.998C373.651 164.567 373.383 163.608 373.696 162.137C374.051 160.594 374.049 156.446 373.657 149.697C373.481 146.12 373.448 143.899 373.592 143.047C373.735 142.179 374.228 141.475 375.089 140.932C376.124 140.304 376.822 140.114 377.182 140.36C377.543 140.623 377.648 141.465 377.55 142.914C377.501 144.357 377.458 145.215 377.435 145.468C377.343 145.863 377.363 146.061 377.495 146.047C377.7 146.093 377.92 145.802 378.189 145.188C378.249 145.115 378.275 145.045 378.268 144.979C378.842 143.614 379.791 142.644 381.134 142.084C382.477 141.524 383.981 141.7 385.649 142.645C386.952 143.293 387.931 144.511 388.57 146.3C389.208 148.09 389.354 150.115 389.008 152.376C388.813 153.701 388.517 154.853 388.099 155.8C387.794 156.551 387.726 157.01 387.895 157.193C388.081 157.374 388.649 157.381 389.616 157.212C390.692 156.965 391.618 157.051 392.379 157.456C393.139 157.861 393.551 158.453 393.633 159.23C393.774 159.935 393.56 160.442 393.01 160.768L393.012 160.784ZM384.826 147.047C384.449 146.635 383.926 146.255 383.242 145.943C382.191 145.786 381.207 146.592 380.325 148.358C379.442 150.124 378.786 152.451 378.375 155.371C378.042 157.764 377.961 159.211 378.147 159.71C378.333 160.209 378.964 160.343 380.04 160.096C381.313 159.828 382.282 159.358 382.927 158.671C383.573 157.984 384.228 156.76 384.893 154.984C385.401 153.626 385.689 152.559 385.776 151.797C385.863 151.035 385.782 150.107 385.535 149.029C385.44 148.119 385.203 147.458 384.843 147.045L384.826 147.047Z" fill="white"/>
<path d="M428.481 150.686C428.057 151.249 427.566 151.502 427.04 151.423C426.79 151.583 426.205 151.411 425.269 150.924C424.333 150.438 423.518 149.821 422.822 149.075C422.126 148.329 421.918 147.782 422.214 147.417C422.304 146.37 422.763 145.653 423.611 145.312C424.458 144.955 425.427 145.121 426.548 145.788C427.173 146.174 427.747 146.716 428.282 147.362C428.803 148.026 429.095 148.581 429.142 149.027C429.129 149.547 428.904 150.106 428.48 150.669L428.481 150.686ZM422.242 130.855C421.788 130.184 421.478 129.297 421.33 128.208C421.182 127.12 421.104 126.058 421.148 125.05C421.176 124.043 421.233 123 421.305 121.939C421.464 115.985 421.667 111.882 421.92 109.681C422.171 107.463 422.582 106.132 423.119 105.691C424.259 104.784 425.353 104.87 426.366 105.934C427.395 106.996 427.848 108.286 427.757 109.801C427.661 110.798 427.631 111.939 427.684 113.238C427.72 114.538 427.695 115.728 427.627 116.823C427.558 117.917 427.355 119.16 427.035 120.565C426.374 123.645 426.033 125.956 426.015 127.53C425.97 130.278 425.337 131.716 424.115 131.845C423.333 131.861 422.715 131.541 422.261 130.87L422.242 130.855Z" fill="white"/>
<path d="M91.622 163.635C93.3898 163.148 94.9621 163.5 96.3191 164.662C97.5579 165.97 98.2782 167.583 98.445 169.489C98.6119 171.395 98.2003 173.194 97.2066 174.855C96.8808 175.407 96.5647 176.21 96.2911 177.259C96.0175 178.308 95.6666 179.098 95.2765 179.674C95.0993 179.894 94.8127 180.342 94.3853 181.04C93.9745 181.735 93.5714 182.347 93.2109 182.886C92.8487 183.41 92.5056 183.797 92.2129 184.029C91.7951 184.34 91.1505 184.559 90.2826 184.717C89.4148 184.876 88.6782 184.853 88.0727 184.65C86.8634 184.259 86.3613 183.291 86.601 181.761C86.4966 180.133 86.4392 178.951 86.427 178.2C86.4148 177.448 86.2254 176.281 85.857 174.681C85.4886 173.08 85.2166 171.922 85.0063 171.191C84.7961 170.461 84.4633 169.358 84.0228 167.866C83.5658 166.376 83.2913 165.351 83.1644 164.779C82.9437 163.949 82.9419 163.297 83.1591 162.822C83.3762 162.348 83.874 162.162 84.6706 162.278C85.3212 162.277 85.8242 162.458 86.1943 162.803C86.5644 163.149 86.8832 163.801 87.1838 164.756C87.4914 165.777 87.6938 166.275 87.8259 166.261C88.612 165.007 89.8889 164.136 91.6567 163.649L91.622 163.635ZM94.6454 169.538C94.6453 169.221 94.5463 168.913 94.35 168.633C94.1536 168.353 94.019 168.183 93.9425 168.091C93.8661 167.998 93.6489 167.837 93.3092 167.622C92.8966 167.348 92.4196 167.415 91.9167 167.869C91.412 168.307 90.9994 168.987 90.7067 169.854C90.4227 170.804 90.2716 171.907 90.2716 173.178C90.2717 174.449 90.4194 175.537 90.7114 176.41C91.005 177.299 91.3586 177.646 91.8068 177.465C92.7667 177.23 93.6319 174.981 94.4187 170.716C94.5698 170.249 94.6271 169.841 94.6436 169.522L94.6454 169.538ZM109.09 141.203C110.539 140.063 111.578 139.468 112.222 139.401C112.42 139.38 112.622 139.559 112.86 139.919C113.099 140.278 113.243 140.698 113.29 141.144C113.357 141.79 113.228 142.305 112.92 142.706C112.611 143.106 111.835 143.656 110.608 144.371L108.78 145.551L108.943 147.106C109.214 149.686 109.94 151.349 111.134 152.076C111.549 152.367 111.787 152.576 111.838 152.738C111.888 152.9 111.883 153.168 111.776 153.581C111.107 155.943 110.057 156.438 108.613 155.085C107.603 154.205 106.933 153.072 106.586 151.67C106.386 151.039 106.184 150.391 105.997 149.725C105.794 149.061 105.57 148.516 105.34 148.071C105.187 147.887 104.98 147.825 104.736 147.884C104.475 147.945 103.755 148.239 102.574 148.748C101.503 149.196 100.087 149.696 98.2782 150.272C96.4696 150.847 95.2855 151.173 94.7078 151.234C94.0051 151.375 93.5794 150.818 93.4142 149.564C93.2491 148.31 93.3108 147.468 93.5844 147.054C93.6365 146.915 94.3358 146.741 95.6823 146.532C97.0288 146.323 98.3605 146.132 99.6774 145.959C100.994 145.787 101.642 145.602 101.622 145.403C102.423 144.934 102.913 144.514 103.111 144.175C103.309 143.837 103.369 143.295 103.294 142.584C103.281 142.451 103.296 142.283 103.343 142.094C103.282 141.515 103.268 141.065 103.305 140.776C103.34 140.472 103.366 140.084 103.381 139.598C103.397 139.111 103.458 138.736 103.567 138.507C103.675 138.262 103.819 138.046 103.98 137.828C104.14 137.611 104.397 137.517 104.735 137.548C105.072 137.579 105.399 137.679 105.748 137.826C106.106 138.056 106.312 138.586 106.401 139.429C106.797 141.93 107.71 142.519 109.123 141.199L109.09 141.203ZM131.789 191.092C131.273 190.795 130.682 190.406 130.05 189.954C129.419 189.502 128.955 189.217 128.693 189.111C127.879 189.464 126.797 189.963 125.431 190.626C124.066 191.288 122.59 192.013 121.022 192.814C119.436 193.6 118.373 194.13 117.815 194.373C117.079 194.835 116.309 194.967 115.503 194.768C114.698 194.568 114.172 194.172 113.913 193.614C113.668 193.188 113.133 192.86 112.295 192.664C111.455 192.452 111.007 191.997 110.932 191.286C110.753 190.853 110.614 190.483 110.518 190.209C110.421 189.918 110.335 189.576 110.259 189.166C110.182 188.756 110.116 188.445 110.062 188.25C110.008 188.055 110 187.655 109.985 187.037C109.987 186.418 109.987 185.95 109.986 185.615C109.986 185.298 109.98 184.612 109.97 183.56C109.961 182.524 109.955 181.671 109.953 181.019C109.892 180.44 109.809 179.646 109.753 178.632C109.681 177.636 109.626 176.956 109.593 176.642C109.56 176.327 109.546 175.71 109.554 174.839C109.563 173.969 109.614 173.027 109.693 172.032C109.772 171.036 109.864 169.689 109.953 167.99C110.322 164.037 110.899 161.752 111.671 161.152C112.149 160.784 112.714 160.758 113.386 161.121C114.04 161.471 114.468 162.044 114.68 162.791C114.807 163.363 114.94 163.684 115.079 163.736C115.218 163.788 115.522 163.656 116.022 163.335C116.506 163.017 117.002 162.814 117.523 162.692C118.344 162.405 119.404 162.008 120.716 161.469C122.027 160.929 123.024 160.573 123.687 160.369C124.35 160.165 125.147 159.964 126.061 159.767C126.991 159.569 127.836 159.513 128.629 159.597C129.422 159.68 130.229 159.896 131.054 160.277C132.68 160.825 133.822 161.691 134.496 162.858C135.169 164.025 135.804 166.416 136.365 170.003C136.728 172.189 136.94 173.572 137.001 174.151C137.062 174.73 137.032 175.72 136.927 177.103C136.806 178.487 136.739 179.598 136.695 180.455C136.739 181.505 136.794 182.185 136.86 182.495C136.927 182.823 137.126 183.287 137.442 183.906C138.007 184.365 138.279 184.888 138.238 185.444C138.196 186.001 138.078 186.465 137.896 186.802C137.7 187.157 137.425 187.554 137.039 188.013C136.67 188.47 136.426 188.847 136.321 189.125C136.045 189.673 135.58 190.174 134.907 190.596C134.236 191.035 133.609 191.268 133.032 191.329C132.716 191.496 132.307 191.422 131.79 191.109L131.789 191.092ZM120.236 178.345C120.045 178.432 119.564 178.617 118.774 178.884C117.986 179.168 117.393 179.398 116.992 179.557C116.594 179.733 116.119 179.984 115.601 180.29C115.084 180.612 114.697 180.903 114.477 181.194C114.446 181.532 114.439 183.055 114.477 185.794C114.597 188.206 114.741 189.579 114.91 189.913C115.08 190.263 115.694 190.231 116.757 189.868C117.703 189.501 118.337 189.016 118.655 188.397C120.38 183.047 120.895 179.697 120.234 178.329L120.236 178.345ZM115.018 168.71C114.588 169.541 114.306 170.826 114.206 172.576C114.09 174.327 114.249 175.364 114.685 175.703C115.055 176.049 115.981 175.968 117.496 175.457C119.011 174.945 119.888 174.401 120.164 173.854C120.269 173.575 120.219 172.309 120.014 170.039C119.809 167.77 119.647 166.549 119.478 166.366C118.422 165.691 116.952 166.465 115.033 168.692L115.018 168.71ZM126.484 169.357C127.624 168.132 128.522 167.469 129.166 167.401C129.545 167.361 129.909 167.49 130.239 167.773C130.571 168.072 130.74 168.406 130.78 168.786C130.827 169.233 130.273 170.161 129.118 171.554C127.963 172.947 126.878 173.898 125.895 174.386C125.088 174.806 124.53 175.534 124.221 176.57C123.915 177.623 123.702 178.933 123.6 180.499C123.499 182.082 123.37 183.233 123.18 183.972C122.984 184.645 122.869 185.142 122.805 185.484C122.741 185.825 122.704 186.113 122.699 186.381C122.694 186.65 122.741 186.778 122.794 186.806C122.863 186.832 123.03 186.831 123.278 186.805C123.525 186.779 123.801 186.7 124.087 186.569C124.374 186.439 124.793 186.294 125.36 186.134C125.927 185.974 126.46 185.801 126.974 185.612C129.481 184.696 131.059 184.144 131.688 183.944C132.259 183.817 132.638 183.61 132.793 183.343C132.964 183.057 133.042 182.53 133.01 181.748C133.022 181.228 133.072 180.436 133.144 179.375C133.234 178.328 133.298 177.502 133.319 176.915C133.341 176.327 133.377 175.554 133.377 174.6C133.377 173.647 133.314 172.734 133.185 171.827C133.057 170.921 132.91 170 132.741 169.031C132.239 166.792 131.639 165.367 130.924 164.757C130.209 164.147 128.888 163.65 126.946 163.27C126.361 163.265 125.675 163.404 124.882 163.638C124.091 163.889 123.614 164.123 123.436 164.326C123.251 164.479 123.245 165.684 123.433 167.956C123.59 169.445 123.687 170.371 123.778 170.763C123.851 171.14 123.988 171.326 124.186 171.305C124.558 171.199 125.323 170.533 126.462 169.309L126.484 169.357ZM135.89 135.632L138.197 135.188C138.708 135.134 139.573 134.942 140.773 134.615C141.974 134.287 142.855 134.094 143.399 134.037C143.944 133.979 144.651 134.038 145.519 134.198C146.296 134.768 146.366 135.747 145.726 137.12C144.981 138.77 143.932 139.266 142.563 138.624C142.332 138.331 141.216 138.348 139.198 138.678C137.181 139.025 135.921 139.258 135.416 139.378C134.866 139.704 134.46 140.918 134.232 143.032C134.254 143.883 134.173 144.694 134.003 145.465C133.817 146.237 133.677 146.804 133.55 147.185C133.423 147.567 133.185 148.161 132.805 148.987C132.441 149.811 132.197 150.355 132.093 150.634C131.982 150.847 131.632 151.168 131.03 151.633C130.426 152.081 129.971 152.196 129.697 151.974C129.405 151.737 129.288 151.415 129.292 150.98C129.315 150.559 129.542 149.699 130.007 148.412C130.898 145.776 131.221 143.283 130.977 140.967C130.944 140.653 130.874 140.46 130.768 140.404C130.662 140.348 130.295 140.354 129.652 140.421C128.43 140.55 126.251 140.613 123.115 140.626C119.979 140.639 118.412 140.504 118.385 140.239C118.159 139.995 118.089 139.651 118.174 139.191C118.259 138.73 118.469 138.34 118.839 138.05C119.376 137.609 120.194 137.288 121.276 137.107C122.359 136.926 123.703 136.851 125.303 136.833C126.905 136.831 128.049 136.76 128.751 136.619C130.31 136.522 131.227 136.358 131.531 136.075C131.837 135.809 132.012 135.088 132.088 133.909C132.216 132.591 132.372 131.688 132.589 131.213C132.806 130.739 133.273 130.255 134.008 129.792C135.075 128.827 135.839 128.629 136.299 129.2C136.743 129.772 136.732 130.776 136.231 132.201C135.874 133.091 135.724 133.893 135.799 134.604L135.91 135.663L135.89 135.632Z" fill="white"/>
</svg>
