<svg width="790" height="225" viewBox="0 0 790 225" fill="none" xmlns="http://www.w3.org/2000/svg">
<g filter="url(#filter0_d_178_13198)">
<path d="M11.5289 11.8225L31.2206 213.682L722.617 197L722.024 117.604L790 65L721.235 86.6141L726.087 30.4611L11.5289 11.8225Z" fill="white"/>
</g>
<path d="M60.888 54.728H89.144V57.64H60.888V54.728ZM71.032 64.968H87.864V67.784H71.032V64.968ZM69.784 76.104H89.08V78.92H69.784V76.104ZM77.944 59.176H80.984V77.608H77.944V59.176ZM71.224 49.992L74.36 50.76C72.056 58.248 68.088 65.832 61.528 70.44C61.208 69.608 60.472 68.296 59.992 67.592C65.784 63.656 69.464 56.52 71.224 49.992ZM64.856 63.272H67.896V79.624H64.856V63.272ZM93.976 55.912H120.088V58.952H93.976V55.912ZM92.568 75.368H121.432V78.408H92.568V75.368ZM98.232 61.064L101.24 60.328C102.52 64.552 103.8 69.832 104.344 73.416L101.112 74.248C100.664 70.696 99.384 65.192 98.232 61.064ZM112.76 60.392L116.152 61C114.744 66.312 112.696 72.68 110.968 76.648L107.992 75.944C109.752 71.944 111.736 65.224 112.76 60.392ZM104.376 50.504L107.352 49.736C108.024 51.368 108.728 53.48 109.08 54.856L105.944 55.784C105.656 54.376 104.984 52.168 104.376 50.504ZM126.008 52.552L127.704 50.344C129.752 51.176 132.44 52.584 133.784 53.64L132.024 56.168C130.776 55.048 128.12 53.512 126.008 52.552ZM124.216 61.224L125.848 58.952C127.864 59.752 130.52 61.128 131.864 62.184L130.168 64.68C128.92 63.624 126.296 62.12 124.216 61.224ZM125.336 77.256C127.032 74.824 129.528 70.696 131.416 67.048L133.624 69.032C131.928 72.424 129.784 76.264 127.896 79.304L125.336 77.256ZM141.848 49.992H144.92V65.16H141.848V49.992ZM133.848 63.272H153.048V66.152H133.848V63.272ZM135.224 55.176H151.8V58.056H135.224V55.176ZM145.432 70.376L147.864 69.192C150.104 72.008 152.472 75.752 153.4 78.312L150.712 79.688C149.912 77.192 147.608 73.256 145.432 70.376ZM135.512 78.76L135.416 76.36L137.016 75.336L149.592 73.96C149.56 74.76 149.656 75.944 149.784 76.584C138.008 78.056 136.472 78.312 135.512 78.76ZM135.512 78.76C135.352 78.088 134.84 76.584 134.456 75.72C135.16 75.56 135.768 74.824 136.536 73.64C137.336 72.52 139.928 68.072 141.4 63.88L144.632 64.936C142.712 69.384 140.024 73.896 137.56 77.032V77.096C137.56 77.096 135.512 78.152 135.512 78.76ZM169.88 59.688H182.904V62.312H169.88V59.688ZM167.416 65.416H185.656V68.136H167.416V65.416ZM167.32 53.864H185.464V59.848H182.584V56.52H170.136V59.848H167.32V53.864ZM171.736 66.696H174.648C174.264 73.16 173.016 77.384 166.36 79.688C166.072 78.952 165.272 77.832 164.632 77.256C170.52 75.432 171.384 72.104 171.736 66.696ZM177.368 66.632H180.248V75.72C180.248 76.584 180.312 76.712 180.92 76.712C181.176 76.712 182.392 76.712 182.712 76.712C183.32 76.712 183.48 76.2 183.544 72.744C184.12 73.224 185.304 73.672 186.072 73.864C185.848 78.152 185.112 79.304 183.032 79.304C182.52 79.304 180.92 79.304 180.44 79.304C177.944 79.304 177.368 78.44 177.368 75.752V66.632ZM173.624 50.568L176.44 49.704C177.24 51.016 178.072 52.744 178.456 53.864L175.512 54.888C175.192 53.704 174.392 51.88 173.624 50.568ZM157.368 51.304H164.76V54.024H160.056V79.624H157.368V51.304ZM164.056 51.304H164.568L165.016 51.176L166.968 52.328C166.104 54.984 164.984 58.152 163.96 60.68C166.136 63.304 166.616 65.576 166.616 67.528C166.616 69.416 166.232 70.792 165.272 71.496C164.792 71.848 164.216 72.04 163.544 72.136C162.904 72.232 162.136 72.232 161.4 72.2C161.4 71.464 161.144 70.312 160.696 69.576C161.368 69.608 161.912 69.64 162.36 69.608C162.712 69.576 163.064 69.512 163.32 69.32C163.736 69 163.928 68.2 163.928 67.24C163.928 65.576 163.416 63.4 161.336 61C162.392 58.12 163.48 54.216 164.056 52.136V51.304ZM190.328 57.16H214.296V60.136H193.4V79.72H190.328V57.16ZM212.76 57.16H215.832V76.008C215.832 77.768 215.48 78.664 214.296 79.176C213.048 79.656 211.128 79.688 208.408 79.688C208.28 78.824 207.8 77.448 207.352 76.616C209.336 76.68 211.416 76.68 212.024 76.648C212.6 76.648 212.76 76.456 212.76 75.976V57.16ZM195.992 51.368H202.968V54.056H195.992V51.368ZM200.952 51.368H204.248C204.6 60.168 206.68 66.76 212.824 69.544C212.152 70.152 211.128 71.368 210.648 72.168C204.28 68.744 201.976 61.736 201.528 52.808H200.952V51.368ZM201.24 57.896L204.056 58.376C202.968 65.032 200.344 69.704 195.256 72.36C194.84 71.656 193.848 70.472 193.208 69.96C197.848 67.72 200.408 63.688 201.24 57.896ZM219.864 66.696C222.456 66.056 226.296 64.936 230.008 63.848L230.424 66.6C227.032 67.656 223.384 68.776 220.6 69.64L219.864 66.696ZM220.184 56.168H230.392V58.984H220.184V56.168ZM224.056 50.024H227V76.136C227 77.704 226.68 78.536 225.784 79.016C224.888 79.528 223.576 79.624 221.496 79.624C221.432 78.824 221.048 77.544 220.664 76.68C221.944 76.712 223.128 76.712 223.512 76.68C223.896 76.68 224.056 76.584 224.056 76.136V50.024ZM233.688 62.024H248.568V64.712H233.688V62.024ZM233.752 68.36H248.536V71.048H233.752V68.36ZM233.848 74.824H249.688V77.608H233.848V74.824ZM235.064 50.184L237.912 50.952C236.152 56.168 233.4 61.384 230.456 64.744C229.976 64.2 228.888 63.048 228.248 62.536C231.096 59.592 233.592 54.92 235.064 50.184ZM235.704 55.656H249.016V58.408H235.704V79.72H232.792V58.024L235.128 55.656H235.704ZM240.472 57.096H243.32V76.296H240.472V57.096ZM239.512 51.272L242.136 50.248C243.064 51.688 243.992 53.576 244.408 54.824L241.688 56.008C241.304 54.728 240.376 52.744 239.512 51.272ZM266.328 55.208H280.728V57.672H266.328V73.384H263.576V57.704L265.944 55.208H266.328ZM264.888 60.424H279.704V62.76H264.888V60.424ZM265.016 65.576H279.736V67.944H265.016V65.576ZM264.92 70.856H281.368V73.384H264.92V70.856ZM271.352 56.2H273.976V72.136H271.352V56.2ZM266.04 50.216L268.536 50.92C266.872 55.624 264.216 60.36 261.368 63.4C261.08 62.856 260.28 61.544 259.8 60.968C262.328 58.344 264.632 54.28 266.04 50.216ZM270.584 51.176L273.08 50.44C274.008 52.008 275.032 54.152 275.384 55.496L272.76 56.328C272.408 54.984 271.48 52.808 270.584 51.176ZM253.432 51.4L255.704 50.024C257.176 51.56 258.968 53.576 259.864 54.888L257.56 56.552C256.696 55.208 254.872 52.968 253.432 51.4ZM252.44 57.416H259.352V59.88H252.44V57.416ZM258.488 71.752C260.344 76.008 264.344 76.552 270.456 76.584C273.816 76.584 278.776 76.392 282.2 76.104C281.784 76.712 281.368 78.12 281.208 78.952C278.072 79.144 274.008 79.208 270.392 79.208C262.936 79.208 258.84 78.28 256.472 72.648L258.488 71.752ZM258.392 65.32H259.096L259.608 65.256L261.08 65.8C259.992 72.744 257.336 77.352 253.688 79.752C253.304 79.176 252.312 78.12 251.736 77.704C255.16 75.592 257.528 71.56 258.392 65.8V65.32ZM252.952 68.168V65.96L254.2 65.32H259.32L259.288 67.72H254.872C254.072 67.72 253.208 67.912 252.952 68.168ZM252.952 68.168C252.76 67.528 252.184 66.184 251.896 65.608C252.408 65.48 252.92 65.256 253.496 64.616C254.488 63.656 257.528 59.432 258.616 57.704V57.608L259.448 57.256L261.368 58.152C259.832 60.328 256.92 64.36 255.096 66.44C255.096 66.44 252.952 67.464 252.952 68.168ZM293.048 53.672H313.4V56.008H293.048V53.672ZM295.48 62.056H310.68V64.264H295.48V62.056ZM295.48 57.896H310.68V60.072H295.48V57.896ZM297.976 68.488V71.912H307.896V68.488H297.976ZM295.128 66.28H310.904V74.152H295.128V66.28ZM300.12 50.664L302.904 49.576C303.736 50.568 304.76 52.04 305.272 52.968L302.328 54.184C301.912 53.256 300.92 51.752 300.12 50.664ZM285.432 51.4L287.704 50.024C289.176 51.56 290.968 53.576 291.864 54.888L289.56 56.552C288.696 55.208 286.872 52.968 285.432 51.4ZM284.44 57.416H291.352V59.88H284.44V57.416ZM290.488 71.752C292.344 76.008 296.344 76.552 302.456 76.584C305.816 76.584 310.776 76.392 314.2 76.104C313.784 76.712 313.368 78.12 313.208 78.952C310.072 79.144 306.008 79.208 302.392 79.208C294.936 79.208 290.84 78.28 288.472 72.648L290.488 71.752ZM290.392 65.32H291.096L291.608 65.256L293.08 65.8C291.992 72.744 289.336 77.352 285.688 79.752C285.304 79.176 284.312 78.12 283.736 77.704C287.16 75.592 289.528 71.56 290.392 65.8V65.32ZM284.952 68.168V65.96L286.2 65.32H291.32L291.288 67.72H286.872C286.072 67.72 285.208 67.912 284.952 68.168ZM284.952 68.168C284.76 67.528 284.184 66.184 283.896 65.608C284.408 65.48 284.92 65.256 285.496 64.616C286.488 63.656 289.528 59.432 290.616 57.704V57.608L291.448 57.256L293.368 58.152C291.832 60.328 288.92 64.36 287.096 66.44C287.096 66.44 284.952 67.464 284.952 68.168ZM320.312 69.096H342.008V72.008H320.312V69.096ZM316.664 75.976H345.368V78.984H316.664V75.976ZM324.696 55.208H331.064V57.928H324.696V55.208ZM332.504 49.992H335.512V62.344C335.512 63.496 335.736 63.72 337.08 63.72C337.656 63.72 340.632 63.72 341.464 63.72C342.584 63.72 342.776 63.144 342.904 59.976C343.576 60.456 344.824 60.968 345.688 61.16C345.336 65.352 344.472 66.568 341.688 66.568C340.952 66.568 337.368 66.568 336.696 66.568C333.336 66.568 332.504 65.608 332.504 62.344V49.992ZM316.184 64.552C319.992 64.2 325.784 63.56 331.288 62.92L331.352 65.704C326.072 66.376 320.472 67.048 316.536 67.528L316.184 64.552ZM323.384 49.992H326.36V64.648L323.384 64.904V49.992ZM318.168 53.416H320.952V65.096L318.168 65.352V53.416ZM334.04 55.24H343.512V57.96H334.04V55.24ZM348.504 52.104H363.224V55.016H348.504V52.104ZM356.504 61.416H362.168V64.296H356.504V61.416ZM355.16 53.672H358.104V73.832H355.16V53.672ZM349.688 59.432H352.44V74.6H349.688V59.432ZM347.864 73.8C351.672 73.128 357.624 71.848 363.192 70.632L363.48 73.416C358.168 74.664 352.472 75.944 348.44 76.84L347.864 73.8ZM365.464 55.912H377.816V58.728H365.464V55.912ZM366.424 49.992L369.432 50.472C368.28 56.552 366.296 62.248 363.512 65.928C363.032 65.352 361.816 64.328 361.112 63.848C363.8 60.616 365.496 55.432 366.424 49.992ZM372.824 57.512L375.832 57.8C374.296 68.808 370.936 75.656 362.936 79.784C362.648 79.08 361.752 77.768 361.176 77.128C368.632 73.672 371.608 67.368 372.824 57.512ZM366.872 58.28C368.376 66.92 371.64 74.12 378.104 77.128C377.432 77.736 376.504 78.888 376.024 79.688C369.176 76.072 365.944 68.52 364.184 58.76L366.872 58.28ZM381.08 59.208H408.824V61.832H381.08V59.208ZM393.624 57.288H396.856V79.688H393.624V57.288ZM383.288 63.912H405.56V66.504H386.488V72.456H383.288V63.912ZM403.992 63.912H407.096V69.672C407.096 70.984 406.84 71.624 405.848 72.008C404.888 72.424 403.512 72.424 401.688 72.424C401.496 71.656 401.016 70.696 400.696 70.056C401.88 70.12 403.128 70.12 403.512 70.088C403.864 70.088 403.992 69.992 403.992 69.672V63.912ZM393.912 68.68L396.216 69.576C393.176 73.896 387.8 77.192 382.2 78.76C381.784 77.992 380.952 76.84 380.28 76.2C385.816 75.016 391.224 72.168 393.912 68.68ZM396.088 68.616C398.424 71.528 403.832 74.664 410.072 75.912C409.464 76.584 408.568 77.8 408.152 78.568C402.008 77 396.92 73.288 394.488 70.184L396.088 68.616ZM384.536 52.104H394.712V54.504H384.536V52.104ZM397.816 52.136H409.656V54.504H397.816V52.136ZM385.016 49.736L387.704 50.504C386.456 53.576 384.376 56.68 382.36 58.696C381.912 58.152 380.888 57.128 380.28 56.648C382.2 54.92 383.992 52.36 385.016 49.736ZM398.232 49.736L401.016 50.44C400.024 53.16 398.296 55.848 396.504 57.544C395.992 57.064 394.872 56.136 394.2 55.752C395.96 54.28 397.432 52.04 398.232 49.736ZM386.808 55.496L388.632 53.928C389.752 54.856 391.16 56.168 391.864 57.064L389.912 58.792C389.272 57.864 387.896 56.488 386.808 55.496ZM400.76 55.624L402.712 54.024C403.864 54.888 405.336 56.136 406.104 56.968L404.056 58.76C403.352 57.864 401.912 56.552 400.76 55.624ZM424.344 71.368L423.48 69.288C426.136 68.328 427.576 66.728 427.576 64.552L427.128 61.672L428.888 64.296C428.408 64.808 427.768 65 427.096 65C425.656 65 424.408 64.104 424.408 62.472C424.408 60.84 425.688 59.912 427.16 59.912C429.144 59.912 430.2 61.48 430.2 63.912C430.2 67.432 427.96 70.216 424.344 71.368ZM460.056 65.512H472.344V67.784H460.056V65.512ZM460.056 70.664H472.344V72.968H460.056V70.664ZM460.056 75.848H473.592V78.376H460.056V75.848ZM455.768 53.16H473.112V58.696H470.36V55.72H458.36V58.792H455.768V53.16ZM465.304 62.184H468.088V77.128H465.304V62.184ZM461.048 60.168H472.728V62.728H461.048V79.72H458.2V62.824L460.792 60.168H461.048ZM463.704 49.928L466.552 50.504C464.6 57.352 461.176 62.92 456.248 66.44C455.928 65.8 455.064 64.456 454.488 63.848C459 60.872 462.072 55.912 463.704 49.928ZM464.536 57.608L467.032 56.648C467.768 57.896 468.536 59.56 468.888 60.616L466.264 61.768C465.912 60.648 465.176 58.888 464.536 57.608ZM444.536 52.2H455.128V54.984H444.536V52.2ZM447.8 61.64H454.84V75.688H447.8V73.064H452.216V64.296H447.8V61.64ZM448.408 53.288L451.256 53.736C450.232 60.328 448.44 66.632 445.336 70.696C445.048 70.024 444.216 68.552 443.672 67.912C446.232 64.456 447.64 59.016 448.408 53.288ZM446.744 61.64H449.304V78.152H446.744V61.64ZM493.912 61.128H496.952V79.72H493.912V61.128ZM484.984 65.416H505.688V68.168H484.984V65.416ZM490.104 54.152V59.336H500.92V54.152H490.104ZM487.224 51.464H503.96V62.024H487.224V51.464ZM483.544 50.088L486.36 50.984C484.216 56.392 480.824 61.928 477.304 65.512C477.016 64.808 476.184 63.176 475.64 62.472C478.744 59.496 481.752 54.824 483.544 50.088ZM480.152 58.6L483.032 55.72L483.064 55.752V79.624H480.152V58.6ZM489.336 69.48L492.056 70.312C490.648 73.064 488.568 76.2 486.84 78.184C486.296 77.736 485.176 76.904 484.472 76.52C486.232 74.664 488.12 71.944 489.336 69.48ZM498.424 70.728L500.696 69.48C502.648 71.656 504.856 74.568 505.912 76.488L503.48 77.992C502.488 76.04 500.312 72.936 498.424 70.728ZM515.416 58.696H531.672V61.384H515.416V58.696ZM513.144 72.808H536.536V75.496H513.144V72.808ZM514.264 53.096H536.632V55.816H514.264V53.096ZM530.456 58.696H533.464C533.464 58.696 533.432 59.72 533.432 60.104C533.048 72.776 532.6 76.968 531.576 78.312C530.936 79.24 530.168 79.528 529.144 79.656C528.152 79.752 526.552 79.752 524.92 79.656C524.888 78.984 524.6 77.96 524.216 77.288C525.752 77.416 527.128 77.448 527.768 77.416C528.344 77.416 528.632 77.352 528.92 76.936C529.72 75.944 530.136 71.496 530.456 59.336V58.696ZM513.976 58.696H517.016C516.376 64.2 515.416 71.304 514.648 75.464H511.544C512.408 71.176 513.464 64.04 513.976 58.696ZM515.48 49.8L518.52 50.696C516.536 55.08 513.592 59.432 510.808 62.248C510.168 61.736 508.856 60.872 508.088 60.456C511.032 57.928 513.816 53.832 515.48 49.8ZM519.48 62.76L521.176 61.096C523.128 61.96 525.528 63.368 526.744 64.488L524.952 66.312C523.8 65.192 521.464 63.656 519.48 62.76ZM518.84 69.608L520.504 67.944C522.552 68.904 525.048 70.472 526.296 71.656L524.536 73.512C523.352 72.296 520.888 70.632 518.84 69.608ZM508.248 65.672H514.552V65.768H531.736V65.672H537.784V68.392H531.736V68.296H514.552V68.392H508.248V65.672ZM540.312 62.888H569.752V66.184H540.312V62.888ZM578.488 57.64H598.136V59.624H578.488V57.64ZM578.488 61.384H598.136V63.4H578.488V61.384ZM586.392 54.632H589.304V66.312H586.392V54.632ZM579.288 49.896L582.104 50.792C580.152 54.984 577.08 58.984 574.072 61.576C573.56 61.032 572.472 59.944 571.8 59.464C574.808 57.224 577.624 53.608 579.288 49.896ZM573.912 69.16H595.224V71.56H573.912V69.16ZM594.648 69.16H595.288L595.8 69.032L597.656 70.152C593.272 76.52 583.416 78.888 573.592 79.72C573.4 78.952 572.92 77.736 572.472 77.064C581.784 76.52 591.16 74.44 594.648 69.544V69.16ZM580.76 70.536C584.504 74.344 592.536 76.328 601.304 76.904C600.696 77.544 599.992 78.76 599.64 79.528C590.712 78.76 582.776 76.36 578.264 71.72L580.76 70.536ZM585.752 50.824L588.536 50.024C589.272 51.336 590.136 53.096 590.552 54.184L587.576 55.112C587.256 53.96 586.456 52.168 585.752 50.824ZM577.272 65.192H599.864V67.432H577.272V65.192ZM579.352 53.576H599.224V55.88H579.352V68.296H576.536V55.24L578.136 53.576H579.352ZM618.424 68.296H631.512V70.824H618.424V68.296ZM618.392 75.08H631.576V77.736H618.392V75.08ZM619.608 50.28H622.424V60.392H619.608V50.28ZM627.416 50.28H630.264V60.392H627.416V50.28ZM623.544 62.984H626.168V76.52H623.544V62.984ZM617.24 61.608H632.504V79.4H629.624V64.264H619.992V79.656H617.24V61.608ZM609.592 61.064L611.576 59.848C616.504 65.128 616.408 75.528 614.136 77.96C613.272 79.048 612.312 79.4 610.968 79.432C610.36 79.432 609.432 79.432 608.632 79.368C608.568 78.6 608.376 77.48 607.992 76.712C608.888 76.808 609.816 76.872 610.36 76.872C611.064 76.872 611.544 76.744 612.024 76.104C613.496 74.536 613.848 65.704 609.592 61.064ZM611.928 63.464L613.72 64.68C611.8 66.664 608.312 69.096 605.688 70.44C605.368 69.8 604.76 68.84 604.248 68.296C606.808 67.272 610.232 65.224 611.928 63.464ZM613.336 67.4L615.16 68.68C612.888 71.528 608.728 74.792 605.304 76.552C604.984 75.88 604.376 74.888 603.832 74.344C607.16 72.968 611.288 70.024 613.336 67.4ZM605.208 57.48L607.192 56.456C608.12 57.736 609.208 59.496 609.624 60.616L607.512 61.832C607.128 60.648 606.104 58.824 605.208 57.48ZM609.784 55.656L611.736 54.6C612.472 55.688 613.368 57.128 613.72 58.088L611.672 59.272C611.32 58.312 610.52 56.776 609.784 55.656ZM615.032 55.784L616.792 57.48C614.136 60.424 609.944 62.984 605.848 64.776C605.528 64.2 604.888 63.272 604.376 62.792C608.44 61.096 612.664 58.44 615.032 55.784ZM613.688 50.152L615.32 51.976C612.952 53.704 609.08 55.112 605.56 56.008C605.24 55.368 604.696 54.376 604.152 53.832C607.576 53.064 611.48 51.592 613.688 50.152ZM616.344 53.864H624.344V56.68H616.344V53.864ZM625.464 53.896H633.88V56.68H625.464V53.896ZM638.968 52.488H646.616V73.384H638.968V70.568H643.8V55.24H638.968V52.488ZM637.368 52.488H640.184V76.456H637.368V52.488ZM654.84 50.024H657.752V79.688H654.84V50.024ZM647.672 61.896H665.688V64.712H647.672V61.896ZM651.512 66.536L653.848 67.176C652.728 71.88 650.68 76.616 648.152 79.24C647.672 78.536 646.744 77.544 646.104 77C648.44 74.856 650.488 70.6 651.512 66.536ZM661.944 51.976L665.08 53.032C663.832 55.752 662.392 58.92 661.24 60.936L658.968 60.008C659.992 57.864 661.304 54.44 661.944 51.976ZM647.8 53.224L650.2 52.136C651.544 54.536 652.856 57.64 653.304 59.624L650.68 60.872C650.264 58.856 649.048 55.656 647.8 53.224ZM658.872 67.656L661.24 66.472C663.16 70.088 665.304 74.792 666.136 77.672L663.576 79.112C662.808 76.136 660.76 71.304 658.872 67.656ZM61.72 101.576H72.856V104.232H61.72V101.576ZM65.272 123.304H73.848V125.8H65.272V123.304ZM65.272 118.088H73.912V120.424H65.272V118.088ZM60.28 107.528H76.76V110.184H60.28V107.528ZM66.328 98.248H69.144V109.256H66.328V98.248ZM74.776 99.24L77.528 100.04C74.136 108.2 68.472 114.504 61.336 118.376C60.984 117.736 60.088 116.488 59.544 115.88C66.456 112.52 71.8 106.728 74.776 99.24ZM66.232 112.968H73.784V115.432H66.232V127.592H63.48V114.728L65.144 112.968H66.232ZM72.568 112.968H75.48V127.144H72.568V112.968ZM77.976 99.816H87.48V102.664H80.952V127.688H77.976V99.816ZM86.744 99.816H87.32L87.8 99.688L89.976 101.064C88.728 104.104 87.128 107.784 85.688 110.696C88.76 113.608 89.496 116.136 89.496 118.344C89.496 120.52 89.016 122.024 87.8 122.824C87.192 123.24 86.424 123.496 85.592 123.592C84.76 123.688 83.672 123.72 82.68 123.656C82.648 122.824 82.328 121.512 81.848 120.712C82.776 120.776 83.608 120.808 84.248 120.776C84.792 120.744 85.304 120.648 85.688 120.424C86.36 120.04 86.584 119.176 86.584 118.056C86.584 116.136 85.688 113.736 82.648 111.08C84.184 107.848 85.848 103.272 86.744 100.808V99.816ZM103.032 109.448H105.912V124.68C105.912 126.056 105.624 126.76 104.696 127.176C103.768 127.56 102.328 127.592 100.344 127.592C100.216 126.888 99.8 125.864 99.416 125.192C100.76 125.256 102.072 125.224 102.488 125.224C102.936 125.224 103.032 125.096 103.032 124.68V109.448ZM95.704 109.448H104.6V112.008H95.704V109.448ZM108.568 113H111.576V123.496C111.576 124.616 111.832 124.776 113.24 124.776C113.848 124.776 116.952 124.776 117.816 124.776C119.032 124.776 119.256 124.232 119.416 120.968C120.056 121.448 121.272 121.928 122.104 122.088C121.72 126.28 120.888 127.464 118.072 127.464C117.304 127.464 113.592 127.464 112.856 127.464C109.464 127.464 108.568 126.568 108.568 123.528V113ZM101.496 101.256L103.96 100.328C105.432 102.6 107.192 105.672 107.992 107.592L105.368 108.712C104.664 106.76 102.936 103.592 101.496 101.256ZM110.392 102.216H119.896V104.84H110.392V102.216ZM110.424 116.552H120.216V119.272H110.424V116.552ZM93.912 107.88C93.752 107.272 93.272 105.864 92.952 105.096C93.496 104.968 94.04 104.52 94.68 103.816C95.32 103.112 97.368 100.552 98.648 97.992L101.72 98.952C99.992 101.736 97.688 104.584 95.672 106.376V106.408C95.672 106.408 93.912 107.304 93.912 107.88ZM93.912 107.88L93.816 105.672L95.32 104.776L105.336 104.04C105.432 104.808 105.688 105.832 105.88 106.44C96.088 107.336 94.776 107.528 93.912 107.88ZM94.264 109.448H97.048V117.064C97.048 120.392 96.664 124.872 94.424 127.784C94.008 127.208 92.888 126.12 92.312 125.736C94.104 123.24 94.264 119.784 94.264 117.032V109.448ZM96.568 121.288C98.424 120.456 101.144 119.048 103.864 117.672L104.44 119.528C102.072 121.064 99.64 122.6 97.528 123.848L96.568 121.288ZM97.048 114.856L98.616 113.448C100.152 114.408 102.168 115.816 103.224 116.68L101.592 118.312C100.6 117.384 98.584 115.912 97.048 114.856ZM108.568 98.056H111.576V107.816C111.576 108.968 111.8 109.384 112.824 109.384C113.688 109.384 117.304 109.384 118.232 109.384C119.064 109.384 120.376 109.32 121.048 109.16C121.08 109.96 121.208 111.08 121.304 111.784C120.728 111.944 119.48 112.008 118.296 112.008C117.368 112.008 113.464 112.008 112.76 112.008C109.496 112.008 108.568 110.856 108.568 107.72V98.056ZM138.936 105.384V107.592H148.568V105.384H138.936ZM138.936 101.16V103.304H148.568V101.16H138.936ZM136.024 98.952H151.608V109.8H136.024V98.952ZM134.2 111.656H152.92V114.152H134.2V111.656ZM133.432 116.488H153.528V119.112H133.432V116.488ZM145.848 113.832H148.888V124.552C148.888 126.056 148.6 126.824 147.512 127.24C146.456 127.688 144.888 127.72 142.584 127.72C142.456 126.888 142.008 125.768 141.624 125C143.224 125.064 144.792 125.064 145.24 125.032C145.72 125 145.848 124.872 145.848 124.488V113.832ZM135.928 120.712L138.04 119.304C139.48 120.584 141.208 122.44 142.04 123.656L139.768 125.288C139 124.04 137.336 122.088 135.928 120.712ZM131.448 105.096L134.104 106.184C131.864 110.056 128.312 114.088 125.048 116.648C124.824 116.008 124.024 114.344 123.544 113.64C126.424 111.56 129.528 108.328 131.448 105.096ZM130.744 98.056L133.624 99.208C131.608 102.056 128.472 105.128 125.528 107.048C125.208 106.344 124.472 105.128 123.992 104.52C126.488 102.92 129.368 100.264 130.744 98.056ZM128.44 111.4L131.256 108.584L131.384 108.648V127.688H128.44V111.4ZM157.912 114.664H173.016V117.32H157.912V114.664ZM164.024 111.464H166.904V124.104H164.024V111.464ZM156.824 123.432C160.92 122.824 167.352 121.704 173.368 120.616L173.528 123.24C167.864 124.328 161.752 125.48 157.496 126.28L156.824 123.432ZM157.112 100.008H173.688V102.664H157.112V100.008ZM166.776 104.52L168.952 103.208C170.712 105.352 172.792 108.264 173.656 110.12L171.352 111.624C170.488 109.736 168.504 106.728 166.776 104.52ZM175.256 100.872H178.04V120.264H175.256V100.872ZM181.496 98.44H184.44V123.496C184.44 125.224 184.056 126.056 183 126.536C181.88 127.016 180.152 127.112 177.752 127.112C177.592 126.312 177.112 124.968 176.664 124.168C178.456 124.232 180.216 124.232 180.76 124.2C181.336 124.2 181.496 124.04 181.496 123.496V98.44ZM158.776 111.176C158.584 110.568 158.136 109.16 157.784 108.392C158.296 108.264 158.776 107.752 159.32 106.984C159.864 106.248 161.56 103.464 162.52 100.712L165.464 101.864C164.152 104.648 162.232 107.624 160.504 109.608V109.672C160.504 109.672 158.776 110.568 158.776 111.176ZM158.776 111.176L158.712 109.032L160.184 108.136L170.488 107.336C170.84 108.104 171.384 109.096 171.736 109.704C161.016 110.664 159.672 110.792 158.776 111.176ZM206.584 98.088H209.304V120.36H206.584V98.088ZM195.64 110.984L214.68 103.56L215.832 106.184L196.792 113.672L195.64 110.984ZM199.64 101.384H202.52V122.44C202.52 124.328 202.872 124.68 205.08 124.68C206.168 124.68 211.448 124.68 212.728 124.68C214.68 124.68 215 123.848 215.256 120.136C215.96 120.616 217.144 121.128 217.976 121.288C217.528 125.896 216.6 127.4 212.888 127.4C211.896 127.4 205.88 127.4 204.952 127.4C200.856 127.4 199.64 126.408 199.64 122.44V101.384ZM195.16 98.12L198.04 99.016C195.928 104.456 192.632 110.024 189.176 113.64C188.888 112.904 188.024 111.272 187.512 110.568C190.552 107.56 193.464 102.856 195.16 98.12ZM191.864 106.632L194.712 103.752L194.744 103.784V127.656H191.864V106.632ZM213.816 104.264H213.464L214.584 103.432L216.856 104.168L216.76 104.648C216.632 109.288 216.28 115.4 215.64 119.272L213.176 118.568C213.592 115.048 213.784 108.84 213.816 104.264ZM230.84 104.552H236.92V106.792H230.84V104.552ZM240.76 104.552H246.904V106.792H240.76V104.552ZM245.976 99.784H248.856V124.008C248.856 125.8 248.472 126.664 247.288 127.112C246.104 127.624 244.152 127.656 241.144 127.656C241.016 126.856 240.536 125.512 240.12 124.744C242.264 124.84 244.504 124.808 245.144 124.776C245.752 124.776 245.976 124.584 245.976 123.976V99.784ZM229.08 99.784H231.896V127.624H229.08V99.784ZM231 99.784H237.912V111.72H231V109.384H235.576V102.152H231V99.784ZM247.416 99.784V102.152H242.04V109.384H247.416V111.72H239.608V99.784H247.416ZM226.104 98.12L228.92 98.92C227.096 104.488 224.184 110.312 220.984 114.088C220.728 113.352 219.96 111.688 219.48 110.888C222.168 107.784 224.632 102.952 226.104 98.12ZM223.544 106.376L226.36 103.592L226.424 103.656V127.688H223.544V106.376ZM267.352 109.128H279.704V110.728H267.352V109.128ZM267.352 112.264H279.768V113.864H267.352V112.264ZM266.392 115.464H281.048V117.384H266.392V115.464ZM262.328 102.92L264.824 103.656C263.192 106.952 260.696 110.216 258.296 112.328C257.912 111.88 256.952 110.856 256.408 110.408C258.712 108.552 260.984 105.736 262.328 102.92ZM267.512 102.824L270.008 103.528C268.664 106.6 266.552 109.736 264.536 111.752C264.088 111.304 263.064 110.44 262.488 110.056C264.504 108.264 266.392 105.544 267.512 102.824ZM272.76 106.6H275.32V116.168H272.76V106.6ZM264.152 120.168H266.904V124.2C266.904 124.936 267.128 125.064 268.344 125.064C268.92 125.064 271.704 125.064 272.44 125.064C273.432 125.064 273.624 124.744 273.72 122.472C274.296 122.888 275.448 123.272 276.184 123.464C275.896 126.696 275.096 127.496 272.728 127.496C272.088 127.496 268.664 127.496 268.024 127.496C264.888 127.496 264.152 126.76 264.152 124.232V120.168ZM266.936 119.272L268.696 117.608C270.52 118.44 272.792 119.752 273.944 120.776L272.088 122.6C271 121.576 268.792 120.136 266.936 119.272ZM274.968 120.68L277.208 119.592C279 121.416 280.92 123.944 281.688 125.736L279.288 126.952C278.552 125.224 276.728 122.568 274.968 120.68ZM260.152 119.944L262.584 120.84C261.88 123.08 260.792 125.512 258.936 127.048L256.632 125.576C258.296 124.232 259.512 121.992 260.152 119.944ZM267.992 105.768H280.568V107.656H266.648L267.992 105.768ZM265.784 108.008L268.312 105.896V118.344H265.784V108.008ZM255.96 100.392H281.528V102.888H255.96V100.392ZM254.328 100.392H257.112V109.928C257.112 115.016 256.696 122.728 254.104 127.752C253.624 127.208 252.408 126.28 251.8 125.992C254.136 121.32 254.328 114.664 254.328 109.928V100.392ZM260.312 108.36L262.84 105.832L262.872 105.864V118.344H260.312V108.36ZM265.656 98.248L268.312 97.416C269.208 98.6 270.136 100.2 270.52 101.32L267.736 102.28C267.384 101.16 266.52 99.464 265.656 98.248ZM271.704 103.656L273.848 102.76C274.584 103.592 275.352 104.68 275.736 105.416L273.464 106.44C273.144 105.64 272.408 104.488 271.704 103.656ZM284.888 102.024H313.144V104.872H284.888V102.024ZM292.696 113.512H307.544V116.072H292.696V113.512ZM306.488 108.072H309.464V124.2C309.464 125.832 309.144 126.696 307.96 127.176C306.808 127.656 305.016 127.656 302.328 127.656C302.2 126.824 301.784 125.544 301.368 124.744C303.288 124.84 305.208 124.808 305.784 124.808C306.328 124.776 306.488 124.616 306.488 124.168V108.072ZM295.128 97.992L298.232 98.696C296.056 105.704 292.216 112.808 286.2 117.064C285.752 116.36 284.792 115.304 284.216 114.728C289.816 110.92 293.464 104.2 295.128 97.992ZM292.536 118.856H307.544V121.416H292.536V118.856ZM292.504 108.072H307.256V110.76H292.504V108.072ZM290.872 108.072H293.912V116.584C293.912 120.264 293.304 125 290.04 127.912C289.656 127.272 288.472 125.992 287.896 125.576C290.584 123.08 290.872 119.56 290.872 116.552V108.072ZM319.352 103.176H329.112V124.36H319.352V121.672H326.36V105.832H319.352V103.176ZM317.56 103.176H320.344V126.824H317.56V103.176ZM319.192 111.912H327.736V114.568H319.192V111.912ZM322.328 97.96L325.592 98.472C324.92 100.552 324.12 102.792 323.48 104.264L321.048 103.688C321.56 102.088 322.104 99.656 322.328 97.96ZM333.528 103.016H343.16V105.8H333.528V103.016ZM342.104 103.016H344.92C344.92 103.016 344.92 104.072 344.888 104.456C344.44 119.016 344.024 124.04 342.712 125.672C341.944 126.728 341.144 127.048 339.928 127.208C338.776 127.336 336.856 127.272 335.032 127.208C334.968 126.344 334.584 125.064 334.04 124.264C336.12 124.424 338.04 124.456 338.808 124.456C339.448 124.456 339.832 124.36 340.184 123.912C341.24 122.792 341.72 117.384 342.104 103.624V103.016ZM333.944 97.928L336.856 98.6C335.64 103.368 333.656 108.136 331.48 111.176C330.936 110.696 329.688 109.832 328.984 109.448C331.16 106.664 332.92 102.28 333.944 97.928ZM332.44 111.72L334.808 110.376C336.504 112.616 338.68 115.72 339.704 117.608L337.112 119.176C336.184 117.224 334.104 114.056 332.44 111.72ZM349.752 99.304H352.6V119.496H349.752V99.304ZM351.32 99.304H359.48V117.928H351.32V115.208H356.664V101.992H351.32V99.304ZM351.256 106.984H358.136V109.64H351.256V106.984ZM360.664 99.24H374.904V101.896H360.664V99.24ZM373.944 99.24H376.824C376.824 99.24 376.824 99.944 376.792 100.328C376.504 104.872 376.184 106.824 375.48 107.592C374.936 108.168 374.296 108.392 373.464 108.456C372.696 108.52 371.256 108.552 369.784 108.488C369.752 107.72 369.464 106.696 369.048 105.992C370.36 106.12 371.576 106.152 372.088 106.152C372.536 106.152 372.792 106.088 373.048 105.864C373.496 105.384 373.752 103.816 373.944 99.624V99.24ZM365.944 100.072H368.92C368.408 104.808 366.968 107.944 361.24 109.672C360.952 109 360.216 107.944 359.608 107.432C364.504 106.12 365.56 103.72 365.944 100.072ZM364.472 112.264V116.52H372.888V112.264H364.472ZM361.624 109.8H375.864V118.984H361.624V109.8ZM357.624 121.032L360.44 120.712C360.856 122.792 361.208 125.48 361.24 127.144L358.264 127.592C358.264 125.928 358.008 123.144 357.624 121.032ZM364.472 120.936L367.288 120.424C368.12 122.44 368.984 125.16 369.272 126.856L366.264 127.496C366.008 125.832 365.24 123.048 364.472 120.936ZM371.032 120.84L373.752 119.752C375.192 121.832 376.984 124.648 377.752 126.472L374.84 127.752C374.136 125.928 372.44 122.984 371.032 120.84ZM352.312 119.976L355.224 120.808C354.136 123.208 352.536 126.024 351.128 127.848L348.216 126.6C349.592 125 351.256 122.344 352.312 119.976ZM396.216 99.432H409.464V101.992H396.216V99.432ZM399.544 111.592V114.12H405.912V111.592H399.544ZM399.544 116.328V118.856H405.912V116.328H399.544ZM399.544 106.888V109.384H405.912V106.888H399.544ZM397.048 104.552H408.504V121.192H397.048V104.552ZM401.336 100.776L404.504 101.128C404.024 102.984 403.544 105 403.128 106.344L400.696 105.864C400.984 104.424 401.272 102.248 401.336 100.776ZM399.832 121.864L402.264 123.304C400.92 124.936 398.776 126.728 396.952 127.752C396.504 127.24 395.64 126.408 395 125.928C396.824 124.968 398.808 123.24 399.832 121.864ZM403.704 123.272L405.912 121.928C407.32 123.112 409.08 124.808 409.944 125.96L407.64 127.496C406.872 126.312 405.144 124.52 403.704 123.272ZM389.272 111.528L391.32 110.952C391.896 111.944 392.504 113.288 392.76 114.152L390.616 114.856C390.36 113.928 389.816 112.552 389.272 111.528ZM386.36 117.064H395.32V118.824H386.36V117.064ZM386.36 120.36H395.384V122.152H386.36V120.36ZM390.232 114.568H392.28V124.84H390.232V114.568ZM387.48 113.608H395.672V115.56H387.48V127.368H385.208V115.528L386.904 113.608H387.48ZM386.488 110.824L388.632 111.4C387.704 114.376 386.136 117.448 384.408 119.432C384.152 118.984 383.448 117.928 383 117.48C384.504 115.816 385.752 113.32 386.488 110.824ZM382.776 103.752H395.32V110.76H382.776V108.424H392.6V106.056H382.776V103.752ZM392.984 98.536L395.224 100.584C391.736 101.608 386.68 102.28 382.456 102.6C382.36 101.992 381.976 101 381.688 100.424C385.688 100.072 390.36 99.4 392.984 98.536ZM381.656 100.424H384.216V110.76C384.216 115.592 383.928 122.728 382.104 127.464C381.624 127.048 380.472 126.472 379.832 126.248C381.56 121.736 381.656 115.272 381.656 110.76V100.424ZM386.424 123.688H395.896V125.736H386.424V123.688ZM424.344 119.368L423.48 117.288C426.136 116.328 427.576 114.728 427.576 112.552L427.128 109.672L428.888 112.296C428.408 112.808 427.768 113 427.096 113C425.656 113 424.408 112.104 424.408 110.472C424.408 108.84 425.688 107.912 427.16 107.912C429.144 107.912 430.2 109.48 430.2 111.912C430.2 115.432 427.96 118.216 424.344 119.368ZM450.936 105.352H467.096V107.944H450.936V105.352ZM452.504 110.888H455.288V123.592H452.504V110.888ZM454.04 110.888H465.496V121.32H454.04V118.792H462.68V113.416H454.04V110.888ZM445.624 99.592H471.192V102.472H448.568V127.752H445.624V99.592ZM469.432 99.592H472.408V124.072C472.408 125.768 472.024 126.696 470.936 127.176C469.848 127.656 468.184 127.752 465.432 127.72C465.304 126.92 464.856 125.544 464.376 124.776C466.264 124.84 468.12 124.84 468.664 124.808C469.24 124.776 469.432 124.584 469.432 124.04V99.592ZM488.6 108.008H504.792V110.664H488.6V108.008ZM487.352 101.64H505.752V104.328H487.352V101.64ZM487.448 113.736H505.624V116.424H487.448V113.736ZM495.064 97.96H498.04V109.512H495.064V97.96ZM499.192 110.248H502.168V124.328C502.168 125.896 501.816 126.728 500.728 127.176C499.608 127.624 497.944 127.656 495.448 127.656C495.32 126.856 494.872 125.64 494.456 124.84C496.248 124.904 498.008 124.904 498.52 124.872C499.032 124.872 499.192 124.744 499.192 124.264V110.248ZM489.112 118.632L491.608 117.224C493.048 118.824 494.84 121.096 495.672 122.568L492.984 124.168C492.248 122.696 490.552 120.296 489.112 118.632ZM478.68 100.04H486.776V121.448H478.68V118.728H483.96V102.76H478.68V100.04ZM478.808 109.256H485.304V111.944H478.808V109.256ZM477.24 100.04H480.056V124.168H477.24V100.04ZM507.832 110.952L533.08 103.144L533.848 105.8L508.664 113.704L507.832 110.952ZM522.424 98.056H525.464V120.712H522.424V98.056ZM513.56 100.2H516.536V121.64C516.536 124.008 517.08 124.456 520.248 124.456C521.752 124.456 529.08 124.456 530.872 124.456C533.816 124.456 534.328 123.496 534.776 119.048C535.512 119.528 536.76 120.04 537.592 120.232C537.016 125.48 535.928 127.208 531.032 127.208C529.752 127.208 521.496 127.208 520.28 127.208C515.128 127.208 513.56 126.088 513.56 121.576V100.2ZM532.312 103.592H531.96L533.08 102.76L535.352 103.496L535.224 103.976C535.032 108.456 534.616 114.344 533.912 118.088L531.416 117.416C531.928 113.992 532.216 108.04 532.312 103.592ZM545.528 114.984H567.288V117.608H545.528V114.984ZM541.304 103.368H562.36V106.12H541.304V103.368ZM550.52 109.192H565.112V111.816H550.52V109.192ZM566.072 114.984H569.08C569.08 114.984 569.048 115.816 568.984 116.2C568.408 122.856 567.832 125.576 566.808 126.632C566.136 127.336 565.464 127.592 564.44 127.688C563.608 127.752 562.04 127.752 560.376 127.688C560.344 126.856 559.992 125.672 559.512 124.904C561.048 125.064 562.488 125.096 563.128 125.064C563.672 125.064 563.992 125.032 564.312 124.744C565.016 124.04 565.592 121.576 566.072 115.432V114.984ZM559.096 119.08L561.176 118.312C562.136 119.624 563.096 121.416 563.448 122.568L561.24 123.432C560.888 122.28 559.96 120.424 559.096 119.08ZM545.112 99.112L547.8 98.056C548.984 99.304 550.36 101.096 551 102.312L548.152 103.528C547.608 102.312 546.296 100.456 545.112 99.112ZM549.528 119.88L551.992 119.592C552.6 121.64 552.92 124.296 552.92 126.056L550.296 126.408C550.392 124.68 550.072 121.992 549.528 119.88ZM554.296 119.624L556.632 119.08C557.432 120.84 558.2 123.144 558.456 124.68L555.96 125.32C555.768 123.784 555.032 121.416 554.296 119.624ZM545.336 119.016L547.896 119.848C547.192 122.568 546.136 125.576 544.216 127.56L541.88 125.896C543.576 124.232 544.76 121.512 545.336 119.016ZM554.872 97.96L557.976 98.728C555.096 107.784 550.104 116.296 541.368 121.256C541.016 120.52 540.248 119.336 539.736 118.664C547.768 114.344 552.568 106.184 554.872 97.96ZM561.72 103.368H564.536C564.088 105.672 563.512 108.392 563 110.184L560.344 109.768C560.824 108.072 561.368 105.448 561.72 103.368ZM563.992 109.192H566.808C566.36 111.464 565.816 114.184 565.304 115.944L562.616 115.624C563.128 113.864 563.672 111.272 563.992 109.192ZM577.976 123.048H595.832V125.992H577.976V123.048ZM576.472 113.928H597.496V127.624H594.264V116.808H579.544V127.688H576.472V113.928ZM589.912 102.92L592.28 101.32C595.32 104.072 599.128 108.04 600.792 110.728L598.232 112.584C596.664 109.896 593.016 105.8 589.912 102.92ZM575.032 111.464C574.904 110.856 574.392 109.32 574.04 108.52C574.84 108.36 575.64 107.688 576.696 106.664C577.848 105.608 581.496 101.608 583.864 97.704L586.904 99.016C583.896 103.208 580.28 107.144 576.92 109.896V109.992C576.92 109.992 575.032 110.888 575.032 111.464ZM575.032 111.464L575 109.096L577.144 108.008L597.272 107.176C597.304 108.008 597.432 109.256 597.56 109.896C578.648 110.888 576.536 110.952 575.032 111.464ZM619 103.88H625.016V105.416H619V103.88ZM619 106.312H625.016V107.848H619V106.312ZM614.296 121.064H630.52V122.984H614.296V121.064ZM618.04 101.192H625.752V102.888H618.04V101.192ZM620.792 110.376V112.168H623.096V110.376H620.792ZM618.936 108.872H625.016V113.672H618.936V108.872ZM614.84 117.896H628.152V116.488H612.888V114.664H630.968V119.688H614.84V117.896ZM613.976 117.896H616.76C616.344 119.656 615.832 121.608 615.384 122.984H612.568C613.08 121.544 613.592 119.56 613.976 117.896ZM629.592 121.064H632.44C632.44 121.064 632.376 121.832 632.248 122.184C631.704 124.872 631.096 126.28 630.2 126.984C629.496 127.528 628.728 127.656 627.544 127.688C626.552 127.688 624.6 127.688 622.584 127.592C622.52 126.92 622.2 125.96 621.752 125.32C623.736 125.512 625.848 125.544 626.68 125.544C627.352 125.544 627.704 125.512 628.056 125.288C628.632 124.872 629.112 123.688 629.56 121.384L629.592 121.064ZM604.664 100.424L606.392 98.408C608.024 99.304 610.008 100.68 611 101.736L609.144 104.008C608.248 102.92 606.264 101.416 604.664 100.424ZM603.96 108.968L605.656 106.888C607.288 107.688 609.368 109 610.36 109.992L608.6 112.296C607.672 111.304 605.592 109.864 603.96 108.968ZM604.632 125.768C605.816 123.272 607.448 119.176 608.664 115.496L611.032 117.064C609.976 120.424 608.6 124.296 607.32 127.336L604.632 125.768ZM615.672 105.448L617.048 104.968C617.656 105.992 618.328 107.368 618.52 108.2L617.144 108.84C616.888 107.944 616.28 106.504 615.672 105.448ZM615.928 109.608L617.24 109.16C617.752 110.216 618.232 111.624 618.328 112.552L616.952 113.128C616.824 112.2 616.408 110.728 615.928 109.608ZM611.352 109.736L612.952 110.12C612.664 111.688 612.184 113.384 611.576 114.504C611.288 114.216 610.584 113.768 610.2 113.544C610.808 112.488 611.128 111.08 611.352 109.736ZM611.192 104.456C611.096 104.168 610.776 103.464 610.552 103.112C610.968 103.048 611.224 102.728 611.544 102.248C611.896 101.832 613.048 99.944 613.528 98.248L615.32 98.856C614.552 100.616 613.4 102.44 612.28 103.688V103.72C612.28 103.72 611.192 104.168 611.192 104.456ZM611.192 104.456L611.128 103.112L612.216 102.568L615.864 102.376C615.736 102.856 615.608 103.528 615.608 103.912C612.376 104.168 611.608 104.296 611.192 104.456ZM611.256 108.808C611.192 108.52 610.872 107.784 610.648 107.432C611.16 107.336 611.576 106.92 612.152 106.312C612.792 105.704 614.744 103.272 615.864 100.968L617.56 101.736C616.184 103.976 614.36 106.344 612.504 107.976V108.04C612.504 108.04 611.256 108.488 611.256 108.808ZM611.256 108.808L611.16 107.4L612.152 106.856L617.112 106.312C617.176 106.728 617.304 107.4 617.464 107.752C612.632 108.392 611.768 108.584 611.256 108.808ZM613.496 110.056L614.936 109.704C615.32 110.92 615.608 112.456 615.64 113.416L614.136 113.928C614.104 112.904 613.848 111.304 613.496 110.056ZM620.152 98.76L622.168 98.312C622.648 99.048 623.192 100.168 623.448 100.808L621.336 101.384C621.144 100.648 620.6 99.56 620.152 98.76ZM630.712 105.416L632.056 104.936C632.728 105.992 633.4 107.432 633.656 108.328L632.248 108.904C631.992 107.976 631.352 106.536 630.712 105.416ZM630.936 109.576L632.248 109.096C632.856 110.376 633.4 112.04 633.56 113.096L632.152 113.704C632.024 112.616 631.512 110.888 630.936 109.576ZM626.392 109.608L627.992 109.992C627.704 111.56 627.224 113.256 626.616 114.408C626.328 114.088 625.656 113.64 625.24 113.416C625.848 112.36 626.168 110.952 626.392 109.608ZM626.232 104.424C626.136 104.136 625.816 103.432 625.624 103.048C625.976 103.016 626.264 102.696 626.584 102.216C626.936 101.768 628.056 99.912 628.568 98.184L630.328 98.856C629.624 100.552 628.44 102.376 627.32 103.624V103.656C627.32 103.656 626.232 104.136 626.232 104.424ZM626.232 104.424L626.168 103.08L627.256 102.536L630.872 102.344C630.744 102.824 630.648 103.496 630.648 103.88C627.416 104.136 626.648 104.264 626.232 104.424ZM626.328 108.776C626.232 108.456 625.912 107.752 625.688 107.368C626.2 107.304 626.648 106.888 627.192 106.248C627.832 105.672 629.752 103.24 630.872 100.936L632.6 101.672C631.224 103.944 629.4 106.28 627.544 107.944V107.976C627.544 107.976 626.328 108.456 626.328 108.776ZM626.328 108.776L626.2 107.368L627.192 106.824L632.152 106.248C632.216 106.696 632.376 107.336 632.504 107.688C627.672 108.36 626.808 108.552 626.328 108.776ZM628.472 110.056L629.88 109.672C630.328 111.016 630.648 112.712 630.68 113.736L629.144 114.248C629.144 113.16 628.856 111.4 628.472 110.056ZM639.352 103.176H649.112V124.36H639.352V121.672H646.36V105.832H639.352V103.176ZM637.56 103.176H640.344V126.824H637.56V103.176ZM639.192 111.912H647.736V114.568H639.192V111.912ZM642.328 97.96L645.592 98.472C644.92 100.552 644.12 102.792 643.48 104.264L641.048 103.688C641.56 102.088 642.104 99.656 642.328 97.96ZM653.528 103.016H663.16V105.8H653.528V103.016ZM662.104 103.016H664.92C664.92 103.016 664.92 104.072 664.888 104.456C664.44 119.016 664.024 124.04 662.712 125.672C661.944 126.728 661.144 127.048 659.928 127.208C658.776 127.336 656.856 127.272 655.032 127.208C654.968 126.344 654.584 125.064 654.04 124.264C656.12 124.424 658.04 124.456 658.808 124.456C659.448 124.456 659.832 124.36 660.184 123.912C661.24 122.792 661.72 117.384 662.104 103.624V103.016ZM653.944 97.928L656.856 98.6C655.64 103.368 653.656 108.136 651.48 111.176C650.936 110.696 649.688 109.832 648.984 109.448C651.16 106.664 652.92 102.28 653.944 97.928ZM652.44 111.72L654.808 110.376C656.504 112.616 658.68 115.72 659.704 117.608L657.112 119.176C656.184 117.224 654.104 114.056 652.44 111.72ZM72.248 147.496H89.4V150.216H72.248V147.496ZM72.984 164.072H88.44V166.792H72.984V164.072ZM71.352 172.168H89.752V174.952H71.352V172.168ZM79.128 165.352H82.168V173.864H79.128V165.352ZM75.224 151.016L77.816 151.656C76.952 153.32 75.736 155.24 74.68 156.84C76.056 158.632 77.464 160.808 78.136 162.216L75.672 163.208C74.968 161.544 73.496 159.112 71.832 156.872C73.112 154.92 74.488 152.552 75.224 151.016ZM80.696 151.048L83.288 151.688C82.392 153.32 81.176 155.24 80.12 156.808C81.528 158.568 82.968 160.68 83.64 162.056L81.208 163.112C80.504 161.448 78.968 159.048 77.24 156.84C78.584 154.92 79.96 152.584 80.696 151.048ZM86.2 151.016L88.824 151.688C87.864 153.352 86.616 155.24 85.56 156.84C87.032 158.6 88.568 160.712 89.336 162.088L86.904 163.208C86.136 161.544 84.44 159.08 82.616 156.872C83.992 154.952 85.432 152.552 86.2 151.016ZM67.896 158.856L70.136 158.216C70.968 160.328 71.864 163.144 72.184 164.84L69.784 165.64C69.528 163.912 68.696 161.064 67.896 158.856ZM64.92 167.208L67.192 166.792C67.576 168.904 67.96 171.656 68.056 173.48L65.688 173.96C65.624 172.136 65.304 169.32 64.92 167.208ZM61.464 166.824L63.992 167.24C63.672 170.152 63.096 173.256 62.424 175.304C61.848 175.016 60.632 174.632 59.992 174.408C60.76 172.456 61.208 169.512 61.464 166.824ZM60.888 158.312C60.728 157.736 60.28 156.424 59.96 155.688C60.568 155.56 61.112 154.92 61.752 153.928C62.456 153 64.6 149.384 65.816 145.928L68.504 147.048C66.904 150.568 64.696 154.28 62.584 156.808V156.872C62.584 156.872 60.888 157.736 60.888 158.312ZM60.888 158.312L60.792 156.168L62.136 155.336L67.768 154.888C67.608 155.624 67.512 156.68 67.48 157.288C62.424 157.8 61.464 158.024 60.888 158.312ZM61.112 165.608C60.952 165.032 60.504 163.656 60.152 162.888C60.888 162.728 61.592 161.96 62.584 160.776C63.608 159.624 66.872 155.08 68.888 150.76L71.416 152.264C69.048 156.552 65.944 160.968 62.872 164.104V164.168C62.872 164.168 61.112 165.064 61.112 165.608ZM61.112 165.608L60.984 163.432L62.328 162.568L70.104 161.576C70.008 162.312 69.944 163.368 69.976 163.976C62.872 165 61.784 165.256 61.112 165.608ZM68.12 166.536L70.232 165.864C70.84 167.528 71.544 169.64 71.832 171.048L69.592 171.816C69.368 170.408 68.728 168.2 68.12 166.536ZM92.792 148.04L94.392 146.344C96.056 147.496 98.136 149.224 99.192 150.44L97.496 152.36C96.504 151.112 94.456 149.256 92.792 148.04ZM91.928 157.032L93.432 155.272C95.096 156.2 97.272 157.672 98.36 158.728L96.792 160.744C95.768 159.624 93.592 158.088 91.928 157.032ZM92.344 173.768C93.496 171.304 95.192 167.24 96.408 163.656L98.392 165.128C97.304 168.424 95.832 172.264 94.584 175.208L92.344 173.768ZM100.12 153.768H106.264V155.752H100.12V153.768ZM99.96 149.032H121.368V151.496H99.96V149.032ZM104.088 163.976H116.408V166.344H104.088V163.976ZM103.864 168.616H116.472V171.016H103.864V168.616ZM109.176 155.176H111.416V161.864H109.176V155.176ZM115.544 162.056H118.392V175.752H115.544V162.056ZM105.304 153.768H107.352C107.352 153.768 107.32 154.344 107.32 154.632C107.224 158.6 107.128 160.232 106.648 160.808C106.296 161.224 105.912 161.416 105.272 161.48C104.856 161.544 104.152 161.544 103.48 161.544C103.448 160.936 103.256 160.136 103 159.592C103.608 159.688 104.088 159.688 104.344 159.688C104.6 159.688 104.76 159.656 104.92 159.432C105.144 159.112 105.208 157.8 105.304 154.12V153.768ZM118.648 152.552L120.408 154.056C118.648 154.984 116.28 155.72 114.232 156.168C114.104 155.752 113.784 155.048 113.528 154.6C115.384 154.088 117.464 153.288 118.648 152.552ZM112.344 151.4L114.488 152.136C113.208 153.48 111.704 154.92 110.552 155.816L109.144 155.208C110.264 154.152 111.608 152.52 112.344 151.4ZM118.232 154.024C118.776 156.52 119.928 159.048 121.624 160.2C121.176 160.552 120.6 161.224 120.28 161.704C118.456 160.232 117.272 157.32 116.696 154.44L118.232 154.024ZM102.264 162.056H105.08V166.28C105.08 169.224 104.472 173.288 100.888 175.784C100.376 175.336 99.32 174.568 98.616 174.184C101.816 171.976 102.264 168.584 102.264 166.248V162.056ZM101.912 154.44L103.96 154.6C103.64 158.024 102.488 160.552 100.12 162.088C99.896 161.672 99.288 160.84 98.872 160.488C100.824 159.24 101.688 157.224 101.912 154.44ZM106.872 152.168L108.504 151.464C109.08 152.232 109.688 153.32 109.912 153.992L108.184 154.824C107.96 154.056 107.416 152.968 106.872 152.168ZM108.184 146.12L110.968 145.768C111.416 146.92 111.8 148.424 111.896 149.384L108.952 149.864C108.856 148.872 108.536 147.304 108.184 146.12ZM113.528 154.6H115.384V160.168L113.656 162.056C113.496 161.544 113.048 160.616 112.76 160.168C113.112 159.944 113.528 159.4 113.528 158.152V154.6ZM113.656 162.088L113.528 160.488L114.296 159.752L117.496 158.856C117.528 159.336 117.688 160.04 117.816 160.456C114.712 161.48 114.04 161.8 113.656 162.088ZM140.312 155.592H146.872V157.928H140.312V155.592ZM137.88 164.904H148.728V167.016H137.88V164.904ZM127.288 147.24H136.184V149.672H127.288V147.24ZM135.384 147.24H135.896L136.376 147.144L138.264 148.072C135.896 153.544 130.712 157.16 125.432 159.016C125.048 158.376 124.312 157.32 123.8 156.808C128.6 155.336 133.528 151.944 135.384 147.72V147.24ZM141.176 146.088C143.416 150.952 148.088 154.76 154.04 156.328C153.4 156.904 152.632 157.96 152.216 158.696C146.04 156.744 141.336 152.52 138.744 146.824L141.176 146.088ZM146.968 146.216L149.176 147.752C147.64 149.16 145.752 150.6 144.312 151.592L142.552 150.216C143.928 149.192 145.88 147.464 146.968 146.216ZM150.936 149.416L153.144 150.952C151.608 152.36 149.656 153.8 148.184 154.76L146.36 153.384C147.8 152.36 149.816 150.632 150.936 149.416ZM128.696 155.72H136.472V163.272H133.752V158.056H128.696V155.72ZM127.672 160.968H130.168C129.848 163.432 129.432 166.44 129.048 168.36H126.488C126.936 166.376 127.384 163.336 127.672 160.968ZM133.752 166.088H136.504C136.504 166.088 136.472 166.824 136.408 167.208C136.056 171.624 135.672 173.608 134.872 174.408C134.232 175.048 133.56 175.272 132.536 175.336C131.672 175.4 130.008 175.4 128.248 175.304C128.216 174.504 127.864 173.448 127.384 172.744C129.08 172.872 130.776 172.904 131.384 172.904C131.96 172.904 132.312 172.872 132.568 172.616C133.112 172.168 133.464 170.472 133.752 166.472V166.088ZM139.192 155.592H141.752V158.056C141.752 160.264 141.08 162.792 138.232 164.52C137.848 163.976 136.856 162.984 136.312 162.632C138.808 161.256 139.192 159.528 139.192 157.992V155.592ZM148.088 164.904H148.632L149.112 164.808L150.776 165.416C148.632 171.304 143.608 174.28 137.56 175.72C137.304 175.08 136.728 174.088 136.248 173.512C141.656 172.488 146.36 169.8 148.088 165.256V164.904ZM128.792 160.968H134.712V163.272H128.376L128.792 160.968ZM127.864 166.088H134.52V168.36H127.416L127.864 166.088ZM126.36 151.592L128.088 149.992C129.496 150.76 131.256 151.944 132.12 152.808L130.296 154.632C129.496 153.736 127.768 152.456 126.36 151.592ZM145.496 155.592H148.024V160.52C148.024 161.288 148.088 161.512 148.536 161.512C148.888 161.512 150.2 161.512 150.552 161.512C151 161.512 151.768 161.48 152.152 161.384C152.184 161.992 152.248 162.888 152.344 163.464C151.928 163.624 151.256 163.624 150.616 163.624C150.168 163.624 148.664 163.624 148.216 163.624C145.944 163.624 145.496 162.728 145.496 160.488V155.592ZM137.656 168.584L139.096 166.888C142.904 168.904 148.248 171.912 150.968 173.768L149.432 175.752C146.84 173.896 141.56 170.728 137.656 168.584ZM163.256 158.216H184.152V160.776H163.256V158.216ZM162.456 163.656H185.464V166.248H162.456V163.656ZM167.736 155.432H170.52V164.968H167.736V155.432ZM176.248 155.432H179.096V164.936H176.248V155.432ZM159.32 147.464H162.392V156.904C162.392 162.44 161.912 170.504 158.552 175.752C157.944 175.304 156.6 174.504 155.864 174.216C159.064 169.224 159.32 162.024 159.32 156.904V147.464ZM161.176 147.464H183.64V155.432H161.176V152.808H180.6V150.056H161.176V147.464ZM174.456 164.648C176.216 169.064 180.152 172.104 185.848 173.192C185.24 173.8 184.44 174.92 184.056 175.72C177.976 174.184 174.04 170.632 171.928 165.224L174.456 164.648ZM181.752 166.152L184.024 167.72C182.296 169.032 180.024 170.312 178.296 171.176L176.376 169.704C178.04 168.808 180.408 167.272 181.752 166.152ZM165.176 175.784L165.048 173.544L166.232 172.584L174.68 170.792C174.552 171.56 174.456 172.712 174.488 173.32C166.872 175.112 165.816 175.4 165.176 175.784ZM165.176 175.816C165.016 175.112 164.44 173.896 164.024 173.32C164.632 172.968 165.624 172.136 165.624 170.632V164.84L168.44 164.936V172.68C168.44 172.68 165.176 174.728 165.176 175.816ZM201.976 153.096H215.192V155.976H201.976V153.096ZM213.944 153.096H216.824C216.824 153.096 216.824 154.152 216.824 154.536C216.504 167.912 216.216 172.552 215.16 173.992C214.488 174.952 213.752 175.272 212.696 175.4C211.672 175.528 209.976 175.496 208.312 175.432C208.248 174.6 207.896 173.32 207.384 172.552C209.112 172.648 210.68 172.68 211.352 172.68C211.896 172.68 212.248 172.584 212.536 172.168C213.368 171.176 213.656 166.504 213.944 153.736V153.096ZM206.84 146.024H209.784C209.752 158.76 209.72 169.864 200.952 175.752C200.504 175.016 199.512 173.992 198.776 173.48C207.064 168.2 206.808 158.024 206.84 146.024ZM190.232 147.464H200.984V168.328H198.168V150.216H192.92V170.344H190.232V147.464ZM187.96 169.48C191.576 168.808 197.24 167.624 202.584 166.44L202.872 169.16C197.784 170.376 192.376 171.656 188.472 172.552L187.96 169.48ZM191.64 154.248H199.544V156.936H191.64V154.248ZM191.64 161H199.544V163.688H191.64V161ZM220.312 158.888H249.752V162.184H220.312V158.888ZM274.808 161.8H277.912V172.808C277.912 174.312 277.528 174.984 276.344 175.368C275.192 175.72 273.4 175.72 270.84 175.72C270.68 175.016 270.264 174.024 269.912 173.352C271.64 173.448 273.592 173.416 274.104 173.384C274.648 173.352 274.808 173.224 274.808 172.808V161.8ZM267.448 147.944H280.92V149.96H267.448V147.944ZM267.448 156.424H280.888V158.472H267.448V156.424ZM266.744 152.712H281.848V154.76H266.744V152.712ZM272.792 153.736H275.672V161H272.792V153.736ZM255.32 147.272H265.976V152.84H255.32V150.952H263.384V149.128H255.32V147.272ZM269.368 150.6L271.544 150.216C272.056 151.048 272.568 152.2 272.728 152.968L270.488 153.512C270.328 152.712 269.88 151.496 269.368 150.6ZM276.696 150.248L279.16 150.728C278.616 151.784 278.104 152.744 277.656 153.448L275.512 153C275.896 152.2 276.44 151.048 276.696 150.248ZM254.168 147.272H256.728V150.696C256.728 153.608 256.216 157.704 253.944 160.52C253.56 160.008 252.472 159.048 251.928 158.728C253.912 156.264 254.168 153.032 254.168 150.632V147.272ZM272.056 146.408L274.808 145.896C275.32 146.696 275.768 147.816 275.928 148.584L273.016 149.192C272.888 148.424 272.504 147.24 272.056 146.408ZM258.392 156.136V158.6H263.608V156.136H258.392ZM255.928 154.248H266.232V160.488H255.928V154.248ZM257.88 161.8H275.672V163.816H257.88V161.8ZM256.504 161.8H259.384V167.144C259.384 169.928 259.064 173.64 257.368 176.104C256.856 175.592 255.608 174.664 254.936 174.376C256.376 172.232 256.504 169.352 256.504 167.08V161.8ZM259.256 170.472C263.16 170.024 269.528 169.192 275.48 168.36L275.544 170.088C270.04 171.144 264.28 172.136 259.96 172.872L259.256 170.472ZM260.312 166.376L261.048 164.744C264.856 165.128 270.136 165.96 272.92 166.6L272.248 168.456C269.496 167.816 264.216 166.888 260.312 166.376ZM286.072 152.168H308.888V155.144H286.072V152.168ZM307.672 152.168H308.376L308.984 152.008L311.256 153.512C306.936 160.008 299.096 167.208 292.088 171.24C291.608 170.568 290.648 169.64 289.944 169.064C296.728 165.352 304.376 158.184 307.672 152.872V152.168ZM295.96 147.176L298.68 145.736C299.896 147.368 301.496 149.608 302.232 150.952L299.352 152.584C298.712 151.176 297.176 148.84 295.96 147.176ZM290.68 168.424C291.704 168.424 292.472 169.352 294.2 170.44C296.216 171.752 298.936 171.976 302.456 171.976C306.008 171.976 310.84 171.72 313.912 171.336C313.592 172.136 313.08 173.736 313.048 174.568C310.712 174.728 305.496 174.92 302.36 174.92C298.424 174.92 295.864 174.536 293.656 173.192C292.344 172.36 291.288 171.272 290.616 171.272C289.56 171.272 288.088 173.288 286.68 175.368L284.44 172.552C286.648 170.152 288.952 168.424 290.68 168.424ZM317.528 152.84H342.232V155.944H317.528V152.84ZM341.016 152.84H344.152C344.152 152.84 344.12 153.928 344.088 154.376C343.384 167.432 342.744 172.232 341.304 173.864C340.472 174.952 339.64 175.24 338.328 175.368C337.176 175.528 335.16 175.464 333.176 175.368C333.144 174.472 332.728 173.128 332.152 172.264C334.264 172.424 336.248 172.456 337.08 172.456C337.752 172.456 338.136 172.36 338.552 171.944C339.736 170.824 340.408 165.8 341.016 153.48V152.84ZM327.704 146.056H330.904V152.072C330.904 159.336 329.944 169.352 318.904 175.848C318.424 175.112 317.304 173.96 316.568 173.416C326.904 167.496 327.704 158.504 327.704 152.072V146.056ZM363.096 155.88C365.848 155.88 368.088 158.12 368.088 160.872C368.088 163.656 365.848 165.896 363.096 165.896C360.344 165.896 358.072 163.656 358.072 160.872C358.072 158.12 360.344 155.88 363.096 155.88ZM363.096 163.976C364.792 163.976 366.168 162.6 366.168 160.872C366.168 159.176 364.792 157.8 363.096 157.8C361.4 157.8 359.992 159.176 359.992 160.872C359.992 162.6 361.4 163.976 363.096 163.976Z" fill="#383838"/>
<defs>
<filter id="filter0_d_178_13198" x="4.52881" y="11.8225" width="785.471" height="212.86" filterUnits="userSpaceOnUse" color-interpolation-filters="sRGB">
<feFlood flood-opacity="0" result="BackgroundImageFix"/>
<feColorMatrix in="SourceAlpha" type="matrix" values="0 0 0 0 0 0 0 0 0 0 0 0 0 0 0 0 0 0 127 0" result="hardAlpha"/>
<feOffset dx="-7" dy="11"/>
<feComposite in2="hardAlpha" operator="out"/>
<feColorMatrix type="matrix" values="0 0 0 0 0.337255 0 0 0 0 0.356863 0 0 0 0 0.74902 0 0 0 1 0"/>
<feBlend mode="normal" in2="BackgroundImageFix" result="effect1_dropShadow_178_13198"/>
<feBlend mode="normal" in="SourceGraphic" in2="effect1_dropShadow_178_13198" result="shape"/>
</filter>
</defs>
</svg>
