<svg width="74" height="120" viewBox="0 0 74 120" fill="none" xmlns="http://www.w3.org/2000/svg">
<g clip-path="url(#clip0_62_1311)">
<path d="M73.0992 120C73.0992 120 67.9459 72.4442 65.9827 48.8601C65.7631 46.1994 65.6856 43.4742 66.3831 40.8911C67.5842 36.461 71.1619 32.9092 72.066 28.4145C72.9572 24.0102 70.8519 19.1539 67.0288 16.7903C63.2058 14.4268 57.9233 14.7109 54.3843 17.4878C54.4748 13.8068 53.9323 10.0483 52.2145 6.79357C50.4838 3.55172 47.4615 0.878166 43.8451 0.167802C38.808 -0.813793 33.3188 2.62179 31.9885 7.58143C29.1083 2.41514 21.0101 1.85976 16.6704 5.86364C12.3308 9.86751 11.7495 16.9324 14.3198 22.2537C10.4709 21.75 6.41535 23.274 3.84513 26.193C1.2749 29.099 0.280386 33.3225 1.28781 37.068C2.77312 42.6605 8.05565 46.419 10.4967 51.6757C12.2016 55.3438 12.4212 59.4897 12.602 63.5323C13.4803 82.3764 11.5429 120 11.5429 120H73.0992Z" fill="#FFBA6C"/>
<path d="M73.0994 120C73.0994 120 70.2062 93.2902 67.9202 69.9644C67.7135 67.8979 64.9625 65.0177 63.5546 63.6357C61.8239 61.9438 59.3699 60.3551 56.9676 59.8385C56.5801 60.7297 55.4177 61.0784 54.4749 60.8588C53.532 60.6393 52.7442 59.9935 51.9822 59.3735C52.1371 59.9289 51.6593 60.5101 51.1039 60.6522C50.5485 60.7943 49.9544 60.6393 49.4119 60.4455C49.1924 61.5563 47.9783 62.215 46.8417 62.2537C45.718 62.2925 44.6202 61.8792 43.5224 61.6209C41.8562 61.2334 40.1126 61.1817 38.4336 61.4917C37.7878 61.608 37.1549 61.7888 36.5866 62.1246C34.6751 63.2999 34.081 66.193 31.9369 66.8517C31.7303 66.5934 31.5236 66.3351 31.317 66.0768C31.4591 66.8517 30.5679 67.5104 29.7929 67.4071C29.018 67.3038 28.398 66.6967 27.946 66.051C27.4552 65.3406 27.0806 64.5269 26.8611 63.6874C26.8611 65.0565 26.6544 66.4255 26.2282 67.73C26.409 67.1617 20.5194 65.4956 19.8478 65.5343C17.3809 65.6764 15.0819 65.7152 12.6279 65.1985C13.3254 84.5075 11.5043 119.987 11.5043 119.987H73.0994V120ZM25.6728 87.0778C25.7891 86.5224 25.957 86.0187 26.1507 85.515C27.8039 81.3173 32.1694 76.4481 37.0387 78.9538C37.9686 79.4317 39.3893 79.5866 39.8285 78.6309C40.4742 80.5166 41.1071 82.4023 41.7529 84.3009C42.9024 84.4688 44.1165 83.6551 44.4006 82.5314C44.2069 84.6625 44.801 86.8453 46.0409 88.6018C46.945 87.9431 47.7329 87.1165 48.3657 86.1866C48.9986 89.0539 49.2828 92.5411 48.2753 95.3697C47.862 96.545 47.0096 97.6299 45.8214 98.0174C46.4026 98.5728 46.5575 99.5285 46.1701 100.226C45.7955 100.936 44.9173 101.337 44.1294 101.156C43.9744 102.034 43.3674 102.809 42.6182 103.3C41.8691 103.791 40.978 104.036 40.0868 104.165C35.2692 104.889 30.1158 102.189 27.9847 97.7978C27.171 97.9916 26.3444 97.3458 26.0474 96.5579C25.7503 95.77 25.9441 95.0468 25.957 94.2331C25.957 93.5098 25.7374 92.8511 25.6082 92.1278C25.2983 90.4617 25.3112 88.7439 25.6599 87.0778H25.6728Z" fill="#FFEB98"/>
<path d="M26.3186 37.2489C26.2669 33.9166 24.6266 31.1139 22.8055 28.3887C19.9124 25.8443 16.3864 23.8294 12.7829 22.1504C9.42484 22.1633 6.06675 23.6486 3.84525 26.1801C1.27502 29.0991 0.280508 33.3225 1.28793 37.0681C2.77324 42.6606 8.05577 46.419 10.4968 51.6757C10.7164 52.1536 10.9231 52.6444 11.091 53.1481C11.2072 53.174 11.3235 53.1998 11.4526 53.2256C13.1187 53.2256 14.3716 53.5485 15.9344 54.1039C16.6835 54.3622 17.5359 54.6205 18.2204 54.2331C17.7813 53.4581 17.5359 52.5669 17.5101 51.6757C18.595 53.0061 20.5065 53.6002 22.1597 53.1223C21.9531 50.2808 22.7409 47.8527 24.2521 45.5408C25.7891 43.2159 26.3574 40.0128 26.3186 37.2618V37.2489Z" fill="#FFEB98"/>
<path d="M46.9063 8.8732C44.4652 4.85641 39.2731 5.17931 37.5682 9.6094C36.0183 13.652 36.3929 21.2981 41.7141 22.6155C43.7936 23.1322 46.0538 22.0731 47.3325 20.3553C48.5982 18.6375 48.9599 16.3643 48.7015 14.2461C48.4949 12.58 47.9137 10.5135 46.9063 8.8732Z" fill="#AB5452"/>
<path d="M30.3354 13.4454C29.8446 12.6318 29.2634 11.9085 28.6047 11.3531C27.7264 10.604 26.6932 10.0228 25.5695 9.81613C24.4458 9.60948 23.2059 9.81613 22.3018 10.5265C21.7465 10.9527 21.3332 11.5468 20.9844 12.1539C18.3367 16.8035 18.9308 24.695 24.8204 26.5291C27.1452 27.2524 29.9996 26.387 31.1362 24.2301C32.7119 21.2336 32.2211 16.5969 30.3354 13.4454Z" fill="#AB5452"/>
<path d="M64.4071 24.527C64.0713 23.4421 63.4901 22.5122 62.6377 21.8535C61.3203 20.8461 59.37 21.1173 58.0009 22.0343C55.7794 23.5325 53.5192 26.4515 53.08 29.1121C52.3567 33.426 56.6577 37.1586 60.7778 35.2083C61.3332 34.9371 61.8498 34.5755 62.3019 34.1493C64.3684 32.2119 65.4275 27.7431 64.4071 24.527Z" fill="#AB5452"/>
<path d="M21.8627 39.7676C22.0822 39.251 22.2372 38.7085 22.3147 38.1661C22.9347 33.4906 18.9308 29.0346 14.2166 29.3446C13.8808 29.3705 13.532 29.4092 13.235 29.5771C12.8604 29.7708 12.6021 30.1196 12.3696 30.4683C9.81231 34.3947 11.1685 44.2494 17.5617 43.3194C19.4991 43.0353 21.1007 41.5758 21.8756 39.7676H21.8627Z" fill="#AB5452"/>
<path d="M56.5027 47.052C56.5027 45.0113 55.7923 42.9577 54.2037 41.2529C52.6151 39.5609 50.5615 38.2952 49.2182 36.4095C48.327 35.1567 47.7846 33.6843 46.8546 32.4831C44.504 29.435 39.6348 28.7505 36.5221 31.0236C34.081 32.8189 32.9573 35.867 31.0975 38.2693C29.9738 39.7159 28.566 40.93 27.494 42.4024C24.1875 46.9229 24.0326 55.5635 30.0255 57.9142C33.009 59.0895 37.1678 57.8237 39.7639 56.2351C40.3322 55.8864 40.9134 55.4989 41.585 55.3827C42.7604 55.176 43.8969 55.8218 45.0335 56.1964C51.2976 58.2629 56.5414 52.6833 56.5156 47.0391L56.5027 47.052Z" fill="#AB5452"/>
</g>
<defs>
<clipPath id="clip0_62_1311">
<rect width="72.1989" height="120" fill="white" transform="translate(0.900513)"/>
</clipPath>
</defs>
</svg>
