<svg width="168" height="450" viewBox="0 0 168 450" fill="none" xmlns="http://www.w3.org/2000/svg">
<path d="M30.2699 113.83C20.8799 89.93 -6.7901 52.79 2.1299 38.6C14.2599 19.29 34.8499 34.81 38.1899 33.39C41.5299 31.97 34.2699 7.32997 52.2599 1.27997C71.7899 -5.28003 79.3499 15.66 84.0999 16.36C88.8499 17.07 96.8799 -5.28003 117.41 1.91997C131.25 6.75997 132.13 20.79 130.02 32.32C129.67 36.05 133.38 29.74 144.59 26.88C159.4 23.09 174.53 37.79 164.33 60.5C154.13 83.22 131.37 108.62 130.2 118.8C129.03 128.98 142.87 386.2 147.08 449.37H12.1399C12.1399 449.37 37.8699 133.2 30.2699 113.83Z" fill="#F2E7E1"/>
<path d="M79.0598 71.3301C103.23 71.3301 109.8 96.5301 101 103.27C92.1998 110.01 89.3898 98.6601 79.5398 98.6601C69.6898 98.6601 66.5198 110.02 57.7198 102.21C48.9198 94.4101 57.0198 71.3401 79.0598 71.3401V71.3301Z" fill="#DD9C9D"/>
<path d="M29.3398 60.22C22.5298 65.84 36.3598 76.71 40.9698 72.76C45.6298 68.77 35.5298 55.1 29.3398 60.22Z" fill="#DD9C9D"/>
<path d="M61.1999 39.1298C56.1599 41.3098 61.7599 56.9898 67.3499 55.1898C72.1899 53.6298 69.1999 35.6798 61.1999 39.1298Z" fill="#DD9C9D"/>
<path d="M102.73 40.1898C95.31 37.7698 89.16 55.7098 95.73 58.0698C102.3 60.4298 111.41 43.0198 102.73 40.1898Z" fill="#DD9C9D"/>
<path d="M132.71 60.06C127.23 55.7 116.3 69.26 121.69 73.52C127.08 77.78 139.29 65.28 132.71 60.06Z" fill="#DD9C9D"/>
<path d="M140.17 330.62C129.15 380.33 110.13 364.72 109.47 386.73C108.81 408.73 80.74 398.79 78.24 416.54C76.88 426.19 67.5 437.98 69.05 449.36H147.07C145.34 423.58 143.42 377.06 140.16 330.62H140.17Z" fill="#573524"/>
<path d="M64.6598 336.19C60.6198 317.03 76.4498 307.8 86.2998 286.77C96.1498 265.75 58.1598 229.41 52.1598 213.79C47.3698 201.3 40.0298 209.19 28.8398 201.24C26.3898 232.88 22.2498 317.67 19.7798 348.21C37.7998 357.6 68.0798 352.39 64.6598 336.19Z" fill="#573524"/>
<path d="M15.9799 400.42C15.5699 404.61 15.2999 410.24 14.9299 414.02C13.5899 428.01 13.0399 439.56 12.1399 449.36C23.1299 434.06 25.0599 416.11 15.9799 400.42Z" fill="#573524"/>
</svg>
