<svg width="168" height="427" viewBox="0 0 168 427" fill="none" xmlns="http://www.w3.org/2000/svg">
<path d="M127.95 15.96C129.7 14.28 132.72 3.95 132.27 0C124.24 3.12 119.64 10.53 119.64 10.53C123.71 14.97 127.96 15.95 127.96 15.95H127.95V15.96Z" fill="white"/>
<path d="M52.86 11.3099C51.95 9.06994 43.46 2.45994 39.63 1.43994C39.58 10.0799 44.78 17.0899 44.78 17.0899C50.38 14.9199 52.86 11.3199 52.86 11.3199V11.3099Z" fill="white"/>
<path d="M17.1299 61.7099C15.0899 60.4199 4.34989 59.9699 0.639893 61.3699C5.59989 68.4299 13.8999 71.1099 13.8999 71.1099C17.2099 66.0799 17.1399 61.6999 17.1399 61.6999H17.1299V61.7099Z" fill="white"/>
<path d="M156.9 69.04C161.58 65.89 167.53 56.21 167.53 56.21C157.58 56.8 150.61 61.28 150.61 61.28C154.29 69.76 156.9 69.04 156.9 69.04Z" fill="white"/>
<path d="M28.8599 98.3701C19.1899 94.2501 12.3999 84.6301 12.3999 73.4301C12.3999 59.0601 23.5699 47.3001 37.6799 46.4001C36.2899 43.1301 35.5299 39.5301 35.5299 35.7501C35.5299 20.6501 47.7399 8.4201 62.7799 8.4201C72.1899 8.4201 80.4899 13.2101 85.3899 20.4801C90.6599 12.8501 99.4399 7.8501 109.39 7.8501C125.5 7.8501 138.56 20.9501 138.56 37.1001C138.56 41.5701 137.56 45.8001 135.77 49.5801C149.65 50.9201 158.64 60.3401 158.57 74.9801C158.52 85.7701 150.6 95.7601 142.2 98.8301C128.12 105.48 125.62 103.26 129.67 133.46C130.51 139.77 147.25 327.74 150.61 426.35H28.3999C34.4999 271.23 48.1099 106.3 48.1099 106.3C47.3599 100.64 39.5299 103.72 28.8699 98.3701H28.8599Z" fill="#B56A40"/>
<path d="M129.67 133.46C129.6 132.9 129.52 132.35 129.45 131.83C129.43 131.69 129.42 131.57 129.4 131.43C129.35 131.01 129.3 130.6 129.24 130.2C129.23 130.07 129.21 129.96 129.2 129.83C129.06 128.78 128.94 127.75 128.83 126.79C126.02 152.74 121.05 219.72 125.35 237.17C128.65 250.54 127.38 258.05 125.98 265.35C112.68 306.34 105.51 279.53 101.5 313.03C97.4899 346.53 85.9099 360.54 76.5199 342.27C67.1199 324 78.3899 316.69 64.8599 308.16C52.1899 300.18 49.2999 286.02 51.2099 269.38C52.9599 263.9 54.1099 258.91 52.5499 253.34C45.8399 229.45 59.1799 216.04 53.1599 204.19C47.0199 192.12 47.8299 127.19 47.0299 120.43C47.8099 113.29 33.6499 293.25 28.4199 426.36H150.62C147.26 327.75 130.53 139.77 129.68 133.47L129.67 133.46Z" fill="#9D542A"/>
<path d="M90.4599 59.1799C74.6999 59.1799 61.1499 83.7099 67.4199 89.5799C76.7399 98.3199 80.3499 88.9699 89.2499 88.9699C98.1499 88.9699 104.53 97.6299 112.5 91.1899C120.79 84.4999 105.42 59.1699 90.4699 59.1699H90.4599V59.1799Z" fill="#DD9C9D"/>
<path d="M129.67 72.7602C129.67 75.6702 132.02 78.0302 134.93 78.0302C137.84 78.0302 140.19 75.6702 140.19 72.7602C140.19 69.8502 137.83 67.4902 134.93 67.4902C132.03 67.4902 129.67 69.8502 129.67 72.7602Z" fill="#DD9C9D"/>
<path d="M102.1 40.4101C102.1 43.3201 104.46 45.6801 107.36 45.6801C110.26 45.6801 112.62 43.3201 112.62 40.4101C112.62 37.5001 110.26 35.1401 107.36 35.1401C104.46 35.1401 102.1 37.5001 102.1 40.4101Z" fill="#DD9C9D"/>
<path d="M58.3799 41.3901C58.3799 44.3001 60.7399 46.6601 63.6399 46.6601C66.5399 46.6601 68.8999 44.3001 68.8999 41.3901C68.8999 38.4801 66.5399 36.1201 63.6399 36.1201C60.7399 36.1201 58.3799 38.4801 58.3799 41.3901Z" fill="#DD9C9D"/>
<path d="M34.9299 76.3799C34.9299 79.2899 37.2899 81.6499 40.1899 81.6499C43.0899 81.6499 45.4499 79.2899 45.4499 76.3799C45.4499 73.4699 43.0899 71.1099 40.1899 71.1099C37.2899 71.1099 34.9299 73.4699 34.9299 76.3799Z" fill="#DD9C9D"/>
<path d="M91.44 120.35C96.15 120.35 100.83 119.65 104.97 118.27C105.93 117.95 106.44 116.92 106.12 115.96C105.81 115 104.78 114.48 103.82 114.81C96.34 117.31 86.55 117.31 78.89 114.81C77.93 114.5 76.91 115.02 76.6 115.98C76.28 116.94 76.8099 117.96 77.7699 118.28C82.0199 119.66 86.74 120.36 91.45 120.36L91.44 120.35Z" fill="#C9C1A7"/>
</svg>
