<svg width="912" height="73" viewBox="0 0 912 73" fill="none" xmlns="http://www.w3.org/2000/svg">
<g clip-path="url(#clip0_178_470)">
<path d="M59.6789 39.212C62.4889 38.6696 64.2543 38.2885 64.9311 38.054C65.1076 37.9367 65.9609 37.6435 67.5204 37.1451C69.0652 36.6614 69.9332 36.2949 70.1097 36.075C70.1686 35.8405 70.2568 34.0375 70.3745 30.666C70.4922 27.2945 70.5952 25.4915 70.7129 25.257C70.8306 24.6853 71.1101 24.1136 71.5809 23.5419C72.037 22.9702 72.4489 22.677 72.7873 22.677C73.0816 22.677 73.5082 22.8529 74.082 23.1901C74.6558 23.5272 74.9941 23.7911 75.1118 23.967C74.9941 24.3628 74.7735 24.8025 74.4645 25.257C74.1555 25.7114 73.9054 26.2244 73.7289 26.7961C73.5524 27.3678 73.4935 28.1154 73.5524 29.0242C73.2581 32.5716 73.3464 34.404 73.8172 34.5212C73.9937 34.5212 74.3027 34.404 74.7587 34.1841C75.7886 33.6124 78.5986 32.2638 83.1593 30.1529C87.7348 28.0421 90.7066 26.5176 92.0748 25.5941C92.016 25.3156 91.7806 24.6706 91.3834 23.6592C90.9862 22.6624 90.6919 21.8415 90.5154 21.2112C90.3388 20.5809 90.3682 20.0092 90.6036 19.4961C90.7802 19.2176 91.148 19.071 91.7218 19.071C92.2955 19.0124 92.7369 19.1297 93.0606 19.4082C93.3695 19.7013 93.6932 20.2291 94.0021 20.9913C94.3111 21.7682 94.5023 22.208 94.5612 22.3252C94.6789 22.9556 95.135 23.2194 95.9441 23.1021C96.7533 22.9849 97.3271 23.1315 97.6654 23.5272C98.4746 23.9817 98.5629 24.6853 97.9303 25.6381C97.2976 26.5762 97.2094 27.3678 97.6654 27.9981C97.842 28.8044 98.5334 30.1676 99.784 32.1172C101.02 34.0668 101.697 35.2688 101.814 35.7232C101.814 35.8991 102.079 36.5295 102.594 37.6142C103.565 39.4465 104.256 40.2821 104.668 40.1062C104.963 39.7104 105.33 38.523 105.787 36.5441C106.243 34.5652 106.655 33.2606 106.993 32.6303C107.214 32.2931 107.464 31.7214 107.728 30.9152C107.993 30.109 108.288 29.5226 108.641 29.1562C108.979 28.7897 109.465 28.6578 110.112 28.775C110.509 28.8923 110.965 29.1562 111.451 29.5959C111.936 30.021 112.186 30.3875 112.186 30.666C112.01 31.0032 111.715 31.4576 111.274 31.9999C110.847 32.5423 110.48 33.0993 110.2 33.671C109.906 34.2427 109.656 35.0489 109.42 36.075C108.037 40.2527 107.317 42.5102 107.272 42.862C106.934 43.4337 106.846 43.9321 107.008 44.3718C107.169 44.8116 107.817 45.5885 108.905 46.7319C109.479 47.4208 110.421 48.3736 111.745 49.605C113.069 50.8363 113.981 51.7744 114.511 52.3901C114.805 52.8445 115.423 53.3869 116.364 54.0172C117.306 54.6475 117.983 54.9407 118.395 54.8821C118.851 54.8234 119.145 54.5303 119.263 53.9732C119.38 53.4309 119.351 52.2435 119.174 50.4112C118.777 47.4941 118.939 46.0869 119.689 46.2042C120.322 46.2628 120.808 47.2596 121.161 49.2092C121.911 52.6979 122.102 55.0433 121.764 56.2453C121.528 56.9343 121.219 57.5353 120.822 58.0483C120.425 58.5614 120.042 58.8252 119.704 58.8252C117.35 58.2536 115.761 57.6965 114.967 57.1542C114.158 56.6118 112.525 55.1019 110.053 52.6393C107.287 49.8835 105.772 48.5495 105.478 48.6082C105.139 48.6668 104.536 49.473 103.668 51.0122C101.594 54.97 99.9311 57.6526 98.6659 59.0891C97.6801 60.2325 96.6503 60.2325 95.5616 59.0891C95.0467 58.4588 94.7819 57.7991 94.7819 57.1102C94.7819 56.5385 94.8849 56.1427 95.0908 55.9082C95.2968 55.6736 95.6205 55.6297 96.0765 55.7323C96.4738 55.9082 96.8563 55.7616 97.1947 55.3072C97.533 54.8527 97.9008 54.2811 98.2686 53.5921C98.6364 52.9032 98.916 52.4781 99.0925 52.3021C99.6074 51.7891 100.211 50.8803 100.902 49.5903C101.594 48.3003 102.079 47.2303 102.373 46.3654C102.55 45.911 102.638 45.4566 102.638 45.0315C102.638 44.6064 102.594 44.2546 102.506 44.0054C102.417 43.7562 102.241 43.4044 101.991 42.9793C101.741 42.5542 101.564 42.2756 101.52 42.1584C101.226 41.704 100.755 40.7658 100.093 39.3732C99.4309 37.966 98.813 36.6907 98.2392 35.5473C97.6654 34.404 97.2976 33.7736 97.1211 33.6564C96.9445 33.5391 96.4885 32.7182 95.7382 31.1644C94.7083 29.2148 94.1345 28.2766 94.0168 28.3353C93.6196 28.218 92.9576 28.3939 92.0307 28.8483C91.1186 29.3027 90.5301 29.5666 90.3094 29.6252C89.2207 30.2556 86.8668 31.4576 83.2476 33.2313C79.6284 35.005 77.1862 36.2949 75.921 37.1011C75.8033 37.2184 75.4061 37.4823 74.7146 37.922C74.0231 38.3618 73.5965 38.8015 73.4199 39.256C73.3611 39.5491 73.2287 40.6339 73.0374 42.5248C72.8315 44.4158 72.7285 45.6764 72.7285 46.3068C72.7285 46.424 72.8167 46.4827 72.9933 46.4827C73.1698 46.4827 73.3611 46.4533 73.5965 46.3947C73.8172 46.3361 74.0231 46.2188 74.1997 46.0576C74.6558 45.7204 75.9504 45.0168 78.0837 43.9467C80.2022 42.8913 81.4086 42.3636 81.7028 42.3636C81.9971 42.3636 82.2178 42.5248 82.3943 42.8327C82.5708 43.1552 82.6003 43.4776 82.4826 43.8148C82.2472 44.1519 81.7911 44.5038 81.0996 44.8409C80.4082 45.178 79.8933 45.4712 79.5549 45.7058C79.3783 45.8817 78.6133 46.3801 77.2304 47.2156C75.8474 48.0511 74.7587 48.7548 73.9496 49.3264C73.1404 49.8981 72.7138 50.2939 72.6549 50.5285C72.4784 50.4698 72.3018 51.1881 72.0959 52.6686C71.8899 54.1638 71.6692 56.0254 71.4485 58.2536C71.2131 60.4817 71.0219 62.0648 70.8453 62.9736C70.6099 63.6626 70.3598 65.6122 70.0656 68.8078C69.9479 70.816 69.433 72.106 68.5208 72.6777C67.7117 73.2493 67.0202 73.1028 66.4464 72.2525C66.2699 71.9594 66.0492 71.0359 65.755 69.4674C65.4607 67.8989 65.3283 66.6823 65.3283 65.8174V64.7034H66.1963C66.7701 64.762 67.1379 64.5861 67.3144 64.1903C67.5351 63.5013 67.8146 61.5078 68.1383 58.2242C68.4473 54.926 68.5208 53.1963 68.359 53.0351C67.7852 53.1523 67.0202 53.3869 66.0786 53.768C65.137 54.1345 64.1072 54.5742 63.0185 55.058C61.9298 55.5417 61.2089 55.8495 60.8705 55.9668C60.0614 56.5385 59.2081 56.5238 58.2812 55.9228C57.3691 55.3218 57.0748 54.6768 57.4132 53.9879C57.5309 53.5921 58.1488 53.123 59.2669 52.61C60.385 52.0969 61.4149 51.7744 62.327 51.6718C62.9008 51.6132 64.0631 51.2028 65.8138 50.4258C67.5645 49.6489 68.565 49.0919 68.7856 48.7548C69.3006 47.5527 69.6978 44.9728 69.992 41.0297C69.992 40.5166 69.992 40.3114 69.992 40.4287C69.9332 40.4873 69.9038 40.5459 69.9038 40.6046C69.6095 40.4287 69.227 40.37 68.7415 40.4287C68.256 40.4873 67.8882 40.5459 67.6675 40.6046C67.4321 40.6632 67.0643 40.7951 66.5494 40.9857C66.0345 41.1909 65.652 41.3375 65.4313 41.4548C64.8575 41.6307 64.1219 41.8945 63.2392 42.2756C62.3418 42.6421 61.4737 42.9646 60.6057 43.2138C59.7377 43.463 58.7961 43.5949 57.7663 43.5949C55.9861 43.7708 54.971 43.7415 54.7503 43.507C54.5149 43.3311 54.3237 42.9646 54.1913 42.3929C54.0441 41.8212 54.0294 41.3961 54.1471 41.103C55.0593 40.414 56.9277 39.7983 59.7524 39.256L59.6789 39.212ZM79.599 13.9112C78.6133 14.0285 77.8189 14.2044 77.1862 14.4242C75.6856 14.7614 73.7436 14.9959 71.3308 15.1132L67.7117 15.2011C67.2556 14.5708 66.9908 13.9405 66.9319 13.3102C66.9319 12.9144 66.9761 12.6652 67.0643 12.5772C67.1526 12.4893 67.4763 12.416 68.05 12.3574C68.1089 12.3574 69.3594 12.2694 71.8016 12.0935C74.2438 11.9176 75.921 11.6977 76.8479 11.4046C77.8777 11.126 78.834 10.8915 79.6873 10.7156C80.8348 10.5983 81.644 10.8182 82.1001 11.3606C82.5561 11.903 82.4384 12.5186 81.7617 13.2076C81.3056 13.5447 80.5847 13.7793 79.6137 13.8965L79.599 13.9112ZM119.336 14.219C118.88 14.3656 118.218 14.0578 117.35 13.3102C116.482 12.4453 115.526 11.6391 114.467 10.8622C113.407 10.0853 112.186 9.2644 110.803 8.37022C109.42 7.4907 108.391 6.78709 107.699 6.25938C107.302 5.86359 106.713 5.48247 105.978 5.14532C105.227 4.80817 104.771 4.57363 104.595 4.45637C104.139 3.94331 103.933 3.22504 103.992 2.31621C104.05 1.40737 104.624 1.08488 105.713 1.37805C106.404 1.49532 106.978 1.68588 107.434 1.93508C107.89 2.19894 108.42 2.53608 109.023 2.96119C109.626 3.38629 110.127 3.75275 110.539 4.03127C110.877 4.20717 111.73 4.79351 113.084 5.7903C114.437 6.78709 115.599 7.54934 116.57 8.06239C117.38 8.51681 117.968 8.89793 118.336 9.17645C118.704 9.46962 119.072 9.89472 119.41 10.4664C119.748 11.0381 119.954 11.6977 120.013 12.4453C120.013 13.4714 119.778 14.0578 119.322 14.2044L119.336 14.219Z" fill="white"/>
<path d="M134.887 12.1082C135.034 11.3019 135.255 10.7449 135.578 10.4371C135.887 10.1292 136.505 10.1292 137.432 10.4811C138.344 10.8768 138.639 11.7124 138.3 12.973C138.182 13.0903 138.065 14.0138 137.962 15.7582C137.844 17.5025 137.697 19.5694 137.535 21.9441C137.359 24.3188 137.226 26.0192 137.108 27.06C136.77 27.9248 136.52 29.6106 136.373 32.1319C136.226 34.6531 136.108 37.4969 136.034 40.6778C135.961 43.8588 135.873 45.867 135.814 46.7319C135.696 46.9078 135.608 48.7694 135.549 52.3168C135.549 55.0726 135.475 56.9049 135.328 57.8138C135.181 58.7373 134.916 59.309 134.504 59.5288C134.166 59.7048 133.769 59.778 133.342 59.7487C132.916 59.7194 132.577 59.5582 132.356 59.2796C132.018 59.1037 131.871 57.3447 131.93 54.0025C131.989 50.6457 132.106 48.6961 132.268 48.1244C132.386 47.5527 132.489 44.3865 132.577 38.6403C132.665 32.8941 132.827 29.8158 133.048 29.4053C133.224 29.0682 133.357 27.573 133.43 24.9345C133.519 22.2959 133.622 19.7893 133.739 17.4146C133.857 15.0399 134.078 13.8232 134.431 13.7646C134.607 13.4861 134.755 12.929 134.902 12.1375L134.887 12.1082ZM147.775 14.7321C149.496 14.0138 150.908 13.3981 151.997 12.8851C152.174 12.7678 152.865 12.5186 154.116 12.1082C155.351 11.7124 156.058 11.4485 156.234 11.3313C156.926 10.8182 158.397 10.4664 160.677 10.3051C162.943 10.1292 164.797 10.2465 166.238 10.6423C168.077 11.3313 169.519 13.1343 170.549 16.0513C171.579 18.9684 171.991 22.1493 171.755 25.5794C171.814 28.1594 171.932 29.9037 172.094 30.8126C172.432 32.5863 172.623 35.7965 172.653 40.4286C172.682 45.0608 172.55 48.271 172.27 50.0447C172.035 51.2467 171.814 52.6833 171.579 54.3397C171.182 57.1981 170.402 58.664 169.254 58.7226C168.622 58.7813 168.004 58.4588 167.401 57.7845C166.797 57.1102 166.062 55.8935 165.209 54.1784C164.399 52.6393 163.929 51.5839 163.781 51.0415C163.634 50.4991 163.737 50.1327 164.09 49.9714C164.782 49.5756 165.532 50.206 166.327 51.8624C167.356 54.325 168.077 53.9292 168.475 50.6604C168.475 50.3819 168.504 49.9128 168.563 49.2825C168.622 48.5935 168.681 48.1684 168.739 47.9925C168.739 46.9664 168.798 46.1602 168.916 45.5885C169.093 44.6796 169.093 42.3489 168.916 38.6256C168.739 34.9023 168.548 32.4104 168.313 31.1497C168.019 29.6545 167.886 27.573 167.886 24.8758C167.886 22.4132 167.798 20.6248 167.621 19.5108C167.445 18.3967 167.106 17.3999 166.591 16.5497C165.385 14.4829 163.281 13.4861 160.295 13.5447C159.486 13.5447 158.441 13.7939 157.146 14.2776C155.852 14.7614 154.351 15.3917 152.659 16.1686C150.967 16.9455 149.834 17.4439 149.261 17.6784C146.612 18.7045 144.111 20.1118 141.757 21.8855C140.728 22.6917 139.948 22.6917 139.433 21.8855C138.565 20.5662 139.58 19.0857 142.449 17.4146C144.288 16.3298 146.068 15.421 147.789 14.7027L147.775 14.7321ZM155.881 26.2831C155.425 26.7961 154.042 27.4264 151.747 28.174C149.452 28.9216 148.098 29.4053 147.701 29.6399C146.495 30.2116 145.244 30.4315 143.95 30.2849C142.655 30.1383 141.978 29.464 141.919 28.262C141.978 27.573 143.214 26.9427 145.627 26.371C146.201 26.1951 147.172 25.9166 148.554 25.5062C149.937 25.1104 151.011 24.7732 151.791 24.524C152.571 24.2748 153.409 23.9377 154.336 23.5419C155.248 23.1461 155.94 22.7064 156.411 22.2519C156.47 22.2519 156.602 22.164 156.793 21.9881C156.999 21.8122 157.117 21.7096 157.176 21.6802L157.514 21.5043C157.691 21.4164 157.823 21.3724 157.897 21.3724C157.97 21.3724 158.117 21.4017 158.279 21.4604C158.456 21.519 158.618 21.607 158.794 21.7242C159.824 22.809 158.853 24.3335 155.866 26.2831H155.881ZM144.715 34.873C144.862 34.0082 145.215 33.3632 145.789 32.8941C146.127 32.6156 146.848 32.5276 147.937 32.6303L147.848 33.8323V34.2574C147.848 34.4333 147.848 34.5945 147.804 34.7264C147.775 34.873 147.76 35.0049 147.76 35.1076V35.5327C147.701 36.4562 147.716 36.9839 147.804 37.1158C147.892 37.2624 148.246 37.1305 148.878 36.7347C149.393 36.3389 150.188 35.9431 151.247 35.5766C152.306 35.2102 153.277 34.961 154.13 34.8437C155.337 34.6092 156.278 34.961 156.926 35.8698C157.588 36.7933 157.852 37.8927 157.75 39.1827C157.632 40.4726 157.176 41.5134 156.367 42.3196C155.734 42.9499 154.41 44.6064 152.394 47.3035C151.997 47.8166 151.291 48.359 150.276 48.9307C149.275 49.5023 148.216 49.8835 147.127 50.0887C146.039 50.2939 145.141 50.0447 144.45 49.3557C143.582 48.3296 143.449 47.2596 144.023 46.1748C144.317 45.6618 144.45 43.6829 144.45 40.2527C144.45 37.4969 144.523 35.6939 144.67 34.8437L144.715 34.873ZM148.849 45.867C149.055 45.8084 149.334 45.6031 149.717 45.266C150.085 44.9288 150.408 44.6064 150.658 44.3278C150.923 44.0493 151.217 43.6975 151.57 43.3017C151.909 42.906 152.144 42.6421 152.262 42.5248C152.38 42.3489 152.6 42.0264 152.953 41.5427C153.292 41.059 153.571 40.6192 153.777 40.2088C153.983 39.813 154.086 39.4172 154.116 39.0507C154.145 38.6843 154.116 38.4351 154.071 38.3178C154.013 38.2005 153.836 38.1126 153.557 38.0539C152.644 38.0539 151.423 38.8895 149.937 40.5459C148.437 42.2023 147.834 43.6389 148.128 44.8409C148.246 45.3539 148.304 45.7058 148.304 45.867C148.481 45.9256 148.657 45.9256 148.863 45.867H148.849Z" fill="white"/>
<path d="M193.206 58.8398C192.75 59.7633 192.102 60.7747 191.264 61.8888C190.425 63.0028 189.925 63.853 189.748 64.4247C189.807 64.7618 188.969 65.8612 187.247 67.6936C185.526 69.5259 184.481 70.2735 184.143 69.9217C183.569 69.9217 183.084 69.7458 182.672 69.4086C182.275 69.0715 182.069 68.6317 182.069 68.1187C182.01 67.7815 182.51 66.99 183.584 65.7586C184.643 64.5273 185.202 63.8237 185.261 63.6478C185.32 63.4133 186.114 62.4604 187.63 60.7747C189.145 59.089 189.91 58.0629 189.91 57.7257C189.91 57.0367 190.337 56.553 191.205 56.2598C192.073 55.9813 192.72 56.1133 193.191 56.6849C193.647 57.198 193.647 57.9163 193.191 58.8251L193.206 58.8398ZM215.789 10.305C216.024 10.4809 216.289 10.5102 216.613 10.393C216.922 10.2757 217.23 10.261 217.525 10.349C217.819 10.4369 217.951 10.7301 217.951 11.2578C217.951 11.6536 217.79 12.196 217.481 12.841C217.172 13.5006 216.745 14.2189 216.23 14.9811C215.715 15.7434 215.391 16.3151 215.288 16.6522C215.23 16.8281 214.95 17.3412 214.465 18.1914C213.979 19.0562 213.729 19.54 213.729 19.6572C213.788 19.7745 214.332 19.54 215.362 18.9683C216.392 18.3966 217.348 17.8542 218.201 17.3412C220.85 15.6261 222.762 14.556 223.939 14.1163C225.116 13.6912 225.999 13.7645 226.573 14.3361C227.029 14.6733 227.205 15.0251 227.088 15.3622C226.97 15.6994 226.823 15.9486 226.661 16.0952C226.484 16.2418 226.205 16.4323 225.793 16.6522C225.396 16.8867 225.101 17.048 224.925 17.1653C224.586 17.3998 223.086 18.2647 220.438 19.7892C217.79 21.3137 215.833 22.501 214.582 23.3512C212.052 25.1835 210.272 26.2976 209.242 26.708C208.727 26.8839 207.771 27.4263 206.402 28.3351C205.019 29.2586 204.019 29.6544 203.386 29.5371C203.048 29.5371 202.121 29.8743 200.621 30.5633C199.238 31.2522 198.208 31.604 197.516 31.6333C196.825 31.6627 196.251 31.4135 195.795 30.9004C195.28 30.3287 195.089 29.8596 195.236 29.4785C195.383 29.112 195.913 28.6869 196.825 28.2325C197.34 27.954 198.222 27.6022 199.458 27.2064C200.694 26.8106 201.797 26.4295 202.783 26.0924C203.754 25.7552 204.328 25.462 204.505 25.2275C204.622 24.8317 204.769 23.6444 204.931 21.6655C205.093 19.6865 205.196 18.5871 205.196 18.3526C205.314 17.605 205.314 17.1799 205.196 17.0627C205.078 16.9454 204.769 17.004 204.254 17.2386C203.681 17.5317 203.019 17.7369 202.268 17.8835C201.518 18.0301 201.032 18.0448 200.797 17.9275C200.106 17.5904 199.767 16.7841 199.767 15.5235C199.767 15.1863 199.944 14.8785 200.282 14.6147C200.621 14.3508 201.032 14.2335 201.489 14.2335C202.298 14.0576 202.989 13.8378 203.563 13.5446C204.137 13.2661 204.769 12.8849 205.461 12.4305C206.152 11.9761 206.785 11.595 207.359 11.3165C208.506 10.7448 209.301 10.2904 209.727 9.93855C210.154 9.58675 211.243 8.97108 212.964 8.04759C213.655 7.65181 214.288 7.4759 214.862 7.53454C215.436 7.59317 215.7 8.10623 215.642 9.07369C215.524 9.70402 215.583 10.0998 215.818 10.2757L215.789 10.305ZM208.374 1.62711C210.492 1.50984 211.993 1.26064 212.861 0.850201C213.199 0.732932 213.611 0.601004 214.067 0.469076C214.523 0.32249 214.965 0.161245 215.362 0C215.539 0 215.789 0.131928 216.142 0.381124C216.495 0.630321 216.686 0.879518 216.745 1.11406C216.98 1.97892 216.186 2.82912 214.376 3.69398C212.567 4.55884 210.566 5.04257 208.389 5.15984C206.035 5.27711 204.652 5.04257 204.254 4.47088C204.019 4.19237 203.916 3.79659 203.916 3.31285C203.916 2.82912 204.034 2.52129 204.254 2.40402C204.887 2.00823 206.27 1.74438 208.389 1.62711H208.374ZM206.344 38.303C207.006 35.1514 207.418 32.9819 207.594 31.7799C207.771 31.2669 208.153 30.6219 208.756 29.845C209.36 29.0681 209.889 28.555 210.345 28.3058C210.801 28.042 211.493 27.9394 212.42 27.9687C213.332 27.998 213.994 28.1592 214.406 28.4378C214.98 28.7749 215.377 29.1707 215.612 29.5958C215.848 30.0209 216.039 30.5486 216.215 31.1789C216.392 31.8092 216.554 32.3223 216.73 32.7181C216.848 32.894 216.936 33.0552 216.995 33.1871C217.054 33.3337 217.098 33.5096 217.127 33.7002C217.157 33.9054 217.172 34.052 217.172 34.1693C217.172 34.2865 217.172 34.4918 217.127 34.7703C217.098 35.0635 217.069 35.2833 217.039 35.4592C217.01 35.6351 216.951 35.943 216.863 36.3974C216.774 36.8518 216.701 37.2622 216.642 37.5994C216.524 38.347 216.377 39.0066 216.215 39.5783C216.039 40.15 215.818 40.6777 215.524 41.1614C215.23 41.6452 214.994 42.041 214.788 42.3195C214.582 42.6127 214.229 43.0524 213.714 43.6534C213.199 44.2544 212.802 44.7528 212.508 45.1633C211.301 46.5412 210.419 47.3327 209.874 47.5233C209.33 47.7285 208.315 47.6259 206.814 47.2155C205.667 46.9369 205.093 46.3506 205.093 45.5004C205.27 43.844 205.681 41.44 206.344 38.2884V38.303ZM220.908 58.444C220.82 58.356 220.717 58.2827 220.6 58.2241C220.482 58.1655 220.349 58.1068 220.217 58.0482C220.07 57.9896 219.908 57.9456 219.746 57.9163C219.57 57.8869 219.393 57.8723 219.187 57.8723H216.392C214.729 57.9309 213.7 57.9309 213.332 57.8723C212.964 57.8137 212.626 57.6378 212.346 57.3592C211.772 56.8462 211.61 56.2598 211.875 55.6002C212.14 54.9406 212.699 54.5594 213.552 54.4422C215.789 53.9291 218.893 52.903 222.865 51.3492C226.837 49.7954 229.353 48.8572 230.457 48.5201C230.854 48.4028 232.281 47.9337 234.723 47.0982C237.165 46.2627 238.695 45.7936 239.328 45.6763C240.299 45.5004 241.432 45.2365 242.697 44.8554C243.962 44.489 245.169 44.1811 246.316 43.9466C247.125 43.712 247.787 43.7853 248.346 44.1665C248.891 44.5329 249.023 45.1046 248.729 45.8376C248.67 45.9548 248.582 46.16 248.464 46.4386C248.346 46.7317 248.273 46.893 248.244 46.9516C248.214 47.0102 248.126 47.1422 247.979 47.3327C247.832 47.538 247.699 47.6259 247.596 47.5966C247.478 47.5673 247.302 47.6259 247.081 47.7725C246.846 47.9191 246.61 47.9484 246.346 47.8604C246.081 47.7725 245.728 47.7871 245.272 47.9044C243.197 47.9631 240.505 48.5347 237.165 49.6195C233.826 50.7042 231.648 51.3345 230.618 51.5104C230.324 51.4518 229.397 51.8476 227.823 52.7124C226.234 53.5773 225.072 54.0317 224.336 54.0904C222.556 54.3835 221.659 54.8086 221.659 55.3803C221.659 55.5562 222.115 55.8641 223.042 56.3185C223.954 56.7729 224.557 57.0074 224.851 57.0074C225.822 57.3446 226.264 57.9896 226.146 58.9424C226.028 59.8805 225.513 60.5548 224.601 60.9653C220.982 63.3106 217.848 64.454 215.2 64.3954L213.214 64.4833L210.89 63.1934C209.448 62.5044 208.491 61.8594 208.006 61.2584C207.52 60.6574 207.094 59.7046 206.755 58.3853C206.579 57.5791 206.711 57.0367 207.138 56.7582C207.565 56.4797 208.065 56.4504 208.653 56.6703C209.227 56.9048 209.624 57.2713 209.86 57.7843C210.492 58.9277 211.434 59.8219 212.699 60.4522C213.273 60.7894 213.714 60.9946 214.038 61.0532C214.347 61.1119 214.788 61.0825 215.333 60.9653C215.877 60.848 216.348 60.7894 216.76 60.7894C217.392 60.7307 218.304 60.4522 219.526 59.9245C220.747 59.3968 221.335 59.0157 221.335 58.7225C221.159 58.6052 221.026 58.5026 220.953 58.4147L220.908 58.444ZM214.479 10.906C214.303 10.7301 213.817 11.0526 213.008 11.8442C211.507 13.1635 210.522 14.1016 210.036 14.6733C209.551 15.245 209.242 15.8167 209.124 16.3884C208.609 18.338 208.3 19.54 208.212 19.9944C208.124 20.4488 208.168 20.8006 208.344 21.0205C208.58 21.255 208.859 21.1084 209.212 20.5954C209.551 20.1996 210.301 18.8657 211.449 16.6082C212.596 14.3508 213.317 13.0169 213.597 12.6211C214.347 11.6536 214.626 11.0819 214.465 10.906H214.479ZM209.521 44.1518C209.83 44.1518 210.022 43.8147 210.08 43.1257C209.963 42.4954 210.389 42.0116 211.331 41.6598C212.272 41.308 212.787 40.9709 212.846 40.6337C213.082 40.1793 213.14 39.8275 213.023 39.6076C212.729 38.8014 211.964 39.0066 210.698 40.2086C209.492 41.352 208.948 42.3781 209.065 43.3016C209.065 43.8733 209.227 44.1665 209.536 44.1665L209.521 44.1518ZM211.713 32.5568C211.478 32.894 211.287 33.3631 211.11 33.9347C210.654 35.4299 210.713 36.1335 211.287 36.0749C211.522 36.0749 211.861 35.899 212.317 35.5618C213.229 34.8143 213.758 34.3012 213.861 34.0227C213.979 33.7442 213.861 33.1578 213.523 32.3076C213.008 31.3402 212.405 31.4281 211.713 32.5715V32.5568Z" fill="white"/>
<path d="M275.358 31.824C275.181 31.6774 275.049 31.6041 274.975 31.6041C274.902 31.6041 274.666 31.6774 274.328 31.824C273.99 31.9706 273.725 32.0732 273.548 32.1318C272.916 32.5862 272.224 32.5862 271.474 32.1318C270.724 31.6774 270.282 31.0617 270.135 30.2848C269.988 29.5079 270.238 28.7603 270.871 28.0127C271.386 27.3238 271.812 26.8987 272.165 26.7228C274.004 26.0338 275.667 26.3563 277.167 27.6609C278.668 28.9802 279.271 30.4461 278.977 32.0438C278.639 33.9934 277.741 36.0896 276.299 38.3617C274.858 40.6191 273.46 42.2463 272.077 43.2137C271.503 43.4483 271.032 43.4922 270.65 43.3457C270.282 43.1991 270.106 42.8912 270.135 42.4075C270.165 41.9238 270.444 41.4254 270.959 40.8977C271.871 39.9302 272.813 38.5523 273.754 36.7786C274.696 35.0049 275.225 33.6856 275.343 32.8208C275.52 32.3077 275.52 31.9706 275.343 31.8386L275.358 31.824Z" fill="white"/>
<path d="M304.238 39.212C307.048 38.6696 308.813 38.2885 309.49 38.054C309.666 37.9367 310.52 37.6435 312.079 37.1451C313.624 36.6614 314.492 36.2949 314.668 36.075C314.727 35.8405 314.816 34.0375 314.933 30.666C315.051 27.2945 315.169 25.4915 315.272 25.257C315.389 24.6853 315.669 24.1136 316.14 23.5419C316.596 22.9702 317.008 22.677 317.346 22.677C317.64 22.677 318.067 22.8529 318.641 23.1901C319.215 23.5272 319.553 23.7911 319.671 23.967C319.553 24.3628 319.332 24.8025 319.023 25.257C318.714 25.7114 318.464 26.2244 318.288 26.7961C318.111 27.3678 318.052 28.1154 318.111 29.0242C317.817 32.5716 317.905 34.404 318.376 34.5212C318.552 34.5212 318.861 34.404 319.318 34.1841C320.347 33.6124 323.157 32.2638 327.718 30.1529C332.294 28.0421 335.265 26.5176 336.634 25.5941C336.575 25.3156 336.339 24.6706 335.942 23.6592C335.545 22.6624 335.251 21.8415 335.074 21.2112C334.898 20.5809 334.927 20.0092 335.162 19.4961C335.339 19.2176 335.707 19.071 336.281 19.071C336.854 19.0124 337.296 19.1297 337.619 19.4082C337.928 19.7013 338.252 20.2291 338.561 20.9913C338.87 21.7682 339.061 22.208 339.12 22.3252C339.238 22.9556 339.694 23.2194 340.503 23.1021C341.312 22.9849 341.886 23.1315 342.224 23.5272C343.033 23.9817 343.122 24.6853 342.489 25.6381C341.856 26.5762 341.768 27.3678 342.224 27.9981C342.401 28.8044 343.092 30.1676 344.343 32.1172C345.579 34.0668 346.255 35.2688 346.373 35.7232C346.373 35.8991 346.638 36.5295 347.153 37.6142C348.124 39.4465 348.815 40.2821 349.227 40.1062C349.521 39.7104 349.889 38.523 350.345 36.5441C350.801 34.5652 351.213 33.2606 351.552 32.6303C351.787 32.2931 352.022 31.7214 352.287 30.9152C352.552 30.109 352.846 29.5226 353.199 29.1562C353.538 28.7897 354.038 28.6578 354.671 28.775C355.068 28.8923 355.524 29.1562 356.009 29.5959C356.495 30.021 356.745 30.3875 356.745 30.666C356.568 31.0032 356.274 31.4576 355.833 31.9999C355.406 32.5423 355.038 33.0993 354.759 33.671C354.465 34.2427 354.215 35.0489 353.979 36.075C352.596 40.2527 351.875 42.5102 351.831 42.862C351.493 43.4337 351.405 43.9321 351.566 44.3718C351.728 44.8116 352.376 45.5885 353.464 46.7319C354.038 47.4208 354.98 48.3736 356.304 49.605C357.628 50.8363 358.54 51.7744 359.07 52.3901C359.364 52.8445 359.982 53.3869 360.923 54.0172C361.865 54.6475 362.542 54.9407 362.954 54.8821C363.41 54.8234 363.704 54.5303 363.822 53.9732C363.939 53.4309 363.91 52.2435 363.733 50.4112C363.336 47.4941 363.498 46.0869 364.248 46.2042C364.881 46.2628 365.366 47.2596 365.719 49.2092C366.47 52.6979 366.661 55.0433 366.323 56.2453C366.087 56.9343 365.778 57.5353 365.381 58.0483C364.984 58.5614 364.601 58.8252 364.263 58.8252C361.909 58.2536 360.32 57.6965 359.526 57.1542C358.716 56.6118 357.083 55.1019 354.612 52.6393C351.846 49.8835 350.331 48.5495 350.036 48.6082C349.698 48.6668 349.095 49.473 348.227 51.0122C346.152 54.97 344.49 57.6526 343.225 59.0891C342.239 60.2325 341.209 60.2325 340.12 59.0891C339.605 58.4588 339.341 57.7991 339.341 57.1102C339.341 56.5385 339.444 56.1427 339.65 55.9082C339.856 55.6736 340.179 55.6297 340.635 55.7323C341.033 55.9082 341.415 55.7616 341.753 55.3072C342.092 54.8527 342.46 54.2811 342.827 53.5921C343.195 52.9032 343.475 52.4781 343.651 52.3021C344.166 51.7891 344.769 50.8803 345.461 49.5903C346.152 48.3003 346.638 47.2303 346.932 46.3654C347.109 45.911 347.197 45.4566 347.197 45.0315C347.197 44.6064 347.153 44.2546 347.064 44.0054C346.976 43.7562 346.8 43.4044 346.55 42.9793C346.299 42.5542 346.138 42.2756 346.079 42.1584C345.785 41.704 345.314 40.7658 344.652 39.3732C343.99 37.966 343.372 36.6907 342.798 35.5473C342.224 34.404 341.856 33.7736 341.68 33.6564C341.503 33.5391 341.047 32.7182 340.297 31.1644C339.267 29.2148 338.693 28.2766 338.576 28.3353C338.178 28.218 337.516 28.3939 336.589 28.8483C335.677 29.3027 335.089 29.5666 334.868 29.6252C333.779 30.2556 331.426 31.4576 327.806 33.2313C324.187 35.005 321.745 36.2949 320.48 37.1011C320.362 37.2184 319.965 37.4823 319.273 37.922C318.582 38.3618 318.155 38.8015 317.979 39.256C317.92 39.5491 317.787 40.6339 317.596 42.5248C317.39 44.4158 317.287 45.6764 317.287 46.3068C317.287 46.424 317.376 46.4827 317.552 46.4827C317.729 46.4827 317.92 46.4533 318.155 46.3947C318.391 46.3361 318.582 46.2188 318.758 46.0576C319.215 45.7204 320.509 45.0168 322.642 43.9467C324.761 42.8913 325.967 42.3636 326.262 42.3636C326.556 42.3636 326.777 42.5248 326.953 42.8327C327.13 43.1552 327.159 43.4776 327.041 43.8148C326.806 44.1519 326.35 44.5038 325.658 44.8409C324.967 45.178 324.452 45.4712 324.114 45.7058C323.937 45.8817 323.172 46.3801 321.789 47.2156C320.406 48.0511 319.318 48.7548 318.508 49.3264C317.699 49.8981 317.273 50.2939 317.214 50.5285C317.037 50.4698 316.861 51.1881 316.655 52.6686C316.449 54.1638 316.243 56.0254 316.007 58.2536C315.772 60.4817 315.581 62.0648 315.404 62.9736C315.169 63.6626 314.919 65.6122 314.624 68.8078C314.507 70.816 313.992 72.106 313.08 72.6777C312.27 73.2493 311.579 73.1028 311.005 72.2525C310.829 71.9594 310.608 71.0359 310.314 69.4674C310.019 67.8989 309.887 66.6823 309.887 65.8174V64.7034H310.755C311.329 64.762 311.697 64.5861 311.873 64.1903C312.109 63.5013 312.373 61.5078 312.697 58.2242C313.006 54.926 313.08 53.1963 312.918 53.0351C312.344 53.1523 311.579 53.3869 310.637 53.768C309.696 54.1345 308.666 54.5742 307.577 55.058C306.489 55.5417 305.768 55.8495 305.429 55.9668C304.62 56.5385 303.767 56.5238 302.84 55.9228C301.928 55.3218 301.634 54.6768 301.972 53.9879C302.09 53.5921 302.708 53.123 303.826 52.61C304.944 52.0969 305.974 51.7744 306.886 51.6718C307.46 51.6132 308.622 51.2028 310.373 50.4258C312.123 49.6489 313.124 49.0919 313.344 48.7548C313.859 47.5527 314.257 44.9728 314.551 41.0297C314.551 40.5166 314.551 40.3114 314.551 40.4287C314.492 40.4873 314.463 40.5459 314.463 40.6046C314.168 40.4287 313.786 40.37 313.3 40.4287C312.815 40.4873 312.447 40.5459 312.226 40.6046C311.991 40.6632 311.623 40.7951 311.108 40.9857C310.593 41.1909 310.211 41.3375 309.99 41.4548C309.416 41.6307 308.681 41.8945 307.798 42.2756C306.901 42.6421 306.033 42.9646 305.165 43.2138C304.296 43.463 303.355 43.5949 302.325 43.5949C300.545 43.7708 299.53 43.7415 299.309 43.507C299.074 43.3311 298.897 42.9646 298.75 42.3929C298.603 41.8212 298.588 41.3961 298.706 41.103C299.618 40.414 301.486 39.7983 304.311 39.256L304.238 39.212ZM324.158 13.9112C323.172 14.0285 322.378 14.2044 321.745 14.4242C320.244 14.7614 318.302 14.9959 315.89 15.1132L312.27 15.2011C311.814 14.5708 311.55 13.9405 311.491 13.3102C311.491 12.9144 311.535 12.6652 311.623 12.5772C311.711 12.4893 312.035 12.416 312.609 12.3574C312.668 12.3574 313.918 12.2694 316.36 12.0935C318.803 11.9176 320.48 11.6977 321.407 11.4046C322.436 11.126 323.393 10.8915 324.246 10.7156C325.394 10.5983 326.203 10.8182 326.659 11.3606C327.115 11.903 326.997 12.5186 326.32 13.2076C325.864 13.5447 325.143 13.7793 324.172 13.8965L324.158 13.9112ZM363.895 14.219C363.439 14.3656 362.777 14.0578 361.909 13.3102C361.041 12.4453 360.085 11.6391 359.025 10.8622C357.966 10.0853 356.745 9.2644 355.362 8.37022C353.979 7.4907 352.949 6.78709 352.258 6.25938C351.861 5.86359 351.272 5.48247 350.537 5.14532C349.786 4.80817 349.33 4.57363 349.154 4.45637C348.698 3.94331 348.492 3.22504 348.55 2.31621C348.609 1.40737 349.183 1.08488 350.272 1.37805C350.963 1.49532 351.537 1.68588 351.993 1.93508C352.449 2.19894 352.979 2.53608 353.582 2.96119C354.185 3.38629 354.685 3.75275 355.097 4.03127C355.436 4.20717 356.289 4.79351 357.642 5.7903C358.996 6.78709 360.158 7.54934 361.129 8.06239C361.938 8.51681 362.527 8.89793 362.895 9.17645C363.262 9.46962 363.63 9.89472 363.969 10.4664C364.307 11.0381 364.513 11.6977 364.572 12.4453C364.572 13.4714 364.336 14.0578 363.88 14.2044L363.895 14.219Z" fill="white"/>
<path d="M386.302 50.499C386.125 52.2727 386.243 54.3982 386.64 56.8608C386.64 57.0367 386.596 57.4472 386.508 58.1068C386.419 58.7664 386.331 59.3821 386.243 59.9538C386.154 60.5255 386.007 61.0972 385.816 61.6688C385.61 62.2405 385.316 62.651 384.904 62.9148C384.507 63.1787 384.036 63.2227 383.521 63.0468C382.712 62.7682 382.241 62.2552 382.094 61.5369C381.947 60.8186 382.02 59.8219 382.315 58.5319C382.609 57.2419 382.741 56.2598 382.741 55.5709C383.08 50.1911 383.197 41.0002 383.08 27.998C382.624 27.998 381.873 29.0241 380.843 31.0909C380.549 31.2082 380.049 32.1317 379.328 33.8761C378.607 35.6205 377.989 36.6172 377.474 36.8371C376.386 37.2915 375.635 37.2036 375.238 36.5733C374.841 35.9429 375.032 35.0634 375.841 33.9054C376.474 31.8972 377.695 29.3905 379.505 26.3855C381.314 23.3805 382.476 21.3283 382.991 20.2435C384.889 16.403 386.552 13.5445 387.993 11.6536C388.391 11.2578 388.685 10.7887 388.862 10.2757C389.038 9.41082 389.406 8.86845 389.98 8.64857C390.553 8.41403 391.215 8.50198 391.966 8.91242C392.142 9.08832 392.231 9.48411 392.231 10.1144C392.231 10.7448 392.142 11.2285 391.966 11.5803C391.098 13.2367 390.141 14.9664 389.082 16.7401C388.023 18.5138 387.14 20.0383 386.449 21.299C385.875 22.1052 385.904 22.8235 386.537 23.4391C386.993 24.1281 387.258 24.9783 387.317 26.019C387.376 27.0452 387.317 28.4231 387.096 30.1381C386.89 31.8532 386.787 33.2311 386.787 34.2572C386.787 39.9301 386.611 45.3391 386.272 50.4843L386.302 50.499ZM402.985 12.4891C403.927 12.753 404.692 12.9875 405.265 13.2221C405.839 13.4566 406.457 13.7644 407.119 14.1602C407.781 14.556 408.267 15.0837 408.59 15.6994C408.899 16.3297 409.032 17.1066 408.973 18.0154C408.458 19.7891 408.061 21.1377 407.767 22.0466C407.472 22.9701 407.016 23.9962 406.384 25.1395C405.751 26.2829 404.971 27.3676 404.059 28.4084C403.824 28.7016 403.235 29.4199 402.294 30.5925C401.352 31.7652 400.675 32.6741 400.263 33.3044C400.087 33.8761 399.999 36.2948 399.999 40.5604C399.999 44.8261 400.116 47.2741 400.337 47.9044C400.455 48.4761 400.513 49.1357 400.513 49.8833C400.513 50.6309 400.44 51.3931 400.293 52.1554C400.146 52.9323 399.866 53.504 399.425 53.8705C398.998 54.2369 398.439 54.2809 397.748 54.0024C397.115 53.7239 396.747 53.3427 396.629 52.8883C396.512 52.4339 396.453 51.1146 396.453 48.9305C396.453 43.8293 396.453 39.1972 396.409 35.0194C396.379 30.8417 396.409 27.1771 396.541 24.0255C396.659 20.8739 396.88 18.895 397.233 18.1034C397.233 17.9275 397.483 17.5757 397.968 17.0333C398.454 16.4909 398.557 15.9925 398.277 15.5235C397.88 14.7759 397.983 14.0429 398.616 13.3393C399.248 12.6211 399.969 12.1227 400.764 11.8295C401.278 12.0054 402.014 12.2106 402.956 12.4745L402.985 12.4891ZM399.587 15.8753C399.587 16.2124 399.851 16.7694 400.366 17.5024L401.146 18.7044C404.471 17.7369 405.221 16.9307 403.382 16.3004C400.852 15.2156 399.587 15.069 399.587 15.8753ZM404.03 20.8152C403.721 20.7859 403.5 20.8592 403.382 21.0351C403.323 21.211 402.838 21.4895 401.911 21.9C400.881 22.413 400.278 22.7795 400.102 22.9701C399.925 23.1753 399.896 23.703 400.013 24.5532C400.19 26.5614 400.469 27.4996 400.881 27.3823C401.058 27.3237 401.19 27.0158 401.308 26.4441C401.426 25.9311 401.985 25.0076 402.985 23.6883C403.986 22.369 404.5 21.5188 404.5 21.1084C404.5 20.9325 404.339 20.8299 404.03 20.8006V20.8152ZM421.316 15.3182C421.257 14.8345 421.052 14.3068 420.713 13.7351C419.963 12.709 419.919 11.6389 420.581 10.5542C421.243 9.46945 422.111 9.08833 423.214 9.44013C423.67 9.73331 424.391 9.29355 425.362 8.15017C426.333 7.0068 426.907 6.43511 427.083 6.43511C427.378 6.25921 427.819 5.95138 428.422 5.49696C429.025 5.04254 429.54 4.67608 429.967 4.42688C430.394 4.17768 430.997 3.94314 431.777 3.73792C432.556 3.5327 433.233 3.606 433.807 3.9578C434.44 4.07507 435.19 4.57347 436.043 5.46764C436.911 6.36182 437.544 7.13873 437.941 7.82768C438.059 8.06222 438.191 9.44013 438.324 11.9907C438.471 14.5413 438.588 15.9339 438.706 16.1538C438.765 16.96 438.647 19.1441 438.368 22.7209C438.073 26.2976 438.029 28.2618 438.191 28.599C438.309 28.7749 438.382 33.8174 438.412 43.712C438.441 53.6213 438.412 59.3381 438.368 60.8919C438.309 62.607 437.97 63.8237 437.338 64.5419C436.705 65.2602 435.646 65.8172 434.145 66.213C433.233 66.3889 432.247 65.9931 431.218 65.055C430.188 64.1168 429.555 63.0028 429.32 61.7421C429.025 60.5988 429.025 59.9391 429.32 59.7632C429.614 59.5873 430.07 59.9391 430.703 60.7893C431.968 62.5044 432.851 63.3692 433.38 63.3692C434.292 63.0907 434.851 62.05 435.057 60.2763C435.263 58.5026 435.278 56.4211 435.102 54.0464C434.925 51.6717 434.896 50.1325 435.013 49.4582C435.131 47.5086 435.16 45.5004 435.102 43.4482C435.043 41.3813 434.925 38.303 434.763 34.2132C434.587 30.1235 434.498 27.2943 434.498 25.7552C434.263 24.949 433.689 24.9197 432.777 25.6672C431.394 26.8106 429.437 27.8074 426.922 28.6723C426.407 28.9068 426.009 29.0387 425.715 29.0974C425.421 29.156 425.171 29.1413 424.936 29.0534C424.7 28.9654 424.553 28.8921 424.465 28.8335C424.376 28.7749 424.244 28.599 424.082 28.3205C423.906 28.0419 423.773 27.8367 423.656 27.7194C423.656 27.265 423.626 26.9132 423.567 26.6933C423.508 26.4588 423.611 26.2682 423.876 26.0923C424.141 25.9164 424.332 25.7845 424.479 25.7112C424.627 25.6233 424.921 25.4767 425.392 25.2861C425.848 25.0809 426.23 24.905 426.51 24.7291C430.129 23.4684 432.777 21.6654 434.439 19.3201C434.616 18.9829 434.748 18.4405 434.822 17.6929C434.91 16.9454 434.866 16.5203 434.69 16.403C434.513 16.4616 433.321 16.9454 431.115 17.8688C428.908 18.7923 427.334 19.4373 426.421 19.8478C426.186 19.8478 425.965 20.0383 425.73 20.4048C425.495 20.7713 425.392 21.167 425.392 21.5628C425.686 22.6476 425.333 23.4831 424.362 24.0548C423.376 24.6265 422.552 24.5972 421.861 23.9668C421.566 23.6297 421.434 22.0466 421.434 19.2468C421.434 17.1359 421.405 15.8313 421.346 15.3329L421.316 15.3182ZM432.998 7.54917C432.851 7.4319 432.498 7.35861 431.924 7.32929C431.35 7.29997 430.938 7.35861 430.717 7.50519C430.482 7.65178 429.996 8.09154 429.246 8.83913C427.584 10.5542 426.51 12.4158 426.054 14.4241C425.598 15.5088 425.715 16.0512 426.392 16.0512C426.569 16.0512 427.657 15.6554 429.673 14.8492C430.247 14.6733 430.614 14.6146 430.791 14.6733C432.056 14.6146 433.057 13.9403 433.807 12.6504C434.557 11.3604 434.528 9.99716 433.719 8.57527C433.38 8.00359 433.13 7.66644 432.983 7.54917H432.998Z" fill="white"/>
<path d="M491.125 32.7178C490.89 32.8351 490.522 33.0403 490.007 33.3189C486.447 35.2684 484.107 36.4265 482.975 36.7929C481.856 37.1594 479.797 37.5552 476.81 37.951C474.456 38.2881 472.411 38.5813 470.69 38.8158C469.704 38.9917 468.498 39.2263 467.027 39.5488C465.555 39.8713 464.261 40.1351 463.099 40.3697C461.951 40.6042 460.701 40.8094 459.347 41.0146C457.993 41.2199 456.684 41.3078 455.419 41.2785C454.154 41.2492 452.977 41.0879 451.888 40.8094C451.55 40.6921 451.138 40.1498 450.682 39.1823C450.446 38.6693 450.446 38.4054 450.682 38.4054C450.799 38.4054 450.917 38.4347 451.02 38.4934C451.417 38.4347 451.991 38.1855 452.741 37.7164C453.492 37.262 454.639 37.0861 456.184 37.2034C458.199 37.1448 460.362 36.8662 462.687 36.3385C465.011 35.8108 467.012 35.503 468.674 35.4004C470.749 35.2245 472.47 35.0339 473.853 34.7994C475.236 34.5648 476.295 34.3596 477.046 34.1544C477.796 33.9492 479.37 33.5094 481.783 32.8205C482.695 32.5859 484.049 32.1608 485.829 31.5305C487.609 30.9002 489.154 30.3431 490.434 29.8594C491.728 29.3757 492.434 29.0972 492.552 29.0385C493.641 28.3496 494.332 28.5255 494.627 29.5516C494.921 30.5191 494.685 31.208 493.935 31.6184C493.7 31.7357 493.45 31.7944 493.155 31.7944C492.758 31.7944 492.067 32.1168 491.081 32.7325L491.125 32.7178Z" fill="white"/>
<path d="M518.019 29.8009C518.019 29.5224 518.313 28.9214 518.887 27.9979C519.519 27.0305 520.093 25.6232 520.608 23.7909C521.123 21.9586 521.241 20.9618 520.946 20.7859C520.711 20.61 518.99 20.9032 515.768 21.6507C514.959 21.8853 514.414 21.9439 514.135 21.8267C513.841 21.7094 513.59 21.4016 513.355 20.8885C513.12 20.1995 513.296 19.6425 513.87 19.2174C514.444 18.7923 515.591 18.3672 517.313 17.9714C519.725 17.3411 521.108 16.9453 521.447 16.7694L521.27 14.1016C521.152 11.4044 521.417 9.89452 522.05 9.54272C522.741 9.14693 523.374 9.20557 523.948 9.71862C524.242 10.0118 524.374 10.9206 524.374 12.4744C524.374 14.0283 524.492 14.8491 524.713 14.9664C525.287 15.1423 526.405 14.4827 528.082 12.9875C529.053 12.1226 529.788 11.7269 530.274 11.7855C530.759 11.8441 531.068 12.3865 531.186 13.4126C531.245 13.867 531.23 14.2042 531.142 14.3947C531.054 14.5999 530.701 14.9811 530.068 15.5528C529.671 15.9485 528.744 16.5789 527.302 17.4437C525.86 18.3086 525.007 18.8509 524.713 19.0708C524.477 19.5839 524.139 20.9178 523.683 23.058C523.227 25.1981 522.771 26.5321 522.3 27.0451C521.962 27.7341 521.829 28.1152 521.917 28.2032C522.006 28.2911 522.388 28.0712 523.08 27.5582C524.227 26.8106 526.066 25.3887 528.597 23.2632C530.377 21.9439 531.436 21.768 531.789 22.7501C532.025 23.4391 531.892 24.1281 531.407 24.817C530.921 25.506 529.862 26.4441 528.258 27.6461C527.449 28.2178 526.905 28.7309 526.625 29.1853C526.331 29.6397 526.052 30.4166 525.757 31.5013C525.64 31.9558 525.566 32.806 525.537 34.0373C525.507 35.2686 525.537 36.3973 525.581 37.4234C525.64 38.4495 525.728 38.9626 525.846 38.9626C526.022 38.9626 526.64 38.4202 527.699 37.3355C528.759 36.2507 529.435 35.4738 529.73 35.0194C530.127 34.6236 530.539 34.2718 530.936 33.9933C531.333 33.7148 531.804 33.5096 532.363 33.3923C532.907 33.275 533.29 33.5096 533.525 34.0813C533.864 34.653 533.834 35.2833 533.393 35.9722C532.952 36.6612 531.745 37.9805 529.73 39.9301C527.317 42.2754 525.89 43.5947 525.463 43.8879C525.036 44.1811 524.698 45.002 524.477 46.3799C524.242 47.6991 524.168 48.4761 524.213 48.6959C523.874 48.7546 524.698 49.0917 526.714 49.722C532.231 51.4371 536.541 52.5805 539.646 53.1522C544.53 54.0756 547.943 54.6913 549.9 54.9991C551.857 55.3216 554.828 55.6295 558.815 55.9373C562.802 56.2598 566.936 56.2891 571.188 56.0692L576.97 55.9813C577.367 56.3184 577.662 56.8168 577.838 57.4471C578.015 58.0775 577.897 58.6198 577.5 59.0742C577.264 59.3088 576.749 59.4407 575.955 59.4993C575.146 59.558 572.909 59.6166 569.231 59.6752H561.258C560.257 59.6752 559.183 59.6313 558.065 59.5433C556.947 59.4554 556.049 59.3821 555.387 59.3234C554.725 59.2648 553.799 59.1622 552.622 59.0156C551.445 58.869 550.562 58.7517 549.988 58.6785C549.414 58.5905 548.399 58.4293 546.972 58.2094C545.53 57.9748 544.442 57.8136 543.691 57.6963C541.161 57.3592 537.571 56.5236 532.922 55.2044C528.273 53.8851 524.669 53.0642 522.153 52.7124C521.403 52.7124 520.946 52.5951 520.77 52.3752C520.476 52.0381 519.74 51.7156 518.534 51.4371C517.327 51.1586 516.15 51.012 515.003 51.012C513.796 51.012 513.031 51.1439 512.722 51.3931C512.413 51.657 511.707 52.7857 510.604 54.7793C509.692 56.553 508.706 57.9309 507.676 58.8983C506.646 59.8658 505.749 60.4228 504.999 60.5254C504.013 60.7014 503.454 60.5254 503.321 59.9684C503.174 59.426 503.542 58.869 504.395 58.2973C505.366 57.8429 506.44 56.5383 507.588 54.3835C508.735 52.2433 509.603 50.4256 510.177 48.9305C510.177 48.3588 510.53 47.0395 511.251 44.9726C511.972 42.9058 512.619 41.2493 513.193 39.9887C513.193 39.7542 513.34 39.5343 513.62 39.2997C513.914 39.0652 514.164 38.9626 514.4 38.9626C515.091 38.9626 515.488 39.3291 515.606 40.0767C515.724 40.8242 515.547 41.7624 515.091 42.9058C514.061 45.3098 513.708 46.6877 514.061 47.0248C514.4 47.2007 515.268 47.362 516.651 47.5379C518.033 47.7138 518.916 47.8604 519.328 47.963C520.299 48.2562 520.902 48.2855 521.138 48.0509C521.476 47.6552 521.859 45.002 522.256 40.106C522.653 35.21 522.682 32.6447 522.344 32.4248C522.226 32.3662 520.873 32.9672 518.298 34.2279C516.165 35.3126 514.738 35.9429 513.988 36.1188C513.237 36.2947 512.664 36.1775 512.266 35.7817C511.693 35.1513 511.796 34.4038 512.575 33.5536C513.355 32.7034 514.032 32.2929 514.606 32.3515C516.842 31.6626 517.989 30.8124 518.048 29.7716L518.019 29.8009ZM557.02 39.8861C558.08 39.9154 558.992 39.8568 559.742 39.7102C560.493 39.5636 561.581 39.3437 563.023 39.0212C564.465 38.7134 565.553 38.4935 566.304 38.3762C567.51 38.2003 568.422 37.8046 569.07 37.1742C569.305 36.9397 569.379 36.2507 569.29 35.0634C569.202 33.8907 569.29 33.1578 569.599 32.8793C569.894 32.5421 570.32 32.5275 570.894 32.8353C571.468 33.1578 571.762 33.4509 571.762 33.7441C572.218 35.6937 572.365 37.1009 572.189 37.9511C571.85 39.3291 571.453 40.2526 571.026 40.7363C570.6 41.22 569.835 41.4985 568.746 41.5572C568.231 41.5572 566.363 41.8797 563.141 42.4953C559.919 43.1256 557.624 43.3895 556.241 43.2722C555.373 43.2136 554.21 42.9937 552.754 42.5833C551.283 42.1875 550.474 41.8943 550.297 41.7184C549.606 40.8536 548.914 39.0066 548.223 36.1335C548.164 35.7377 548.105 33.7734 548.046 30.2554C547.987 26.7373 547.899 24.7437 547.781 24.2893C547.149 22.1785 547.87 21.0791 549.929 21.0204C550.444 21.0204 551.194 20.9178 552.165 20.7126C553.136 20.5074 554.049 20.3168 554.887 20.1116C555.726 19.9064 556.55 19.8331 557.388 19.8477C558.227 19.8771 558.845 20.1262 559.242 20.5807C559.639 20.9765 559.875 21.2843 559.933 21.4895C559.992 21.6947 559.992 22.1638 559.933 22.9114C559.875 23.8789 559.419 25.374 558.551 27.3823C557.168 30.6511 555.873 32.4248 554.667 32.7034C554.21 32.762 553.548 32.9819 552.68 33.3483C551.812 33.7148 551.342 34.1985 551.253 34.7702C551.165 35.3419 551.415 36.2947 551.989 37.5993C552.283 38.2297 552.519 38.6254 552.725 38.8013C552.93 38.9773 553.372 39.1678 554.063 39.4024C554.975 39.6955 555.976 39.8421 557.035 39.8714L557.02 39.8861ZM556.108 23.5271C555.535 23.4684 554.358 23.6736 552.577 24.1281C552.063 24.0694 551.695 24.4359 551.503 25.1981C551.297 25.975 551.194 26.8839 551.165 27.954C551.136 29.0094 551.121 29.5664 551.121 29.625C551.636 29.7423 551.974 29.8009 552.107 29.8009C552.239 29.8009 552.504 29.6983 552.886 29.4931C553.254 29.2879 553.563 29.1706 553.799 29.112C554.255 28.9947 554.637 28.7748 554.917 28.423C555.211 28.0859 555.52 27.4849 555.858 26.62C556.197 25.7552 556.491 25.2128 556.726 24.9929C557.065 24.0254 556.873 23.5271 556.123 23.5271H556.108Z" fill="white"/>
<path d="M601.039 24.4799C601.377 24.2453 602.069 23.7323 603.113 22.9407C605.07 21.2843 606.247 20.3608 606.644 20.1849C607.336 20.3608 607.659 20.7419 607.63 21.3429C607.601 21.9439 607.277 22.5009 606.644 23.014C606.071 23.5271 605.188 24.3919 604.011 25.5939C602.834 26.7959 602.069 27.5728 601.73 27.91C601.216 28.3644 600.833 28.7895 600.612 29.156C600.377 29.5224 600.23 29.8009 600.142 29.9769C600.053 30.1528 599.965 30.5339 599.877 31.1349C599.788 31.7359 599.715 32.2343 599.656 32.6447C599.538 33.3337 599.524 34.5943 599.612 36.4267C599.7 38.259 599.833 39.3437 599.994 39.6955C600.053 39.7542 600.127 39.7688 600.215 39.7395C600.303 39.7102 600.436 39.6222 600.598 39.4756C600.774 39.3291 600.936 39.1532 601.113 38.9186C602.084 37.9511 602.952 37.1303 603.702 36.4706C604.452 35.811 605.055 35.3859 605.511 35.1807C605.968 34.9754 606.262 34.9901 606.379 35.2246C606.497 35.4592 606.335 35.8989 605.909 36.5586C605.482 37.2182 604.952 37.9218 604.32 38.6694C603.687 39.417 603.319 39.9007 603.202 40.1353C603.143 40.2526 602.628 40.9415 601.657 42.2022C600.671 43.4628 600.186 44.3716 600.186 44.958C600.009 45.7642 599.818 48.4174 599.583 52.9469C599.347 57.4764 599.009 60.3642 598.553 61.6248C598.258 62.1965 597.641 62.3578 596.699 62.0939C595.757 61.8301 595.301 61.361 595.36 60.672C594.963 59.1329 594.595 58.0042 594.286 57.3152C593.977 56.6262 593.433 55.8054 592.697 54.8232C592.241 54.0756 591.844 53.6066 591.535 53.4013C591.226 53.1961 590.77 53.0935 590.196 53.0935C589.622 53.0935 589.078 52.9763 588.563 52.7564C588.048 52.5218 587.695 52.2726 587.533 51.9795C587.298 51.525 587.298 51.1146 587.533 50.7775C587.769 50.4403 588.313 50.0005 589.166 49.4875C590.137 48.9744 591.461 48.0509 593.139 46.7317C594.801 45.4124 595.846 44.5036 596.243 43.9758C596.537 43.7999 596.699 43.0963 596.758 41.865C596.817 40.6337 596.758 39.1092 596.625 37.3062C596.478 35.5032 596.405 34.3744 596.405 33.92C596.405 33.1724 596.331 32.6594 596.184 32.3809C596.037 32.1024 595.875 31.9851 595.713 32.0437C595.537 32.1024 595.213 32.2489 594.728 32.4688C594.242 32.7034 593.815 32.8646 593.477 32.9819C592.447 33.4363 591.285 33.8467 590.034 34.1839C588.769 34.521 587.96 34.609 587.622 34.4477C587.327 34.3891 587.018 34.0226 586.68 33.3337C586.342 32.6447 586.195 32.1903 586.253 31.9558C586.253 31.7799 586.857 31.4574 588.063 30.9736C589.269 30.4899 590.623 29.9769 592.109 29.4345C593.609 28.8921 594.551 28.511 594.948 28.2765C595.404 28.1005 595.757 27.954 595.978 27.8074C596.213 27.6608 596.375 27.4702 596.493 27.2064C596.611 26.9425 596.67 26.7373 596.67 26.5614C596.67 26.3855 596.67 26.0483 596.625 25.5353C596.596 25.0222 596.581 24.5971 596.581 24.2453V22.6182C596.581 22.4423 596.684 22.1345 596.89 21.6801C597.096 21.2256 597.214 20.8152 597.273 20.4781C597.332 19.7891 597.685 19.32 598.347 19.0562C599.009 18.7923 599.656 18.8363 600.289 19.1881C600.921 19.6425 600.98 20.2728 600.465 21.0791C600.289 21.3136 600.171 21.7387 600.127 22.369C600.068 22.9993 600.053 23.5857 600.083 24.1281C600.112 24.6704 600.186 24.9489 600.303 24.9489C600.245 25.1248 600.509 24.9783 601.083 24.5238L601.039 24.4799ZM596.64 51.5837C596.699 49.4435 596.64 48.3295 596.464 48.2708C596.405 48.2122 596.213 48.3148 595.904 48.5787C595.596 48.8425 595.228 49.1943 594.83 49.6487C594.433 50.1032 594.11 50.5136 593.889 50.8507C593.654 51.1879 593.551 51.4371 593.58 51.5837C593.609 51.7303 593.801 52.0234 594.139 52.4925C594.536 53.0642 594.904 53.5333 595.213 53.9144C595.522 54.2809 595.787 54.5594 595.993 54.7353C596.199 54.9112 596.316 54.9698 596.375 54.9112C596.493 54.8526 596.581 53.7532 596.64 51.5983V51.5837ZM623.666 44.7088C623.122 45.0313 622.754 45.1485 622.592 45.0899C622.357 45.0899 622.004 44.7821 621.518 44.1811C621.033 43.5801 620.783 43.111 620.783 42.7592C620.9 42.4807 621.371 42.0116 622.21 41.3813C623.048 40.7509 623.519 40.3845 623.637 40.2672C623.754 40.2086 624.902 39.5489 627.079 38.2883C629.257 37.0277 630.875 35.8843 631.905 34.8582C632.42 34.3451 633.185 33.92 634.185 33.5682C635.186 33.2311 636.068 33.2311 636.819 33.5682C637.569 34.0813 637.687 35.1953 637.157 36.925C636.863 37.8925 636.319 39.4024 635.524 41.4399C634.715 43.4775 634.171 44.6941 633.891 45.0899C633.435 45.7202 633.361 46.2333 633.67 46.6291C633.979 47.0248 635.127 47.8311 637.069 49.0331C638.334 49.8979 640.335 51.0413 643.057 52.4632C645.778 53.8997 647.632 54.9845 648.618 55.7321C649.25 56.3038 650.795 57.1979 653.267 58.3999C655.738 59.602 657.254 60.4082 657.842 60.804C658.181 61.2584 658.21 61.9034 657.931 62.7389C657.636 63.5744 657.195 64.1315 656.592 64.41C655.989 64.7032 655.341 64.4686 654.65 63.721C653.443 62.7536 651.575 61.5369 649.044 60.071C646.514 58.6052 644.675 57.4471 643.527 56.5969C642.777 56.1425 641.939 55.7174 640.982 55.307C640.041 54.9112 638.82 54.2222 637.319 53.2401C633.7 50.8947 631.567 49.6927 630.934 49.6341C630.596 49.81 629.875 50.3963 628.786 51.3931C627.697 52.3899 626.918 52.9762 626.461 53.1521C626.167 53.3281 625.417 53.8997 624.181 54.8672C622.945 55.8347 621.812 56.3624 620.783 56.4064C620.032 56.5236 619.459 56.377 619.061 55.9813C618.488 55.4096 618.34 54.8526 618.635 54.3102C618.929 53.7678 619.503 53.5479 620.356 53.6652C620.753 53.7238 621.077 53.7092 621.298 53.6212C621.533 53.5333 621.989 53.1815 622.68 52.5511C626.005 49.6927 627.683 47.9777 627.683 47.3913C627.683 47.1128 627.241 46.5118 626.344 45.5883C625.446 44.6795 624.887 44.2104 624.667 44.2104C624.549 44.2104 624.225 44.3716 623.681 44.6795L623.666 44.7088ZM637.069 7.65175C637.128 7.9889 637.098 8.38468 636.981 8.80978C636.863 9.23488 636.775 9.55737 636.716 9.74793C636.657 9.95315 636.51 10.3489 636.289 10.9499C636.054 11.5509 635.921 11.9321 635.862 12.108C635.171 13.4859 634.627 15.5967 634.229 18.4698C634.112 19.3347 634.053 19.9797 634.053 20.4048C634.053 20.8299 634.097 21.1084 634.185 21.2256C634.274 21.3429 634.406 21.3136 634.568 21.1377C634.73 20.9618 634.906 20.7712 635.083 20.5367C635.259 20.3022 635.465 20.0383 635.73 19.7158C635.995 19.408 636.201 19.1588 636.377 18.9829C636.672 18.6457 637.142 17.9568 637.804 16.916C638.467 15.8899 639.084 14.9811 639.658 14.2042C640.232 13.4273 640.717 12.9875 641.129 12.8702C641.88 13.1048 642.35 13.5005 642.556 14.0722C642.762 14.6439 642.483 15.3329 641.733 16.1391C641.1 16.8281 640.659 17.5317 640.394 18.2499C640.129 18.9682 639.541 19.9797 638.628 21.2989C637.716 22.6182 636.907 23.6443 636.216 24.3919C635.348 25.1395 634.494 25.5499 633.626 25.6379C632.758 25.7258 632.081 25.3887 631.552 24.6558C631.037 23.9082 630.86 22.7941 631.037 21.2989C631.037 19.0122 631.581 16.2857 632.67 13.1341C633.582 10.6128 633.729 9.32283 633.097 9.2642C632.802 9.2642 632.346 9.46942 631.714 9.8652C631.596 9.98247 630.89 10.5102 629.595 11.4483C628.3 12.3865 627.285 13.1927 626.535 13.8524C625.785 14.512 625.27 15.069 624.99 15.5234C624.814 15.6993 624.652 16.2417 624.519 17.1505C624.372 18.074 624.225 19.1148 624.093 20.2875C623.946 21.4602 623.813 22.3104 623.71 22.8234C623.534 23.1166 623.401 23.6443 623.328 24.4066C623.254 25.1688 623.019 25.7698 622.68 26.1656C622.107 26.7959 621.474 26.9572 620.783 26.6347C620.091 26.3269 619.885 25.6526 620.179 24.6118C620.297 23.5857 620.474 22.7795 620.694 22.2078C620.93 21.4602 621.018 20.1849 621.003 18.3819C620.974 16.5789 620.812 14.9957 620.532 13.6178C620.297 12.5331 620.194 11.8441 620.194 11.5509C620.194 11.2578 620.282 10.9793 620.459 10.6861C620.915 9.9385 621.812 9.9385 623.137 10.6861L624.255 11.2871L625.461 10.4222C625.696 10.2463 626.256 9.82123 627.138 9.13227C628.036 8.44331 628.698 7.95958 629.169 7.66641C629.625 7.38789 630.257 7.02143 631.066 6.59633C631.875 6.17123 632.611 5.83408 633.303 5.6142C634.053 5.33568 634.759 5.27705 635.421 5.43829C636.083 5.6142 636.525 5.98066 636.76 6.55235C636.936 6.8895 637.054 7.24131 637.098 7.57846L637.069 7.65175ZM630.86 39.9447L628.963 41.3226C628.271 41.5572 628.3 42.1289 629.051 43.0377C629.507 43.5507 629.845 43.8439 630.037 43.9026C630.242 43.9612 630.478 43.8439 630.772 43.5654C631.066 43.2283 631.419 42.5833 631.846 41.6305C632.273 40.6777 632.493 40.0473 632.493 39.6955C632.611 39.0066 632.067 39.0945 630.86 39.9594V39.9447Z" fill="white"/>
<path d="M667.979 62.3138C667.773 61.83 667.64 60.8333 667.596 59.3527C667.655 58.6051 667.552 57.6816 667.287 56.5676C667.023 55.4535 666.949 54.574 667.023 53.9437C667.111 53.3134 667.523 52.771 668.273 52.3166C668.67 52.1993 668.95 52.1553 669.097 52.1847C669.244 52.214 669.479 52.4045 669.833 52.7417C670.745 53.7092 671.098 55.4682 670.862 57.9748C670.745 59.0009 670.804 59.8365 671.039 60.4668C671.672 62.1819 671.039 63.0467 669.141 63.0467C668.567 63.0467 668.185 62.7975 667.979 62.3138ZM682.632 15.4648C680.94 18.7923 679.395 21.3869 678.027 23.2778C677.733 23.7323 677.659 24.0254 677.762 24.1427C677.88 24.26 678.16 24.2013 678.63 23.9668C679.719 23.6296 680.602 23.3511 681.264 23.1459C681.926 22.9407 682.632 22.7648 683.382 22.5889C684.133 22.413 684.721 22.3104 685.148 22.281C685.574 22.2517 685.825 22.3543 685.883 22.5889C686.398 22.926 686.722 23.3218 686.825 23.7469C686.943 24.172 686.884 24.9343 686.648 26.019C686.413 26.9865 685.913 28.3351 685.133 30.0501C684.353 31.7652 683.677 33.0258 683.103 33.832C682.647 34.4624 682.22 35.122 681.852 35.811C681.485 36.4999 681.323 36.8664 681.382 36.925C681.44 37.0423 682.044 37.0423 683.191 36.925C684.795 36.6905 685.972 36.881 686.722 37.482C687.472 38.0831 687.722 38.86 687.502 39.7981C687.266 40.7363 686.663 41.7037 685.692 42.6712C685.236 43.2429 684.706 43.624 684.103 43.8292C683.5 44.0345 682.97 43.9905 682.514 43.6973C682.176 43.4628 682.014 43.2282 682.044 42.9644C682.073 42.7005 682.308 42.3194 682.779 41.8063C683.588 40.9415 683.75 40.4871 683.294 40.4284C683.059 40.3698 681.911 40.4871 679.851 40.7656C678.307 41.0001 677.277 41.0148 676.791 40.8096C676.306 40.6043 676.056 40.1353 676.056 39.3877C676.056 38.6401 676.968 37.2182 678.822 35.0927C679.969 33.7734 681.087 32.0877 682.191 30.0208C683.574 27.5582 684.089 26.2096 683.735 25.9897C683.397 25.7551 681.543 26.2535 678.218 27.4555C674.717 28.7748 672.819 28.9214 672.525 27.8806C672.348 27.309 672.79 26.3415 673.82 24.9636C674.158 24.5678 674.717 23.7176 675.453 22.4276C676.203 21.1377 676.777 20.1849 677.174 19.5545C678.145 18.2353 679.086 16.5202 679.969 14.3947C680.867 12.2839 681.485 10.3343 681.823 8.56056C681.882 7.87161 682.514 7.44651 683.721 7.2706C684.015 7.2706 684.295 7.44651 684.589 7.78365C684.883 8.1208 685.015 8.50193 685.015 8.89771C685.133 9.92382 684.339 12.108 682.647 15.4208L682.632 15.4648ZM682.161 57.1246C681.985 57.7549 681.558 58.2387 680.867 58.5905C680.352 58.6491 679.866 58.4146 679.395 57.9015C678.939 57.3885 678.454 56.7288 677.968 55.9226C677.483 55.1164 677.086 54.6033 676.806 54.3835C676.115 53.6359 675.776 53.1228 675.776 52.8443C675.894 51.8768 676.291 51.1732 676.983 50.7335C677.674 50.2937 678.395 50.5429 679.131 51.4664C679.528 51.9794 679.999 52.6831 680.558 53.5772C681.102 54.4714 681.426 55.0284 681.543 55.2483C682.117 55.8786 682.323 56.509 682.147 57.1393L682.161 57.1246ZM688.37 47.9337C688.885 48.5053 690.326 50.3084 692.68 53.3427C693.828 54.8379 694.402 55.864 694.402 56.4357C694.402 57.0074 694.255 57.4471 693.975 57.7696C693.681 58.0921 693.313 58.2387 692.857 58.2387C692.46 58.2973 691.901 57.9162 691.18 57.0806C690.459 56.2451 689.988 55.5708 689.753 55.0578C689.576 54.6033 689.061 53.8997 688.208 52.9469C687.355 51.9941 686.604 51.3345 685.972 50.924C685.28 50.4696 685.104 49.722 685.457 48.6959C685.81 47.6698 686.295 47.1274 686.928 47.0688C687.384 47.0688 687.87 47.362 688.399 47.9337H688.37ZM714.616 7.31458C714.984 8.00353 714.94 8.72181 714.484 9.45474C713.91 10.0264 714.145 10.6714 715.175 11.3897C716.205 12.108 717.132 12.4891 717.941 12.5477C718.235 12.6063 719 12.7969 720.266 13.1047C721.531 13.4272 722.737 13.6031 723.885 13.6618C726.533 13.9549 728.048 14.3507 728.46 14.8638C728.857 15.4355 728.902 15.9925 728.593 16.5349C728.284 17.0772 727.46 17.8688 726.136 18.8949C724.988 19.7598 724.091 20.1849 723.458 20.1849C722.134 20.1262 722.046 19.4959 723.193 18.2939C723.826 17.6636 724.135 17.2971 724.135 17.1798C724.017 17.0039 723.414 16.9013 722.325 16.8427C721.178 16.7254 719.501 16.4322 717.279 15.9339C715.072 15.4501 713.704 15.0543 713.189 14.7758C712.792 14.5413 712.512 14.4387 712.365 14.4387C712.218 14.4387 712.115 14.4827 712.056 14.5706C711.997 14.6586 711.909 14.8491 711.791 15.1276C711.674 15.4208 711.497 15.6993 711.276 15.9925C710.703 17.0186 709.761 18.8216 708.481 21.4015C707.201 23.9814 705.965 26.0923 704.818 27.7634C703.67 29.4198 702.346 30.8563 700.846 32.0584C699.757 32.9232 698.845 33.0991 698.124 32.6154C697.403 32.1316 697.447 31.3108 698.256 30.1674C698.433 29.9329 698.639 29.4784 698.904 28.7895C699.168 28.1005 699.448 27.5582 699.772 27.1624C700.081 26.7666 700.478 26.6786 700.934 26.8985C701.272 27.1917 701.669 27.0891 702.096 26.5907C702.523 26.1069 702.964 25.4473 703.391 24.6118C703.817 23.7762 704.156 23.2778 704.377 23.1019C704.833 22.413 705.465 21.1816 706.274 19.408C707.083 17.6343 707.849 16.1391 708.599 14.9371C708.717 14.7025 709.07 13.867 709.673 12.4011C710.276 10.9353 710.82 9.79189 711.306 8.971C711.791 8.13546 712.292 7.57843 712.821 7.29992C713.63 6.61096 714.219 6.61096 714.587 7.29992L714.616 7.31458ZM710.261 30.1674C714.793 29.8302 718.53 28.9067 721.472 27.4116C723.252 26.3855 724.238 26.4441 724.4 27.5875C724.517 28.6136 724.164 29.5077 723.37 30.2553C723.031 30.5485 722.708 30.6511 722.428 30.5925C721.678 30.7684 720.06 31.2521 717.559 32.0584C715.057 32.8646 713.204 33.3776 711.997 33.5975C710.732 33.8907 709.849 33.9347 709.364 33.7734C708.878 33.5975 708.628 33.1138 708.628 32.3076C708.393 31.4427 708.937 30.7391 710.261 30.1674ZM741.73 50.4403C742.304 50.3816 742.731 50.3816 743.025 50.4403C743.319 50.4989 743.511 50.6308 743.628 50.8214C743.746 51.0266 743.82 51.2172 743.849 51.4224C743.878 51.6276 743.893 51.9501 743.893 52.4045C743.717 53.2108 743.364 53.6798 742.819 53.8264C742.275 53.973 740.509 54.0463 737.523 54.0463C728.387 54.3395 721.31 55.2483 716.323 56.8021C715.293 57.1979 714.631 57.3445 714.337 57.2272C712.144 55.7321 711.541 54.1343 712.527 52.4192C712.762 51.7889 712.895 51.1146 712.954 50.3963C713.012 49.678 713.042 47.919 713.042 45.1192C713.042 42.0262 713.101 40.0033 713.218 39.0652C713.336 38.127 713.616 37.4234 714.086 36.9543C714.381 36.5586 714.748 36.3533 715.205 36.3533C715.661 36.3533 716.043 36.4999 716.323 36.7784C716.779 37.2915 716.808 38.7573 716.411 41.1614C716.117 42.1875 716.028 42.9644 716.102 43.4774C716.176 43.9905 716.632 44.0198 717.441 43.5654C718.309 43.111 719.309 42.8031 720.457 42.6565C721.604 42.51 722.649 42.6712 723.605 43.1256C724.547 43.58 725.003 44.3863 724.944 45.5296C724.944 46.1013 724.679 46.9076 724.164 47.9337C723.649 48.9598 723.046 49.8833 722.355 50.6895C721.545 51.657 721.457 52.1553 722.09 52.1553C731.579 50.9533 738.126 50.3816 741.745 50.4403H741.73ZM720.869 45.9694C719.78 46.028 718.736 46.5118 717.765 47.4353C717.25 47.9483 716.779 48.7692 716.382 49.8833C715.984 50.9973 715.867 51.7889 716.043 52.2433C716.161 52.4778 716.44 52.4485 716.911 52.1553C717.603 51.7009 718.382 50.9826 719.236 50.0152C720.104 49.0477 720.751 48.1242 721.222 47.2594C721.854 46.3505 721.737 45.9108 720.883 45.9694H720.869Z" fill="white"/>
<path d="M758.282 31.6041C757.826 32.1758 757.369 32.6448 756.899 33.026C756.443 33.3924 755.987 33.8175 755.516 34.272C754.604 35.2394 753.736 35.5326 752.926 35.1368C752.294 34.7997 752.014 34.3306 752.058 33.7589C752.117 33.1872 752.573 32.293 753.441 31.091C757.355 25.1396 760.591 19.9505 763.181 15.5382C764.211 13.6473 765.079 12.6212 765.77 12.4452C767.212 12.2107 767.918 12.6065 767.889 13.6033C767.859 14.6001 767.477 15.5675 766.726 16.4764C766.153 17.737 765.093 19.4374 763.534 21.5922C761.974 23.7471 760.945 25.5794 760.43 27.1332C760.547 27.1918 761.033 26.9573 761.901 26.4442C766.035 23.6444 767.506 27.3384 766.3 37.5262C766.241 37.8633 766.182 38.3324 766.123 38.9041C766.064 39.4171 766.035 39.7689 766.035 39.9302C765.8 40.2673 765.638 41.9384 765.52 44.9141C765.402 47.8898 765.255 50.7629 765.093 53.5481C764.917 56.3332 764.637 57.7697 764.225 57.887C763.71 58.4587 763.048 58.6199 762.239 58.3561C761.43 58.0922 761.121 57.4766 761.298 56.5091C761.533 55.1898 761.695 52.6392 761.813 48.872C761.93 45.09 762.121 42.4661 762.416 40.971C762.931 37.2477 763.225 34.9902 763.284 34.184C763.343 33.3778 763.284 32.4103 763.107 31.2669C762.989 30.0063 762.842 29.2001 762.681 28.8629C762.519 28.5258 762.224 28.3499 761.813 28.3499C761.356 28.3499 760.179 29.4346 758.282 31.6187V31.6041ZM793.502 33.6709C791.457 34.9902 790.442 35.7085 790.442 35.8111C790.266 36.4414 790.104 37.3209 789.971 38.435C789.824 39.5491 789.751 40.8097 789.751 42.2169C789.751 43.6242 789.957 44.5477 790.354 45.0021C791.104 46.2041 791.649 46.981 791.987 47.3181C792.325 47.6553 792.899 48.0071 793.708 48.3442C795.547 49.2091 798.328 49.6928 802.065 49.8101C805.802 49.9274 809.377 49.8101 812.79 49.473C816.203 49.1358 818.984 48.6667 821.102 48.095C822.426 47.7579 823.338 47.4647 823.868 47.2302C824.383 46.9956 824.692 46.8051 824.78 46.6292C824.868 46.4533 824.957 46.1308 825.045 45.6471C825.133 45.1633 825.295 44.6649 825.516 44.1372C825.913 43.8001 826.384 43.7414 826.899 43.9613C827.414 44.1958 827.649 44.5916 827.59 45.1633C827.649 45.3392 827.782 45.6177 827.973 46.0282C828.179 46.424 828.341 46.7904 828.488 47.0983C828.635 47.4207 828.694 47.7872 828.664 48.2123C828.635 48.6374 828.473 49.0625 828.193 49.4583C827.899 49.9127 827.59 50.2352 827.252 50.3965C826.914 50.5577 825.898 50.7922 824.236 51.0854C814.923 53.4308 805.875 54.0318 797.077 52.8884C794.032 52.3167 791.531 51.2906 789.574 49.7954C788.309 48.7693 787.47 47.8312 787.073 47.0103C786.676 46.1748 786.411 44.7382 786.293 42.6714C786.235 41.8065 786.22 40.7511 786.249 39.4904C786.279 38.2298 786.249 37.4529 786.117 37.1744C785.94 37.0571 785.308 37.145 784.219 37.4382C783.189 37.7314 782.439 37.8633 781.983 37.8633C781.527 37.8633 781.071 37.7167 780.6 37.4382C779.85 36.7493 779.835 36.1189 780.556 35.5473C781.277 34.9756 782.027 34.5505 782.836 34.2573C783.586 34.0228 784.469 33.7003 785.514 33.2752C786.558 32.8501 787.147 32.5422 787.323 32.3663C787.838 31.8533 788.191 30.3874 788.353 27.9834C788.515 25.5794 788.412 23.6591 788.015 22.2226C787.956 21.475 787.823 20.7567 787.632 20.0824C787.426 19.3934 787.176 18.6165 786.853 17.7663C786.544 16.9015 786.293 16.2272 786.117 15.6995C785.823 14.7906 786.161 14.1163 787.103 13.6766C788.044 13.2368 788.839 13.2954 789.471 13.8085C790.045 14.5561 790.692 16.5497 791.413 19.7746C792.134 23.0141 792.325 25.682 791.972 27.8075C791.855 28.4965 791.796 29.0095 791.796 29.3467C791.796 29.6838 791.796 29.9623 791.84 30.1675C791.869 30.3728 791.987 30.4461 792.178 30.3874C792.384 30.3288 792.561 30.2555 792.737 30.1675C792.914 30.0796 793.223 29.889 793.679 29.6105C794.135 29.332 794.576 29.0975 794.974 28.9216C795.488 28.4085 796.106 28.0127 796.827 27.7195C797.548 27.441 798.093 27.0892 798.46 26.6934C798.828 26.2977 799.108 25.6087 799.284 24.6266C799.681 22.2812 799.917 20.7714 799.976 20.1117C800.034 19.4521 800.005 18.0009 799.887 15.7728C799.77 13.7059 799.887 12.4159 800.226 11.9029C800.564 11.3898 801.462 11.3019 802.903 11.639C803.242 12.2107 803.418 13.3101 803.418 14.9519C803.418 16.5936 803.374 18.3527 803.286 20.273C803.198 22.1932 803.183 23.4392 803.242 24.0109C803.698 23.9523 804.478 23.7031 805.566 23.278C806.655 22.8529 807.641 22.5157 808.494 22.2958C809.362 22.0613 809.906 22.032 810.127 22.2079C811.907 22.4424 813.069 22.6916 813.614 22.9848C814.158 23.278 814.629 23.8497 815.041 24.6999C815.556 25.5061 815.526 26.7814 814.953 28.5258C814.379 30.2701 813.658 31.692 812.805 32.7768C812.51 33.4657 811.657 34.2573 810.215 35.1368C808.773 36.031 807.567 36.4121 806.596 36.2948C804.581 36.2362 802.947 35.2981 801.682 33.4657C801.447 33.0699 801.285 32.8647 801.167 32.8647C800.829 33.4364 800.402 33.9934 799.917 34.5358C799.431 35.0782 798.902 35.5766 798.328 36.0456C797.754 36.5001 797.136 36.7199 796.474 36.6906C795.812 36.6613 795.224 36.3388 794.709 35.7085C794.709 35.43 794.826 35.1075 795.047 34.7703C795.283 34.4332 795.474 34.228 795.65 34.1693C795.945 34.0521 796.356 33.671 796.901 33.0113C797.445 32.3517 797.725 31.9119 797.725 31.6774C797.725 31.4428 797.578 31.3256 797.298 31.2963C797.004 31.2669 796.783 31.3695 796.607 31.6041C796.548 31.6627 795.503 32.3517 793.458 33.6709H793.502ZM811.304 25.8139C810.848 25.6087 810.362 25.4621 809.833 25.3448C808.965 25.4035 807.582 25.8726 805.655 26.7667C803.727 27.6609 802.624 28.3499 802.33 28.8776C802.212 29.2734 802.182 29.5665 802.241 29.7424C802.3 29.9183 802.447 30.1529 802.668 30.4754C802.903 30.7979 803.036 31.0617 803.095 31.2963C804.478 33.7589 806.214 34.1547 808.303 32.4983C810.407 30.8418 811.539 28.9216 811.701 26.7374C811.878 26.3416 811.731 26.0338 811.275 25.8286L811.304 25.8139Z" fill="white"/>
<path d="M854.778 54.8817C854.351 55.3362 853.895 55.5121 853.439 55.3948C853.204 55.5121 852.704 55.3068 851.924 54.7938C851.144 54.2807 850.482 53.6651 849.938 52.9468C849.393 52.2285 849.261 51.7301 849.555 51.437C849.732 50.5281 850.202 49.9418 850.982 49.7219C851.762 49.4874 852.601 49.7219 853.527 50.4109C854.042 50.8066 854.498 51.3343 854.91 51.95C855.308 52.5803 855.514 53.0934 855.514 53.4892C855.455 53.9436 855.205 54.4127 854.778 54.8671V54.8817ZM851.115 36.9249C850.776 36.2946 850.585 35.4884 850.556 34.5209C850.526 33.5534 850.556 32.6153 850.688 31.7358C850.806 30.8562 850.953 29.9474 851.115 29.0239C851.806 23.8201 852.365 20.2434 852.792 18.3378C853.218 16.4175 853.704 15.2888 854.219 14.9516C855.308 14.2627 856.264 14.4386 857.058 15.4647C857.867 16.4908 858.147 17.6635 857.926 18.9827C857.75 19.8476 857.617 20.8444 857.544 21.9878C857.456 23.1311 857.323 24.1719 857.161 25.1247C856.999 26.0775 856.705 27.1476 856.293 28.3496C855.425 30.9882 854.91 32.9817 854.749 34.3596C854.454 36.7637 853.763 37.9657 852.674 37.9657C851.983 37.907 851.468 37.5699 851.129 36.9396L851.115 36.9249Z" fill="white"/>
</g>
<defs>
<clipPath id="clip0_178_470">
<rect width="804" height="73" fill="white" transform="translate(54)"/>
</clipPath>
</defs>
</svg>
